<?xml version="1.0" encoding="utf-8"?>
<!-- Generator: Adobe Illustrator 24.0.0, SVG Export Plug-In . SVG Version: 6.00 Build 0)  -->
<svg version="1.1" id="Icon_Set" xmlns="http://www.w3.org/2000/svg" xmlns:xlink="http://www.w3.org/1999/xlink" x="0px" y="0px"
	 viewBox="0 0 256 256" style="enable-background:new 0 0 256 256;" xml:space="preserve">
<style type="text/css">
	.st0{fill:#F9D335;}
	.st1{fill:#F9E27D;}
	.st2{fill:#F2C300;}
	.st3{fill:#FFCAA6;}
	.st4{fill:#FFBB98;}
	.st5{fill:#FFAA80;}
	.st6{fill:#87828E;}
	.st7{fill:#A4A4A5;}
	.st8{fill:#796E84;}
	.st9{fill:#5F266D;}
	.st10{fill:#FFE2E2;}
	.st11{fill:#FFEFEE;}
	.st12{fill:#FF4A73;}
	.st13{fill:#FFCFCF;}
	.st14{fill:#5FCDFF;}
	.st15{fill:#73D7F9;}
	.st16{fill:#30B6FF;}
	.st17{fill:#44C7B6;}
	.st18{fill:#4BDBC3;}
	.st19{fill:#3BB2A0;}
	.st20{fill:#EA2A6A;}
	.st21{fill:#F973A3;}
	.st22{fill:#B76C6C;}
	.st23{fill:#C98585;}
	.st24{fill:#965959;}
	.st25{fill:#3193F3;}
	.st26{fill:#35B1FC;}
	.st27{fill:#307FED;}
</style>
<g>
	<g>
		<g>
			<g id="XMLID_119_">
				<path id="XMLID_122_" class="st14" d="M206.387,218.504V26.858h-12.745c-5.865,0-10.619,4.754-10.619,10.619v181.026
					c0,5.865,4.754,10.619,10.619,10.619h2.125C201.633,229.123,206.387,224.369,206.387,218.504z"/>
				<path id="XMLID_121_" class="st15" d="M183.023,48.096c0-5.862,4.757-10.619,10.619-10.619h12.743V26.857h-12.743
					c-5.862,0-10.619,4.757-10.619,10.619V48.096z"/>
				<path id="XMLID_120_" class="st16" d="M193.643,229.123h2.124c5.865,0,10.619-4.754,10.619-10.619v0h-12.743
					c-5.862,0-10.619-4.757-10.619-10.619v10.619C183.023,224.369,187.778,229.123,193.643,229.123z"/>
			</g>
		</g>
		<g>
			<path class="st6" d="M62.423,150.642c-15.277-7.212-35.636,3.732-45.393,24.392c-9.749,20.66-5.252,43.336,10.033,50.548
				c15.277,7.212,35.645-3.732,45.393-24.392C82.204,180.522,77.708,157.854,62.423,150.642z M56.65,193.726
				c-5.09,10.781-13.838,16.603-19.497,16.603c-0.992,0-1.854-0.187-2.634-0.553c-4.854-2.293-7.919-14.058-1.683-27.286
				c5.09-10.781,13.846-16.595,19.505-16.595c0.984,0,1.846,0.179,2.626,0.545C59.821,168.732,62.894,180.505,56.65,193.726z"/>
			<path class="st6" d="M153.266,175.034c-9.757-20.66-30.116-31.604-45.393-24.392c-15.286,7.212-19.782,29.88-10.033,50.548
				c9.749,20.66,30.116,31.604,45.393,24.392C158.518,218.37,163.015,195.693,153.266,175.034z M135.777,209.776
				c-0.781,0.366-1.642,0.553-2.634,0.553c-5.659,0-14.407-5.821-19.497-16.603c-6.244-13.22-3.171-24.993,1.683-27.286
				c0.781-0.366,1.642-0.545,2.626-0.545c5.659,0,14.416,5.813,19.505,16.595C143.696,195.718,140.631,207.483,135.777,209.776z"/>
			<path class="st7" d="M29.225,175.034c6.521-13.798,17.749-23.254,29.051-25.88c-14.635-3.724-32.352,7.041-41.247,25.88
				c-9.749,20.66-5.252,43.336,10.033,50.548c5.082,2.398,10.716,2.789,16.342,1.488c-1.415-0.358-2.805-0.854-4.147-1.488
				C23.973,218.37,19.477,195.693,29.225,175.034z"/>
			<path class="st7" d="M110.035,201.19c-9.749-20.668-5.252-43.336,10.033-50.548c1.342-0.634,2.732-1.13,4.147-1.488
				c-5.626-1.301-11.261-0.911-16.342,1.488c-15.286,7.212-19.782,29.88-10.033,50.548c8.887,18.839,26.611,29.603,41.247,25.88
				C127.785,224.443,116.548,214.987,110.035,201.19z"/>
			<path class="st8" d="M136.317,42.022l-1.604-13.827L91.557,95.027l-11.576,17.919l-23.182,35.899l13.903,7.252l20.218-31.605
				l11.432-11.062l5.757-5.335l20.848-33.401C135.042,64.947,137.633,53.433,136.317,42.022z"/>
			<path class="st6" d="M90.314,112.945L78.739,95.027L35.582,28.195l-1.604,13.827c-1.316,11.411,1.275,22.925,7.361,32.671
				l20.848,33.401l5.757,5.335l11.432,11.062l20.218,31.605l13.903-7.252L90.314,112.945z"/>
		</g>
	</g>
	<g>
		<path class="st9" d="M244.091,48.936c2.209,0,4-1.791,4-4c0-2.209-1.791-4-4-4H210.38V30.86h33.711c2.209,0,4-1.791,4-4
			s-1.791-4-4-4c-29.579,0-46.392,0.015-50.456,0.015c-8.062,0-14.62,6.558-14.62,14.62v181.026c0,8.061,6.558,14.619,14.62,14.619
			h2.125c8.062,0,14.62-6.558,14.62-14.619v-79.205h33.711c2.209,0,4-1.791,4-4s-1.791-4-4-4H210.38V121.24h33.711
			c2.209,0,4-1.791,4-4s-1.791-4-4-4H210.38v-10.076h33.711c2.209,0,4-1.791,4-4s-1.791-4-4-4H210.38V85.088h33.711
			c2.209,0,4-1.791,4-4s-1.791-4-4-4H210.38V67.012h33.711c2.209,0,4-1.791,4-4s-1.791-4-4-4H210.38V48.936H244.091z M195.76,225.14
			h-2.125c-3.65,0-6.62-2.969-6.62-6.619V37.494c0-3.65,2.97-6.62,6.62-6.62h8.745c0,5.886,0,180.006,0,187.646
			C202.38,222.171,199.41,225.14,195.76,225.14z"/>
		<path class="st9" d="M195.051,179.853c-2.209,0-4,1.791-4,4v14c0,2.209,1.791,4,4,4s4-1.791,4-4v-14
			C199.051,181.644,197.26,179.853,195.051,179.853z"/>
		<path class="st9" d="M195.051,208.853c-2.209,0-4,1.791-4,4v2.128c0,2.209,1.791,4,4,4s4-1.791,4-4v-2.128
			C199.051,210.644,197.26,208.853,195.051,208.853z"/>
		<path class="st9" d="M56.674,162.825c-7.839-3.695-20.871,4.009-27.454,17.959c-7.031,14.9-3.75,29.146,3.593,32.611
			c8.072,3.804,21.07-4.432,27.454-17.959C67.298,180.536,64.018,166.291,56.674,162.825z M53.032,192.022
			c-5.348,11.331-14.445,15.245-16.806,14.138c-2.13-1.005-5.36-10.118,0.229-21.962c5.355-11.347,14.464-15.243,16.807-14.138
			C55.391,171.066,58.621,180.178,53.032,192.022z"/>
		<path class="st9" d="M115.469,144.525L100.277,121c5.888-5.697,3.482-3.422,10.55-9.972c0.26-0.241,0.487-0.516,0.674-0.816
			l20.846-33.399c6.536-10.462,9.355-22.98,7.939-35.248l-1.602-13.83c-0.43-3.713-5.299-4.86-7.334-1.71L85.148,97.574
			L38.943,26.025c-2.027-3.139-6.902-2.015-7.333,1.709l-1.604,13.83c-1.414,12.265,1.407,24.782,7.941,35.247l20.848,33.401
			c0.188,0.3,0.414,0.575,0.674,0.816c6.991,6.477,4.582,4.2,10.551,9.975l-15.197,23.522
			c-15.602-1.368-32.617,10.173-41.408,28.802c-10.691,22.656-5.335,47.721,11.939,55.873c17.675,8.343,40.19-3.992,50.719-26.305
			c7.856-16.648,7.168-34.728-0.886-46.387l9.963-15.57l9.96,15.571c-8.611,12.464-8.214,30.857-0.886,46.386
			c10.693,22.66,33.448,34.456,50.719,26.305c17.274-8.152,22.63-33.216,11.938-55.873
			C148.875,156.363,132.408,143.036,115.469,144.525z M132.022,39.735l0.318,2.749c1.209,10.473-1.198,21.159-6.778,30.092
			l-20.563,32.948c-6.562,6.081-4.579,4.208-9.146,8.626l-5.943-9.203L132.022,39.735z M44.732,72.573
			c-5.579-8.935-7.987-19.622-6.78-30.091l0.319-2.75c6.267,9.705,61.666,95.488,68.982,106.817c-2.29,0.961-4.371,2.154-6.53,3.889
			l-17.977-28.104c-0.167-0.262-0.365-0.503-0.588-0.719c-13.887-13.436-10.004-9.74-16.86-16.093L44.732,72.573z M68.837,199.48
			c-8.704,18.446-26.776,28.756-40.069,22.484c-13.285-6.27-16.927-26.557-8.118-45.224c8.764-18.573,26.865-28.717,40.07-22.484
			C74.012,160.529,77.541,181.036,68.837,199.48z M69.573,150.438c-2.17-1.745-4.252-2.934-6.532-3.89l12.84-19.874l0.378,0.366
			l4.143,6.476L69.573,150.438z M141.528,221.965c-13.286,6.269-31.26-3.817-40.07-22.484c-8.708-18.453-5.169-38.954,8.118-45.224
			c13.243-6.247,31.325,3.953,40.069,22.484C158.454,195.407,154.813,215.695,141.528,221.965z"/>
		<path class="st9" d="M113.619,162.826c-7.341,3.465-10.622,17.71-3.59,32.61c6.527,13.83,19.547,21.688,27.455,17.958
			c7.342-3.465,10.623-17.709,3.592-32.61C134.516,166.884,121.487,159.122,113.619,162.826z M134.071,206.159
			c-2.312,1.089-11.423-2.725-16.808-14.137c-5.589-11.844-2.359-20.957-0.233-21.96c2.37-1.108,11.466,2.812,16.81,14.136
			C139.429,196.042,136.199,205.155,134.071,206.159z"/>
		<path class="st9" d="M83.681,120.607c1.659,0.036,3.032-1.28,3.068-2.939c0.036-1.659-1.28-3.032-2.939-3.068
			c-1.659-0.036-3.032,1.28-3.068,2.939C80.707,119.198,82.022,120.571,83.681,120.607z"/>
	</g>
</g>
</svg>
