<?xml version="1.0" encoding="iso-8859-1"?>
<!-- Generator: Adobe Illustrator 19.0.0, SVG Export Plug-In . SVG Version: 6.00 Build 0)  -->
<svg version="1.1" id="Capa_1" xmlns="http://www.w3.org/2000/svg" xmlns:xlink="http://www.w3.org/1999/xlink" x="0px" y="0px"
	 viewBox="0 0 512 512" style="enable-background:new 0 0 512 512;" xml:space="preserve">
<g>
	<g>
		<path d="M481.17,84.634C457.097,29.592,421.666,0.499,378.7,0.499c-42.956,0-78.387,29.093-102.45,84.146
			c-18.354,41.958-29.083,97.031-30.64,156.385h-42.797l-55.492-55.502c-2.815-2.805-6.617-4.381-10.589-4.381H14.97
			c-5.19,0-10.01,2.685-12.735,7.096c-2.725,4.421-2.974,9.931-0.659,14.572L28.174,256L1.576,309.186
			c-2.315,4.641-2.066,10.15,0.659,14.572c2.725,4.411,7.545,7.096,12.735,7.096h121.762c3.972,0,7.775-1.577,10.589-4.381
			l55.492-55.502h42.797c1.547,59.364,12.286,114.437,30.63,156.395c24.073,55.043,59.504,84.136,102.46,84.136
			c42.966,0,78.397-29.093,102.46-84.146C501.051,381.884,512,321.023,512,255.99C512,190.958,501.051,130.106,481.17,84.634z
			 M106.791,270.972h53.685l-29.942,29.942H39.193l19.113-38.215c2.106-4.212,2.106-9.182,0-13.394l-19.113-38.215h91.342
			l29.942,29.942h-53.685c-8.264,0-14.971,6.707-14.971,14.971C91.82,264.264,98.527,270.972,106.791,270.972z M453.734,415.359
			C440.53,445.56,416.786,481.56,378.7,481.56s-61.819-35.99-75.024-66.191c-16.508-37.736-26.548-89.695-28.105-144.398h29.253
			c0.998,42.996,6.308,82.808,15.19,113.369c16.158,55.611,40.84,67.279,58.685,67.279c17.865,0,42.547-11.657,58.705-67.209
			c9.911-34.064,15.36-79.635,15.36-128.33c0-48.705-5.459-94.316-15.37-128.419c-16.159-55.612-40.84-67.279-58.695-67.279
			s-42.537,11.657-58.695,67.209c-8.893,30.57-14.192,70.403-15.19,113.439h-29.243c1.557-54.693,11.607-106.652,28.105-144.388
			C316.881,66.44,340.615,30.44,378.7,30.44c38.096,0,61.829,35.99,75.034,66.191c18.005,41.16,28.325,99.246,28.325,159.359
			S471.729,374.19,453.734,415.359z M378.261,330.855c8.274,0,14.971-6.707,14.971-14.971V196.118
			c0-8.264-6.697-14.971-14.971-14.971c-8.264,0-14.971,6.707-14.971,14.971v44.912h-28.514
			c0.998-39.862,5.968-77.519,13.983-105.075c8.184-28.145,19.662-45.631,29.942-45.631s21.748,17.506,29.942,45.691
			c9.012,31.01,14.182,74.774,14.182,120.066c0,45.272-5.16,88.996-14.172,119.966c-8.184,28.145-19.662,45.631-29.952,45.631
			c-10.27,0-21.748-17.506-29.932-45.691c-8.014-27.556-12.985-65.193-13.993-105.015h28.514v44.912
			C363.29,324.147,369.997,330.855,378.261,330.855z"/>
	</g>
</g>
<g>
</g>
<g>
</g>
<g>
</g>
<g>
</g>
<g>
</g>
<g>
</g>
<g>
</g>
<g>
</g>
<g>
</g>
<g>
</g>
<g>
</g>
<g>
</g>
<g>
</g>
<g>
</g>
<g>
</g>
</svg>
