<?xml version="1.0" encoding="iso-8859-1"?>
<!-- Generator: Adobe Illustrator 19.0.0, SVG Export Plug-In . SVG Version: 6.00 Build 0)  -->
<svg version="1.1" id="Capa_1" xmlns="http://www.w3.org/2000/svg" xmlns:xlink="http://www.w3.org/1999/xlink" x="0px" y="0px"
	 viewBox="0 0 512 512" style="enable-background:new 0 0 512 512;" xml:space="preserve">
<g>
	<g>
		<path d="M120,0C53.832,0,0,54.28,0,121c0,66.168,53.832,120,120,120s120-53.832,120-120C240,54.28,186.168,0,120,0z M120,211
			c-49.626,0-90-40.374-90-90c0-50.178,40.374-91,90-91c49.626,0,90,40.822,90,91C210,170.626,169.626,211,120,211z"/>
	</g>
</g>
<g>
	<g>
		<path d="M120,271C53.832,271,0,324.832,0,391c0,66.72,53.832,121,120,121s120-54.28,120-121C240,324.832,186.168,271,120,271z
			 M120,482c-49.626,0-90-40.822-90-91c0-49.626,40.374-90,90-90c49.626,0,90,40.374,90,90C210,441.178,169.626,482,120,482z"/>
	</g>
</g>
<g>
	<g>
		<circle cx="90" cy="91" r="15"/>
	</g>
</g>
<g>
	<g>
		<circle cx="150" cy="91" r="15"/>
	</g>
</g>
<g>
	<g>
		<circle cx="90" cy="361" r="15"/>
	</g>
</g>
<g>
	<g>
		<circle cx="150" cy="361" r="15"/>
	</g>
</g>
<g>
	<g>
		<path d="M163.927,160.429c-7.226-18.066-24.469-29.74-43.927-29.74s-36.701,11.674-43.927,29.74
			c-3.077,7.692,0.665,16.421,8.356,19.498c7.692,3.076,16.421-0.665,19.498-8.356c4.039-10.097,13.323-10.882,16.073-10.882
			s12.034,0.785,16.073,10.882c2.346,5.865,7.979,9.433,13.932,9.433c1.854,0,3.739-0.346,5.566-1.077
			C163.263,176.85,167.004,168.121,163.927,160.429z"/>
	</g>
</g>
<g>
	<g>
		<path d="M155.571,401.762c-7.694-3.079-16.422,0.665-19.498,8.356C132.034,420.215,122.75,421,120,421
			s-12.034-0.785-16.073-10.882c-3.077-7.691-11.805-11.433-19.498-8.356c-7.692,3.077-11.433,11.806-8.356,19.498
			C83.299,439.326,100.542,451,120,451s36.701-11.674,43.927-29.74C167.004,413.568,163.263,404.838,155.571,401.762z"/>
	</g>
</g>
<g>
	<g>
		<path d="M497,0H286c-8.284,0-15,6.716-15,15v211c0,8.284,6.716,15,15,15h211c8.284,0,15-6.716,15-15V15C512,6.716,505.284,0,497,0
			z M482,211H301V30h181V211z"/>
	</g>
</g>
<g>
	<g>
		<path d="M497,271H286c-8.284,0-15,6.716-15,15v211c0,8.284,6.716,15,15,15h211c8.284,0,15-6.716,15-15V286
			C512,277.716,505.284,271,497,271z M482,482H301V301h181V482z"/>
	</g>
</g>
<g>
	<g>
		<path d="M447.606,349.393c-5.857-5.858-15.355-5.858-21.213,0L377,398.787l-20.394-20.393c-5.857-5.858-15.355-5.858-21.213,0
			c-5.858,5.858-5.858,15.355,0,21.213l31.001,30.999c2.928,2.93,6.767,4.394,10.606,4.394s7.678-1.464,10.606-4.394l60-60
			C453.464,364.748,453.464,355.251,447.606,349.393z"/>
	</g>
</g>
<g>
</g>
<g>
</g>
<g>
</g>
<g>
</g>
<g>
</g>
<g>
</g>
<g>
</g>
<g>
</g>
<g>
</g>
<g>
</g>
<g>
</g>
<g>
</g>
<g>
</g>
<g>
</g>
<g>
</g>
</svg>
