<?xml version="1.0" encoding="iso-8859-1"?>
<!-- Generator: Adobe Illustrator 19.0.0, SVG Export Plug-In . SVG Version: 6.00 Build 0)  -->
<svg version="1.1" id="Capa_1" xmlns="http://www.w3.org/2000/svg" xmlns:xlink="http://www.w3.org/1999/xlink" x="0px" y="0px"
	 viewBox="0 0 512 512" style="enable-background:new 0 0 512 512;" xml:space="preserve">
<g>
	<g>
		<path d="M487.12,204.29L452,186.73V91c0-24.81-20.19-45-45-45s-45,20.19-45,45v3.83L85.95,177.37C78.85,161.83,63.17,151,45,151
			c-24.81,0-45,20.19-45,45v120c0,24.81,20.19,45,45,45c18.17,0,33.85-10.83,40.95-26.37l24.58,7.35l-4.42,13.25
			c-8.008,24.044,5.321,50.009,29.81,57.35l88.91,26.37c23.294,7.037,47.843-5.55,55.62-28.87l5.24-15.73L362,417.17V421
			c0,24.81,20.19,45,45,45s45-20.19,45-45v-95.73l35.12-17.56c7.68-3.83,13.9-9.61,18.2-16.57c4.3-6.96,6.68-15.1,6.68-23.68v-22.92
			C512,227.39,502.47,211.96,487.12,204.29z M60,316c0,8.27-6.73,15-15,15s-15-6.73-15-15V196c0-8.27,6.73-15,15-15s15,6.73,15,15
			V316z M251.99,400.59c-2.58,7.75-10.72,11.97-18.58,9.62l-88.92-26.38c-8.046-2.402-12.614-11.007-9.92-19.11l4.72-14.14
			l117.65,35.18L251.99,400.59z M362,385.86L91,304.83v-97.66l271-81.03V385.86z M422,421c0,8.27-6.73,15-15,15
			c-8.27,0-15-6.73-15-15V91c0-8.27,6.73-15,15-15c8.27,0,15,6.73,15,15V421z M482,267.46c0,5.72-3.18,10.86-8.29,13.42L452,291.73
			v-71.46l21.71,10.85c5.11,2.56,8.29,7.7,8.29,13.42V267.46z"/>
	</g>
</g>
<g>
</g>
<g>
</g>
<g>
</g>
<g>
</g>
<g>
</g>
<g>
</g>
<g>
</g>
<g>
</g>
<g>
</g>
<g>
</g>
<g>
</g>
<g>
</g>
<g>
</g>
<g>
</g>
<g>
</g>
</svg>
