<?xml version="1.0" encoding="iso-8859-1"?>
<!-- Generator: Adobe Illustrator 19.0.0, SVG Export Plug-In . SVG Version: 6.00 Build 0)  -->
<svg version="1.1" id="Capa_1" xmlns="http://www.w3.org/2000/svg" xmlns:xlink="http://www.w3.org/1999/xlink" x="0px" y="0px"
	 viewBox="0 0 511.999 511.999" style="enable-background:new 0 0 511.999 511.999;" xml:space="preserve">
<g>
	<g>
		<path d="M466.427,378.916l-74.236-74.226c-17.583-17.583-46.041-17.587-63.628,0l-21.206,21.206
			c-4.249,4.249-9.198,7.539-14.587,9.778c-15.945,6.596-35.508,3.754-49.04-9.778l-57.629-57.629
			c-17.583-17.583-17.587-46.041,0-63.628l21.206-21.206c17.622-17.622,17.55-46.078,0-63.628l-74.225-74.236
			c-17.583-17.583-46.042-17.586-63.628,0L48.239,66.777c0,0.01,0,0.01,0,0.01c-64.317,64.317-64.317,168.977,0,233.294
			l163.678,163.678c64.351,64.331,168.964,64.31,233.294,0c0,0,0,0,0.01,0l21.206-21.216
			C484.087,424.883,483.939,396.429,466.427,378.916z M90.661,66.777c5.846-5.846,15.339-5.867,21.206,0l74.235,74.235
			c5.846,5.846,5.867,15.339,0,21.206l-10.608,10.608L80.052,77.385L90.661,66.777z M233.123,442.544L69.455,278.876
			c-49.04-49.04-52.38-126.745-10.018-179.685l95.911,95.901c-19.142,28.831-16.344,68.509,9.548,94.382l57.629,57.629
			c25.853,25.871,65.526,28.706,94.382,9.548l95.901,95.911C359.869,494.923,282.164,491.584,233.123,442.544z M445.222,421.338
			l-10.608,10.608l-95.441-95.441l10.608-10.608c5.87-5.87,15.363-5.843,21.206,0l74.235,74.235
			C451.092,406.002,451.065,415.494,445.222,421.338z"/>
	</g>
</g>
<g>
	<g>
		<path d="M257.049,0c-8.282,0-14.997,6.715-14.997,14.997s6.715,14.997,14.997,14.997c124.041,0,224.956,100.915,224.956,224.956
			c0,8.282,6.715,14.997,14.997,14.997c8.282,0,14.997-6.715,14.997-14.997C511.999,114.038,397.971,0,257.049,0z"/>
	</g>
</g>
<g>
	<g>
		<path d="M257.049,59.988c-8.282,0-14.997,6.715-14.997,14.997c0,8.282,6.715,14.997,14.997,14.997
			c90.963,0,164.968,74.005,164.968,164.968c0,8.282,6.714,14.997,14.997,14.997c8.282,0,14.997-6.715,14.997-14.997
			C452.011,147.448,364.551,59.988,257.049,59.988z"/>
	</g>
</g>
<g>
	<g>
		<path d="M257.049,119.977c-8.282,0-14.997,6.715-14.997,14.997c0,8.282,6.715,14.997,14.997,14.997
			c57.886,0,104.979,47.094,104.979,104.979c0,8.282,6.715,14.997,14.997,14.997c8.282,0,14.997-6.715,14.997-14.997
			C392.022,180.526,331.473,119.977,257.049,119.977z"/>
	</g>
</g>
<g>
</g>
<g>
</g>
<g>
</g>
<g>
</g>
<g>
</g>
<g>
</g>
<g>
</g>
<g>
</g>
<g>
</g>
<g>
</g>
<g>
</g>
<g>
</g>
<g>
</g>
<g>
</g>
<g>
</g>
</svg>
