<?xml version="1.0" encoding="iso-8859-1"?>
<!-- Generator: Adobe Illustrator 19.0.0, SVG Export Plug-In . SVG Version: 6.00 Build 0)  -->
<svg version="1.1" id="Capa_1" xmlns="http://www.w3.org/2000/svg" xmlns:xlink="http://www.w3.org/1999/xlink" x="0px" y="0px"
	 viewBox="0 0 512 512" style="enable-background:new 0 0 512 512;" xml:space="preserve">
<g>
	<g>
		<path d="M467,211c-19.55,0-36.23,12.54-42.42,30h-49.83c0.06-1.2,0.1-2.41,0.1-3.64c0-18.78-6.48-36.4-18.23-49.61
			c-1.77-1.99-3.64-3.83-5.6-5.56l34.08-34.08c17.004,8.086,37.555,4.875,51.21-8.78c17.55-17.55,17.55-46.1,0-63.64
			c-17.54-17.55-46.09-17.55-63.64,0c-13.82,13.83-16.75,34.48-8.78,51.21l-40.84,40.83c-4.88-1.13-9.94-1.73-15.13-1.73
			c-13.68,0-26.16,4.18-36.92,12.2V87.42c17.46-6.19,30-22.87,30-42.42c0-24.81-20.19-45-45-45s-45,20.19-45,45
			c0,19.55,12.54,36.23,30,42.42v90.78c-10.76-8.02-23.24-12.2-36.92-12.2c-5.19,0-10.25,0.6-15.13,1.73l-40.84-40.83
			c7.97-16.73,5.04-37.38-8.78-51.21c-17.55-17.55-46.1-17.55-63.64,0c-17.55,17.54-17.55,46.09,0,63.64
			c13.656,13.656,34.207,16.865,51.21,8.78l34.08,34.08c-1.96,1.73-3.83,3.57-5.6,5.56c-11.75,13.21-18.23,30.83-18.23,49.61
			c0,1.23,0.04,2.44,0.1,3.64H87.42c-6.19-17.46-22.87-30-42.42-30c-24.81,0-45,20.19-45,45s20.19,45,45,45
			c19.55,0,36.23-12.54,42.42-30H145c6.99,14.5,18.37,27.99,32.83,41.96l-50.93,50.93c-16.73-7.97-37.39-5.04-51.21,8.78
			c-17.55,17.55-17.55,46.1,0,63.64c17.518,17.518,46.045,17.575,63.64,0c13.82-13.83,16.75-34.48,8.78-51.21l51.99-51.99
			c12.417,10.715,26.018,21.964,40.9,34.76v56.71c-17.46,6.19-30,22.87-30,42.42c0,24.81,20.19,45,45,45s45-20.19,45-45
			c0-19.55-12.54-36.23-30-42.42v-56.71c15.323-13.155,28.487-24.048,40.9-34.76l51.99,51.99c-7.97,16.73-5.04,37.38,8.78,51.21
			c17.598,17.578,46.125,17.515,63.64,0c17.55-17.54,17.55-46.09,0-63.64c-13.82-13.82-34.48-16.75-51.21-8.78l-50.93-50.93
			C348.63,298.99,360.01,285.5,367,271h57.58c6.19,17.46,22.87,30,42.42,30c24.81,0,45-20.19,45-45S491.81,211,467,211z
			 M393.89,96.9c5.852-5.851,15.336-5.854,21.21,0c5.85,5.85,5.85,15.37,0,21.21c-5.845,5.866-15.354,5.877-21.21,0
			C388.023,112.264,388.013,102.756,393.89,96.9z M118.11,118.11c-5.847,5.868-15.355,5.876-21.21,0c-5.85-5.84-5.85-15.36,0-21.21
			c5.869-5.849,15.354-5.856,21.21,0C123.976,102.745,123.987,112.254,118.11,118.11z M45,271c-8.27,0-15-6.73-15-15
			c0-8.27,6.73-15,15-15s15,6.73,15,15S53.27,271,45,271z M118.11,415.1c-5.84,5.85-15.36,5.85-21.21,0
			c-5.85-5.85-5.85-15.37,0-21.21c5.845-5.866,15.354-5.877,21.21,0C123.977,399.736,123.987,409.244,118.11,415.1z M393.89,393.89
			c5.847-5.868,15.355-5.876,21.21,0c5.85,5.84,5.85,15.36,0,21.21c-5.85,5.85-15.37,5.85-21.21,0
			C388.024,409.255,388.013,399.746,393.89,393.89z M256,30c8.27,0,15,6.73,15,15s-6.73,15-15,15c-8.27,0-15-6.73-15-15
			S247.73,30,256,30z M256,482c-8.27,0-15-6.73-15-15c0-8.27,6.73-15,15-15s15,6.73,15,15C271,475.27,264.27,482,256,482z
			 M256,341.22c-54.199-46.35-88.85-71.268-88.85-103.86c0-23.58,15.88-41.36,36.93-41.36c27.37,0,37.08,32.67,37.48,34.07
			c0.02,0.05,0.04,0.11,0.05,0.16c2.26,7.1,8.345,10.8,14.38,10.8c6.093,0,11.975-3.566,14.45-10.96
			c0.4-1.39,10.1-34.07,37.48-34.07c21.05,0,36.93,17.78,36.93,41.36C344.85,269.984,310.113,294.943,256,341.22z M467,271
			c-8.27,0-15-6.73-15-15c0-8.27,6.73-15,15-15c8.27,0,15,6.73,15,15S475.27,271,467,271z"/>
	</g>
</g>
<g>
</g>
<g>
</g>
<g>
</g>
<g>
</g>
<g>
</g>
<g>
</g>
<g>
</g>
<g>
</g>
<g>
</g>
<g>
</g>
<g>
</g>
<g>
</g>
<g>
</g>
<g>
</g>
<g>
</g>
</svg>
