<?xml version="1.0" encoding="iso-8859-1"?>
<!-- Generator: Adobe Illustrator 19.0.0, SVG Export Plug-In . SVG Version: 6.00 Build 0)  -->
<svg version="1.1" id="Capa_1" xmlns="http://www.w3.org/2000/svg" xmlns:xlink="http://www.w3.org/1999/xlink" x="0px" y="0px"
	 viewBox="0 0 512 512" style="enable-background:new 0 0 512 512;" xml:space="preserve">
<g>
	<g>
		<path d="M421,351.25V166C421,74.47,346.98,0,256,0S91,74.47,91,166v185.25C72.25,374.44,61,403.93,61,436v61c0,8.28,6.72,15,15,15
			h360c8.28,0,15-6.72,15-15v-61C451,403.93,439.75,374.44,421,351.25z M256,301c-24.48,0-46.26-11.8-59.96-30H256
			c8.28,0,15-6.72,15-15c0-8.28-6.72-15-15-15h-73.49c-0.99-4.85-1.51-9.86-1.51-15v-45h15c20.04,0,38.91-8.02,53.15-22.59
			c2.48-2.54,4.77-5.22,6.85-8.02c2.08,2.8,4.37,5.48,6.85,8.02C277.09,172.98,295.96,181,316,181h15v45
			C331,267.35,297.35,301,256,301z M321.01,331.12l-14.73,29.89c-0.1,0-0.19-0.01-0.28-0.01H206c-0.09,0-0.18,0.01-0.28,0.01
			l-14.73-29.89c1.66-0.08,3.33-0.12,5.01-0.12h120C317.68,331,319.35,331.04,321.01,331.12z M350.86,271H361
			c10.92,0,21.17-2.95,30-8.07v60.88c-18.084-12.13-39.303-20.035-62.22-22.2C337.86,292.87,345.37,282.51,350.86,271z M361,241v-60
			c16.54,0,30,13.46,30,30S377.54,241,361,241z M256,30c72.1,0,131.18,57.23,134.82,128.97c-8.79-5.06-18.97-7.97-29.82-7.97h-45
			c-24.39,0-45-21.07-45-46V75c0-8.28-6.72-15-15-15c-8.28,0-15,6.72-15,15v30c0,24.93-20.61,46-45,46h-45
			c-10.85,0-21.03,2.91-29.82,7.97C124.82,87.23,183.9,30,256,30z M151,181v60c-16.54,0-30-13.46-30-30S134.46,181,151,181z
			 M121,262.93c8.83,5.12,19.08,8.07,30,8.07h10.14c5.49,11.51,13,21.87,22.08,30.61c-22.893,2.163-44.139,10.063-62.22,22.2V262.93
			z M91,482v-46c0-45.45,29.04-84.25,69.53-98.83L231.89,482H91z M220.5,391h71L256,463.06L220.5,391z M421,482H280.11l71.36-144.83
			C391.96,351.75,421,390.55,421,436V482z"/>
	</g>
</g>
<g>
</g>
<g>
</g>
<g>
</g>
<g>
</g>
<g>
</g>
<g>
</g>
<g>
</g>
<g>
</g>
<g>
</g>
<g>
</g>
<g>
</g>
<g>
</g>
<g>
</g>
<g>
</g>
<g>
</g>
</svg>
