<?xml version="1.0" encoding="iso-8859-1"?>
<!-- Generator: Adobe Illustrator 19.0.0, SVG Export Plug-In . SVG Version: 6.00 Build 0)  -->
<svg version="1.1" id="Capa_1" xmlns="http://www.w3.org/2000/svg" xmlns:xlink="http://www.w3.org/1999/xlink" x="0px" y="0px"
	 viewBox="0 0 512 512" style="enable-background:new 0 0 512 512;" xml:space="preserve">
<g>
	<g>
		<path d="M467,0H255c-19.55,0-36.23,12.54-42.42,30H45C20.19,30,0,50.19,0,75v331c0,24.81,20.19,45,45,45h134v31h-45
			c-8.28,0-15,6.72-15,15c0,8.28,6.72,15,15,15h241c8.28,0,15-6.72,15-15c0-8.28-6.72-15-15-15h-46v-31h138c24.81,0,45-20.19,45-45
			V45C512,20.19,491.81,0,467,0z M299,482h-90v-31h90V482z M482,406c0,8.27-6.73,15-15,15H45c-8.27,0-15-6.73-15-15v-15h452V406z
			 M149,300c33.08,0,60,27.36,60,61H89C89,327.36,115.92,300,149,300z M119,240c0-16.54,13.46-30,30-30s30,13.46,30,30
			s-13.46,30-30,30S119,256.54,119,240z M482,361H239c0-33.94-18.67-63.92-46.6-79.64C202.67,270.59,209,256.03,209,240
			c0-33.08-26.92-60-60-60s-60,26.92-60,60c0,16.03,6.33,30.59,16.6,41.36C78.29,296.73,59,326.36,59,361H30V75
			c0-8.27,6.73-15,15-15h165v105c0,19.56,12.54,36.24,30,42.43V255c0,6.07,3.65,11.54,9.26,13.86c5.6,2.32,12.06,1.04,16.35-3.25
			l55.6-55.61H467c5.26,0,10.31-0.92,15-2.58V361z M482,165c0,8.27-6.73,15-15,15H315c-3.98,0-7.79,1.58-10.61,4.39L270,218.79V195
			c0-8.28-6.72-15-15-15c-8.27,0-15-6.73-15-15V45c0-8.27,6.73-15,15-15h212c8.27,0,15,6.73,15,15V165z"/>
	</g>
</g>
<g>
	<g>
		<path d="M437,60H285c-8.284,0-15,6.716-15,15s6.716,15,15,15h152c8.284,0,15-6.716,15-15S445.284,60,437,60z"/>
	</g>
</g>
<g>
	<g>
		<path d="M437,120H285c-8.284,0-15,6.716-15,15s6.716,15,15,15h152c8.284,0,15-6.716,15-15S445.284,120,437,120z"/>
	</g>
</g>
<g>
</g>
<g>
</g>
<g>
</g>
<g>
</g>
<g>
</g>
<g>
</g>
<g>
</g>
<g>
</g>
<g>
</g>
<g>
</g>
<g>
</g>
<g>
</g>
<g>
</g>
<g>
</g>
<g>
</g>
</svg>
