<?xml version="1.0" encoding="utf-8"?>
<!-- Generator: Adobe Illustrator 24.0.0, SVG Export Plug-In . SVG Version: 6.00 Build 0)  -->
<svg version="1.1" id="Layer_1" xmlns="http://www.w3.org/2000/svg" xmlns:xlink="http://www.w3.org/1999/xlink" x="0px" y="0px"
	 viewBox="0 0 256 256" enable-background="new 0 0 256 256" xml:space="preserve">
<g>
	<path fill="#D7E057" d="M70.319,26.102c0,0,3.394,12.663,13.207,13.262c0,0-13.105,4.51-13.337,14.187
		c0,0-2.563-13.575-12.909-14.074C57.28,39.477,69.332,37.665,70.319,26.102z"/>
	<path fill="#3A312A" d="M70.188,55.05c-0.713,0-1.336-0.507-1.473-1.219c-0.024-0.125-2.48-12.421-11.508-12.856
		c-0.77-0.037-1.387-0.652-1.426-1.422c-0.039-0.77,0.512-1.444,1.275-1.559c0.441-0.068,10.896-1.805,11.768-12.019
		c0.062-0.725,0.636-1.3,1.361-1.366c0.717-0.064,1.392,0.401,1.582,1.103c0.032,0.116,3.246,11.63,11.85,12.155
		c0.714,0.043,1.297,0.585,1.394,1.293c0.097,0.708-0.32,1.387-0.996,1.622c-0.122,0.042-12.123,4.296-12.328,12.805
		c-0.019,0.766-0.612,1.395-1.376,1.458C70.27,55.048,70.229,55.05,70.188,55.05z M62.463,39.312
		c3.876,1.974,6.224,5.753,7.577,8.885c2.031-4.02,5.949-6.78,8.958-8.417c-4.132-1.847-6.777-5.659-8.324-8.732
		C68.876,35.406,65.395,37.91,62.463,39.312z"/>
	<path fill="#D7E057" d="M48.602,43.058c0,0,2.401,8.957,9.341,9.38c0,0-9.27,3.19-9.434,10.034c0,0-1.813-9.602-9.131-9.955
		C39.378,52.518,47.903,51.236,48.602,43.058z"/>
	<path fill="#3A312A" d="M48.508,63.972c-0.715,0-1.338-0.508-1.473-1.222c-0.016-0.082-1.694-8.443-7.729-8.735
		c-0.771-0.037-1.387-0.652-1.426-1.422c-0.039-0.77,0.512-1.444,1.275-1.559c0.296-0.046,7.365-1.234,7.952-8.104
		c0.062-0.726,0.637-1.302,1.362-1.367c0.733-0.064,1.391,0.401,1.581,1.104l0,0c0.021,0.079,2.219,7.922,7.984,8.274
		c0.714,0.044,1.298,0.586,1.395,1.295c0.097,0.709-0.321,1.388-0.998,1.621c-0.081,0.028-8.286,2.943-8.422,8.651
		c-0.018,0.768-0.613,1.397-1.377,1.459C48.59,63.971,48.549,63.972,48.508,63.972z M44,52.439c2.106,1.335,3.52,3.398,4.441,5.285
		c1.378-2.23,3.519-3.867,5.37-4.966c-2.285-1.272-3.88-3.354-4.935-5.229C47.701,49.814,45.857,51.4,44,52.439z"/>
	<path fill="#D7E057" d="M48.632,16.4c0,0,2.4,8.957,9.341,9.38c0,0-9.27,3.19-9.434,10.035c0,0-1.813-9.602-9.131-9.955
		C39.409,25.86,47.934,24.579,48.632,16.4z"/>
	<path fill="#3A312A" d="M48.538,37.315c-0.714,0-1.338-0.508-1.473-1.222c-0.016-0.082-1.694-8.444-7.729-8.735
		c-0.77-0.037-1.387-0.652-1.426-1.422c-0.039-0.77,0.512-1.444,1.275-1.559c0.296-0.046,7.365-1.234,7.952-8.104
		c0.062-0.726,0.637-1.302,1.362-1.367c0.719-0.068,1.391,0.401,1.581,1.104c0.031,0.111,2.231,7.922,7.984,8.273
		c0.714,0.044,1.298,0.586,1.395,1.295c0.097,0.709-0.321,1.388-0.998,1.621c-0.081,0.028-8.286,2.943-8.422,8.653
		c-0.019,0.767-0.613,1.396-1.377,1.459C48.62,37.314,48.579,37.315,48.538,37.315z M44.031,25.782
		c2.105,1.335,3.519,3.399,4.441,5.285c1.378-2.231,3.519-3.868,5.371-4.967c-2.286-1.271-3.881-3.354-4.936-5.229
		C47.731,23.157,45.888,24.743,44.031,25.782z"/>
	<path fill="#F8E4C8" d="M202.411,109.315c0.17-1.71,0.26-3.37,0.26-4.99c0-28.47-23.1-51.56-51.59-51.56s-51.59,23.09-51.59,51.56
		c0,1.4,0.07,2.83,0.2,4.29c-3.75-10.37-5.98-20.79-5.98-29.9c0-34.42,25.69-62.32,57.37-62.32s57.37,27.9,57.37,62.32
		C208.451,88.035,206.211,98.705,202.411,109.315z"/>
	<path fill="#3A312A" d="M202.413,110.815c-0.109,0-0.22-0.012-0.331-0.037c-0.739-0.167-1.238-0.858-1.163-1.612
		c0.168-1.686,0.253-3.315,0.253-4.842c0-27.603-22.47-50.06-50.09-50.06c-27.62,0-50.09,22.457-50.09,50.06
		c0,1.309,0.065,2.708,0.194,4.157c0.067,0.751-0.434,1.435-1.17,1.597c-0.737,0.163-1.479-0.246-1.735-0.954
		c-3.971-10.981-6.069-21.496-6.069-30.41c0-35.19,26.409-63.82,58.87-63.82c32.461,0,58.87,28.63,58.87,63.82
		c0,9.156-2.119,19.913-6.128,31.106C203.606,110.428,203.034,110.815,202.413,110.815z M151.081,51.266
		c27.612,0,50.369,21.176,52.863,48.132c1.979-7.424,3.007-14.451,3.007-20.683c0-33.537-25.063-60.82-55.87-60.82
		c-30.807,0-55.87,27.284-55.87,60.82c0,6.119,1.038,13.049,3.035,20.391C100.877,72.29,123.569,51.266,151.081,51.266z"/>
	<path fill="#F8E4C8" d="M187.045,183.254h-19.54v-18.799h-32.836v18.799h-19.552c-16.335,0-29.576,13.234-29.576,29.56v26.788
		h131.08v-26.788C216.621,196.488,203.38,183.254,187.045,183.254z"/>
	<path fill="#3A312A" d="M216.621,241.102H85.541c-0.829,0-1.5-0.671-1.5-1.5v-26.788c0-17.127,13.94-31.061,31.076-31.061h18.052
		v-17.299c0-0.829,0.671-1.5,1.5-1.5h32.836c0.829,0,1.5,0.671,1.5,1.5v17.299h18.041c17.135,0,31.076,13.934,31.076,31.061v26.788
		C218.121,240.431,217.45,241.102,216.621,241.102z M87.041,238.102h128.08v-25.288c0-15.473-12.595-28.061-28.076-28.061h-19.541
		c-0.829,0-1.5-0.671-1.5-1.5v-17.299h-29.836v17.299c0,0.829-0.671,1.5-1.5,1.5h-19.552c-15.481,0-28.076,12.588-28.076,28.061
		V238.102z"/>
	<path fill="#EB6E7A" d="M169.911,211.03H85.599c-0.035,0.588-0.058,1.179-0.058,1.776v26.799h131.08v-26.799
		c0-0.597-0.023-1.188-0.058-1.776h-33.068H169.911z"/>
	<path fill="#3A312A" d="M216.622,241.105H85.541c-0.829,0-1.5-0.671-1.5-1.5v-26.799c0-0.627,0.024-1.248,0.061-1.865
		c0.048-0.792,0.704-1.411,1.498-1.411h84.311c0.829,0,1.5,0.671,1.5,1.5s-0.671,1.5-1.5,1.5H87.043
		c-0.001,0.092-0.002,0.184-0.002,0.276v25.299h128.08v-25.299c0-0.092,0-0.184-0.001-0.276h-31.624c-0.829,0-1.5-0.671-1.5-1.5
		s0.671-1.5,1.5-1.5h33.068c0.793,0,1.45,0.618,1.498,1.411c0.037,0.617,0.061,1.238,0.061,1.865v26.799
		C218.122,240.434,217.45,241.105,216.622,241.105z"/>
	<path fill-rule="evenodd" clip-rule="evenodd" fill="#F8E4C8" d="M111.932,109.975c0,6.424-5.21,11.631-11.638,11.631
		c-6.427,0-11.637-5.207-11.637-11.631c0-6.424,5.21-11.632,11.637-11.632C106.721,98.344,111.932,103.551,111.932,109.975z"/>
	<path fill="#3A312A" d="M100.294,123.106c-7.244,0-13.137-5.891-13.137-13.131s5.894-13.131,13.137-13.131
		c7.244,0,13.138,5.891,13.138,13.131S107.538,123.106,100.294,123.106z M100.294,99.844c-5.59,0-10.137,4.545-10.137,10.131
		c0,5.586,4.547,10.131,10.137,10.131c5.59,0,10.138-4.545,10.138-10.131C110.432,104.389,105.884,99.844,100.294,99.844z"/>
	
		<ellipse transform="matrix(0.0021 -1 1 0.0021 91.4783 311.6169)" fill-rule="evenodd" clip-rule="evenodd" fill="#F8E4C8" cx="201.869" cy="109.975" rx="11.631" ry="11.637"/>
	<path fill="#3A312A" d="M201.869,123.106c-7.244,0-13.138-5.891-13.138-13.131s5.893-13.131,13.138-13.131
		c7.244,0,13.137,5.891,13.137,13.131S209.112,123.106,201.869,123.106z M201.869,99.844c-5.59,0-10.138,4.545-10.138,10.131
		c0,5.586,4.548,10.131,10.138,10.131c5.59,0,10.137-4.545,10.137-10.131C212.006,104.389,207.458,99.844,201.869,99.844z"/>
	<path fill="#F8E4C8" d="M202.673,104.329c0,28.478-27.441,72.189-51.59,72.189c-23.051,0-51.59-43.711-51.59-72.189
		c0-28.477,23.098-51.563,51.59-51.563C179.575,52.766,202.673,75.851,202.673,104.329z"/>
	<path fill="#3A312A" d="M151.083,178.018c-11.055,0-24.391-9.743-35.673-26.062c-10.743-15.539-17.416-33.789-17.416-47.627
		c0-29.259,23.816-53.063,53.09-53.063s53.09,23.804,53.09,53.063c0,13.995-6.514,32.241-17,47.619
		C175.876,168.515,162.722,178.018,151.083,178.018z M151.083,54.266c-27.62,0-50.09,22.458-50.09,50.063
		c0,13.261,6.47,30.857,16.884,45.921c10.722,15.509,23.136,24.768,33.206,24.768c10.475,0,23.04-9.256,33.612-24.76
		c10.164-14.906,16.478-32.505,16.478-45.929C201.173,76.724,178.703,54.266,151.083,54.266z"/>
	<path fill="#3A312A" d="M137.903,103.747c0,2.78-2.254,5.033-5.035,5.033c-2.781,0-5.035-2.253-5.035-5.033
		c0-2.779,2.254-5.033,5.035-5.033C135.648,98.714,137.903,100.967,137.903,103.747z"/>
	<path fill="#3A312A" d="M174.331,103.747c0,2.78-2.254,5.033-5.035,5.033c-2.781,0-5.035-2.253-5.035-5.033
		c0-2.779,2.254-5.033,5.035-5.033C172.077,98.714,174.331,100.967,174.331,103.747z"/>
	<path fill="#F59689" d="M131.478,118.709c0,3.579-3.884,6.481-8.674,6.481c-4.79,0-8.674-2.902-8.674-6.481
		c0-3.58,3.884-6.481,8.674-6.481C127.594,112.228,131.478,115.13,131.478,118.709z"/>
	<path fill="#F59689" d="M188.033,118.709c0,3.579-3.883,6.481-8.674,6.481c-4.79,0-8.674-2.902-8.674-6.481
		c0-3.58,3.884-6.481,8.674-6.481C184.15,112.228,188.033,115.13,188.033,118.709z"/>
	<path fill="#3A312A" d="M109.497,241.105c-0.829,0-1.5-0.671-1.5-1.5v-21.173c0-0.829,0.671-1.5,1.5-1.5s1.5,0.671,1.5,1.5v21.173
		C110.997,240.434,110.326,241.105,109.497,241.105z"/>
	<path fill="#3A312A" d="M192.665,241.105c-0.829,0-1.5-0.671-1.5-1.5v-21.173c0-0.829,0.671-1.5,1.5-1.5c0.829,0,1.5,0.671,1.5,1.5
		v21.173C194.165,240.434,193.494,241.105,192.665,241.105z"/>
	<path fill="#3A312A" d="M151.081,147.654c-7.284,0-12.536-3.271-15.609-9.723c-0.357-0.748-0.039-1.643,0.709-1.999
		c0.748-0.357,1.643-0.038,1.999,0.709c2.569,5.392,6.789,8.013,12.901,8.013c7.825,0,11.828-5.164,12.851-7.895
		c0.291-0.776,1.158-1.168,1.931-0.878c0.776,0.291,1.169,1.155,0.878,1.931C164.965,142.552,159.306,147.654,151.081,147.654z"/>
	<path fill="#DECAAD" d="M214.921,209.525h-15c-1.63-13.92-13.51-24.77-27.88-24.77h15
		C201.411,184.755,213.291,195.605,214.921,209.525z"/>
	<rect x="200.121" y="212.525" fill="#D04E5D" width="15" height="25.58"/>
</g>
</svg>
