<?xml version="1.0" encoding="utf-8"?>
<!-- Generator: Adobe Illustrator 24.0.0, SVG Export Plug-In . SVG Version: 6.00 Build 0)  -->
<svg version="1.1" id="Layer_1" xmlns="http://www.w3.org/2000/svg" xmlns:xlink="http://www.w3.org/1999/xlink" x="0px" y="0px"
	 viewBox="0 0 256 256" enable-background="new 0 0 256 256" xml:space="preserve">
<g>
	<path fill="#D7E057" d="M58.796,26.387c0,0,3.408,12.659,13.222,13.246c0,0-13.1,4.525-13.321,14.202
		c0,0-2.578-13.572-12.925-14.059C45.771,39.776,57.822,37.95,58.796,26.387z"/>
	<path fill="#3A312A" d="M58.695,55.334c-0.713,0-1.335-0.506-1.472-1.217c-0.024-0.124-2.495-12.417-11.522-12.842
		c-0.771-0.037-1.388-0.651-1.428-1.421c-0.04-0.771,0.511-1.445,1.274-1.561c0.441-0.069,10.894-1.818,11.755-12.033
		c0.061-0.725,0.634-1.301,1.359-1.367c0.724-0.063,1.392,0.399,1.583,1.101c0.032,0.116,3.259,11.626,11.864,12.141
		c0.714,0.043,1.297,0.584,1.396,1.292c0.098,0.708-0.319,1.388-0.994,1.623c-0.121,0.042-12.118,4.31-12.313,12.819
		c-0.018,0.767-0.61,1.396-1.375,1.46C58.779,55.333,58.737,55.334,58.695,55.334z M50.954,39.605
		c3.878,1.969,6.23,5.746,7.587,8.876c2.027-4.021,5.942-6.787,8.949-8.427c-4.135-1.843-6.783-5.651-8.334-8.723
		C57.363,35.692,53.885,38.2,50.954,39.605z"/>
	<path fill="#D7E057" d="M37.097,43.367c0,0,2.411,8.954,9.352,9.369c0,0-9.266,3.201-9.422,10.045c0,0-1.824-9.6-9.142-9.944
		C27.885,52.838,36.408,51.546,37.097,43.367z"/>
	<path fill="#3A312A" d="M37.026,64.282c-0.714,0-1.337-0.507-1.473-1.22c-0.016-0.082-1.704-8.442-7.739-8.726
		c-0.771-0.037-1.388-0.651-1.428-1.421c-0.04-0.771,0.511-1.445,1.273-1.561c0.296-0.047,7.364-1.243,7.942-8.114
		c0.061-0.726,0.635-1.303,1.36-1.368c0.731-0.063,1.392,0.4,1.582,1.102l0,0c0.021,0.079,2.228,7.92,7.994,8.265
		c0.714,0.043,1.299,0.584,1.396,1.293c0.098,0.709-0.32,1.388-0.996,1.622c-0.081,0.028-8.282,2.952-8.412,8.661
		c-0.018,0.767-0.611,1.398-1.376,1.461C37.108,64.28,37.067,64.282,37.026,64.282z M32.507,52.754
		c2.107,1.333,3.523,3.394,4.447,5.28c1.376-2.232,3.515-3.872,5.364-4.972c-2.287-1.27-3.884-3.35-4.941-5.224
		C36.204,50.125,34.362,51.713,32.507,52.754z"/>
	<path fill="#D7E057" d="M37.097,16.71c0,0,2.411,8.954,9.352,9.37c0,0-9.266,3.201-9.422,10.045c0,0-1.824-9.6-9.142-9.944
		C27.885,26.18,36.408,24.889,37.097,16.71z"/>
	<path fill="#3A312A" d="M37.025,37.625c-0.713,0-1.337-0.507-1.472-1.22c-0.016-0.082-1.704-8.442-7.739-8.726
		c-0.771-0.037-1.388-0.651-1.428-1.421c-0.04-0.77,0.511-1.445,1.273-1.56c0.296-0.047,7.364-1.243,7.942-8.114
		c0.061-0.726,0.635-1.303,1.36-1.368c0.731-0.064,1.392,0.4,1.582,1.102l0,0c0.021,0.079,2.228,7.92,7.994,8.265
		c0.714,0.043,1.299,0.585,1.396,1.294c0.098,0.709-0.32,1.388-0.996,1.622c-0.081,0.028-8.282,2.952-8.412,8.662
		c-0.018,0.767-0.611,1.397-1.376,1.461C37.108,37.623,37.067,37.625,37.025,37.625z M32.507,26.097
		c2.107,1.332,3.523,3.394,4.447,5.28c1.376-2.233,3.515-3.872,5.365-4.972c-2.287-1.27-3.884-3.35-4.941-5.224
		C36.204,23.467,34.362,25.056,32.507,26.097z"/>
	<path fill="#3A312A" d="M62,186.75h-6c-5.514,0-10-4.486-10-10v-25.5c0-0.829,0.671-1.5,1.5-1.5c0.829,0,1.5,0.671,1.5,1.5v25.5
		c0,3.86,3.14,7,7,7h6c0.829,0,1.5,0.671,1.5,1.5S62.829,186.75,62,186.75z"/>
	<path fill="#EF6D7A" d="M58.615,157.75H36.385c-4.694,0-8.5-3.806-8.5-8.5l0,0c0-4.694,3.806-8.5,8.5-8.5h22.231
		c4.694,0,8.5,3.806,8.5,8.5l0,0C67.115,153.944,63.31,157.75,58.615,157.75z"/>
	<path fill="#3A312A" d="M58.615,159.25h-22.23c-5.514,0-10-4.486-10-10s4.486-10,10-10h22.23c5.514,0,10,4.486,10,10
		S64.129,159.25,58.615,159.25z M36.385,142.25c-3.86,0-7,3.14-7,7s3.14,7,7,7h22.23c3.86,0,7-3.14,7-7s-3.14-7-7-7H36.385z"/>
	<path fill="#3A312A" d="M200,186.75h-6c-0.828,0-1.5-0.671-1.5-1.5s0.672-1.5,1.5-1.5h6c3.859,0,7-3.14,7-7v-25.5
		c0-0.829,0.672-1.5,1.5-1.5c0.828,0,1.5,0.671,1.5,1.5v25.5C210,182.264,205.514,186.75,200,186.75z"/>
	<path fill="#EF6D7A" d="M197.385,157.75h22.231c4.694,0,8.5-3.806,8.5-8.5l0,0c0-4.694-3.806-8.5-8.5-8.5h-22.231
		c-4.694,0-8.5,3.806-8.5,8.5l0,0C188.885,153.944,192.69,157.75,197.385,157.75z"/>
	<path fill="#3A312A" d="M219.615,159.25h-22.23c-5.514,0-10-4.486-10-10s4.486-10,10-10h22.23c5.514,0,10,4.486,10,10
		S225.129,159.25,219.615,159.25z M197.385,142.25c-3.859,0-7,3.14-7,7s3.141,7,7,7h22.23c3.859,0,7-3.14,7-7s-3.141-7-7-7H197.385z
		"/>
	<rect x="121" y="53.75" fill="#87796F" width="14" height="175"/>
	<path fill="#3A312A" d="M135,230.25h-14c-0.829,0-1.5-0.671-1.5-1.5v-175c0-0.829,0.671-1.5,1.5-1.5h14c0.828,0,1.5,0.671,1.5,1.5
		v175C136.5,229.579,135.828,230.25,135,230.25z M122.5,227.25h11v-172h-11V227.25z"/>
	<path fill="#89C4DB" d="M148.387,76h-39.523c-5.585,0-10.113-4.528-10.113-10.113V46.125c0-16.5,13.375-29.875,29.875-29.875l0,0
		c16.499,0,29.875,13.375,29.875,29.875v19.762C158.5,71.472,153.972,76,148.387,76z"/>
	<path fill="#3A312A" d="M148.387,77.5h-39.523c-6.404,0-11.613-5.21-11.613-11.613V46.125c0-17.3,14.075-31.375,31.375-31.375
		c17.3,0,31.375,14.075,31.375,31.375v19.762C160,72.29,154.79,77.5,148.387,77.5z M128.625,17.75
		c-15.646,0-28.375,12.729-28.375,28.375v19.762c0,4.749,3.864,8.613,8.613,8.613h39.523c4.749,0,8.613-3.864,8.613-8.613V46.125
		C157,30.479,144.271,17.75,128.625,17.75z"/>
	<path fill="#EF6D7A" d="M75.5,129.41V142c0,8.699,7.051,15.75,15.75,15.75h73.5c8.698,0,15.75-7.051,15.75-15.75v-38.5
		c0-8.699-7.052-15.75-15.75-15.75h-73.5c-8.699,0-15.75,7.051-15.75,15.75v11.09V129.41z"/>
	<path fill="#3A312A" d="M164.75,159.25h-73.5C81.738,159.25,74,151.512,74,142v-12.59c0-0.829,0.671-1.5,1.5-1.5
		c0.829,0,1.5,0.671,1.5,1.5V142c0,7.857,6.393,14.25,14.25,14.25h73.5c7.857,0,14.25-6.393,14.25-14.25v-38.5
		c0-7.857-6.393-14.25-14.25-14.25h-73.5C83.393,89.25,77,95.643,77,103.5v11.09c0,0.829-0.671,1.5-1.5,1.5
		c-0.829,0-1.5-0.671-1.5-1.5V103.5c0-9.512,7.738-17.25,17.25-17.25h73.5c9.512,0,17.25,7.738,17.25,17.25V142
		C182,151.512,174.262,159.25,164.75,159.25z"/>
	<path fill="#EF6D7A" d="M106.922,201.25h71.828c8.698,0,15.75-7.051,15.75-15.75s-7.052-15.75-15.75-15.75H78.25
		c-8.699,0-15.75,7.051-15.75,15.75s7.051,15.75,15.75,15.75h14.328H106.922z"/>
	<path fill="#3A312A" d="M178.75,202.75h-71.828c-0.829,0-1.5-0.671-1.5-1.5s0.671-1.5,1.5-1.5h71.828
		c7.857,0,14.25-6.393,14.25-14.25s-6.393-14.25-14.25-14.25H78.25c-7.857,0-14.25,6.393-14.25,14.25s6.393,14.25,14.25,14.25
		h14.328c0.829,0,1.5,0.671,1.5,1.5s-0.671,1.5-1.5,1.5H78.25c-9.512,0-17.25-7.738-17.25-17.25s7.738-17.25,17.25-17.25h100.5
		c9.512,0,17.25,7.738,17.25,17.25S188.262,202.75,178.75,202.75z"/>
	<path fill="#89C4DB" d="M153.5,239.75h-51v-1.5c0-14.083,11.417-25.5,25.5-25.5l0,0c14.083,0,25.5,11.417,25.5,25.5V239.75z"/>
	<path fill="#3A312A" d="M153.5,241.25h-51c-0.829,0-1.5-0.671-1.5-1.5v-1.5c0-14.888,12.112-27,27-27c14.888,0,27,12.112,27,27v1.5
		C155,240.579,154.328,241.25,153.5,241.25z M104,238.25h48c0-13.233-10.767-24-24-24C114.767,214.25,104,225.017,104,238.25z"/>
	<path fill="#6CA8BF" d="M157,46.13v19.76c0,4.75-3.86,8.61-8.61,8.61h-15c4.75,0,8.61-3.86,8.61-8.61V46.13
		c0-13.05-8.86-24.07-20.88-27.37c2.39-0.66,4.9-1.01,7.5-1.01C144.27,17.75,157,30.48,157,46.13z"/>
	<path fill="#D04E5D" d="M179,103.5V142c0,7.86-6.39,14.25-14.25,14.25h-15c7.86,0,14.25-6.39,14.25-14.25v-38.5
		c0-7.86-6.39-14.25-14.25-14.25h15C172.61,89.25,179,95.64,179,103.5z"/>
	<path fill="#D04E5D" d="M193,185.5c0,7.86-6.39,14.25-14.25,14.25h-15c7.86,0,14.25-6.39,14.25-14.25s-6.39-14.25-14.25-14.25h15
		C186.61,171.25,193,177.64,193,185.5z"/>
</g>
</svg>
