<?xml version="1.0" encoding="utf-8"?>
<!-- Generator: Adobe Illustrator 24.0.0, SVG Export Plug-In . SVG Version: 6.00 Build 0)  -->
<svg version="1.1" id="Layer_1" xmlns="http://www.w3.org/2000/svg" xmlns:xlink="http://www.w3.org/1999/xlink" x="0px" y="0px"
	 viewBox="0 0 256 256" enable-background="new 0 0 256 256" xml:space="preserve">
<g>
	<rect x="127.073" y="74.87" fill="#FCE8CB" width="69.28" height="106.17"/>
	<path fill="#3A312A" d="M196.352,182.54h-69.28c-0.829,0-1.5-0.671-1.5-1.5V74.87c0-0.829,0.671-1.5,1.5-1.5h69.28
		c0.828,0,1.5,0.671,1.5,1.5v106.17C197.852,181.869,197.181,182.54,196.352,182.54z M128.573,179.54h66.28V76.37h-66.28V179.54z"/>
	<path fill="#D7E057" d="M80.806,26.084c0,0,3.408,12.659,13.222,13.246c0,0-13.1,4.525-13.321,14.202
		c0,0-2.578-13.572-12.925-14.059C67.781,39.473,79.832,37.647,80.806,26.084z"/>
	<path fill="#3A312A" d="M80.705,55.031c-0.713,0-1.336-0.506-1.472-1.217c-0.024-0.124-2.494-12.417-11.522-12.842
		c-0.771-0.037-1.388-0.651-1.428-1.421c-0.04-0.771,0.511-1.445,1.273-1.561c0.441-0.069,10.894-1.817,11.754-12.033
		c0.061-0.725,0.634-1.301,1.359-1.367c0.731-0.058,1.393,0.399,1.584,1.102c0.032,0.116,3.259,11.626,11.864,12.141
		c0.714,0.043,1.297,0.584,1.396,1.292c0.098,0.708-0.319,1.388-0.994,1.623c-0.121,0.042-12.119,4.31-12.313,12.819
		c-0.018,0.767-0.61,1.396-1.374,1.46C80.789,55.03,80.747,55.031,80.705,55.031z M72.964,39.302
		c3.878,1.969,6.23,5.746,7.586,8.876c2.027-4.021,5.942-6.787,8.949-8.427c-4.134-1.842-6.783-5.651-8.334-8.722
		C79.373,35.389,75.895,37.897,72.964,39.302z"/>
	<path fill="#D7E057" d="M59.107,43.064c0,0,2.411,8.954,9.352,9.369c0,0-9.266,3.201-9.422,10.045c0,0-1.824-9.6-9.142-9.944
		C49.895,52.535,58.418,51.243,59.107,43.064z"/>
	<path fill="#3A312A" d="M59.035,63.979c-0.713,0-1.337-0.507-1.472-1.22c-0.016-0.082-1.704-8.442-7.739-8.726
		c-0.771-0.037-1.388-0.651-1.428-1.421c-0.04-0.771,0.511-1.445,1.273-1.561c0.296-0.047,7.364-1.243,7.942-8.114
		c0.061-0.726,0.635-1.303,1.36-1.368c0.731-0.068,1.392,0.399,1.582,1.102l0,0c0.021,0.079,2.228,7.92,7.994,8.265
		c0.714,0.043,1.299,0.584,1.396,1.293c0.098,0.709-0.32,1.388-0.996,1.622c-0.081,0.028-8.282,2.952-8.413,8.662
		c-0.017,0.767-0.611,1.397-1.376,1.461C59.118,63.978,59.077,63.979,59.035,63.979z M54.517,52.451
		c2.107,1.333,3.523,3.395,4.447,5.28c1.376-2.232,3.515-3.872,5.365-4.972c-2.287-1.27-3.884-3.35-4.941-5.224
		C58.214,49.821,56.373,51.41,54.517,52.451z"/>
	<path fill="#D7E057" d="M59.107,16.406c0,0,2.411,8.954,9.352,9.37c0,0-9.266,3.201-9.422,10.045c0,0-1.824-9.6-9.142-9.944
		C49.895,25.877,58.418,24.586,59.107,16.406z"/>
	<path fill="#3A312A" d="M59.035,37.321c-0.713,0-1.337-0.507-1.472-1.22c-0.016-0.082-1.704-8.441-7.739-8.725
		c-0.771-0.037-1.388-0.651-1.428-1.421c-0.04-0.77,0.511-1.445,1.273-1.561c0.296-0.047,7.364-1.243,7.942-8.114
		c0.061-0.726,0.635-1.303,1.36-1.368c0.731-0.062,1.392,0.399,1.582,1.102l0,0c0.021,0.079,2.228,7.919,7.994,8.264
		c0.715,0.043,1.299,0.585,1.396,1.294c0.098,0.709-0.319,1.388-0.996,1.622c-0.08,0.028-8.282,2.953-8.413,8.662
		c-0.017,0.767-0.611,1.397-1.376,1.461C59.118,37.32,59.077,37.321,59.035,37.321z M54.517,25.794
		c2.106,1.333,3.523,3.394,4.447,5.28c1.376-2.232,3.515-3.872,5.365-4.973c-2.287-1.269-3.884-3.35-4.941-5.224
		C58.214,23.164,56.373,24.753,54.517,25.794z"/>
	<circle fill="#D6DF58" cx="161.713" cy="43.852" r="27.446"/>
	<path fill="#3A312A" d="M161.713,72.798c-15.961,0-28.946-12.985-28.946-28.946c0-15.961,12.985-28.945,28.946-28.945
		c15.961,0,28.945,12.985,28.945,28.945C190.658,59.813,177.674,72.798,161.713,72.798z M161.713,17.907
		c-14.307,0-25.946,11.639-25.946,25.945c0,14.307,11.64,25.946,25.946,25.946c14.307,0,25.945-11.639,25.945-25.946
		C187.658,29.546,176.019,17.907,161.713,17.907z"/>
	<path fill="#87796F" d="M189.232,63.724h-55.038c-3.077,0-5.572-2.494-5.572-5.572v0c0-3.077,2.494-5.572,5.572-5.572h55.038
		c3.077,0,5.572,2.494,5.572,5.572v0C194.803,61.229,192.309,63.724,189.232,63.724z"/>
	<path fill="#3A312A" d="M189.231,65.224h-55.038c-3.9,0-7.071-3.172-7.071-7.072c0-3.899,3.172-7.072,7.071-7.072h55.038
		c3.899,0,7.072,3.172,7.072,7.072C196.304,62.052,193.131,65.224,189.231,65.224z M134.193,54.081
		c-2.245,0-4.071,1.827-4.071,4.072c0,2.245,1.826,4.072,4.071,4.072h55.038c2.245,0,4.072-1.827,4.072-4.072
		c0-2.245-1.827-4.072-4.072-4.072H134.193z"/>
	<path fill="#87796F" d="M200.534,74.867h-77.642c-3.077,0-5.572-2.494-5.572-5.572l0,0c0-3.077,2.495-5.572,5.572-5.572h77.642
		c3.077,0,5.572,2.494,5.572,5.572l0,0C206.105,72.373,203.611,74.867,200.534,74.867z"/>
	<path fill="#3A312A" d="M200.533,76.367h-77.642c-3.899,0-7.072-3.172-7.072-7.071c0-3.899,3.172-7.072,7.072-7.072h77.642
		c3.899,0,7.072,3.172,7.072,7.072C207.605,73.195,204.433,76.367,200.533,76.367z M122.892,65.224
		c-2.245,0-4.072,1.827-4.072,4.072s1.827,4.071,4.072,4.071h77.642c2.245,0,4.072-1.826,4.072-4.071s-1.827-4.072-4.072-4.072
		H122.892z"/>
	<circle fill="#D6DF58" cx="161.713" cy="212.054" r="27.446"/>
	<path fill="#3A312A" d="M161.713,241c-15.961,0-28.946-12.985-28.946-28.946c0-15.96,12.985-28.945,28.946-28.945
		c15.961,0,28.945,12.985,28.945,28.945C190.658,228.015,177.674,241,161.713,241z M161.713,186.109
		c-14.307,0-25.946,11.639-25.946,25.945c0,14.307,11.64,25.946,25.946,25.946c14.307,0,25.945-11.639,25.945-25.946
		C187.658,197.748,176.019,186.109,161.713,186.109z"/>
	<path fill="#87796F" d="M189.232,192.182h-55.038c-3.077,0-5.572,2.495-5.572,5.572l0,0c0,3.077,2.494,5.572,5.572,5.572h55.038
		c3.077,0,5.572-2.494,5.572-5.572l0,0C194.803,194.677,192.309,192.182,189.232,192.182z"/>
	<path fill="#3A312A" d="M189.231,204.826h-55.038c-3.9,0-7.071-3.172-7.071-7.071c0-3.899,3.172-7.072,7.071-7.072h55.038
		c3.899,0,7.072,3.172,7.072,7.072C196.304,201.653,193.131,204.826,189.231,204.826z M134.193,193.683
		c-2.245,0-4.071,1.827-4.071,4.072s1.826,4.071,4.071,4.071h55.038c2.245,0,4.072-1.826,4.072-4.071s-1.827-4.072-4.072-4.072
		H134.193z"/>
	<path fill="#87796F" d="M200.534,181.039h-77.642c-3.077,0-5.572,2.495-5.572,5.572l0,0c0,3.077,2.495,5.572,5.572,5.572h77.642
		c3.077,0,5.572-2.494,5.572-5.572l0,0C206.105,183.534,203.611,181.039,200.534,181.039z"/>
	<path fill="#3A312A" d="M200.533,193.683h-77.642c-3.899,0-7.072-3.172-7.072-7.072c0-3.899,3.172-7.072,7.072-7.072h77.642
		c3.899,0,7.072,3.172,7.072,7.072C207.605,190.51,204.433,193.683,200.533,193.683z M122.892,182.539
		c-2.245,0-4.072,1.827-4.072,4.072c0,2.245,1.827,4.072,4.072,4.072h77.642c2.245,0,4.072-1.827,4.072-4.072
		c0-2.245-1.827-4.072-4.072-4.072H122.892z"/>
	<polygon fill="#EB6E7A" points="169.353,74.87 127.073,117.15 127.073,98.96 151.163,74.87 	"/>
	<path fill="#3A312A" d="M127.072,118.65c-0.193,0-0.388-0.037-0.574-0.114c-0.56-0.232-0.926-0.779-0.926-1.386V98.96
		c0-0.398,0.158-0.779,0.439-1.061l24.09-24.09c0.281-0.281,0.663-0.439,1.061-0.439h18.189c0.607,0,1.153,0.365,1.386,0.926
		s0.104,1.206-0.325,1.635l-42.28,42.28C127.847,118.498,127.463,118.65,127.072,118.65z M128.573,99.581v13.948l37.159-37.159
		h-13.947L128.573,99.581z"/>
	<polygon fill="#8AC3DA" points="157.307,105.106 127.073,135.34 127.073,153.54 196.353,84.26 196.353,74.87 187.543,74.87 
		167.814,94.599 	"/>
	<path fill="#3A312A" d="M127.072,155.04c-0.193,0-0.388-0.037-0.574-0.114c-0.56-0.232-0.926-0.779-0.926-1.386v-18.2
		c0-0.398,0.158-0.779,0.439-1.061l30.234-30.234c0.586-0.586,1.535-0.586,2.121,0c0.586,0.586,0.586,1.536,0,2.121l-29.794,29.795
		v13.958l66.28-66.28V76.37h-6.688l-19.29,19.29c-0.586,0.586-1.535,0.586-2.121,0c-0.586-0.586-0.586-1.536,0-2.121l19.729-19.729
		c0.281-0.281,0.663-0.439,1.061-0.439h8.809c0.828,0,1.5,0.671,1.5,1.5v9.39c0,0.398-0.158,0.779-0.439,1.06l-69.28,69.28
		C127.847,154.888,127.463,155.04,127.072,155.04z"/>
	<polygon fill="#EB6E7A" points="164.22,152.792 196.353,120.66 196.353,102.46 127.073,171.74 127.073,181.04 135.973,181.04 
		153.728,163.285 	"/>
	<path fill="#3A312A" d="M135.973,182.54h-8.9c-0.829,0-1.5-0.671-1.5-1.5v-9.3c0-0.398,0.158-0.779,0.439-1.061l69.28-69.28
		c0.43-0.429,1.075-0.558,1.635-0.325c0.56,0.232,0.926,0.779,0.926,1.386v18.2c0,0.398-0.158,0.779-0.439,1.061l-32.133,32.132
		c-0.586,0.586-1.535,0.586-2.121,0c-0.586-0.585-0.586-1.536,0-2.121l31.693-31.693v-13.957l-66.28,66.28v7.179h6.779
		l17.315-17.316c0.586-0.586,1.535-0.586,2.121,0c0.586,0.585,0.586,1.535,0,2.121l-17.755,17.755
		C136.752,182.382,136.37,182.54,135.973,182.54z"/>
	<polygon fill="#8AC3DA" points="196.353,138.85 196.353,157.04 172.353,181.04 154.163,181.04 	"/>
	<path fill="#3A312A" d="M172.352,182.54h-18.189c-0.607,0-1.153-0.365-1.386-0.926c-0.232-0.561-0.104-1.206,0.325-1.635
		l42.19-42.19c0.43-0.43,1.075-0.558,1.635-0.325c0.56,0.232,0.926,0.779,0.926,1.386v18.19c0,0.398-0.158,0.779-0.439,1.061l-24,24
		C173.132,182.382,172.75,182.54,172.352,182.54z M157.784,179.54h13.947l23.121-23.121v-13.947L157.784,179.54z"/>
	<path fill="#B9C239" d="M187.663,43.85c0,2.51-0.37,4.93-1.04,7.23h-15c0.67-2.3,1.04-4.72,1.04-7.23
		c0-11.7-7.79-21.61-18.45-24.83c2.37-0.72,4.89-1.11,7.5-1.11C176.023,17.91,187.663,29.55,187.663,43.85z"/>
	<path fill="#B9C239" d="M187.663,212.05c0,14.31-11.64,25.95-25.95,25.95c-2.61,0-5.13-0.39-7.5-1.11
		c10.66-3.22,18.45-13.14,18.45-24.84c0-2.5-0.37-4.93-1.04-7.22h15C187.293,207.12,187.663,209.55,187.663,212.05z"/>
</g>
</svg>
