<?xml version="1.0" encoding="utf-8"?>
<!-- Generator: Adobe Illustrator 24.0.0, SVG Export Plug-In . SVG Version: 6.00 Build 0)  -->
<svg version="1.1" id="Layer_1" xmlns="http://www.w3.org/2000/svg" xmlns:xlink="http://www.w3.org/1999/xlink" x="0px" y="0px"
	 viewBox="0 0 256 256" enable-background="new 0 0 256 256" xml:space="preserve">
<g>
	<path fill="#D7E057" d="M197.066,26.093c0,0,3.408,12.659,13.222,13.246c0,0-13.1,4.525-13.321,14.202
		c0,0-2.578-13.572-12.925-14.059C184.042,39.482,196.093,37.657,197.066,26.093z"/>
	<path fill="#3A312A" d="M196.966,55.04c-0.713,0-1.335-0.506-1.472-1.217c-0.024-0.125-2.494-12.417-11.522-12.843
		c-0.77-0.036-1.387-0.65-1.427-1.421c-0.039-0.77,0.511-1.444,1.273-1.561c0.441-0.068,10.894-1.817,11.754-12.032
		c0.061-0.726,0.634-1.301,1.359-1.367c0.737-0.06,1.393,0.399,1.583,1.102c0.032,0.116,3.259,11.626,11.863,12.141
		c0.714,0.042,1.298,0.583,1.396,1.292c0.098,0.708-0.319,1.388-0.994,1.622c-0.121,0.042-12.118,4.31-12.313,12.819
		c-0.018,0.767-0.61,1.396-1.374,1.46C197.05,55.038,197.007,55.04,196.966,55.04z M189.225,39.312
		c3.878,1.969,6.23,5.745,7.586,8.876c2.026-4.021,5.942-6.787,8.949-8.427c-4.134-1.843-6.783-5.651-8.334-8.723
		C195.634,35.398,192.156,37.906,189.225,39.312z"/>
	<path fill="#D7E057" d="M175.368,43.073c0,0,2.411,8.954,9.352,9.369c0,0-9.266,3.201-9.422,10.045c0,0-1.824-9.6-9.142-9.944
		C166.155,52.544,174.679,51.252,175.368,43.073z"/>
	<path fill="#3A312A" d="M175.296,63.988c-0.713,0-1.337-0.508-1.472-1.22c-0.016-0.082-1.704-8.442-7.739-8.727
		c-0.77-0.036-1.387-0.65-1.427-1.421c-0.04-0.77,0.511-1.444,1.273-1.561c0.296-0.047,7.364-1.242,7.942-8.113
		c0.061-0.726,0.635-1.303,1.36-1.368c0.73-0.066,1.392,0.399,1.582,1.102l0,0c0.021,0.079,2.228,7.92,7.994,8.265
		c0.715,0.042,1.299,0.584,1.396,1.293c0.098,0.709-0.319,1.388-0.996,1.622c-0.081,0.028-8.282,2.953-8.413,8.662
		c-0.018,0.768-0.611,1.397-1.376,1.461C175.379,63.986,175.337,63.988,175.296,63.988z M170.777,52.461
		c2.107,1.332,3.524,3.394,4.447,5.279c1.376-2.232,3.515-3.872,5.365-4.973c-2.287-1.269-3.884-3.35-4.941-5.224
		C174.475,49.831,172.633,51.42,170.777,52.461z"/>
	<path fill="#D7E057" d="M175.368,16.416c0,0,2.411,8.954,9.352,9.369c0,0-9.266,3.201-9.422,10.045c0,0-1.824-9.6-9.142-9.944
		C166.155,25.886,174.679,24.595,175.368,16.416z"/>
	<path fill="#3A312A" d="M175.296,37.331c-0.713,0-1.337-0.508-1.472-1.22c-0.016-0.082-1.704-8.442-7.739-8.727
		c-0.771-0.036-1.388-0.65-1.428-1.421c-0.04-0.77,0.511-1.444,1.273-1.561c0.295-0.047,7.364-1.243,7.942-8.113
		c0.061-0.726,0.635-1.303,1.36-1.368c0.73-0.06,1.392,0.399,1.582,1.101l0,0c0.021,0.079,2.228,7.92,7.994,8.265
		c0.715,0.042,1.299,0.584,1.396,1.293c0.098,0.709-0.319,1.388-0.996,1.622c-0.081,0.028-8.282,2.953-8.413,8.662
		c-0.018,0.768-0.611,1.397-1.376,1.461C175.379,37.329,175.337,37.331,175.296,37.331z M170.777,25.803
		c2.107,1.333,3.524,3.395,4.447,5.28c1.376-2.232,3.515-3.872,5.365-4.973c-2.287-1.269-3.884-3.35-4.941-5.224
		C174.475,23.173,172.633,24.762,170.777,25.803z"/>
	<path fill="#FAE6CA" d="M235.273,146.267H193.71h-55.622c-3.162,0-5.726,2.563-5.726,5.726v6.099c0,3.162,2.564,5.726,5.726,5.726
		h49.897c3.162,0,5.726-2.564,5.726-5.726v-1.587l41.868-4.336c1.508-0.156,2.654-1.427,2.654-2.943l0,0
		C238.232,147.592,236.907,146.267,235.273,146.267z"/>
	<path fill="#3A312A" d="M187.984,165.316h-49.896c-3.984,0-7.226-3.241-7.226-7.226v-6.099c0-3.984,3.241-7.226,7.226-7.226h97.186
		c2.458,0,4.458,2,4.458,4.459c0,2.292-1.719,4.199-3.999,4.436l-40.523,4.196v0.233
		C195.209,162.075,191.968,165.316,187.984,165.316z M138.087,147.767c-2.33,0-4.226,1.895-4.226,4.226v6.099
		c0,2.33,1.896,4.226,4.226,4.226h49.896c2.33,0,4.226-1.896,4.226-4.226v-1.586c0-0.769,0.581-1.413,1.346-1.492l41.868-4.336
		c0.746-0.077,1.308-0.701,1.308-1.451c0-0.805-0.654-1.459-1.458-1.459H138.087z"/>
	<path fill="#EB6E7A" d="M237.726,147.494L237.726,147.494c3.427,3.427,3.427,8.983,0,12.41L183.78,213.85
		c-3.427,3.427-8.983,3.427-12.41,0l0,0c-3.427-3.427-3.427-8.983,0-12.41l53.946-53.946
		C228.743,144.067,234.299,144.067,237.726,147.494z"/>
	<path fill="#3A312A" d="M177.576,217.915c-2.631,0-5.263-1.002-7.266-3.005c-4.006-4.006-4.006-10.525,0-14.53l53.946-53.946
		c4.007-4.005,10.525-4.005,14.53,0c1.941,1.94,3.01,4.521,3.01,7.266c0,2.744-1.069,5.324-3.01,7.266l-53.945,53.945
		C182.838,216.913,180.206,217.915,177.576,217.915z M231.521,146.428c-1.863,0-3.726,0.709-5.144,2.127l-53.946,53.946
		c-2.836,2.837-2.836,7.451,0,10.288c2.837,2.836,7.452,2.837,10.289,0l53.945-53.945c1.374-1.375,2.131-3.202,2.131-5.145
		c0-1.943-0.757-3.771-2.131-5.145l0,0C235.247,147.137,233.384,146.428,231.521,146.428z"/>
	<path fill="#87796F" d="M180.483,204.621c1.4,1.4,1.4,3.67,0,5.07c-1.4,1.4-3.67,1.4-5.07,0c-1.4-1.4-1.4-3.67,0-5.07
		C176.813,203.221,179.083,203.221,180.483,204.621z"/>
	<path fill="#3A312A" d="M177.948,212.238c-1.302,0-2.604-0.495-3.595-1.486c-1.983-1.982-1.983-5.209-0.001-7.191
		c0.961-0.961,2.238-1.49,3.596-1.49c1.358,0,2.635,0.529,3.595,1.49l0,0c1.983,1.982,1.983,5.209,0,7.191
		C180.552,211.743,179.25,212.238,177.948,212.238z M177.948,205.07c-0.557,0-1.081,0.218-1.475,0.611
		c-0.813,0.814-0.813,2.136,0.001,2.949c0.813,0.811,2.136,0.811,2.948,0c0.813-0.814,0.813-2.136,0-2.949c0,0,0,0-0.001,0
		C179.028,205.288,178.505,205.07,177.948,205.07z"/>
	<path fill="#87796F" d="M233.567,151.537c1.4,1.4,1.4,3.67,0,5.07c-1.4,1.4-3.67,1.4-5.07,0c-1.4-1.4-1.4-3.67,0-5.07
		C229.897,150.137,232.167,150.137,233.567,151.537z"/>
	<path fill="#3A312A" d="M231.032,159.156c-1.358,0-2.635-0.528-3.596-1.489c-0.96-0.96-1.489-2.236-1.489-3.596
		c0-1.358,0.529-2.635,1.489-3.595c0.96-0.961,2.237-1.49,3.595-1.49c1.358,0,2.635,0.529,3.596,1.49l0,0l0,0c0,0,0,0,0.001,0
		c0.96,0.96,1.489,2.237,1.489,3.595c0,1.359-0.529,2.636-1.489,3.596C233.668,158.628,232.391,159.156,231.032,159.156z
		 M231.032,151.986c-0.557,0-1.08,0.218-1.474,0.611c-0.394,0.393-0.611,0.917-0.611,1.474c0,0.558,0.217,1.081,0.61,1.475
		c0.788,0.787,2.161,0.787,2.948,0c0.394-0.394,0.611-0.917,0.611-1.475c0-0.557-0.217-1.08-0.61-1.474c0,0,0,0-0.001,0
		C232.113,152.204,231.589,151.986,231.032,151.986z"/>
	<path fill="#FCE8CB" d="M75.392,239.581h71.392v-26.788c0-16.327-13.24-29.56-29.576-29.56h-19.54v-12.693
		c-5.405,3.745-10.997,5.954-16.424,5.954c-5.206,0-10.699-2.231-16.081-6.021h-0.331v12.759H45.28
		c-16.335,0-29.576,13.233-29.576,29.56v26.788h44.913H75.392z"/>
	<path fill="#3A312A" d="M146.784,241.081H75.392c-0.829,0-1.5-0.672-1.5-1.5c0-0.828,0.671-1.5,1.5-1.5h69.892v-25.287
		c0-15.473-12.595-28.061-28.076-28.061H97.667c-0.829,0-1.5-0.672-1.5-1.5v-9.93c-5.134,3.115-10.144,4.691-14.923,4.691
		c-4.703,0-9.709-1.66-14.913-4.939v10.177c0,0.828-0.671,1.5-1.5,1.5H45.28c-15.481,0-28.076,12.588-28.076,28.061v25.287h43.413
		c0.829,0,1.5,0.672,1.5,1.5c0,0.828-0.671,1.5-1.5,1.5H15.704c-0.829,0-1.5-0.672-1.5-1.5v-26.787
		c0-17.127,13.94-31.061,31.076-31.061h18.052v-11.26c0-0.828,0.671-1.5,1.5-1.5h0.332c0.309,0,0.611,0.096,0.864,0.273
		c5.416,3.814,10.536,5.748,15.217,5.748c4.885,0,10.124-1.913,15.569-5.687c0.459-0.319,1.056-0.355,1.55-0.097
		c0.495,0.259,0.804,0.771,0.804,1.329v11.192h18.041c17.135,0,31.076,13.934,31.076,31.061v26.787
		C148.284,240.409,147.612,241.081,146.784,241.081z"/>
	<path fill="#8AC3DA" d="M75.392,239.584h71.393v-26.799c0-16.327-13.241-29.561-29.576-29.561h-4.675l0.122,0.088L92.33,210.256
		l-10.489-7.898l-10.489,7.898l-20.325-26.943l0.121-0.088H45.28c-16.335,0-29.576,13.234-29.576,29.561v26.799h44.913H75.392z"/>
	<path fill="#3A312A" d="M146.784,241.084H75.392c-0.829,0-1.5-0.672-1.5-1.5s0.671-1.5,1.5-1.5h69.893v-25.299
		c0-15.473-12.595-28.061-28.076-28.061h-3.74l-19.941,26.435c-0.498,0.661-1.438,0.792-2.1,0.295l-9.587-7.219l-9.586,7.219
		c-0.66,0.497-1.602,0.366-2.1-0.295l-19.941-26.435H45.28c-15.481,0-28.076,12.588-28.076,28.061v25.299h43.413
		c0.829,0,1.5,0.672,1.5,1.5s-0.671,1.5-1.5,1.5H15.704c-0.829,0-1.5-0.672-1.5-1.5v-26.799c0-17.127,13.941-31.061,31.076-31.061
		h5.869c0.65,0,1.227,0.419,1.427,1.038c0.018,0.057,0.033,0.113,0.044,0.171l19.027,25.223l9.291-6.997
		c0.534-0.402,1.271-0.402,1.805,0l9.292,6.997l19.026-25.223c0.011-0.058,0.026-0.114,0.045-0.171
		c0.2-0.619,0.777-1.038,1.427-1.038h4.675c17.135,0,31.076,13.934,31.076,31.061v26.799
		C148.284,240.412,147.613,241.084,146.784,241.084z"/>
	
		<ellipse transform="matrix(0.0021 -1 1 0.0021 -79.5591 140.1839)" fill-rule="evenodd" clip-rule="evenodd" fill="#FCE8CB" cx="30.459" cy="109.954" rx="11.631" ry="11.637"/>
	<path fill="#3A312A" d="M30.458,123.086c-7.244,0-13.137-5.891-13.137-13.132c0-7.24,5.893-13.131,13.137-13.131
		c7.244,0,13.138,5.891,13.138,13.131C43.596,117.195,37.703,123.086,30.458,123.086z M30.458,99.823
		c-5.59,0-10.137,4.545-10.137,10.131c0,5.587,4.547,10.132,10.137,10.132s10.138-4.545,10.138-10.132
		C40.596,104.368,36.048,99.823,30.458,99.823z"/>
	
		<ellipse transform="matrix(0.0021 -1 1 0.0021 21.8071 241.761)" fill-rule="evenodd" clip-rule="evenodd" fill="#FCE8CB" cx="132.033" cy="109.954" rx="11.631" ry="11.637"/>
	<path fill="#3A312A" d="M132.033,123.086c-7.244,0-13.138-5.891-13.138-13.132c0-7.24,5.894-13.131,13.138-13.131
		c7.244,0,13.137,5.891,13.137,13.131C145.17,117.195,139.277,123.086,132.033,123.086z M132.033,99.823
		c-5.59,0-10.138,4.545-10.138,10.131c0,5.587,4.548,10.132,10.138,10.132c5.59,0,10.137-4.545,10.137-10.132
		C142.17,104.368,137.623,99.823,132.033,99.823z"/>
	<path fill="#FCE8CB" d="M132.836,104.308c0,28.478-27.44,72.189-51.59,72.189c-23.052,0-51.59-43.711-51.59-72.189
		c0-28.477,23.098-51.563,51.59-51.563C109.738,52.745,132.836,75.831,132.836,104.308z"/>
	<path fill="#3A312A" d="M81.246,177.997c-11.055,0-24.391-9.743-35.673-26.063c-10.743-15.539-17.417-33.788-17.417-47.626
		c0-29.26,23.816-53.064,53.09-53.064s53.09,23.804,53.09,53.064c0,13.994-6.514,32.241-16.999,47.618
		C106.039,168.495,92.884,177.997,81.246,177.997z M81.246,54.245c-27.62,0-50.09,22.458-50.09,50.064
		c0,13.261,6.47,30.856,16.885,45.92c10.722,15.51,23.135,24.769,33.205,24.769c23.223,0,50.09-42.777,50.09-70.688
		C131.335,76.703,108.865,54.245,81.246,54.245z"/>
	<path fill="#3A312A" d="M68.067,103.726c0,2.78-2.254,5.033-5.035,5.033c-2.781,0-5.035-2.253-5.035-5.033
		c0-2.779,2.254-5.033,5.035-5.033C65.813,98.693,68.067,100.947,68.067,103.726z"/>
	<path fill="#3A312A" d="M104.495,103.726c0,2.78-2.254,5.033-5.035,5.033c-2.781,0-5.035-2.253-5.035-5.033
		c0-2.779,2.254-5.033,5.035-5.033C102.241,98.693,104.495,100.947,104.495,103.726z"/>
	<path fill="#F5978A" d="M61.642,118.689c0,3.579-3.884,6.481-8.674,6.481c-4.79,0-8.674-2.902-8.674-6.481
		c0-3.58,3.884-6.481,8.674-6.481C57.758,112.208,61.642,115.109,61.642,118.689z"/>
	<path fill="#F5978A" d="M118.198,118.689c0,3.579-3.883,6.481-8.674,6.481c-4.791,0-8.674-2.902-8.674-6.481
		c0-3.58,3.884-6.481,8.674-6.481C114.314,112.208,118.198,115.109,118.198,118.689z"/>
	<path fill="#87796F" d="M81.841,41.365c-29.491,0-53.397,22.845-53.397,51.026c0,2.982,0.539,5.204,1.543,7.981
		c0.473,1.309,8.119-2.871,8.77-3.329c3.256-2.291,5.916-5.396,7.905-8.829c0.822-1.427,1.508-2.88,2.06-4.333
		c1.76-4.635,6.542-17.533,11.398-16.521c6.512,1.357,13.892,2.123,21.722,2.123s15.21-0.767,21.722-2.123
		c4.856-1.012,9.638,11.886,11.398,16.521c0.552,1.453,1.237,2.905,2.06,4.333c3.285,5.679,8.833,11.086,15.583,12.069
		c0.017-0.326,0.429-0.437,0.736-0.548c2.21-0.802,1.9-5.574,1.9-7.344C135.239,64.209,111.332,41.365,81.841,41.365z"/>
	<path fill="#3A312A" d="M30.427,102.103c-0.242,0-0.458-0.027-0.646-0.086c-0.571-0.18-1.01-0.594-1.205-1.135
		c-1.008-2.789-1.632-5.183-1.632-8.491c0-28.963,24.627-52.526,54.897-52.526s54.897,23.563,54.897,52.525l0.006,0.575
		c0.037,2.479,0.104,7.091-2.893,8.18c-0.001,0-0.013,0.004-0.027,0.01c-0.076,0.106-0.167,0.203-0.27,0.288
		c-0.326,0.267-0.748,0.387-1.167,0.324c-6.332-0.923-12.562-5.709-16.664-12.803c-0.847-1.469-1.575-2.999-2.164-4.552
		l-0.111-0.291c-5.286-13.941-8.279-15.556-9.579-15.293c-6.864,1.43-14.275,2.154-22.028,2.154c-7.753,0-15.164-0.725-22.027-2.154
		c-1.313-0.265-4.293,1.351-9.579,15.291l-0.111,0.293c-0.588,1.55-1.316,3.081-2.163,4.55c-2.198,3.796-5.082,7.014-8.341,9.307
		C39.558,98.313,33.281,102.103,30.427,102.103z M134.102,100.36c0,0.002,0,0.003-0.001,0.004
		C134.102,100.363,134.102,100.362,134.102,100.36z M81.841,42.864c-28.616,0-51.897,22.218-51.897,49.526
		c0,2.544,0.437,4.496,1.161,6.636c1.766-0.483,5.898-2.606,6.793-3.214c2.902-2.042,5.485-4.931,7.466-8.352
		c0.765-1.328,1.424-2.713,1.956-4.113l0.111-0.292c3.453-9.108,7.697-18.269,12.996-17.165c6.662,1.388,13.868,2.092,21.416,2.092
		c7.547,0,14.753-0.704,21.416-2.092c5.289-1.089,9.542,8.058,12.996,17.166l0.11,0.291c0.533,1.402,1.191,2.788,1.957,4.116
		c3.477,6.011,8.566,10.144,13.741,11.201c0.275-0.168,0.541-0.262,0.691-0.313c0.445-0.161,1.057-1.03,0.993-5.343l-0.006-0.619
		C133.739,65.081,110.457,42.864,81.841,42.864z"/>
	
		<rect x="59.866" y="175.941" transform="matrix(0.7988 -0.6017 0.6017 0.7988 -102.6344 78.7888)" fill="#87796F" width="13.186" height="33.749"/>
	<path fill="#3A312A" d="M71.352,211.756c-0.455,0-0.904-0.206-1.199-0.597l-20.318-26.947c-0.24-0.318-0.343-0.718-0.287-1.112
		c0.055-0.393,0.265-0.75,0.583-0.989l10.532-7.934c0.66-0.497,1.601-0.366,2.1,0.295l20.319,26.947
		c0.24,0.318,0.343,0.718,0.288,1.112c-0.055,0.394-0.265,0.75-0.583,0.989l-10.533,7.934
		C71.984,211.657,71.667,211.756,71.352,211.756z M53.134,183.604l18.512,24.552l8.137-6.128L61.27,177.476L53.134,183.604z"/>
	
		<rect x="90.631" y="175.941" transform="matrix(-0.7987 -0.6017 0.6017 -0.7987 58.871 405.3225)" fill="#87796F" width="13.186" height="33.749"/>
	<path fill="#3A312A" d="M92.33,211.756c-0.314,0-0.631-0.099-0.901-0.302l-10.532-7.934c-0.318-0.239-0.528-0.596-0.583-0.989
		c-0.056-0.395,0.048-0.794,0.288-1.112l20.319-26.947c0.499-0.661,1.44-0.792,2.1-0.295l10.532,7.934
		c0.318,0.239,0.528,0.596,0.583,0.989c0.056,0.395-0.048,0.794-0.288,1.112l-20.319,26.947
		C93.233,211.55,92.784,211.756,92.33,211.756z M83.899,202.027l8.136,6.128l18.513-24.552l-8.136-6.128L83.899,202.027z"/>
	<path fill="#3A312A" d="M39.66,241.084c-0.829,0-1.5-0.672-1.5-1.5v-21.172c0-0.828,0.671-1.5,1.5-1.5c0.829,0,1.5,0.672,1.5,1.5
		v21.172C41.16,240.412,40.489,241.084,39.66,241.084z"/>
	<path fill="#3A312A" d="M122.829,241.084c-0.829,0-1.5-0.672-1.5-1.5v-21.172c0-0.828,0.671-1.5,1.5-1.5c0.829,0,1.5,0.672,1.5,1.5
		v21.172C124.329,240.412,123.657,241.084,122.829,241.084z"/>
	<path fill="#3A312A" d="M81.244,147.633c-7.285,0-12.537-3.271-15.609-9.724c-0.356-0.748-0.039-1.643,0.709-1.999
		c0.747-0.353,1.644-0.038,2,0.71c2.567,5.392,6.787,8.013,12.9,8.013c7.825,0,11.828-5.164,12.851-7.895
		c0.292-0.776,1.156-1.17,1.931-0.878c0.776,0.29,1.169,1.155,0.878,1.931C95.128,142.531,89.47,147.633,81.244,147.633z"/>
	<path fill="#87796F" d="M29.42,124.281c-2.441-2.905-3.919-6.647-3.919-10.735c0-8.437,6.258-15.405,14.383-16.529
		c-1.419,5.017-2.213,9.899-2.213,14.35c0,24.054,19.502,43.547,43.573,43.547c24.063,0,43.573-19.493,43.573-43.547
		c0-4.451-0.828-9.341-2.297-14.358c8.167,1.09,14.468,8.074,14.468,16.537c0,4.088-1.478,7.829-3.919,10.735
		c2.441,2.889,3.919,6.622,3.919,10.701c0,8.48-6.36,15.456-14.569,16.47c0.338,1.309,0.532,2.677,0.532,4.088
		c0,9.172-7.432,16.605-16.605,16.605c-3.125,0-6.039-0.878-8.539-2.382c-0.405,8.801-7.66,15.828-16.563,15.828
		c-8.91,0-16.157-7.027-16.571-15.828c-2.492,1.503-5.405,2.382-8.539,2.382c-9.164,0-16.605-7.432-16.605-16.605
		c0-1.41,0.203-2.779,0.532-4.088c-8.201-1.014-14.561-7.99-14.561-16.47C25.501,130.903,26.979,127.17,29.42,124.281z"/>
	<path fill="#3A312A" d="M81.244,187.09c-8.907,0-16.34-6.422-17.821-14.989c-2.292,1.015-4.774,1.544-7.289,1.544
		c-9.983,0-18.104-8.122-18.104-18.105c0-0.934,0.083-1.893,0.246-2.87c-8.243-1.778-14.274-9.115-14.274-17.688
		c0-3.854,1.239-7.609,3.512-10.703c-2.273-3.109-3.512-6.876-3.512-10.733c0-9.034,6.74-16.778,15.678-18.015
		c0.506-0.062,1.004,0.12,1.337,0.502c0.333,0.382,0.45,0.905,0.312,1.393c-1.431,5.059-2.156,9.749-2.156,13.941
		c0,23.186,18.873,42.048,42.073,42.048c23.199,0,42.073-18.862,42.073-42.048c0-4.181-0.752-8.869-2.237-13.937
		c-0.143-0.487-0.029-1.014,0.301-1.398c0.331-0.386,0.832-0.583,1.336-0.51c8.99,1.199,15.77,8.948,15.77,18.023
		c0,3.857-1.239,7.624-3.512,10.733c2.273,3.094,3.512,6.85,3.512,10.703c0,8.572-6.034,15.908-14.279,17.686
		c0.161,0.962,0.242,1.923,0.242,2.871c0,9.983-8.122,18.105-18.104,18.105c-2.509,0-4.99-0.529-7.287-1.545
		C97.585,180.668,90.156,187.09,81.244,187.09z M64.673,168.263c0.243,0,0.485,0.059,0.707,0.177
		c0.466,0.249,0.767,0.725,0.792,1.253c0.379,8.073,7,14.397,15.072,14.397c8.075,0,14.692-6.323,15.064-14.396
		c0.024-0.527,0.325-1.004,0.791-1.253c0.465-0.25,1.028-0.236,1.481,0.037c2.358,1.418,5.044,2.167,7.766,2.167
		c8.329,0,15.104-6.775,15.104-15.105c0-1.219-0.163-2.468-0.484-3.713c-0.108-0.418-0.031-0.862,0.212-1.219
		c0.243-0.357,0.628-0.592,1.057-0.645c7.555-0.934,13.253-7.374,13.253-14.981c0-3.556-1.266-7.013-3.564-9.733
		c-0.472-0.558-0.473-1.374-0.003-1.933c2.3-2.738,3.567-6.208,3.567-9.771c0-6.784-4.536-12.681-10.871-14.561
		c1.129,4.437,1.701,8.592,1.701,12.382c0,24.84-20.22,45.048-45.073,45.048c-24.853,0-45.073-20.208-45.073-45.048
		c0-3.792,0.55-7.942,1.637-12.365c-6.298,1.9-10.807,7.79-10.807,14.544c0,3.563,1.267,7.032,3.567,9.771
		c0.47,0.559,0.469,1.375-0.003,1.933c-2.298,2.721-3.564,6.178-3.564,9.733c0,7.607,5.694,14.048,13.245,14.981
		c0.427,0.053,0.811,0.286,1.053,0.641c0.243,0.354,0.322,0.797,0.217,1.214c-0.323,1.282-0.487,2.535-0.487,3.722
		c0,8.329,6.776,15.105,15.104,15.105c2.73,0,5.415-0.749,7.764-2.166C64.136,168.335,64.405,168.263,64.673,168.263z"/>
	<path fill="#6CA8BF" d="M145.283,212.789v25.3h-15v-25.3c0-7.74-3.15-14.76-8.23-19.84c-2.79-2.79-6.17-5-9.94-6.42l1.36-1.8h3.73
		c7.75,0,14.77,3.14,19.85,8.22C142.133,198.029,145.283,205.049,145.283,212.789z"/>
	<path fill="#87796F" d="M81.244,16.68c-0.842,0-16.61,6.861-26.359,13.868C46.605,36.5,40.744,42.245,40.744,48.18
		c0,14.635,18.132,26.5,40.5,26.5c22.368,0,40.5-11.865,40.5-26.5S81.744,16.68,81.244,16.68z"/>
	<path fill="#3A312A" d="M81.244,76.18c-23.159,0-42-12.561-42-28c0-7.258,7.464-13.602,14.766-18.849
		c9.435-6.782,25.683-14.151,27.234-14.151c0.897,0,11.816,4.832,21.21,10.477c13.795,8.288,20.79,15.866,20.79,22.523
		C123.244,63.619,104.403,76.18,81.244,76.18z M81.193,18.245c-2.45,0.848-16.41,7.037-25.432,13.521
		c-9.348,6.719-13.517,11.78-13.517,16.413c0,13.785,17.495,25,39,25c21.505,0,39-11.215,39-25
		C120.244,35.749,85.936,20.021,81.193,18.245z M81.473,18.158L81.473,18.158L81.473,18.158z"/>
</g>
</svg>
