<?xml version="1.0" encoding="utf-8"?>
<!-- Generator: Adobe Illustrator 24.0.0, SVG Export Plug-In . SVG Version: 6.00 Build 0)  -->
<svg version="1.1" id="Layer_1" xmlns="http://www.w3.org/2000/svg" xmlns:xlink="http://www.w3.org/1999/xlink" x="0px" y="0px"
	 viewBox="0 0 256 256" enable-background="new 0 0 256 256" xml:space="preserve">
<g>
	<path fill="#8AC3DA" d="M17.344,177.955v46.723c0,8.059,6.533,14.592,14.592,14.592h192.815c8.059,0,14.592-6.533,14.592-14.592
		v-88.542c0-8.059-6.533-14.593-14.592-14.593H31.937c-8.059,0-14.592,6.533-14.592,14.593v26.95V177.955z"/>
	<path fill="#3A312A" d="M224.752,240.77H31.936c-8.873,0-16.092-7.219-16.092-16.092v-46.723c0-0.829,0.671-1.5,1.5-1.5
		c0.829,0,1.5,0.671,1.5,1.5v46.723c0,7.219,5.873,13.092,13.092,13.092h192.816c7.219,0,13.092-5.873,13.092-13.092v-88.542
		c0-7.219-5.873-13.092-13.092-13.092H31.936c-7.219,0-13.092,5.873-13.092,13.092v26.95c0,0.829-0.671,1.5-1.5,1.5
		c-0.829,0-1.5-0.671-1.5-1.5v-26.95c0-8.874,7.219-16.092,16.092-16.092h192.816c8.873,0,16.092,7.219,16.092,16.092v88.542
		C240.844,233.551,233.625,240.77,224.752,240.77z"/>
	<polygon fill="#87796F" points="155.947,99.27 32.438,99.27 32.438,121.543 224.938,121.543 224.938,99.27 170.242,99.27 	"/>
	<path fill="#3A312A" d="M224.938,123.043h-192.5c-0.829,0-1.5-0.671-1.5-1.5V99.27c0-0.829,0.671-1.5,1.5-1.5h123.509
		c0.828,0,1.5,0.671,1.5,1.5c0,0.829-0.672,1.5-1.5,1.5H33.938v19.273h189.5V100.77h-53.196c-0.828,0-1.5-0.671-1.5-1.5
		c0-0.829,0.672-1.5,1.5-1.5h54.696c0.828,0,1.5,0.671,1.5,1.5v22.273C226.438,122.372,225.767,123.043,224.938,123.043z"/>
	<path fill="#FCE8CB" d="M170.242,99.27h39.602c0-13.255-10.745-24-24-24h-115c-13.255,0-24,10.745-24,24h109.103H170.242z"/>
	<path fill="#3A312A" d="M209.844,100.77h-39.602c-0.828,0-1.5-0.671-1.5-1.5c0-0.829,0.672-1.5,1.5-1.5h38.052
		c-0.774-11.709-10.548-21-22.45-21h-115c-11.902,0-21.676,9.291-22.451,21h107.554c0.828,0,1.5,0.671,1.5,1.5
		c0,0.829-0.672,1.5-1.5,1.5H46.844c-0.829,0-1.5-0.671-1.5-1.5c0-14.06,11.439-25.5,25.5-25.5h115c14.061,0,25.5,11.44,25.5,25.5
		C211.344,100.099,210.672,100.77,209.844,100.77z"/>
	<path fill="#FCE8CB" d="M170.344,58.753c0,8.018-18.804,14.517-42,14.517s-42-6.5-42-14.517c0-10.097,8.596-15.569,37.5-24.983
		c12.282-4,16.163-17.04,22.23-17.04C151.207,16.73,170.344,40.161,170.344,58.753z"/>
	<path fill="#3A312A" d="M128.344,74.77c-24.799,0-43.5-6.886-43.5-16.017c0-11.933,11.36-17.559,38.536-26.409
		c6.318-2.058,10.395-6.803,13.673-10.615c2.996-3.487,5.584-6.499,9.021-6.499c6.719,0,25.77,25.171,25.77,43.523
		C171.844,67.884,153.143,74.77,128.344,74.77z M146.074,18.23c-2.06,0-4.231,2.527-6.747,5.454
		c-3.521,4.097-7.901,9.195-15.019,11.513c-31.2,10.161-36.464,15.479-36.464,23.557c0,7.671,21.344,13.017,40.5,13.017
		c19.156,0,40.5-5.346,40.5-13.017C168.844,40.501,150.088,18.23,146.074,18.23z"/>
	<path fill="#FCE8CB" d="M194.844,75.27L194.844,75.27h-133l0,0c0-13.255,10.745-24,24-24h85
		C184.099,51.27,194.844,62.015,194.844,75.27z"/>
	<path fill="#3A312A" d="M194.844,76.77h-133c-0.829,0-1.5-0.671-1.5-1.5c0-14.06,11.439-25.5,25.5-25.5h85
		c14.061,0,25.5,11.439,25.5,25.5C196.344,76.099,195.672,76.77,194.844,76.77z M63.394,73.77h129.9
		c-0.774-11.709-10.548-21-22.45-21h-85C73.942,52.77,64.168,62.061,63.394,73.77z"/>
	<path fill="#D7E057" d="M47.567,26.407c0,0,3.408,12.659,13.222,13.246c0,0-13.1,4.525-13.321,14.202
		c0,0-2.579-13.572-12.925-14.059C34.542,39.796,46.593,37.971,47.567,26.407z"/>
	<path fill="#3A312A" d="M47.466,55.354c-0.712,0-1.335-0.506-1.472-1.217C45.971,54.013,43.5,41.72,34.472,41.295
		c-0.771-0.037-1.388-0.651-1.428-1.421c-0.039-0.771,0.511-1.445,1.274-1.561c0.441-0.069,10.894-1.817,11.754-12.033
		c0.061-0.725,0.634-1.301,1.359-1.367c0.731-0.062,1.392,0.4,1.583,1.101c0.032,0.116,3.259,11.626,11.864,12.141
		c0.714,0.043,1.297,0.584,1.396,1.292c0.098,0.708-0.319,1.388-0.994,1.623c-0.121,0.042-12.118,4.311-12.313,12.819
		c-0.018,0.767-0.61,1.396-1.375,1.459C47.551,55.353,47.508,55.354,47.466,55.354z M39.726,39.625
		c3.878,1.969,6.23,5.746,7.587,8.877c2.027-4.021,5.942-6.787,8.949-8.427c-4.134-1.842-6.783-5.651-8.334-8.722
		C46.134,35.712,42.656,38.22,39.726,39.625z"/>
	<path fill="#D7E057" d="M25.868,43.387c0,0,2.411,8.954,9.352,9.369c0,0-9.266,3.201-9.422,10.045c0,0-1.824-9.6-9.142-9.944
		C16.656,52.858,25.179,51.566,25.868,43.387z"/>
	<path fill="#3A312A" d="M25.796,64.302c-0.713,0-1.337-0.507-1.472-1.22c-0.016-0.082-1.704-8.441-7.739-8.725
		c-0.771-0.037-1.388-0.651-1.428-1.421c-0.039-0.771,0.511-1.445,1.273-1.561c0.296-0.047,7.364-1.243,7.942-8.114
		c0.061-0.726,0.635-1.303,1.36-1.368c0.728-0.067,1.391,0.399,1.582,1.101l0,0c0.021,0.079,2.228,7.92,7.994,8.265
		c0.714,0.043,1.299,0.584,1.396,1.293c0.098,0.709-0.32,1.388-0.996,1.622c-0.081,0.028-8.282,2.952-8.413,8.661
		c-0.018,0.767-0.611,1.397-1.376,1.461C25.879,64.3,25.838,64.302,25.796,64.302z M21.278,52.774
		c2.107,1.333,3.523,3.394,4.447,5.28c1.376-2.232,3.515-3.872,5.365-4.973c-2.287-1.269-3.884-3.35-4.941-5.223
		C24.975,50.145,23.134,51.733,21.278,52.774z"/>
	<path fill="#D7E057" d="M25.868,16.73c0,0,2.411,8.954,9.352,9.37c0,0-9.266,3.201-9.422,10.045c0,0-1.824-9.6-9.142-9.944
		C16.656,26.2,25.179,24.909,25.868,16.73z"/>
	<path fill="#3A312A" d="M25.796,37.645c-0.713,0-1.337-0.507-1.472-1.22c-0.016-0.082-1.704-8.442-7.739-8.726
		c-0.77-0.037-1.387-0.651-1.427-1.421c-0.039-0.771,0.511-1.445,1.273-1.56c0.296-0.047,7.364-1.243,7.942-8.113
		c0.061-0.726,0.635-1.303,1.36-1.368c0.728-0.068,1.391,0.399,1.582,1.102l0,0c0.021,0.079,2.228,7.92,7.994,8.265
		c0.714,0.043,1.299,0.584,1.396,1.293c0.098,0.709-0.32,1.388-0.996,1.622c-0.081,0.028-8.282,2.952-8.413,8.662
		c-0.018,0.767-0.611,1.397-1.376,1.461C25.879,37.644,25.838,37.645,25.796,37.645z M21.278,26.117
		c2.106,1.332,3.523,3.394,4.447,5.28c1.376-2.232,3.515-3.872,5.365-4.973c-2.287-1.269-3.884-3.35-4.941-5.223
		C24.975,23.487,23.134,25.076,21.278,26.117z"/>
	<circle fill="#D7E057" cx="128.344" cy="180.77" r="44.5"/>
	<path fill="#3A312A" d="M128.344,226.77c-25.364,0-46-20.636-46-46c0-25.364,20.636-46,46-46c25.364,0,46,20.636,46,46
		C174.344,206.134,153.708,226.77,128.344,226.77z M128.344,137.77c-23.71,0-43,19.29-43,43c0,23.71,19.29,43,43,43
		c23.711,0,43-19.29,43-43C171.344,157.06,152.055,137.77,128.344,137.77z"/>
	<path fill="#87796F" d="M158.97,174.821c-1.36,16.879-5.947,40.593-30.615,40.593c-24.095,0-29.352-23.939-30.637-40.835
		c5.656,12.493,19.195,8.787,30.637,8.787C140.264,183.366,153.416,187.239,158.97,174.821z"/>
	<path fill="#3A312A" d="M128.355,216.914c-19.191,0-30.002-14.205-32.133-42.221c-0.055-0.726,0.418-1.386,1.123-1.567
		c0.702-0.18,1.439,0.171,1.738,0.834c4.183,9.237,13.16,8.715,22.664,8.164c2.183-0.127,4.441-0.258,6.607-0.258
		c2.351,0,4.755,0.148,7.081,0.292c9.717,0.597,18.108,1.117,22.164-7.949c0.299-0.666,1.035-1.021,1.741-0.841
		c0.707,0.181,1.182,0.846,1.123,1.574c-0.604,7.502-1.962,18.485-6.746,27.226C148.362,211.953,139.829,216.914,128.355,216.914z
		 M99.822,180.357c2.958,22.276,12.54,33.557,28.533,33.557c20.608,0,26.49-17.556,28.508-33.265
		c-5.456,5.499-13.644,4.995-21.611,4.503c-2.28-0.141-4.639-0.286-6.897-0.286c-2.079,0-4.292,0.128-6.433,0.253
		C114.131,185.574,105.498,186.073,99.822,180.357z"/>
	<path fill="#87796F" d="M118.72,174.396c4.261,0,7.933-1.401,9.624-3.421c1.691,2.021,5.363,3.421,9.624,3.421
		c9.123,0,21.14-7.561,21.14-15.191c0-1.38-3.585,1.513-7.459,2.893c-3.339,1.189-10.29,0.45-13.681,0.45
		c-4.261,0-7.933,1.401-9.624,3.421c-1.691-2.021-5.364-3.421-9.624-3.421c-3.391,0-10.343,0.739-13.681-0.45
		c-3.874-1.38-7.459-4.273-7.459-2.893C97.58,166.834,109.597,174.396,118.72,174.396z"/>
	<path fill="#3A312A" d="M137.969,175.895c-3.857,0-7.382-1.065-9.625-2.847c-2.243,1.782-5.767,2.847-9.624,2.847
		c-9.885,0-22.64-8.094-22.64-16.691c0-0.688,0.316-1.273,0.867-1.603c1.098-0.659,2.258-0.038,4.365,1.089
		c1.216,0.65,2.73,1.459,4.23,1.993c2.232,0.795,6.743,0.602,10.035,0.46c1.166-0.05,2.267-0.097,3.142-0.097
		c3.857,0,7.381,1.065,9.624,2.848c2.243-1.782,5.767-2.848,9.625-2.848c0.875,0,1.975,0.047,3.142,0.097
		c3.294,0.142,7.803,0.335,10.036-0.46c1.5-0.534,3.013-1.343,4.229-1.993c2.106-1.126,3.267-1.749,4.366-1.089
		c0.551,0.33,0.867,0.915,0.867,1.603C160.608,167.801,147.854,175.895,137.969,175.895z M128.344,169.475L128.344,169.475
		c0.444,0,0.866,0.197,1.15,0.537c1.443,1.725,4.85,2.884,8.475,2.884c7.471,0,17.599-5.708,19.37-11.852
		c-0.187,0.099-0.373,0.198-0.55,0.292c-1.303,0.697-2.926,1.564-4.637,2.174c-2.783,0.992-7.434,0.792-11.171,0.631
		c-1.147-0.049-2.188-0.095-3.013-0.095c-3.625,0-7.03,1.159-8.475,2.884c-0.568,0.68-1.729,0.68-2.3,0
		c-1.444-1.725-4.85-2.884-8.474-2.884c-0.825,0-1.865,0.045-3.013,0.095c-3.736,0.162-8.386,0.361-11.171-0.631
		c-1.711-0.609-3.334-1.477-4.637-2.174c-0.162-0.087-0.333-0.178-0.503-0.268c1.76,5.445,10.604,11.827,19.324,11.827
		c3.625,0,7.03-1.159,8.474-2.884C127.479,169.671,127.9,169.475,128.344,169.475z"/>
	<path fill="#6CA8BF" d="M224.754,123.04h-15c7.22,0,13.09,5.88,13.09,13.1v88.54c0,7.22-5.87,13.09-13.09,13.09h15
		c7.22,0,13.09-5.87,13.09-13.09v-88.54C237.844,128.92,231.974,123.04,224.754,123.04z"/>
</g>
</svg>
