<?xml version="1.0" encoding="utf-8"?>
<!-- Generator: Adobe Illustrator 24.0.0, SVG Export Plug-In . SVG Version: 6.00 Build 0)  -->
<svg version="1.1" id="Layer_1" xmlns="http://www.w3.org/2000/svg" xmlns:xlink="http://www.w3.org/1999/xlink" x="0px" y="0px"
	 viewBox="0 0 256 256" enable-background="new 0 0 256 256" xml:space="preserve">
<g>
	<path fill="#D7E057" d="M70.232,26.084c0,0,3.408,12.659,13.222,13.246c0,0-13.1,4.525-13.321,14.202
		c0,0-2.578-13.572-12.925-14.059C57.208,39.473,69.258,37.647,70.232,26.084z"/>
	<path fill="#3A312A" d="M70.131,55.031c-0.712,0-1.335-0.506-1.472-1.217c-0.024-0.124-2.495-12.417-11.522-12.842
		c-0.771-0.037-1.388-0.651-1.428-1.421c-0.04-0.771,0.511-1.445,1.273-1.561c0.441-0.069,10.894-1.817,11.754-12.033
		c0.061-0.725,0.634-1.301,1.359-1.367c0.731-0.058,1.393,0.399,1.584,1.102c0.032,0.116,3.259,11.626,11.864,12.141
		c0.714,0.043,1.297,0.584,1.396,1.292c0.098,0.708-0.319,1.388-0.994,1.623c-0.121,0.042-12.118,4.31-12.313,12.819
		c-0.018,0.767-0.61,1.396-1.375,1.46C70.216,55.03,70.173,55.031,70.131,55.031z M62.391,39.302
		c3.878,1.969,6.231,5.746,7.587,8.876c2.026-4.021,5.942-6.787,8.949-8.427c-4.134-1.842-6.783-5.651-8.334-8.722
		C68.799,35.389,65.321,37.897,62.391,39.302z"/>
	<path fill="#D7E057" d="M48.533,43.064c0,0,2.411,8.954,9.352,9.369c0,0-9.266,3.201-9.422,10.045c0,0-1.824-9.6-9.142-9.944
		C39.321,52.535,47.844,51.243,48.533,43.064z"/>
	<path fill="#3A312A" d="M48.461,63.979c-0.713,0-1.337-0.507-1.472-1.22c-0.016-0.082-1.704-8.442-7.739-8.726
		c-0.771-0.037-1.388-0.651-1.428-1.421c-0.04-0.771,0.511-1.445,1.273-1.561c0.296-0.047,7.364-1.243,7.942-8.114
		c0.061-0.726,0.635-1.303,1.36-1.368c0.727-0.061,1.391,0.399,1.582,1.102l0,0c0.021,0.079,2.228,7.92,7.994,8.265
		c0.714,0.043,1.299,0.584,1.396,1.293c0.098,0.709-0.32,1.388-0.996,1.622c-0.081,0.028-8.282,2.952-8.413,8.662
		c-0.018,0.767-0.611,1.397-1.376,1.461C48.544,63.978,48.503,63.979,48.461,63.979z M43.943,52.451
		c2.107,1.333,3.523,3.395,4.447,5.28c1.376-2.232,3.515-3.872,5.365-4.973c-2.287-1.269-3.884-3.35-4.941-5.224
		C47.64,49.821,45.799,51.41,43.943,52.451z"/>
	<path fill="#D7E057" d="M48.533,16.406c0,0,2.411,8.954,9.352,9.37c0,0-9.266,3.201-9.422,10.045c0,0-1.824-9.6-9.142-9.944
		C39.321,25.877,47.844,24.586,48.533,16.406z"/>
	<path fill="#3A312A" d="M48.461,37.321c-0.713,0-1.337-0.507-1.472-1.22c-0.016-0.082-1.704-8.441-7.739-8.725
		c-0.771-0.037-1.388-0.651-1.428-1.421c-0.04-0.77,0.511-1.445,1.273-1.561c0.296-0.047,7.364-1.243,7.942-8.114
		c0.061-0.726,0.635-1.303,1.36-1.368c0.727-0.063,1.391,0.399,1.582,1.102l0,0c0.021,0.079,2.228,7.919,7.994,8.264
		c0.715,0.043,1.299,0.585,1.396,1.294c0.098,0.709-0.319,1.388-0.996,1.622c-0.081,0.028-8.282,2.953-8.413,8.662
		c-0.018,0.767-0.611,1.397-1.376,1.461C48.544,37.32,48.503,37.321,48.461,37.321z M43.943,25.794
		c2.106,1.333,3.523,3.394,4.447,5.28c1.376-2.232,3.515-3.872,5.365-4.973c-2.287-1.269-3.884-3.35-4.941-5.224
		C47.64,23.164,45.799,24.753,43.943,25.794z"/>
	<path fill="#FCE8CB" d="M145.287,239.572h71.392v-26.788c0-16.327-13.241-29.56-29.576-29.56h-19.54v-12.693
		c-5.405,3.745-10.997,5.954-16.424,5.954c-5.206,0-10.699-2.231-16.081-6.021h-0.331v12.759h-19.552
		c-16.335,0-29.576,13.234-29.576,29.56v26.788h44.913H145.287z"/>
	<path fill="#3A312A" d="M216.679,241.072h-71.392c-0.829,0-1.5-0.671-1.5-1.5s0.671-1.5,1.5-1.5h69.892v-25.288
		c0-15.473-12.595-28.061-28.076-28.061h-19.54c-0.829,0-1.5-0.671-1.5-1.5v-9.93c-5.135,3.115-10.145,4.691-14.924,4.691
		c-4.702,0-9.71-1.66-14.913-4.938v10.177c0,0.829-0.671,1.5-1.5,1.5h-19.552c-15.481,0-28.076,12.588-28.076,28.061v25.288h43.413
		c0.829,0,1.5,0.671,1.5,1.5s-0.671,1.5-1.5,1.5H85.599c-0.829,0-1.5-0.671-1.5-1.5v-26.788c0-17.127,13.94-31.061,31.076-31.061
		h18.052v-11.259c0-0.829,0.671-1.5,1.5-1.5h0.331c0.309,0,0.611,0.096,0.864,0.273c5.417,3.814,10.537,5.747,15.217,5.747
		c4.885,0,10.123-1.913,15.569-5.688c0.459-0.318,1.056-0.354,1.55-0.096c0.495,0.259,0.804,0.77,0.804,1.329v11.193h18.04
		c17.135,0,31.076,13.934,31.076,31.061v26.788C218.179,240.401,217.507,241.072,216.679,241.072z"/>
	<path fill="#D7E057" d="M145.286,239.575h71.393v-26.799c0-16.327-13.241-29.561-29.576-29.561h-4.675l0.122,0.088l-20.325,26.943
		l-10.489-7.898l-10.489,7.898l-20.325-26.943l0.121-0.088h-5.869c-16.335,0-29.576,13.234-29.576,29.561v26.799h44.913H145.286z"/>
	<path fill="#3A312A" d="M216.679,241.075h-71.393c-0.829,0-1.5-0.671-1.5-1.5s0.671-1.5,1.5-1.5h69.893v-25.299
		c0-15.473-12.595-28.061-28.076-28.061h-3.739l-19.942,26.435c-0.499,0.661-1.438,0.793-2.1,0.295l-9.587-7.219l-9.586,7.219
		c-0.661,0.498-1.602,0.367-2.1-0.295l-19.941-26.435h-4.934c-15.481,0-28.076,12.588-28.076,28.061v25.299h43.413
		c0.829,0,1.5,0.671,1.5,1.5s-0.671,1.5-1.5,1.5H85.599c-0.829,0-1.5-0.671-1.5-1.5v-26.799c0-17.127,13.94-31.061,31.076-31.061
		h5.869c0.649,0,1.225,0.417,1.426,1.035c0.019,0.057,0.034,0.115,0.045,0.174l19.027,25.223l9.291-6.997
		c0.534-0.402,1.271-0.402,1.805,0l9.292,6.997l19.026-25.221c0.011-0.058,0.026-0.116,0.045-0.173
		c0.2-0.619,0.776-1.038,1.427-1.038h4.675c17.135,0,31.076,13.934,31.076,31.061v26.799
		C218.179,240.404,217.508,241.075,216.679,241.075z"/>
	
		<ellipse transform="matrix(0.0021 -1 1 0.0021 -9.8008 210.0693)" fill-rule="evenodd" clip-rule="evenodd" fill="#FCE8CB" cx="100.353" cy="109.945" rx="11.631" ry="11.637"/>
	<path fill="#3A312A" d="M100.354,123.077c-7.244,0-13.138-5.891-13.138-13.131s5.894-13.131,13.138-13.131
		c7.244,0,13.137,5.891,13.137,13.131S107.597,123.077,100.354,123.077z M100.354,99.814c-5.59,0-10.138,4.545-10.138,10.131
		c0,5.586,4.548,10.131,10.138,10.131c5.59,0,10.137-4.545,10.137-10.131C110.491,104.359,105.943,99.814,100.354,99.814z"/>
	
		<ellipse transform="matrix(0.0021 -1 1 0.0021 91.5672 311.6464)" fill-rule="evenodd" clip-rule="evenodd" fill="#FCE8CB" cx="201.928" cy="109.945" rx="11.631" ry="11.637"/>
	<path fill="#3A312A" d="M201.928,123.077c-7.244,0-13.137-5.891-13.137-13.131s5.894-13.131,13.137-13.131
		c7.244,0,13.138,5.891,13.138,13.131S209.172,123.077,201.928,123.077z M201.928,99.814c-5.59,0-10.137,4.545-10.137,10.131
		c0,5.586,4.547,10.131,10.137,10.131c5.59,0,10.138-4.545,10.138-10.131C212.065,104.359,207.518,99.814,201.928,99.814z"/>
	<path fill="#FCE8CB" d="M202.73,104.299c0,28.478-27.44,72.189-51.59,72.189c-23.051,0-51.59-43.711-51.59-72.189
		c0-28.478,23.098-51.563,51.59-51.563C179.633,52.736,202.73,75.822,202.73,104.299z"/>
	<path fill="#3A312A" d="M151.141,177.988c-11.055,0-24.391-9.743-35.673-26.063c-10.743-15.539-17.416-33.789-17.416-47.626
		c0-29.259,23.816-53.063,53.09-53.063c29.274,0,53.09,23.804,53.09,53.063c0,13.995-6.514,32.241-16.999,47.619
		C175.934,168.485,162.779,177.988,151.141,177.988z M151.141,54.236c-27.62,0-50.09,22.458-50.09,50.063
		c0,13.261,6.47,30.857,16.884,45.92c10.722,15.509,23.136,24.769,33.206,24.769c23.223,0,50.09-42.778,50.09-70.689
		C201.23,76.694,178.76,54.236,151.141,54.236z"/>
	<path fill="#3A312A" d="M137.962,103.717c0,2.78-2.254,5.033-5.035,5.033c-2.781,0-5.035-2.253-5.035-5.033
		c0-2.779,2.254-5.033,5.035-5.033C135.707,98.684,137.962,100.938,137.962,103.717z"/>
	<path fill="#3A312A" d="M174.39,103.717c0,2.78-2.254,5.033-5.036,5.033c-2.781,0-5.035-2.253-5.035-5.033
		c0-2.779,2.254-5.033,5.035-5.033C172.136,98.684,174.39,100.938,174.39,103.717z"/>
	<path fill="#F5978A" d="M131.537,118.68c0,3.579-3.884,6.481-8.674,6.481c-4.79,0-8.674-2.902-8.674-6.481
		c0-3.58,3.884-6.481,8.674-6.481C127.653,112.199,131.537,115.1,131.537,118.68z"/>
	<path fill="#F5978A" d="M188.093,118.68c0,3.579-3.883,6.481-8.674,6.481c-4.79,0-8.674-2.902-8.674-6.481
		c0-3.58,3.884-6.481,8.674-6.481C184.209,112.199,188.093,115.1,188.093,118.68z"/>
	<path fill="#87796F" d="M151.736,41.355c-29.491,0-53.397,22.845-53.397,51.026c0,2.982,0.539,5.204,1.543,7.981
		c0.473,1.309,8.119-2.871,8.77-3.329c3.256-2.291,5.916-5.396,7.905-8.829c0.822-1.428,1.508-2.88,2.06-4.333
		c1.76-4.635,6.542-17.533,11.398-16.521c6.512,1.357,13.892,2.123,21.721,2.123s15.21-0.767,21.722-2.123
		c4.856-1.012,9.638,11.886,11.398,16.521c0.552,1.453,1.237,2.905,2.06,4.333c3.285,5.679,8.833,11.086,15.583,12.069
		c0.017-0.326,0.428-0.437,0.736-0.548c2.21-0.802,1.9-5.574,1.9-7.344C205.133,64.2,181.227,41.355,151.736,41.355z"/>
	<path fill="#3A312A" d="M100.322,102.094c-0.242,0-0.459-0.027-0.646-0.087c-0.571-0.18-1.01-0.594-1.206-1.135
		c-1.008-2.787-1.632-5.18-1.633-8.491c0-28.963,24.627-52.526,54.897-52.526c30.271,0,54.898,23.563,54.898,52.525l0.006,0.575
		c0.037,2.478,0.104,7.09-2.893,8.179c-0.001,0.001-0.013,0.005-0.027,0.01c-0.076,0.107-0.166,0.204-0.27,0.289
		c-0.327,0.268-0.747,0.386-1.168,0.325c-6.332-0.923-12.561-5.709-16.664-12.803c-0.849-1.474-1.577-3.004-2.164-4.552l-0.11-0.29
		c-5.288-13.947-8.276-15.564-9.579-15.294c-6.863,1.43-14.274,2.155-22.028,2.155c-7.753,0-15.164-0.725-22.027-2.155
		c-1.313-0.272-4.293,1.351-9.58,15.294l-0.11,0.29c-0.587,1.546-1.314,3.077-2.162,4.549c-2.2,3.798-5.084,7.015-8.341,9.308
		C109.453,98.304,103.176,102.094,100.322,102.094z M203.996,100.352c0,0.001,0,0.002,0,0.003
		C203.996,100.354,203.996,100.353,203.996,100.352z M151.736,42.855c-28.616,0-51.897,22.217-51.897,49.526
		c0,2.546,0.437,4.498,1.161,6.636c1.766-0.483,5.898-2.605,6.793-3.213c2.901-2.042,5.485-4.931,7.466-8.352
		c0.766-1.331,1.424-2.716,1.955-4.114l0.11-0.29c3.454-9.108,7.686-18.284,12.997-17.167c6.662,1.388,13.868,2.091,21.415,2.091
		c7.548,0,14.754-0.704,21.416-2.091c5.288-1.114,9.542,8.058,12.996,17.167l0.11,0.29c0.531,1.398,1.189,2.783,1.958,4.117
		c3.477,6.01,8.566,10.142,13.74,11.201c0.276-0.169,0.543-0.262,0.692-0.315c0.445-0.161,1.056-1.03,0.993-5.342l-0.006-0.619
		C203.633,65.072,180.352,42.855,151.736,42.855z"/>
	
		<rect x="129.76" y="175.932" transform="matrix(0.7988 -0.6017 0.6017 0.7988 -88.5628 120.8397)" fill="#87796F" width="13.186" height="33.749"/>
	<path fill="#3A312A" d="M141.248,211.746c-0.455,0-0.904-0.206-1.199-0.597l-20.319-26.947c-0.24-0.318-0.343-0.718-0.288-1.112
		c0.055-0.394,0.265-0.75,0.583-0.99l10.532-7.934c0.661-0.498,1.602-0.365,2.1,0.295l20.319,26.947
		c0.24,0.318,0.343,0.718,0.288,1.112c-0.055,0.395-0.265,0.75-0.583,0.99l-10.532,7.933
		C141.879,211.648,141.562,211.746,141.248,211.746z M123.029,183.595l18.513,24.551l8.136-6.128l-18.513-24.552L123.029,183.595z"
		/>
	
		<rect x="160.526" y="175.932" transform="matrix(-0.7987 -0.6017 0.6017 -0.7987 184.5995 447.3592)" fill="#87796F" width="13.186" height="33.749"/>
	<path fill="#3A312A" d="M162.225,211.746c-0.314,0-0.631-0.098-0.901-0.302l-10.532-7.933c-0.318-0.24-0.528-0.595-0.583-0.99
		c-0.056-0.394,0.048-0.794,0.288-1.111l20.318-26.947c0.499-0.662,1.439-0.793,2.1-0.295l10.533,7.934
		c0.318,0.24,0.528,0.596,0.583,0.99c0.056,0.394-0.048,0.794-0.288,1.112l-20.319,26.947
		C163.128,211.54,162.679,211.746,162.225,211.746z M153.794,202.018l8.136,6.128l18.513-24.551l-8.137-6.129L153.794,202.018z"/>
	<path fill="#3A312A" d="M109.555,241.075c-0.829,0-1.5-0.671-1.5-1.5v-21.173c0-0.829,0.671-1.5,1.5-1.5c0.829,0,1.5,0.671,1.5,1.5
		v21.173C111.055,240.404,110.383,241.075,109.555,241.075z"/>
	<path fill="#3A312A" d="M192.723,241.075c-0.829,0-1.5-0.671-1.5-1.5v-21.173c0-0.829,0.671-1.5,1.5-1.5c0.829,0,1.5,0.671,1.5,1.5
		v21.173C194.223,240.404,193.552,241.075,192.723,241.075z"/>
	<path fill="#3A312A" d="M151.139,147.624c-7.285,0-12.536-3.271-15.609-9.723c-0.357-0.748-0.039-1.643,0.709-1.999
		c0.747-0.357,1.643-0.039,1.999,0.709c2.569,5.392,6.789,8.013,12.901,8.013c7.824,0,11.827-5.164,12.85-7.894
		c0.291-0.777,1.156-1.168,1.931-0.878c0.776,0.291,1.169,1.155,0.878,1.931C165.023,142.523,159.364,147.624,151.139,147.624z"/>
	<path fill="#87796F" d="M151.139,16.68c-0.842,0-16.61,6.861-26.359,13.868c-8.28,5.952-14.141,11.696-14.141,17.632
		c0,14.635,18.132,26.5,40.5,26.5c22.367,0,40.5-11.865,40.5-26.5S151.639,16.68,151.139,16.68z"/>
	<path fill="#3A312A" d="M151.139,76.18c-23.159,0-42-12.561-42-28c0-7.257,7.464-13.601,14.765-18.849
		c9.435-6.782,25.683-14.151,27.235-14.151c0.897,0,11.816,4.832,21.21,10.476c13.795,8.288,20.79,15.866,20.79,22.524
		C193.139,63.619,174.298,76.18,151.139,76.18z M151.088,18.245c-2.449,0.848-16.41,7.037-25.433,13.521
		c-9.348,6.719-13.516,11.782-13.516,16.414c0,13.785,17.495,25,39,25c21.505,0,39-11.215,39-25
		C190.139,35.749,155.831,20.02,151.088,18.245z"/>
	<path fill="#87796F" d="M202.639,107.52c-2.288,30.179-10,72.578-51.482,72.578c-40.518,0-49.357-42.802-51.518-73.01
		c9.512,22.337,32.278,45.509,51.518,45.509C171.184,152.596,193.299,129.722,202.639,107.52z"/>
	<path fill="#3A312A" d="M151.157,181.598c-31.646,0-49.483-25.033-53.014-74.403c-0.052-0.731,0.432-1.393,1.144-1.565
		c0.712-0.172,1.445,0.195,1.732,0.87c9.171,21.537,31.506,44.597,50.138,44.597c19.471,0,41.166-22.921,50.099-44.158
		c0.285-0.678,1.019-1.048,1.735-0.877c0.715,0.172,1.199,0.838,1.144,1.571c-1.008,13.297-3.266,32.759-11.205,48.18
		C184.121,172.922,170.066,181.598,151.157,181.598z M101.871,115.087c4.679,42.156,21.237,63.51,49.287,63.51
		c36.464,0,46.072-33.823,49.235-62.961c-10.839,19.984-30.587,38.459-49.235,38.459C132.948,154.096,112.79,135.02,101.871,115.087
		z"/>
	<path fill="#87796F" d="M163.027,127.243c-5.263,0-9.799,1.73-11.888,4.226c-2.089-2.496-6.625-4.226-11.888-4.226
		c-11.268,0-26.112,9.34-26.112,18.765c0,1.704,4.428-1.869,9.213-3.573c4.124-1.469,12.71-0.556,16.899-0.556
		c5.263,0,9.799-1.73,11.888-4.226c2.089,2.496,6.625,4.226,11.888,4.226c4.189,0,12.775-0.913,16.899,0.556
		c4.785,1.704,9.213,5.278,9.213,3.573C189.139,136.582,174.295,127.243,163.027,127.243z"/>
	<path fill="#3A312A" d="M113.544,147.96c-0.36,0-0.689-0.087-1.005-0.276c-0.572-0.343-0.9-0.954-0.9-1.677
		c0-10.438,15.555-20.264,27.612-20.264c4.817,0,9.198,1.359,11.888,3.618c2.69-2.259,7.071-3.618,11.888-3.618
		c12.057,0,27.612,9.827,27.612,20.264c0,0.723-0.328,1.334-0.9,1.677c-1.185,0.707-2.556-0.024-5.045-1.354
		c-1.512-0.808-3.394-1.814-5.272-2.483c-2.824-1.005-8.435-0.766-12.53-0.589c-1.436,0.062-2.792,0.12-3.866,0.12
		c-4.817,0-9.197-1.359-11.888-3.619c-2.691,2.26-7.071,3.619-11.888,3.619c-1.073,0-2.429-0.058-3.865-0.12
		c-4.098-0.176-9.707-0.417-12.53,0.589c-1.878,0.669-3.759,1.675-5.271,2.483C115.759,147.305,114.535,147.96,113.544,147.96z
		 M172.532,140.097c2.976,0,5.86,0.198,7.897,0.923c2.088,0.744,4.08,1.808,5.679,2.664c0.44,0.235,0.926,0.495,1.368,0.719
		c-1.609-8.014-14.799-15.661-24.449-15.661c-4.648,0-8.862,1.448-10.737,3.688c-0.57,0.681-1.73,0.681-2.301,0
		c-1.876-2.241-6.09-3.688-10.738-3.688c-9.65,0-22.839,7.647-24.449,15.661c0.441-0.224,0.928-0.484,1.368-0.719
		c1.6-0.855,3.591-1.919,5.679-2.664c3.375-1.202,9.08-0.957,13.666-0.76c1.403,0.06,2.728,0.117,3.737,0.117
		c4.648,0,8.863-1.448,10.738-3.689c0.57-0.681,1.73-0.681,2.301,0c1.875,2.241,6.09,3.689,10.737,3.689
		c1.009,0,2.334-0.057,3.737-0.117C168.582,140.183,170.577,140.097,172.532,140.097z"/>
	<path fill="#B9C239" d="M215.179,212.78v25.3h-15v-25.3c0-12-7.56-22.25-18.18-26.26l1.36-1.8h3.74
		C202.589,184.72,215.179,197.3,215.179,212.78z"/>
</g>
</svg>
