<?xml version="1.0" encoding="utf-8"?>
<!-- Generator: Adobe Illustrator 24.0.0, SVG Export Plug-In . SVG Version: 6.00 Build 0)  -->
<svg version="1.1" id="Layer_1" xmlns="http://www.w3.org/2000/svg" xmlns:xlink="http://www.w3.org/1999/xlink" x="0px" y="0px"
	 viewBox="0 0 256 256" enable-background="new 0 0 256 256" xml:space="preserve">
<g>
	<path fill="#F6E2C6" d="M83.757,233.268v6.334h133.46v-27.28c0-16.62-13.46-30.08-30.1-30.08h-19.9v-16.857h-33.44v16.857h-19.89
		c-16.64,0-30.13,13.46-30.13,30.08v7.171V233.268z"/>
	<path fill="#3A312A" d="M217.217,241.102H83.757c-0.828,0-1.5-0.672-1.5-1.5v-6.334c0-0.828,0.672-1.5,1.5-1.5
		c0.828,0,1.5,0.672,1.5,1.5v4.834h130.46v-25.78c0-15.759-12.83-28.58-28.6-28.58h-19.9c-0.828,0-1.5-0.672-1.5-1.5v-15.357h-30.44
		v15.357c0,0.828-0.672,1.5-1.5,1.5h-19.89c-15.786,0-28.63,12.821-28.63,28.58v7.171c0,0.828-0.672,1.5-1.5,1.5
		c-0.828,0-1.5-0.672-1.5-1.5v-7.171c0-17.413,14.189-31.58,31.63-31.58h18.39v-15.357c0-0.828,0.672-1.5,1.5-1.5h33.44
		c0.828,0,1.5,0.672,1.5,1.5v15.357h18.4c17.424,0,31.6,14.167,31.6,31.58v27.28C218.717,240.431,218.045,241.102,217.217,241.102z"
		/>
	<path fill="#F16C7A" d="M83.757,233.268v6.334h133.46v-27.28c0-16.62-13.46-30.08-30.1-30.08h-10.44
		c-3.22,4.32-13.73,7.5-26.19,7.5c-12.46,0-22.97-3.18-26.19-7.5h-10.41c-16.64,0-30.13,13.46-30.13,30.08v7.171V233.268z"/>
	<path fill="#3A312A" d="M217.217,241.102H83.757c-0.828,0-1.5-0.672-1.5-1.5v-6.334c0-0.828,0.672-1.5,1.5-1.5
		c0.828,0,1.5,0.672,1.5,1.5v4.834h130.46v-25.78c0-15.759-12.83-28.58-28.6-28.58h-9.732c-4.048,4.512-14.664,7.5-26.898,7.5
		c-12.233,0-22.85-2.988-26.897-7.5h-9.702c-15.786,0-28.63,12.821-28.63,28.58v7.171c0,0.828-0.672,1.5-1.5,1.5
		c-0.828,0-1.5-0.672-1.5-1.5v-7.171c0-17.413,14.189-31.58,31.63-31.58h10.409c0.474,0,0.92,0.224,1.202,0.604
		c2.556,3.427,11.959,6.896,24.988,6.896c13.03,0,22.434-3.47,24.987-6.896c0.283-0.38,0.729-0.604,1.203-0.604h10.44
		c17.424,0,31.6,14.167,31.6,31.58v27.28C218.717,240.431,218.045,241.102,217.217,241.102z"/>
	<path fill="#D34E5C" d="M215.717,212.318v25.79h-16v-25.79c0-13.8-9.85-25.36-22.89-28.01c0.2-0.19,0.39-0.38,0.56-0.57h9.73
		C202.887,183.738,215.717,196.568,215.717,212.318z"/>
	<path fill="#3A312A" d="M108.146,241.044c-0.828,0-1.5-0.672-1.5-1.5v-21.558c0-0.828,0.672-1.5,1.5-1.5c0.828,0,1.5,0.672,1.5,1.5
		v21.558C109.646,240.372,108.975,241.044,108.146,241.044z"/>
	<path fill="#3A312A" d="M192.827,241.044c-0.828,0-1.5-0.672-1.5-1.5v-21.558c0-0.828,0.672-1.5,1.5-1.5c0.828,0,1.5,0.672,1.5,1.5
		v21.558C194.327,240.372,193.655,241.044,192.827,241.044z"/>
	<path fill="#D7E057" d="M69.725,26.099c0,0,3.394,12.663,13.207,13.262c0,0-13.105,4.51-13.337,14.187
		c0,0-2.563-13.575-12.909-14.074C56.685,39.474,68.738,37.662,69.725,26.099z"/>
	<path fill="#3A312A" d="M69.593,55.047c-0.714,0-1.337-0.507-1.473-1.219c-0.023-0.124-2.479-12.421-11.508-12.856
		c-0.771-0.037-1.387-0.652-1.426-1.422c-0.039-0.771,0.513-1.445,1.275-1.56c0.441-0.068,10.896-1.805,11.769-12.018
		c0.062-0.725,0.636-1.3,1.36-1.365c0.715-0.061,1.393,0.4,1.582,1.104c0.031,0.116,3.245,11.629,11.85,12.153
		c0.714,0.043,1.298,0.585,1.395,1.294c0.098,0.708-0.32,1.387-0.996,1.621C83.3,40.82,71.298,45.075,71.094,53.584
		c-0.019,0.767-0.612,1.395-1.377,1.458C69.676,55.045,69.634,55.047,69.593,55.047z M61.868,39.309
		c3.876,1.974,6.224,5.753,7.576,8.885c2.031-4.019,5.95-6.779,8.959-8.416c-4.133-1.848-6.776-5.659-8.324-8.732
		C68.281,35.403,64.801,37.907,61.868,39.309z"/>
	<path fill="#D7E057" d="M48.007,43.055c0,0,2.401,8.957,9.341,9.38c0,0-9.27,3.19-9.434,10.034c0,0-1.813-9.602-9.131-9.955
		C38.783,52.515,47.308,51.233,48.007,43.055z"/>
	<path fill="#3A312A" d="M47.913,63.97c-0.715,0-1.338-0.509-1.473-1.222c-0.016-0.082-1.694-8.443-7.729-8.735
		c-0.771-0.037-1.387-0.652-1.426-1.423c-0.039-0.77,0.513-1.444,1.275-1.559c0.296-0.047,7.365-1.234,7.952-8.104
		c0.062-0.726,0.636-1.302,1.361-1.366c0.728-0.063,1.392,0.401,1.581,1.104l0,0c0.021,0.079,2.219,7.922,7.984,8.274
		c0.714,0.044,1.298,0.586,1.395,1.295c0.097,0.709-0.321,1.388-0.998,1.62c-0.081,0.028-8.285,2.942-8.422,8.652
		c-0.019,0.767-0.613,1.396-1.378,1.459C47.995,63.968,47.953,63.97,47.913,63.97z M43.405,52.437
		c2.106,1.335,3.52,3.398,4.441,5.285c1.379-2.23,3.52-3.867,5.37-4.966c-2.285-1.273-3.88-3.354-4.935-5.229
		C47.105,49.812,45.263,51.397,43.405,52.437z"/>
	<path fill="#D7E057" d="M48.037,16.397c0,0,2.401,8.957,9.341,9.38c0,0-9.27,3.19-9.434,10.035c0,0-1.813-9.602-9.131-9.955
		C38.814,25.858,47.339,24.576,48.037,16.397z"/>
	<path fill="#3A312A" d="M47.943,37.313c-0.715,0-1.338-0.509-1.473-1.222c-0.016-0.082-1.694-8.444-7.729-8.735
		c-0.771-0.037-1.387-0.652-1.426-1.422c-0.039-0.771,0.513-1.445,1.275-1.56c0.296-0.047,7.365-1.234,7.952-8.104
		c0.061-0.726,0.636-1.302,1.361-1.366c0.73-0.066,1.392,0.401,1.581,1.103l0,0c0.021,0.079,2.219,7.922,7.983,8.274
		c0.715,0.043,1.299,0.586,1.396,1.295c0.097,0.709-0.321,1.388-0.998,1.62c-0.081,0.028-8.285,2.943-8.422,8.653
		c-0.018,0.767-0.613,1.396-1.378,1.459C48.025,37.311,47.983,37.313,47.943,37.313z M43.436,25.779
		c2.106,1.335,3.519,3.398,4.441,5.285c1.379-2.231,3.519-3.868,5.37-4.967c-2.285-1.271-3.88-3.354-4.935-5.229
		C47.137,23.154,45.293,24.74,43.436,25.779z"/>
	<path fill="#87796F" d="M208.184,167.452c0.265-33.884,0.404-74.585,0.404-76.565c0-29.787-26.013-53.935-58.102-53.935
		c-32.089,0-58.102,24.147-58.102,53.935c0,1.981,0.145,42.681,0.42,76.565H208.184z"/>
	<path fill="#3A312A" d="M208.185,168.952H92.805c-0.823,0-1.493-0.664-1.5-1.488c-0.271-33.271-0.42-74.216-0.42-76.576
		c0-30.567,26.737-55.436,59.602-55.436c32.865,0,59.603,24.868,59.603,55.436c0,2.352-0.144,43.242-0.404,76.576
		C209.678,168.288,209.009,168.952,208.185,168.952z M94.293,165.952h112.403c0.253-33.043,0.393-72.749,0.393-75.064
		c0-28.913-25.392-52.436-56.603-52.436c-31.21,0-56.602,23.523-56.602,52.436C93.885,93.212,94.03,132.967,94.293,165.952z"/>
	<path fill-rule="evenodd" clip-rule="evenodd" fill="#F8E4C8" d="M111.337,129.972c0,6.424-5.21,11.631-11.638,11.631
		c-6.427,0-11.637-5.208-11.637-11.631c0-6.424,5.21-11.632,11.637-11.632C106.127,118.341,111.337,123.548,111.337,129.972z"/>
	<path fill="#3A312A" d="M99.699,143.104c-7.244,0-13.138-5.891-13.138-13.131c0-7.241,5.894-13.132,13.138-13.132
		c7.244,0,13.138,5.891,13.138,13.132C112.837,137.213,106.943,143.104,99.699,143.104z M99.699,119.841
		c-5.59,0-10.138,4.545-10.138,10.132c0,5.586,4.548,10.131,10.138,10.131c5.59,0,10.138-4.545,10.138-10.131
		C109.837,124.386,105.289,119.841,99.699,119.841z"/>
	
		<ellipse transform="matrix(0.0021 -1 1 0.0021 70.8876 330.9781)" fill-rule="evenodd" clip-rule="evenodd" fill="#F8E4C8" cx="201.274" cy="129.972" rx="11.631" ry="11.637"/>
	<path fill="#3A312A" d="M201.273,143.104c-7.243,0-13.137-5.891-13.137-13.131c0-7.241,5.894-13.132,13.137-13.132
		c7.244,0,13.138,5.891,13.138,13.132C214.411,137.213,208.518,143.104,201.273,143.104z M201.273,119.841
		c-5.59,0-10.137,4.545-10.137,10.132c0,5.586,4.547,10.131,10.137,10.131c5.59,0,10.138-4.545,10.138-10.131
		C211.411,124.386,206.863,119.841,201.273,119.841z"/>
	
		<ellipse transform="matrix(0.8941 -0.4478 0.4478 0.8941 -39.7724 80.576)" fill="#F8E4C8" cx="150.532" cy="124.407" rx="51.546" ry="51.546"/>
	<path fill="#3A312A" d="M150.532,177.452c-29.25,0-53.046-23.796-53.046-53.046c0-29.249,23.796-53.045,53.046-53.045
		s53.046,23.796,53.046,53.045C203.578,153.656,179.782,177.452,150.532,177.452z M150.532,74.361
		c-27.596,0-50.046,22.45-50.046,50.045c0,27.596,22.45,50.046,50.046,50.046s50.046-22.45,50.046-50.046
		C200.578,96.812,178.128,74.361,150.532,74.361z"/>
	<path fill="#87796F" d="M212.348,100.642c0,3.97-0.426,8.193-1.214,12.536h-19.431l-2.885-21.935l-2.885,21.935h-19.783
		l-2.885-21.935l-2.885,21.935h-19.783l-2.886-21.935l-2.885,21.935h-19.783l-2.886-21.935l-2.885,21.935H89.882
		c-0.82-4.343-1.256-8.566-1.256-12.536c0-35.173,27.694-63.689,61.861-63.689S212.348,65.468,212.348,100.642z"/>
	<path fill="#3A312A" d="M211.134,114.678h-19.432c-0.753,0-1.389-0.558-1.487-1.305l-1.397-10.629l-1.398,10.629
		c-0.099,0.747-0.734,1.305-1.487,1.305h-19.783c-0.753,0-1.389-0.558-1.487-1.305l-1.397-10.629l-1.398,10.629
		c-0.099,0.747-0.734,1.305-1.487,1.305h-19.782c-0.753,0-1.389-0.558-1.487-1.305l-1.398-10.631l-1.399,10.631
		c-0.099,0.747-0.734,1.305-1.487,1.305h-19.782c-0.753,0-1.389-0.558-1.487-1.305l-1.398-10.631l-1.399,10.631
		c-0.099,0.747-0.734,1.305-1.487,1.305H89.882c-0.721,0-1.34-0.513-1.474-1.222c-0.851-4.504-1.282-8.815-1.282-12.814
		c0-35.945,28.423-65.189,63.36-65.189s63.361,29.244,63.361,65.189c0,3.969-0.417,8.276-1.238,12.804
		C212.48,114.159,211.859,114.678,211.134,114.678z M193.018,111.678h16.855c0.647-3.899,0.976-7.606,0.976-11.036
		c0-34.291-27.078-62.19-60.361-62.19s-60.36,27.899-60.36,62.19c0,3.451,0.339,7.159,1.009,11.036h16.82l2.714-20.631
		c0.099-0.747,0.734-1.305,1.487-1.305c0.753,0,1.389,0.558,1.487,1.305l2.714,20.631h17.151l2.714-20.631
		c0.099-0.747,0.734-1.305,1.487-1.305c0.753,0,1.389,0.558,1.487,1.305l2.714,20.631h17.151l2.714-20.631
		c0.099-0.747,0.734-1.305,1.487-1.305l0,0c0.753,0,1.389,0.558,1.487,1.305l2.713,20.631h17.152l2.714-20.631
		c0.099-0.747,0.734-1.305,1.487-1.305l0,0c0.753,0,1.389,0.558,1.487,1.305L193.018,111.678z"/>
	<path fill="#3A312A" d="M137.308,123.744c0,2.78-2.254,5.033-5.036,5.033s-5.035-2.253-5.035-5.033
		c0-2.779,2.254-5.033,5.035-5.033S137.308,120.965,137.308,123.744z"/>
	<path fill="#3A312A" d="M173.736,123.744c0,2.78-2.254,5.033-5.035,5.033c-2.781,0-5.035-2.253-5.035-5.033
		c0-2.779,2.254-5.033,5.035-5.033C171.482,118.711,173.736,120.965,173.736,123.744z"/>
	<path fill="#F59689" d="M130.883,138.707c0,3.579-3.884,6.481-8.674,6.481c-4.791,0-8.674-2.902-8.674-6.481
		c0-3.58,3.883-6.481,8.674-6.481C126.999,132.225,130.883,135.127,130.883,138.707z"/>
	<path fill="#F59689" d="M187.439,138.707c0,3.579-3.883,6.481-8.674,6.481c-4.79,0-8.674-2.902-8.674-6.481
		c0-3.58,3.884-6.481,8.674-6.481C183.555,132.225,187.439,135.127,187.439,138.707z"/>
	<path fill="#3A312A" d="M150.486,153.651c-7.284,0-12.536-3.271-15.609-9.724c-0.357-0.747-0.038-1.643,0.71-1.999
		c0.748-0.354,1.642-0.038,1.999,0.71c2.568,5.392,6.788,8.013,12.9,8.013c7.823,0,11.827-5.164,12.852-7.895
		c0.29-0.776,1.156-1.172,1.931-0.878c0.776,0.291,1.169,1.155,0.878,1.931C164.369,148.55,158.71,153.651,150.486,153.651z"/>
	<rect x="115.987" y="220.452" fill="#D7E057" width="29" height="10"/>
	<path fill="#3A312A" d="M144.986,231.952h-29c-0.828,0-1.5-0.672-1.5-1.5v-10c0-0.828,0.672-1.5,1.5-1.5h29
		c0.828,0,1.5,0.672,1.5,1.5v10C146.486,231.28,145.814,231.952,144.986,231.952z M117.486,228.952h26v-7h-26V228.952z"/>
</g>
</svg>
