<?xml version="1.0" encoding="utf-8"?>
<!-- Generator: Adobe Illustrator 24.0.0, SVG Export Plug-In . SVG Version: 6.00 Build 0)  -->
<svg version="1.1" id="Layer_1" xmlns="http://www.w3.org/2000/svg" xmlns:xlink="http://www.w3.org/1999/xlink" x="0px" y="0px"
	 viewBox="0 0 256 256" enable-background="new 0 0 256 256" xml:space="preserve">
<g>
	<path fill="#D7E057" d="M47.352,26.157c0,0,3.408,12.659,13.222,13.246c0,0-13.1,4.525-13.321,14.202
		c0,0-2.578-13.572-12.925-14.059C34.328,39.546,46.379,37.721,47.352,26.157z"/>
	<path fill="#3A312A" d="M47.252,55.105c-0.713,0-1.335-0.506-1.473-1.217c-0.023-0.124-2.494-12.417-11.521-12.842
		c-0.771-0.037-1.388-0.651-1.428-1.421c-0.04-0.77,0.511-1.445,1.273-1.56c0.441-0.069,10.895-1.817,11.754-12.033
		c0.062-0.725,0.635-1.301,1.359-1.367c0.727-0.06,1.394,0.399,1.584,1.101c0.031,0.116,3.259,11.626,11.863,12.141
		c0.714,0.043,1.298,0.584,1.396,1.292c0.098,0.708-0.318,1.388-0.994,1.623c-0.121,0.042-12.119,4.311-12.313,12.819
		c-0.017,0.767-0.61,1.396-1.375,1.459C47.336,55.103,47.294,55.105,47.252,55.105z M39.512,39.375
		c3.878,1.969,6.229,5.746,7.586,8.877c2.026-4.022,5.941-6.787,8.949-8.427c-4.134-1.842-6.783-5.651-8.334-8.722
		C45.92,35.462,42.442,37.97,39.512,39.375z"/>
	<path fill="#D7E057" d="M25.654,43.137c0,0,2.411,8.954,9.352,9.369c0,0-9.266,3.201-9.422,10.045c0,0-1.824-9.6-9.142-9.944
		C16.441,52.608,24.965,51.316,25.654,43.137z"/>
	<path fill="#3A312A" d="M25.582,64.052c-0.714,0-1.337-0.507-1.473-1.22c-0.016-0.082-1.703-8.441-7.738-8.725
		c-0.77-0.037-1.388-0.651-1.428-1.421c-0.04-0.771,0.511-1.445,1.273-1.561c0.296-0.047,7.363-1.243,7.941-8.114
		c0.062-0.726,0.636-1.303,1.361-1.368c0.716-0.062,1.392,0.4,1.581,1.102l0,0c0.022,0.079,2.229,7.92,7.995,8.265
		c0.714,0.043,1.299,0.584,1.396,1.293c0.097,0.709-0.32,1.388-0.997,1.622c-0.08,0.028-8.282,2.952-8.412,8.661
		c-0.018,0.767-0.611,1.397-1.377,1.461C25.665,64.05,25.623,64.052,25.582,64.052z M21.063,52.524
		c2.107,1.333,3.523,3.394,4.447,5.279c1.376-2.231,3.515-3.872,5.364-4.972c-2.286-1.269-3.884-3.35-4.941-5.223
		C24.761,49.895,22.919,51.483,21.063,52.524z"/>
	<path fill="#D7E057" d="M25.654,16.48c0,0,2.411,8.954,9.352,9.37c0,0-9.266,3.201-9.422,10.045c0,0-1.824-9.6-9.142-9.944
		C16.441,25.95,24.965,24.659,25.654,16.48z"/>
	<path fill="#3A312A" d="M25.582,37.395c-0.714,0-1.337-0.507-1.473-1.22c-0.016-0.081-1.703-8.442-7.738-8.726
		c-0.77-0.037-1.388-0.651-1.428-1.421c-0.04-0.77,0.511-1.445,1.273-1.56c0.296-0.047,7.363-1.243,7.941-8.113
		c0.062-0.726,0.636-1.303,1.361-1.368c0.716-0.061,1.392,0.399,1.581,1.102l0,0c0.022,0.079,2.229,7.92,7.995,8.265
		c0.714,0.043,1.299,0.584,1.396,1.293c0.097,0.709-0.32,1.388-0.997,1.622c-0.08,0.028-8.282,2.952-8.412,8.662
		c-0.018,0.767-0.611,1.397-1.377,1.461C25.665,37.394,25.623,37.395,25.582,37.395z M21.063,25.867
		c2.107,1.333,3.523,3.394,4.447,5.28c1.376-2.232,3.515-3.872,5.364-4.972c-2.286-1.27-3.884-3.35-4.941-5.224
		C24.761,23.237,22.919,24.826,21.063,25.867z"/>
	<path fill="#89C4DB" d="M103.162,16.52H77.184c-5.316,0-9.625,4.309-9.625,9.625s4.309,9.625,9.625,9.625h57.189
		c3.251,0,6.086,2.505,6.183,5.754c0.101,3.362-2.595,6.119-5.934,6.119H73.952c-3.531,0-6.394,2.863-6.394,6.394
		c0,3.531,2.863,6.394,6.394,6.394h60.421c3.251,0,6.086,2.505,6.183,5.754c0.101,3.362-2.595,6.119-5.934,6.119H73.952
		c-3.531,0-6.394,2.862-6.394,6.393c0,3.531,2.863,6.394,6.394,6.394h60.421c3.251,0,6.086,2.505,6.183,5.754
		c0.101,3.362-2.595,6.119-5.934,6.119H73.952c-3.531,0-6.394,2.862-6.394,6.394c0,3.531,2.863,6.394,6.394,6.394h60.421
		c3.251,0,6.086,2.505,6.183,5.754c0.101,3.362-2.595,6.119-5.934,6.119H73.952c-3.531,0-6.394,2.863-6.394,6.394
		c0,3.531,2.863,6.394,6.394,6.394l60.421,0c3.251,0,6.086,2.505,6.183,5.755c0.101,3.362-2.595,6.119-5.934,6.119H73.952
		c-3.531,0-6.394,2.862-6.394,6.394c0,3.531,2.863,6.394,6.394,6.394h60.421c3.251,0,6.086,2.505,6.183,5.755
		c0.101,3.362-2.595,6.119-5.934,6.119H73.952c-3.531,0-6.394,2.863-6.394,6.394c0,3.531,2.863,6.394,6.394,6.394h60.421
		c3.251,0,6.086,2.505,6.183,5.755c0.101,3.362-2.595,6.119-5.934,6.119H73.952c-3.531,0-6.394,2.862-6.394,6.394
		c0,3.531,2.863,6.393,6.394,6.393h60.421c3.251,0,6.086,2.505,6.183,5.755c0.101,3.362-2.595,6.119-5.934,6.119H77.184
		c-5.316,0-9.625,4.309-9.625,9.625c0,5.316,4.309,9.625,9.625,9.625h88.784c40.643,0,73.591-32.948,73.591-73.591V90.111
		c0-40.643-32.948-73.591-73.591-73.591h-48.512H103.162z"/>
	<path fill="#3A312A" d="M165.968,241.02H77.184c-6.135,0-11.125-4.991-11.125-11.125c0-6.134,4.99-11.125,11.125-11.125h57.438
		c1.211,0,2.342-0.479,3.184-1.348c0.843-0.868,1.286-2.014,1.25-3.226c-0.071-2.371-2.172-4.3-4.684-4.3H73.952
		c-4.353,0-7.894-3.541-7.894-7.894c0-4.353,3.541-7.894,7.894-7.894h60.67c1.21,0,2.342-0.479,3.184-1.348
		c0.843-0.869,1.286-2.014,1.25-3.226c-0.071-2.372-2.172-4.3-4.684-4.3H73.952c-4.353,0-7.894-3.541-7.894-7.894
		c0-4.353,3.541-7.894,7.894-7.894h60.67c1.211,0,2.342-0.479,3.184-1.348c0.843-0.868,1.286-2.014,1.25-3.226
		c-0.071-2.371-2.172-4.3-4.684-4.3H73.952c-4.353,0-7.894-3.541-7.894-7.893c0-4.353,3.541-7.894,7.894-7.894h60.67
		c1.21,0,2.341-0.479,3.184-1.348c0.843-0.869,1.286-2.014,1.25-3.227c-0.071-2.371-2.172-4.3-4.684-4.3H73.952
		c-4.353,0-7.894-3.541-7.894-7.894c0-4.352,3.541-7.893,7.894-7.893h60.67c1.211,0,2.342-0.479,3.184-1.348
		c0.843-0.868,1.286-2.014,1.25-3.226c-0.071-2.371-2.172-4.3-4.684-4.3H73.952c-4.353,0-7.894-3.541-7.894-7.894
		c0-4.353,3.541-7.894,7.894-7.894h60.67c1.21,0,2.341-0.479,3.184-1.348c0.843-0.869,1.286-2.014,1.25-3.227
		c-0.071-2.371-2.172-4.3-4.684-4.3H73.952c-4.353,0-7.894-3.541-7.894-7.894c0-4.353,3.541-7.894,7.894-7.894h60.67
		c1.211,0,2.342-0.479,3.184-1.348c0.843-0.868,1.286-2.014,1.25-3.226c-0.071-2.371-2.172-4.3-4.684-4.3H73.952
		c-4.353,0-7.894-3.541-7.894-7.894s3.541-7.894,7.894-7.894h60.67c1.21,0,2.341-0.478,3.184-1.348
		c0.843-0.869,1.286-2.014,1.25-3.227c-0.071-2.371-2.172-4.3-4.684-4.3H77.184c-6.135,0-11.125-4.991-11.125-11.125
		c0-6.134,4.99-11.125,11.125-11.125h25.979c0.828,0,1.5,0.671,1.5,1.5c0,0.829-0.672,1.5-1.5,1.5H77.184
		c-4.48,0-8.125,3.645-8.125,8.125s3.645,8.125,8.125,8.125h57.189c4.117,0,7.563,3.234,7.682,7.21
		c0.061,2.03-0.683,3.95-2.095,5.405c-1.413,1.456-3.309,2.259-5.338,2.259h-60.67c-2.698,0-4.894,2.195-4.894,4.894
		s2.195,4.894,4.894,4.894h60.421c4.117,0,7.563,3.234,7.682,7.21c0.061,2.029-0.683,3.949-2.095,5.405
		c-1.413,1.456-3.309,2.259-5.338,2.259h-60.67c-2.698,0-4.894,2.195-4.894,4.894c0,2.698,2.195,4.894,4.894,4.894h60.421
		c4.117,0,7.563,3.234,7.682,7.21c0.061,2.03-0.683,3.95-2.095,5.405c-1.413,1.457-3.309,2.259-5.338,2.259h-60.67
		c-2.698,0-4.894,2.195-4.894,4.894c0,2.698,2.195,4.894,4.894,4.894h60.421c4.117,0,7.563,3.234,7.682,7.21
		c0.061,2.029-0.683,3.949-2.095,5.405c-1.413,1.456-3.309,2.259-5.338,2.259h-60.67c-2.698,0-4.894,2.195-4.894,4.893
		c0,2.698,2.195,4.894,4.894,4.894h60.421c4.117,0,7.563,3.234,7.682,7.21c0.061,2.03-0.683,3.95-2.095,5.405
		c-1.413,1.457-3.309,2.259-5.338,2.259h-60.67c-2.698,0-4.894,2.195-4.894,4.894c0,2.698,2.195,4.893,4.894,4.893h60.421
		c4.117,0,7.563,3.234,7.682,7.21c0.061,2.029-0.683,3.949-2.095,5.405c-1.413,1.456-3.309,2.259-5.338,2.259h-60.67
		c-2.698,0-4.894,2.195-4.894,4.894c0,2.698,2.195,4.894,4.894,4.894h60.421c4.117,0,7.563,3.234,7.682,7.21
		c0.061,2.029-0.683,3.949-2.095,5.405c-1.413,1.456-3.309,2.259-5.338,2.259h-60.67c-2.698,0-4.894,2.195-4.894,4.894
		c0,2.698,2.195,4.894,4.894,4.894h60.421c4.117,0,7.563,3.234,7.682,7.21c0.061,2.029-0.683,3.949-2.095,5.405
		c-1.413,1.457-3.309,2.259-5.338,2.259H77.184c-4.48,0-8.125,3.645-8.125,8.125c0,4.48,3.645,8.125,8.125,8.125h88.784
		c39.751,0,72.091-32.34,72.091-72.091V90.111c0-39.751-32.34-72.091-72.091-72.091h-48.512c-0.828,0-1.5-0.671-1.5-1.5
		c0-0.829,0.672-1.5,1.5-1.5h48.512c41.405,0,75.091,33.686,75.091,75.091v75.818C241.059,207.335,207.373,241.02,165.968,241.02z"
		/>
	<path fill="#6CA8BF" d="M238.059,90.11v75.82c0,39.75-32.34,72.09-72.09,72.09h-15c39.75,0,72.09-32.34,72.09-72.09V90.11
		c0-39.75-32.34-72.09-72.09-72.09h15C205.719,18.02,238.059,50.36,238.059,90.11z"/>
</g>
</svg>
