<?xml version="1.0" encoding="utf-8"?>
<!-- Generator: Adobe Illustrator 24.0.0, SVG Export Plug-In . SVG Version: 6.00 Build 0)  -->
<svg version="1.1" id="Layer_1" xmlns="http://www.w3.org/2000/svg" xmlns:xlink="http://www.w3.org/1999/xlink" x="0px" y="0px"
	 viewBox="0 0 256 256" enable-background="new 0 0 256 256" xml:space="preserve">
<g>
	<path fill="#89C4DB" d="M176.745,16.5h-11.526c-5.316,0-9.625,4.309-9.625,9.625s4.309,9.625,9.625,9.625h42.163
		c3.266,0,6.126,2.516,6.21,5.78c0.086,3.351-2.604,6.093-5.935,6.093h-45.67c-3.531,0-6.393,2.863-6.393,6.394
		c0,3.531,2.863,6.394,6.393,6.394h45.395c3.266,0,6.126,2.516,6.21,5.78c0.086,3.35-2.604,6.093-5.935,6.093h-45.67
		c-3.531,0-6.393,2.863-6.393,6.394s2.863,6.394,6.393,6.394h45.395c3.266,0,6.126,2.516,6.21,5.78
		c0.086,3.35-2.604,6.094-5.935,6.094h-45.67c-3.531,0-6.393,2.862-6.393,6.394c0,3.531,2.863,6.394,6.393,6.394h45.394
		c3.266,0,6.126,2.516,6.21,5.78c0.086,3.35-2.604,6.093-5.935,6.093h-45.67c-3.531,0-6.393,2.863-6.393,6.394
		c0,3.531,2.863,6.394,6.393,6.394h45.394c3.266,0,6.126,2.516,6.21,5.78c0.086,3.351-2.604,6.094-5.935,6.094h-45.67
		c-3.531,0-6.393,2.863-6.393,6.394c0,3.531,2.863,6.393,6.393,6.393h45.394c3.266,0,6.126,2.516,6.21,5.78
		c0.086,3.351-2.604,6.094-5.935,6.094h-45.67c-3.531,0-6.393,2.863-6.393,6.394c0,3.531,2.863,6.394,6.393,6.394h45.394
		c3.266,0,6.126,2.516,6.21,5.78c0.086,3.351-2.604,6.093-5.935,6.093h-45.67c-3.531,0-6.393,2.863-6.393,6.394
		c0,3.531,2.863,6.394,6.393,6.394h45.394c3.266,0,6.126,2.516,6.21,5.78c0.086,3.35-2.604,6.093-5.935,6.093h-42.438
		c-5.316,0-9.625,4.309-9.625,9.625s4.309,9.625,9.625,9.625h56.331c9.966,0,18.044-8.079,18.044-18.044V34.544
		c0-9.966-8.079-18.044-18.044-18.044h-30.441H176.745z"/>
	<path fill="#3A312A" d="M221.55,241h-56.331c-6.134,0-11.125-4.991-11.125-11.125s4.991-11.125,11.125-11.125h42.438
		c1.207,0,2.336-0.476,3.178-1.34c0.842-0.864,1.288-2.005,1.257-3.214c-0.061-2.382-2.174-4.319-4.71-4.319h-45.394
		c-4.352,0-7.894-3.541-7.894-7.893c0-4.353,3.541-7.894,7.894-7.894h45.669c1.207,0,2.336-0.476,3.178-1.34
		c0.842-0.864,1.288-2.005,1.257-3.214c-0.061-2.381-2.174-4.319-4.71-4.319h-45.394c-4.352,0-7.894-3.541-7.894-7.894
		c0-4.353,3.541-7.894,7.894-7.894h45.669c1.207,0,2.336-0.476,3.178-1.34c0.842-0.864,1.288-2.006,1.257-3.215
		c-0.061-2.381-2.174-4.319-4.71-4.319h-45.394c-4.352,0-7.894-3.541-7.894-7.893c0-4.353,3.541-7.894,7.894-7.894h45.669
		c1.207,0,2.336-0.476,3.178-1.34c0.842-0.864,1.288-2.005,1.257-3.214c-0.061-2.381-2.174-4.319-4.71-4.319h-45.394
		c-4.352,0-7.894-3.541-7.894-7.894c0-4.353,3.541-7.894,7.894-7.894h45.669c1.207,0,2.336-0.476,3.178-1.34
		c0.842-0.864,1.288-2.005,1.257-3.214c-0.061-2.381-2.174-4.319-4.71-4.319h-45.394c-4.352,0-7.894-3.541-7.894-7.894
		c0-4.352,3.541-7.893,7.894-7.893h45.669c1.207,0,2.336-0.476,3.178-1.34c0.842-0.864,1.288-2.006,1.257-3.215
		c-0.061-2.381-2.174-4.319-4.71-4.319h-45.395c-4.352,0-7.894-3.541-7.894-7.894c0-4.353,3.541-7.894,7.894-7.894h45.669
		c1.207,0,2.336-0.476,3.178-1.34c0.842-0.864,1.288-2.005,1.257-3.214c-0.061-2.381-2.174-4.319-4.71-4.319h-45.395
		c-4.352,0-7.894-3.541-7.894-7.894c0-4.352,3.541-7.893,7.894-7.893h45.669c1.207,0,2.335-0.476,3.178-1.34
		c0.842-0.864,1.288-2.006,1.257-3.215c-0.061-2.381-2.174-4.319-4.71-4.319h-42.163c-6.134,0-11.125-4.991-11.125-11.125
		S159.085,15,165.219,15h11.526c0.829,0,1.5,0.671,1.5,1.5s-0.671,1.5-1.5,1.5h-11.526c-4.48,0-8.125,3.645-8.125,8.125
		s3.645,8.125,8.125,8.125h42.163c4.148,0,7.607,3.249,7.709,7.242c0.052,2.024-0.696,3.937-2.108,5.386
		c-1.412,1.449-3.304,2.247-5.326,2.247h-45.669c-2.698,0-4.894,2.195-4.894,4.893c0,2.699,2.195,4.894,4.894,4.894h45.395
		c4.148,0,7.607,3.249,7.709,7.242c0.052,2.024-0.696,3.937-2.108,5.385c-1.412,1.449-3.303,2.247-5.326,2.247h-45.669
		c-2.698,0-4.894,2.195-4.894,4.894c0,2.698,2.195,4.894,4.894,4.894h45.395c4.148,0,7.607,3.248,7.709,7.242
		c0.052,2.024-0.696,3.938-2.108,5.386c-1.412,1.449-3.303,2.247-5.326,2.247h-45.669c-2.698,0-4.894,2.195-4.894,4.893
		c0,2.699,2.195,4.894,4.894,4.894h45.394c4.148,0,7.607,3.248,7.709,7.242c0.052,2.024-0.696,3.937-2.108,5.385
		c-1.412,1.449-3.303,2.246-5.326,2.246h-45.669c-2.698,0-4.894,2.195-4.894,4.894s2.195,4.894,4.894,4.894h45.394
		c4.148,0,7.607,3.249,7.709,7.242c0.052,2.024-0.696,3.937-2.108,5.385c-1.412,1.449-3.303,2.247-5.326,2.247h-45.669
		c-2.698,0-4.894,2.195-4.894,4.894c0,2.698,2.195,4.893,4.894,4.893h45.394c4.148,0,7.607,3.249,7.709,7.242
		c0.052,2.024-0.696,3.938-2.108,5.386c-1.412,1.449-3.303,2.247-5.326,2.247h-45.669c-2.698,0-4.894,2.195-4.894,4.894
		c0,2.698,2.195,4.894,4.894,4.894h45.394c4.148,0,7.607,3.249,7.709,7.242c0.052,2.024-0.696,3.937-2.108,5.385
		c-1.412,1.449-3.303,2.247-5.326,2.247h-45.669c-2.698,0-4.894,2.195-4.894,4.894c0,2.698,2.195,4.893,4.894,4.893h45.394
		c4.148,0,7.607,3.249,7.709,7.242c0.052,2.024-0.696,3.937-2.108,5.385c-1.412,1.449-3.303,2.247-5.326,2.247h-42.438
		c-4.48,0-8.125,3.645-8.125,8.125s3.645,8.125,8.125,8.125h56.331c9.123,0,16.544-7.422,16.544-16.544V34.544
		c0-9.122-7.422-16.544-16.544-16.544h-30.44c-0.829,0-1.5-0.671-1.5-1.5s0.671-1.5,1.5-1.5h30.44
		c10.777,0,19.544,8.768,19.544,19.544v186.911C241.094,232.232,232.327,241,221.55,241z"/>
	<path fill="#D7E057" d="M47.317,97.137c0,0,3.408,12.659,13.222,13.246c0,0-13.1,4.525-13.321,14.202
		c0,0-2.579-13.572-12.925-14.059C34.292,110.526,46.343,108.7,47.317,97.137z"/>
	<path fill="#3A312A" d="M47.217,126.085c-0.713,0-1.335-0.506-1.472-1.217c-0.024-0.124-2.495-12.418-11.522-12.842
		c-0.771-0.037-1.388-0.651-1.428-1.421c-0.04-0.77,0.511-1.445,1.274-1.56c0.441-0.069,10.894-1.818,11.754-12.033
		c0.061-0.725,0.634-1.301,1.359-1.367c0.722-0.063,1.393,0.399,1.583,1.102c0.032,0.116,3.259,11.626,11.864,12.141
		c0.714,0.043,1.297,0.584,1.396,1.293c0.098,0.709-0.319,1.388-0.994,1.623c-0.121,0.042-12.118,4.31-12.313,12.819
		c-0.018,0.767-0.61,1.396-1.375,1.46C47.301,126.083,47.258,126.085,47.217,126.085z M39.476,110.355
		c3.878,1.969,6.23,5.746,7.587,8.876c2.026-4.021,5.942-6.787,8.949-8.427c-4.134-1.842-6.783-5.652-8.334-8.723
		C45.884,106.442,42.406,108.95,39.476,110.355z"/>
	<path fill="#D7E057" d="M25.618,114.117c0,0,2.411,8.954,9.352,9.369c0,0-9.266,3.201-9.422,10.045c0,0-1.824-9.6-9.142-9.944
		C16.406,123.588,24.93,122.296,25.618,114.117z"/>
	<path fill="#3A312A" d="M25.547,135.032c-0.714,0-1.337-0.507-1.473-1.22c-0.016-0.082-1.704-8.442-7.739-8.726
		c-0.77-0.037-1.388-0.651-1.428-1.421c-0.039-0.771,0.511-1.445,1.274-1.56c0.296-0.047,7.364-1.243,7.942-8.114
		c0.061-0.726,0.635-1.303,1.36-1.368c0.728-0.067,1.391,0.399,1.582,1.102l0,0c0.021,0.079,2.228,7.92,7.994,8.265
		c0.714,0.043,1.299,0.584,1.396,1.293c0.098,0.709-0.32,1.388-0.996,1.622c-0.081,0.028-8.282,2.952-8.412,8.661
		c-0.018,0.767-0.611,1.397-1.376,1.461C25.63,135.03,25.588,135.032,25.547,135.032z M21.028,123.504
		c2.107,1.332,3.523,3.394,4.447,5.28c1.377-2.232,3.516-3.872,5.365-4.973c-2.287-1.269-3.884-3.35-4.941-5.223
		C24.725,120.874,22.884,122.463,21.028,123.504z"/>
	<path fill="#D7E057" d="M25.618,87.46c0,0,2.411,8.954,9.352,9.37c0,0-9.266,3.201-9.422,10.045c0,0-1.824-9.6-9.142-9.944
		C16.406,96.93,24.93,95.639,25.618,87.46z"/>
	<path fill="#3A312A" d="M25.547,108.374c-0.713,0-1.337-0.507-1.472-1.22c-0.016-0.081-1.704-8.442-7.739-8.726
		c-0.77-0.037-1.388-0.651-1.428-1.421c-0.039-0.771,0.511-1.445,1.274-1.56c0.296-0.047,7.364-1.243,7.942-8.114
		c0.061-0.726,0.635-1.303,1.36-1.368c0.728-0.068,1.391,0.399,1.582,1.102l0,0c0.021,0.079,2.228,7.92,7.994,8.265
		c0.714,0.043,1.299,0.585,1.396,1.294c0.098,0.709-0.32,1.388-0.996,1.622c-0.081,0.028-8.282,2.952-8.412,8.662
		c-0.018,0.767-0.611,1.397-1.376,1.461C25.63,108.373,25.588,108.374,25.547,108.374z M21.028,96.847
		c2.107,1.332,3.523,3.394,4.447,5.28c1.377-2.232,3.516-3.872,5.365-4.972c-2.287-1.269-3.884-3.35-4.941-5.224
		C24.725,94.217,22.884,95.806,21.028,96.847z"/>
	<path fill="#FCE8CB" d="M79.243,73.433l42.232,136.015l22.037-39.364L77.447,17c-7.806,0-13.377,7.564-11.063,15.019l8.433,27.16
		L79.243,73.433z"/>
	<path fill="#3A312A" d="M121.476,210.949c-0.052,0-0.104-0.002-0.157-0.008c-0.596-0.063-1.098-0.474-1.276-1.047L77.811,73.878
		c-0.246-0.791,0.197-1.632,0.988-1.877c0.79-0.244,1.632,0.197,1.877,0.988l41.197,132.681l19.969-35.67L76.48,18.545
		c-2.856,0.267-5.424,1.712-7.152,4.058c-1.921,2.608-2.472,5.877-1.511,8.971l8.433,27.16c0.246,0.791-0.197,1.632-0.988,1.877
		c-0.79,0.246-1.632-0.197-1.877-0.988l-8.433-27.16c-1.246-4.014-0.531-8.256,1.961-11.64c2.492-3.383,6.331-5.324,10.534-5.324
		c0.599,0,1.14,0.356,1.377,0.906l66.065,153.085c0.185,0.429,0.16,0.919-0.068,1.327l-22.037,39.364
		C122.518,210.659,122.015,210.949,121.476,210.949z"/>
	<path fill="#FCE8CB" d="M131.217,17L65.152,170.085l22.036,39.364l55.091-177.43C144.594,24.564,139.023,17,131.217,17L131.217,17z
		"/>
	<path fill="#3A312A" d="M87.188,210.949c-0.539,0-1.041-0.29-1.309-0.767l-22.036-39.364c-0.228-0.408-0.253-0.898-0.068-1.327
		l66.064-153.085c0.237-0.55,0.779-0.906,1.377-0.906c4.203,0,8.043,1.94,10.535,5.324c2.492,3.384,3.206,7.626,1.96,11.639
		l-55.091,177.43c-0.178,0.573-0.68,0.984-1.276,1.047C87.292,210.946,87.24,210.949,87.188,210.949z M66.823,169.999l19.968,35.67
		l54.056-174.095c0.96-3.093,0.41-6.363-1.511-8.97c-1.728-2.346-4.296-3.792-7.152-4.059L66.823,169.999z"/>
	<path fill-rule="evenodd" clip-rule="evenodd" fill="#EB6E7A" d="M79.47,180.551c-14.125-16.92-39.86-17.207-54.36-0.607
		c-11.406,13.06-11.628,32.865-0.517,46.177c14.125,16.924,39.866,17.211,54.365,0.605C90.362,213.665,90.582,193.862,79.47,180.551
		z M60.907,191.96c7.469,5.931,7.345,17.184-0.254,22.947c-5.177,3.928-12.539,3.847-17.629-0.194
		c-7.471-5.931-7.347-17.185,0.253-22.949C48.456,187.837,55.819,187.919,60.907,191.96z"/>
	<path fill="#3A312A" d="M52.034,240.5c-0.139,0-0.276-0.001-0.415-0.002c-10.893-0.122-21.163-5.011-28.177-13.415
		c-11.559-13.849-11.327-34.538,0.54-48.125c7.2-8.244,17.537-12.9,28.467-12.78c10.891,0.122,21.16,5.01,28.174,13.412l0,0
		c11.56,13.847,11.331,34.536-0.534,48.124C72.98,235.854,62.774,240.499,52.034,240.5z M52.032,169.175
		c-9.873,0-19.254,4.271-25.792,11.756c-10.906,12.487-11.119,31.501-0.496,44.229c6.451,7.729,15.894,12.226,25.908,12.337
		c10.016,0.111,19.554-4.174,26.176-11.758c10.904-12.488,11.115-31.502,0.491-44.228l0,0c-6.451-7.728-15.893-12.224-25.905-12.335
		C52.287,169.176,52.159,169.175,52.032,169.175z M51.97,219.28c-3.518,0.001-7.033-1.132-9.878-3.391
		c-3.926-3.117-6.147-7.756-6.092-12.728c0.055-4.972,2.377-9.561,6.372-12.591c5.689-4.315,13.876-4.224,19.468,0.216h0
		c3.926,3.118,6.146,7.757,6.091,12.729c-0.055,4.971-2.377,9.559-6.37,12.589C58.766,218.223,55.367,219.28,51.97,219.28z
		 M51.962,190.383c-2.755,0-5.51,0.857-7.777,2.577c-3.251,2.465-5.141,6.195-5.185,10.234c-0.044,4.038,1.762,7.809,4.958,10.345
		c4.536,3.601,11.177,3.674,15.79,0.174c3.25-2.465,5.139-6.195,5.184-10.232c0.045-4.038-1.762-7.809-4.956-10.345c0,0,0,0-0.001,0
		C57.667,191.303,54.814,190.383,51.962,190.383z"/>
	<path fill-rule="evenodd" clip-rule="evenodd" fill="#3B322A" d="M110.669,111.836c0,3.5-2.837,6.338-6.337,6.338
		c-3.5,0-6.338-2.838-6.338-6.338c0-3.501,2.838-6.338,6.338-6.338C107.832,105.499,110.669,108.337,110.669,111.836z"/>
	<path fill-rule="evenodd" clip-rule="evenodd" fill="#EB6E7A" d="M184.068,180.551c-14.125-16.92-39.86-17.207-54.36-0.607
		c-11.406,13.06-11.628,32.865-0.518,46.177c14.125,16.924,39.866,17.211,54.365,0.605
		C194.96,213.665,195.18,193.862,184.068,180.551z M165.505,191.96c7.469,5.931,7.344,17.184-0.254,22.947
		c-5.177,3.928-12.539,3.847-17.629-0.194c-7.471-5.931-7.346-17.185,0.253-22.949C153.054,187.837,160.416,187.919,165.505,191.96z
		"/>
	<path fill="#3A312A" d="M156.631,240.5c-0.139,0-0.276-0.001-0.415-0.002c-10.893-0.122-21.163-5.011-28.177-13.415
		c-11.559-13.849-11.327-34.539,0.539-48.125c7.2-8.244,17.577-12.9,28.467-12.78c10.891,0.122,21.16,5.01,28.174,13.412l0,0
		c11.559,13.847,11.33,34.536-0.534,48.124C177.578,235.854,167.372,240.5,156.631,240.5z M156.63,169.175
		c-9.873,0-19.254,4.271-25.792,11.756c-10.905,12.486-11.119,31.501-0.496,44.229c6.451,7.729,15.893,12.226,25.907,12.337
		c10.026,0.126,19.555-4.174,26.176-11.758c10.903-12.488,11.114-31.502,0.491-44.228l0,0c-6.451-7.728-15.893-12.224-25.905-12.335
		C156.885,169.176,156.757,169.175,156.63,169.175z M156.568,219.28c-3.518,0-7.033-1.133-9.879-3.391
		c-3.926-3.117-6.147-7.756-6.092-12.728c0.055-4.972,2.377-9.561,6.372-12.591c5.689-4.315,13.878-4.224,19.468,0.216l0,0
		c3.926,3.118,6.146,7.757,6.091,12.729c-0.055,4.971-2.377,9.559-6.37,12.588C163.364,218.223,159.965,219.28,156.568,219.28z
		 M156.56,190.384c-2.755,0-5.51,0.856-7.777,2.576c-3.25,2.465-5.14,6.195-5.184,10.233c-0.044,4.038,1.763,7.809,4.958,10.346
		c4.535,3.6,11.177,3.674,15.79,0.174c3.249-2.465,5.139-6.194,5.184-10.232c0.045-4.038-1.762-7.809-4.956-10.346l0,0
		C162.266,191.303,159.413,190.384,156.56,190.384z"/>
	<path fill="#6CA8BF" d="M238.094,34.54v186.92c0,9.12-7.42,16.54-16.54,16.54h-15c9.12,0,16.54-7.42,16.54-16.54V34.54
		c0-9.12-7.42-16.54-16.54-16.54h15C230.674,18,238.094,25.42,238.094,34.54z"/>
</g>
</svg>
