<?xml version="1.0" encoding="utf-8"?>
<!-- Generator: Adobe Illustrator 24.0.0, SVG Export Plug-In . SVG Version: 6.00 Build 0)  -->
<svg version="1.1" id="Layer_1" xmlns="http://www.w3.org/2000/svg" xmlns:xlink="http://www.w3.org/1999/xlink" x="0px" y="0px"
	 viewBox="0 0 256 256" enable-background="new 0 0 256 256" xml:space="preserve">
<g>
	<path fill="#D6DF58" d="M47.531,26.174c0,0,3.394,12.663,13.207,13.261c0,0-13.105,4.51-13.337,14.187
		c0,0-2.563-13.575-12.909-14.074C34.491,39.549,46.544,37.737,47.531,26.174z"/>
	<path fill="#3A312A" d="M47.399,55.122c-0.713,0-1.336-0.507-1.473-1.219c-0.023-0.124-2.48-12.421-11.508-12.856
		c-0.771-0.037-1.387-0.652-1.426-1.422c-0.039-0.771,0.513-1.445,1.275-1.56c0.441-0.068,10.896-1.805,11.767-12.019
		c0.062-0.725,0.635-1.3,1.36-1.365c0.719-0.068,1.393,0.4,1.582,1.102c0.031,0.117,3.246,11.63,11.851,12.155
		c0.713,0.043,1.297,0.585,1.394,1.294c0.098,0.708-0.32,1.387-0.996,1.621C61.105,40.896,49.104,45.15,48.9,53.659
		c-0.019,0.767-0.612,1.395-1.376,1.458C47.482,55.12,47.44,55.122,47.399,55.122z M39.675,39.384
		c3.875,1.974,6.223,5.753,7.576,8.885c2.031-4.02,5.949-6.78,8.959-8.417c-4.132-1.847-6.777-5.659-8.324-8.732
		C46.088,35.478,42.606,37.982,39.675,39.384z"/>
	<path fill="#D6DF58" d="M25.813,43.13c0,0,2.4,8.957,9.341,9.38c0,0-9.27,3.19-9.434,10.035c0,0-1.813-9.602-9.131-9.955
		C16.589,52.59,25.115,51.308,25.813,43.13z"/>
	<path fill="#3A312A" d="M25.72,64.045c-0.715,0-1.338-0.508-1.473-1.222c-0.016-0.082-1.695-8.444-7.73-8.735
		c-0.77-0.037-1.387-0.652-1.426-1.422c-0.039-0.771,0.513-1.445,1.275-1.56c0.296-0.047,7.364-1.234,7.951-8.104
		c0.062-0.726,0.636-1.302,1.361-1.366c0.738-0.063,1.392,0.401,1.581,1.104l0,0c0.021,0.079,2.219,7.922,7.983,8.273
		c0.715,0.043,1.299,0.586,1.396,1.295c0.097,0.709-0.321,1.388-0.998,1.62c-0.081,0.028-8.284,2.943-8.421,8.653
		c-0.019,0.767-0.613,1.396-1.378,1.459C25.802,64.043,25.76,64.045,25.72,64.045z M21.212,52.512
		c2.105,1.335,3.519,3.398,4.441,5.285c1.378-2.232,3.519-3.868,5.369-4.967c-2.285-1.271-3.88-3.354-4.935-5.229
		C24.912,49.887,23.068,51.473,21.212,52.512z"/>
	<path fill="#D6DF58" d="M25.843,16.472c0,0,2.401,8.957,9.341,9.38c0,0-9.27,3.19-9.434,10.035c0,0-1.813-9.602-9.131-9.955
		C16.62,25.933,25.145,24.651,25.843,16.472z"/>
	<path fill="#3A312A" d="M25.75,37.388c-0.715,0-1.338-0.508-1.473-1.222c-0.016-0.082-1.695-8.444-7.729-8.735
		c-0.771-0.037-1.387-0.652-1.426-1.422c-0.039-0.771,0.513-1.445,1.275-1.56c0.296-0.047,7.364-1.234,7.951-8.104
		c0.062-0.726,0.636-1.302,1.361-1.366c0.724-0.066,1.392,0.401,1.581,1.104l0,0c0.021,0.079,2.219,7.922,7.984,8.273
		c0.715,0.043,1.299,0.586,1.396,1.295c0.097,0.709-0.321,1.388-0.998,1.62c-0.081,0.028-8.285,2.943-8.422,8.653
		c-0.019,0.767-0.613,1.396-1.378,1.459C25.832,37.386,25.79,37.388,25.75,37.388z M21.242,25.854
		c2.105,1.335,3.519,3.398,4.441,5.285c1.378-2.23,3.52-3.868,5.37-4.967c-2.285-1.271-3.881-3.354-4.935-5.229
		C24.942,23.229,23.099,24.815,21.242,25.854z"/>
	<path fill="#FCE8CB" d="M136.241,41.222L28.155,66.96c-7.817,1.862-12.646,9.709-10.785,17.526l25.333,106.385
		c1.861,7.817,9.707,12.637,17.524,10.776l167.997-40.005c7.817-1.861,12.648-9.7,10.787-17.517L213.678,37.74
		c-1.861-7.817-9.709-12.646-17.526-10.785l-45.888,10.927L136.241,41.222z"/>
	<path fill="#3A312A" d="M56.823,203.549c-2.933,0-5.816-0.809-8.377-2.383c-3.65-2.244-6.208-5.777-7.201-9.947L15.911,84.834
		c-2.051-8.61,3.286-17.283,11.896-19.333l108.086-25.738c0.813-0.196,1.615,0.307,1.807,1.111c0.192,0.806-0.306,1.615-1.111,1.807
		L28.503,68.419c-7.001,1.667-11.341,8.719-9.674,15.72l25.334,106.385c0.808,3.391,2.887,6.263,5.854,8.087
		c2.969,1.824,6.472,2.385,9.862,1.577l167.997-40.005c3.392-0.808,6.267-2.887,8.094-5.853c1.827-2.967,2.389-6.469,1.582-9.858
		L212.22,38.087c-1.667-7.001-8.719-11.341-15.72-9.673l-45.889,10.927c-0.813,0.198-1.615-0.307-1.807-1.111
		c-0.192-0.806,0.306-1.615,1.111-1.807l45.889-10.927c8.609-2.055,17.283,3.286,19.333,11.896l25.333,106.385
		c0.993,4.171,0.302,8.478-1.946,12.127c-2.247,3.648-5.781,6.204-9.952,7.197L60.575,203.105
		C59.33,203.402,58.072,203.549,56.823,203.549z"/>
	
		<rect x="21.736" y="79.661" transform="matrix(0.9728 -0.2317 0.2317 0.9728 -17.7383 30.8833)" fill="#EB6E7A" width="201.797" height="22.623"/>
	<path fill="#3A312A" d="M27.101,126.85c-0.679,0-1.294-0.463-1.458-1.152l-5.241-22.007c-0.093-0.387-0.027-0.795,0.182-1.134
		c0.208-0.339,0.543-0.581,0.93-0.673l196.309-46.747c0.388-0.092,0.795-0.026,1.134,0.182c0.339,0.208,0.581,0.543,0.673,0.93
		l5.24,22.008c0.192,0.806-0.306,1.615-1.111,1.807L27.449,126.809C27.332,126.837,27.215,126.85,27.101,126.85z M23.667,104.454
		l4.546,19.089l193.39-46.051l-4.545-19.09L23.667,104.454z"/>
	<path fill="#87796F" d="M16.971,172.529v52.457c0,8.036,6.515,14.542,14.551,14.542h172.695c8.036,0,14.551-6.506,14.551-14.542
		v-109.36c0-8.036-6.515-14.551-14.551-14.551H31.523c-8.036,0-14.551,6.516-14.551,14.551v44.959V172.529z"/>
	<path fill="#3A312A" d="M204.217,241.027H31.522c-8.851,0-16.051-7.196-16.051-16.042v-52.456c0-0.828,0.672-1.5,1.5-1.5
		s1.5,0.672,1.5,1.5v52.456c0,7.191,5.854,13.042,13.051,13.042h172.694c7.196,0,13.052-5.85,13.052-13.042V115.626
		c0-7.196-5.855-13.051-13.052-13.051H31.522c-7.196,0-13.051,5.854-13.051,13.051v44.959c0,0.828-0.672,1.5-1.5,1.5
		s-1.5-0.672-1.5-1.5v-44.959c0-8.851,7.2-16.051,16.051-16.051h172.694c8.851,0,16.052,7.2,16.052,16.051v109.359
		C220.269,233.831,213.067,241.027,204.217,241.027z"/>
	<path fill="#D7E057" d="M144.088,159.441c0-1.345,0.511-2.691,1.534-3.72c2.055-2.067,5.397-2.078,7.464-0.023
		c3.924,3.9,6.084,9.092,6.084,14.62c0,5.511-2.146,10.688-6.041,14.577c-2.063,2.059-5.404,2.057-7.464-0.005
		c-2.059-2.062-2.058-5.403,0.005-7.464c1.898-1.896,2.944-4.421,2.944-7.109c0-2.697-1.055-5.23-2.97-7.134
		C144.607,162.153,144.088,160.797,144.088,159.441z"/>
	<path fill="#3A312A" d="M149.399,187.939c-0.002,0-0.003,0-0.005,0c-1.811-0.001-3.512-0.707-4.791-1.988
		c-2.641-2.644-2.637-6.944,0.008-9.585c1.614-1.611,2.503-3.759,2.503-6.047c0-2.295-0.898-4.45-2.527-6.07
		c-1.289-1.281-1.999-2.988-1.999-4.807c0-1.804,0.7-3.5,1.971-4.778c1.275-1.284,2.976-1.994,4.786-1.999c0.007,0,0.014,0,0.021,0
		c1.803,0,3.499,0.699,4.778,1.971c4.209,4.185,6.526,9.754,6.526,15.684c0,5.911-2.302,11.466-6.481,15.639
		C152.909,187.235,151.208,187.939,149.399,187.939z M149.365,155.664c-0.004,0-0.008,0-0.012,0
		c-1.009,0.003-1.956,0.398-2.668,1.114c-0.708,0.712-1.098,1.658-1.098,2.663c0,1.014,0.395,1.965,1.114,2.68
		c2.2,2.187,3.412,5.098,3.412,8.197c0,3.09-1.201,5.991-3.384,8.17c-1.474,1.472-1.476,3.868-0.004,5.343
		c1.471,1.473,3.866,1.475,5.343,0.003c3.611-3.607,5.601-8.406,5.601-13.516c0-5.125-2.004-9.939-5.642-13.557
		C151.315,156.054,150.37,155.664,149.365,155.664z"/>
	<path fill="#D7E057" d="M167.994,136.478c0-1.35,0.514-2.699,1.543-3.729c2.059-2.062,5.401-2.064,7.464-0.005
		c10.049,10.035,15.583,23.379,15.583,37.575c0,14.177-5.521,27.508-15.545,37.537c-2.061,2.062-5.402,2.062-7.464,0.002
		c-2.062-2.061-2.063-5.403-0.002-7.464c8.032-8.036,12.455-18.717,12.455-30.076c0-11.374-4.434-22.065-12.486-30.106
		C168.51,139.181,167.994,137.829,167.994,136.478z"/>
	<path fill="#3A312A" d="M173.306,210.899c-1.734,0-3.47-0.66-4.791-1.981c-1.28-1.279-1.985-2.982-1.986-4.792
		c0-1.811,0.704-3.512,1.984-4.792c7.748-7.754,12.016-18.059,12.016-29.016c0-10.973-4.278-21.287-12.046-29.045
		c-1.283-1.28-1.989-2.983-1.989-4.796c0-1.808,0.704-3.509,1.982-4.789c2.641-2.645,6.941-2.646,9.584-0.007
		c10.334,10.318,16.024,24.04,16.024,38.637c0,14.577-5.677,28.285-15.984,38.598C176.778,210.238,175.042,210.899,173.306,210.899z
		 M173.271,132.702c-0.969,0-1.936,0.368-2.673,1.106c-0.713,0.714-1.105,1.661-1.105,2.669c0,1.01,0.394,1.959,1.108,2.673
		c8.336,8.325,12.927,19.393,12.927,31.168c0,11.758-4.579,22.815-12.894,31.137c-0.714,0.713-1.106,1.661-1.106,2.671
		c0,1.009,0.394,1.957,1.107,2.671c0.713,0.713,1.661,1.105,2.67,1.105c0.001,0,0.001,0,0.001,0c1.01,0,1.958-0.393,2.672-1.107
		c9.741-9.746,15.105-22.7,15.105-36.477c0-13.795-5.378-26.763-15.144-36.514C175.204,133.069,174.237,132.702,173.271,132.702z"/>
	<path fill="#D7E057" d="M156.179,148.292c0-1.348,0.513-2.696,1.54-3.726c2.058-2.064,5.4-2.069,7.464-0.011
		c6.898,6.876,10.697,16.026,10.697,25.763c0,9.717-3.785,18.853-10.657,25.724c-2.061,2.061-5.403,2.061-7.464-0.001
		c-2.062-2.061-2.06-5.403,0.001-7.464c4.878-4.877,7.564-11.362,7.564-18.26c0-6.912-2.697-13.407-7.593-18.288
		C156.697,150.999,156.179,149.646,156.179,148.292z"/>
	<path fill="#3A312A" d="M161.491,199.084c-1.736,0-3.472-0.661-4.793-1.982c-1.28-1.279-1.985-2.981-1.985-4.792
		c0.001-1.811,0.706-3.513,1.986-4.793c4.595-4.594,7.125-10.701,7.125-17.198c0-6.511-2.54-12.629-7.151-17.226
		c-1.285-1.281-1.993-2.986-1.993-4.8c0-1.807,0.702-3.507,1.977-4.786c1.278-1.281,2.979-1.989,4.789-1.992
		c0.004,0,0.008,0,0.011,0c1.807,0,3.506,0.702,4.785,1.978c7.182,7.16,11.138,16.688,11.138,26.826
		c0,10.117-3.94,19.63-11.097,26.784C164.962,198.423,163.227,199.084,161.491,199.084z M161.457,144.515c-0.002,0-0.004,0-0.006,0
		c-1.009,0.002-1.957,0.396-2.669,1.11c-0.711,0.713-1.102,1.661-1.102,2.668c0,1.011,0.395,1.961,1.111,2.675
		c5.18,5.164,8.033,12.036,8.033,19.351c0,7.298-2.843,14.159-8.004,19.319c-0.714,0.714-1.107,1.663-1.107,2.672
		s0.393,1.957,1.106,2.671c1.473,1.473,3.87,1.472,5.343,0.001c6.589-6.588,10.218-15.347,10.218-24.663
		c0-9.336-3.643-18.108-10.256-24.701C163.41,144.906,162.464,144.515,161.457,144.515z"/>
	<path fill="#EB6E7A" d="M76.265,166.002H54.389c-5.204,0-9.423-4.219-9.423-9.423v-21.876c0-5.204,4.219-9.423,9.423-9.423h21.876
		c5.204,0,9.423,4.219,9.423,9.423v21.876C85.688,161.783,81.469,166.002,76.265,166.002z"/>
	<path fill="#3A312A" d="M76.265,167.502H54.389c-6.022,0-10.923-4.9-10.923-10.923v-21.876c0-6.022,4.9-10.923,10.923-10.923
		h21.876c6.022,0,10.923,4.9,10.923,10.923v21.876C87.188,162.602,82.287,167.502,76.265,167.502z M54.389,126.78
		c-4.369,0-7.923,3.554-7.923,7.923v21.876c0,4.369,3.554,7.923,7.923,7.923h21.876c4.369,0,7.923-3.554,7.923-7.923v-21.876
		c0-4.369-3.554-7.923-7.923-7.923H54.389z"/>
	<path fill="#3A312A" d="M110.156,197.822h-67c-0.828,0-1.5-0.672-1.5-1.5c0-0.828,0.672-1.5,1.5-1.5h67c0.828,0,1.5,0.672,1.5,1.5
		C111.656,197.15,110.984,197.822,110.156,197.822z"/>
	<path fill="#3A312A" d="M110.156,216.822h-67c-0.828,0-1.5-0.672-1.5-1.5c0-0.828,0.672-1.5,1.5-1.5h67c0.828,0,1.5,0.672,1.5,1.5
		C111.656,216.15,110.984,216.822,110.156,216.822z"/>
	<path fill="#6A5C52" d="M204.221,102.58h-15c7.19,0,13.05,5.85,13.05,13.05v109.36c0,7.19-5.86,13.04-13.05,13.04h15
		c7.19,0,13.05-5.85,13.05-13.04V115.63C217.271,108.43,211.411,102.58,204.221,102.58z"/>
</g>
</svg>
