<?xml version="1.0" encoding="utf-8"?>
<!-- Generator: Adobe Illustrator 24.0.0, SVG Export Plug-In . SVG Version: 6.00 Build 0)  -->
<svg version="1.1" id="Layer_1" xmlns="http://www.w3.org/2000/svg" xmlns:xlink="http://www.w3.org/1999/xlink" x="0px" y="0px"
	 viewBox="0 0 256 256" enable-background="new 0 0 256 256" xml:space="preserve">
<g>
	<path fill="#D7E057" d="M75.727,26.489c0,0,3.408,12.659,13.222,13.246c0,0-13.1,4.525-13.321,14.202
		c0,0-2.578-13.572-12.925-14.059C62.703,39.878,74.754,38.052,75.727,26.489z"/>
	<path fill="#3A312A" d="M75.627,55.436c-0.713,0-1.335-0.506-1.473-1.217c-0.023-0.124-2.494-12.417-11.521-12.842
		c-0.771-0.037-1.388-0.651-1.428-1.421c-0.04-0.771,0.511-1.445,1.273-1.561c0.441-0.069,10.895-1.817,11.754-12.033
		c0.062-0.725,0.635-1.301,1.359-1.367c0.735-0.058,1.395,0.399,1.584,1.102c0.031,0.116,3.259,11.626,11.863,12.141
		c0.714,0.043,1.298,0.584,1.396,1.292c0.098,0.708-0.318,1.388-0.994,1.623c-0.121,0.042-12.119,4.311-12.313,12.819
		c-0.018,0.767-0.61,1.396-1.375,1.459C75.711,55.435,75.669,55.436,75.627,55.436z M67.887,39.707
		c3.878,1.969,6.229,5.746,7.586,8.876c2.026-4.021,5.941-6.787,8.949-8.427c-4.134-1.842-6.783-5.651-8.334-8.722
		C74.295,35.794,70.817,38.302,67.887,39.707z"/>
	<path fill="#D7E057" d="M54.029,43.469c0,0,2.411,8.954,9.352,9.369c0,0-9.266,3.201-9.422,10.045c0,0-1.824-9.6-9.142-9.944
		C44.816,52.939,53.34,51.648,54.029,43.469z"/>
	<path fill="#3A312A" d="M53.957,64.384c-0.714,0-1.337-0.507-1.473-1.22c-0.016-0.082-1.703-8.442-7.738-8.726
		c-0.771-0.037-1.388-0.651-1.428-1.421c-0.04-0.771,0.511-1.445,1.273-1.561c0.296-0.047,7.363-1.243,7.941-8.113
		c0.062-0.726,0.636-1.303,1.361-1.368c0.725-0.06,1.392,0.399,1.581,1.102l0,0c0.022,0.079,2.229,7.919,7.995,8.264
		c0.714,0.043,1.299,0.584,1.397,1.293c0.097,0.709-0.32,1.388-0.997,1.622c-0.08,0.028-8.282,2.952-8.412,8.662
		c-0.018,0.767-0.611,1.397-1.377,1.461C54.04,64.382,53.998,64.384,53.957,64.384z M49.438,52.856
		c2.107,1.333,3.523,3.394,4.447,5.28c1.376-2.232,3.515-3.872,5.364-4.972c-2.287-1.269-3.884-3.35-4.941-5.224
		C53.136,50.227,51.294,51.815,49.438,52.856z"/>
	<path fill="#D7E057" d="M54.029,16.811c0,0,2.411,8.954,9.352,9.37c0,0-9.266,3.201-9.422,10.045c0,0-1.824-9.6-9.142-9.944
		C44.816,26.282,53.34,24.991,54.029,16.811z"/>
	<path fill="#3A312A" d="M53.957,37.727c-0.714,0-1.337-0.507-1.473-1.22c-0.016-0.082-1.703-8.442-7.738-8.726
		c-0.771-0.037-1.388-0.651-1.428-1.421c-0.04-0.771,0.511-1.445,1.273-1.561c0.296-0.047,7.363-1.243,7.941-8.114
		c0.062-0.725,0.636-1.303,1.361-1.368c0.725-0.059,1.392,0.399,1.581,1.101l0,0c0.022,0.079,2.229,7.92,7.995,8.265
		c0.714,0.043,1.299,0.585,1.397,1.294c0.097,0.709-0.32,1.388-0.997,1.622c-0.08,0.028-8.282,2.952-8.412,8.662
		c-0.018,0.767-0.611,1.397-1.377,1.461C54.04,37.725,53.998,37.727,53.957,37.727z M49.438,26.199
		c2.107,1.333,3.523,3.394,4.447,5.28c1.376-2.232,3.515-3.872,5.364-4.972c-2.286-1.27-3.884-3.35-4.941-5.224
		C53.136,23.569,51.294,25.158,49.438,26.199z"/>
	<path fill="#EF6D7A" d="M137.694,188.774v37.655c0,7.047,5.713,12.76,12.76,12.76h11.96c7.047,0,12.76-5.713,12.76-12.76v-86.715
		h-37.48v34.216V188.774z"/>
	<path fill="#3A312A" d="M162.414,240.689h-11.96c-7.863,0-14.261-6.397-14.261-14.26v-37.655c0-0.829,0.672-1.5,1.5-1.5
		c0.828,0,1.5,0.671,1.5,1.5v37.655c0,6.209,5.052,11.26,11.261,11.26h11.96c6.209,0,11.26-5.051,11.26-11.26v-85.215h-34.48v32.716
		c0,0.829-0.672,1.5-1.5,1.5c-0.828,0-1.5-0.671-1.5-1.5v-34.216c0-0.829,0.672-1.5,1.5-1.5h37.48c0.828,0,1.5,0.671,1.5,1.5v86.715
		C176.674,234.292,170.277,240.689,162.414,240.689z"/>
	<path fill="#87796F" d="M137.694,214.685v11.743c0,7.047,5.713,12.76,12.76,12.76h11.96c7.047,0,12.76-5.713,12.76-12.76v-11.743
		H137.694z"/>
	<path fill="#3A312A" d="M162.414,240.689h-11.96c-7.863,0-14.261-6.397-14.261-14.26v-11.744c0-0.829,0.672-1.5,1.5-1.5h37.48
		c0.828,0,1.5,0.671,1.5,1.5v11.744C176.674,234.292,170.277,240.689,162.414,240.689z M139.193,216.185v10.244
		c0,6.209,5.052,11.26,11.261,11.26h11.96c6.209,0,11.26-5.051,11.26-11.26v-10.244H139.193z"/>
	<path fill="#3A312A" d="M211.184,32.472h-109.5c-0.828,0-1.5-0.671-1.5-1.5s0.672-1.5,1.5-1.5h109.5c0.828,0,1.5,0.671,1.5,1.5
		S212.012,32.472,211.184,32.472z"/>
	<path fill="#3A312A" d="M205.672,42.002h-98.477c-0.828,0-1.5-0.671-1.5-1.5c0-0.829,0.672-1.5,1.5-1.5h98.477
		c0.828,0,1.5,0.671,1.5,1.5C207.172,41.331,206.5,42.002,205.672,42.002z"/>
	<path fill="#3A312A" d="M211.184,51.533h-109.5c-0.828,0-1.5-0.671-1.5-1.5c0-0.829,0.672-1.5,1.5-1.5h109.5
		c0.828,0,1.5,0.671,1.5,1.5C212.684,50.862,212.012,51.533,211.184,51.533z"/>
	<path fill="#3A312A" d="M205.672,61.064h-98.477c-0.828,0-1.5-0.671-1.5-1.5c0-0.829,0.672-1.5,1.5-1.5h98.477
		c0.828,0,1.5,0.671,1.5,1.5C207.172,60.393,206.5,61.064,205.672,61.064z"/>
	<path fill="#3A312A" d="M211.184,70.595h-109.5c-0.828,0-1.5-0.671-1.5-1.5c0-0.829,0.672-1.5,1.5-1.5h109.5
		c0.828,0,1.5,0.671,1.5,1.5C212.684,69.923,212.012,70.595,211.184,70.595z"/>
	<path fill="#3A312A" d="M205.672,80.126h-98.477c-0.828,0-1.5-0.671-1.5-1.5c0-0.829,0.672-1.5,1.5-1.5h98.477
		c0.828,0,1.5,0.671,1.5,1.5C207.172,79.454,206.5,80.126,205.672,80.126z"/>
	<path fill="#3A312A" d="M211.184,89.656h-109.5c-0.828,0-1.5-0.671-1.5-1.5c0-0.829,0.672-1.5,1.5-1.5h109.5
		c0.828,0,1.5,0.671,1.5,1.5C212.684,88.985,212.012,89.656,211.184,89.656z"/>
	<path fill="#3A312A" d="M205.672,99.187h-98.477c-0.828,0-1.5-0.671-1.5-1.5c0-0.829,0.672-1.5,1.5-1.5h98.477
		c0.828,0,1.5,0.671,1.5,1.5C207.172,98.516,206.5,99.187,205.672,99.187z"/>
	<path fill="#3A312A" d="M211.184,108.718h-109.5c-0.828,0-1.5-0.671-1.5-1.5c0-0.829,0.672-1.5,1.5-1.5h109.5
		c0.828,0,1.5,0.671,1.5,1.5C212.684,108.046,212.012,108.718,211.184,108.718z"/>
	<path fill="#3A312A" d="M205.672,118.248h-98.477c-0.828,0-1.5-0.671-1.5-1.5c0-0.829,0.672-1.5,1.5-1.5h98.477
		c0.828,0,1.5,0.671,1.5,1.5C207.172,117.577,206.5,118.248,205.672,118.248z"/>
	<path fill="#3A312A" d="M211.184,127.779h-109.5c-0.828,0-1.5-0.671-1.5-1.5c0-0.829,0.672-1.5,1.5-1.5h109.5
		c0.828,0,1.5,0.671,1.5,1.5C212.684,127.108,212.012,127.779,211.184,127.779z"/>
	<path fill="#8AC3DA" d="M144.005,17.537h-15.735c-7.047,0-12.76,5.713-12.76,12.76v96.657c0,7.047,5.713,12.76,12.76,12.76h56.329
		c7.047,0,12.76-5.713,12.76-12.76V30.297c0-7.047-5.713-12.76-12.76-12.76h-26.235H144.005z"/>
	<path fill="#3A312A" d="M184.599,141.214H128.27c-7.863,0-14.261-6.397-14.261-14.26V30.297c0-7.863,6.398-14.26,14.261-14.26
		h15.735c0.828,0,1.5,0.671,1.5,1.5s-0.672,1.5-1.5,1.5H128.27c-6.209,0-11.261,5.051-11.261,11.26v96.657
		c0,6.208,5.052,11.26,11.261,11.26h56.329c6.209,0,11.26-5.051,11.26-11.26V30.297c0-6.208-5.051-11.26-11.26-11.26h-26.235
		c-0.828,0-1.5-0.671-1.5-1.5s0.672-1.5,1.5-1.5h26.235c7.863,0,14.26,6.397,14.26,14.26v96.657
		C198.858,134.817,192.462,141.214,184.599,141.214z"/>
	<path fill="#3A312A" d="M124.965,32.472h-0.063c-0.828,0-1.5-0.671-1.5-1.5s0.672-1.5,1.5-1.5c0.828,0,1.531,0.671,1.531,1.5
		S125.793,32.472,124.965,32.472z"/>
	<path fill="#3A312A" d="M124.965,42.002h-0.063c-0.828,0-1.5-0.671-1.5-1.5c0-0.829,0.672-1.5,1.5-1.5
		c0.828,0,1.531,0.671,1.531,1.5C126.434,41.331,125.793,42.002,124.965,42.002z"/>
	<path fill="#3A312A" d="M124.965,51.533h-0.063c-0.828,0-1.5-0.671-1.5-1.5c0-0.829,0.672-1.5,1.5-1.5
		c0.828,0,1.531,0.671,1.531,1.5C126.434,50.862,125.793,51.533,124.965,51.533z"/>
	<path fill="#3A312A" d="M124.965,61.064h-0.063c-0.828,0-1.5-0.671-1.5-1.5c0-0.829,0.672-1.5,1.5-1.5
		c0.828,0,1.531,0.671,1.531,1.5C126.434,60.393,125.793,61.064,124.965,61.064z"/>
	<path fill="#3A312A" d="M124.965,70.595h-0.063c-0.828,0-1.5-0.671-1.5-1.5c0-0.829,0.672-1.5,1.5-1.5
		c0.828,0,1.531,0.671,1.531,1.5C126.434,69.923,125.793,70.595,124.965,70.595z"/>
	<path fill="#3A312A" d="M124.965,80.126h-0.063c-0.828,0-1.5-0.671-1.5-1.5c0-0.829,0.672-1.5,1.5-1.5
		c0.828,0,1.531,0.671,1.531,1.5C126.434,79.454,125.793,80.126,124.965,80.126z"/>
	<path fill="#3A312A" d="M124.951,89.743c-0.707,0-1.361-0.569-1.514-1.264c-0.178-0.809,0.333-1.609,1.143-1.787
		c0.12-0.027,0.237-0.037,0.358-0.035c0.058,0,0.117,0.002,0.176,0.007c0.824,0.083,1.426,0.817,1.343,1.642
		c-0.073,0.733-0.693,1.392-1.429,1.435C125.002,89.742,124.977,89.743,124.951,89.743z"/>
	<path fill="#3A312A" d="M124.965,99.187h-0.063c-0.828,0-1.5-0.671-1.5-1.5c0-0.829,0.672-1.5,1.5-1.5
		c0.828,0,1.531,0.671,1.531,1.5C126.434,98.516,125.793,99.187,124.965,99.187z"/>
	<path fill="#3A312A" d="M124.965,108.718h-0.063c-0.828,0-1.5-0.671-1.5-1.5c0-0.829,0.672-1.5,1.5-1.5
		c0.828,0,1.531,0.671,1.531,1.5C126.434,108.046,125.793,108.718,124.965,108.718z"/>
	<path fill="#3A312A" d="M124.965,118.248h-0.063c-0.828,0-1.5-0.671-1.5-1.5c0-0.829,0.672-1.5,1.5-1.5
		c0.828,0,1.531,0.671,1.531,1.5C126.434,117.577,125.793,118.248,124.965,118.248z"/>
	<path fill="#3A312A" d="M124.965,127.779h-0.063c-0.828,0-1.5-0.671-1.5-1.5c0-0.829,0.672-1.5,1.5-1.5
		c0.828,0,1.531,0.671,1.531,1.5C126.434,127.108,125.793,127.779,124.965,127.779z"/>
	<path fill="#3A312A" d="M133.965,32.472h-0.063c-0.828,0-1.5-0.671-1.5-1.5s0.672-1.5,1.5-1.5c0.828,0,1.531,0.671,1.531,1.5
		S134.793,32.472,133.965,32.472z"/>
	<path fill="#3A312A" d="M133.965,42.002h-0.063c-0.828,0-1.5-0.671-1.5-1.5c0-0.829,0.672-1.5,1.5-1.5
		c0.828,0,1.531,0.671,1.531,1.5C135.434,41.331,134.793,42.002,133.965,42.002z"/>
	<path fill="#3A312A" d="M133.965,51.533h-0.063c-0.828,0-1.5-0.671-1.5-1.5c0-0.829,0.672-1.5,1.5-1.5
		c0.828,0,1.531,0.671,1.531,1.5C135.434,50.862,134.793,51.533,133.965,51.533z"/>
	<path fill="#3A312A" d="M133.965,61.064h-0.063c-0.828,0-1.5-0.671-1.5-1.5c0-0.829,0.672-1.5,1.5-1.5
		c0.828,0,1.531,0.671,1.531,1.5C135.434,60.393,134.793,61.064,133.965,61.064z"/>
	<path fill="#3A312A" d="M133.965,70.595h-0.063c-0.828,0-1.5-0.671-1.5-1.5c0-0.829,0.672-1.5,1.5-1.5
		c0.828,0,1.531,0.671,1.531,1.5C135.434,69.923,134.793,70.595,133.965,70.595z"/>
	<path fill="#3A312A" d="M133.965,80.126h-0.063c-0.828,0-1.5-0.671-1.5-1.5c0-0.829,0.672-1.5,1.5-1.5
		c0.828,0,1.531,0.671,1.531,1.5C135.434,79.454,134.793,80.126,133.965,80.126z"/>
	<path fill="#3A312A" d="M133.951,89.743c-0.707,0-1.361-0.569-1.514-1.264c-0.178-0.809,0.333-1.609,1.143-1.787
		c0.12-0.027,0.237-0.037,0.358-0.035c0.058,0,0.117,0.002,0.176,0.007c0.824,0.083,1.426,0.817,1.343,1.642
		c-0.073,0.733-0.693,1.392-1.429,1.435C134.002,89.742,133.977,89.743,133.951,89.743z"/>
	<path fill="#3A312A" d="M133.965,99.187h-0.063c-0.828,0-1.5-0.671-1.5-1.5c0-0.829,0.672-1.5,1.5-1.5
		c0.828,0,1.531,0.671,1.531,1.5C135.434,98.516,134.793,99.187,133.965,99.187z"/>
	<path fill="#3A312A" d="M133.965,108.718h-0.063c-0.828,0-1.5-0.671-1.5-1.5c0-0.829,0.672-1.5,1.5-1.5
		c0.828,0,1.531,0.671,1.531,1.5C135.434,108.046,134.793,108.718,133.965,108.718z"/>
	<path fill="#3A312A" d="M133.965,118.248h-0.063c-0.828,0-1.5-0.671-1.5-1.5c0-0.829,0.672-1.5,1.5-1.5
		c0.828,0,1.531,0.671,1.531,1.5C135.434,117.577,134.793,118.248,133.965,118.248z"/>
	<path fill="#3A312A" d="M133.965,127.779h-0.063c-0.828,0-1.5-0.671-1.5-1.5c0-0.829,0.672-1.5,1.5-1.5
		c0.828,0,1.531,0.671,1.531,1.5C135.434,127.108,134.793,127.779,133.965,127.779z"/>
	<path fill="#3A312A" d="M142.965,32.472h-0.063c-0.828,0-1.5-0.671-1.5-1.5s0.672-1.5,1.5-1.5c0.828,0,1.531,0.671,1.531,1.5
		S143.793,32.472,142.965,32.472z"/>
	<path fill="#3A312A" d="M142.965,42.002h-0.063c-0.828,0-1.5-0.671-1.5-1.5c0-0.829,0.672-1.5,1.5-1.5
		c0.828,0,1.531,0.671,1.531,1.5C144.434,41.331,143.793,42.002,142.965,42.002z"/>
	<path fill="#3A312A" d="M142.965,51.533h-0.063c-0.828,0-1.5-0.671-1.5-1.5c0-0.829,0.672-1.5,1.5-1.5
		c0.828,0,1.531,0.671,1.531,1.5C144.434,50.862,143.793,51.533,142.965,51.533z"/>
	<path fill="#3A312A" d="M142.965,61.064h-0.063c-0.828,0-1.5-0.671-1.5-1.5c0-0.829,0.672-1.5,1.5-1.5
		c0.828,0,1.531,0.671,1.531,1.5C144.434,60.393,143.793,61.064,142.965,61.064z"/>
	<path fill="#3A312A" d="M142.965,70.595h-0.063c-0.828,0-1.5-0.671-1.5-1.5c0-0.829,0.672-1.5,1.5-1.5
		c0.828,0,1.531,0.671,1.531,1.5C144.434,69.923,143.793,70.595,142.965,70.595z"/>
	<path fill="#3A312A" d="M142.965,80.126h-0.063c-0.828,0-1.5-0.671-1.5-1.5c0-0.829,0.672-1.5,1.5-1.5
		c0.828,0,1.531,0.671,1.531,1.5C144.434,79.454,143.793,80.126,142.965,80.126z"/>
	<path fill="#3A312A" d="M142.951,89.743c-0.707,0-1.361-0.569-1.514-1.264c-0.178-0.809,0.333-1.609,1.143-1.787
		c0.12-0.027,0.238-0.037,0.358-0.035c0.059,0,0.117,0.002,0.176,0.007c0.824,0.083,1.426,0.817,1.343,1.642
		c-0.073,0.733-0.693,1.392-1.429,1.435C143.002,89.742,142.977,89.743,142.951,89.743z"/>
	<path fill="#3A312A" d="M142.965,99.187h-0.063c-0.828,0-1.5-0.671-1.5-1.5c0-0.829,0.672-1.5,1.5-1.5
		c0.828,0,1.531,0.671,1.531,1.5C144.434,98.516,143.793,99.187,142.965,99.187z"/>
	<path fill="#3A312A" d="M142.965,108.718h-0.063c-0.828,0-1.5-0.671-1.5-1.5c0-0.829,0.672-1.5,1.5-1.5
		c0.828,0,1.531,0.671,1.531,1.5C144.434,108.046,143.793,108.718,142.965,108.718z"/>
	<path fill="#3A312A" d="M142.965,118.248h-0.063c-0.828,0-1.5-0.671-1.5-1.5c0-0.829,0.672-1.5,1.5-1.5
		c0.828,0,1.531,0.671,1.531,1.5C144.434,117.577,143.793,118.248,142.965,118.248z"/>
	<path fill="#3A312A" d="M142.965,127.779h-0.063c-0.828,0-1.5-0.671-1.5-1.5c0-0.829,0.672-1.5,1.5-1.5
		c0.828,0,1.531,0.671,1.531,1.5C144.434,127.108,143.793,127.779,142.965,127.779z"/>
	<path fill="#3A312A" d="M151.965,32.472h-0.063c-0.828,0-1.5-0.671-1.5-1.5s0.672-1.5,1.5-1.5c0.828,0,1.531,0.671,1.531,1.5
		S152.793,32.472,151.965,32.472z"/>
	<path fill="#3A312A" d="M151.965,42.002h-0.063c-0.828,0-1.5-0.671-1.5-1.5c0-0.829,0.672-1.5,1.5-1.5
		c0.828,0,1.531,0.671,1.531,1.5C153.434,41.331,152.793,42.002,151.965,42.002z"/>
	<path fill="#3A312A" d="M151.965,51.533h-0.063c-0.828,0-1.5-0.671-1.5-1.5c0-0.829,0.672-1.5,1.5-1.5
		c0.828,0,1.531,0.671,1.531,1.5C153.434,50.862,152.793,51.533,151.965,51.533z"/>
	<path fill="#3A312A" d="M151.965,61.064h-0.063c-0.828,0-1.5-0.671-1.5-1.5c0-0.829,0.672-1.5,1.5-1.5
		c0.828,0,1.531,0.671,1.531,1.5C153.434,60.393,152.793,61.064,151.965,61.064z"/>
	<path fill="#3A312A" d="M151.965,70.595h-0.063c-0.828,0-1.5-0.671-1.5-1.5c0-0.829,0.672-1.5,1.5-1.5
		c0.828,0,1.531,0.671,1.531,1.5C153.434,69.923,152.793,70.595,151.965,70.595z"/>
	<path fill="#3A312A" d="M151.965,80.126h-0.063c-0.828,0-1.5-0.671-1.5-1.5c0-0.829,0.672-1.5,1.5-1.5
		c0.828,0,1.531,0.671,1.531,1.5C153.434,79.454,152.793,80.126,151.965,80.126z"/>
	<path fill="#3A312A" d="M151.951,89.743c-0.707,0-1.361-0.569-1.514-1.264c-0.178-0.809,0.333-1.609,1.143-1.787
		c0.12-0.027,0.238-0.037,0.358-0.035c0.059,0,0.117,0.002,0.176,0.007c0.824,0.083,1.426,0.817,1.343,1.642
		c-0.073,0.733-0.693,1.392-1.429,1.435C152.002,89.742,151.977,89.743,151.951,89.743z"/>
	<path fill="#3A312A" d="M151.965,99.187h-0.063c-0.828,0-1.5-0.671-1.5-1.5c0-0.829,0.672-1.5,1.5-1.5
		c0.828,0,1.531,0.671,1.531,1.5C153.434,98.516,152.793,99.187,151.965,99.187z"/>
	<path fill="#3A312A" d="M151.965,108.718h-0.063c-0.828,0-1.5-0.671-1.5-1.5c0-0.829,0.672-1.5,1.5-1.5
		c0.828,0,1.531,0.671,1.531,1.5C153.434,108.046,152.793,108.718,151.965,108.718z"/>
	<path fill="#3A312A" d="M151.965,118.248h-0.063c-0.828,0-1.5-0.671-1.5-1.5c0-0.829,0.672-1.5,1.5-1.5
		c0.828,0,1.531,0.671,1.531,1.5C153.434,117.577,152.793,118.248,151.965,118.248z"/>
	<path fill="#3A312A" d="M151.965,127.779h-0.063c-0.828,0-1.5-0.671-1.5-1.5c0-0.829,0.672-1.5,1.5-1.5
		c0.828,0,1.531,0.671,1.531,1.5C153.434,127.108,152.793,127.779,151.965,127.779z"/>
	<path fill="#3A312A" d="M160.965,32.472h-0.063c-0.828,0-1.5-0.671-1.5-1.5s0.672-1.5,1.5-1.5c0.828,0,1.531,0.671,1.531,1.5
		S161.793,32.472,160.965,32.472z"/>
	<path fill="#3A312A" d="M160.965,42.002h-0.063c-0.828,0-1.5-0.671-1.5-1.5c0-0.829,0.672-1.5,1.5-1.5
		c0.828,0,1.531,0.671,1.531,1.5C162.434,41.331,161.793,42.002,160.965,42.002z"/>
	<path fill="#3A312A" d="M160.965,51.533h-0.063c-0.828,0-1.5-0.671-1.5-1.5c0-0.829,0.672-1.5,1.5-1.5
		c0.828,0,1.531,0.671,1.531,1.5C162.434,50.862,161.793,51.533,160.965,51.533z"/>
	<path fill="#3A312A" d="M160.965,61.064h-0.063c-0.828,0-1.5-0.671-1.5-1.5c0-0.829,0.672-1.5,1.5-1.5
		c0.828,0,1.531,0.671,1.531,1.5C162.434,60.393,161.793,61.064,160.965,61.064z"/>
	<path fill="#3A312A" d="M160.965,70.595h-0.063c-0.828,0-1.5-0.671-1.5-1.5c0-0.829,0.672-1.5,1.5-1.5
		c0.828,0,1.531,0.671,1.531,1.5C162.434,69.923,161.793,70.595,160.965,70.595z"/>
	<path fill="#3A312A" d="M160.965,80.126h-0.063c-0.828,0-1.5-0.671-1.5-1.5c0-0.829,0.672-1.5,1.5-1.5
		c0.828,0,1.531,0.671,1.531,1.5C162.434,79.454,161.793,80.126,160.965,80.126z"/>
	<path fill="#3A312A" d="M160.951,89.743c-0.707,0-1.361-0.569-1.514-1.264c-0.178-0.809,0.333-1.609,1.143-1.787
		c0.12-0.027,0.238-0.037,0.358-0.035c0.058,0,0.117,0.002,0.176,0.007c0.824,0.083,1.426,0.817,1.343,1.642
		c-0.073,0.733-0.693,1.392-1.429,1.435C161.002,89.742,160.977,89.743,160.951,89.743z"/>
	<path fill="#3A312A" d="M160.965,99.187h-0.063c-0.828,0-1.5-0.671-1.5-1.5c0-0.829,0.672-1.5,1.5-1.5
		c0.828,0,1.531,0.671,1.531,1.5C162.434,98.516,161.793,99.187,160.965,99.187z"/>
	<path fill="#3A312A" d="M160.965,108.718h-0.063c-0.828,0-1.5-0.671-1.5-1.5c0-0.829,0.672-1.5,1.5-1.5
		c0.828,0,1.531,0.671,1.531,1.5C162.434,108.046,161.793,108.718,160.965,108.718z"/>
	<path fill="#3A312A" d="M160.965,118.248h-0.063c-0.828,0-1.5-0.671-1.5-1.5c0-0.829,0.672-1.5,1.5-1.5
		c0.828,0,1.531,0.671,1.531,1.5C162.434,117.577,161.793,118.248,160.965,118.248z"/>
	<path fill="#3A312A" d="M160.965,127.779h-0.063c-0.828,0-1.5-0.671-1.5-1.5c0-0.829,0.672-1.5,1.5-1.5
		c0.828,0,1.531,0.671,1.531,1.5C162.434,127.108,161.793,127.779,160.965,127.779z"/>
	<path fill="#3A312A" d="M169.965,32.472h-0.063c-0.828,0-1.5-0.671-1.5-1.5s0.672-1.5,1.5-1.5c0.828,0,1.531,0.671,1.531,1.5
		S170.793,32.472,169.965,32.472z"/>
	<path fill="#3A312A" d="M169.965,42.002h-0.063c-0.828,0-1.5-0.671-1.5-1.5c0-0.829,0.672-1.5,1.5-1.5
		c0.828,0,1.531,0.671,1.531,1.5C171.434,41.331,170.793,42.002,169.965,42.002z"/>
	<path fill="#3A312A" d="M169.965,51.533h-0.063c-0.828,0-1.5-0.671-1.5-1.5c0-0.829,0.672-1.5,1.5-1.5
		c0.828,0,1.531,0.671,1.531,1.5C171.434,50.862,170.793,51.533,169.965,51.533z"/>
	<path fill="#3A312A" d="M169.965,61.064h-0.063c-0.828,0-1.5-0.671-1.5-1.5c0-0.829,0.672-1.5,1.5-1.5
		c0.828,0,1.531,0.671,1.531,1.5C171.434,60.393,170.793,61.064,169.965,61.064z"/>
	<path fill="#3A312A" d="M169.965,70.595h-0.063c-0.828,0-1.5-0.671-1.5-1.5c0-0.829,0.672-1.5,1.5-1.5
		c0.828,0,1.531,0.671,1.531,1.5C171.434,69.923,170.793,70.595,169.965,70.595z"/>
	<path fill="#3A312A" d="M169.965,80.126h-0.063c-0.828,0-1.5-0.671-1.5-1.5c0-0.829,0.672-1.5,1.5-1.5
		c0.828,0,1.531,0.671,1.531,1.5C171.434,79.454,170.793,80.126,169.965,80.126z"/>
	<path fill="#3A312A" d="M169.951,89.743c-0.707,0-1.361-0.569-1.514-1.264c-0.178-0.809,0.333-1.609,1.143-1.787
		c0.12-0.027,0.238-0.037,0.358-0.035c0.057,0,0.117,0.002,0.176,0.007c0.824,0.083,1.426,0.817,1.343,1.642
		c-0.073,0.733-0.693,1.392-1.429,1.435C170.002,89.742,169.977,89.743,169.951,89.743z"/>
	<path fill="#3A312A" d="M169.965,99.187h-0.063c-0.828,0-1.5-0.671-1.5-1.5c0-0.829,0.672-1.5,1.5-1.5
		c0.828,0,1.531,0.671,1.531,1.5C171.434,98.516,170.793,99.187,169.965,99.187z"/>
	<path fill="#3A312A" d="M169.965,108.718h-0.063c-0.828,0-1.5-0.671-1.5-1.5c0-0.829,0.672-1.5,1.5-1.5
		c0.828,0,1.531,0.671,1.531,1.5C171.434,108.046,170.793,108.718,169.965,108.718z"/>
	<path fill="#3A312A" d="M169.965,118.248h-0.063c-0.828,0-1.5-0.671-1.5-1.5c0-0.829,0.672-1.5,1.5-1.5
		c0.828,0,1.531,0.671,1.531,1.5C171.434,117.577,170.793,118.248,169.965,118.248z"/>
	<path fill="#3A312A" d="M169.965,127.779h-0.063c-0.828,0-1.5-0.671-1.5-1.5c0-0.829,0.672-1.5,1.5-1.5
		c0.828,0,1.531,0.671,1.531,1.5C171.434,127.108,170.793,127.779,169.965,127.779z"/>
	<path fill="#3A312A" d="M178.965,32.472h-0.063c-0.828,0-1.5-0.671-1.5-1.5s0.672-1.5,1.5-1.5c0.828,0,1.531,0.671,1.531,1.5
		S179.793,32.472,178.965,32.472z"/>
	<path fill="#3A312A" d="M178.965,42.002h-0.063c-0.828,0-1.5-0.671-1.5-1.5c0-0.829,0.672-1.5,1.5-1.5
		c0.828,0,1.531,0.671,1.531,1.5C180.434,41.331,179.793,42.002,178.965,42.002z"/>
	<path fill="#3A312A" d="M178.965,51.533h-0.063c-0.828,0-1.5-0.671-1.5-1.5c0-0.829,0.672-1.5,1.5-1.5
		c0.828,0,1.531,0.671,1.531,1.5C180.434,50.862,179.793,51.533,178.965,51.533z"/>
	<path fill="#3A312A" d="M178.965,61.064h-0.063c-0.828,0-1.5-0.671-1.5-1.5c0-0.829,0.672-1.5,1.5-1.5
		c0.828,0,1.531,0.671,1.531,1.5C180.434,60.393,179.793,61.064,178.965,61.064z"/>
	<path fill="#3A312A" d="M178.965,70.595h-0.063c-0.828,0-1.5-0.671-1.5-1.5c0-0.829,0.672-1.5,1.5-1.5
		c0.828,0,1.531,0.671,1.531,1.5C180.434,69.923,179.793,70.595,178.965,70.595z"/>
	<path fill="#3A312A" d="M178.965,80.126h-0.063c-0.828,0-1.5-0.671-1.5-1.5c0-0.829,0.672-1.5,1.5-1.5
		c0.828,0,1.531,0.671,1.531,1.5C180.434,79.454,179.793,80.126,178.965,80.126z"/>
	<path fill="#3A312A" d="M178.951,89.743c-0.707,0-1.361-0.569-1.514-1.264c-0.178-0.809,0.333-1.609,1.143-1.787
		c0.12-0.027,0.238-0.037,0.358-0.035c0.059,0,0.117,0.002,0.176,0.007c0.824,0.083,1.426,0.817,1.343,1.642
		c-0.073,0.733-0.693,1.392-1.429,1.435C179.002,89.742,178.977,89.743,178.951,89.743z"/>
	<path fill="#3A312A" d="M178.965,99.187h-0.063c-0.828,0-1.5-0.671-1.5-1.5c0-0.829,0.672-1.5,1.5-1.5
		c0.828,0,1.531,0.671,1.531,1.5C180.434,98.516,179.793,99.187,178.965,99.187z"/>
	<path fill="#3A312A" d="M178.965,108.718h-0.063c-0.828,0-1.5-0.671-1.5-1.5c0-0.829,0.672-1.5,1.5-1.5
		c0.828,0,1.531,0.671,1.531,1.5C180.434,108.046,179.793,108.718,178.965,108.718z"/>
	<path fill="#3A312A" d="M178.965,118.248h-0.063c-0.828,0-1.5-0.671-1.5-1.5c0-0.829,0.672-1.5,1.5-1.5
		c0.828,0,1.531,0.671,1.531,1.5C180.434,117.577,179.793,118.248,178.965,118.248z"/>
	<path fill="#3A312A" d="M178.965,127.779h-0.063c-0.828,0-1.5-0.671-1.5-1.5c0-0.829,0.672-1.5,1.5-1.5
		c0.828,0,1.531,0.671,1.531,1.5C180.434,127.108,179.793,127.779,178.965,127.779z"/>
	<path fill="#3A312A" d="M187.965,32.472h-0.063c-0.828,0-1.5-0.671-1.5-1.5s0.672-1.5,1.5-1.5c0.828,0,1.531,0.671,1.531,1.5
		S188.793,32.472,187.965,32.472z"/>
	<path fill="#3A312A" d="M187.965,42.002h-0.063c-0.828,0-1.5-0.671-1.5-1.5c0-0.829,0.672-1.5,1.5-1.5
		c0.828,0,1.531,0.671,1.531,1.5C189.434,41.331,188.793,42.002,187.965,42.002z"/>
	<path fill="#3A312A" d="M187.965,51.533h-0.063c-0.828,0-1.5-0.671-1.5-1.5c0-0.829,0.672-1.5,1.5-1.5
		c0.828,0,1.531,0.671,1.531,1.5C189.434,50.862,188.793,51.533,187.965,51.533z"/>
	<path fill="#3A312A" d="M187.965,61.064h-0.063c-0.828,0-1.5-0.671-1.5-1.5c0-0.829,0.672-1.5,1.5-1.5
		c0.828,0,1.531,0.671,1.531,1.5C189.434,60.393,188.793,61.064,187.965,61.064z"/>
	<path fill="#3A312A" d="M187.965,70.595h-0.063c-0.828,0-1.5-0.671-1.5-1.5c0-0.829,0.672-1.5,1.5-1.5
		c0.828,0,1.531,0.671,1.531,1.5C189.434,69.923,188.793,70.595,187.965,70.595z"/>
	<path fill="#3A312A" d="M187.965,80.126h-0.063c-0.828,0-1.5-0.671-1.5-1.5c0-0.829,0.672-1.5,1.5-1.5
		c0.828,0,1.531,0.671,1.531,1.5C189.434,79.454,188.793,80.126,187.965,80.126z"/>
	<path fill="#3A312A" d="M187.951,89.743c-0.707,0-1.361-0.569-1.514-1.264c-0.178-0.809,0.333-1.609,1.143-1.787
		c0.12-0.027,0.238-0.037,0.358-0.035c0.059,0,0.117,0.002,0.176,0.007c0.824,0.083,1.426,0.817,1.343,1.642
		c-0.073,0.733-0.693,1.392-1.429,1.435C188.002,89.742,187.977,89.743,187.951,89.743z"/>
	<path fill="#3A312A" d="M187.965,99.187h-0.063c-0.828,0-1.5-0.671-1.5-1.5c0-0.829,0.672-1.5,1.5-1.5
		c0.828,0,1.531,0.671,1.531,1.5C189.434,98.516,188.793,99.187,187.965,99.187z"/>
	<path fill="#3A312A" d="M187.965,108.718h-0.063c-0.828,0-1.5-0.671-1.5-1.5c0-0.829,0.672-1.5,1.5-1.5
		c0.828,0,1.531,0.671,1.531,1.5C189.434,108.046,188.793,108.718,187.965,108.718z"/>
	<path fill="#3A312A" d="M187.965,118.248h-0.063c-0.828,0-1.5-0.671-1.5-1.5c0-0.829,0.672-1.5,1.5-1.5
		c0.828,0,1.531,0.671,1.531,1.5C189.434,117.577,188.793,118.248,187.965,118.248z"/>
	<path fill="#3A312A" d="M187.965,127.779h-0.063c-0.828,0-1.5-0.671-1.5-1.5c0-0.829,0.672-1.5,1.5-1.5
		c0.828,0,1.531,0.671,1.531,1.5C189.434,127.108,188.793,127.779,187.965,127.779z"/>
	<path fill="#6CA8BF" d="M184.604,19.042h-15c6.2,0,11.25,5.05,11.25,11.26v96.65c0,6.21-5.05,11.26-11.25,11.26h15
		c6.2,0,11.25-5.05,11.25-11.26v-96.65C195.854,24.092,190.804,19.042,184.604,19.042z M187.904,29.472c0.83,0,1.53,0.67,1.53,1.5
		s-0.64,1.5-1.47,1.5h-0.06c-0.83,0-1.5-0.67-1.5-1.5S187.074,29.472,187.904,29.472z M187.904,39.002c0.83,0,1.53,0.67,1.53,1.5
		c0,0.83-0.64,1.5-1.47,1.5h-0.06c-0.83,0-1.5-0.67-1.5-1.5C186.404,39.672,187.074,39.002,187.904,39.002z M187.904,48.532
		c0.83,0,1.53,0.67,1.53,1.5c0,0.83-0.64,1.5-1.47,1.5h-0.06c-0.83,0-1.5-0.67-1.5-1.5
		C186.404,49.202,187.074,48.532,187.904,48.532z M187.904,58.062c0.83,0,1.53,0.67,1.53,1.5c0,0.83-0.64,1.5-1.47,1.5h-0.06
		c-0.83,0-1.5-0.67-1.5-1.5C186.404,58.732,187.074,58.062,187.904,58.062z M187.904,67.592c0.83,0,1.53,0.67,1.53,1.5
		c0,0.83-0.64,1.5-1.47,1.5h-0.06c-0.83,0-1.5-0.67-1.5-1.5C186.404,68.262,187.074,67.592,187.904,67.592z M187.904,77.122
		c0.83,0,1.53,0.68,1.53,1.5c0,0.83-0.64,1.5-1.47,1.5h-0.06c-0.83,0-1.5-0.67-1.5-1.5
		C186.404,77.802,187.074,77.122,187.904,77.122z M187.964,127.782h-0.06c-0.83,0-1.5-0.67-1.5-1.5s0.67-1.5,1.5-1.5
		c0.83,0,1.53,0.67,1.53,1.5S188.794,127.782,187.964,127.782z M187.964,118.252h-0.06c-0.83,0-1.5-0.67-1.5-1.5s0.67-1.5,1.5-1.5
		c0.83,0,1.53,0.67,1.53,1.5S188.794,118.252,187.964,118.252z M187.964,108.722h-0.06c-0.83,0-1.5-0.68-1.5-1.5
		c0-0.83,0.67-1.5,1.5-1.5c0.83,0,1.53,0.67,1.53,1.5C189.434,108.042,188.794,108.722,187.964,108.722z M187.964,99.182h-0.06
		c-0.83,0-1.5-0.67-1.5-1.5c0-0.82,0.67-1.5,1.5-1.5c0.83,0,1.53,0.68,1.53,1.5C189.434,98.512,188.794,99.182,187.964,99.182z
		 M189.454,88.312c-0.07,0.73-0.7,1.39-1.43,1.43h-0.07c-0.71,0-1.37-0.57-1.52-1.27c-0.17-0.81,0.34-1.61,1.15-1.78
		c0.12-0.03,0.23-0.04,0.35-0.04c0.07,0,0.13,0.01,0.19,0.01C188.944,86.752,189.544,87.492,189.454,88.312z"/>
</g>
</svg>
