<?xml version="1.0" encoding="utf-8"?>
<!-- Generator: Adobe Illustrator 24.0.0, SVG Export Plug-In . SVG Version: 6.00 Build 0)  -->
<svg version="1.1" id="Layer_1" xmlns="http://www.w3.org/2000/svg" xmlns:xlink="http://www.w3.org/1999/xlink" x="0px" y="0px"
	 viewBox="0 0 256 256" enable-background="new 0 0 256 256" xml:space="preserve">
<g>
	<path fill="#D7E057" d="M201.293,180.137c0,0,3.408,12.659,13.222,13.246c0,0-13.1,4.525-13.321,14.202
		c0,0-2.579-13.572-12.925-14.059C188.269,193.526,200.32,191.7,201.293,180.137z"/>
	<path fill="#3A312A" d="M201.193,209.084c-0.713,0-1.335-0.506-1.473-1.217c-0.023-0.124-2.494-12.417-11.523-12.842
		c-0.77-0.037-1.388-0.651-1.428-1.421c-0.04-0.771,0.511-1.445,1.273-1.561c0.441-0.069,10.895-1.817,11.754-12.032
		c0.062-0.725,0.635-1.301,1.359-1.367c0.734-0.062,1.394,0.4,1.584,1.102c0.031,0.116,3.259,11.626,11.864,12.14
		c0.714,0.043,1.297,0.584,1.396,1.292c0.098,0.708-0.318,1.388-0.994,1.623c-0.121,0.042-12.119,4.311-12.313,12.819
		c-0.018,0.767-0.61,1.396-1.375,1.46C201.277,209.083,201.235,209.084,201.193,209.084z M193.451,193.355
		c3.879,1.969,6.231,5.746,7.588,8.876c2.026-4.021,5.941-6.787,8.949-8.427c-4.135-1.842-6.784-5.651-8.335-8.722
		C199.86,189.442,196.383,191.95,193.451,193.355z"/>
	<path fill="#D7E057" d="M179.595,197.117c0,0,2.411,8.954,9.352,9.369c0,0-9.266,3.201-9.422,10.045c0,0-1.824-9.6-9.142-9.944
		C170.382,206.588,178.906,205.296,179.595,197.117z"/>
	<path fill="#3A312A" d="M179.523,218.032c-0.714,0-1.337-0.507-1.473-1.22c-0.016-0.082-1.704-8.442-7.739-8.726
		c-0.77-0.037-1.388-0.651-1.428-1.421c-0.04-0.77,0.511-1.445,1.273-1.56c0.296-0.047,7.364-1.243,7.942-8.113
		c0.062-0.726,0.636-1.303,1.361-1.368c0.715-0.063,1.392,0.4,1.581,1.102l0,0c0.022,0.079,2.228,7.919,7.994,8.264
		c0.714,0.043,1.299,0.584,1.396,1.293c0.097,0.709-0.32,1.388-0.996,1.622c-0.081,0.028-8.282,2.953-8.412,8.662
		c-0.018,0.767-0.611,1.397-1.376,1.461C179.606,218.03,179.564,218.032,179.523,218.032z M175.004,206.504
		c2.107,1.333,3.523,3.394,4.447,5.28c1.376-2.232,3.516-3.872,5.365-4.973c-2.287-1.269-3.884-3.35-4.941-5.224
		C178.702,203.874,176.86,205.463,175.004,206.504z"/>
	<path fill="#D7E057" d="M179.595,170.46c0,0,2.411,8.954,9.352,9.37c0,0-9.266,3.201-9.422,10.045c0,0-1.824-9.6-9.142-9.944
		C170.382,179.93,178.906,178.639,179.595,170.46z"/>
	<path fill="#3A312A" d="M179.523,191.374c-0.714,0-1.337-0.507-1.473-1.22c-0.016-0.081-1.704-8.442-7.739-8.726
		c-0.77-0.037-1.388-0.651-1.428-1.421c-0.04-0.77,0.511-1.445,1.273-1.561c0.296-0.047,7.364-1.243,7.942-8.114
		c0.062-0.726,0.636-1.303,1.361-1.368c0.715-0.062,1.392,0.399,1.581,1.102l0,0c0.022,0.079,2.228,7.92,7.994,8.265
		c0.714,0.043,1.299,0.585,1.396,1.294c0.097,0.709-0.32,1.388-0.996,1.622c-0.081,0.028-8.282,2.952-8.412,8.662
		c-0.018,0.767-0.611,1.397-1.376,1.461C179.606,191.373,179.564,191.374,179.523,191.374z M175.004,179.847
		c2.107,1.333,3.523,3.395,4.447,5.28c1.376-2.232,3.516-3.872,5.365-4.973c-2.287-1.269-3.884-3.35-4.941-5.223
		C178.702,177.217,176.86,178.806,175.004,179.847z"/>
	<path fill="#87796F" d="M75.759,210.491L93.97,192.28L62.89,161.2l-40.1,40.1c-8.58,8.58-8.58,22.5,0,31.08s22.5,8.58,31.08,0
		l11.394-11.394L75.759,210.491z"/>
	<path fill="#3A312A" d="M38.33,240.306c-6.012,0-12.024-2.288-16.601-6.865c-9.153-9.153-9.153-24.048,0-33.201l40.1-40.1
		c0.563-0.563,1.559-0.563,2.121,0l31.08,31.08c0.586,0.586,0.586,1.536,0,2.121l-18.211,18.211c-0.586,0.586-1.535,0.586-2.121,0
		c-0.586-0.585-0.586-1.536,0-2.121l17.15-17.15L62.89,163.321l-39.039,39.04c-7.983,7.984-7.983,20.975,0,28.959
		c7.984,7.983,20.975,7.983,28.959,0l11.394-11.394c0.586-0.586,1.535-0.586,2.121,0c0.586,0.585,0.586,1.535,0,2.121L54.931,233.44
		C50.353,238.018,44.342,240.306,38.33,240.306z"/>
	<path fill="#FCE8CB" d="M234.413,22.417c-6.976-6.976-18.287-6.976-25.263,0L94.623,136.944l25.263,25.263L234.413,47.68
		C241.389,40.704,241.389,29.393,234.413,22.417z"/>
	<path fill="#3A312A" d="M119.887,163.707c-0.384,0-0.768-0.146-1.061-0.439l-25.264-25.263c-0.281-0.281-0.439-0.663-0.439-1.061
		c0-0.398,0.158-0.779,0.439-1.061L208.089,21.356c7.551-7.55,19.834-7.55,27.385,0l0,0c7.549,7.55,7.549,19.834,0,27.384
		L120.947,163.268C120.654,163.561,120.271,163.707,119.887,163.707z M96.744,136.944l23.143,23.142L233.352,46.62
		c6.38-6.38,6.38-16.762,0-23.142c-6.381-6.38-16.762-6.38-23.142,0L96.744,136.944z"/>
	<path fill="#8AC3DA" d="M61.616,104.116l-14.913,14.913c-4.03,4.03-4.03,10.565,0,14.595c4.03,4.03,10.565,4.03,14.595,0
		l24.155-24.155c2.02-2.02,5.296-2.02,7.316,0l19.999,19.999c4.03,4.03,10.565,4.03,14.595,0l65.524-65.524
		c6.934-6.934,6.934-18.175,0-25.109l-0.076-0.076l-60.704,60.704l-39.795-16.91c-3.873-1.646-8.358-0.775-11.334,2.201
		l-8.857,8.857L61.616,104.116z"/>
	<path fill="#3A312A" d="M54,138.147c-3.156,0-6.125-1.23-8.357-3.462c-4.608-4.609-4.608-12.108,0-16.716l14.912-14.913
		c0.586-0.586,1.535-0.586,2.121,0c0.586,0.585,0.586,1.535,0,2.121l-14.912,14.913c-3.438,3.439-3.438,9.035,0,12.474
		c3.44,3.44,9.035,3.438,12.474,0l24.155-24.156c2.601-2.602,6.836-2.601,9.438,0l19.998,19.999c3.439,3.439,9.035,3.44,12.475,0
		l65.524-65.524c3.07-3.07,4.762-7.152,4.762-11.494c0-3.874-1.347-7.541-3.818-10.467l-59.602,59.602
		c-0.434,0.433-1.086,0.559-1.648,0.32l-39.795-16.91c-3.325-1.412-7.129-0.676-9.686,1.881l-8.857,8.857
		c-0.586,0.586-1.535,0.586-2.121,0c-0.586-0.586-0.586-1.536,0-2.121l8.857-8.857c3.427-3.426,8.52-4.417,12.98-2.521
		l38.863,16.514l59.988-59.988c0.282-0.283,0.655-0.462,1.065-0.439c0.399,0.001,0.782,0.162,1.063,0.446l0.075,0.076
		c3.631,3.63,5.634,8.465,5.634,13.608c0,5.144-2.003,9.979-5.641,13.615l-65.523,65.524c-4.609,4.609-12.107,4.609-16.717,0
		l-19.998-19.999c-1.432-1.432-3.764-1.432-5.195,0l-24.155,24.155C60.126,136.917,57.157,138.147,54,138.147z"/>
	<path fill="#87796F" d="M53.323,112.408l-6.62,6.62c-4.03,4.03-4.03,10.565,0,14.595c4.03,4.03,10.565,4.03,14.595,0l6.62-6.62
		L53.323,112.408z"/>
	<path fill="#3A312A" d="M54,138.141c-3.026,0-6.054-1.152-8.357-3.456c-4.608-4.609-4.608-12.108,0-16.716l6.62-6.621
		c0.563-0.563,1.559-0.563,2.121,0l14.595,14.595c0.586,0.585,0.586,1.535,0,2.121l-6.62,6.621
		C60.055,136.989,57.027,138.141,54,138.141z M53.323,114.53l-5.56,5.56c-3.438,3.439-3.438,9.035,0,12.474
		c3.44,3.44,9.035,3.438,12.474,0l5.56-5.56L53.323,114.53z"/>
	<path fill="#87796F" d="M234.413,22.417c-6.976-6.976-18.287-6.976-25.263,0l-6.98,6.98l25.263,25.263l6.98-6.98
		C241.389,40.704,241.389,29.393,234.413,22.417z"/>
	<path fill="#3A312A" d="M227.433,56.16c-0.384,0-0.768-0.146-1.061-0.439l-25.263-25.263c-0.586-0.585-0.586-1.535,0-2.121
		l6.979-6.98c7.551-7.55,19.834-7.55,27.385,0l0,0c7.549,7.55,7.549,19.834,0,27.384l-6.98,6.98
		C228.2,56.014,227.816,56.16,227.433,56.16z M204.291,29.397l23.142,23.142l5.92-5.92c6.38-6.38,6.38-16.762,0-23.142
		c-6.381-6.38-16.762-6.38-23.142,0L204.291,29.397z"/>
	<path fill="#8AC3DA" d="M122.775,165.095l-32.7-32.7c-2.827-2.827-7.412-2.827-10.239,0L62.08,150.149
		c-2.827,2.827-2.827,7.412,0,10.239l32.7,32.7c2.827,2.827,7.412,2.827,10.239,0l17.755-17.755
		C125.602,172.507,125.602,167.923,122.775,165.095z"/>
	<path fill="#3A312A" d="M99.9,196.71c-2.334,0-4.529-0.909-6.18-2.56l-32.701-32.7c-3.407-3.408-3.407-8.953,0-12.36l17.755-17.754
		c1.65-1.651,3.846-2.56,6.181-2.56c2.334,0,4.529,0.909,6.18,2.56l32.7,32.7c1.651,1.651,2.561,3.846,2.561,6.18
		c0,2.335-0.909,4.529-2.561,6.18l-17.754,17.754C104.43,195.8,102.235,196.71,99.9,196.71z M84.955,131.774
		c-1.534,0-2.976,0.597-4.06,1.681L63.141,151.21c-2.238,2.238-2.237,5.88,0,8.118l32.701,32.7c1.084,1.084,2.525,1.681,4.059,1.681
		s2.975-0.597,4.06-1.681l17.754-17.754c1.084-1.084,1.682-2.526,1.682-4.059s-0.598-2.975-1.682-4.059l0,0l-32.7-32.7
		C87.93,132.372,86.488,131.774,84.955,131.774z"/>
	<path fill="#3A312A" d="M149.957,161.514c-0.384,0-0.768-0.146-1.061-0.439l-30.366-30.366c-0.586-0.585-0.586-1.536,0-2.121
		c0.586-0.586,1.535-0.586,2.121,0l30.366,30.366c0.586,0.586,0.586,1.536,0,2.121C150.725,161.367,150.341,161.514,149.957,161.514
		z"/>
	<circle fill="#87796F" cx="119.591" cy="129.648" r="8.723"/>
	<path fill="#3A312A" d="M119.591,139.866c-2.618,0-5.235-0.997-7.229-2.99c-3.985-3.986-3.985-10.472,0-14.458
		c1.931-1.931,4.498-2.995,7.229-2.995c2.73,0,5.298,1.063,7.229,2.995c1.932,1.931,2.995,4.498,2.995,7.229
		c0,2.731-1.063,5.298-2.995,7.229l0,0l0,0C124.826,138.87,122.209,139.866,119.591,139.866z M119.591,122.424
		c-1.93,0-3.743,0.751-5.107,2.116c-2.815,2.816-2.815,7.399,0,10.215c1.364,1.364,3.178,2.115,5.107,2.115
		c1.93,0,3.743-0.752,5.107-2.115l0,0c1.364-1.365,2.116-3.178,2.116-5.108c0-1.929-0.752-3.743-2.116-5.108
		C123.334,123.176,121.521,122.424,119.591,122.424z"/>
	
		<rect x="113.238" y="144.032" transform="matrix(0.7071 -0.7071 0.7071 0.7071 -69.5274 130.8158)" fill="#DECAAD" width="19.813" height="10.607"/>
	
		<rect x="113.778" y="90.262" transform="matrix(0.7071 -0.7071 0.7071 0.7071 -15.7532 153.0883)" fill="#DECAAD" width="126.279" height="10.596"/>
	<path fill="#695B51" d="M238.15,35.05c0,4.37-1.71,8.48-4.8,11.57l-5.92,5.92l-7.61-7.61c2.16-2.83,3.33-6.27,3.33-9.88
		c0-4.37-1.71-8.48-4.8-11.57c-1.22-1.21-2.59-2.21-4.07-2.97c2.29-1.19,4.85-1.82,7.5-1.82c4.37,0,8.48,1.7,11.57,4.79
		C236.44,26.57,238.15,30.68,238.15,35.05z"/>
</g>
</svg>
