<?xml version="1.0" encoding="utf-8"?>
<!-- Generator: Adobe Illustrator 24.0.0, SVG Export Plug-In . SVG Version: 6.00 Build 0)  -->
<svg version="1.1" id="Layer_1" xmlns="http://www.w3.org/2000/svg" xmlns:xlink="http://www.w3.org/1999/xlink" x="0px" y="0px"
	 viewBox="0 0 256 256" enable-background="new 0 0 256 256" xml:space="preserve">
<g>
	<path fill="#D7E057" d="M75.352,117.387c0,0,3.408,12.659,13.222,13.246c0,0-13.1,4.525-13.321,14.202
		c0,0-2.578-13.572-12.925-14.059C62.328,130.776,74.378,128.95,75.352,117.387z"/>
	<path fill="#3A312A" d="M75.252,146.335c-0.713,0-1.335-0.506-1.473-1.217c-0.023-0.124-2.494-12.417-11.521-12.842
		c-0.771-0.037-1.388-0.651-1.428-1.421c-0.04-0.771,0.511-1.445,1.273-1.561c0.441-0.069,10.894-1.818,11.754-12.033
		c0.062-0.725,0.635-1.301,1.359-1.367c0.737-0.062,1.394,0.4,1.584,1.102c0.031,0.116,3.259,11.626,11.863,12.141
		c0.714,0.043,1.298,0.584,1.396,1.293c0.098,0.708-0.318,1.388-0.994,1.623c-0.121,0.042-12.119,4.31-12.313,12.819
		c-0.018,0.767-0.61,1.396-1.375,1.46C75.336,146.333,75.294,146.335,75.252,146.335z M67.511,130.605
		c3.878,1.969,6.23,5.746,7.587,8.876c2.026-4.022,5.941-6.787,8.949-8.427c-4.135-1.843-6.783-5.652-8.334-8.723
		C73.92,126.691,70.441,129.2,67.511,130.605z"/>
	<path fill="#D7E057" d="M53.654,134.367c0,0,2.411,8.954,9.352,9.369c0,0-9.266,3.201-9.422,10.045c0,0-1.824-9.6-9.142-9.944
		C44.441,143.838,52.965,142.546,53.654,134.367z"/>
	<path fill="#3A312A" d="M53.582,155.282c-0.714,0-1.337-0.507-1.473-1.22c-0.016-0.082-1.704-8.442-7.738-8.726
		c-0.77-0.037-1.388-0.651-1.428-1.421c-0.04-0.77,0.511-1.445,1.273-1.561c0.296-0.047,7.363-1.243,7.941-8.114
		c0.062-0.726,0.636-1.303,1.361-1.368c0.719-0.064,1.392,0.4,1.581,1.102l0,0c0.022,0.079,2.229,7.92,7.995,8.265
		c0.714,0.043,1.299,0.584,1.396,1.293c0.097,0.709-0.32,1.388-0.997,1.622c-0.08,0.028-8.282,2.952-8.412,8.661
		c-0.018,0.767-0.611,1.397-1.376,1.461C53.665,155.28,53.623,155.282,53.582,155.282z M49.063,143.754
		c2.107,1.333,3.522,3.394,4.446,5.28c1.377-2.232,3.516-3.872,5.365-4.973c-2.286-1.269-3.884-3.35-4.941-5.223
		C52.761,141.124,50.919,142.713,49.063,143.754z"/>
	<path fill="#D7E057" d="M53.654,107.71c0,0,2.411,8.954,9.352,9.37c0,0-9.266,3.201-9.422,10.045c0,0-1.824-9.6-9.142-9.944
		C44.441,117.18,52.965,115.889,53.654,107.71z"/>
	<path fill="#3A312A" d="M53.582,128.624c-0.714,0-1.337-0.507-1.473-1.22c-0.016-0.082-1.704-8.442-7.738-8.726
		c-0.77-0.037-1.388-0.651-1.428-1.421c-0.04-0.771,0.511-1.445,1.273-1.561c0.296-0.047,7.363-1.243,7.941-8.114
		c0.062-0.726,0.636-1.303,1.361-1.368c0.719-0.063,1.392,0.399,1.581,1.102l0,0c0.022,0.079,2.229,7.92,7.995,8.265
		c0.714,0.043,1.299,0.584,1.396,1.293c0.097,0.709-0.32,1.388-0.997,1.622c-0.08,0.028-8.282,2.952-8.412,8.662
		c-0.018,0.767-0.611,1.397-1.376,1.461C53.665,128.623,53.623,128.624,53.582,128.624z M49.063,117.097
		c2.107,1.333,3.522,3.394,4.446,5.28c1.377-2.233,3.516-3.872,5.365-4.973c-2.286-1.27-3.884-3.35-4.941-5.224
		C52.761,114.467,50.919,116.056,49.063,117.097z"/>
	<path fill="#D7E057" d="M179.496,74.888H94.621l0,0c0,13.538,10.975,24.513,24.513,24.513h35.85
		C168.522,99.4,179.496,88.426,179.496,74.888L179.496,74.888z"/>
	<path fill="#3A312A" d="M154.984,100.9h-35.851c-14.344,0-26.013-11.669-26.013-26.013c0-0.829,0.672-1.5,1.5-1.5h84.875
		c0.828,0,1.5,0.671,1.5,1.5C180.996,89.231,169.327,100.9,154.984,100.9z M96.17,76.388C96.945,88.38,106.949,97.9,119.134,97.9
		h35.851c12.184,0,22.188-9.52,22.964-21.513H96.17z"/>
	<rect x="125.879" y="99.4" fill="#87796F" width="22.36" height="41.35"/>
	<path fill="#3A312A" d="M148.239,142.25h-22.36c-0.828,0-1.5-0.671-1.5-1.5V99.4c0-0.829,0.672-1.5,1.5-1.5h22.36
		c0.828,0,1.5,0.671,1.5,1.5v41.35C149.739,141.579,149.067,142.25,148.239,142.25z M127.379,139.25h19.36V100.9h-19.36V139.25z"/>
	<path fill="#EB6E7A" d="M117.869,198.328v41.422h38.38v-91.87c0-3.94-3.19-7.13-7.13-7.13h-24.12c-3.94,0-7.13,3.19-7.13,7.13
		v35.625V198.328z"/>
	<path fill="#3A312A" d="M156.249,241.25h-38.38c-0.828,0-1.5-0.671-1.5-1.5v-41.422c0-0.829,0.672-1.5,1.5-1.5
		c0.828,0,1.5,0.671,1.5,1.5v39.922h35.38v-90.37c0-3.104-2.525-5.63-5.63-5.63h-24.12c-3.104,0-5.63,2.525-5.63,5.63v35.626
		c0,0.829-0.672,1.5-1.5,1.5c-0.828,0-1.5-0.671-1.5-1.5V147.88c0-4.758,3.871-8.63,8.63-8.63h24.12c4.759,0,8.63,3.872,8.63,8.63
		v91.87C157.749,240.579,157.077,241.25,156.249,241.25z"/>
	<path fill="#FAE6CA" d="M118.544,16.25H80.589c-9.958,0-18.03,8.072-18.03,18.03v22.577c0,9.958,8.072,18.03,18.03,18.03h112.94
		c9.958,0,18.03-8.072,18.03-18.03V34.28c0-9.958-8.072-18.03-18.03-18.03h-60.621H118.544z"/>
	<path fill="#3A312A" d="M193.528,76.388H80.589c-10.769,0-19.53-8.761-19.53-19.53V34.28c0-10.769,8.762-19.53,19.53-19.53h37.955
		c0.828,0,1.5,0.671,1.5,1.5c0,0.829-0.672,1.5-1.5,1.5H80.589c-9.115,0-16.53,7.416-16.53,16.53v22.577
		c0,9.115,7.415,16.53,16.53,16.53h112.939c9.115,0,16.53-7.415,16.53-16.53V34.28c0-9.115-7.415-16.53-16.53-16.53h-60.621
		c-0.828,0-1.5-0.671-1.5-1.5c0-0.829,0.672-1.5,1.5-1.5h60.621c10.769,0,19.53,8.761,19.53,19.53v22.577
		C213.059,67.627,204.297,76.388,193.528,76.388z"/>
	<path fill="#87796F" d="M194.624,41.75H79.493c-3.037,0-5.5-2.462-5.5-5.5l0,0c0-3.038,2.463-5.5,5.5-5.5h115.131
		c3.038,0,5.5,2.462,5.5,5.5l0,0C200.124,39.288,197.662,41.75,194.624,41.75z"/>
	<path fill="#3A312A" d="M194.624,43.25H79.493c-3.859,0-7-3.14-7-7c0-3.86,3.141-7,7-7h115.131c3.859,0,7,3.14,7,7
		C201.624,40.11,198.483,43.25,194.624,43.25z M79.493,32.25c-2.206,0-4,1.794-4,4c0,2.206,1.794,4,4,4h115.131c2.206,0,4-1.794,4-4
		c0-2.206-1.794-4-4-4H79.493z"/>
	<path fill="#87796F" d="M194.624,60.75H79.493c-3.037,0-5.5-2.462-5.5-5.5l0,0c0-3.038,2.463-5.5,5.5-5.5h115.131
		c3.038,0,5.5,2.462,5.5,5.5l0,0C200.124,58.288,197.662,60.75,194.624,60.75z"/>
	<path fill="#3A312A" d="M194.624,62.25H79.493c-3.859,0-7-3.14-7-7c0-3.86,3.141-7,7-7h115.131c3.859,0,7,3.14,7,7
		C201.624,59.11,198.483,62.25,194.624,62.25z M79.493,51.25c-2.206,0-4,1.794-4,4c0,2.206,1.794,4,4,4h115.131c2.206,0,4-1.794,4-4
		c0-2.206-1.794-4-4-4H79.493z"/>
	<path fill="#DCC8AB" d="M193.529,17.75h-15c7.36,0,13.61,4.84,15.74,11.5h0.36c3.85,0,7,3.14,7,7c0,3.71-2.92,6.76-6.57,6.98v5.04
		c3.65,0.22,6.57,3.27,6.57,6.98c0,3.86-3.15,7-7,7h-0.48c-2.24,6.48-8.4,11.14-15.62,11.14h15c9.11,0,16.53-7.42,16.53-16.53V34.28
		C210.059,25.17,202.639,17.75,193.529,17.75z"/>
</g>
</svg>
