<?xml version="1.0" encoding="utf-8"?>
<!-- Generator: Adobe Illustrator 24.0.0, SVG Export Plug-In . SVG Version: 6.00 Build 0)  -->
<svg version="1.1" id="Layer_1" xmlns="http://www.w3.org/2000/svg" xmlns:xlink="http://www.w3.org/1999/xlink" x="0px" y="0px"
	 viewBox="0 0 256 256" enable-background="new 0 0 256 256" xml:space="preserve">
<g>
	<path fill="#87796F" d="M147.157,99.91c1.421-5.409,2.184-11.084,2.184-16.938c0-36.727-29.773-66.5-66.5-66.5
		s-66.5,29.773-66.5,66.5c0,5.854,0.763,11.53,2.184,16.938c-1.421,3.267-2.184,6.695-2.184,10.232c0,4.314,1.138,8.465,3.222,12.36
		c-2.084,3.895-3.222,8.046-3.222,12.36c0,4.314,1.138,8.465,3.222,12.36c-2.084,3.895-3.222,8.046-3.222,12.36
		c0,4.314,1.138,8.465,3.222,12.36c-2.084,3.895-3.222,8.046-3.222,12.36c0,22.185,29.773,40.17,66.5,40.17s66.5-17.985,66.5-40.17
		c0-4.314-1.138-8.465-3.222-12.36c2.084-3.895,3.222-8.046,3.222-12.36c0-4.314-1.138-8.465-3.222-12.36
		c2.084-3.895,3.222-8.046,3.222-12.36c0-4.314-1.138-8.465-3.222-12.36c2.084-3.895,3.222-8.046,3.222-12.36
		C149.341,106.605,148.578,103.178,147.157,99.91z"/>
	<path fill="#3A312A" d="M82.841,225.972c-37.495,0-68-18.693-68-41.67c0-4.206,1.02-8.359,3.033-12.359
		c-2.014-4.001-3.033-8.155-3.033-12.36c0-4.205,1.02-8.359,3.033-12.36c-2.014-4-3.033-8.153-3.033-12.359
		c0-4.206,1.02-8.361,3.032-12.36c-2.013-3.999-3.032-8.154-3.032-12.36c0-3.496,0.708-6.975,2.104-10.349
		c-1.396-5.486-2.104-11.143-2.104-16.821c0-37.495,30.505-68,68-68s68,30.505,68,68c0,5.678-0.708,11.334-2.105,16.821
		c1.396,3.374,2.105,6.854,2.105,10.349c0,4.206-1.02,8.36-3.032,12.36c2.013,4,3.032,8.154,3.032,12.36
		c0,4.205-1.02,8.359-3.032,12.359c2.013,4.001,3.032,8.155,3.032,12.36c0,4.205-1.02,8.359-3.032,12.36
		c2.013,4,3.032,8.154,3.032,12.359C150.841,207.278,120.336,225.972,82.841,225.972z M82.841,17.972c-35.841,0-65,29.159-65,65
		c0,5.594,0.719,11.164,2.136,16.558c0.085,0.325,0.059,0.67-0.075,0.979c-1.367,3.144-2.061,6.385-2.061,9.633
		c0,3.956,1.024,7.876,3.045,11.652c0.237,0.442,0.237,0.974,0,1.416c-2.021,3.775-3.045,7.696-3.045,11.652
		c0,3.955,1.024,7.876,3.045,11.651c0.237,0.442,0.237,0.974,0,1.416c-2.021,3.776-3.045,7.697-3.045,11.652
		c0,3.955,1.024,7.876,3.045,11.652c0.237,0.442,0.237,0.974,0,1.416c-2.021,3.775-3.045,7.696-3.045,11.651
		c0,21.322,29.159,38.67,65,38.67c35.841,0,65-17.348,65-38.67c0-3.955-1.024-7.875-3.044-11.652
		c-0.237-0.441-0.237-0.973-0.001-1.414c2.021-3.778,3.045-7.699,3.045-11.653s-1.024-7.875-3.045-11.653
		c-0.236-0.441-0.236-0.973,0.001-1.414c2.02-3.777,3.044-7.697,3.044-11.652c0-3.955-1.024-7.876-3.044-11.653
		c-0.237-0.441-0.237-0.973,0-1.414c2.02-3.777,3.044-7.698,3.044-11.653c0-3.248-0.692-6.489-2.06-9.634
		c-0.134-0.309-0.16-0.653-0.075-0.979c1.417-5.394,2.135-10.965,2.135-16.558C147.841,47.131,118.682,17.972,82.841,17.972z"/>
	<path fill="#F8E4C8" d="M118.805,183.271h-19.54v-18.799H66.428v18.799H46.876c-16.335,0-29.576,13.234-29.576,29.56v26.788h131.08
		v-26.788C148.381,196.505,135.14,183.271,118.805,183.271z"/>
	<path fill="#3A312A" d="M148.381,241.119H17.301c-0.828,0-1.5-0.672-1.5-1.5v-26.788c0-17.127,13.94-31.061,31.076-31.061h18.051
		v-17.299c0-0.828,0.672-1.5,1.5-1.5h32.837c0.828,0,1.5,0.672,1.5,1.5v17.299h18.04c17.136,0,31.076,13.934,31.076,31.061v26.788
		C149.881,240.447,149.209,241.119,148.381,241.119z M18.801,238.119h128.08v-25.288c0-15.473-12.595-28.061-28.076-28.061h-19.54
		c-0.828,0-1.5-0.672-1.5-1.5v-17.299H67.928v17.299c0,0.828-0.672,1.5-1.5,1.5H46.877c-15.482,0-28.076,12.588-28.076,28.061
		V238.119z"/>
	<path fill="#EB6E7A" d="M101.671,211.046H17.359c-0.035,0.588-0.058,1.179-0.058,1.776v26.799h131.08v-26.799
		c0-0.597-0.023-1.188-0.058-1.776h-33.068H101.671z"/>
	<path fill="#3A312A" d="M148.381,241.121H17.301c-0.828,0-1.5-0.672-1.5-1.5v-26.799c0-0.627,0.024-1.247,0.061-1.865
		c0.047-0.792,0.703-1.41,1.497-1.41h84.312c0.828,0,1.5,0.672,1.5,1.5c0,0.828-0.672,1.5-1.5,1.5H18.803
		c-0.001,0.092-0.002,0.184-0.002,0.275v25.299h128.08v-25.299c0-0.092-0.001-0.184-0.002-0.275h-31.623c-0.828,0-1.5-0.672-1.5-1.5
		c0-0.828,0.672-1.5,1.5-1.5h33.067c0.794,0,1.45,0.618,1.497,1.41c0.037,0.618,0.061,1.238,0.061,1.865v26.799
		C149.881,240.449,149.209,241.121,148.381,241.121z"/>
	<path fill-rule="evenodd" clip-rule="evenodd" fill="#F8E4C8" d="M43.691,109.992c0,6.424-5.21,11.631-11.638,11.631
		c-6.427,0-11.637-5.207-11.637-11.631c0-6.424,5.21-11.632,11.637-11.632C38.481,98.36,43.691,103.568,43.691,109.992z"/>
	<path fill="#3A312A" d="M32.054,123.123c-7.244,0-13.138-5.891-13.138-13.131c0-7.241,5.894-13.132,13.138-13.132
		c7.244,0,13.138,5.891,13.138,13.132C45.191,117.232,39.298,123.123,32.054,123.123z M32.054,99.86
		c-5.59,0-10.138,4.545-10.138,10.132c0,5.586,4.548,10.131,10.138,10.131c5.59,0,10.138-4.545,10.138-10.131
		C42.191,104.405,37.644,99.86,32.054,99.86z"/>
	
		<ellipse transform="matrix(0.0021 -1 1 0.0021 23.3616 243.3933)" fill-rule="evenodd" clip-rule="evenodd" fill="#F8E4C8" cx="133.628" cy="109.992" rx="11.631" ry="11.637"/>
	<path fill="#3A312A" d="M133.628,123.123c-7.244,0-13.138-5.891-13.138-13.131c0-7.241,5.894-13.132,13.138-13.132
		c7.244,0,13.138,5.891,13.138,13.132C146.766,117.232,140.872,123.123,133.628,123.123z M133.628,99.86
		c-5.59,0-10.138,4.545-10.138,10.132c0,5.586,4.548,10.131,10.138,10.131c5.59,0,10.138-4.545,10.138-10.131
		C143.766,104.405,139.218,99.86,133.628,99.86z"/>
	<path fill="#F8E4C8" d="M134.432,104.345c0,28.478-27.44,72.189-51.59,72.189c-23.051,0-51.59-43.711-51.59-72.189
		c0-28.478,23.098-51.563,51.59-51.563C111.335,52.782,134.432,75.868,134.432,104.345z"/>
	<path fill="#3A312A" d="M82.843,178.034c-11.055,0-24.391-9.743-35.673-26.063c-10.743-15.539-17.417-33.788-17.417-47.626
		c0-29.26,23.816-53.064,53.09-53.064c29.273,0,53.09,23.804,53.09,53.064c0,13.994-6.514,32.241-17,47.618
		C107.636,168.532,94.481,178.034,82.843,178.034z M82.843,54.282c-27.62,0-50.09,22.458-50.09,50.064
		c0,13.261,6.47,30.856,16.885,45.92c10.722,15.51,23.135,24.769,33.205,24.769c10.475,0,23.04-9.256,33.611-24.76
		c10.164-14.906,16.479-32.505,16.479-45.929C132.933,76.74,110.463,54.282,82.843,54.282z"/>
	<path fill="#3A312A" d="M69.662,103.763c0,2.78-2.254,5.033-5.035,5.033c-2.781,0-5.035-2.253-5.035-5.033
		c0-2.779,2.254-5.033,5.035-5.033C67.408,98.73,69.662,100.984,69.662,103.763z"/>
	<path fill="#3A312A" d="M106.09,103.763c0,2.78-2.254,5.033-5.035,5.033c-2.781,0-5.035-2.253-5.035-5.033
		c0-2.779,2.254-5.033,5.035-5.033C103.836,98.73,106.09,100.984,106.09,103.763z"/>
	<path fill="#F59689" d="M63.237,118.726c0,3.579-3.884,6.481-8.674,6.481c-4.791,0-8.674-2.902-8.674-6.481
		c0-3.58,3.884-6.481,8.674-6.481C59.354,112.245,63.237,115.146,63.237,118.726z"/>
	<path fill="#F59689" d="M119.793,118.726c0,3.579-3.883,6.481-8.674,6.481c-4.79,0-8.674-2.902-8.674-6.481
		c0-3.58,3.884-6.481,8.674-6.481C115.91,112.245,119.793,115.146,119.793,118.726z"/>
	<path fill="#3A312A" d="M41.257,241.121c-0.828,0-1.5-0.672-1.5-1.5v-21.172c0-0.828,0.672-1.5,1.5-1.5c0.828,0,1.5,0.672,1.5,1.5
		v21.172C42.757,240.449,42.085,241.121,41.257,241.121z"/>
	<path fill="#3A312A" d="M124.425,241.121c-0.828,0-1.5-0.672-1.5-1.5v-21.172c0-0.828,0.672-1.5,1.5-1.5c0.828,0,1.5,0.672,1.5,1.5
		v21.172C125.925,240.449,125.253,241.121,124.425,241.121z"/>
	<path fill="#3A312A" d="M82.841,147.671c-7.284,0-12.536-3.271-15.609-9.724c-0.356-0.747-0.038-1.643,0.71-1.999
		c0.748-0.354,1.643-0.038,1.999,0.71c2.568,5.392,6.788,8.013,12.9,8.013c7.824,0,11.827-5.164,12.851-7.895
		c0.29-0.776,1.153-1.171,1.931-0.878c0.775,0.29,1.169,1.155,0.878,1.931C96.724,142.569,91.065,147.671,82.841,147.671z"/>
	<path fill="#87796F" d="M141.555,85.447c0,5.283-0.688,10.404-1.987,15.279c-13.214-6.367-25.783-14.184-37.428-23.021
		c-3.416-2.588-6.779-5.283-9.991-8.139c-3.942-3.457-7.67-7.183-11.033-11.22C73.8,49.541,68.428,39.427,63.884,28.893
		c5.737-1.858,11.86-2.856,18.22-2.856c17.006,0,32.347,7.14,43.186,18.586C135.378,55.264,141.555,69.631,141.555,85.447z"/>
	<path fill="#3A312A" d="M139.568,102.227c-0.223,0-0.445-0.05-0.651-0.148c-12.98-6.255-25.659-14.053-37.684-23.178
		c-3.846-2.913-7.144-5.6-10.082-8.213c-4.2-3.684-7.968-7.516-11.188-11.382C73.447,51.464,67.9,41.989,62.507,29.488
		c-0.168-0.389-0.164-0.829,0.011-1.214c0.174-0.385,0.502-0.678,0.904-0.808c6.004-1.944,12.29-2.93,18.683-2.93
		c16.914,0,32.639,6.768,44.275,19.056c10.754,11.344,16.676,26.208,16.676,41.855c0,5.323-0.686,10.594-2.038,15.666
		c-0.115,0.432-0.417,0.79-0.823,0.977C139.996,102.181,139.782,102.227,139.568,102.227z M65.931,29.833
		c5.066,11.476,10.279,20.262,16.338,27.554c3.12,3.745,6.777,7.464,10.869,11.052c2.887,2.567,6.125,5.205,9.908,8.071
		c11.354,8.615,23.293,16.03,35.516,22.057c0.992-4.271,1.494-8.675,1.494-13.119c0-14.875-5.63-29.007-15.854-39.791
		c-11.065-11.685-26.016-18.119-42.098-18.119C76.586,27.537,71.153,28.309,65.931,29.833z"/>
	<path fill="#87796F" d="M125.291,44.624c-10.227,9.32-21.357,17.566-33.142,24.943c-20.895,13.089-43.809,23.418-67.261,32.019
		c-1.45-5.132-2.224-10.544-2.224-16.138c0-26.457,17.307-48.876,41.22-56.554c5.737-1.858,11.86-2.856,18.22-2.856
		C99.11,26.037,114.451,33.178,125.291,44.624z"/>
	<path fill="#3A312A" d="M24.888,103.085c-0.234,0-0.469-0.055-0.682-0.164c-0.372-0.189-0.649-0.526-0.762-0.928
		c-1.513-5.354-2.28-10.921-2.28-16.546c0-26.566,16.983-49.867,42.261-57.982c6.001-1.943,12.287-2.929,18.68-2.929
		c16.914,0,32.639,6.768,44.275,19.056c0.277,0.292,0.425,0.684,0.41,1.087c-0.015,0.402-0.191,0.782-0.488,1.053
		c-9.833,8.96-21.056,17.406-33.358,25.105c-19.138,11.988-41.23,22.506-67.54,32.155C25.237,103.055,25.062,103.085,24.888,103.085
		z M82.104,27.537c-6.079,0-12.054,0.937-17.759,2.783C40.31,38.037,24.164,60.189,24.164,85.447c0,4.802,0.588,9.558,1.748,14.161
		c25.436-9.421,46.854-19.671,65.44-31.313c11.673-7.306,22.357-15.287,31.779-23.741C112.183,33.567,97.674,27.537,82.104,27.537z"
		/>
	<path fill="#DECAAD" d="M146.679,209.542h-15c-1.63-13.92-13.51-24.77-27.87-24.77h15
		C133.169,184.772,145.049,195.622,146.679,209.542z"/>
	<rect x="131.879" y="212.542" fill="#D04E5D" width="15" height="25.58"/>
	<path fill="#EF6D7A" d="M205.992,135.574v13.32h-4.343c-1.364,0-2.476-1.108-2.476-2.476v-8.369c0-1.368,1.112-2.476,2.476-2.476
		H205.992z"/>
	<path fill="#3A312A" d="M205.992,150.394h-4.343c-2.192,0-3.977-1.783-3.977-3.976v-8.369c0-2.192,1.784-3.976,3.977-3.976h4.343
		c0.828,0,1.5,0.672,1.5,1.5v13.32C207.492,149.722,206.82,150.394,205.992,150.394z M201.649,137.073
		c-0.538,0-0.977,0.438-0.977,0.976v8.369c0,0.538,0.438,0.976,0.977,0.976h2.843v-10.32H201.649z"/>
	<path fill="#87796F" d="M209.97,157.931v5.893c0,2.057,1.668,3.725,3.725,3.725h9.382c2.057,0,3.725-1.668,3.725-3.725v-5.893
		H209.97z"/>
	<path fill="#3A312A" d="M223.078,169.05h-9.383c-2.882,0-5.226-2.344-5.226-5.226v-5.894c0-0.828,0.672-1.5,1.5-1.5h16.833
		c0.828,0,1.5,0.672,1.5,1.5v5.894C228.303,166.706,225.959,169.05,223.078,169.05z M211.47,159.431v4.394
		c0,1.228,0.998,2.226,2.226,2.226h9.383c1.227,0,2.225-0.998,2.225-2.226v-4.394H211.47z"/>
	<rect x="215.091" y="167.55" fill="#87796F" width="6.591" height="71.922"/>
	<path fill="#3A312A" d="M221.682,240.972h-6.591c-0.828,0-1.5-0.672-1.5-1.5V167.55c0-0.828,0.672-1.5,1.5-1.5h6.591
		c0.828,0,1.5,0.672,1.5,1.5v71.922C223.182,240.3,222.51,240.972,221.682,240.972z M216.591,237.972h3.591V169.05h-3.591V237.972z"
		/>
	<path fill="#8AC3DA" d="M205.993,106.507v43.84c0,6.845,5.549,12.393,12.393,12.393h0c6.845,0,12.394-5.549,12.394-12.393v-43.84
		H205.993z"/>
	<path fill="#3A312A" d="M218.387,164.24c-7.661,0-13.894-6.232-13.894-13.894v-43.839c0-0.828,0.672-1.5,1.5-1.5h24.787
		c0.828,0,1.5,0.672,1.5,1.5v43.839C232.28,158.008,226.048,164.24,218.387,164.24z M207.493,108.008v42.339
		c0,6.007,4.887,10.894,10.894,10.894c6.007,0,10.894-4.887,10.894-10.894v-42.339H207.493z"/>
	<path fill="#8AC3DA" d="M182.994,92.638l-14.366,2.245V123l46.176,7.215c13.058,2.04,24.855-8.056,24.855-21.273v0
		c0-13.217-11.797-23.314-24.855-21.273l-17.658,2.759L182.994,92.638z"/>
	<path fill="#3A312A" d="M218.138,131.974c-1.186,0-2.377-0.091-3.565-0.276l-46.176-7.215c-0.73-0.114-1.269-0.743-1.269-1.482
		V94.883c0-0.739,0.538-1.368,1.269-1.482l14.366-2.244c0.817-0.12,1.586,0.432,1.714,1.251c0.128,0.818-0.433,1.586-1.251,1.714
		l-13.098,2.046v25.549l44.907,7.017c5.789,0.905,11.666-0.762,16.118-4.573c4.452-3.811,7.006-9.357,7.006-15.218
		c0-5.86-2.554-11.407-7.006-15.218c-4.453-3.813-10.33-5.481-16.118-4.573l-17.658,2.76c-0.811,0.123-1.585-0.432-1.714-1.251
		c-0.128-0.818,0.433-1.586,1.251-1.714l17.658-2.76c6.658-1.039,13.412,0.877,18.532,5.259c5.119,4.381,8.055,10.759,8.055,17.497
		c0,6.738-2.936,13.116-8.055,17.497C228.899,130.038,223.59,131.974,218.138,131.974z"/>
	
		<ellipse transform="matrix(0.2298 -0.9732 0.9732 0.2298 61.8996 296.0965)" fill="#87796F" cx="218.017" cy="108.942" rx="14.613" ry="14.613"/>
	<path fill="#3A312A" d="M218.017,125.055c-8.885,0-16.113-7.229-16.113-16.113s7.229-16.113,16.113-16.113
		s16.113,7.229,16.113,16.113S226.901,125.055,218.017,125.055z M218.017,95.828c-7.23,0-13.113,5.883-13.113,13.113
		s5.883,13.113,13.113,13.113s13.113-5.883,13.113-13.113S225.247,95.828,218.017,95.828z"/>
	<path fill="#EF6D7A" d="M163.388,89.334h-6.229v39.215h6.229c2.894,0,5.24-2.346,5.24-5.24V94.574
		C168.628,91.68,166.282,89.334,163.388,89.334z"/>
	<path fill="#3A312A" d="M163.388,130.049h-6.229c-0.828,0-1.5-0.672-1.5-1.5V89.334c0-0.828,0.672-1.5,1.5-1.5h6.229
		c3.717,0,6.74,3.023,6.74,6.739v28.736C170.128,127.025,167.105,130.049,163.388,130.049z M158.659,127.049h4.729
		c2.063,0,3.74-1.678,3.74-3.739V94.573c0-2.061-1.678-3.739-3.74-3.739h-4.729V127.049z"/>
	<path fill="#D7E057" d="M197.252,26.056c0,0,3.408,12.659,13.222,13.246c0,0-13.1,4.525-13.321,14.202
		c0,0-2.578-13.572-12.925-14.059C184.228,39.445,196.278,37.619,197.252,26.056z"/>
	<path fill="#3A312A" d="M197.151,55.003c-0.713,0-1.335-0.506-1.473-1.218c-0.023-0.124-2.494-12.417-11.521-12.842
		c-0.77-0.036-1.388-0.65-1.428-1.421c-0.04-0.77,0.511-1.444,1.273-1.561c0.441-0.068,10.895-1.817,11.754-12.032
		c0.062-0.726,0.635-1.301,1.359-1.367c0.737-0.055,1.394,0.399,1.584,1.102c0.031,0.116,3.259,11.626,11.863,12.141
		c0.714,0.042,1.297,0.583,1.395,1.292c0.098,0.708-0.318,1.388-0.994,1.622c-0.121,0.042-12.118,4.311-12.313,12.819
		c-0.018,0.767-0.611,1.396-1.375,1.46C197.235,55.001,197.193,55.003,197.151,55.003z M189.411,39.273
		c3.878,1.97,6.229,5.746,7.586,8.877c2.026-4.021,5.942-6.787,8.949-8.427c-4.134-1.843-6.783-5.651-8.334-8.723
		C195.819,35.361,192.342,37.869,189.411,39.273z"/>
	<path fill="#D7E057" d="M175.553,43.036c0,0,2.411,8.954,9.352,9.369c0,0-9.266,3.201-9.422,10.045c0,0-1.824-9.6-9.142-9.944
		C166.341,52.507,174.864,51.215,175.553,43.036z"/>
	<path fill="#3A312A" d="M175.482,63.951c-0.714,0-1.337-0.507-1.473-1.22c-0.016-0.082-1.704-8.442-7.739-8.726
		c-0.77-0.036-1.388-0.65-1.428-1.421c-0.04-0.77,0.511-1.444,1.273-1.561c0.296-0.047,7.363-1.243,7.942-8.113
		c0.062-0.726,0.636-1.303,1.361-1.368c0.718-0.057,1.392,0.4,1.582,1.102l0,0c0.021,0.079,2.227,7.92,7.993,8.265
		c0.714,0.042,1.299,0.584,1.396,1.293c0.097,0.709-0.32,1.388-0.996,1.622c-0.081,0.028-8.282,2.953-8.412,8.662
		c-0.018,0.767-0.611,1.397-1.376,1.461C175.565,63.949,175.523,63.951,175.482,63.951z M170.963,52.424
		c2.107,1.332,3.523,3.394,4.447,5.279c1.376-2.232,3.516-3.872,5.365-4.973c-2.287-1.269-3.885-3.35-4.941-5.224
		C174.66,49.793,172.818,51.382,170.963,52.424z"/>
	<path fill="#D7E057" d="M175.553,16.378c0,0,2.411,8.954,9.352,9.37c0,0-9.266,3.201-9.422,10.045c0,0-1.824-9.6-9.142-9.944
		C166.341,25.849,174.864,24.558,175.553,16.378z"/>
	<path fill="#3A312A" d="M175.482,37.294c-0.714,0-1.337-0.507-1.473-1.22c-0.016-0.082-1.704-8.442-7.739-8.726
		c-0.77-0.036-1.388-0.65-1.428-1.421c-0.04-0.77,0.511-1.444,1.273-1.561c0.296-0.047,7.363-1.243,7.942-8.113
		c0.062-0.726,0.636-1.303,1.361-1.368c0.718-0.056,1.392,0.399,1.582,1.102l0,0c0.021,0.079,2.227,7.92,7.993,8.265
		c0.714,0.042,1.299,0.584,1.396,1.293c0.097,0.709-0.32,1.388-0.996,1.622c-0.081,0.028-8.282,2.953-8.412,8.662
		c-0.018,0.768-0.611,1.398-1.376,1.461C175.565,37.292,175.523,37.294,175.482,37.294z M170.963,25.766
		c2.107,1.333,3.523,3.395,4.447,5.28c1.376-2.232,3.516-3.872,5.365-4.973c-2.287-1.268-3.885-3.35-4.941-5.224
		C174.66,23.136,172.818,24.725,170.963,25.766z"/>
</g>
</svg>
