<?xml version="1.0" encoding="utf-8"?>
<!-- Generator: Adobe Illustrator 24.0.0, SVG Export Plug-In . SVG Version: 6.00 Build 0)  -->
<svg version="1.1" id="Layer_1" xmlns="http://www.w3.org/2000/svg" xmlns:xlink="http://www.w3.org/1999/xlink" x="0px" y="0px"
	 viewBox="0 0 256 256" enable-background="new 0 0 256 256" xml:space="preserve">
<g>
	<path fill="#D7E057" d="M63.123,26.407c0,0,3.408,12.659,13.222,13.246c0,0-13.1,4.525-13.321,14.202
		c0,0-2.578-13.572-12.925-14.059C50.098,39.796,62.149,37.971,63.123,26.407z"/>
	<path fill="#3A312A" d="M63.022,55.354c-0.713,0-1.335-0.506-1.473-1.217c-0.023-0.124-2.494-12.417-11.521-12.842
		c-0.771-0.037-1.388-0.651-1.428-1.421c-0.04-0.771,0.511-1.445,1.273-1.561c0.441-0.069,10.894-1.817,11.754-12.033
		c0.062-0.725,0.635-1.301,1.359-1.367c0.735-0.062,1.393,0.4,1.584,1.101c0.031,0.116,3.259,11.626,11.863,12.141
		c0.714,0.043,1.298,0.584,1.396,1.292c0.098,0.708-0.318,1.388-0.994,1.623c-0.121,0.042-12.119,4.311-12.313,12.819
		c-0.018,0.767-0.61,1.396-1.375,1.459C63.106,55.353,63.064,55.354,63.022,55.354z M55.281,39.625
		c3.878,1.969,6.23,5.746,7.587,8.876c2.026-4.021,5.941-6.787,8.949-8.427c-4.135-1.842-6.783-5.652-8.334-8.723
		C61.69,35.712,58.212,38.22,55.281,39.625z"/>
	<path fill="#D7E057" d="M41.424,43.387c0,0,2.411,8.954,9.352,9.369c0,0-9.266,3.201-9.422,10.045c0,0-1.824-9.6-9.142-9.944
		C32.212,52.858,40.735,51.566,41.424,43.387z"/>
	<path fill="#3A312A" d="M41.353,64.302c-0.714,0-1.337-0.507-1.473-1.22c-0.016-0.082-1.703-8.441-7.738-8.725
		c-0.771-0.037-1.388-0.651-1.428-1.421c-0.04-0.771,0.511-1.445,1.273-1.561c0.296-0.047,7.363-1.243,7.941-8.114
		c0.062-0.726,0.636-1.303,1.361-1.368c0.725-0.063,1.392,0.399,1.581,1.101l0,0c0.022,0.079,2.229,7.92,7.995,8.265
		c0.714,0.043,1.299,0.584,1.396,1.293c0.097,0.709-0.32,1.388-0.997,1.622c-0.08,0.028-8.282,2.952-8.412,8.661
		c-0.018,0.767-0.611,1.397-1.377,1.461C41.436,64.3,41.394,64.302,41.353,64.302z M36.834,52.774
		c2.107,1.333,3.523,3.394,4.447,5.279c1.376-2.231,3.515-3.872,5.364-4.972c-2.286-1.269-3.884-3.35-4.941-5.223
		C40.531,50.145,38.689,51.733,36.834,52.774z"/>
	<path fill="#D7E057" d="M41.424,16.73c0,0,2.411,8.954,9.352,9.37c0,0-9.266,3.201-9.422,10.045c0,0-1.824-9.6-9.142-9.944
		C32.212,26.2,40.735,24.909,41.424,16.73z"/>
	<path fill="#3A312A" d="M41.353,37.645c-0.714,0-1.337-0.507-1.473-1.22c-0.016-0.082-1.703-8.442-7.738-8.726
		c-0.771-0.037-1.388-0.651-1.428-1.421c-0.04-0.771,0.511-1.445,1.273-1.56c0.296-0.047,7.363-1.243,7.941-8.113
		c0.062-0.726,0.636-1.303,1.361-1.368c0.725-0.063,1.392,0.399,1.581,1.102l0,0c0.022,0.079,2.229,7.92,7.995,8.265
		c0.714,0.043,1.299,0.584,1.396,1.293c0.097,0.709-0.32,1.388-0.997,1.622c-0.08,0.028-8.282,2.952-8.412,8.662
		c-0.018,0.767-0.611,1.397-1.377,1.461C41.436,37.644,41.394,37.645,41.353,37.645z M36.834,26.117
		c2.107,1.332,3.523,3.394,4.447,5.28c1.376-2.232,3.515-3.872,5.364-4.972c-2.286-1.27-3.884-3.35-4.941-5.224
		C40.531,23.487,38.689,25.076,36.834,26.117z"/>
	<path fill="#87796F" d="M178.306,59.78v4.51h-64v-4.51c0-6.07,4.91-10.99,10.98-10.99h42.03
		C173.386,48.79,178.306,53.71,178.306,59.78z"/>
	<path fill="#3A312A" d="M178.306,65.79h-64c-0.828,0-1.5-0.671-1.5-1.5v-4.51c0-6.887,5.599-12.49,12.48-12.49h42.029
		c6.887,0,12.49,5.603,12.49,12.49v4.51C179.806,65.119,179.134,65.79,178.306,65.79z M115.806,62.79h61v-3.01
		c0-5.233-4.257-9.49-9.49-9.49h-42.029c-5.228,0-9.48,4.257-9.48,9.49V62.79z"/>
	<path fill="#FAE6CA" d="M164.681,48.795h-36.75V27.781c0-6.068,4.919-10.986,10.986-10.986h14.777
		c6.068,0,10.986,4.919,10.986,10.986V48.795z"/>
	<path fill="#3A312A" d="M164.681,50.295h-36.75c-0.828,0-1.5-0.671-1.5-1.5V27.781c0-6.885,5.601-12.486,12.486-12.486h14.777
		c6.885,0,12.486,5.602,12.486,12.486v21.014C166.181,49.624,165.509,50.295,164.681,50.295z M129.431,47.295h33.75V27.781
		c0-5.231-4.256-9.486-9.486-9.486h-14.777c-5.231,0-9.486,4.255-9.486,9.486V47.295z"/>
	<circle fill="#3A312A" cx="146.306" cy="32.795" r="6"/>
	<path fill="#89C4DB" d="M78.307,187.607l11.378,32.616c3.979,11.406,14.736,19.047,26.816,19.047h54.656
		c12.08,0,22.838-7.641,26.816-19.047l21.099-60.482c10.571-30.304,3.059-63.98-19.389-86.918h0
		c-5.343-5.46-12.66-8.537-20.298-8.537h-71.111c-7.639,0-14.956,3.077-20.298,8.537h0c-22.447,22.938-29.959,56.615-19.388,86.918
		l4.877,13.981L78.307,187.607z"/>
	<path fill="#3A312A" d="M171.157,240.77h-54.656c-12.702,0-24.048-8.059-28.231-20.052l-11.378-32.616
		c-0.273-0.782,0.14-1.638,0.922-1.911c0.78-0.271,1.638,0.14,1.91,0.922l11.378,32.616c3.765,10.79,13.972,18.04,25.399,18.04
		h54.656c11.429,0,21.636-7.25,25.4-18.04l21.099-60.482c10.455-29.973,3.157-62.687-19.045-85.375
		c-5.028-5.139-12.036-8.086-19.227-8.086h-71.111c-7.19,0-14.198,2.947-19.226,8.085c-22.203,22.688-29.501,55.402-19.045,85.376
		l4.877,13.981c0.273,0.782-0.14,1.638-0.922,1.911c-0.779,0.272-1.637-0.14-1.91-0.922l-4.877-13.981
		c-10.834-31.057-3.273-64.954,19.732-88.462c5.589-5.711,13.378-8.987,21.37-8.987h71.111c7.992,0,15.781,3.276,21.371,8.987
		c23.005,23.508,30.565,57.405,19.732,88.462l-21.099,60.482C195.206,232.711,183.86,240.77,171.157,240.77z"/>
	<path fill="#D7E057" d="M177.19,182.378l3.911-22.636c5.236-30.304,1.515-63.98-9.604-86.918c-2.647-5.46-6.271-8.537-10.055-8.537
		h-35.226c-3.784,0-7.409,3.077-10.055,8.537c-11.12,22.938-14.841,56.615-9.604,86.918l10.451,60.482
		c1.971,11.406,7.3,19.047,13.284,19.047h27.075c5.984,0,11.313-7.641,13.284-19.047l4.006-23.184L177.19,182.378z"/>
	<path fill="#3A312A" d="M157.367,240.77h-27.075c-6.837,0-12.632-7.965-14.763-20.291l-10.451-60.482
		c-5.323-30.809-1.594-64.463,9.733-87.828c2.933-6.05,6.982-9.382,11.404-9.382h35.227c4.422,0,8.472,3.332,11.404,9.382
		c11.327,23.365,15.057,57.019,9.733,87.828l-3.911,22.636c-0.143,0.816-0.917,1.363-1.734,1.223
		c-0.816-0.141-1.363-0.917-1.223-1.733l3.911-22.636c5.144-29.765,1.424-63.525-9.475-86.009c-2.369-4.888-5.542-7.691-8.705-7.691
		h-35.227c-3.163,0-6.336,2.803-8.705,7.691c-10.899,22.484-14.619,56.244-9.475,86.009l10.451,60.483
		c1.812,10.481,6.666,17.802,11.806,17.802h27.075c5.14,0,9.994-7.32,11.805-17.802l4.006-23.184
		c0.142-0.817,0.91-1.366,1.734-1.223c0.815,0.141,1.363,0.917,1.223,1.733l-4.006,23.184
		C169.999,232.805,164.204,240.77,157.367,240.77z"/>
	<path fill="#6CA8BF" d="M217.659,159.25l-21.1,60.48c-3.77,10.79-13.97,18.04-25.4,18.04h-6.87c0.6-0.56,1.17-1.18,1.72-1.88
		c7.14-2.81,12.92-8.62,15.55-16.16l21.1-60.48c10.45-29.98,3.15-62.69-19.05-85.38c-4.01-4.1-9.27-6.79-14.88-7.71
		c-0.12-0.13-0.25-0.25-0.37-0.37h11.03c7.19,0,14.19,2.94,19.22,8.08C220.809,96.56,228.109,129.27,217.659,159.25z"/>
</g>
</svg>
