<?xml version="1.0" encoding="utf-8"?>
<!-- Generator: Adobe Illustrator 24.0.0, SVG Export Plug-In . SVG Version: 6.00 Build 0)  -->
<svg version="1.1" id="Layer_1" xmlns="http://www.w3.org/2000/svg" xmlns:xlink="http://www.w3.org/1999/xlink" x="0px" y="0px"
	 viewBox="0 0 256 256" enable-background="new 0 0 256 256" xml:space="preserve">
<g>
	<path fill="#D7E057" d="M197.093,25.889c0,0,3.408,12.659,13.222,13.246c0,0-13.1,4.525-13.321,14.202
		c0,0-2.578-13.572-12.925-14.059C184.069,39.278,196.119,37.453,197.093,25.889z"/>
	<path fill="#3A312A" d="M196.993,54.837c-0.713,0-1.336-0.506-1.472-1.218c-0.024-0.124-2.494-12.417-11.523-12.843
		c-0.77-0.036-1.387-0.65-1.427-1.421c-0.039-0.77,0.511-1.444,1.273-1.561c0.441-0.068,10.895-1.816,11.755-12.032
		c0.061-0.726,0.634-1.301,1.359-1.367c0.723-0.068,1.393,0.398,1.583,1.102c0.032,0.116,3.258,11.626,11.864,12.142
		c0.714,0.043,1.297,0.584,1.395,1.292c0.098,0.708-0.319,1.388-0.994,1.622c-0.121,0.042-12.118,4.311-12.313,12.819
		c-0.018,0.767-0.61,1.396-1.374,1.46C197.077,54.835,197.034,54.837,196.993,54.837z M189.251,39.107
		c3.878,1.969,6.23,5.746,7.587,8.876c2.026-4.021,5.942-6.786,8.949-8.427c-4.134-1.842-6.783-5.651-8.334-8.723
		C195.661,35.194,192.183,37.702,189.251,39.107z"/>
	<path fill="#D7E057" d="M175.394,42.869c0,0,2.411,8.954,9.352,9.369c0,0-9.266,3.201-9.422,10.045c0,0-1.824-9.6-9.142-9.944
		C166.182,52.34,174.705,51.049,175.394,42.869z"/>
	<path fill="#3A312A" d="M175.323,63.784c-0.714,0-1.337-0.507-1.473-1.22c-0.016-0.082-1.704-8.442-7.739-8.727
		c-0.77-0.036-1.387-0.65-1.427-1.421c-0.04-0.77,0.511-1.444,1.273-1.561c0.296-0.047,7.364-1.242,7.942-8.113
		c0.061-0.726,0.635-1.303,1.36-1.368c0.731-0.069,1.392,0.399,1.582,1.102l0,0c0.021,0.079,2.227,7.92,7.994,8.266
		c0.714,0.043,1.299,0.584,1.396,1.293c0.098,0.709-0.32,1.389-0.996,1.622c-0.081,0.028-8.282,2.952-8.412,8.661
		c-0.018,0.767-0.611,1.397-1.376,1.461C175.406,63.782,175.364,63.784,175.323,63.784z M170.804,52.257
		c2.107,1.332,3.523,3.395,4.447,5.279c1.376-2.232,3.515-3.871,5.365-4.972c-2.287-1.27-3.884-3.351-4.941-5.225
		C174.501,49.627,172.66,51.216,170.804,52.257z"/>
	<path fill="#D7E057" d="M175.394,16.212c0,0,2.411,8.954,9.352,9.37c0,0-9.266,3.201-9.422,10.045c0,0-1.824-9.6-9.142-9.944
		C166.182,25.683,174.705,24.391,175.394,16.212z"/>
	<path fill="#3A312A" d="M175.323,37.127c-0.713,0-1.337-0.507-1.472-1.22c-0.016-0.082-1.704-8.442-7.739-8.726
		c-0.77-0.036-1.387-0.65-1.427-1.421c-0.04-0.77,0.511-1.444,1.273-1.561c0.296-0.047,7.364-1.242,7.942-8.113
		c0.061-0.725,0.635-1.303,1.36-1.368c0.731-0.063,1.392,0.399,1.582,1.101l0,0c0.021,0.079,2.227,7.92,7.993,8.265
		c0.715,0.042,1.299,0.584,1.396,1.293c0.098,0.709-0.319,1.388-0.996,1.622c-0.08,0.028-8.282,2.953-8.412,8.662
		c-0.018,0.768-0.611,1.398-1.376,1.461C175.406,37.125,175.364,37.127,175.323,37.127z M170.804,25.6
		c2.107,1.332,3.523,3.395,4.447,5.279c1.376-2.232,3.515-3.872,5.364-4.973c-2.287-1.27-3.884-3.35-4.941-5.224
		C174.501,22.97,172.66,24.559,170.804,25.6z"/>
	<path fill="#F6E2C6" d="M149.985,239.458v-27.28c0-16.62-13.46-30.08-30.1-30.08h-19.9v-16.857h-33.44v16.857h-19.89
		c-16.64,0-30.13,13.46-30.13,30.08v27.28H149.985z"/>
	<path fill="#3A312A" d="M149.985,240.958H16.525c-0.829,0-1.5-0.672-1.5-1.5v-27.28c0-17.413,14.189-31.58,31.63-31.58h18.39
		v-15.357c0-0.828,0.671-1.5,1.5-1.5h33.44c0.829,0,1.5,0.672,1.5,1.5v15.357h18.4c17.424,0,31.6,14.167,31.6,31.58v27.28
		C151.485,240.286,150.814,240.958,149.985,240.958z M18.025,237.958h130.46v-25.78c0-15.759-12.83-28.58-28.6-28.58h-19.9
		c-0.829,0-1.5-0.672-1.5-1.5v-15.357h-30.44v15.357c0,0.828-0.671,1.5-1.5,1.5h-19.89c-15.787,0-28.63,12.821-28.63,28.58V237.958z
		"/>
	<path fill="#87796F" d="M149.985,239.458v-27.28c0-16.62-13.46-30.08-30.1-30.08h-10.44c-3.22,4.32-13.73,7.5-26.19,7.5
		c-12.46,0-22.97-3.18-26.19-7.5h-10.41c-16.64,0-30.13,13.46-30.13,30.08v27.28H149.985z"/>
	<path fill="#3A312A" d="M149.985,240.958H16.525c-0.829,0-1.5-0.672-1.5-1.5v-27.28c0-17.413,14.189-31.58,31.63-31.58h10.41
		c0.474,0,0.92,0.224,1.203,0.604c2.555,3.427,11.958,6.896,24.987,6.896c13.03,0,22.433-3.47,24.987-6.896
		c0.283-0.38,0.729-0.604,1.203-0.604h10.44c17.424,0,31.6,14.167,31.6,31.58v27.28
		C151.485,240.286,150.814,240.958,149.985,240.958z M18.025,237.958h130.46v-25.78c0-15.759-12.83-28.58-28.6-28.58h-9.733
		c-4.047,4.512-14.663,7.5-26.897,7.5c-12.234,0-22.85-2.988-26.898-7.5h-9.702c-15.787,0-28.63,12.821-28.63,28.58V237.958z"/>
	<path fill="#8AC5DC" d="M70.146,216.038H52.256v-33.94h-5.6c-1.67,0-3.31,0.14-4.9,0.4v56.9h83v-56.9c-1.58-0.27-3.21-0.4-4.87-0.4
		h-5.63v33.94H87.905H70.146z"/>
	<path fill="#3A312A" d="M124.755,240.898h-83c-0.829,0-1.5-0.672-1.5-1.5v-56.9c0-0.735,0.533-1.362,1.258-1.48
		c1.706-0.278,3.436-0.42,5.142-0.42h5.6c0.829,0,1.5,0.672,1.5,1.5v32.44h16.391c0.829,0,1.5,0.672,1.5,1.5s-0.671,1.5-1.5,1.5
		H52.255c-0.829,0-1.5-0.672-1.5-1.5v-32.44h-4.1c-1.127,0-2.266,0.068-3.4,0.203v54.097h80v-54.103
		c-1.091-0.131-2.219-0.197-3.37-0.197h-4.13v32.44c0,0.828-0.671,1.5-1.5,1.5H87.905c-0.829,0-1.5-0.672-1.5-1.5s0.671-1.5,1.5-1.5
		h24.851v-32.44c0-0.828,0.671-1.5,1.5-1.5h5.63c1.764,0,3.487,0.142,5.123,0.422c0.721,0.123,1.247,0.748,1.247,1.479v56.9
		C126.255,240.226,125.584,240.898,124.755,240.898z"/>
	<circle fill="#87796F" cx="121.256" cy="51.805" r="35.5"/>
	<path fill="#3A312A" d="M121.255,88.806c-20.402,0-37-16.598-37-37c0-20.402,16.598-37,37-37c20.402,0,37,16.598,37,37
		C158.255,72.208,141.657,88.806,121.255,88.806z M121.255,17.806c-18.748,0-34,15.252-34,34c0,18.748,15.252,34,34,34
		c18.748,0,34-15.252,34-34C155.255,33.058,140.003,17.806,121.255,17.806z"/>
	<path fill-rule="evenodd" clip-rule="evenodd" fill="#FCE8CB" d="M44.154,109.751c0,6.424-5.21,11.631-11.638,11.631
		c-6.427,0-11.637-5.208-11.637-11.631c0-6.424,5.21-11.632,11.637-11.632C38.944,98.119,44.154,103.327,44.154,109.751z"/>
	<path fill="#3A312A" d="M32.517,122.882c-7.244,0-13.138-5.891-13.138-13.131c0-7.241,5.893-13.132,13.138-13.132
		c7.244,0,13.137,5.891,13.137,13.132C45.654,116.991,39.761,122.882,32.517,122.882z M32.517,99.619
		c-5.59,0-10.138,4.545-10.138,10.132c0,5.586,4.548,10.131,10.138,10.131c5.59,0,10.137-4.545,10.137-10.131
		C42.654,104.164,38.107,99.619,32.517,99.619z"/>
	
		<ellipse transform="matrix(0.002 -1 1 0.002 24.0672 243.6176)" fill-rule="evenodd" clip-rule="evenodd" fill="#FCE8CB" cx="134.091" cy="109.751" rx="11.631" ry="11.638"/>
	<path fill="#3A312A" d="M134.091,122.882c-7.244,0-13.137-5.891-13.137-13.131c0-7.241,5.894-13.132,13.137-13.132
		c7.244,0,13.138,5.891,13.138,13.132C147.229,116.991,141.335,122.882,134.091,122.882z M134.091,99.619
		c-5.59,0-10.137,4.545-10.137,10.132c0,5.586,4.547,10.131,10.137,10.131c5.59,0,10.138-4.545,10.138-10.131
		C144.229,104.164,139.681,99.619,134.091,99.619z"/>
	<path fill="#FCE8CB" d="M134.894,104.104c0,28.478-27.441,72.189-51.59,72.189c-23.051,0-51.59-43.711-51.59-72.189
		c0-28.478,23.098-51.563,51.59-51.563C111.797,52.541,134.894,75.627,134.894,104.104z"/>
	<path fill="#3A312A" d="M83.304,177.793c-11.055,0-24.391-9.743-35.673-26.063c-10.743-15.539-17.417-33.788-17.417-47.626
		c0-29.26,23.816-53.063,53.09-53.063s53.09,23.804,53.09,53.063c0,13.994-6.514,32.241-16.999,47.618
		C108.097,168.291,94.942,177.793,83.304,177.793z M83.304,54.041c-27.62,0-50.09,22.458-50.09,50.063
		c0,13.261,6.47,30.856,16.885,45.92c10.722,15.51,23.135,24.769,33.205,24.769c10.475,0,23.039-9.256,33.612-24.76
		c10.164-14.906,16.478-32.505,16.478-45.929C133.394,76.499,110.924,54.041,83.304,54.041z"/>
	<path fill="#3A312A" d="M70.125,103.522c0,2.78-2.254,5.033-5.035,5.033c-2.781,0-5.035-2.253-5.035-5.033
		c0-2.779,2.254-5.033,5.035-5.033C67.871,98.489,70.125,100.743,70.125,103.522z"/>
	<path fill="#3A312A" d="M106.554,103.522c0,2.78-2.254,5.033-5.035,5.033c-2.781,0-5.035-2.253-5.035-5.033
		c0-2.779,2.254-5.033,5.035-5.033C104.299,98.489,106.554,100.743,106.554,103.522z"/>
	<path fill="#F5978A" d="M63.7,118.485c0,3.579-3.884,6.481-8.674,6.481c-4.791,0-8.674-2.902-8.674-6.481
		c0-3.58,3.884-6.481,8.674-6.481C59.817,112.004,63.7,114.905,63.7,118.485z"/>
	<path fill="#F5978A" d="M120.256,118.485c0,3.579-3.884,6.481-8.674,6.481c-4.791,0-8.674-2.902-8.674-6.481
		c0-3.58,3.884-6.481,8.674-6.481C116.373,112.004,120.256,114.905,120.256,118.485z"/>
	<path fill="#3A312A" d="M83.303,147.43c-7.284,0-12.536-3.271-15.609-9.723c-0.356-0.748-0.039-1.643,0.709-2
		c0.748-0.352,1.644-0.037,1.999,0.709c2.569,5.393,6.789,8.014,12.901,8.014c7.824,0,11.827-5.164,12.85-7.895
		c0.291-0.776,1.158-1.169,1.931-0.878c0.776,0.29,1.169,1.155,0.878,1.931C97.186,142.328,91.527,147.43,83.303,147.43z"/>
	<path fill="#87796F" d="M142.017,85.206c0,5.283-0.688,10.404-1.987,15.279c-13.214-6.367-25.783-14.184-37.428-23.021
		c-3.416-2.588-6.779-5.283-9.991-8.139c-3.942-3.457-7.67-7.183-11.033-11.221C74.261,49.3,68.89,39.186,64.346,28.652
		c5.737-1.858,11.86-2.856,18.22-2.856c17.006,0,32.347,7.14,43.186,18.586C135.84,55.023,142.017,69.39,142.017,85.206z"/>
	<path fill="#3A312A" d="M140.029,101.985c-0.223,0-0.445-0.05-0.651-0.148c-12.98-6.255-25.659-14.053-37.684-23.178
		c-3.843-2.911-7.14-5.598-10.08-8.213c-4.206-3.688-7.973-7.519-11.189-11.382c-6.516-7.842-12.063-17.316-17.456-29.818
		c-0.167-0.388-0.163-0.828,0.011-1.213c0.174-0.385,0.502-0.678,0.904-0.808c6.003-1.944,12.289-2.93,18.682-2.93
		c16.915,0,32.639,6.768,44.276,19.056c10.753,11.343,16.675,26.207,16.675,41.854c0,5.324-0.686,10.595-2.039,15.666
		c-0.115,0.432-0.417,0.79-0.823,0.977C140.456,101.939,140.243,101.985,140.029,101.985z M66.392,29.592
		c5.066,11.475,10.279,20.262,16.339,27.554c3.115,3.741,6.772,7.46,10.868,11.052c2.889,2.569,6.128,5.207,9.908,8.071
		c11.354,8.615,23.293,16.03,35.516,22.058c0.992-4.271,1.495-8.675,1.495-13.12c0-14.876-5.63-29.008-15.853-39.791
		C113.599,33.73,98.648,27.296,82.566,27.296C77.047,27.296,71.615,28.067,66.392,29.592z"/>
	<path fill="#87796F" d="M125.752,44.382c-10.227,9.32-21.357,17.566-33.142,24.943c-20.895,13.089-43.809,23.418-67.261,32.019
		c-1.45-5.132-2.224-10.544-2.224-16.138c0-26.457,17.307-48.876,41.221-56.554c5.737-1.858,11.86-2.856,18.22-2.856
		C99.572,25.796,114.913,32.936,125.752,44.382z"/>
	<path fill="#3A312A" d="M25.349,102.844c-0.235,0-0.469-0.055-0.682-0.164c-0.372-0.19-0.648-0.526-0.761-0.928
		c-1.513-5.354-2.28-10.921-2.28-16.546c0-26.567,16.984-49.867,42.262-57.981c6-1.943,12.286-2.929,18.679-2.929
		c16.915,0,32.639,6.768,44.276,19.056c0.277,0.292,0.424,0.684,0.41,1.087c-0.015,0.402-0.191,0.782-0.489,1.053
		c-9.833,8.96-21.056,17.407-33.357,25.106c-19.139,11.988-41.231,22.507-67.54,32.155
		C25.698,102.813,25.523,102.844,25.349,102.844z M82.566,27.296c-6.079,0-12.054,0.937-17.758,2.783
		c-24.036,7.716-40.182,29.869-40.182,55.127c0,4.802,0.587,9.558,1.748,14.161c25.435-9.42,46.854-19.67,65.441-31.313
		c11.672-7.305,22.356-15.287,31.779-23.741C112.644,33.326,98.136,27.296,82.566,27.296z"/>
	
		<path fill="#EF6D7A" stroke="#3A312A" stroke-width="3" stroke-linecap="round" stroke-linejoin="round" stroke-miterlimit="10" d="
		M180.483,121.805c-32.53,0-58.991,26.461-58.991,58.992c0,32.525,26.461,58.991,58.991,58.991
		c32.525,0,58.992-26.466,58.992-58.991C239.474,148.266,213.008,121.805,180.483,121.805z M132.022,180.797
		c0-26.725,21.742-48.461,48.461-48.461c11.464,0,22.011,4.006,30.319,10.69l-68.09,68.09
		C136.028,202.807,132.022,192.26,132.022,180.797z M180.483,229.252c-11.469,0-22.016-4.006-30.324-10.69l68.09-68.09
		c6.684,8.308,10.69,18.855,10.69,30.324C228.938,207.516,207.202,229.252,180.483,229.252z"/>
	<circle fill="#D7E057" cx="180.483" cy="180.797" r="38.678"/>
	<path fill="#3A312A" d="M180.483,220.975c-22.154,0-40.178-18.023-40.178-40.178s18.024-40.178,40.178-40.178
		s40.178,18.023,40.178,40.178S202.637,220.975,180.483,220.975z M180.483,143.619c-20.5,0-37.178,16.678-37.178,37.178
		s16.678,37.178,37.178,37.178s37.178-16.678,37.178-37.178S200.983,143.619,180.483,143.619z"/>
	<path fill="#87796F" d="M176.992,207.665v-6.256c-4.412-0.198-8.692-1.383-11.195-2.832l1.976-7.704
		c2.766,1.514,6.651,2.897,10.932,2.897c3.753,0,6.322-1.449,6.322-4.084c0-2.501-2.107-4.082-6.981-5.729
		c-7.046-2.37-11.854-5.663-11.854-12.052c0-5.796,4.083-10.339,11.129-11.723v-6.256h6.454v5.796
		c4.412,0.196,7.375,1.12,9.549,2.174l-1.91,7.441c-1.712-0.725-4.742-2.239-9.483-2.239c-4.281,0-5.664,1.844-5.664,3.688
		c0,2.174,2.305,3.556,7.903,5.663c7.836,2.766,10.998,6.388,10.998,12.315c0,5.861-4.149,10.866-11.723,12.182v6.717H176.992z"/>
	<path fill="#3A312A" d="M183.446,209.165h-6.454c-0.829,0-1.5-0.672-1.5-1.5v-4.854c-3.967-0.357-7.87-1.443-10.446-2.934
		c-0.581-0.336-0.869-1.02-0.702-1.67l1.976-7.705c0.115-0.449,0.431-0.819,0.856-1.004c0.425-0.184,0.913-0.162,1.317,0.061
		c1.851,1.013,5.638,2.713,10.212,2.713c1.131,0,4.822-0.186,4.822-2.584c0-1.191-0.722-2.537-5.961-4.308
		c-5.993-2.016-12.874-5.369-12.874-13.473c0-6.284,4.23-11.147,11.129-12.921v-5.058c0-0.828,0.671-1.5,1.5-1.5h6.454
		c0.829,0,1.5,0.672,1.5,1.5v4.389c3.336,0.281,6.195,1.016,8.703,2.231c0.642,0.312,0.976,1.031,0.799,1.723l-1.91,7.441
		c-0.109,0.423-0.396,0.777-0.788,0.972c-0.391,0.193-0.848,0.208-1.251,0.036l-0.49-0.211c-1.749-0.761-4.391-1.909-8.407-1.909
		c-1.555,0-4.164,0.284-4.164,2.188c0,1.189,1.943,2.382,6.931,4.259c8.381,2.959,11.969,7.065,11.969,13.72
		c0,6.558-4.558,11.712-11.723,13.406v5.493C184.946,208.493,184.274,209.165,183.446,209.165z M178.492,206.165h3.454v-5.217
		c0-0.729,0.524-1.352,1.243-1.477c6.464-1.124,10.48-5.226,10.48-10.705c0-4.425-1.7-7.972-9.997-10.901
		c-5.057-1.902-8.903-3.624-8.903-7.077c0-2.508,1.882-5.188,7.164-5.188c3.796,0,6.566,0.903,8.464,1.675l1.16-4.52
		c-2.238-0.895-4.818-1.398-7.847-1.533c-0.801-0.035-1.433-0.695-1.433-1.498v-4.296h-3.454v4.756c0,0.717-0.507,1.334-1.211,1.472
		c-6.21,1.22-9.918,5.052-9.918,10.251c0,4.897,3.239,8.076,10.831,10.63c4.158,1.404,8.003,3.242,8.003,7.15
		c0,3.393-3.07,5.584-7.822,5.584c-4.078,0-7.591-1.169-9.939-2.229l-1.219,4.754c2.489,1.152,6.076,1.961,9.513,2.116
		c0.801,0.035,1.433,0.695,1.433,1.498V206.165z"/>
	<path fill="#695B51" d="M148.49,232.095v5.86h-15v-19.15C137.7,224.025,142.78,228.525,148.49,232.095z"/>
</g>
</svg>
