<?xml version="1.0" encoding="utf-8"?>
<!-- Generator: Adobe Illustrator 24.0.0, SVG Export Plug-In . SVG Version: 6.00 Build 0)  -->
<svg version="1.1" id="Layer_1" xmlns="http://www.w3.org/2000/svg" xmlns:xlink="http://www.w3.org/1999/xlink" x="0px" y="0px"
	 viewBox="0 0 256 256" enable-background="new 0 0 256 256" xml:space="preserve">
<g>
	<path fill="#87796F" d="M16.5,126.1v93.331c0,8.88,7.2,16.07,16.08,16.07h190.84c8.88,0,16.08-7.19,16.08-16.07V98.58
		c0-8.88-7.2-16.08-16.08-16.08H32.58c-8.88,0-16.08,7.2-16.08,16.08v14.32V126.1z"/>
	<path fill="#3A312A" d="M223.42,237H32.58C22.887,237,15,229.118,15,219.431V126.1c0-0.828,0.672-1.5,1.5-1.5
		c0.828,0,1.5,0.672,1.5,1.5v93.331C18,227.464,24.541,234,32.58,234h190.84c8.039,0,14.58-6.536,14.58-14.569V98.58
		c0-8.039-6.541-14.58-14.58-14.58H32.58C24.541,84,18,90.541,18,98.58v14.32c0,0.828-0.672,1.5-1.5,1.5c-0.828,0-1.5-0.672-1.5-1.5
		V98.58C15,88.887,22.887,81,32.58,81h190.84c9.693,0,17.58,7.887,17.58,17.58v120.851C241,229.118,233.113,237,223.42,237z"/>
	<path fill="#D4D853" d="M47.459,30.173c0,0,3.41,12.659,13.229,13.246c0,0-13.107,4.525-13.328,14.202
		c0,0-2.58-13.572-12.932-14.059C34.428,43.562,46.485,41.737,47.459,30.173z"/>
	<path fill="#3A312A" d="M47.358,59.121c-0.713,0-1.335-0.506-1.473-1.217c-0.023-0.125-2.495-12.419-11.528-12.844
		c-0.771-0.036-1.388-0.65-1.428-1.421c-0.04-0.77,0.511-1.444,1.273-1.56c0.441-0.068,10.9-1.817,11.761-12.032
		c0.062-0.726,0.635-1.301,1.359-1.367c0.737-0.064,1.393,0.399,1.584,1.102c0.031,0.116,3.261,11.626,11.87,12.141
		c0.714,0.042,1.298,0.583,1.396,1.292c0.098,0.708-0.318,1.388-0.994,1.622c-0.121,0.043-12.125,4.312-12.319,12.82
		c-0.018,0.767-0.61,1.396-1.375,1.46C47.442,59.119,47.4,59.121,47.358,59.121z M39.613,43.391c3.881,1.97,6.233,5.748,7.591,8.879
		c2.027-4.022,5.945-6.789,8.954-8.429c-4.137-1.843-6.787-5.653-8.339-8.725C46.025,39.478,42.546,41.986,39.613,43.391z"/>
	<path fill="#D4D853" d="M25.749,47.153c0,0,2.412,8.954,9.357,9.37c0,0-9.271,3.201-9.427,10.045c0,0-1.825-9.6-9.147-9.944
		C16.532,56.624,25.06,55.333,25.749,47.153z"/>
	<path fill="#3A312A" d="M25.678,68.068c-0.714,0-1.337-0.507-1.473-1.22c-0.016-0.082-1.705-8.442-7.743-8.727
		c-0.771-0.036-1.388-0.65-1.428-1.421c-0.04-0.77,0.511-1.444,1.273-1.561c0.296-0.047,7.367-1.242,7.946-8.113
		c0.061-0.726,0.636-1.303,1.361-1.368c0.722-0.058,1.392,0.399,1.581,1.102l0,0c0.022,0.079,2.229,7.92,7.999,8.265
		c0.714,0.042,1.299,0.584,1.396,1.293c0.097,0.709-0.32,1.389-0.997,1.622c-0.08,0.028-8.286,2.953-8.416,8.662
		c-0.018,0.768-0.611,1.397-1.376,1.461C25.761,68.066,25.719,68.068,25.678,68.068z M21.156,56.541
		c2.108,1.333,3.525,3.395,4.449,5.28c1.377-2.232,3.518-3.873,5.368-4.974c-2.288-1.27-3.887-3.351-4.944-5.225
		C24.855,53.91,23.013,55.5,21.156,56.541z"/>
	<path fill="#D4D853" d="M25.749,20.496c0,0,2.412,8.954,9.357,9.37c0,0-9.271,3.201-9.427,10.046c0,0-1.825-9.6-9.147-9.944
		C16.532,29.966,25.06,28.675,25.749,20.496z"/>
	<path fill="#3A312A" d="M25.678,41.411c-0.714,0-1.337-0.507-1.473-1.22c-0.016-0.082-1.705-8.442-7.743-8.727
		c-0.771-0.036-1.388-0.65-1.428-1.421c-0.04-0.769,0.511-1.444,1.273-1.56c0.296-0.047,7.367-1.243,7.946-8.114
		c0.061-0.726,0.636-1.303,1.361-1.368c0.722-0.056,1.392,0.399,1.581,1.102l0,0c0.022,0.079,2.229,7.92,7.999,8.266
		c0.714,0.043,1.299,0.584,1.396,1.293c0.097,0.709-0.32,1.389-0.997,1.622c-0.08,0.028-8.286,2.953-8.416,8.662
		c-0.018,0.768-0.611,1.397-1.376,1.461C25.761,41.409,25.719,41.411,25.678,41.411z M21.156,29.883
		c2.108,1.333,3.525,3.396,4.449,5.281c1.377-2.233,3.518-3.873,5.368-4.974c-2.288-1.269-3.887-3.351-4.944-5.226
		C24.855,27.252,23.013,28.842,21.156,29.883z"/>
	<polygon fill="#D7E057" points="60.419,187.504 239.5,187.504 239.5,171.504 16.5,171.504 16.5,187.504 43.582,187.504 	"/>
	<path fill="#3A312A" d="M239.5,189.004H60.419c-0.828,0-1.5-0.672-1.5-1.5c0-0.828,0.672-1.5,1.5-1.5H238v-13H18v13h25.582
		c0.828,0,1.5,0.672,1.5,1.5c0,0.828-0.672,1.5-1.5,1.5H16.5c-0.828,0-1.5-0.672-1.5-1.5v-16c0-0.828,0.672-1.5,1.5-1.5h223
		c0.828,0,1.5,0.672,1.5,1.5v16C241,188.332,240.328,189.004,239.5,189.004z"/>
	<path fill="#6A5C52" d="M238,98.58V170h-15V98.58c0-8.04-6.54-14.58-14.58-14.58h15C231.46,84,238,90.54,238,98.58z"/>
	<path fill="#6A5C52" d="M238,189v30.43c0,8.03-6.54,14.57-14.58,14.57h-15c8.04,0,14.58-6.54,14.58-14.57V189H238z"/>
	<rect x="223" y="173" fill="#B9C239" width="15" height="13"/>
	<rect x="66.5" y="82.505" fill="#D7E057" width="16" height="153"/>
	<path fill="#3A312A" d="M82.5,237.005h-16c-0.828,0-1.5-0.672-1.5-1.5v-153c0-0.828,0.672-1.5,1.5-1.5h16
		c0.828,0,1.5,0.672,1.5,1.5v153C84,236.333,83.328,237.005,82.5,237.005z M68,234.005h13v-150H68V234.005z"/>
	<circle fill="#8AC5DC" cx="160.5" cy="159.5" r="60.5"/>
	<path fill="#3A312A" d="M160.5,221.5c-34.187,0-62-27.814-62-62s27.813-62,62-62s62,27.813,62,62S194.686,221.5,160.5,221.5z
		 M160.5,100.5c-32.533,0-59,26.467-59,59s26.467,59,59,59s59-26.467,59-59S193.033,100.5,160.5,100.5z"/>
	<path fill="#FCE8CB" d="M144.988,120.264l22.52,72.531l9.008-16.091l-27.006-62.579l0,0
		C146.319,114.125,144.041,117.217,144.988,120.264z"/>
	<path fill="#3A312A" d="M167.508,194.295c-0.052,0-0.104-0.003-0.156-0.008c-0.597-0.063-1.099-0.475-1.276-1.048l-22.52-72.53l0,0
		c-0.594-1.912-0.253-3.934,0.935-5.547c1.188-1.612,3.018-2.537,5.02-2.537c0.599,0,1.14,0.356,1.377,0.905l27.007,62.579
		c0.186,0.43,0.16,0.92-0.068,1.327l-9.009,16.091C168.55,194.005,168.047,194.295,167.508,194.295z M146.42,119.82l21.485,69.195
		l6.94-12.397l-26.265-60.859c-0.664,0.196-1.25,0.604-1.676,1.183C146.288,117.778,146.111,118.827,146.42,119.82L146.42,119.82z"
		/>
	<path fill-rule="evenodd" clip-rule="evenodd" fill="#EB6E7A" d="M193.095,180.982c-5.774-6.917-16.294-7.034-22.221-0.248
		c-4.663,5.339-4.753,13.435-0.212,18.877c5.774,6.918,16.297,7.035,22.223,0.247C197.547,194.519,197.637,186.423,193.095,180.982z
		 M185.507,185.646c3.053,2.424,3.002,7.024-0.104,9.38c-2.117,1.606-5.126,1.572-7.207-0.079c-3.054-2.424-3.003-7.025,0.104-9.381
		C180.417,183.96,183.426,183.994,185.507,185.646z"/>
	<path fill="#3A312A" d="M181.88,206.375c-0.061,0-0.12,0-0.18-0.001c-4.713-0.052-9.155-2.167-12.189-5.803
		c-5.003-5.992-4.902-14.945,0.233-20.824c3.074-3.52,7.489-5.528,12.135-5.528c0.061,0,0.12,0,0.18,0.001
		c4.712,0.053,9.154,2.167,12.188,5.801c5.002,5.991,4.903,14.943-0.23,20.823C190.941,204.365,186.526,206.375,181.88,206.375z
		 M181.879,177.219c-3.779,0-7.371,1.636-9.875,4.502c-4.175,4.779-4.257,12.057-0.19,16.929c2.471,2.96,6.087,4.683,9.92,4.725
		c0.049,0.001,0.098,0.001,0.146,0.001c3.78,0,7.373-1.636,9.877-4.504c4.173-4.78,4.254-12.058,0.188-16.929l0,0
		c-2.47-2.959-6.085-4.68-9.918-4.723C181.977,177.219,181.928,177.219,181.879,177.219z M181.854,197.697
		c-1.635,0-3.268-0.526-4.59-1.575c-1.821-1.446-2.852-3.6-2.825-5.909c0.025-2.308,1.102-4.438,2.955-5.842
		c2.645-2.004,6.449-1.962,9.046,0.101l0,0c1.82,1.445,2.85,3.599,2.825,5.906c-0.025,2.308-1.103,4.438-2.955,5.844
		C185.011,197.206,183.432,197.697,181.854,197.697z M181.851,185.886c-0.937,0-1.874,0.291-2.645,0.876
		c-1.108,0.841-1.753,2.11-1.769,3.485c-0.015,1.375,0.602,2.66,1.691,3.525c1.541,1.224,3.8,1.249,5.368,0.059
		c1.108-0.841,1.752-2.111,1.768-3.486c0.015-1.374-0.602-2.658-1.69-3.523l0,0C183.79,186.198,182.82,185.886,181.851,185.886z"/>
	<path fill="#FCE8CB" d="M171.49,114.125l-27.006,62.579l9.008,16.091l22.52-72.531C176.959,117.217,174.681,114.125,171.49,114.125
		L171.49,114.125z"/>
	<path fill="#3A312A" d="M153.492,194.295c-0.539,0-1.042-0.29-1.309-0.768l-9.009-16.091c-0.229-0.407-0.254-0.897-0.068-1.327
		l27.007-62.579c0.237-0.549,0.778-0.905,1.377-0.905c2.003,0,3.832,0.925,5.02,2.537c1.188,1.613,1.528,3.635,0.935,5.547
		l-22.52,72.53c-0.178,0.573-0.68,0.984-1.276,1.048C153.597,194.292,153.544,194.295,153.492,194.295z M146.154,176.618
		l6.94,12.397l21.485-69.195c0.309-0.993,0.132-2.042-0.485-2.879c-0.426-0.578-1.012-0.986-1.676-1.183L146.154,176.618z"/>
	<path fill-rule="evenodd" clip-rule="evenodd" fill="#EB6E7A" d="M150.337,180.982c-5.774-6.917-16.294-7.034-22.221-0.248
		c-4.662,5.339-4.753,13.435-0.211,18.877c5.774,6.918,16.297,7.035,22.223,0.247C154.789,194.519,154.879,186.423,150.337,180.982z
		 M142.749,185.646c3.053,2.424,3.002,7.024-0.104,9.38c-2.116,1.606-5.126,1.572-7.206-0.079c-3.054-2.424-3.003-7.025,0.104-9.381
		C137.659,183.96,140.669,183.994,142.749,185.646z"/>
	<path fill="#3A312A" d="M139.121,206.375c-0.06,0-0.119,0-0.18-0.001c-4.713-0.053-9.155-2.167-12.189-5.803
		c-5.002-5.992-4.902-14.944,0.232-20.823c3.115-3.565,7.6-5.565,12.316-5.528c4.712,0.053,9.153,2.167,12.186,5.801
		c5.002,5.991,4.903,14.943-0.23,20.823C148.184,204.365,143.769,206.375,139.121,206.375z M139.121,177.219
		c-3.779,0-7.372,1.636-9.876,4.502c-4.174,4.779-4.256,12.057-0.189,16.929c2.471,2.96,6.086,4.683,9.919,4.725
		c0.049,0.001,0.098,0.001,0.146,0.001c3.78,0,7.373-1.636,9.877-4.504c4.173-4.78,4.254-12.058,0.188-16.929l0,0
		c-2.47-2.958-6.085-4.68-9.917-4.723C139.22,177.219,139.17,177.219,139.121,177.219z M139.096,197.697
		c-1.635,0-3.268-0.526-4.59-1.575c-1.821-1.446-2.852-3.6-2.825-5.909c0.025-2.308,1.103-4.438,2.955-5.842
		c2.644-2.006,6.447-1.962,9.046,0.101l0,0c1.82,1.445,2.851,3.599,2.825,5.906c-0.025,2.308-1.103,4.438-2.955,5.844
		C142.253,197.206,140.674,197.697,139.096,197.697z M139.093,185.886c-0.937,0-1.874,0.291-2.645,0.876
		c-1.108,0.841-1.753,2.11-1.768,3.485c-0.015,1.375,0.602,2.66,1.691,3.525c1.541,1.224,3.8,1.249,5.368,0.059
		c1.108-0.841,1.752-2.111,1.768-3.486c0.015-1.374-0.602-2.658-1.69-3.523l0,0C141.032,186.198,140.063,185.886,139.093,185.886z"
		/>
	<path fill-rule="evenodd" clip-rule="evenodd" fill="#3B322A" d="M163.091,152.893c0,1.431-1.16,2.591-2.591,2.591
		c-1.431,0-2.591-1.16-2.591-2.591c0-1.431,1.16-2.591,2.591-2.591C161.931,150.302,163.091,151.462,163.091,152.893z"/>
</g>
</svg>
