<?xml version="1.0" encoding="utf-8"?>
<!-- Generator: Adobe Illustrator 24.0.0, SVG Export Plug-In . SVG Version: 6.00 Build 0)  -->
<svg version="1.1" id="Layer_1" xmlns="http://www.w3.org/2000/svg" xmlns:xlink="http://www.w3.org/1999/xlink" x="0px" y="0px"
	 viewBox="0 0 256 256" enable-background="new 0 0 256 256" xml:space="preserve">
<g>
	<path fill="#87796F" d="M16.5,126.1v93.331c0,8.88,7.2,16.07,16.08,16.07h190.84c8.88,0,16.08-7.19,16.08-16.07V98.58
		c0-8.88-7.2-16.08-16.08-16.08H32.58c-8.88,0-16.08,7.2-16.08,16.08v14.32V126.1z"/>
	<path fill="#3A312A" d="M223.42,237H32.58C22.887,237,15,229.118,15,219.431V126.1c0-0.828,0.672-1.5,1.5-1.5s1.5,0.672,1.5,1.5
		v93.331C18,227.464,24.541,234,32.58,234h190.84c8.039,0,14.58-6.536,14.58-14.569V98.58c0-8.039-6.541-14.58-14.58-14.58H32.58
		C24.541,84,18,90.541,18,98.58v14.32c0,0.828-0.672,1.5-1.5,1.5s-1.5-0.672-1.5-1.5V98.58C15,88.887,22.887,81,32.58,81h190.84
		c9.693,0,17.58,7.887,17.58,17.58v120.851C241,229.118,233.113,237,223.42,237z"/>
	<polygon fill="#D7E057" points="60.419,187.504 239.5,187.504 239.5,171.504 16.5,171.504 16.5,187.504 43.582,187.504 	"/>
	<path fill="#3A312A" d="M239.5,189.004H60.419c-0.828,0-1.5-0.672-1.5-1.5c0-0.828,0.672-1.5,1.5-1.5H238v-13H18v13h25.582
		c0.828,0,1.5,0.672,1.5,1.5c0,0.828-0.672,1.5-1.5,1.5H16.5c-0.828,0-1.5-0.672-1.5-1.5v-16c0-0.828,0.672-1.5,1.5-1.5h223
		c0.828,0,1.5,0.672,1.5,1.5v16C241,188.332,240.328,189.004,239.5,189.004z"/>
	<path fill="#D4D853" d="M47.459,30.173c0,0,3.41,12.659,13.229,13.246c0,0-13.107,4.525-13.328,14.202
		c0,0-2.58-13.572-12.932-14.059C34.428,43.562,46.485,41.737,47.459,30.173z"/>
	<path fill="#3A312A" d="M47.358,59.121c-0.713,0-1.335-0.506-1.473-1.217c-0.023-0.125-2.495-12.419-11.528-12.844
		c-0.771-0.036-1.388-0.65-1.428-1.421c-0.04-0.77,0.511-1.444,1.273-1.56c0.441-0.068,10.9-1.817,11.761-12.032
		c0.061-0.726,0.635-1.301,1.359-1.367c0.729-0.064,1.393,0.399,1.584,1.102c0.031,0.116,3.261,11.626,11.87,12.141
		c0.714,0.042,1.298,0.583,1.396,1.292c0.098,0.708-0.318,1.388-0.994,1.622c-0.121,0.043-12.125,4.312-12.319,12.82
		c-0.018,0.767-0.61,1.396-1.375,1.46C47.442,59.119,47.4,59.121,47.358,59.121z M39.613,43.391c3.881,1.97,6.233,5.748,7.591,8.879
		c2.027-4.022,5.945-6.789,8.954-8.429c-4.137-1.843-6.787-5.653-8.339-8.725C46.025,39.478,42.546,41.986,39.613,43.391z"/>
	<path fill="#D4D853" d="M25.749,47.153c0,0,2.412,8.954,9.357,9.37c0,0-9.271,3.201-9.427,10.045c0,0-1.825-9.6-9.147-9.944
		C16.532,56.624,25.06,55.333,25.749,47.153z"/>
	<path fill="#3A312A" d="M25.678,68.068c-0.714,0-1.337-0.507-1.473-1.22c-0.016-0.082-1.705-8.442-7.743-8.727
		c-0.771-0.036-1.388-0.65-1.428-1.421c-0.04-0.77,0.511-1.444,1.273-1.561c0.296-0.047,7.367-1.242,7.946-8.113
		c0.061-0.726,0.636-1.303,1.361-1.368c0.714-0.058,1.392,0.399,1.581,1.102l0,0c0.022,0.079,2.229,7.92,7.999,8.265
		c0.714,0.042,1.299,0.584,1.396,1.293c0.097,0.709-0.32,1.389-0.997,1.622c-0.08,0.028-8.286,2.953-8.416,8.662
		c-0.018,0.768-0.611,1.397-1.376,1.461C25.761,68.066,25.719,68.068,25.678,68.068z M21.156,56.541
		c2.108,1.333,3.525,3.395,4.449,5.28c1.377-2.232,3.517-3.873,5.368-4.974c-2.288-1.27-3.887-3.351-4.944-5.225
		C24.855,53.91,23.013,55.5,21.156,56.541z"/>
	<path fill="#D4D853" d="M25.749,20.496c0,0,2.412,8.954,9.357,9.37c0,0-9.271,3.201-9.427,10.046c0,0-1.825-9.6-9.147-9.944
		C16.532,29.966,25.06,28.675,25.749,20.496z"/>
	<path fill="#3A312A" d="M25.678,41.411c-0.714,0-1.337-0.507-1.473-1.22c-0.016-0.082-1.705-8.442-7.743-8.727
		c-0.771-0.036-1.388-0.65-1.428-1.421c-0.04-0.769,0.511-1.444,1.273-1.56c0.296-0.047,7.367-1.243,7.946-8.114
		c0.061-0.726,0.636-1.303,1.361-1.368c0.714-0.056,1.392,0.399,1.581,1.102l0,0c0.022,0.079,2.229,7.92,7.999,8.266
		c0.714,0.043,1.299,0.584,1.396,1.293c0.097,0.709-0.32,1.389-0.997,1.622c-0.08,0.028-8.286,2.953-8.416,8.662
		c-0.018,0.768-0.611,1.397-1.376,1.461C25.761,41.409,25.719,41.411,25.678,41.411z M21.156,29.883
		c2.108,1.333,3.525,3.396,4.449,5.281c1.377-2.233,3.517-3.873,5.368-4.974c-2.288-1.269-3.887-3.351-4.944-5.226
		C24.855,27.252,23.013,28.842,21.156,29.883z"/>
	<path fill="#6A5C52" d="M238,98.58V170h-15V98.58c0-8.04-6.54-14.58-14.58-14.58h15C231.46,84,238,90.54,238,98.58z"/>
	<path fill="#6A5C52" d="M238,189v30.43c0,8.03-6.54,14.57-14.58,14.57h-15c8.04,0,14.58-6.54,14.58-14.57V189H238z"/>
	<rect x="223" y="173" fill="#B9C239" width="15" height="13"/>
	<rect x="66.5" y="82.505" fill="#D7E057" width="16" height="153"/>
	<path fill="#3A312A" d="M82.5,237.005h-16c-0.828,0-1.5-0.672-1.5-1.5v-153c0-0.828,0.672-1.5,1.5-1.5h16
		c0.828,0,1.5,0.672,1.5,1.5v153C84,236.333,83.328,237.005,82.5,237.005z M68,234.005h13v-150H68V234.005z"/>
	<circle fill="#8AC5DC" cx="160.5" cy="159.5" r="60.5"/>
	<path fill="#3A312A" d="M160.5,221.5c-34.187,0-62-27.814-62-62s27.813-62,62-62s62,27.813,62,62S194.686,221.5,160.5,221.5z
		 M160.5,100.5c-32.533,0-59,26.467-59,59s26.467,59,59,59s59-26.467,59-59S193.033,100.5,160.5,100.5z"/>
	<path fill="#FAE6CA" d="M208.694,184.013l-29.245-29.246l-39.138-39.138c-2.225-2.225-5.833-2.225-8.058,0l-4.291,4.291
		c-2.225,2.225-2.225,5.832,0,8.058l35.109,35.109c2.225,2.225,5.832,2.225,8.057,0l1.117-1.117l32.511,26.409
		c1.171,0.951,2.872,0.863,3.938-0.203v0C209.844,187.027,209.844,185.163,208.694,184.013z"/>
	<path fill="#3A312A" d="M206.613,190.543c-0.987,0-1.979-0.33-2.803-0.999l-31.461-25.556l-0.159,0.16
		c-2.809,2.806-7.376,2.806-10.18,0l-35.109-35.109c-2.806-2.807-2.806-7.373,0-10.179l4.291-4.291
		c1.359-1.359,3.167-2.108,5.09-2.108c1.923,0,3.73,0.749,5.089,2.108l68.384,68.384c1.732,1.732,1.732,4.552,0,6.284
		C208.89,190.104,207.754,190.543,206.613,190.543z M172.245,160.471c0.334,0,0.669,0.111,0.945,0.336l32.511,26.409
		c0.577,0.468,1.407,0.426,1.932-0.1c0.564-0.563,0.564-1.479,0.001-2.042L139.25,116.69c-0.793-0.793-1.847-1.229-2.968-1.229
		c-1.121,0-2.176,0.437-2.969,1.229l-4.291,4.291c-1.636,1.637-1.636,4.3,0,5.937l35.109,35.109c1.638,1.638,4.301,1.636,5.937,0
		l1.115-1.117C171.476,160.619,171.859,160.471,172.245,160.471z"/>
	<path fill="#EB6E7A" d="M204.824,180.307L204.824,180.307c0,4.822-3.909,8.732-8.732,8.732h-75.916
		c-4.823,0-8.732-3.909-8.732-8.732l0,0c0-4.823,3.909-8.732,8.732-8.732h75.916C200.914,171.576,204.824,175.485,204.824,180.307z"
		/>
	<path fill="#3A312A" d="M196.092,190.539h-75.917c-5.642,0-10.231-4.59-10.231-10.231c0-5.643,4.59-10.232,10.231-10.232h75.917
		c5.642,0,10.231,4.59,10.231,10.232C206.323,185.949,201.733,190.539,196.092,190.539z M120.175,173.075
		c-3.987,0-7.231,3.244-7.231,7.232c0,3.987,3.244,7.231,7.231,7.231h75.917c3.987,0,7.231-3.244,7.231-7.231
		c0-3.988-3.244-7.232-7.231-7.232H120.175z"/>
	<path fill="#87796F" d="M124.349,180.226c0,1.97-1.597,3.567-3.567,3.567c-1.97,0-3.567-1.597-3.567-3.567s1.597-3.567,3.567-3.567
		C122.751,176.658,124.349,178.256,124.349,180.226z"/>
	<path fill="#3A312A" d="M120.781,185.293c-2.794,0-5.067-2.273-5.067-5.067c0-2.794,2.273-5.067,5.067-5.067
		c2.794,0,5.067,2.273,5.067,5.067C125.849,183.02,123.575,185.293,120.781,185.293z M120.781,178.158
		c-1.14,0-2.067,0.928-2.067,2.067c0,1.14,0.928,2.067,2.067,2.067c1.14,0,2.067-0.928,2.067-2.067
		C122.849,179.086,121.921,178.158,120.781,178.158z"/>
	<path fill="#87796F" d="M199.053,180.226c0,1.97-1.597,3.567-3.567,3.567c-1.97,0-3.567-1.597-3.567-3.567s1.597-3.567,3.567-3.567
		C197.456,176.658,199.053,178.256,199.053,180.226z"/>
	<path fill="#3A312A" d="M195.485,185.293c-2.794,0-5.067-2.273-5.067-5.067c0-2.794,2.273-5.067,5.067-5.067
		c2.794,0,5.067,2.273,5.067,5.067C200.553,183.02,198.279,185.293,195.485,185.293z M195.485,178.158
		c-1.14,0-2.067,0.928-2.067,2.067c0,1.14,0.928,2.067,2.067,2.067c1.14,0,2.067-0.928,2.067-2.067
		C197.553,179.086,196.625,178.158,195.485,178.158z"/>
</g>
</svg>
