<?xml version="1.0" encoding="utf-8"?>
<!-- Generator: Adobe Illustrator 24.0.0, SVG Export Plug-In . SVG Version: 6.00 Build 0)  -->
<svg version="1.1" id="Layer_1" xmlns="http://www.w3.org/2000/svg" xmlns:xlink="http://www.w3.org/1999/xlink" x="0px" y="0px"
	 viewBox="0 0 256 256" enable-background="new 0 0 256 256" xml:space="preserve">
<g>
	<path fill="#D7E057" d="M81.488,182.137c0,0,3.408,12.659,13.222,13.246c0,0-13.1,4.525-13.321,14.202
		c0,0-2.578-13.572-12.925-14.059C68.464,195.526,80.515,193.7,81.488,182.137z"/>
	<path fill="#3A312A" d="M81.388,211.085c-0.713,0-1.335-0.506-1.472-1.217c-0.024-0.124-2.495-12.417-11.522-12.842
		c-0.771-0.037-1.388-0.651-1.428-1.421c-0.04-0.771,0.511-1.445,1.274-1.561c0.441-0.069,10.894-1.818,11.754-12.033
		c0.061-0.725,0.634-1.301,1.359-1.367c0.72-0.064,1.393,0.399,1.584,1.102c0.032,0.116,3.259,11.626,11.864,12.141
		c0.714,0.043,1.297,0.584,1.396,1.293c0.098,0.708-0.319,1.388-0.994,1.623c-0.121,0.042-12.118,4.31-12.313,12.819
		c-0.018,0.767-0.61,1.396-1.375,1.46C81.472,211.083,81.43,211.085,81.388,211.085z M73.647,195.355
		c3.878,1.969,6.23,5.746,7.587,8.876c2.026-4.021,5.942-6.787,8.949-8.427c-4.135-1.843-6.783-5.651-8.334-8.723
		C80.056,191.442,76.578,193.95,73.647,195.355z"/>
	<path fill="#D7E057" d="M59.79,199.117c0,0,2.411,8.954,9.352,9.369c0,0-9.266,3.201-9.422,10.045c0,0-1.824-9.6-9.142-9.944
		C50.577,208.588,59.101,207.296,59.79,199.117z"/>
	<path fill="#3A312A" d="M59.719,220.032c-0.714,0-1.337-0.507-1.473-1.22c-0.016-0.082-1.704-8.442-7.739-8.726
		c-0.771-0.037-1.388-0.651-1.428-1.421c-0.04-0.77,0.511-1.445,1.273-1.561c0.296-0.047,7.364-1.243,7.942-8.114
		c0.061-0.726,0.635-1.303,1.36-1.368c0.73-0.069,1.392,0.4,1.582,1.102l0,0c0.021,0.079,2.228,7.92,7.994,8.265
		c0.714,0.043,1.299,0.584,1.396,1.293c0.098,0.709-0.32,1.388-0.996,1.622c-0.081,0.028-8.282,2.952-8.412,8.661
		c-0.017,0.767-0.611,1.397-1.376,1.461C59.801,220.03,59.76,220.032,59.719,220.032z M55.2,208.504
		c2.107,1.333,3.523,3.394,4.447,5.28c1.376-2.232,3.515-3.872,5.365-4.972c-2.287-1.27-3.884-3.35-4.941-5.224
		C58.897,205.874,57.055,207.463,55.2,208.504z"/>
	<path fill="#D7E057" d="M59.79,172.46c0,0,2.411,8.954,9.352,9.37c0,0-9.266,3.201-9.422,10.045c0,0-1.824-9.6-9.142-9.944
		C50.577,181.93,59.101,180.639,59.79,172.46z"/>
	<path fill="#3A312A" d="M59.719,193.374c-0.714,0-1.337-0.507-1.473-1.22c-0.016-0.081-1.704-8.442-7.739-8.726
		c-0.771-0.037-1.388-0.651-1.428-1.421c-0.04-0.77,0.511-1.445,1.273-1.561c0.296-0.047,7.364-1.243,7.942-8.114
		c0.061-0.726,0.635-1.303,1.36-1.368c0.73-0.062,1.392,0.399,1.582,1.102l0,0c0.021,0.079,2.228,7.92,7.994,8.265
		c0.714,0.043,1.299,0.585,1.396,1.294c0.098,0.709-0.32,1.388-0.996,1.622c-0.081,0.028-8.282,2.952-8.412,8.662
		c-0.017,0.767-0.611,1.397-1.376,1.461C59.801,193.373,59.76,193.374,59.719,193.374z M55.2,181.847
		c2.107,1.333,3.523,3.395,4.447,5.28c1.376-2.232,3.515-3.872,5.365-4.972c-2.287-1.27-3.884-3.35-4.941-5.224
		C58.897,179.217,57.055,180.806,55.2,181.847z"/>
	<rect x="166.923" y="228.811" fill="#87796F" width="14.538" height="10.322"/>
	<path fill="#3A312A" d="M181.461,240.633h-14.538c-0.829,0-1.5-0.671-1.5-1.5v-10.322c0-0.829,0.671-1.5,1.5-1.5h14.538
		c0.829,0,1.5,0.671,1.5,1.5v10.322C182.961,239.962,182.29,240.633,181.461,240.633z M168.423,237.633h11.538v-7.322h-11.538
		V237.633z"/>
	<path fill="#87796F" d="M161.17,228.811h26.05c4.154,0,7.521-3.367,7.521-7.521v-9.971H153.65v9.971
		C153.65,225.444,157.017,228.811,161.17,228.811z"/>
	<path fill="#3A312A" d="M187.221,230.311h-26.05c-4.974,0-9.021-4.046-9.021-9.021v-9.971c0-0.829,0.671-1.5,1.5-1.5h41.091
		c0.829,0,1.5,0.671,1.5,1.5v9.971C196.241,226.265,192.195,230.311,187.221,230.311z M155.15,212.819v8.471
		c0,3.32,2.701,6.021,6.021,6.021h26.05c3.32,0,6.021-2.701,6.021-6.021v-8.471H155.15z"/>
	<path fill="#8AC3DA" d="M164.901,189.025h35.512V52.379c0-19.613-15.899-35.513-35.512-35.513l0,0V189.025z"/>
	<path fill="#3A312A" d="M200.414,190.525h-35.513c-0.829,0-1.5-0.671-1.5-1.5V16.867c0-0.829,0.671-1.5,1.5-1.5
		c20.409,0,37.013,16.604,37.013,37.013v136.646C201.914,189.854,201.243,190.525,200.414,190.525z M166.401,187.525h32.513V52.379
		c0-18.252-14.451-33.192-32.513-33.98V187.525z"/>
	<path fill="#FAE6CA" d="M149.847,62.081v16.316c0,4.391,3.56,7.951,7.951,7.951h7.103V28.447h-7.103
		c-4.391,0-7.951,3.56-7.951,7.951v11.021V62.081z"/>
	<path fill="#3A312A" d="M164.901,87.848h-7.103c-5.211,0-9.451-4.24-9.451-9.451V62.081c0-0.829,0.671-1.5,1.5-1.5
		c0.829,0,1.5,0.671,1.5,1.5v16.315c0,3.557,2.894,6.451,6.451,6.451h5.603V29.947h-5.603c-3.557,0-6.451,2.894-6.451,6.451v11.021
		c0,0.829-0.671,1.5-1.5,1.5c-0.829,0-1.5-0.671-1.5-1.5V36.398c0-5.211,4.24-9.451,9.451-9.451h7.103c0.829,0,1.5,0.671,1.5,1.5
		v57.901C166.401,87.176,165.73,87.848,164.901,87.848z"/>
	<path fill="#8AC3DA" d="M94.084,145.495l63.518,63.518l25.111-25.111L60.979,62.167c-13.868,13.869-13.868,36.354,0,50.222
		l22.603,22.604L94.084,145.495z"/>
	<path fill="#3A312A" d="M157.602,210.512c-0.384,0-0.768-0.146-1.061-0.439l-63.518-63.518c-0.586-0.586-0.586-1.536,0-2.121
		c0.586-0.586,1.535-0.586,2.121,0l62.457,62.457l22.99-22.99L61.002,64.311c-12.214,13.328-11.869,34.111,1.038,47.018
		l22.603,22.604c0.586,0.585,0.586,1.536,0,2.121c-0.586,0.586-1.535,0.586-2.121,0L59.918,113.45
		c-14.431-14.431-14.431-37.913,0-52.344c0.563-0.563,1.559-0.563,2.121,0l121.734,121.735c0.281,0.281,0.439,0.663,0.439,1.061
		c0,0.398-0.158,0.779-0.439,1.061l-25.111,25.111C158.37,210.366,157.986,210.512,157.602,210.512z"/>
	<path fill="#FAE6CA" d="M110.109,111.297l5.023-5.023c3.105-3.105,3.105-8.139,0-11.245L85.434,65.332
		c-3.105-3.105-8.139-3.105-11.245,0l-5.023,5.023L110.109,111.297z"/>
	<path fill="#3A312A" d="M110.109,112.797c-0.398,0-0.779-0.158-1.061-0.439L68.106,71.415c-0.281-0.281-0.439-0.663-0.439-1.06
		c0-0.398,0.158-0.779,0.439-1.061l5.023-5.022c1.785-1.785,4.158-2.768,6.683-2.768c2.524,0,4.898,0.983,6.683,2.768l29.697,29.697
		c1.785,1.785,2.769,4.159,2.769,6.683c0,2.525-0.983,4.898-2.769,6.683l-5.022,5.023
		C110.889,112.639,110.507,112.797,110.109,112.797z M71.289,70.355l38.821,38.821l3.962-3.962c1.219-1.219,1.89-2.838,1.89-4.562
		c0-1.723-0.671-3.343-1.89-4.562L84.374,66.393c-2.517-2.516-6.609-2.515-9.124,0L71.289,70.355z"/>
	
		<ellipse transform="matrix(0.3755 -0.9268 0.9268 0.3755 -65.2886 278.7488)" fill="#87796F" cx="174.201" cy="187.822" rx="31.221" ry="31.221"/>
	<path fill="#3A312A" d="M174.202,220.543c-18.042,0-32.721-14.679-32.721-32.721s14.679-32.721,32.721-32.721
		c18.042,0,32.721,14.679,32.721,32.721S192.244,220.543,174.202,220.543z M174.202,158.101c-16.388,0-29.721,13.333-29.721,29.721
		s13.333,29.721,29.721,29.721c16.388,0,29.721-13.333,29.721-29.721S190.59,158.101,174.202,158.101z"/>
	
		<ellipse transform="matrix(0.6671 -0.745 0.745 0.6671 -81.9294 192.3128)" fill="#D6DF58" cx="174.201" cy="187.822" rx="16.032" ry="16.032"/>
	<path fill="#3A312A" d="M174.202,205.355c-9.667,0-17.533-7.865-17.533-17.533c0-9.667,7.865-17.532,17.533-17.532
		c9.667,0,17.532,7.865,17.532,17.532C191.734,197.489,183.869,205.355,174.202,205.355z M174.202,173.29
		c-8.013,0-14.533,6.519-14.533,14.532c0,8.013,6.52,14.533,14.533,14.533c8.013,0,14.532-6.52,14.532-14.533
		C188.734,179.809,182.215,173.29,174.202,173.29z"/>
	<path fill="#6CA8BF" d="M198.917,52.38v114.03c-3.95-4.55-9.12-8-15-9.84V52.38c0-12.77-7.08-23.92-17.52-29.73V18.4
		C184.467,19.19,198.917,34.13,198.917,52.38z"/>
</g>
</svg>
