<?xml version="1.0" encoding="utf-8"?>
<!-- Generator: Adobe Illustrator 24.0.0, SVG Export Plug-In . SVG Version: 6.00 Build 0)  -->
<svg version="1.1" id="Layer_1" xmlns="http://www.w3.org/2000/svg" xmlns:xlink="http://www.w3.org/1999/xlink" x="0px" y="0px"
	 viewBox="0 0 256 256" enable-background="new 0 0 256 256" xml:space="preserve">
<g>
	<path fill="#D7E057" d="M197.33,26.093c0,0,3.408,12.659,13.222,13.246c0,0-13.1,4.525-13.321,14.202
		c0,0-2.578-13.572-12.925-14.059C184.306,39.482,196.356,37.657,197.33,26.093z"/>
	<path fill="#3A312A" d="M197.23,55.041c-0.713,0-1.335-0.506-1.473-1.217c-0.023-0.124-2.494-12.417-11.521-12.842
		c-0.771-0.037-1.388-0.651-1.428-1.421c-0.04-0.771,0.511-1.445,1.273-1.561c0.441-0.069,10.895-1.817,11.754-12.033
		c0.061-0.725,0.635-1.301,1.359-1.367c0.729-0.06,1.394,0.399,1.584,1.102c0.031,0.116,3.259,11.626,11.863,12.141
		c0.714,0.043,1.297,0.584,1.395,1.292c0.098,0.708-0.318,1.388-0.994,1.623c-0.121,0.042-12.118,4.311-12.313,12.819
		c-0.018,0.767-0.611,1.396-1.375,1.459C197.314,55.039,197.271,55.041,197.23,55.041z M189.488,39.312
		c3.878,1.969,6.23,5.746,7.587,8.876c2.026-4.021,5.942-6.787,8.949-8.427c-4.134-1.842-6.783-5.651-8.334-8.722
		C195.898,35.398,192.419,37.907,189.488,39.312z"/>
	<path fill="#D7E057" d="M175.631,43.074c0,0,2.411,8.954,9.352,9.369c0,0-9.266,3.201-9.422,10.045c0,0-1.824-9.6-9.142-9.944
		C166.419,52.544,174.942,51.253,175.631,43.074z"/>
	<path fill="#3A312A" d="M175.561,63.988c-0.714,0-1.337-0.507-1.473-1.22c-0.016-0.082-1.704-8.442-7.739-8.726
		c-0.771-0.037-1.388-0.651-1.428-1.421c-0.04-0.771,0.511-1.445,1.273-1.561c0.296-0.047,7.363-1.243,7.941-8.113
		c0.062-0.726,0.636-1.303,1.361-1.368c0.719-0.063,1.392,0.399,1.581,1.102l0,0c0.023,0.079,2.229,7.919,7.995,8.264
		c0.714,0.043,1.299,0.584,1.396,1.293c0.097,0.709-0.32,1.388-0.996,1.622c-0.081,0.028-8.283,2.953-8.412,8.662
		c-0.018,0.767-0.611,1.397-1.376,1.461C175.644,63.987,175.602,63.988,175.561,63.988z M171.041,52.461
		c2.107,1.333,3.523,3.394,4.447,5.279c1.376-2.232,3.516-3.872,5.365-4.972c-2.287-1.269-3.885-3.35-4.942-5.224
		C174.738,49.831,172.896,51.419,171.041,52.461z"/>
	<path fill="#D7E057" d="M175.631,16.416c0,0,2.411,8.954,9.352,9.37c0,0-9.266,3.201-9.422,10.045c0,0-1.824-9.6-9.142-9.944
		C166.419,25.887,174.942,24.595,175.631,16.416z"/>
	<path fill="#3A312A" d="M175.561,37.331c-0.714,0-1.337-0.507-1.473-1.22c-0.016-0.082-1.704-8.442-7.739-8.726
		c-0.771-0.037-1.388-0.651-1.428-1.421c-0.04-0.771,0.511-1.445,1.273-1.561c0.296-0.047,7.363-1.243,7.941-8.114
		c0.062-0.726,0.636-1.303,1.361-1.368c0.719-0.061,1.392,0.4,1.581,1.101l0,0c0.023,0.079,2.229,7.92,7.995,8.265
		c0.714,0.043,1.299,0.585,1.396,1.293c0.097,0.709-0.32,1.388-0.997,1.622c-0.08,0.028-8.282,2.952-8.411,8.662
		c-0.018,0.767-0.611,1.397-1.376,1.461C175.644,37.33,175.602,37.331,175.561,37.331z M171.041,25.803
		c2.107,1.333,3.523,3.394,4.447,5.28c1.376-2.232,3.516-3.872,5.364-4.972c-2.286-1.27-3.884-3.35-4.941-5.224
		C174.738,23.173,172.896,24.762,171.041,25.803z"/>
	<path fill="#FCE8CB" d="M214.797,126.141c0,2.866-6.721,5.188-15.011,5.188s-15.011-2.323-15.011-5.188
		c0-3.609,3.072-5.564,13.403-8.929c4.39-1.43,5.777-6.09,7.945-6.09C207.957,111.122,214.797,119.496,214.797,126.141z"/>
	<path fill="#3A312A" d="M199.786,132.83c-8.205,0-16.512-2.297-16.512-6.689c0-4.867,4.257-7.039,14.439-10.355
		c2.002-0.652,3.305-2.168,4.454-3.506c1.175-1.367,2.284-2.658,3.956-2.658c3.11,0,10.174,9.6,10.174,16.52
		C216.297,130.532,207.991,132.83,199.786,132.83z M206.039,112.642c-0.355,0.149-1.152,1.076-1.597,1.593
		c-1.266,1.473-3,3.491-5.8,4.403c-10.518,3.426-12.368,5.149-12.368,7.503c0,1.103,4.597,3.689,13.512,3.689
		c8.914,0,13.511-2.586,13.511-3.689C213.297,120.375,207.604,113.416,206.039,112.642z M205.936,112.598L205.936,112.598
		L205.936,112.598z"/>
	<path fill="#8AC3DA" d="M222.902,190.659h11.463c2.88,0,5.215-2.335,5.215-5.215v-31.645c0-2.88-2.335-5.216-5.215-5.216h-68.913
		c-2.88,0-5.215,2.335-5.215,5.216v31.645c0,2.88,2.335,5.215,5.215,5.215h43.119H222.902z"/>
	<path fill="#3A312A" d="M234.365,192.159h-11.463c-0.828,0-1.5-0.671-1.5-1.5c0-0.829,0.672-1.5,1.5-1.5h11.463
		c2.049,0,3.716-1.667,3.716-3.715v-31.646c0-2.049-1.667-3.715-3.716-3.715h-68.913c-2.049,0-3.715,1.666-3.715,3.715v31.646
		c0,2.049,1.666,3.715,3.715,3.715h43.119c0.828,0,1.5,0.671,1.5,1.5c0,0.829-0.672,1.5-1.5,1.5h-43.119
		c-3.702,0-6.715-3.013-6.715-6.715v-31.646c0-3.703,3.013-6.715,6.715-6.715h68.913c3.703,0,6.716,3.013,6.716,6.715v31.646
		C241.081,189.146,238.068,192.159,234.365,192.159z"/>
	<rect x="165.509" y="140.622" fill="#87796F" width="68.801" height="7.96"/>
	<path fill="#3A312A" d="M234.31,150.083h-68.801c-0.828,0-1.5-0.671-1.5-1.5v-7.96c0-0.829,0.672-1.5,1.5-1.5h68.801
		c0.828,0,1.5,0.671,1.5,1.5v7.96C235.81,149.411,235.138,150.083,234.31,150.083z M167.009,147.083h65.801v-4.96h-65.801V147.083z"
		/>
	<path fill="#FCE8CB" d="M228.915,140.622L228.915,140.622h-58.257l0,0c0-4.737,3.84-8.578,8.578-8.578h41.102
		C225.074,132.044,228.915,135.885,228.915,140.622z"/>
	<path fill="#3A312A" d="M228.914,142.122h-58.257c-0.828,0-1.5-0.671-1.5-1.5c0-5.557,4.521-10.078,10.078-10.078h41.102
		c5.557,0,10.077,4.521,10.077,10.078C230.414,141.451,229.742,142.122,228.914,142.122z M172.317,139.122h54.937
		c-0.689-3.185-3.529-5.578-6.917-5.578h-41.102C175.847,133.544,173.007,135.938,172.317,139.122z"/>
	<path fill="#FCE8CB" d="M223.554,132.044L223.554,132.044h-47.535l0,0c0-4.737,3.84-8.578,8.578-8.578h30.379
		C219.713,123.467,223.554,127.307,223.554,132.044z"/>
	<path fill="#3A312A" d="M223.554,133.544h-47.535c-0.828,0-1.5-0.671-1.5-1.5c0-5.557,4.521-10.078,10.078-10.078h30.379
		c5.557,0,10.078,4.521,10.078,10.078C225.054,132.873,224.382,133.544,223.554,133.544z M177.679,130.544h44.215
		c-0.689-3.185-3.529-5.578-6.918-5.578h-30.379C181.208,124.967,178.368,127.36,177.679,130.544z"/>
	<circle fill="#D7E057" cx="199.909" cy="169.621" r="14"/>
	<path fill="#3A312A" d="M199.909,185.121c-8.547,0-15.5-6.953-15.5-15.5c0-8.547,6.953-15.5,15.5-15.5
		c8.547,0,15.5,6.953,15.5,15.5C215.409,178.167,208.456,185.121,199.909,185.121z M199.909,157.121c-6.893,0-12.5,5.607-12.5,12.5
		c0,6.893,5.607,12.5,12.5,12.5c6.893,0,12.5-5.607,12.5-12.5C212.409,162.728,206.802,157.121,199.909,157.121z"/>
	<ellipse fill="#87796F" cx="89.51" cy="97.86" rx="73.091" ry="81.425"/>
	<path fill="#3A312A" d="M89.51,180.786c-41.13,0-74.591-37.2-74.591-82.925c0-45.726,33.461-82.926,74.591-82.926
		c41.13,0,74.591,37.2,74.591,82.926C164.101,143.585,130.64,180.786,89.51,180.786z M89.51,17.935
		c-39.476,0-71.591,35.854-71.591,79.926c0,44.071,32.115,79.925,71.591,79.925s71.591-35.854,71.591-79.925
		C161.101,53.789,128.985,17.935,89.51,17.935z"/>
	<path fill="#F8E4C8" d="M125.474,183.233h-19.54v-18.799H73.098v18.799H53.546c-16.335,0-29.576,13.234-29.576,29.56v26.788h131.08
		v-26.788C155.05,196.467,141.809,183.233,125.474,183.233z"/>
	<path fill="#3A312A" d="M155.05,241.081H23.97c-0.828,0-1.5-0.671-1.5-1.5v-26.788c0-17.126,13.94-31.06,31.076-31.06h18.052
		v-17.299c0-0.829,0.672-1.5,1.5-1.5h32.836c0.828,0,1.5,0.671,1.5,1.5v17.299h18.04c17.136,0,31.076,13.934,31.076,31.06v26.788
		C156.55,240.41,155.878,241.081,155.05,241.081z M25.47,238.081h128.08v-25.288c0-15.472-12.595-28.06-28.076-28.06h-19.54
		c-0.828,0-1.5-0.671-1.5-1.5v-17.299H74.598v17.299c0,0.829-0.672,1.5-1.5,1.5H53.546c-15.481,0-28.076,12.588-28.076,28.06
		V238.081z"/>
	<path fill="#EB6E7A" d="M108.339,211.009H24.028c-0.035,0.588-0.058,1.179-0.058,1.776v26.799h131.08v-26.799
		c0-0.597-0.023-1.188-0.058-1.776h-33.068H108.339z"/>
	<path fill="#3A312A" d="M155.05,241.084H23.97c-0.828,0-1.5-0.671-1.5-1.5v-26.799c0-0.626,0.024-1.246,0.061-1.863
		c0.046-0.793,0.702-1.413,1.497-1.413h84.312c0.828,0,1.5,0.671,1.5,1.5c0,0.829-0.672,1.5-1.5,1.5H25.472
		c-0.001,0.092-0.002,0.184-0.002,0.276v25.299h128.08v-25.299c0-0.092-0.001-0.184-0.002-0.276h-31.624c-0.828,0-1.5-0.671-1.5-1.5
		c0-0.829,0.672-1.5,1.5-1.5h33.068c0.794,0,1.45,0.618,1.497,1.411c0.037,0.617,0.061,1.238,0.061,1.865v26.799
		C156.55,240.413,155.878,241.084,155.05,241.084z"/>
	<path fill-rule="evenodd" clip-rule="evenodd" fill="#F8E4C8" d="M50.36,109.954c0,6.424-5.21,11.631-11.638,11.631
		c-6.427,0-11.637-5.207-11.637-11.631c0-6.424,5.21-11.632,11.637-11.632C45.15,98.323,50.36,103.53,50.36,109.954z"/>
	<path fill="#3A312A" d="M38.723,123.086c-7.244,0-13.138-5.891-13.138-13.131s5.894-13.131,13.138-13.131
		c7.244,0,13.138,5.891,13.138,13.131S45.967,123.086,38.723,123.086z M38.723,99.823c-5.59,0-10.138,4.545-10.138,10.131
		c0,5.586,4.548,10.131,10.138,10.131c5.59,0,10.138-4.545,10.138-10.131C48.86,104.368,44.313,99.823,38.723,99.823z"/>
	
		<ellipse transform="matrix(0.0021 -1 1 0.0021 30.0541 250.025)" fill-rule="evenodd" clip-rule="evenodd" fill="#F8E4C8" cx="140.297" cy="109.954" rx="11.631" ry="11.637"/>
	<path fill="#3A312A" d="M140.297,123.086c-7.244,0-13.138-5.891-13.138-13.131s5.894-13.131,13.138-13.131
		c7.244,0,13.138,5.891,13.138,13.131S147.541,123.086,140.297,123.086z M140.297,99.823c-5.59,0-10.138,4.545-10.138,10.131
		c0,5.586,4.548,10.131,10.138,10.131c5.59,0,10.138-4.545,10.138-10.131C150.435,104.368,145.887,99.823,140.297,99.823z"/>
	<path fill="#F8E4C8" d="M141.1,104.308c0,28.478-27.44,72.189-51.59,72.189c-23.051,0-51.59-43.711-51.59-72.189
		c0-28.477,23.098-51.563,51.59-51.563C118.003,52.745,141.1,75.831,141.1,104.308z"/>
	<path fill="#3A312A" d="M89.51,177.997c-11.055,0-24.391-9.743-35.673-26.062c-10.743-15.539-17.417-33.789-17.417-47.627
		c0-29.259,23.816-53.063,53.09-53.063c29.273,0,53.09,23.804,53.09,53.063c0,13.995-6.514,32.241-17,47.618
		C114.303,168.495,101.148,177.997,89.51,177.997z M89.51,54.245c-27.62,0-50.09,22.458-50.09,50.063
		c0,13.26,6.47,30.856,16.885,45.92c10.723,15.509,23.136,24.768,33.205,24.768c10.475,0,23.04-9.256,33.611-24.76
		c10.164-14.906,16.478-32.504,16.478-45.928C139.6,76.703,117.13,54.245,89.51,54.245z"/>
	<path fill="#3A312A" d="M76.331,103.726c0,2.78-2.254,5.033-5.035,5.033s-5.035-2.253-5.035-5.033c0-2.779,2.254-5.033,5.035-5.033
		S76.331,100.947,76.331,103.726z"/>
	<path fill="#3A312A" d="M112.759,103.726c0,2.78-2.254,5.033-5.035,5.033c-2.781,0-5.035-2.253-5.035-5.033
		c0-2.779,2.254-5.033,5.035-5.033C110.505,98.693,112.759,100.947,112.759,103.726z"/>
	<path fill="#F59689" d="M69.906,118.689c0,3.579-3.884,6.481-8.674,6.481c-4.79,0-8.674-2.902-8.674-6.481
		c0-3.58,3.884-6.481,8.674-6.481C66.023,112.208,69.906,115.109,69.906,118.689z"/>
	<path fill="#F59689" d="M126.462,118.689c0,3.579-3.883,6.481-8.674,6.481c-4.791,0-8.674-2.902-8.674-6.481
		c0-3.58,3.883-6.481,8.674-6.481C122.578,112.208,126.462,115.109,126.462,118.689z"/>
	<path fill="#3A312A" d="M47.926,241.084c-0.828,0-1.5-0.671-1.5-1.5v-21.172c0-0.829,0.672-1.5,1.5-1.5c0.828,0,1.5,0.671,1.5,1.5
		v21.172C49.426,240.413,48.754,241.084,47.926,241.084z"/>
	<path fill="#3A312A" d="M131.094,241.084c-0.828,0-1.5-0.671-1.5-1.5v-21.172c0-0.829,0.672-1.5,1.5-1.5c0.828,0,1.5,0.671,1.5,1.5
		v21.172C132.594,240.413,131.922,241.084,131.094,241.084z"/>
	<path fill="#3A312A" d="M89.51,147.633c-7.285,0-12.536-3.271-15.609-9.723c-0.356-0.748-0.038-1.643,0.71-2
		c0.749-0.356,1.644-0.038,1.999,0.71c2.567,5.392,6.787,8.013,12.9,8.013c7.824,0,11.827-5.164,12.851-7.895
		c0.29-0.776,1.151-1.169,1.931-0.878c0.775,0.291,1.169,1.155,0.878,1.931C103.393,142.532,97.734,147.633,89.51,147.633z"/>
	<path fill="#87796F" d="M148.956,85.41c0,5.283-0.688,10.404-1.987,15.279c-13.214-6.367-25.783-14.184-37.428-23.021
		c-3.416-2.588-6.779-5.283-9.991-8.139c-3.943-3.457-7.67-7.183-11.033-11.22C81.2,49.504,75.829,39.389,71.285,28.856
		C77.021,26.999,83.145,26,89.505,26c17.006,0,32.347,7.14,43.187,18.586C142.779,55.227,148.956,69.594,148.956,85.41z"/>
	<path fill="#3A312A" d="M146.969,102.189c-0.223,0-0.445-0.05-0.651-0.149c-12.981-6.255-25.66-14.053-37.684-23.177
		c-3.842-2.91-7.14-5.597-10.082-8.212c-4.203-3.687-7.971-7.519-11.189-11.382c-6.516-7.841-12.061-17.316-17.456-29.818
		c-0.168-0.388-0.164-0.828,0.011-1.213c0.174-0.385,0.502-0.678,0.904-0.809c6.003-1.943,12.289-2.929,18.683-2.929
		c16.915,0,32.639,6.767,44.275,19.055c10.754,11.343,16.676,26.208,16.676,41.854c0,5.323-0.686,10.594-2.038,15.666
		c-0.115,0.432-0.417,0.79-0.823,0.977C147.396,102.144,147.183,102.189,146.969,102.189z M73.331,29.795
		c5.066,11.476,10.28,20.263,16.338,27.555c3.117,3.742,6.774,7.46,10.869,11.051c2.891,2.57,6.129,5.208,9.908,8.071
		c11.353,8.615,23.292,16.03,35.516,22.057c0.992-4.271,1.494-8.675,1.494-13.12c0-14.875-5.63-29.007-15.854-39.792
		C120.538,33.935,105.587,27.5,89.505,27.5C83.986,27.5,78.553,28.271,73.331,29.795z"/>
	<path fill="#87796F" d="M132.691,44.586c-10.227,9.32-21.357,17.566-33.142,24.943C78.654,82.618,55.74,92.947,32.288,101.548
		c-1.45-5.132-2.224-10.544-2.224-16.138c0-26.457,17.307-48.876,41.22-56.554C77.021,26.999,83.145,26,89.505,26
		C106.51,26,121.851,33.14,132.691,44.586z"/>
	<path fill="#3A312A" d="M32.288,103.048c-0.234,0-0.469-0.055-0.682-0.164c-0.372-0.19-0.648-0.526-0.762-0.928
		c-1.513-5.354-2.28-10.921-2.28-16.546c0-26.565,16.983-49.867,42.261-57.982c6-1.942,12.286-2.928,18.68-2.928
		c16.915,0,32.639,6.767,44.275,19.055c0.277,0.292,0.425,0.684,0.41,1.086c-0.015,0.402-0.191,0.782-0.488,1.054
		c-9.83,8.958-21.054,17.404-33.357,25.105c-19.139,11.989-41.231,22.507-67.54,32.155
		C32.638,103.018,32.463,103.048,32.288,103.048z M89.505,27.5c-6.08,0-12.055,0.937-17.759,2.783
		C47.711,38,31.565,60.153,31.565,85.41c0,4.802,0.588,9.558,1.748,14.162c25.434-9.42,46.854-19.67,65.44-31.313
		c11.675-7.308,22.358-15.29,31.779-23.742C119.583,33.53,105.075,27.5,89.505,27.5z"/>
	<path fill="#8AC6DD" d="M162.601,97.865c0,8.89-1.281,17.45-3.645,25.45c-9.995-31.7-37.096-54.42-68.971-54.42
		c-32.397,0-59.859,23.47-69.446,55.98c-2.667-8.45-4.12-17.54-4.12-27.01c0-44.97,32.72-81.43,73.091-81.43
		S162.601,52.895,162.601,97.865z"/>
	<path fill="#3A312A" d="M20.539,126.374c-0.654,0-1.233-0.424-1.431-1.048c-2.78-8.805-4.19-18.045-4.19-27.462
		c0-45.728,33.461-82.93,74.591-82.93c41.13,0,74.591,37.202,74.591,82.93c0,8.845-1.247,17.55-3.706,25.875
		c-0.187,0.633-0.765,1.069-1.425,1.075c-0.005,0-0.009,0-0.014,0c-0.654,0-1.233-0.424-1.431-1.049
		c-10.066-31.923-37.209-53.371-67.541-53.371c-30.992,0-58.322,22.064-68.007,54.904c-0.187,0.633-0.765,1.069-1.424,1.076
		C20.549,126.374,20.544,126.374,20.539,126.374z M89.51,17.935c-39.476,0-71.591,35.856-71.591,79.93
		c0,7.452,0.911,14.786,2.714,21.868C31.84,88.227,59.164,67.395,89.984,67.395c30.135,0,57.228,20.209,68.781,50.786
		c1.551-6.601,2.335-13.414,2.335-20.315C161.101,53.791,128.985,17.935,89.51,17.935z"/>
	<path fill="#DECAAD" d="M153.347,209.509h-15c-1.63-13.93-13.5-24.78-27.87-24.78h15
		C139.847,184.729,151.717,195.579,153.347,209.509z"/>
	<rect x="138.547" y="212.509" fill="#D04E5D" width="15" height="25.57"/>
</g>
</svg>
