<?xml version="1.0" encoding="utf-8"?>
<!-- Generator: Adobe Illustrator 24.0.0, SVG Export Plug-In . SVG Version: 6.00 Build 0)  -->
<svg version="1.1" id="Layer_1" xmlns="http://www.w3.org/2000/svg" xmlns:xlink="http://www.w3.org/1999/xlink" x="0px" y="0px"
	 viewBox="0 0 256 256" enable-background="new 0 0 256 256" xml:space="preserve">
<g>
	<path fill="#D7E057" d="M47.911,26.407c0,0,3.408,12.659,13.222,13.246c0,0-13.1,4.525-13.321,14.202
		c0,0-2.579-13.572-12.925-14.059C34.887,39.796,46.937,37.971,47.911,26.407z"/>
	<path fill="#3A312A" d="M47.811,55.354c-0.713,0-1.335-0.506-1.472-1.217c-0.024-0.124-2.495-12.417-11.523-12.842
		c-0.77-0.037-1.388-0.651-1.428-1.421c-0.04-0.771,0.511-1.445,1.273-1.561c0.441-0.069,10.894-1.817,11.754-12.033
		c0.061-0.725,0.634-1.301,1.359-1.367c0.737-0.062,1.393,0.4,1.583,1.101c0.032,0.116,3.259,11.626,11.864,12.141
		c0.714,0.043,1.297,0.584,1.396,1.292c0.098,0.708-0.319,1.388-0.994,1.623c-0.121,0.042-12.118,4.311-12.313,12.819
		c-0.018,0.767-0.61,1.396-1.374,1.459C47.895,55.353,47.852,55.354,47.811,55.354z M40.07,39.625
		c3.878,1.969,6.23,5.746,7.587,8.876c2.026-4.021,5.941-6.787,8.949-8.427c-4.134-1.842-6.783-5.651-8.333-8.722
		C46.478,35.712,43,38.22,40.07,39.625z"/>
	<path fill="#D7E057" d="M26.212,43.387c0,0,2.411,8.954,9.352,9.369c0,0-9.266,3.201-9.422,10.045c0,0-1.824-9.6-9.142-9.944
		C17,52.858,25.524,51.566,26.212,43.387z"/>
	<path fill="#3A312A" d="M26.141,64.302c-0.713,0-1.337-0.507-1.472-1.22C24.653,63,22.965,54.64,16.93,54.356
		c-0.771-0.037-1.388-0.651-1.428-1.421c-0.04-0.771,0.511-1.445,1.273-1.561c0.296-0.047,7.364-1.243,7.942-8.114
		c0.061-0.726,0.635-1.303,1.36-1.368c0.729-0.062,1.392,0.399,1.582,1.101l0,0c0.021,0.079,2.228,7.92,7.994,8.265
		c0.714,0.043,1.299,0.584,1.396,1.293c0.098,0.709-0.32,1.388-0.996,1.622c-0.081,0.028-8.282,2.952-8.413,8.661
		c-0.018,0.767-0.611,1.397-1.376,1.461C26.224,64.3,26.182,64.302,26.141,64.302z M21.623,52.774
		c2.106,1.333,3.523,3.394,4.447,5.28c1.376-2.232,3.515-3.872,5.365-4.972c-2.287-1.27-3.884-3.35-4.941-5.224
		C25.319,50.145,23.478,51.733,21.623,52.774z"/>
	<path fill="#D7E057" d="M26.212,16.73c0,0,2.411,8.954,9.352,9.37c0,0-9.266,3.201-9.422,10.045c0,0-1.824-9.6-9.142-9.944
		C17,26.2,25.524,24.909,26.212,16.73z"/>
	<path fill="#3A312A" d="M26.141,37.645c-0.713,0-1.337-0.507-1.472-1.22c-0.016-0.082-1.704-8.442-7.739-8.726
		c-0.77-0.037-1.387-0.651-1.427-1.421c-0.04-0.771,0.511-1.445,1.273-1.56c0.296-0.047,7.364-1.243,7.942-8.113
		c0.061-0.726,0.635-1.303,1.36-1.368c0.729-0.063,1.392,0.4,1.582,1.102l0,0c0.021,0.079,2.228,7.92,7.994,8.265
		c0.714,0.043,1.299,0.584,1.396,1.293c0.098,0.709-0.32,1.388-0.996,1.622c-0.081,0.028-8.282,2.952-8.413,8.662
		c-0.018,0.767-0.611,1.397-1.376,1.461C26.224,37.644,26.182,37.645,26.141,37.645z M21.622,26.117
		c2.107,1.332,3.523,3.394,4.447,5.28c1.376-2.232,3.515-3.872,5.365-4.972c-2.287-1.27-3.884-3.35-4.941-5.224
		C25.319,23.487,23.478,25.076,21.622,26.117z"/>
	<path fill="#3A312A" d="M169.582,89.683c-11.519,0-23.01-0.042-34.441-0.126c-0.829-0.006-1.495-0.683-1.489-1.511
		c0.006-0.828,0.716-1.476,1.511-1.489c34.203,0.251,68.951,0.126,103.282-0.374c0.846-0.02,1.51,0.65,1.521,1.478
		c0.012,0.829-0.649,1.51-1.479,1.522C215.61,89.516,192.545,89.683,169.582,89.683z"/>
	<path fill="#3A312A" d="M239,105.933c-0.003,0-0.006,0-0.01,0c-34.576-0.214-69.69-0.254-104.366-0.12c-0.002,0-0.004,0-0.006,0
		c-0.826,0-1.497-0.668-1.5-1.494c-0.003-0.829,0.666-1.502,1.494-1.506c34.686-0.134,69.811-0.094,104.396,0.12
		c0.829,0.005,1.496,0.681,1.491,1.509C240.495,105.267,239.824,105.933,239,105.933z"/>
	<path fill="#3A312A" d="M169.563,123.101c-11.516,0-22.997-0.035-34.421-0.105c-0.829-0.005-1.496-0.681-1.491-1.509
		c0.005-0.828,0.692-1.512,1.509-1.491c34.181,0.211,68.932,0.106,103.287-0.313c0.007,0,0.013,0,0.018,0
		c0.82,0,1.49,0.66,1.5,1.482c0.01,0.828-0.653,1.508-1.481,1.518C215.593,122.961,192.52,123.101,169.563,123.101z"/>
	<path fill="#3A312A" d="M239,139.432c-0.004,0-0.009,0-0.013,0c-34.602-0.302-69.715-0.36-104.361-0.169c-0.002,0-0.005,0-0.008,0
		c-0.825,0-1.495-0.666-1.5-1.492c-0.005-0.829,0.663-1.504,1.492-1.508c34.659-0.189,69.788-0.132,104.402,0.169
		c0.829,0.007,1.494,0.685,1.487,1.513C240.493,138.769,239.822,139.432,239,139.432z"/>
	<path fill="#3A312A" d="M169.558,156.52c-11.51,0-22.992-0.028-34.414-0.085c-0.828-0.004-1.496-0.679-1.492-1.507
		c0.004-0.826,0.675-1.493,1.5-1.493c0.002,0,0.005,0,0.008,0c34.194,0.17,68.946,0.085,103.292-0.253
		c0.803,0.022,1.507,0.657,1.515,1.485c0.008,0.828-0.657,1.506-1.485,1.515C215.592,156.407,192.522,156.52,169.558,156.52z"/>
	<path fill="#3A312A" d="M239,172.932c-0.006,0-0.011,0-0.017,0c-34.596-0.389-69.706-0.462-104.355-0.218c-0.004,0-0.008,0-0.011,0
		c-0.823,0-1.494-0.665-1.5-1.489c-0.006-0.829,0.661-1.505,1.489-1.511c34.668-0.243,69.797-0.17,104.409,0.218
		c0.829,0.009,1.492,0.689,1.483,1.517C240.49,172.271,239.821,172.932,239,172.932z"/>
	<path fill="#3A312A" d="M169.563,189.939c-11.512,0-22.994-0.021-34.418-0.065c-0.828-0.003-1.497-0.677-1.494-1.506
		c0.003-0.826,0.674-1.494,1.5-1.494c0.002,0,0.004,0,0.006,0c34.198,0.13,68.953,0.064,103.298-0.192c0.003,0,0.007,0,0.011,0
		c0.823,0,1.494,0.664,1.5,1.489c0.006,0.829-0.66,1.505-1.489,1.511C215.595,189.852,192.525,189.939,169.563,189.939z"/>
	<path fill="#3A312A" d="M239,206.431c-0.007,0-0.014,0-0.021,0c-34.591-0.477-69.698-0.566-104.349-0.267c-0.004,0-0.009,0-0.013,0
		c-0.822,0-1.493-0.663-1.5-1.487c-0.007-0.829,0.658-1.506,1.487-1.513c34.671-0.298,69.804-0.209,104.415,0.267
		c0.828,0.012,1.491,0.692,1.48,1.521C240.488,205.773,239.819,206.431,239,206.431z"/>
	<path fill="#3A312A" d="M169.573,223.357c-11.513,0-22.999-0.015-34.426-0.044c-0.828-0.002-1.498-0.675-1.496-1.504
		c0.002-0.827,0.674-1.496,1.5-1.496c0.001,0,0.003,0,0.004,0c34.209,0.089,68.967,0.044,103.303-0.132c0.003,0,0.006,0,0.008,0
		c0.825,0,1.496,0.667,1.5,1.492c0.004,0.829-0.664,1.503-1.492,1.508C215.599,223.298,192.536,223.357,169.573,223.357z"/>
	<path fill="#EF6D7A" d="M170.436,70.27h-5.174c-8.541,0-15.465,6.924-15.465,15.465v138.07c0,8.541,6.924,15.465,15.465,15.465
		h43.094c8.541,0,15.465-6.924,15.465-15.465V85.735c0-8.541-6.924-15.465-15.465-15.465H184.8H170.436z"/>
	<path fill="#3A312A" d="M208.355,240.77h-43.094c-9.355,0-16.965-7.61-16.965-16.965V85.735c0-9.354,7.61-16.965,16.965-16.965
		h5.174c0.828,0,1.5,0.671,1.5,1.5c0,0.829-0.672,1.5-1.5,1.5h-5.174c-7.7,0-13.965,6.265-13.965,13.965v138.07
		c0,7.7,6.265,13.965,13.965,13.965h43.094c7.7,0,13.965-6.265,13.965-13.965V85.735c0-7.701-6.265-13.965-13.965-13.965H184.8
		c-0.828,0-1.5-0.671-1.5-1.5c0-0.829,0.672-1.5,1.5-1.5h23.556c9.355,0,16.965,7.611,16.965,16.965v138.07
		C225.32,233.16,217.71,240.77,208.355,240.77z"/>
	<path fill="#3A312A" d="M165.786,89.271h-0.098c-0.828,0-1.5-0.671-1.5-1.5s0.672-1.5,1.5-1.5c0.828,0,1.549,0.671,1.549,1.5
		S166.614,89.271,165.786,89.271z"/>
	<path fill="#3A312A" d="M165.786,106.021h-0.098c-0.828,0-1.5-0.671-1.5-1.5c0-0.829,0.672-1.5,1.5-1.5
		c0.828,0,1.549,0.671,1.549,1.5C167.237,105.35,166.614,106.021,165.786,106.021z"/>
	<path fill="#3A312A" d="M165.786,122.771h-0.098c-0.828,0-1.5-0.671-1.5-1.5c0-0.829,0.672-1.5,1.5-1.5
		c0.828,0,1.549,0.671,1.549,1.5C167.237,122.1,166.614,122.771,165.786,122.771z"/>
	<path fill="#3A312A" d="M165.786,139.52h-0.098c-0.828,0-1.5-0.671-1.5-1.5c0-0.829,0.672-1.5,1.5-1.5
		c0.828,0,1.549,0.671,1.549,1.5C167.237,138.849,166.614,139.52,165.786,139.52z"/>
	<path fill="#3A312A" d="M165.786,156.27h-0.098c-0.828,0-1.5-0.671-1.5-1.5s0.672-1.5,1.5-1.5c0.828,0,1.549,0.671,1.549,1.5
		S166.614,156.27,165.786,156.27z"/>
	<path fill="#3A312A" d="M165.786,173.02h-0.098c-0.828,0-1.5-0.671-1.5-1.5s0.672-1.5,1.5-1.5c0.828,0,1.549,0.671,1.549,1.5
		S166.614,173.02,165.786,173.02z"/>
	<path fill="#3A312A" d="M165.759,189.922c-0.504,0-1.334-0.284-1.543-1.368c-0.157-0.813,0.375-1.6,1.189-1.757
		c0.166-0.032,0.333-0.037,0.492-0.013c0.011,0,0.022,0.001,0.033,0.003c0.821,0.08,1.425,0.797,1.351,1.619
		c-0.105,1.143-0.966,1.49-1.458,1.515C165.802,189.921,165.78,189.922,165.759,189.922z"/>
	<path fill="#3A312A" d="M165.786,206.519h-0.098c-0.828,0-1.5-0.671-1.5-1.5c0-0.829,0.672-1.5,1.5-1.5
		c0.828,0,1.549,0.671,1.549,1.5C167.237,205.848,166.614,206.519,165.786,206.519z"/>
	<path fill="#3A312A" d="M165.786,223.269h-0.098c-0.828,0-1.5-0.671-1.5-1.5c0-0.829,0.672-1.5,1.5-1.5
		c0.828,0,1.549,0.671,1.549,1.5C167.237,222.598,166.614,223.269,165.786,223.269z"/>
	<path fill="#3A312A" d="M179.834,89.271h-0.098c-0.828,0-1.5-0.671-1.5-1.5s0.672-1.5,1.5-1.5c0.828,0,1.549,0.671,1.549,1.5
		S180.662,89.271,179.834,89.271z"/>
	<path fill="#3A312A" d="M179.833,106.021h-0.097c-0.828,0-1.5-0.671-1.5-1.5c0-0.829,0.672-1.5,1.5-1.5
		c0.828,0,1.548,0.671,1.548,1.5C181.284,105.35,180.661,106.021,179.833,106.021z"/>
	<path fill="#3A312A" d="M179.834,122.771h-0.098c-0.828,0-1.5-0.671-1.5-1.5c0-0.829,0.672-1.5,1.5-1.5
		c0.828,0,1.549,0.671,1.549,1.5C181.285,122.1,180.662,122.771,179.834,122.771z"/>
	<path fill="#3A312A" d="M179.833,139.52h-0.097c-0.828,0-1.5-0.671-1.5-1.5c0-0.829,0.672-1.5,1.5-1.5
		c0.828,0,1.548,0.671,1.548,1.5C181.284,138.849,180.661,139.52,179.833,139.52z"/>
	<path fill="#3A312A" d="M179.834,156.27h-0.098c-0.828,0-1.5-0.671-1.5-1.5s0.672-1.5,1.5-1.5c0.828,0,1.549,0.671,1.549,1.5
		S180.662,156.27,179.834,156.27z"/>
	<path fill="#3A312A" d="M179.833,173.02h-0.097c-0.828,0-1.5-0.671-1.5-1.5s0.672-1.5,1.5-1.5c0.828,0,1.548,0.671,1.548,1.5
		S180.661,173.02,179.833,173.02z"/>
	<path fill="#3A312A" d="M179.807,189.922c-0.504,0-1.334-0.284-1.543-1.368c-0.157-0.813,0.375-1.6,1.188-1.757
		c0.166-0.032,0.333-0.037,0.492-0.013c0.011,0,0.023,0.001,0.033,0.003c0.821,0.08,1.425,0.797,1.351,1.619
		c-0.104,1.143-0.966,1.49-1.458,1.515C179.85,189.921,179.828,189.922,179.807,189.922z"/>
	<path fill="#3A312A" d="M179.833,206.519h-0.097c-0.828,0-1.5-0.671-1.5-1.5c0-0.829,0.672-1.5,1.5-1.5
		c0.828,0,1.548,0.671,1.548,1.5C181.284,205.848,180.661,206.519,179.833,206.519z"/>
	<path fill="#3A312A" d="M179.834,223.269h-0.098c-0.828,0-1.5-0.671-1.5-1.5c0-0.829,0.672-1.5,1.5-1.5
		c0.828,0,1.549,0.671,1.549,1.5C181.285,222.598,180.662,223.269,179.834,223.269z"/>
	<path fill="#3A312A" d="M193.882,89.271h-0.098c-0.828,0-1.5-0.671-1.5-1.5s0.672-1.5,1.5-1.5s1.549,0.671,1.549,1.5
		S194.71,89.271,193.882,89.271z"/>
	<path fill="#3A312A" d="M193.881,106.021h-0.097c-0.828,0-1.5-0.671-1.5-1.5c0-0.829,0.672-1.5,1.5-1.5s1.549,0.671,1.549,1.5
		C195.333,105.35,194.709,106.021,193.881,106.021z"/>
	<path fill="#3A312A" d="M193.882,122.771h-0.098c-0.828,0-1.5-0.671-1.5-1.5c0-0.829,0.672-1.5,1.5-1.5s1.549,0.671,1.549,1.5
		C195.333,122.1,194.71,122.771,193.882,122.771z"/>
	<path fill="#3A312A" d="M193.881,139.52h-0.097c-0.828,0-1.5-0.671-1.5-1.5c0-0.829,0.672-1.5,1.5-1.5s1.549,0.671,1.549,1.5
		C195.333,138.849,194.709,139.52,193.881,139.52z"/>
	<path fill="#3A312A" d="M193.882,156.27h-0.098c-0.828,0-1.5-0.671-1.5-1.5s0.672-1.5,1.5-1.5s1.549,0.671,1.549,1.5
		S194.71,156.27,193.882,156.27z"/>
	<path fill="#3A312A" d="M193.881,173.02h-0.097c-0.828,0-1.5-0.671-1.5-1.5s0.672-1.5,1.5-1.5s1.549,0.671,1.549,1.5
		S194.709,173.02,193.881,173.02z"/>
	<path fill="#3A312A" d="M193.853,189.922c-0.503,0-1.336-0.285-1.543-1.372c-0.155-0.814,0.379-1.599,1.193-1.754
		c0.165-0.032,0.329-0.036,0.488-0.012c0.013,0.001,0.025,0.002,0.038,0.003c0.82,0.082,1.422,0.801,1.345,1.623
		c-0.106,1.143-0.969,1.488-1.462,1.511C193.894,189.921,193.874,189.922,193.853,189.922z"/>
	<path fill="#3A312A" d="M193.881,206.519h-0.097c-0.828,0-1.5-0.671-1.5-1.5c0-0.829,0.672-1.5,1.5-1.5s1.549,0.671,1.549,1.5
		C195.333,205.848,194.709,206.519,193.881,206.519z"/>
	<path fill="#3A312A" d="M193.882,223.269h-0.098c-0.828,0-1.5-0.671-1.5-1.5c0-0.829,0.672-1.5,1.5-1.5s1.549,0.671,1.549,1.5
		C195.333,222.598,194.71,223.269,193.882,223.269z"/>
	<path fill="#3A312A" d="M207.93,89.271h-0.098c-0.828,0-1.5-0.671-1.5-1.5s0.672-1.5,1.5-1.5c0.828,0,1.549,0.671,1.549,1.5
		S208.758,89.271,207.93,89.271z"/>
	<path fill="#3A312A" d="M207.929,106.021h-0.097c-0.828,0-1.5-0.671-1.5-1.5c0-0.829,0.672-1.5,1.5-1.5
		c0.828,0,1.548,0.671,1.548,1.5C209.38,105.35,208.757,106.021,207.929,106.021z"/>
	<path fill="#3A312A" d="M207.93,122.771h-0.098c-0.828,0-1.5-0.671-1.5-1.5c0-0.829,0.672-1.5,1.5-1.5
		c0.828,0,1.549,0.671,1.549,1.5C209.381,122.1,208.758,122.771,207.93,122.771z"/>
	<path fill="#3A312A" d="M207.929,139.52h-0.097c-0.828,0-1.5-0.671-1.5-1.5c0-0.829,0.672-1.5,1.5-1.5
		c0.828,0,1.548,0.671,1.548,1.5C209.38,138.849,208.757,139.52,207.929,139.52z"/>
	<path fill="#3A312A" d="M207.93,156.27h-0.098c-0.828,0-1.5-0.671-1.5-1.5s0.672-1.5,1.5-1.5c0.828,0,1.549,0.671,1.549,1.5
		S208.758,156.27,207.93,156.27z"/>
	<path fill="#3A312A" d="M207.929,173.02h-0.097c-0.828,0-1.5-0.671-1.5-1.5s0.672-1.5,1.5-1.5c0.828,0,1.548,0.671,1.548,1.5
		S208.757,173.02,207.929,173.02z"/>
	<path fill="#3A312A" d="M207.902,189.922c-0.504,0-1.334-0.284-1.543-1.368c-0.157-0.813,0.375-1.6,1.189-1.757
		c0.166-0.032,0.333-0.037,0.492-0.013c0.011,0,0.022,0.001,0.033,0.003c0.821,0.08,1.425,0.797,1.351,1.619
		c-0.105,1.143-0.966,1.49-1.458,1.515C207.945,189.921,207.924,189.922,207.902,189.922z"/>
	<path fill="#3A312A" d="M207.929,206.519h-0.097c-0.828,0-1.5-0.671-1.5-1.5c0-0.829,0.672-1.5,1.5-1.5
		c0.828,0,1.548,0.671,1.548,1.5C209.38,205.848,208.757,206.519,207.929,206.519z"/>
	<path fill="#3A312A" d="M207.93,223.269h-0.098c-0.828,0-1.5-0.671-1.5-1.5c0-0.829,0.672-1.5,1.5-1.5
		c0.828,0,1.549,0.671,1.549,1.5C209.381,222.598,208.758,223.269,207.93,223.269z"/>
	<path fill="#3A312A" d="M51.964,89.683c-11.518,0-23.01-0.042-34.442-0.126c-0.828-0.006-1.495-0.683-1.489-1.511
		c0.006-0.828,0.664-1.461,1.511-1.489c34.201,0.251,68.951,0.126,103.282-0.374c0.008,0,0.015,0,0.022,0
		c0.818,0,1.487,0.657,1.499,1.478c0.012,0.829-0.65,1.51-1.478,1.522C97.993,89.516,74.928,89.683,51.964,89.683z"/>
	<path fill="#3A312A" d="M121.382,105.933c-0.003,0-0.006,0-0.009,0c-34.578-0.214-69.693-0.254-104.367-0.12
		c-0.002,0-0.004,0-0.006,0c-0.826,0-1.497-0.668-1.5-1.494c-0.003-0.829,0.666-1.502,1.494-1.506
		c34.686-0.134,69.81-0.094,104.397,0.12c0.829,0.005,1.496,0.681,1.491,1.509C122.877,105.267,122.206,105.933,121.382,105.933z"/>
	<path fill="#3A312A" d="M51.946,123.101c-11.516,0-22.998-0.035-34.422-0.105c-0.829-0.005-1.496-0.681-1.491-1.509
		c0.005-0.825,0.676-1.491,1.5-1.491c0.003,0,0.006,0,0.009,0c34.181,0.211,68.932,0.106,103.288-0.313c0.006,0,0.012,0,0.019,0
		c0.82,0,1.489,0.66,1.499,1.482c0.01,0.828-0.653,1.508-1.482,1.518C97.976,122.961,74.903,123.101,51.946,123.101z"/>
	<path fill="#3A312A" d="M121.383,139.432c-0.005,0-0.009,0-0.014,0c-34.601-0.301-69.713-0.358-104.361-0.169
		c-0.003,0-0.006,0-0.008,0c-0.825,0-1.496-0.666-1.5-1.492c-0.004-0.829,0.664-1.504,1.492-1.508
		c34.661-0.189,69.788-0.132,104.404,0.169c0.828,0.007,1.494,0.685,1.487,1.513C122.875,138.769,122.205,139.432,121.383,139.432z"
		/>
	<path fill="#3A312A" d="M51.939,156.52c-11.51,0-22.992-0.028-34.413-0.085c-0.829-0.004-1.497-0.679-1.493-1.507
		c0.004-0.826,0.675-1.493,1.5-1.493c0.002,0,0.005,0,0.007,0c34.195,0.17,68.947,0.084,103.293-0.253c0.005,0,0.01,0,0.015,0
		c0.821,0,1.491,0.662,1.499,1.485c0.008,0.828-0.657,1.506-1.485,1.515C97.975,156.407,74.904,156.52,51.939,156.52z"/>
	<path fill="#3A312A" d="M121.383,172.932c-0.006,0-0.012,0-0.018,0c-34.595-0.389-69.705-0.461-104.354-0.218
		c-0.004,0-0.007,0-0.011,0c-0.824,0-1.494-0.665-1.5-1.489c-0.006-0.829,0.661-1.505,1.489-1.511
		c34.668-0.244,69.796-0.17,104.41,0.218c0.828,0.009,1.492,0.689,1.483,1.517C122.873,172.271,122.203,172.932,121.383,172.932z"/>
	<path fill="#3A312A" d="M51.946,189.939c-11.512,0-22.994-0.021-34.418-0.065c-0.828-0.003-1.497-0.677-1.494-1.506
		c0.003-0.826,0.674-1.494,1.5-1.494c0.002,0,0.004,0,0.006,0c34.201,0.131,68.955,0.065,103.298-0.192c0.004,0,0.008,0,0.011,0
		c0.823,0,1.494,0.664,1.5,1.489c0.006,0.829-0.66,1.505-1.489,1.511C97.977,189.852,74.908,189.939,51.946,189.939z"/>
	<path fill="#3A312A" d="M121.383,206.431c-0.007,0-0.014,0-0.021,0c-34.59-0.476-69.699-0.566-104.349-0.267
		c-0.005,0-0.009,0-0.014,0c-0.822,0-1.492-0.663-1.499-1.487c-0.007-0.829,0.659-1.506,1.487-1.513
		c34.674-0.299,69.804-0.209,104.416,0.267c0.829,0.012,1.491,0.692,1.479,1.521C122.871,205.773,122.202,206.431,121.383,206.431z"
		/>
	<path fill="#3A312A" d="M51.955,223.357c-11.512,0-22.999-0.015-34.425-0.044c-0.829-0.002-1.498-0.675-1.496-1.504
		c0.002-0.829,0.687-1.522,1.504-1.496c34.212,0.089,68.967,0.044,103.303-0.132c0.003,0,0.005,0,0.008,0
		c0.825,0,1.496,0.667,1.5,1.492c0.004,0.829-0.664,1.503-1.492,1.508C97.98,223.298,74.918,223.357,51.955,223.357z"/>
	<path fill="#8AC3DA" d="M74.539,239.27h16.199c8.541,0,15.465-6.924,15.465-15.465V85.735c0-8.541-6.924-15.465-15.465-15.465
		H47.644c-8.541,0-15.465,6.924-15.465,15.465v138.07c0,8.541,6.924,15.465,15.465,15.465h12.552H74.539z"/>
	<path fill="#3A312A" d="M90.738,240.77H74.54c-0.829,0-1.5-0.671-1.5-1.5s0.671-1.5,1.5-1.5h16.198
		c7.701,0,13.965-6.265,13.965-13.965V85.735c0-7.701-6.265-13.965-13.965-13.965H47.644c-7.7,0-13.965,6.265-13.965,13.965v138.07
		c0,7.7,6.265,13.965,13.965,13.965h12.552c0.829,0,1.5,0.671,1.5,1.5s-0.671,1.5-1.5,1.5H47.644
		c-9.354,0-16.965-7.61-16.965-16.965V85.735c0-9.354,7.61-16.965,16.965-16.965h43.094c9.354,0,16.965,7.611,16.965,16.965v138.07
		C107.703,233.16,100.092,240.77,90.738,240.77z"/>
	<path fill="#3A312A" d="M48.168,89.271h-0.097c-0.829,0-1.5-0.671-1.5-1.5s0.671-1.5,1.5-1.5c0.829,0,1.548,0.671,1.548,1.5
		S48.997,89.271,48.168,89.271z"/>
	<path fill="#3A312A" d="M48.168,106.021h-0.097c-0.829,0-1.5-0.671-1.5-1.5c0-0.829,0.671-1.5,1.5-1.5
		c0.829,0,1.548,0.671,1.548,1.5C49.619,105.35,48.997,106.021,48.168,106.021z"/>
	<path fill="#3A312A" d="M48.168,122.771h-0.097c-0.829,0-1.5-0.671-1.5-1.5c0-0.829,0.671-1.5,1.5-1.5
		c0.829,0,1.548,0.671,1.548,1.5C49.619,122.1,48.997,122.771,48.168,122.771z"/>
	<path fill="#3A312A" d="M48.168,139.52h-0.097c-0.829,0-1.5-0.671-1.5-1.5c0-0.829,0.671-1.5,1.5-1.5
		c0.829,0,1.548,0.671,1.548,1.5C49.619,138.849,48.997,139.52,48.168,139.52z"/>
	<path fill="#3A312A" d="M48.168,156.27h-0.097c-0.829,0-1.5-0.671-1.5-1.5s0.671-1.5,1.5-1.5c0.829,0,1.548,0.671,1.548,1.5
		S48.997,156.27,48.168,156.27z"/>
	<path fill="#3A312A" d="M48.168,173.02h-0.097c-0.829,0-1.5-0.671-1.5-1.5s0.671-1.5,1.5-1.5c0.829,0,1.548,0.671,1.548,1.5
		S48.997,173.02,48.168,173.02z"/>
	<path fill="#3A312A" d="M48.141,189.922c-0.504,0-1.335-0.284-1.543-1.37c-0.156-0.814,0.377-1.6,1.19-1.756
		c0.168-0.032,0.334-0.035,0.495-0.012c0.01,0.001,0.02,0.001,0.029,0.002c0.821,0.08,1.424,0.797,1.35,1.619
		c-0.104,1.145-0.965,1.491-1.458,1.515C48.183,189.921,48.162,189.922,48.141,189.922z"/>
	<path fill="#3A312A" d="M48.168,206.519h-0.097c-0.829,0-1.5-0.671-1.5-1.5c0-0.829,0.671-1.5,1.5-1.5
		c0.829,0,1.548,0.671,1.548,1.5C49.619,205.848,48.997,206.519,48.168,206.519z"/>
	<path fill="#3A312A" d="M48.168,223.269h-0.097c-0.829,0-1.5-0.671-1.5-1.5c0-0.829,0.671-1.5,1.5-1.5
		c0.829,0,1.548,0.671,1.548,1.5C49.619,222.598,48.997,223.269,48.168,223.269z"/>
	<path fill="#3A312A" d="M62.216,89.271h-0.098c-0.829,0-1.5-0.671-1.5-1.5s0.671-1.5,1.5-1.5c0.829,0,1.549,0.671,1.549,1.5
		S63.044,89.271,62.216,89.271z"/>
	<path fill="#3A312A" d="M62.216,106.021h-0.098c-0.829,0-1.5-0.671-1.5-1.5c0-0.829,0.671-1.5,1.5-1.5
		c0.829,0,1.549,0.671,1.549,1.5C63.667,105.35,63.044,106.021,62.216,106.021z"/>
	<path fill="#3A312A" d="M62.216,122.771h-0.098c-0.829,0-1.5-0.671-1.5-1.5c0-0.829,0.671-1.5,1.5-1.5
		c0.829,0,1.549,0.671,1.549,1.5C63.667,122.1,63.044,122.771,62.216,122.771z"/>
	<path fill="#3A312A" d="M62.216,139.52h-0.098c-0.829,0-1.5-0.671-1.5-1.5c0-0.829,0.671-1.5,1.5-1.5
		c0.829,0,1.549,0.671,1.549,1.5C63.667,138.849,63.044,139.52,62.216,139.52z"/>
	<path fill="#3A312A" d="M62.216,156.27h-0.098c-0.829,0-1.5-0.671-1.5-1.5s0.671-1.5,1.5-1.5c0.829,0,1.549,0.671,1.549,1.5
		S63.044,156.27,62.216,156.27z"/>
	<path fill="#3A312A" d="M62.216,173.02h-0.098c-0.829,0-1.5-0.671-1.5-1.5s0.671-1.5,1.5-1.5c0.829,0,1.549,0.671,1.549,1.5
		S63.044,173.02,62.216,173.02z"/>
	<path fill="#3A312A" d="M62.188,189.922c-0.504,0-1.333-0.284-1.543-1.368c-0.157-0.813,0.375-1.6,1.188-1.757
		c0.167-0.033,0.333-0.037,0.493-0.013c0.011,0,0.022,0.001,0.034,0.003c0.821,0.08,1.424,0.797,1.35,1.619
		c-0.104,1.143-0.965,1.49-1.457,1.515C62.231,189.921,62.21,189.922,62.188,189.922z"/>
	<path fill="#3A312A" d="M62.216,206.519h-0.098c-0.829,0-1.5-0.671-1.5-1.5c0-0.829,0.671-1.5,1.5-1.5
		c0.829,0,1.549,0.671,1.549,1.5C63.667,205.848,63.044,206.519,62.216,206.519z"/>
	<path fill="#3A312A" d="M62.216,223.269h-0.098c-0.829,0-1.5-0.671-1.5-1.5c0-0.829,0.671-1.5,1.5-1.5
		c0.829,0,1.549,0.671,1.549,1.5C63.667,222.598,63.044,223.269,62.216,223.269z"/>
	<path fill="#3A312A" d="M76.264,89.271h-0.097c-0.829,0-1.5-0.671-1.5-1.5s0.671-1.5,1.5-1.5c0.829,0,1.548,0.671,1.548,1.5
		S77.092,89.271,76.264,89.271z"/>
	<path fill="#3A312A" d="M76.264,106.021h-0.097c-0.829,0-1.5-0.671-1.5-1.5c0-0.829,0.671-1.5,1.5-1.5
		c0.829,0,1.548,0.671,1.548,1.5C77.715,105.35,77.092,106.021,76.264,106.021z"/>
	<path fill="#3A312A" d="M76.264,122.771h-0.097c-0.829,0-1.5-0.671-1.5-1.5c0-0.829,0.671-1.5,1.5-1.5
		c0.829,0,1.548,0.671,1.548,1.5C77.715,122.1,77.092,122.771,76.264,122.771z"/>
	<path fill="#3A312A" d="M76.264,139.52h-0.097c-0.829,0-1.5-0.671-1.5-1.5c0-0.829,0.671-1.5,1.5-1.5
		c0.829,0,1.548,0.671,1.548,1.5C77.715,138.849,77.092,139.52,76.264,139.52z"/>
	<path fill="#3A312A" d="M76.264,156.27h-0.097c-0.829,0-1.5-0.671-1.5-1.5s0.671-1.5,1.5-1.5c0.829,0,1.548,0.671,1.548,1.5
		S77.092,156.27,76.264,156.27z"/>
	<path fill="#3A312A" d="M76.264,173.02h-0.097c-0.829,0-1.5-0.671-1.5-1.5s0.671-1.5,1.5-1.5c0.829,0,1.548,0.671,1.548,1.5
		S77.092,173.02,76.264,173.02z"/>
	<path fill="#3A312A" d="M76.236,189.922c-0.504,0-1.335-0.284-1.543-1.37c-0.156-0.814,0.377-1.6,1.19-1.756
		c0.168-0.032,0.335-0.035,0.495-0.012c0.01,0.001,0.019,0.001,0.029,0.002c0.821,0.08,1.424,0.797,1.35,1.619
		c-0.104,1.145-0.965,1.491-1.459,1.515C76.279,189.921,76.258,189.922,76.236,189.922z"/>
	<path fill="#3A312A" d="M76.264,206.519h-0.097c-0.829,0-1.5-0.671-1.5-1.5c0-0.829,0.671-1.5,1.5-1.5
		c0.829,0,1.548,0.671,1.548,1.5C77.715,205.848,77.092,206.519,76.264,206.519z"/>
	<path fill="#3A312A" d="M76.264,223.269h-0.097c-0.829,0-1.5-0.671-1.5-1.5c0-0.829,0.671-1.5,1.5-1.5
		c0.829,0,1.548,0.671,1.548,1.5C77.715,222.598,77.092,223.269,76.264,223.269z"/>
	<path fill="#3A312A" d="M90.311,89.271h-0.098c-0.829,0-1.5-0.671-1.5-1.5s0.671-1.5,1.5-1.5s1.549,0.671,1.549,1.5
		S91.14,89.271,90.311,89.271z"/>
	<path fill="#3A312A" d="M90.311,106.021h-0.098c-0.829,0-1.5-0.671-1.5-1.5c0-0.829,0.671-1.5,1.5-1.5s1.549,0.671,1.549,1.5
		C91.763,105.35,91.14,106.021,90.311,106.021z"/>
	<path fill="#3A312A" d="M90.311,122.771h-0.098c-0.829,0-1.5-0.671-1.5-1.5c0-0.829,0.671-1.5,1.5-1.5s1.549,0.671,1.549,1.5
		C91.763,122.1,91.14,122.771,90.311,122.771z"/>
	<path fill="#3A312A" d="M90.311,139.52h-0.098c-0.829,0-1.5-0.671-1.5-1.5c0-0.829,0.671-1.5,1.5-1.5s1.549,0.671,1.549,1.5
		C91.763,138.849,91.14,139.52,90.311,139.52z"/>
	<path fill="#3A312A" d="M90.311,156.27h-0.098c-0.829,0-1.5-0.671-1.5-1.5s0.671-1.5,1.5-1.5s1.549,0.671,1.549,1.5
		S91.14,156.27,90.311,156.27z"/>
	<path fill="#3A312A" d="M90.311,173.02h-0.098c-0.829,0-1.5-0.671-1.5-1.5s0.671-1.5,1.5-1.5s1.549,0.671,1.549,1.5
		S91.14,173.02,90.311,173.02z"/>
	<path fill="#3A312A" d="M90.284,189.922c-0.504,0-1.334-0.284-1.543-1.368c-0.157-0.813,0.375-1.6,1.188-1.757
		c0.168-0.033,0.333-0.037,0.493-0.013c0.011,0,0.022,0.001,0.034,0.003c0.821,0.08,1.424,0.797,1.35,1.619
		c-0.104,1.143-0.965,1.49-1.457,1.515C90.327,189.921,90.306,189.922,90.284,189.922z"/>
	<path fill="#3A312A" d="M90.311,206.519h-0.098c-0.829,0-1.5-0.671-1.5-1.5c0-0.829,0.671-1.5,1.5-1.5s1.549,0.671,1.549,1.5
		C91.763,205.848,91.14,206.519,90.311,206.519z"/>
	<path fill="#3A312A" d="M90.311,223.269h-0.098c-0.829,0-1.5-0.671-1.5-1.5c0-0.829,0.671-1.5,1.5-1.5s1.549,0.671,1.549,1.5
		C91.763,222.598,91.14,223.269,90.311,223.269z"/>
	<path fill="#D04E5D" d="M208.358,71.77h-15c7.7,0,13.96,6.26,13.96,13.97v0.63c0.16-0.07,0.33-0.1,0.51-0.1
		c0.83,0,1.55,0.67,1.55,1.5c0,0.83-0.62,1.5-1.45,1.5h-0.1c-0.18,0-0.35-0.03-0.51-0.1v13.95c0.16-0.07,0.33-0.1,0.51-0.1
		c0.83,0,1.55,0.67,1.55,1.5c0,0.83-0.62,1.5-1.45,1.5h-0.1c-0.18,0-0.35-0.03-0.51-0.1v13.95c0.16-0.07,0.33-0.1,0.51-0.1
		c0.83,0,1.55,0.67,1.55,1.5c0,0.83-0.62,1.5-1.45,1.5h-0.1c-0.18,0-0.35-0.03-0.51-0.1v13.95c0.16-0.07,0.33-0.1,0.51-0.1
		c0.83,0,1.55,0.67,1.55,1.5c0,0.83-0.62,1.5-1.45,1.5h-0.1c-0.18,0-0.35-0.03-0.51-0.1v13.95c0.16-0.07,0.33-0.1,0.51-0.1
		c0.83,0,1.55,0.67,1.55,1.5c0,0.83-0.62,1.5-1.45,1.5h-0.1c-0.18,0-0.35-0.03-0.51-0.1v13.95c0.16-0.07,0.33-0.1,0.51-0.1
		c0.83,0,1.55,0.67,1.55,1.5c0,0.83-0.62,1.5-1.45,1.5h-0.1c-0.18,0-0.35-0.03-0.51-0.1v13.94c0.08-0.03,0.15-0.05,0.23-0.06
		c0.17-0.04,0.33-0.04,0.49-0.02c0.01,0,0.02,0.01,0.04,0.01c0.82,0.08,1.42,0.79,1.35,1.62c-0.11,1.14-0.97,1.49-1.46,1.51h-0.07
		c-0.17,0-0.37-0.03-0.58-0.12v13.82c0.16-0.07,0.33-0.1,0.51-0.1c0.83,0,1.55,0.67,1.55,1.5c0,0.83-0.62,1.5-1.45,1.5h-0.1
		c-0.18,0-0.35-0.03-0.51-0.1v13.95c0.16-0.07,0.33-0.1,0.51-0.1c0.83,0,1.55,0.67,1.55,1.5c0,0.83-0.62,1.5-1.45,1.5h-0.1
		c-0.18,0-0.35-0.03-0.51-0.1v0.63c0,7.71-6.26,13.97-13.96,13.97h15c7.7,0,13.96-6.26,13.96-13.97V85.74
		C222.318,78.03,216.058,71.77,208.358,71.77z"/>
</g>
</svg>
