<?xml version="1.0" encoding="utf-8"?>
<!-- Generator: Adobe Illustrator 24.0.0, SVG Export Plug-In . SVG Version: 6.00 Build 0)  -->
<svg version="1.1" id="Layer_1" xmlns="http://www.w3.org/2000/svg" xmlns:xlink="http://www.w3.org/1999/xlink" x="0px" y="0px"
	 viewBox="0 0 256 256" enable-background="new 0 0 256 256" xml:space="preserve">
<g>
	<path fill="#87796F" d="M192.316,99.91c1.421-5.409,2.184-11.084,2.184-16.938c0-36.727-29.773-66.5-66.5-66.5
		s-66.5,29.773-66.5,66.5c0,5.855,0.763,11.53,2.184,16.938c-1.421,3.267-2.184,6.695-2.184,10.232c0,4.314,1.138,8.465,3.222,12.36
		c-2.084,3.895-3.222,8.046-3.222,12.36c0,4.314,1.138,8.465,3.222,12.36c-2.084,3.895-3.222,8.046-3.222,12.36
		c0,4.314,1.138,8.465,3.222,12.36c-2.084,3.895-3.222,8.046-3.222,12.36c0,22.185,29.773,40.17,66.5,40.17s66.5-17.985,66.5-40.17
		c0-4.314-1.138-8.465-3.222-12.36c2.084-3.895,3.222-8.046,3.222-12.36c0-4.314-1.138-8.465-3.222-12.36
		c2.084-3.895,3.222-8.046,3.222-12.36c0-4.314-1.138-8.465-3.222-12.36c2.084-3.895,3.222-8.046,3.222-12.36
		C194.5,106.606,193.737,103.178,192.316,99.91z"/>
	<path fill="#3A312A" d="M128,225.972c-37.495,0-68-18.693-68-41.67c0-4.207,1.02-8.361,3.032-12.36
		C61.02,167.943,60,163.789,60,159.582c0-4.206,1.02-8.361,3.032-12.36C61.02,143.223,60,139.068,60,134.862
		c0-4.206,1.02-8.361,3.032-12.36C61.02,118.503,60,114.349,60,110.142c0-3.498,0.708-6.976,2.104-10.349
		C60.708,94.307,60,88.651,60,82.972c0-37.495,30.505-68,68-68s68,30.505,68,68c0,5.679-0.708,11.335-2.105,16.821
		c1.397,3.373,2.105,6.852,2.105,10.349c0,4.206-1.02,8.361-3.032,12.36c2.012,4,3.032,8.154,3.032,12.36
		c0,4.206-1.02,8.36-3.032,12.36c2.013,3.999,3.032,8.153,3.032,12.36c0,4.207-1.02,8.361-3.032,12.36
		c2.012,3.999,3.032,8.154,3.032,12.36C196,207.279,165.495,225.972,128,225.972z M128,17.972c-35.841,0-65,29.159-65,65
		c0,5.594,0.718,11.164,2.135,16.557c0.085,0.326,0.059,0.671-0.075,0.979c-1.367,3.143-2.06,6.384-2.06,9.634
		c0,3.956,1.024,7.876,3.045,11.652c0.236,0.442,0.236,0.973,0,1.415C64.024,126.986,63,130.906,63,134.862
		c0,3.956,1.024,7.876,3.045,11.652c0.236,0.442,0.236,0.973,0,1.415C64.024,151.706,63,155.626,63,159.582
		c0,3.956,1.024,7.877,3.045,11.652c0.236,0.442,0.236,0.973,0,1.415C64.024,176.426,63,180.346,63,184.302
		c0,21.323,29.159,38.67,65,38.67s65-17.347,65-38.67c0-3.956-1.024-7.876-3.045-11.653c-0.236-0.442-0.236-0.973,0-1.415
		c2.021-3.776,3.045-7.696,3.045-11.652c0-3.956-1.024-7.876-3.045-11.652c-0.236-0.442-0.236-0.973,0-1.415
		c2.021-3.776,3.045-7.697,3.045-11.652c0-3.956-1.024-7.876-3.045-11.653c-0.236-0.442-0.236-0.973,0-1.415
		c2.021-3.776,3.045-7.696,3.045-11.652c0-3.25-0.693-6.491-2.06-9.634c-0.134-0.309-0.161-0.654-0.075-0.979
		C192.282,94.137,193,88.566,193,82.972C193,47.131,163.841,17.972,128,17.972z"/>
	<path fill="#F8E4C8" d="M163.964,183.271h-19.54v-18.799h-32.836v18.799H92.035c-16.335,0-29.576,13.234-29.576,29.56v26.788
		h131.08v-26.788C193.54,196.505,180.299,183.271,163.964,183.271z"/>
	<path fill="#3A312A" d="M193.54,241.119H62.459c-0.829,0-1.5-0.671-1.5-1.5v-26.788c0-17.127,13.941-31.061,31.076-31.061h18.052
		v-17.298c0-0.829,0.671-1.5,1.5-1.5h32.836c0.829,0,1.5,0.671,1.5,1.5v17.298h18.04c17.135,0,31.076,13.934,31.076,31.061v26.788
		C195.04,240.448,194.368,241.119,193.54,241.119z M63.959,238.119h128.08v-25.288c0-15.473-12.595-28.061-28.076-28.061h-19.54
		c-0.829,0-1.5-0.671-1.5-1.5v-17.298h-29.836v17.298c0,0.829-0.671,1.5-1.5,1.5H92.036c-15.481,0-28.076,12.588-28.076,28.061
		V238.119z"/>
	<path fill="#EB6E7A" d="M146.83,211.047H62.518c-0.035,0.588-0.058,1.179-0.058,1.776v26.799h131.08v-26.799
		c0-0.597-0.023-1.188-0.058-1.776h-33.068H146.83z"/>
	<path fill="#3A312A" d="M193.54,241.122H62.46c-0.829,0-1.5-0.671-1.5-1.5v-26.799c0-0.627,0.024-1.248,0.061-1.865
		c0.048-0.792,0.704-1.411,1.498-1.411h84.312c0.829,0,1.5,0.671,1.5,1.5s-0.671,1.5-1.5,1.5H63.961
		c-0.001,0.092-0.001,0.184-0.001,0.276v25.299h128.08v-25.299c0-0.092,0-0.184-0.001-0.276h-31.624c-0.829,0-1.5-0.671-1.5-1.5
		s0.671-1.5,1.5-1.5h33.068c0.794,0,1.451,0.619,1.498,1.412c0.036,0.617,0.06,1.238,0.06,1.864v26.799
		C195.04,240.45,194.369,241.122,193.54,241.122z"/>
	<path fill-rule="evenodd" clip-rule="evenodd" fill="#F8E4C8" d="M88.85,109.992c0,6.424-5.21,11.631-11.638,11.631
		c-6.427,0-11.637-5.208-11.637-11.631c0-6.424,5.21-11.632,11.637-11.632C83.64,98.36,88.85,103.568,88.85,109.992z"/>
	<path fill="#3A312A" d="M77.213,123.123c-7.244,0-13.138-5.891-13.138-13.131c0-7.241,5.893-13.131,13.138-13.131
		c7.244,0,13.137,5.891,13.137,13.131C90.35,117.232,84.456,123.123,77.213,123.123z M77.213,99.86
		c-5.59,0-10.138,4.545-10.138,10.131c0,5.586,4.548,10.131,10.138,10.131c5.59,0,10.137-4.545,10.137-10.131
		C87.35,104.405,82.803,99.86,77.213,99.86z"/>
	
		<ellipse transform="matrix(0.0021 -1 1 0.0021 68.4277 288.5522)" fill-rule="evenodd" clip-rule="evenodd" fill="#F8E4C8" cx="178.787" cy="109.992" rx="11.631" ry="11.637"/>
	<path fill="#3A312A" d="M178.787,123.123c-7.244,0-13.137-5.891-13.137-13.131c0-7.241,5.894-13.131,13.137-13.131
		c7.244,0,13.138,5.891,13.138,13.131C191.925,117.232,186.031,123.123,178.787,123.123z M178.787,99.86
		c-5.59,0-10.137,4.545-10.137,10.131c0,5.586,4.547,10.131,10.137,10.131c5.59,0,10.138-4.545,10.138-10.131
		C188.925,104.405,184.377,99.86,178.787,99.86z"/>
	<path fill="#F8E4C8" d="M179.592,104.346c0,28.478-27.441,72.189-51.59,72.189c-23.051,0-51.59-43.711-51.59-72.189
		c0-28.478,23.098-51.563,51.59-51.563C156.494,52.782,179.592,75.868,179.592,104.346z"/>
	<path fill="#3A312A" d="M128.001,178.034c-11.055,0-24.391-9.743-35.673-26.062c-10.743-15.539-17.417-33.789-17.417-47.627
		c0-29.259,23.816-53.063,53.09-53.063s53.09,23.804,53.09,53.063c0,13.995-6.514,32.241-16.999,47.618
		C152.794,168.532,139.64,178.034,128.001,178.034z M128.001,54.282c-27.62,0-50.09,22.459-50.09,50.063
		c0,13.261,6.47,30.856,16.885,45.92c10.722,15.509,23.135,24.768,33.205,24.768c10.475,0,23.04-9.256,33.612-24.76
		c10.164-14.906,16.478-32.504,16.478-45.928C178.091,76.741,155.621,54.282,128.001,54.282z"/>
	<path fill="#3A312A" d="M114.821,103.763c0,2.78-2.254,5.033-5.035,5.033c-2.781,0-5.035-2.253-5.035-5.033
		c0-2.779,2.254-5.033,5.035-5.033C112.567,98.731,114.821,100.984,114.821,103.763z"/>
	<path fill="#3A312A" d="M151.249,103.763c0,2.78-2.254,5.033-5.035,5.033c-2.781,0-5.035-2.253-5.035-5.033
		c0-2.779,2.254-5.033,5.035-5.033C148.995,98.731,151.249,100.984,151.249,103.763z"/>
	<ellipse fill="#F59689" cx="99.722" cy="118.726" rx="8.674" ry="6.481"/>
	<ellipse fill="#F59689" cx="156.278" cy="118.726" rx="8.674" ry="6.481"/>
	<path fill="#3A312A" d="M86.416,241.122c-0.829,0-1.5-0.671-1.5-1.5v-21.172c0-0.829,0.671-1.5,1.5-1.5s1.5,0.671,1.5,1.5v21.172
		C87.916,240.45,87.245,241.122,86.416,241.122z"/>
	<path fill="#3A312A" d="M169.584,241.122c-0.829,0-1.5-0.671-1.5-1.5v-21.172c0-0.829,0.671-1.5,1.5-1.5s1.5,0.671,1.5,1.5v21.172
		C171.084,240.45,170.413,241.122,169.584,241.122z"/>
	<path fill="#3A312A" d="M128,147.67c-7.285,0-12.536-3.271-15.609-9.723c-0.356-0.748-0.039-1.643,0.709-1.999
		c0.747-0.357,1.643-0.038,1.999,0.709c2.569,5.392,6.789,8.013,12.901,8.013c7.824,0,11.827-5.164,12.851-7.895
		c0.292-0.776,1.158-1.168,1.931-0.878c0.776,0.291,1.169,1.156,0.879,1.931C141.883,142.569,136.225,147.67,128,147.67z"/>
	<path fill="#87796F" d="M186.714,85.447c0,5.283-0.688,10.404-1.987,15.279c-13.214-6.367-25.783-14.184-37.428-23.021
		c-3.416-2.588-6.779-5.283-9.991-8.139c-3.942-3.457-7.67-7.183-11.033-11.221c-7.316-8.805-12.687-18.919-17.231-29.453
		c5.737-1.858,11.86-2.856,18.22-2.856c17.006,0,32.347,7.14,43.186,18.586C180.537,55.264,186.714,69.631,186.714,85.447z"/>
	<path fill="#3A312A" d="M184.727,102.226c-0.223,0-0.445-0.05-0.651-0.149c-12.983-6.256-25.662-14.054-37.684-23.177
		c-3.833-2.903-7.13-5.59-10.081-8.213c-4.206-3.689-7.973-7.52-11.189-11.381c-6.516-7.843-12.063-17.317-17.457-29.818
		c-0.167-0.388-0.163-0.828,0.011-1.213c0.174-0.385,0.502-0.678,0.904-0.809c6.003-1.944,12.289-2.929,18.682-2.929
		c16.915,0,32.638,6.767,44.275,19.055c10.753,11.343,16.676,26.208,16.676,41.855c0,5.323-0.686,10.594-2.038,15.665
		c-0.115,0.432-0.417,0.79-0.823,0.977C185.154,102.181,184.94,102.226,184.727,102.226z M111.089,29.833
		c5.066,11.475,10.279,20.262,16.339,27.555c3.115,3.74,6.772,7.458,10.868,11.051c2.899,2.578,6.137,5.215,9.908,8.071
		c11.352,8.614,23.291,16.028,35.515,22.057c0.992-4.27,1.495-8.675,1.495-13.119c0-14.876-5.63-29.008-15.853-39.792
		c-11.065-11.684-26.016-18.118-42.098-18.118C121.745,27.537,116.313,28.309,111.089,29.833z"/>
	<path fill="#87796F" d="M170.45,44.624c-10.227,9.32-21.357,17.566-33.142,24.943c-20.895,13.089-43.809,23.418-67.261,32.019
		c-1.45-5.132-2.224-10.544-2.224-16.138c0-26.457,17.307-48.876,41.22-56.554c5.737-1.858,11.86-2.856,18.22-2.856
		C144.269,26.037,159.61,33.178,170.45,44.624z"/>
	<path fill="#3A312A" d="M70.046,103.085c-0.235,0-0.469-0.055-0.682-0.164c-0.372-0.19-0.648-0.526-0.761-0.928
		c-1.513-5.354-2.28-10.921-2.28-16.546c0-26.565,16.984-49.867,42.262-57.982c6-1.943,12.286-2.928,18.679-2.928
		c16.915,0,32.638,6.767,44.275,19.055c0.277,0.292,0.425,0.684,0.41,1.086c-0.015,0.402-0.191,0.782-0.489,1.054
		c-9.831,8.958-21.053,17.405-33.357,25.105c-19.141,11.99-41.233,22.508-67.54,32.156
		C70.396,103.055,70.221,103.085,70.046,103.085z M127.263,27.537c-6.079,0-12.054,0.937-17.758,2.784
		c-24.036,7.716-40.182,29.87-40.182,55.126c0,4.802,0.587,9.558,1.748,14.162c25.433-9.42,46.852-19.67,65.44-31.314
		c11.675-7.308,22.358-15.289,31.779-23.742C157.341,33.567,142.833,27.537,127.263,27.537z"/>
	<path fill="#DECAAD" d="M191.84,209.542h-15c-1.63-13.92-13.51-24.77-27.88-24.77h15C178.33,184.772,190.21,195.622,191.84,209.542
		z"/>
	<rect x="177.04" y="212.542" fill="#D04E5D" width="15" height="25.58"/>
	<path fill="#D7E057" d="M47.223,26.056c0,0,3.408,12.659,13.222,13.246c0,0-13.1,4.525-13.321,14.202
		c0,0-2.578-13.572-12.925-14.059C34.198,39.445,46.249,37.619,47.223,26.056z"/>
	<path fill="#3A312A" d="M47.123,55.003c-0.713,0-1.335-0.506-1.472-1.217c-0.024-0.124-2.495-12.417-11.522-12.842
		c-0.771-0.037-1.388-0.651-1.428-1.421c-0.04-0.771,0.511-1.445,1.273-1.561c0.441-0.069,10.894-1.817,11.754-12.033
		c0.061-0.725,0.634-1.301,1.359-1.367c0.723-0.064,1.393,0.399,1.583,1.102c0.032,0.116,3.259,11.626,11.864,12.14
		c0.714,0.043,1.298,0.584,1.396,1.292c0.098,0.708-0.319,1.388-0.994,1.622c-0.121,0.042-12.118,4.311-12.313,12.819
		c-0.018,0.767-0.61,1.396-1.375,1.459C47.207,55.002,47.164,55.003,47.123,55.003z M39.381,39.274
		c3.878,1.969,6.23,5.746,7.587,8.876c2.026-4.021,5.942-6.787,8.949-8.427c-4.134-1.842-6.783-5.651-8.334-8.722
		C45.79,35.361,42.312,37.869,39.381,39.274z"/>
	<path fill="#D7E057" d="M25.524,43.036c0,0,2.411,8.954,9.352,9.369c0,0-9.266,3.201-9.422,10.045c0,0-1.824-9.6-9.142-9.944
		C16.312,52.507,24.835,51.215,25.524,43.036z"/>
	<path fill="#3A312A" d="M25.453,63.951c-0.714,0-1.337-0.507-1.473-1.22c-0.016-0.082-1.704-8.442-7.739-8.726
		c-0.77-0.037-1.388-0.651-1.428-1.421c-0.04-0.771,0.511-1.445,1.273-1.561c0.296-0.047,7.363-1.243,7.942-8.114
		c0.061-0.726,0.635-1.303,1.361-1.368c0.719-0.064,1.391,0.4,1.582,1.102l0,0c0.021,0.079,2.227,7.919,7.993,8.264
		c0.715,0.043,1.299,0.584,1.396,1.293c0.098,0.709-0.319,1.388-0.996,1.622c-0.081,0.028-8.282,2.953-8.412,8.662
		c-0.018,0.767-0.611,1.397-1.376,1.461C25.536,63.949,25.494,63.951,25.453,63.951z M20.934,52.423
		c2.107,1.333,3.523,3.394,4.447,5.279c1.376-2.232,3.515-3.872,5.365-4.972c-2.287-1.269-3.884-3.35-4.941-5.224
		C24.631,49.794,22.79,51.382,20.934,52.423z"/>
	<path fill="#D7E057" d="M25.524,16.379c0,0,2.411,8.954,9.352,9.37c0,0-9.266,3.201-9.422,10.045c0,0-1.824-9.6-9.142-9.944
		C16.312,25.849,24.835,24.558,25.524,16.379z"/>
	<path fill="#3A312A" d="M25.453,37.294c-0.714,0-1.337-0.507-1.473-1.22c-0.016-0.082-1.704-8.442-7.739-8.726
		c-0.77-0.037-1.387-0.651-1.427-1.421c-0.04-0.771,0.511-1.445,1.273-1.561c0.296-0.047,7.363-1.243,7.942-8.114
		c0.061-0.726,0.635-1.303,1.361-1.368c0.719-0.064,1.391,0.4,1.582,1.102l0,0c0.021,0.079,2.227,7.92,7.994,8.265
		c0.714,0.043,1.299,0.584,1.396,1.293c0.098,0.709-0.32,1.388-0.996,1.622c-0.081,0.028-8.282,2.952-8.412,8.662
		c-0.018,0.767-0.611,1.397-1.376,1.461C25.536,37.292,25.494,37.294,25.453,37.294z M20.934,25.766
		c2.107,1.333,3.523,3.394,4.447,5.279c1.376-2.232,3.516-3.872,5.365-4.973c-2.287-1.269-3.884-3.35-4.941-5.224
		C24.631,23.136,22.79,24.725,20.934,25.766z"/>
	<path fill="#89C4DB" d="M216.865,160.507l-24.614-24.614c-2.432-2.432-6.375-2.432-8.807,0l-13.747,13.747
		c-1.297,1.297-1.297,3.4,0,4.698c1.297,1.297,3.401,1.297,4.698,0l10.289-10.289c0.797-0.797,2.109-0.881,2.926-0.105
		c0.839,0.797,0.851,2.122,0.039,2.935l-11.145,11.145c-0.862,0.862-0.862,2.259,0,3.12s2.259,0.862,3.12,0l11.078-11.078
		c0.797-0.797,2.109-0.881,2.926-0.105c0.839,0.797,0.852,2.122,0.039,2.935l-11.145,11.145c-0.862,0.862-0.862,2.259,0,3.12
		c0.862,0.862,2.259,0.862,3.12,0l11.078-11.078c0.797-0.797,2.109-0.881,2.926-0.105c0.839,0.797,0.852,2.122,0.039,2.935
		L188.54,170.06c-0.862,0.862-0.862,2.259,0,3.12c0.862,0.862,2.259,0.862,3.121,0l11.078-11.078
		c0.797-0.797,2.109-0.881,2.926-0.105c0.839,0.797,0.852,2.123,0.039,2.935l-11.145,11.145c-0.862,0.862-0.862,2.259,0,3.12
		c0.862,0.862,2.259,0.862,3.121,0l11.078-11.078c0.797-0.797,2.109-0.881,2.926-0.105c0.839,0.797,0.852,2.122,0.039,2.935
		l-11.145,11.145c-0.862,0.862-0.862,2.259,0,3.12c0.862,0.862,2.259,0.862,3.12,0l11.078-11.078
		c0.797-0.797,2.109-0.881,2.926-0.105c0.839,0.797,0.852,2.122,0.039,2.935l-11.145,11.145c-0.862,0.862-0.862,2.259,0,3.12
		c0.862,0.862,2.259,0.862,3.12,0l11.078-11.078c0.797-0.797,2.109-0.881,2.926-0.105c0.839,0.797,0.852,2.122,0.039,2.935
		l-11.145,11.145c-0.862,0.862-0.862,2.259,0,3.12c0.862,0.862,2.259,0.862,3.121,0l11.078-11.078
		c0.797-0.797,2.109-0.881,2.926-0.105c0.839,0.797,0.852,2.123,0.039,2.935l-10.356,10.357c-1.297,1.297-1.297,3.4,0,4.698
		c1.297,1.297,3.4,1.297,4.698,0l13.747-13.747c2.432-2.432,2.432-6.375,0-8.807l-9.058-9.058L216.865,160.507z"/>
	<path fill="#3A312A" d="M221.769,206.533c-1.288,0-2.499-0.502-3.41-1.413c-1.88-1.879-1.88-4.938-0.001-6.819l10.357-10.356
		c0.142-0.143,0.162-0.309,0.16-0.396c-0.001-0.086-0.025-0.252-0.171-0.391c-0.207-0.196-0.595-0.16-0.832,0.078l-11.079,11.078
		c-1.446,1.446-3.797,1.444-5.242,0c-0.7-0.7-1.086-1.631-1.086-2.621c0-0.99,0.386-1.921,1.086-2.621l11.145-11.145
		c0.143-0.143,0.162-0.309,0.161-0.396c-0.001-0.086-0.025-0.252-0.172-0.392c-0.206-0.195-0.595-0.159-0.833,0.078l-11.078,11.078
		c-1.445,1.445-3.796,1.445-5.241,0c-1.445-1.445-1.445-3.796,0-5.242l11.145-11.145c0.142-0.143,0.162-0.309,0.161-0.396
		c-0.001-0.086-0.025-0.252-0.172-0.392c-0.206-0.196-0.595-0.159-0.833,0.078l-11.078,11.078c-1.4,1.4-3.841,1.4-5.242,0
		c-1.445-1.445-1.445-3.796,0-5.241l11.146-11.145c0.142-0.143,0.162-0.309,0.16-0.395c-0.001-0.086-0.025-0.252-0.171-0.391
		c-0.206-0.197-0.595-0.16-0.832,0.078l-11.079,11.078c-1.446,1.446-3.797,1.444-5.242,0c-1.445-1.445-1.445-3.796,0-5.242
		l11.145-11.145c0.143-0.143,0.162-0.309,0.161-0.395c-0.001-0.087-0.025-0.252-0.171-0.391c-0.208-0.197-0.596-0.16-0.833,0.078
		l-11.078,11.078c-1.401,1.401-3.842,1.4-5.242,0c-0.7-0.7-1.086-1.631-1.086-2.621c0-0.99,0.386-1.921,1.086-2.621l11.145-11.145
		c0.143-0.143,0.162-0.309,0.161-0.396c-0.001-0.086-0.025-0.252-0.172-0.392c-0.205-0.196-0.595-0.159-0.832,0.078l-11.078,11.078
		c-1.445,1.445-3.796,1.445-5.241,0c-1.445-1.445-1.445-3.796,0-5.242l11.145-11.146c0.142-0.143,0.162-0.309,0.161-0.395
		c-0.001-0.086-0.025-0.252-0.172-0.392c-0.206-0.197-0.595-0.159-0.833,0.078l-11.078,11.078c-1.4,1.4-3.841,1.401-5.242,0
		c-1.445-1.445-1.445-3.796-0.001-5.242l11.146-11.145c0.143-0.143,0.162-0.309,0.161-0.396c-0.001-0.087-0.024-0.252-0.171-0.392
		c-0.206-0.195-0.595-0.158-0.833,0.078l-10.29,10.289c-0.911,0.911-2.122,1.413-3.409,1.413c-1.288,0-2.499-0.501-3.41-1.413
		c-1.88-1.88-1.88-4.939,0-6.819l13.747-13.747c3.013-3.012,7.915-3.013,10.928,0l24.614,24.614c0.586,0.585,0.586,1.536,0,2.121
		c-0.586,0.586-1.535,0.586-2.121,0l-24.614-24.614c-1.844-1.843-4.843-1.843-6.686,0L170.757,150.7c-0.71,0.71-0.71,1.866,0,2.577
		c0.688,0.688,1.888,0.689,2.577,0l10.29-10.29c1.385-1.385,3.637-1.446,5.02-0.131c0.7,0.665,1.093,1.563,1.105,2.528
		c0.012,0.965-0.357,1.872-1.04,2.555l-11.145,11.144c-0.275,0.275-0.275,0.724,0,1c0.275,0.276,0.724,0.275,1,0l11.078-11.078
		c1.386-1.387,3.638-1.444,5.02-0.132c0.7,0.665,1.093,1.563,1.105,2.528c0.013,0.965-0.356,1.873-1.039,2.555l-11.145,11.145
		c-0.18,0.18-0.207,0.391-0.207,0.5c0,0.109,0.027,0.32,0.207,0.5c0.18,0.18,0.39,0.206,0.499,0.206c0.109,0,0.32-0.027,0.499-0.206
		l11.078-11.078c1.384-1.386,3.636-1.445,5.02-0.132c0.701,0.666,1.093,1.564,1.106,2.529c0.012,0.965-0.357,1.873-1.04,2.555
		l-11.145,11.145c-0.275,0.275-0.275,0.724,0,1c0.275,0.275,0.724,0.276,0.999,0l11.078-11.078c1.386-1.386,3.639-1.444,5.02-0.131
		c0.7,0.665,1.093,1.563,1.105,2.527c0.012,0.965-0.356,1.873-1.04,2.556l-11.145,11.145c-0.275,0.275-0.275,0.724,0,1
		c0.275,0.276,0.724,0.275,0.999,0l11.078-11.078c1.384-1.386,3.637-1.446,5.02-0.132c0.7,0.665,1.093,1.563,1.105,2.528
		c0.013,0.965-0.357,1.873-1.039,2.555l-11.145,11.146c-0.275,0.275-0.275,0.724,0,0.999c0.275,0.275,0.724,0.276,0.999,0
		l11.078-11.078c1.386-1.386,3.638-1.444,5.02-0.132c0.701,0.666,1.093,1.564,1.105,2.529c0.013,0.965-0.357,1.872-1.039,2.555
		l-11.145,11.145c-0.275,0.275-0.275,0.724,0,0.999c0.275,0.275,0.724,0.275,0.999,0l11.078-11.078
		c1.385-1.385,3.637-1.444,5.02-0.132c0.701,0.666,1.093,1.564,1.106,2.529c0.012,0.965-0.357,1.872-1.04,2.555l-11.145,11.145
		c-0.275,0.275-0.275,0.724,0,1c0.275,0.275,0.724,0.275,1,0l11.078-11.078c1.385-1.386,3.638-1.446,5.019-0.132
		c0.7,0.664,1.093,1.563,1.106,2.528c0.013,0.965-0.357,1.873-1.039,2.555l-10.357,10.357c-0.71,0.71-0.71,1.866,0,2.577
		c0.688,0.688,1.888,0.689,2.576,0l13.747-13.747c1.843-1.843,1.843-4.843,0-6.686l-9.058-9.058c-0.586-0.585-0.586-1.536,0-2.121
		c0.586-0.586,1.535-0.586,2.121,0l9.058,9.058c3.013,3.013,3.013,7.915,0,10.928l-13.747,13.747
		C224.268,206.031,223.057,206.533,221.769,206.533z"/>
	<path fill="#FCE8CB" d="M41.494,187.458l13.591-3.835l19.262-48.509c-1.728-1.728-4.635-1.287-5.773,0.876L41.494,187.458z"/>
	<path fill="#3A312A" d="M41.494,188.959c-0.445,0-0.876-0.199-1.165-0.556c-0.377-0.466-0.441-1.112-0.162-1.642l27.08-51.469
		c0.767-1.457,2.14-2.435,3.768-2.682c1.627-0.247,3.229,0.28,4.394,1.444c0.423,0.423,0.554,1.058,0.333,1.614l-19.262,48.509
		c-0.172,0.434-0.537,0.763-0.987,0.89l-13.591,3.835C41.767,188.94,41.63,188.959,41.494,188.959z M71.791,135.551
		c-0.108,0-0.217,0.008-0.327,0.025c-0.675,0.102-1.245,0.508-1.563,1.112l-25.454,48.379l9.517-2.686l18.545-46.704
		C72.281,135.594,72.039,135.551,71.791,135.551z"/>
	<path fill="#FCE8CB" d="M86.249,147.016L37.74,166.278l-3.835,13.591l51.469-27.08C87.536,151.651,87.977,148.744,86.249,147.016
		L86.249,147.016z"/>
	<path fill="#3A312A" d="M33.905,181.369c-0.337,0-0.672-0.113-0.944-0.335c-0.466-0.378-0.663-0.996-0.5-1.573l3.835-13.591
		c0.127-0.45,0.456-0.814,0.89-0.987l48.509-19.262c0.557-0.222,1.19-0.09,1.614,0.333c1.165,1.164,1.69,2.765,1.443,4.393
		c-0.247,1.628-1.224,3.001-2.681,3.768l-51.47,27.08C34.383,181.312,34.144,181.369,33.905,181.369z M38.982,167.398l-2.685,9.517
		l48.379-25.454c0.604-0.318,1.009-0.887,1.112-1.563c0.055-0.36,0.018-0.717-0.102-1.045L38.982,167.398z"/>
	<path fill-rule="evenodd" clip-rule="evenodd" fill="#EB6E7A" d="M38.593,171.764c0.619-6.872-5.014-12.632-11.898-12.167
		c-5.416,0.366-9.849,4.701-10.336,10.107c-0.62,6.873,5.015,12.634,11.9,12.168C33.674,181.505,38.106,177.17,38.593,171.764z
		 M31.958,170.18c0.34,2.966-2.178,5.429-5.136,5.023c-2.015-0.277-3.627-1.924-3.859-3.945c-0.341-2.967,2.178-5.43,5.136-5.024
		C30.115,166.512,31.726,168.159,31.958,170.18z"/>
	<path fill="#3A312A" d="M27.492,183.398c-3.411,0-6.677-1.362-9.07-3.809c-2.596-2.654-3.892-6.306-3.558-10.02
		c0.552-6.124,5.594-11.054,11.729-11.469c3.727-0.248,7.342,1.127,9.937,3.78c2.595,2.653,3.891,6.305,3.557,10.017l0,0
		c-0.552,6.124-5.593,11.055-11.727,11.47C28.07,183.388,27.78,183.398,27.492,183.398z M27.458,161.071
		c-0.22,0-0.441,0.007-0.662,0.022c-4.677,0.316-8.522,4.076-8.943,8.745c-0.256,2.838,0.733,5.627,2.714,7.652
		c1.981,2.026,4.761,3.081,7.59,2.884c4.677-0.317,8.521-4.077,8.942-8.746c0.256-2.837-0.733-5.626-2.714-7.651
		C32.559,162.11,30.064,161.071,27.458,161.071z M38.593,171.764h0.01H38.593z M27.464,176.748c-0.28,0-0.562-0.019-0.845-0.058
		c-2.673-0.366-4.837-2.578-5.146-5.259c-0.216-1.878,0.43-3.708,1.772-5.02c1.342-1.312,3.185-1.919,5.059-1.661
		c2.674,0.367,4.837,2.58,5.145,5.26l0,0c0.215,1.878-0.431,3.708-1.773,5.02C30.537,176.143,29.036,176.748,27.464,176.748z
		 M27.465,167.691c-0.794,0-1.55,0.303-2.122,0.863c-0.675,0.66-0.999,1.583-0.89,2.533c0.154,1.341,1.236,2.447,2.573,2.63
		c0.948,0.132,1.878-0.173,2.552-0.833c0.675-0.66,0.999-1.583,0.89-2.533c-0.154-1.34-1.236-2.446-2.573-2.63
		C27.751,167.701,27.608,167.691,27.465,167.691z"/>
	<path fill-rule="evenodd" clip-rule="evenodd" fill="#3B322A" d="M60.709,163.46c-0.775,0.775-2.031,0.775-2.806,0
		c-0.775-0.775-0.775-2.031,0-2.806c0.775-0.775,2.031-0.775,2.806,0C61.484,161.429,61.484,162.685,60.709,163.46z"/>
	<path fill-rule="evenodd" clip-rule="evenodd" fill="#EB6E7A" d="M61.746,194.917c0.619-6.872-5.014-12.632-11.898-12.167
		c-5.416,0.366-9.849,4.701-10.336,10.107c-0.619,6.873,5.015,12.634,11.9,12.168C56.827,204.658,61.259,200.323,61.746,194.917z
		 M55.111,193.333c0.34,2.966-2.178,5.429-5.136,5.023c-2.015-0.277-3.627-1.924-3.859-3.945c-0.341-2.966,2.178-5.43,5.136-5.024
		C53.268,189.665,54.879,191.312,55.111,193.333z"/>
	<path fill="#3A312A" d="M50.645,206.55c-3.411,0-6.677-1.362-9.07-3.809c-2.595-2.654-3.892-6.306-3.558-10.02
		c0.553-6.124,5.595-11.054,11.729-11.469c3.713-0.251,7.34,1.126,9.935,3.779c2.595,2.653,3.892,6.305,3.558,10.019c0,0,0,0,0,0
		c-0.552,6.123-5.593,11.054-11.727,11.469C51.223,206.541,50.933,206.55,50.645,206.55z M50.612,184.224
		c-0.221,0-0.441,0.007-0.663,0.023c-4.677,0.316-8.522,4.076-8.943,8.745c-0.256,2.838,0.733,5.627,2.714,7.652
		c1.981,2.026,4.762,3.081,7.59,2.884c4.677-0.317,8.521-4.077,8.942-8.746c0.255-2.837-0.734-5.627-2.715-7.652
		C55.711,185.263,53.217,184.224,50.612,184.224z M61.746,194.917h0.01H61.746z M50.616,199.901c-0.28,0-0.562-0.019-0.844-0.058
		c-2.674-0.367-4.838-2.579-5.146-5.26c-0.216-1.878,0.43-3.707,1.772-5.02c1.342-1.313,3.183-1.917,5.058-1.661
		c2.673,0.367,4.837,2.579,5.145,5.261l0,0c0.215,1.877-0.431,3.707-1.772,5.02C53.69,199.296,52.189,199.901,50.616,199.901z
		 M50.618,190.844c-0.794,0-1.55,0.304-2.122,0.863c-0.674,0.66-0.999,1.583-0.89,2.533c0.154,1.341,1.236,2.447,2.573,2.631
		c0.947,0.127,1.878-0.174,2.552-0.833c0.674-0.66,0.999-1.583,0.89-2.533c-0.154-1.341-1.236-2.447-2.573-2.631
		C50.904,190.854,50.761,190.844,50.618,190.844z"/>
</g>
</svg>
