<?xml version="1.0" encoding="utf-8"?>
<!-- Generator: Adobe Illustrator 24.0.0, SVG Export Plug-In . SVG Version: 6.00 Build 0)  -->
<svg version="1.1" id="Layer_1" xmlns="http://www.w3.org/2000/svg" xmlns:xlink="http://www.w3.org/1999/xlink" x="0px" y="0px"
	 viewBox="0 0 256 256" enable-background="new 0 0 256 256" xml:space="preserve">
<g>
	<path fill="#D7E057" d="M70.232,26.084c0,0,3.408,12.659,13.222,13.246c0,0-13.1,4.525-13.321,14.202
		c0,0-2.578-13.572-12.925-14.059C57.208,39.473,69.258,37.647,70.232,26.084z"/>
	<path fill="#3A312A" d="M70.132,55.031c-0.713,0-1.335-0.506-1.473-1.217c-0.024-0.124-2.494-12.417-11.523-12.842
		c-0.771-0.037-1.388-0.651-1.428-1.421c-0.04-0.771,0.511-1.445,1.273-1.561c0.441-0.069,10.895-1.817,11.755-12.033
		c0.062-0.725,0.635-1.301,1.359-1.367c0.737-0.058,1.393,0.399,1.584,1.102c0.031,0.116,3.258,11.626,11.863,12.141
		c0.714,0.043,1.298,0.584,1.396,1.292c0.098,0.708-0.318,1.388-0.994,1.623c-0.121,0.042-12.119,4.31-12.313,12.819
		c-0.018,0.767-0.61,1.396-1.375,1.46C70.216,55.03,70.174,55.031,70.132,55.031z M62.391,39.302
		c3.878,1.969,6.231,5.746,7.587,8.876c2.026-4.021,5.941-6.787,8.949-8.427c-4.135-1.842-6.783-5.651-8.334-8.723
		C68.8,35.389,65.321,37.897,62.391,39.302z"/>
	<path fill="#D7E057" d="M48.533,43.064c0,0,2.411,8.954,9.352,9.369c0,0-9.266,3.201-9.422,10.045c0,0-1.824-9.6-9.142-9.944
		C39.321,52.535,47.844,51.243,48.533,43.064z"/>
	<path fill="#3A312A" d="M48.462,63.979c-0.714,0-1.337-0.507-1.473-1.22c-0.016-0.082-1.704-8.442-7.738-8.726
		c-0.771-0.037-1.388-0.651-1.428-1.421c-0.04-0.771,0.511-1.445,1.273-1.561c0.296-0.047,7.363-1.243,7.941-8.114
		c0.062-0.726,0.636-1.303,1.361-1.368c0.711-0.06,1.392,0.399,1.581,1.102l0,0c0.022,0.079,2.229,7.92,7.994,8.265
		c0.714,0.043,1.299,0.584,1.396,1.293c0.097,0.709-0.32,1.388-0.996,1.622c-0.081,0.028-8.282,2.952-8.412,8.662
		c-0.018,0.767-0.611,1.397-1.376,1.461C48.545,63.978,48.503,63.979,48.462,63.979z M43.943,52.451
		c2.106,1.333,3.522,3.395,4.446,5.28c1.376-2.232,3.516-3.872,5.365-4.973c-2.287-1.269-3.884-3.35-4.941-5.223
		C47.641,49.822,45.799,51.41,43.943,52.451z"/>
	<path fill="#D7E057" d="M48.533,16.406c0,0,2.411,8.954,9.352,9.37c0,0-9.266,3.201-9.422,10.045c0,0-1.824-9.6-9.142-9.944
		C39.321,25.877,47.844,24.586,48.533,16.406z"/>
	<path fill="#3A312A" d="M48.462,37.321c-0.714,0-1.337-0.507-1.473-1.22c-0.016-0.082-1.704-8.442-7.738-8.726
		c-0.771-0.037-1.388-0.651-1.428-1.421c-0.04-0.77,0.511-1.445,1.273-1.561c0.296-0.047,7.363-1.243,7.941-8.114
		c0.062-0.726,0.636-1.303,1.361-1.368c0.711-0.059,1.392,0.399,1.581,1.102l0,0c0.022,0.079,2.229,7.919,7.994,8.264
		c0.714,0.043,1.299,0.585,1.396,1.294c0.097,0.709-0.32,1.388-0.996,1.622c-0.081,0.028-8.282,2.953-8.412,8.662
		c-0.018,0.767-0.611,1.397-1.376,1.461C48.545,37.32,48.503,37.321,48.462,37.321z M43.943,25.794
		c2.106,1.333,3.522,3.394,4.446,5.28c1.376-2.232,3.516-3.872,5.365-4.973c-2.287-1.269-3.884-3.35-4.941-5.223
		C47.641,23.165,45.799,24.753,43.943,25.794z"/>
	<path fill="#87796F" d="M146.232,162.234c20.926-10.83,38.97-28.479,48.137-47.553c14.713-30.615,12.955-89.552-33.682-97.521
		c-29.823-5.096-70.11,13.577-50.585,64.61c24.202,63.257-46.888,85.425-17.062,90.522
		C110.544,175.283,129.328,170.982,146.232,162.234z"/>
	<path fill="#3A312A" d="M104.275,174.719c-3.931,0-7.771-0.314-11.488-0.949c-5.021-0.858-7.624-2.252-8.438-4.52
		c-1.25-3.483,2.225-7.507,7.484-13.597c11.646-13.484,31.138-36.054,16.868-73.347c-10.108-26.421-3.713-42.343,3.433-51.048
		c11.892-14.489,33.081-18.263,48.807-15.576c15.891,2.715,28.153,11.631,35.464,25.784c11.84,22.921,8.618,54.509-0.684,73.866
		c-9.204,19.153-27.447,37.185-48.799,48.235l0,0C132.758,170.896,117.986,174.719,104.275,174.719z M151.148,17.871
		c-13.12,0-27.761,4.405-36.695,15.289c-9.522,11.602-10.542,28.225-2.948,48.073c14.909,38.969-5.316,62.388-17.4,76.38
		c-3.903,4.52-7.59,8.788-6.932,10.623c0.219,0.609,1.305,1.753,6.121,2.576c16.044,2.742,34.602-0.777,52.25-9.912
		c20.794-10.762,38.541-28.284,47.475-46.871c8.98-18.687,12.111-49.14,0.722-71.189c-6.96-13.473-18.165-21.616-33.305-24.203
		C157.503,18.137,154.37,17.871,151.148,17.871z"/>
	<path fill="#F8E4C8" d="M187.103,183.299h-19.54V164.5h-32.836v18.799h-19.552c-16.335,0-29.576,13.234-29.576,29.56v26.788h131.08
		v-26.788C216.679,196.533,203.438,183.299,187.103,183.299z"/>
	<path fill="#3A312A" d="M216.679,241.147H85.599c-0.828,0-1.5-0.671-1.5-1.5v-26.788c0-17.126,13.94-31.06,31.076-31.06h18.052
		V164.5c0-0.829,0.672-1.5,1.5-1.5h32.836c0.828,0,1.5,0.671,1.5,1.5v17.299h18.04c17.136,0,31.076,13.934,31.076,31.06v26.788
		C218.179,240.476,217.507,241.147,216.679,241.147z M87.099,238.147h128.08v-25.288c0-15.472-12.595-28.06-28.076-28.06h-19.54
		c-0.828,0-1.5-0.671-1.5-1.5V166h-29.836v17.299c0,0.829-0.672,1.5-1.5,1.5h-19.552c-15.481,0-28.076,12.588-28.076,28.06V238.147z
		"/>
	<path fill="#EB6E7A" d="M169.969,211.074H85.657c-0.035,0.588-0.058,1.179-0.058,1.776v26.799h131.08V212.85
		c0-0.597-0.023-1.188-0.058-1.776h-33.068H169.969z"/>
	<path fill="#3A312A" d="M216.679,241.149H85.599c-0.828,0-1.5-0.671-1.5-1.5v-26.799c0-0.627,0.024-1.248,0.062-1.865
		c0.047-0.792,0.703-1.411,1.497-1.411h84.312c0.828,0,1.5,0.671,1.5,1.5c0,0.829-0.672,1.5-1.5,1.5H87.101
		c-0.001,0.092-0.002,0.184-0.002,0.276v25.299h128.08v-25.299c0-0.092-0.001-0.184-0.002-0.276h-31.623c-0.828,0-1.5-0.671-1.5-1.5
		c0-0.829,0.672-1.5,1.5-1.5h33.067c0.794,0,1.45,0.618,1.497,1.411c0.037,0.617,0.061,1.238,0.061,1.865v26.799
		C218.179,240.478,217.507,241.149,216.679,241.149z"/>
	<path fill-rule="evenodd" clip-rule="evenodd" fill="#F8E4C8" d="M111.989,110.02c0,6.424-5.21,11.631-11.638,11.631
		c-6.427,0-11.637-5.207-11.637-11.631c0-6.424,5.21-11.632,11.637-11.632C106.779,98.388,111.989,103.596,111.989,110.02z"/>
	<path fill="#3A312A" d="M100.352,123.151c-7.244,0-13.138-5.891-13.138-13.131s5.894-13.132,13.138-13.132
		c7.244,0,13.138,5.891,13.138,13.132S107.596,123.151,100.352,123.151z M100.352,99.888c-5.59,0-10.138,4.545-10.138,10.132
		c0,5.586,4.548,10.131,10.138,10.131c5.59,0,10.138-4.545,10.138-10.131C110.489,104.433,105.941,99.888,100.352,99.888z"/>
	
		<ellipse transform="matrix(0.0021 -1 1 0.0021 91.491 311.719)" fill-rule="evenodd" clip-rule="evenodd" fill="#F8E4C8" cx="201.926" cy="110.02" rx="11.631" ry="11.637"/>
	<path fill="#3A312A" d="M201.926,123.151c-7.243,0-13.137-5.891-13.137-13.131s5.894-13.132,13.137-13.132
		c7.244,0,13.138,5.891,13.138,13.132S209.17,123.151,201.926,123.151z M201.926,99.888c-5.59,0-10.137,4.545-10.137,10.132
		c0,5.586,4.547,10.131,10.137,10.131c5.59,0,10.138-4.545,10.138-10.131C212.064,104.433,207.516,99.888,201.926,99.888z"/>
	<path fill="#F8E4C8" d="M202.73,104.373c0,28.478-27.44,72.189-51.59,72.189c-23.051,0-51.59-43.711-51.59-72.189
		c0-28.477,23.098-51.563,51.59-51.563C179.633,52.81,202.73,75.896,202.73,104.373z"/>
	<path fill="#3A312A" d="M151.141,178.062c-11.055,0-24.391-9.743-35.673-26.062c-10.743-15.539-17.417-33.789-17.417-47.627
		c0-29.259,23.816-53.063,53.09-53.063c29.273,0,53.09,23.804,53.09,53.063c0,13.995-6.514,32.241-17,47.618
		C175.934,168.56,162.779,178.062,151.141,178.062z M151.141,54.31c-27.62,0-50.09,22.458-50.09,50.063
		c0,13.261,6.47,30.856,16.885,45.92c10.722,15.509,23.135,24.768,33.205,24.768c10.475,0,23.04-9.256,33.611-24.76
		c10.164-14.906,16.479-32.504,16.479-45.928C201.23,76.769,178.761,54.31,151.141,54.31z"/>
	<path fill="#3A312A" d="M137.96,103.791c0,2.78-2.254,5.033-5.035,5.033c-2.781,0-5.035-2.253-5.035-5.033
		c0-2.779,2.254-5.033,5.035-5.033C135.706,98.758,137.96,101.012,137.96,103.791z"/>
	<path fill="#3A312A" d="M174.388,103.791c0,2.78-2.254,5.033-5.035,5.033c-2.781,0-5.035-2.253-5.035-5.033
		c0-2.779,2.254-5.033,5.035-5.033C172.134,98.758,174.388,101.012,174.388,103.791z"/>
	<path fill="#F59689" d="M131.535,118.754c0,3.579-3.884,6.481-8.674,6.481c-4.79,0-8.674-2.902-8.674-6.481
		c0-3.58,3.884-6.481,8.674-6.481C127.652,112.273,131.535,115.174,131.535,118.754z"/>
	<path fill="#F59689" d="M188.091,118.754c0,3.579-3.883,6.481-8.674,6.481c-4.79,0-8.674-2.902-8.674-6.481
		c0-3.58,3.884-6.481,8.674-6.481C184.207,112.273,188.091,115.174,188.091,118.754z"/>
	<path fill="#3A312A" d="M109.555,241.149c-0.828,0-1.5-0.671-1.5-1.5v-21.172c0-0.829,0.672-1.5,1.5-1.5c0.828,0,1.5,0.671,1.5,1.5
		v21.172C111.055,240.478,110.383,241.149,109.555,241.149z"/>
	<path fill="#3A312A" d="M192.723,241.149c-0.828,0-1.5-0.671-1.5-1.5v-21.172c0-0.829,0.672-1.5,1.5-1.5c0.828,0,1.5,0.671,1.5,1.5
		v21.172C194.223,240.478,193.551,241.149,192.723,241.149z"/>
	<path fill="#3A312A" d="M151.139,147.699c-7.284,0-12.536-3.271-15.609-9.724c-0.356-0.748-0.038-1.643,0.71-1.999
		c0.748-0.357,1.643-0.038,1.999,0.71c2.567,5.393,6.788,8.014,12.9,8.014c7.823,0,11.827-5.165,12.852-7.895
		c0.29-0.776,1.156-1.17,1.931-0.877c0.776,0.29,1.169,1.155,0.878,1.931C165.021,142.597,159.363,147.699,151.139,147.699z"/>
	<path fill="#87796F" d="M209.853,85.475c0,5.283-0.688,10.404-1.987,15.279c-13.214-6.367-25.783-14.184-37.428-23.021
		c-3.416-2.588-6.779-5.283-9.991-8.139c-3.942-3.457-7.67-7.183-11.033-11.22c-7.316-8.805-12.687-18.919-17.232-29.453
		c5.737-1.858,11.86-2.856,18.22-2.856c17.006,0,32.347,7.14,43.186,18.586C203.676,55.292,209.853,69.659,209.853,85.475z"/>
	<path fill="#3A312A" d="M207.866,102.254c-0.223,0-0.445-0.05-0.651-0.149c-12.981-6.255-25.66-14.053-37.684-23.177
		c-3.836-2.905-7.134-5.592-10.081-8.212c-4.204-3.687-7.971-7.518-11.188-11.382c-6.516-7.841-12.063-17.315-17.457-29.818
		c-0.168-0.388-0.164-0.828,0.011-1.213c0.174-0.385,0.502-0.678,0.904-0.809c6.003-1.943,12.289-2.929,18.683-2.929
		c16.915,0,32.639,6.767,44.275,19.055c10.754,11.343,16.676,26.208,16.676,41.854c0,5.323-0.686,10.594-2.038,15.666
		c-0.115,0.432-0.417,0.79-0.823,0.977C208.294,102.209,208.08,102.254,207.866,102.254z M134.229,29.861
		c5.066,11.476,10.28,20.263,16.339,27.555c3.117,3.742,6.774,7.461,10.868,11.051c2.896,2.575,6.135,5.212,9.908,8.071
		c11.353,8.615,23.292,16.03,35.516,22.057c0.992-4.271,1.494-8.675,1.494-13.12c0-14.875-5.63-29.007-15.854-39.791
		C181.436,34,166.484,27.565,150.402,27.565C144.884,27.565,139.45,28.337,134.229,29.861z"/>
	<path fill="#87796F" d="M193.589,44.652c-10.227,9.32-21.357,17.566-33.142,24.943c-20.895,13.089-43.809,23.418-67.261,32.019
		c-1.45-5.132-2.224-10.544-2.224-16.138c0-26.457,17.307-48.876,41.22-56.554c5.737-1.858,11.86-2.856,18.22-2.856
		C167.408,26.065,182.749,33.206,193.589,44.652z"/>
	<path fill="#3A312A" d="M93.186,103.113c-0.234,0-0.469-0.055-0.682-0.164c-0.372-0.19-0.648-0.526-0.762-0.928
		c-1.513-5.355-2.28-10.921-2.28-16.546c0-26.565,16.983-49.867,42.261-57.982c6-1.942,12.286-2.928,18.68-2.928
		c16.915,0,32.639,6.767,44.275,19.055c0.277,0.292,0.425,0.684,0.41,1.086c-0.015,0.402-0.191,0.782-0.488,1.054
		c-9.829,8.956-21.052,17.402-33.357,25.106c-19.139,11.989-41.232,22.507-67.54,32.155
		C93.535,103.083,93.36,103.113,93.186,103.113z M150.402,27.565c-6.08,0-12.055,0.937-17.759,2.783
		c-24.035,7.716-40.182,29.87-40.182,55.126c0,4.802,0.588,9.558,1.748,14.162c25.434-9.42,46.854-19.671,65.44-31.313
		c11.676-7.309,22.36-15.292,31.779-23.742C180.48,33.596,165.973,27.565,150.402,27.565z"/>
	<path fill="#DECAAD" d="M214.979,209.57h-15c-1.63-13.92-13.51-24.77-27.88-24.77h15C201.469,184.8,213.349,195.65,214.979,209.57z
		"/>
	<rect x="200.179" y="212.57" fill="#D04E5D" width="15" height="25.58"/>
</g>
</svg>
