<?xml version="1.0" encoding="utf-8"?>
<!-- Generator: Adobe Illustrator 24.0.0, SVG Export Plug-In . SVG Version: 6.00 Build 0)  -->
<svg version="1.1" id="Layer_1" xmlns="http://www.w3.org/2000/svg" xmlns:xlink="http://www.w3.org/1999/xlink" x="0px" y="0px"
	 viewBox="0 0 256 256" enable-background="new 0 0 256 256" xml:space="preserve">
<g>
	<path fill="#D7E057" d="M147.157,99.91c1.421-5.409,2.184-11.084,2.184-16.938c0-36.727-29.773-66.5-66.5-66.5
		s-66.5,29.773-66.5,66.5c0,5.854,0.763,11.53,2.184,16.938c-1.421,3.267-2.184,6.695-2.184,10.232c0,4.314,1.138,8.465,3.222,12.36
		c-2.084,3.895-3.222,8.046-3.222,12.36c0,4.314,1.138,8.465,3.222,12.36c-2.084,3.895-3.222,8.046-3.222,12.36
		c0,4.314,1.138,8.465,3.222,12.36c-2.084,3.895-3.222,8.046-3.222,12.36c0,22.185,29.773,40.17,66.5,40.17s66.5-17.985,66.5-40.17
		c0-4.314-1.138-8.465-3.222-12.36c2.084-3.895,3.222-8.046,3.222-12.36c0-4.314-1.138-8.465-3.222-12.36
		c2.084-3.895,3.222-8.046,3.222-12.36c0-4.314-1.138-8.465-3.222-12.36c2.084-3.895,3.222-8.046,3.222-12.36
		C149.341,106.605,148.578,103.178,147.157,99.91z"/>
	<path fill="#3A312A" d="M82.841,225.972c-37.495,0-68-18.693-68-41.67c0-4.206,1.02-8.36,3.032-12.36
		c-2.013-4-3.032-8.154-3.032-12.36c0-4.206,1.02-8.36,3.032-12.36c-2.013-4.001-3.032-8.154-3.032-12.36
		c0-4.206,1.02-8.36,3.032-12.36c-2.013-4-3.032-8.154-3.032-12.36c0-3.496,0.707-6.975,2.104-10.349
		c-1.396-5.487-2.104-11.144-2.104-16.821c0-37.495,30.505-68,68-68c37.495,0,68,30.505,68,68c0,5.679-0.708,11.335-2.105,16.821
		c1.397,3.373,2.105,6.852,2.105,10.349c0,4.207-1.02,8.36-3.032,12.36c2.012,4,3.032,8.154,3.032,12.36
		c0,4.206-1.02,8.36-3.032,12.36c2.012,3.999,3.032,8.153,3.032,12.36c0,4.207-1.02,8.36-3.032,12.36
		c2.012,4,3.032,8.154,3.032,12.36C150.841,207.279,120.336,225.972,82.841,225.972z M82.841,17.972c-35.841,0-65,29.159-65,65
		c0,5.592,0.718,11.163,2.135,16.557c0.085,0.325,0.059,0.67-0.075,0.979c-1.367,3.144-2.06,6.385-2.06,9.634
		c0,3.956,1.024,7.876,3.045,11.652c0.236,0.442,0.236,0.973,0,1.415c-2.021,3.777-3.045,7.698-3.045,11.653
		c0,3.955,1.024,7.875,3.045,11.652c0.236,0.442,0.236,0.973,0,1.415c-2.021,3.776-3.045,7.697-3.045,11.652
		c0,3.956,1.024,7.876,3.045,11.652c0.236,0.442,0.236,0.973,0,1.415c-2.021,3.777-3.045,7.698-3.045,11.653
		c0,21.323,29.159,38.67,65,38.67s65-17.347,65-38.67c0-3.956-1.024-7.876-3.044-11.653c-0.236-0.442-0.236-0.973,0-1.415
		c2.02-3.776,3.044-7.696,3.044-11.652c0-3.956-1.024-7.876-3.044-11.652c-0.236-0.442-0.236-0.973,0-1.415
		c2.02-3.776,3.044-7.697,3.044-11.652c0-3.956-1.024-7.877-3.044-11.653c-0.236-0.442-0.236-0.973,0-1.415
		c2.02-3.776,3.044-7.696,3.044-11.652c0-3.249-0.693-6.491-2.06-9.634c-0.134-0.309-0.161-0.654-0.075-0.979
		c1.417-5.392,2.135-10.962,2.135-16.557C147.841,47.131,118.682,17.972,82.841,17.972z"/>
	<path fill="#F8E4C8" d="M118.805,183.271h-19.54v-18.799H66.428v18.799H46.876c-16.335,0-29.576,13.234-29.576,29.56v26.788h131.08
		v-26.788C148.381,196.505,135.14,183.271,118.805,183.271z"/>
	<path fill="#3A312A" d="M148.381,241.119H17.301c-0.829,0-1.5-0.671-1.5-1.5v-26.788c0-17.127,13.94-31.061,31.076-31.061h18.052
		v-17.298c0-0.829,0.671-1.5,1.5-1.5h32.836c0.829,0,1.5,0.671,1.5,1.5v17.298h18.04c17.135,0,31.076,13.934,31.076,31.061v26.788
		C149.881,240.448,149.21,241.119,148.381,241.119z M18.801,238.119h128.08v-25.288c0-15.473-12.595-28.061-28.076-28.061h-19.54
		c-0.829,0-1.5-0.671-1.5-1.5v-17.298H67.928v17.298c0,0.829-0.671,1.5-1.5,1.5H46.876c-15.481,0-28.076,12.588-28.076,28.061
		V238.119z"/>
	<path fill="#EB6E7A" d="M101.671,211.046H17.359c-0.035,0.588-0.058,1.179-0.058,1.776v26.799h131.08v-26.799
		c0-0.597-0.023-1.188-0.058-1.776h-33.068H101.671z"/>
	<path fill="#3A312A" d="M148.381,241.122H17.301c-0.829,0-1.5-0.671-1.5-1.5v-26.799c0-0.626,0.024-1.247,0.06-1.864
		c0.047-0.792,0.704-1.412,1.498-1.412h84.312c0.829,0,1.5,0.671,1.5,1.5s-0.671,1.5-1.5,1.5H18.803
		c-0.001,0.092-0.001,0.184-0.001,0.276v25.299h128.08v-25.299c0-0.092,0-0.184-0.001-0.276h-31.625c-0.829,0-1.5-0.671-1.5-1.5
		s0.671-1.5,1.5-1.5h33.068c0.794,0,1.45,0.618,1.498,1.411c0.037,0.617,0.061,1.238,0.061,1.865v26.799
		C149.881,240.45,149.21,241.122,148.381,241.122z"/>
	<path fill-rule="evenodd" clip-rule="evenodd" fill="#F8E4C8" d="M43.691,109.992c0,6.424-5.21,11.631-11.638,11.631
		c-6.427,0-11.637-5.207-11.637-11.631c0-6.424,5.21-11.632,11.637-11.632C38.481,98.36,43.691,103.568,43.691,109.992z"/>
	<path fill="#3A312A" d="M32.054,123.123c-7.244,0-13.137-5.891-13.137-13.131S24.81,96.86,32.054,96.86
		c7.244,0,13.138,5.891,13.138,13.131S39.298,123.123,32.054,123.123z M32.054,99.86c-5.59,0-10.137,4.545-10.137,10.131
		s4.547,10.131,10.137,10.131c5.59,0,10.138-4.545,10.138-10.131S37.644,99.86,32.054,99.86z"/>
	
		<ellipse transform="matrix(0.0021 -1 1 0.0021 23.3616 243.3933)" fill-rule="evenodd" clip-rule="evenodd" fill="#F8E4C8" cx="133.628" cy="109.992" rx="11.631" ry="11.637"/>
	<path fill="#3A312A" d="M133.628,123.123c-7.244,0-13.138-5.891-13.138-13.131s5.894-13.131,13.138-13.131
		c7.244,0,13.137,5.891,13.137,13.131S140.872,123.123,133.628,123.123z M133.628,99.86c-5.59,0-10.138,4.545-10.138,10.131
		s4.548,10.131,10.138,10.131c5.59,0,10.137-4.545,10.137-10.131S139.218,99.86,133.628,99.86z"/>
	<path fill="#F8E4C8" d="M134.432,104.345c0,28.478-27.44,72.189-51.59,72.189c-23.051,0-51.59-43.711-51.59-72.189
		c0-28.478,23.098-51.563,51.59-51.563C111.335,52.782,134.432,75.868,134.432,104.345z"/>
	<path fill="#3A312A" d="M82.842,178.034c-11.055,0-24.391-9.743-35.673-26.062c-10.743-15.539-17.417-33.789-17.417-47.626
		c0-29.259,23.816-53.064,53.09-53.064s53.09,23.804,53.09,53.064c0,13.995-6.514,32.241-16.999,47.618
		C107.635,168.532,94.481,178.034,82.842,178.034z M82.842,54.282c-27.62,0-50.09,22.458-50.09,50.064
		c0,13.261,6.47,30.856,16.885,45.92c10.722,15.509,23.135,24.768,33.205,24.768c10.475,0,23.04-9.256,33.612-24.76
		c10.164-14.906,16.478-32.504,16.478-45.928C132.933,76.741,110.462,54.282,82.842,54.282z"/>
	<path fill="#3A312A" d="M69.662,103.763c0,2.78-2.254,5.033-5.035,5.033c-2.781,0-5.035-2.253-5.035-5.033
		c0-2.779,2.254-5.033,5.035-5.033C67.408,98.73,69.662,100.984,69.662,103.763z"/>
	<path fill="#3A312A" d="M106.09,103.763c0,2.78-2.254,5.033-5.035,5.033c-2.781,0-5.035-2.253-5.035-5.033
		c0-2.779,2.254-5.033,5.035-5.033C103.836,98.73,106.09,100.984,106.09,103.763z"/>
	<path fill="#F59689" d="M63.237,118.726c0,3.579-3.884,6.481-8.674,6.481c-4.791,0-8.674-2.902-8.674-6.481
		c0-3.58,3.884-6.481,8.674-6.481C59.354,112.245,63.237,115.146,63.237,118.726z"/>
	<path fill="#F59689" d="M119.793,118.726c0,3.579-3.883,6.481-8.674,6.481c-4.79,0-8.674-2.902-8.674-6.481
		c0-3.58,3.884-6.481,8.674-6.481C115.91,112.245,119.793,115.146,119.793,118.726z"/>
	<path fill="#3A312A" d="M41.257,241.122c-0.829,0-1.5-0.671-1.5-1.5v-21.172c0-0.829,0.671-1.5,1.5-1.5c0.829,0,1.5,0.671,1.5,1.5
		v21.172C42.757,240.45,42.085,241.122,41.257,241.122z"/>
	<path fill="#3A312A" d="M124.425,241.122c-0.829,0-1.5-0.671-1.5-1.5v-21.172c0-0.829,0.671-1.5,1.5-1.5s1.5,0.671,1.5,1.5v21.172
		C125.925,240.45,125.254,241.122,124.425,241.122z"/>
	<path fill="#3A312A" d="M82.841,147.67c-7.285,0-12.537-3.271-15.609-9.723c-0.356-0.748-0.038-1.643,0.71-1.999
		c0.748-0.355,1.644-0.038,1.999,0.709c2.568,5.392,6.788,8.013,12.9,8.013c7.825,0,11.828-5.164,12.851-7.895
		c0.292-0.776,1.157-1.169,1.931-0.878c0.776,0.291,1.169,1.155,0.878,1.931C96.725,142.569,91.066,147.67,82.841,147.67z"/>
	<path fill="#D7E057" d="M141.555,85.447c0,5.283-0.688,10.404-1.987,15.279c-13.214-6.367-25.783-14.184-37.428-23.021
		c-3.416-2.588-6.779-5.283-9.991-8.139c-3.942-3.457-7.67-7.183-11.033-11.22C73.8,49.541,68.428,39.427,63.884,28.893
		c5.737-1.858,11.86-2.856,18.22-2.856c17.006,0,32.347,7.14,43.186,18.586C135.378,55.264,141.555,69.631,141.555,85.447z"/>
	<path fill="#3A312A" d="M139.568,102.226c-0.223,0-0.445-0.05-0.651-0.149c-12.981-6.255-25.66-14.053-37.684-23.177
		c-3.836-2.906-7.134-5.593-10.081-8.213c-4.204-3.687-7.971-7.518-11.189-11.381C73.446,51.463,67.9,41.988,62.507,29.488
		c-0.167-0.388-0.163-0.828,0.011-1.213c0.174-0.385,0.502-0.678,0.904-0.809c6.003-1.944,12.289-2.929,18.682-2.929
		c16.915,0,32.638,6.767,44.275,19.055c10.753,11.343,16.676,26.207,16.676,41.855c0,5.323-0.686,10.594-2.038,15.665
		c-0.115,0.432-0.417,0.789-0.823,0.977C139.995,102.181,139.781,102.226,139.568,102.226z M65.931,29.833
		c5.065,11.474,10.278,20.261,16.339,27.555c3.117,3.742,6.774,7.46,10.868,11.051c2.895,2.574,6.133,5.212,9.908,8.071
		c11.353,8.615,23.292,16.029,35.515,22.057c0.992-4.27,1.495-8.675,1.495-13.119c0-14.877-5.63-29.008-15.853-39.792
		c-11.065-11.684-26.016-18.118-42.098-18.118C76.586,27.537,71.153,28.309,65.931,29.833z"/>
	<path fill="#D7E057" d="M125.291,44.624c-10.227,9.32-21.357,17.566-33.142,24.943c-20.895,13.089-43.809,23.418-67.261,32.019
		c-1.45-5.132-2.224-10.544-2.224-16.138c0-26.457,17.307-48.876,41.221-56.554c5.737-1.858,11.86-2.856,18.22-2.856
		C99.11,26.037,114.451,33.178,125.291,44.624z"/>
	<path fill="#3A312A" d="M24.888,103.085c-0.235,0-0.468-0.055-0.682-0.164c-0.372-0.19-0.649-0.526-0.762-0.928
		c-1.514-5.354-2.281-10.921-2.281-16.546c0-26.566,16.984-49.867,42.262-57.982c6-1.943,12.286-2.928,18.678-2.928
		c16.915,0,32.638,6.767,44.275,19.055c0.277,0.292,0.425,0.684,0.41,1.086c-0.015,0.402-0.191,0.782-0.489,1.054
		c-9.829,8.957-21.051,17.403-33.356,25.105c-19.14,11.989-41.233,22.508-67.54,32.156
		C25.237,103.055,25.062,103.085,24.888,103.085z M82.104,27.537c-6.079,0-12.053,0.937-17.758,2.784
		c-24.036,7.716-40.183,29.87-40.183,55.127c0,4.802,0.587,9.558,1.748,14.162c25.433-9.42,46.853-19.67,65.44-31.314
		c11.676-7.309,22.359-15.291,31.779-23.742C112.182,33.567,97.674,27.537,82.104,27.537z"/>
	<path fill="#D7E057" d="M197.252,26.056c0,0,3.408,12.659,13.222,13.246c0,0-13.1,4.525-13.321,14.202
		c0,0-2.578-13.572-12.925-14.059C184.228,39.445,196.278,37.619,197.252,26.056z"/>
	<path fill="#3A312A" d="M197.152,55.003c-0.713,0-1.335-0.506-1.472-1.217c-0.024-0.124-2.495-12.417-11.523-12.842
		c-0.77-0.037-1.388-0.651-1.428-1.421c-0.04-0.771,0.511-1.445,1.273-1.561c0.441-0.069,10.894-1.817,11.754-12.033
		c0.061-0.725,0.634-1.301,1.359-1.367c0.718-0.06,1.393,0.398,1.584,1.102c0.032,0.116,3.259,11.626,11.864,12.14
		c0.714,0.043,1.298,0.584,1.396,1.292c0.098,0.708-0.319,1.388-0.994,1.623c-0.121,0.042-12.118,4.311-12.313,12.819
		c-0.018,0.767-0.61,1.396-1.374,1.459C197.236,55.002,197.193,55.003,197.152,55.003z M189.411,39.274
		c3.878,1.969,6.23,5.746,7.587,8.876c2.026-4.021,5.942-6.787,8.949-8.427c-4.134-1.842-6.783-5.651-8.334-8.722
		C195.819,35.361,192.341,37.869,189.411,39.274z"/>
	<path fill="#D7E057" d="M175.553,43.036c0,0,2.411,8.954,9.352,9.369c0,0-9.266,3.201-9.422,10.045c0,0-1.824-9.6-9.142-9.944
		C166.341,52.507,174.864,51.215,175.553,43.036z"/>
	<path fill="#3A312A" d="M175.481,63.951c-0.713,0-1.337-0.507-1.472-1.22c-0.016-0.082-1.704-8.441-7.739-8.725
		c-0.77-0.037-1.388-0.651-1.428-1.421c-0.04-0.771,0.511-1.445,1.273-1.561c0.296-0.047,7.364-1.243,7.942-8.114
		c0.061-0.726,0.635-1.303,1.36-1.368c0.73-0.067,1.392,0.399,1.582,1.102l0,0c0.021,0.079,2.227,7.919,7.994,8.264
		c0.715,0.043,1.299,0.584,1.396,1.293c0.098,0.709-0.319,1.388-0.996,1.622c-0.081,0.028-8.282,2.953-8.413,8.662
		c-0.018,0.767-0.611,1.397-1.376,1.461C175.564,63.949,175.523,63.951,175.481,63.951z M170.963,52.423
		c2.106,1.333,3.523,3.394,4.447,5.28c1.376-2.232,3.515-3.872,5.365-4.973c-2.287-1.269-3.884-3.35-4.941-5.224
		C174.66,49.793,172.819,51.382,170.963,52.423z"/>
	<path fill="#D7E057" d="M175.553,16.378c0,0,2.411,8.954,9.352,9.37c0,0-9.266,3.201-9.422,10.045c0,0-1.824-9.6-9.142-9.944
		C166.341,25.849,174.864,24.558,175.553,16.378z"/>
	<path fill="#3A312A" d="M175.481,37.293c-0.713,0-1.337-0.507-1.472-1.22c-0.016-0.082-1.704-8.442-7.739-8.726
		c-0.77-0.037-1.388-0.651-1.428-1.421c-0.04-0.771,0.511-1.445,1.273-1.561c0.296-0.047,7.364-1.243,7.942-8.114
		c0.061-0.726,0.635-1.303,1.36-1.368c0.73-0.068,1.392,0.399,1.582,1.101l0,0c0.021,0.079,2.227,7.92,7.994,8.265
		c0.714,0.043,1.299,0.584,1.396,1.293c0.098,0.709-0.32,1.388-0.996,1.622c-0.081,0.028-8.282,2.952-8.413,8.662
		c-0.018,0.767-0.611,1.398-1.376,1.461C175.564,37.292,175.523,37.293,175.481,37.293z M170.963,25.766
		c2.107,1.333,3.523,3.395,4.447,5.28c1.376-2.232,3.515-3.872,5.365-4.972c-2.287-1.27-3.884-3.35-4.941-5.224
		C174.66,23.136,172.819,24.725,170.963,25.766z"/>
	<path fill="#F8E4C8" d="M162.667,109.222l-32.619,32.619c-1.726,1.726-1.727,4.525,0,6.252l0,0c1.726,1.726,4.525,1.726,6.252,0
		l32.619-32.619L162.667,109.222z"/>
	<path fill="#3A312A" d="M133.174,150.885c-1.516,0-3.032-0.577-4.186-1.731c-1.119-1.118-1.734-2.605-1.734-4.187
		c0-1.581,0.616-3.068,1.734-4.186l32.619-32.619c0.563-0.563,1.559-0.563,2.121,0l6.252,6.252c0.586,0.585,0.586,1.536,0,2.121
		l-32.619,32.619C136.206,150.308,134.69,150.885,133.174,150.885z M162.667,111.343l-31.559,31.559
		c-0.552,0.552-0.855,1.285-0.855,2.065c0,0.78,0.304,1.514,0.855,2.065c1.139,1.14,2.992,1.139,4.131,0.001l31.559-31.559
		L162.667,111.343z"/>
	<path fill="#F8E4C8" d="M168.919,115.474L136.3,148.093c-1.726,1.726-1.726,4.525,0,6.252v0c1.726,1.726,4.526,1.726,6.252,0
		l32.619-32.619L168.919,115.474z"/>
	<path fill="#3A312A" d="M139.426,157.14c-1.582,0-3.069-0.616-4.187-1.734c-2.308-2.309-2.308-6.064,0.001-8.373l32.619-32.619
		c0.586-0.586,1.535-0.586,2.121,0l6.252,6.252c0.586,0.586,0.586,1.536,0,2.121l-32.619,32.619
		C142.494,156.524,141.007,157.14,139.426,157.14z M168.919,117.595l-31.559,31.559c-1.139,1.139-1.139,2.992,0,4.131
		c1.104,1.104,3.027,1.104,4.131,0l31.559-31.559L168.919,117.595z"/>
	<path fill="#F8E4C8" d="M175.171,121.726l-32.619,32.619c-1.726,1.726-1.727,4.525,0,6.252l0,0c1.726,1.726,4.525,1.726,6.252,0
		l32.619-32.619L175.171,121.726z"/>
	<path fill="#3A312A" d="M145.678,163.392c-1.582,0-3.069-0.616-4.187-1.734c-2.308-2.309-2.308-6.064,0-8.373l32.619-32.619
		c0.586-0.586,1.535-0.586,2.121,0l6.252,6.252c0.586,0.585,0.586,1.536,0,2.121l-32.619,32.619
		C148.746,162.776,147.259,163.392,145.678,163.392z M175.171,123.847l-31.559,31.559c-1.139,1.139-1.139,2.992,0,4.131
		c1.104,1.104,3.027,1.104,4.131,0l31.559-31.559L175.171,123.847z"/>
	<path fill="#87796F" d="M181.423,127.978l-32.619,32.619c-1.726,1.726-1.727,4.525,0,6.252h0c1.726,1.726,4.525,1.726,6.252,0
		l32.619-32.619L181.423,127.978z"/>
	<path fill="#3A312A" d="M151.93,169.644c-1.582,0-3.069-0.616-4.187-1.734c-2.308-2.309-2.308-6.064,0-8.373l32.619-32.619
		c0.586-0.586,1.535-0.586,2.121,0l6.252,6.252c0.586,0.585,0.586,1.536,0,2.121l-32.619,32.619
		C154.998,169.028,153.511,169.644,151.93,169.644z M181.423,130.099l-31.559,31.559c-1.139,1.139-1.139,2.992,0,4.131
		c1.104,1.104,3.027,1.104,4.131,0l31.559-31.559L181.423,130.099z"/>
	<path fill="#F8E4C8" d="M181.423,127.978l-32.619,32.619c-1.726,1.726-1.727,4.525,0,6.252h0c1.726,1.726,4.525,1.726,6.252,0
		l32.619-32.619L181.423,127.978z"/>
	<path fill="#3A312A" d="M151.93,169.644c-1.582,0-3.069-0.616-4.187-1.734c-2.308-2.309-2.308-6.064,0-8.373l32.619-32.619
		c0.586-0.586,1.535-0.586,2.121,0l6.252,6.252c0.586,0.585,0.586,1.536,0,2.121l-32.619,32.619
		C154.998,169.028,153.511,169.644,151.93,169.644z M181.423,130.099l-31.559,31.559c-1.139,1.139-1.139,2.992,0,4.131
		c1.104,1.104,3.027,1.104,4.131,0l31.559-31.559L181.423,130.099z"/>
	<path fill="#F8E4C8" d="M187.675,134.229l-32.619,32.619c-1.726,1.726-1.727,4.526,0,6.252l0,0c1.726,1.726,4.525,1.726,6.252,0
		l32.619-32.619L187.675,134.229z"/>
	<path fill="#3A312A" d="M158.182,175.895c-1.582,0-3.069-0.616-4.187-1.734c-2.308-2.309-2.308-6.064,0.001-8.373l32.619-32.619
		c0.586-0.586,1.535-0.586,2.121,0l6.252,6.252c0.586,0.585,0.586,1.536,0,2.121l-32.619,32.619
		C161.25,175.28,159.763,175.895,158.182,175.895z M187.675,136.351l-31.559,31.559c-1.139,1.139-1.139,2.992,0,4.131
		c1.104,1.104,3.027,1.104,4.131,0l31.559-31.559L187.675,136.351z"/>
	<path fill="#F8E4C8" d="M193.927,140.481l-32.619,32.619c-1.726,1.726-1.727,4.525,0,6.252l0,0c1.726,1.726,4.525,1.726,6.252,0
		l32.619-32.619L193.927,140.481z"/>
	<path fill="#3A312A" d="M164.434,182.148c-1.582,0-3.069-0.616-4.187-1.734c-2.308-2.309-2.308-6.064,0.001-8.373l32.619-32.619
		c0.586-0.586,1.535-0.586,2.121,0l6.252,6.252c0.281,0.281,0.439,0.663,0.439,1.061c0,0.398-0.158,0.779-0.439,1.061l-32.62,32.619
		C167.502,181.532,166.015,182.148,164.434,182.148z M193.927,142.602l-31.559,31.559c-1.139,1.139-1.139,2.992,0,4.131
		c1.103,1.102,3.027,1.103,4.13,0l31.56-31.559L193.927,142.602z"/>
	
		<rect x="161.828" y="109.569" transform="matrix(0.7071 -0.7071 0.7071 0.7071 -45.4728 162.4072)" fill="#8AC3DA" width="22.957" height="53.049"/>
	<path fill="#3A312A" d="M183.946,164.466c-0.384,0-0.768-0.146-1.061-0.439l-37.512-37.511c-0.586-0.585-0.586-1.535,0-2.121
		l16.233-16.233c0.563-0.563,1.559-0.563,2.121,0l37.512,37.512c0.586,0.585,0.586,1.536,0,2.121l-16.233,16.233
		C184.713,164.32,184.33,164.466,183.946,164.466z M148.555,125.455l35.391,35.39l14.112-14.112l-35.391-35.391L148.555,125.455z"/>
	<path fill="#8AC3DA" d="M203.969,142.943l-3.79,3.79l-37.511-37.511l3.79-3.79c5.297-5.297,13.885-5.297,19.182,0l18.329,18.329
		C209.266,129.058,209.266,137.646,203.969,142.943z"/>
	<path fill="#3A312A" d="M200.179,148.233c-0.384,0-0.768-0.146-1.061-0.439l-37.512-37.512c-0.281-0.281-0.439-0.663-0.439-1.061
		c0-0.398,0.158-0.779,0.439-1.061l3.791-3.79c2.845-2.845,6.628-4.412,10.652-4.412c4.023,0,7.806,1.567,10.651,4.412
		l18.329,18.329c5.874,5.873,5.874,15.43,0,21.304l0,0l-3.79,3.79C200.946,148.087,200.563,148.233,200.179,148.233z
		 M164.789,109.222l35.39,35.391l2.73-2.73c4.704-4.704,4.704-12.358,0-17.062l-18.329-18.329c-4.704-4.703-12.356-4.703-17.061,0
		L164.789,109.222z M203.969,142.943h0.01H203.969z"/>
	<path fill="#87796F" d="M202.353,97.012l-12.567,12.567l10.036,10.036l37.758-37.758c2.771-2.771,2.771-7.265,0-10.036
		c-2.771-2.771-7.265-2.771-10.036,0L212.86,86.505L202.353,97.012z"/>
	<path fill="#3A312A" d="M199.822,121.114c-0.384,0-0.768-0.147-1.061-0.44l-10.036-10.036c-0.281-0.281-0.439-0.663-0.439-1.061
		c0-0.398,0.158-0.779,0.439-1.061l12.567-12.566c0.586-0.586,1.535-0.586,2.121,0c0.586,0.586,0.586,1.536,0,2.121l-11.506,11.506
		l7.915,7.915l36.698-36.698c2.182-2.182,2.182-5.733,0-7.915c-2.182-2.182-5.732-2.182-7.915,0L213.92,87.565
		c-0.586,0.586-1.535,0.586-2.121,0c-0.586-0.585-0.586-1.536,0-2.121l14.685-14.685c3.352-3.352,8.806-3.351,12.157,0
		c3.352,3.352,3.352,8.806,0,12.157l-37.758,37.758C200.59,120.968,200.206,121.114,199.822,121.114z"/>
	<polygon fill="#87796F" points="230.97,213.412 157.848,213.412 171.224,239.622 217.594,239.622 	"/>
	<path fill="#3A312A" d="M217.594,241.122h-46.37c-0.564,0-1.08-0.316-1.336-0.818l-13.376-26.21
		c-0.237-0.465-0.216-1.02,0.057-1.465c0.273-0.445,0.757-0.717,1.279-0.717h73.122c0.522,0,1.006,0.271,1.279,0.717
		c0.273,0.445,0.294,1,0.057,1.465l-13.376,26.21C218.673,240.806,218.157,241.122,217.594,241.122z M172.143,238.122h44.533
		l11.845-23.21h-68.222L172.143,238.122z"/>
	<path fill="#87796F" d="M239.659,206.929L239.659,206.929c0,3.58-2.902,6.482-6.482,6.482h-77.536c-3.58,0-6.482-2.902-6.482-6.482
		v0c0-3.58,2.902-6.482,6.482-6.482h77.536C236.757,200.447,239.659,203.349,239.659,206.929z"/>
	<path fill="#3A312A" d="M233.177,214.911h-77.537c-4.401,0-7.981-3.581-7.981-7.981c0-4.401,3.581-7.982,7.981-7.982h77.537
		c4.401,0,7.982,3.581,7.982,7.981C241.159,211.33,237.579,214.911,233.177,214.911z M155.641,201.947
		c-2.747,0-4.981,2.235-4.981,4.981c0,2.747,2.235,4.982,4.981,4.982h77.537c2.747,0,4.982-2.235,4.982-4.981v-0.001
		c0-2.747-2.235-4.981-4.982-4.981H155.641z"/>
	<path fill="#D7E057" d="M211.564,183.897c0,3.275-7.68,5.93-17.155,5.93c-9.474,0-17.155-2.655-17.155-5.93
		c0-4.124,3.511-6.359,15.317-10.204c5.016-1.634,6.602-6.96,9.08-6.96C203.747,166.732,211.564,176.303,211.564,183.897z"/>
	<path fill="#3A312A" d="M194.409,191.326c-9.27,0-18.655-2.552-18.655-7.43c0-5.428,4.821-7.874,16.352-11.63
		c2.344-0.764,3.855-2.52,5.187-4.071c1.309-1.523,2.546-2.963,4.358-2.963c3.489,0,11.413,10.846,11.413,18.664
		C213.064,188.774,203.679,191.326,194.409,191.326z M201.575,168.242c-0.458,0.107-1.313,1.102-2.007,1.909
		c-1.431,1.665-3.39,3.944-6.533,4.968c-12.219,3.98-14.281,5.924-14.281,8.778c0,1.503,5.526,4.43,15.655,4.43
		c10.129,0,15.655-2.926,15.655-4.43C210.064,177.134,203.278,168.94,201.575,168.242z M201.504,168.216L201.504,168.216
		L201.504,168.216z"/>
	<path fill="#D7E057" d="M227.698,200.446L227.698,200.446l-66.577,0v0c0-5.414,4.389-9.803,9.803-9.803h46.972
		C223.309,190.643,227.698,195.032,227.698,200.446z"/>
	<path fill="#3A312A" d="M227.698,201.946H161.12c-0.829,0-1.5-0.671-1.5-1.5c0-6.232,5.071-11.303,11.303-11.303h46.972
		c6.232,0,11.303,5.07,11.303,11.303C229.198,201.274,228.526,201.946,227.698,201.946z M162.756,198.946h63.306
		c-0.708-3.865-4.101-6.803-8.167-6.803h-46.972C166.857,192.143,163.464,195.081,162.756,198.946z"/>
	<path fill="#D7E057" d="M221.571,190.643L221.571,190.643h-54.324l0,0c0-5.414,4.389-9.803,9.803-9.803h34.718
		C217.182,180.84,221.571,185.229,221.571,190.643z"/>
	<path fill="#3A312A" d="M221.571,192.143h-54.324c-0.829,0-1.5-0.671-1.5-1.5c0-6.232,5.07-11.303,11.303-11.303h34.718
		c6.232,0,11.303,5.07,11.303,11.303C223.071,191.472,222.399,192.143,221.571,192.143z M168.883,189.143h51.052
		c-0.708-3.865-4.101-6.803-8.167-6.803H177.05C172.983,182.34,169.591,185.278,168.883,189.143z"/>
	<path fill="#DECAAD" d="M146.679,209.542h-15c-1.63-13.92-13.51-24.77-27.87-24.77h15
		C133.169,184.772,145.049,195.622,146.679,209.542z"/>
	<rect x="131.879" y="212.542" fill="#D04E5D" width="15" height="25.58"/>
</g>
</svg>
