<?xml version="1.0" encoding="utf-8"?>
<!-- Generator: Adobe Illustrator 24.0.0, SVG Export Plug-In . SVG Version: 6.00 Build 0)  -->
<svg version="1.1" id="Layer_1" xmlns="http://www.w3.org/2000/svg" xmlns:xlink="http://www.w3.org/1999/xlink" x="0px" y="0px"
	 viewBox="0 0 256 256" enable-background="new 0 0 256 256" xml:space="preserve">
<g>
	<path fill="#87796F" d="M110.479,46.25L110.479,46.25c-2.372,0-4.296-1.923-4.296-4.295V20.546c0-2.372,1.923-4.296,4.296-4.296
		l0,0c2.372,0,4.295,1.923,4.295,4.296v21.409C114.775,44.327,112.852,46.25,110.479,46.25z"/>
	<path fill="#3A312A" d="M110.479,47.75c-3.196,0-5.796-2.6-5.796-5.795V20.545c0-3.196,2.6-5.795,5.796-5.795
		c3.196,0,5.795,2.6,5.795,5.795v21.409C116.275,45.15,113.675,47.75,110.479,47.75z M110.479,17.75
		c-1.541,0-2.796,1.254-2.796,2.795v21.409c0,1.542,1.254,2.795,2.796,2.795c1.542,0,2.795-1.254,2.795-2.795V20.545
		C113.275,19.004,112.021,17.75,110.479,17.75z"/>
	<path fill="#87796F" d="M131.957,46.25L131.957,46.25c-2.372,0-4.295-1.923-4.295-4.295V20.546c0-2.372,1.923-4.296,4.295-4.296
		l0,0c2.372,0,4.295,1.923,4.295,4.296v21.409C136.252,44.327,134.329,46.25,131.957,46.25z"/>
	<path fill="#3A312A" d="M131.956,47.75c-3.196,0-5.795-2.6-5.795-5.795V20.545c0-3.196,2.6-5.795,5.795-5.795
		c3.196,0,5.796,2.6,5.796,5.795v21.409C137.752,45.15,135.152,47.75,131.956,47.75z M131.956,17.75
		c-1.542,0-2.795,1.254-2.795,2.795v21.409c0,1.542,1.254,2.795,2.795,2.795s2.796-1.254,2.796-2.795V20.545
		C134.752,19.004,133.498,17.75,131.956,17.75z"/>
	<path fill="#87796F" d="M153.434,46.25L153.434,46.25c-2.372,0-4.295-1.923-4.295-4.295V20.546c0-2.372,1.923-4.296,4.295-4.296
		l0,0c2.372,0,4.295,1.923,4.295,4.296v21.409C157.729,44.327,155.806,46.25,153.434,46.25z"/>
	<path fill="#3A312A" d="M153.434,47.75c-3.196,0-5.795-2.6-5.795-5.795V20.545c0-3.196,2.6-5.795,5.795-5.795
		s5.796,2.6,5.796,5.795v21.409C159.23,45.15,156.629,47.75,153.434,47.75z M153.434,17.75c-1.541,0-2.795,1.254-2.795,2.795v21.409
		c0,1.542,1.254,2.795,2.795,2.795c1.542,0,2.796-1.254,2.796-2.795V20.545C156.23,19.004,154.975,17.75,153.434,17.75z"/>
	<path fill="#87796F" d="M174.911,46.25L174.911,46.25c-2.372,0-4.296-1.923-4.296-4.295V20.546c0-2.372,1.923-4.296,4.296-4.296
		l0,0c2.372,0,4.296,1.923,4.296,4.296v21.409C179.207,44.327,177.283,46.25,174.911,46.25z"/>
	<path fill="#3A312A" d="M174.911,47.75c-3.196,0-5.795-2.6-5.795-5.795V20.545c0-3.196,2.6-5.795,5.795-5.795
		s5.795,2.6,5.795,5.795v21.409C180.706,45.15,178.107,47.75,174.911,47.75z M174.911,17.75c-1.542,0-2.795,1.254-2.795,2.795
		v21.409c0,1.542,1.254,2.795,2.795,2.795s2.795-1.254,2.795-2.795V20.545C177.706,19.004,176.453,17.75,174.911,17.75z"/>
	<path fill="#87796F" d="M196.388,46.25L196.388,46.25c-2.372,0-4.295-1.923-4.295-4.295V20.546c0-2.372,1.923-4.296,4.295-4.296
		l0,0c2.372,0,4.296,1.923,4.296,4.296v21.409C200.684,44.327,198.761,46.25,196.388,46.25z"/>
	<path fill="#3A312A" d="M196.388,47.75c-3.196,0-5.795-2.6-5.795-5.795V20.545c0-3.196,2.6-5.795,5.795-5.795
		s5.795,2.6,5.795,5.795v21.409C202.184,45.15,199.584,47.75,196.388,47.75z M196.388,17.75c-1.542,0-2.795,1.254-2.795,2.795
		v21.409c0,1.542,1.254,2.795,2.795,2.795s2.795-1.254,2.795-2.795V20.545C199.184,19.004,197.93,17.75,196.388,17.75z"/>
	<path fill="#D7E057" d="M72.727,26.387c0,0,3.408,12.659,13.222,13.246c0,0-13.1,4.525-13.321,14.202
		c0,0-2.578-13.572-12.925-14.059C59.703,39.776,71.754,37.95,72.727,26.387z"/>
	<path fill="#3A312A" d="M72.627,55.335c-0.713,0-1.336-0.506-1.472-1.217C71.131,53.993,68.66,41.7,59.632,41.275
		c-0.771-0.037-1.388-0.651-1.428-1.421c-0.04-0.77,0.511-1.445,1.273-1.56c0.441-0.069,10.894-1.818,11.754-12.033
		c0.061-0.725,0.634-1.301,1.359-1.367c0.721-0.061,1.393,0.398,1.583,1.101c0.032,0.116,3.259,11.626,11.864,12.141
		c0.714,0.043,1.297,0.584,1.396,1.292c0.098,0.708-0.319,1.388-0.994,1.623c-0.121,0.042-12.118,4.31-12.313,12.819
		c-0.018,0.767-0.61,1.396-1.375,1.459C72.711,55.333,72.669,55.335,72.627,55.335z M64.886,39.605
		c3.878,1.969,6.231,5.746,7.587,8.876c2.026-4.021,5.942-6.787,8.949-8.427c-4.135-1.843-6.783-5.651-8.334-8.723
		C71.294,35.692,67.816,38.2,64.886,39.605z"/>
	<path fill="#D7E057" d="M51.029,43.367c0,0,2.411,8.954,9.352,9.369c0,0-9.266,3.201-9.422,10.045c0,0-1.824-9.6-9.142-9.944
		C41.816,52.838,50.34,51.546,51.029,43.367z"/>
	<path fill="#3A312A" d="M50.958,64.282c-0.714,0-1.337-0.507-1.473-1.22c-0.016-0.082-1.704-8.442-7.739-8.726
		c-0.771-0.037-1.388-0.651-1.428-1.421c-0.04-0.771,0.511-1.445,1.273-1.561c0.296-0.047,7.364-1.243,7.942-8.114
		c0.061-0.726,0.635-1.303,1.36-1.368c0.725-0.061,1.392,0.4,1.582,1.102l0,0c0.021,0.079,2.228,7.92,7.994,8.265
		c0.714,0.043,1.299,0.584,1.396,1.293c0.098,0.709-0.32,1.388-0.996,1.622c-0.081,0.028-8.282,2.952-8.412,8.661
		c-0.018,0.767-0.611,1.397-1.376,1.461C51.04,64.28,50.999,64.282,50.958,64.282z M46.438,52.754
		c2.107,1.333,3.523,3.394,4.447,5.28c1.376-2.232,3.515-3.872,5.364-4.972c-2.287-1.269-3.884-3.35-4.941-5.224
		C50.136,50.125,48.294,51.713,46.438,52.754z"/>
	<path fill="#D7E057" d="M51.029,16.71c0,0,2.411,8.954,9.352,9.37c0,0-9.266,3.201-9.422,10.045c0,0-1.824-9.6-9.142-9.944
		C41.816,26.18,50.34,24.889,51.029,16.71z"/>
	<path fill="#3A312A" d="M50.957,37.625c-0.713,0-1.337-0.507-1.472-1.22c-0.016-0.082-1.704-8.442-7.739-8.726
		c-0.771-0.037-1.388-0.651-1.428-1.421c-0.04-0.771,0.511-1.445,1.273-1.56c0.296-0.047,7.364-1.243,7.942-8.114
		c0.061-0.726,0.635-1.303,1.36-1.368c0.725-0.063,1.392,0.399,1.582,1.102l0,0c0.021,0.079,2.228,7.92,7.994,8.265
		c0.714,0.043,1.299,0.584,1.396,1.293c0.098,0.709-0.32,1.388-0.996,1.622c-0.081,0.028-8.282,2.952-8.412,8.662
		c-0.018,0.767-0.611,1.397-1.376,1.461C51.04,37.623,50.999,37.625,50.957,37.625z M46.438,26.097
		c2.107,1.333,3.523,3.395,4.447,5.28c1.376-2.233,3.515-3.872,5.365-4.972c-2.287-1.269-3.884-3.35-4.941-5.224
		C50.136,23.467,48.294,25.056,46.438,26.097z"/>
	<path fill="#EB6E7A" d="M168.946,58.504h45.238v-9.209c0-6.652-5.393-12.045-12.045-12.045h-97.41
		c-6.652,0-12.045,5.393-12.045,12.045v9.209h61.905H168.946z"/>
	<path fill="#3A312A" d="M214.184,60.004h-45.238c-0.829,0-1.5-0.671-1.5-1.5c0-0.829,0.671-1.5,1.5-1.5h43.738v-7.709
		c0-5.814-4.73-10.545-10.544-10.545h-97.41c-5.815,0-10.545,4.731-10.545,10.545v7.709h60.405c0.829,0,1.5,0.671,1.5,1.5
		c0,0.829-0.671,1.5-1.5,1.5H92.684c-0.829,0-1.5-0.671-1.5-1.5v-9.209c0-7.469,6.077-13.545,13.545-13.545h97.41
		c7.468,0,13.544,6.076,13.544,13.545v9.209C215.684,59.333,215.012,60.004,214.184,60.004z"/>
	<polygon fill="#D6DF58" points="154.589,58.504 92.684,58.504 106.596,97.615 200.272,97.615 214.184,58.504 168.946,58.504 	"/>
	<path fill="#3A312A" d="M200.271,99.115h-93.675c-0.635,0-1.201-0.399-1.413-0.997L91.271,59.007
		c-0.164-0.459-0.094-0.97,0.188-1.368c0.281-0.399,0.738-0.635,1.226-0.635h61.905c0.829,0,1.5,0.671,1.5,1.5
		c0,0.829-0.671,1.5-1.5,1.5H94.809l12.846,36.111h91.558l12.845-36.111h-43.112c-0.829,0-1.5-0.671-1.5-1.5
		c0-0.829,0.671-1.5,1.5-1.5h45.238c0.487,0,0.944,0.237,1.226,0.635c0.281,0.398,0.351,0.908,0.188,1.368l-13.912,39.111
		C201.472,98.716,200.906,99.115,200.271,99.115z"/>
	<path fill="#89C4DB" d="M114.249,164.011l5.395,46.806c1.112,9.65,9.283,16.933,18.997,16.933h29.585
		c9.714,0,17.885-7.283,18.997-16.933l13.048-113.202h-93.676l5.957,51.68L114.249,164.011z"/>
	<path fill="#3A312A" d="M168.227,229.25h-29.585c-10.479,0-19.287-7.851-20.487-18.261l-5.395-46.806
		c-0.095-0.823,0.496-1.567,1.318-1.662c0.818-0.096,1.567,0.495,1.662,1.318l5.395,46.806c1.025,8.896,8.552,15.605,17.507,15.605
		h29.585c8.955,0,16.481-6.708,17.507-15.605l12.855-111.53h-90.31l5.764,50.008c0.095,0.823-0.496,1.567-1.318,1.662
		c-0.826,0.093-1.567-0.495-1.662-1.318l-5.956-51.68c-0.049-0.425,0.086-0.851,0.371-1.17c0.285-0.319,0.692-0.502,1.12-0.502
		h93.675c0.428,0,0.835,0.183,1.12,0.502s0.419,0.745,0.371,1.17l-13.048,113.202C187.514,221.399,178.706,229.25,168.227,229.25z"
		/>
	<path fill="#FAE6CA" d="M171.934,160.25V97.615h-37v62.635c0,10.217,8.283,18.5,18.5,18.5h0
		C163.651,178.75,171.934,170.467,171.934,160.25z"/>
	<path fill="#3A312A" d="M153.434,180.25c-11.028,0-20.001-8.972-20.001-20V97.615c0-0.829,0.671-1.5,1.5-1.5h37
		c0.829,0,1.5,0.671,1.5,1.5v62.635C173.434,171.278,164.462,180.25,153.434,180.25z M136.434,99.115v61.135c0,9.374,7.626,17,17,17
		c9.374,0,17-7.626,17-17V99.115H136.434z"/>
	<rect x="143.1" y="227.75" fill="#87796F" width="20.667" height="12"/>
	<path fill="#3A312A" d="M163.767,241.25h-20.667c-0.829,0-1.5-0.671-1.5-1.5v-12c0-0.829,0.671-1.5,1.5-1.5h20.667
		c0.829,0,1.5,0.671,1.5,1.5v12C165.267,240.579,164.596,241.25,163.767,241.25z M144.601,238.25h17.667v-9h-17.667V238.25z"/>
	<path fill="#87796F" d="M153.934,154.75L153.934,154.75c-6.628,0-12-5.373-12-12v-14c0-6.627,5.373-12,12-12h0
		c6.627,0,12,5.373,12,12v14C165.934,149.377,160.561,154.75,153.934,154.75z"/>
	<path fill="#3A312A" d="M153.934,156.25c-7.444,0-13.501-6.056-13.501-13.5v-14c0-7.444,6.056-13.5,13.5-13.5
		c7.444,0,13.5,6.056,13.5,13.5v14C167.434,150.194,161.378,156.25,153.934,156.25z M153.934,118.25
		c-5.79,0-10.501,4.71-10.501,10.5v14c0,5.79,4.71,10.5,10.5,10.5h0.001c5.79,0,10.499-4.71,10.499-10.5v-14
		C164.434,122.96,159.724,118.25,153.934,118.25z"/>
	<circle fill="#D6DF58" cx="153.934" cy="128.75" r="7"/>
	<path fill="#3A312A" d="M153.934,137.25c-4.687,0-8.5-3.813-8.5-8.5s3.813-8.5,8.5-8.5c4.687,0,8.5,3.813,8.5,8.5
		S158.621,137.25,153.934,137.25z M153.934,123.25c-3.033,0-5.5,2.467-5.5,5.5s2.467,5.5,5.5,5.5s5.5-2.467,5.5-5.5
		S156.966,123.25,153.934,123.25z"/>
	<path fill="#D04E5D" d="M212.684,49.29V57h-15v-7.71c0-5.81-4.73-10.54-10.54-10.54h15C207.954,38.75,212.684,43.48,212.684,49.29z
		"/>
	<polygon fill="#B9C239" points="212.054,60 199.214,96.12 184.214,96.12 197.054,60 	"/>
	<path fill="#6CA8BF" d="M198.594,99.12l-12.86,111.53c-1.03,8.89-8.55,15.6-17.51,15.6h-15c8.96,0,16.48-6.71,17.51-15.6
		l12.86-111.53H198.594z"/>
</g>
</svg>
