<?xml version="1.0" encoding="utf-8"?>
<!-- Generator: Adobe Illustrator 24.0.0, SVG Export Plug-In . SVG Version: 6.00 Build 0)  -->
<svg version="1.1" id="Layer_1" xmlns="http://www.w3.org/2000/svg" xmlns:xlink="http://www.w3.org/1999/xlink" x="0px" y="0px"
	 viewBox="0 0 256 256" enable-background="new 0 0 256 256" xml:space="preserve">
<g>
	<path fill="#87796F" d="M162.48,59.51v4.51h-64v-4.51c0-6.07,4.91-10.99,10.98-10.99h42.03C157.56,48.52,162.48,53.44,162.48,59.51
		z"/>
	<path fill="#3A312A" d="M162.48,65.52h-64c-0.829,0-1.5-0.671-1.5-1.5v-4.51c0-6.887,5.599-12.49,12.48-12.49h42.03
		c6.887,0,12.49,5.603,12.49,12.49v4.51C163.98,64.849,163.309,65.52,162.48,65.52z M99.98,62.52h61v-3.01
		c0-5.232-4.257-9.49-9.49-9.49h-42.03c-5.227,0-9.48,4.257-9.48,9.49V62.52z"/>
	<path fill="#FAE6CA" d="M148.85,48.525H112.1V27.511c0-6.068,4.919-10.986,10.986-10.986h14.777
		c6.068,0,10.986,4.919,10.986,10.986V48.525z"/>
	<path fill="#3A312A" d="M148.851,50.024h-36.75c-0.829,0-1.5-0.671-1.5-1.5V27.511c0-6.885,5.601-12.487,12.486-12.487h14.777
		c6.885,0,12.486,5.602,12.486,12.487v21.013C150.351,49.353,149.679,50.024,148.851,50.024z M113.601,47.024h33.75V27.511
		c0-5.231-4.256-9.487-9.486-9.487h-14.777c-5.231,0-9.486,4.256-9.486,9.487V47.024z"/>
	<circle fill="#3A312A" cx="130.475" cy="32.525" r="6"/>
	<path fill="#D6DF58" d="M63.436,26.161c0,0,3.408,12.659,13.222,13.246c0,0-13.1,4.525-13.321,14.202
		c0,0-2.578-13.572-12.925-14.059C50.411,39.551,62.462,37.725,63.436,26.161z"/>
	<path fill="#3A312A" d="M63.335,55.109c-0.713,0-1.335-0.506-1.472-1.217c-0.024-0.124-2.495-12.417-11.522-12.842
		c-0.771-0.037-1.388-0.651-1.428-1.421c-0.04-0.771,0.511-1.445,1.273-1.561c0.441-0.069,10.894-1.817,11.754-12.033
		c0.061-0.725,0.634-1.301,1.359-1.367c0.735-0.064,1.393,0.399,1.583,1.102c0.032,0.116,3.259,11.626,11.864,12.141
		c0.714,0.043,1.297,0.584,1.396,1.292c0.098,0.708-0.319,1.388-0.994,1.623c-0.121,0.042-12.118,4.31-12.313,12.819
		c-0.018,0.767-0.61,1.396-1.375,1.46C63.419,55.107,63.377,55.109,63.335,55.109z M55.594,39.379
		c3.878,1.969,6.23,5.746,7.587,8.877c2.027-4.021,5.942-6.787,8.949-8.427c-4.134-1.842-6.783-5.651-8.334-8.722
		C62.003,35.466,58.525,37.975,55.594,39.379z"/>
	<path fill="#D6DF58" d="M41.737,43.142c0,0,2.411,8.954,9.352,9.369c0,0-9.266,3.201-9.422,10.045c0,0-1.824-9.6-9.142-9.944
		C32.524,52.612,41.048,51.321,41.737,43.142z"/>
	<path fill="#3A312A" d="M41.665,64.057c-0.713,0-1.337-0.507-1.472-1.22c-0.016-0.082-1.704-8.442-7.739-8.726
		c-0.771-0.037-1.388-0.651-1.428-1.421c-0.04-0.771,0.511-1.445,1.273-1.561c0.296-0.047,7.364-1.243,7.942-8.114
		c0.061-0.726,0.635-1.303,1.36-1.368c0.725-0.067,1.392,0.399,1.582,1.101l0,0c0.021,0.079,2.228,7.92,7.994,8.265
		c0.714,0.043,1.299,0.584,1.396,1.293c0.098,0.709-0.32,1.388-0.996,1.622c-0.081,0.028-8.282,2.952-8.413,8.662
		c-0.018,0.767-0.611,1.397-1.376,1.461C41.748,64.055,41.706,64.057,41.665,64.057z M37.146,52.529
		c2.107,1.333,3.523,3.395,4.447,5.28c1.376-2.232,3.515-3.872,5.365-4.972c-2.287-1.27-3.884-3.35-4.941-5.224
		C40.844,49.899,39.002,51.488,37.146,52.529z"/>
	<path fill="#D6DF58" d="M41.737,16.484c0,0,2.411,8.954,9.352,9.37c0,0-9.266,3.201-9.422,10.045c0,0-1.824-9.6-9.142-9.944
		C32.524,25.955,41.048,24.663,41.737,16.484z"/>
	<path fill="#3A312A" d="M41.665,37.399c-0.713,0-1.337-0.507-1.472-1.22c-0.016-0.082-1.704-8.442-7.739-8.726
		c-0.77-0.037-1.387-0.651-1.427-1.421c-0.04-0.771,0.511-1.445,1.273-1.56c0.296-0.047,7.364-1.243,7.942-8.113
		c0.061-0.726,0.635-1.303,1.36-1.368c0.725-0.068,1.392,0.399,1.582,1.102l0,0c0.021,0.079,2.228,7.92,7.994,8.265
		c0.714,0.043,1.299,0.585,1.396,1.294c0.098,0.709-0.32,1.388-0.996,1.622c-0.081,0.028-8.282,2.952-8.413,8.662
		c-0.018,0.767-0.611,1.397-1.376,1.461C41.748,37.398,41.706,37.399,41.665,37.399z M37.146,25.872
		c2.107,1.332,3.523,3.394,4.447,5.28c1.376-2.233,3.515-3.872,5.365-4.972c-2.287-1.27-3.884-3.35-4.941-5.224
		C40.844,23.242,39.002,24.831,37.146,25.872z"/>
	<path fill="#89C4DB" d="M82.975,129.578v98.559c0,6.284,5.094,11.378,11.378,11.378h72.243c6.284,0,11.378-5.094,11.378-11.378
		V75.394c0-6.284-5.094-11.378-11.378-11.378H94.354c-6.284,0-11.378,5.094-11.378,11.378v39.361V129.578z"/>
	<path fill="#3A312A" d="M166.597,241.016H94.354c-7.101,0-12.878-5.777-12.878-12.878v-98.559c0-0.829,0.671-1.5,1.5-1.5
		c0.829,0,1.5,0.671,1.5,1.5v98.559c0,5.447,4.432,9.878,9.878,9.878h72.243c5.447,0,9.879-4.432,9.879-9.878V75.394
		c0-5.447-4.432-9.878-9.879-9.878H94.354c-5.447,0-9.878,4.432-9.878,9.878v39.361c0,0.829-0.671,1.5-1.5,1.5
		c-0.829,0-1.5-0.671-1.5-1.5V75.394c0-7.101,5.777-12.878,12.878-12.878h72.243c7.102,0,12.879,5.777,12.879,12.878v152.743
		C179.476,235.238,173.698,241.016,166.597,241.016z"/>
	<path fill="#D6DF58" d="M109.427,185.059c5.551,7.376,12.939,11.895,21.048,11.895c10.505,0,19.812-7.562,25.464-19.126
		c3.603-7.369,5.724-16.364,5.724-26.062c0-24.919-13.989-45.188-31.188-45.188s-31.187,20.27-31.187,45.188
		c0,7.187,1.17,13.985,3.24,20.025L109.427,185.059z"/>
	<path fill="#3A312A" d="M130.476,198.454c-8.283,0-16.184-4.437-22.247-12.493c-0.498-0.662-0.365-1.602,0.297-2.1
		c0.661-0.498,1.603-0.366,2.101,0.297c5.482,7.285,12.532,11.297,19.85,11.297c9.505,0,18.52-6.835,24.116-18.285
		c3.645-7.455,5.571-16.24,5.571-25.404c0-24.09-13.317-43.688-29.688-43.688c-16.37,0-29.688,19.599-29.688,43.688
		c0,6.849,1.063,13.423,3.159,19.539c0.269,0.784-0.149,1.637-0.933,1.905c-0.783,0.269-1.637-0.149-1.905-0.933
		c-2.204-6.43-3.321-13.331-3.321-20.511c0-25.744,14.664-46.688,32.688-46.688c18.024,0,32.688,20.944,32.688,46.688
		c0,9.618-2.032,18.858-5.876,26.721C151.176,190.99,141.152,198.454,130.476,198.454z"/>
	<path fill="#3A312A" d="M159.514,27.975c-0.695,0-1.319-0.487-1.467-1.196c-0.168-0.811,0.353-1.605,1.164-1.773l47.96-9.95
		c0.806-0.166,1.604,0.352,1.773,1.164c0.168,0.811-0.352,1.605-1.164,1.774l-47.96,9.95
		C159.718,27.965,159.615,27.975,159.514,27.975z"/>
	<path fill="#3A312A" d="M207.477,50.025c-0.101,0-0.204-0.01-0.307-0.032l-47.96-9.95c-0.811-0.169-1.332-0.962-1.164-1.774
		c0.169-0.812,0.968-1.332,1.773-1.164l47.96,9.95c0.812,0.168,1.332,0.962,1.164,1.773
		C208.797,49.538,208.173,50.025,207.477,50.025z"/>
	<path fill="#3A312A" d="M223.476,34.024h-63.96c-0.828,0-1.5-0.671-1.5-1.5c0-0.829,0.672-1.5,1.5-1.5h63.96
		c0.828,0,1.5,0.671,1.5,1.5C224.976,33.353,224.304,34.024,223.476,34.024z"/>
	<path fill="#6CA8BF" d="M166.6,65.52h-15c5.44,0,9.88,4.43,9.88,9.87v61.59c1.09,4.65,1.68,9.62,1.68,14.79
		c0,5.08-0.57,10.06-1.68,14.79v61.58c0,5.44-4.44,9.88-9.88,9.88h15c5.44,0,9.88-4.44,9.88-9.88V75.39
		C176.48,69.95,172.04,65.52,166.6,65.52z"/>
</g>
</svg>
