<?xml version="1.0" encoding="utf-8"?>
<!-- Generator: Adobe Illustrator 24.0.0, SVG Export Plug-In . SVG Version: 6.00 Build 0)  -->
<svg version="1.1" id="Layer_1" xmlns="http://www.w3.org/2000/svg" xmlns:xlink="http://www.w3.org/1999/xlink" x="0px" y="0px"
	 viewBox="0 0 256 256" enable-background="new 0 0 256 256" xml:space="preserve">
<g>
	<path fill="#D7E057" d="M47.411,26.18c0,0,3.408,12.659,13.222,13.246c0,0-13.1,4.525-13.321,14.202
		c0,0-2.578-13.572-12.925-14.059C34.387,39.569,46.437,37.744,47.411,26.18z"/>
	<path fill="#3A312A" d="M47.31,55.127c-0.713,0-1.335-0.506-1.473-1.217c-0.023-0.124-2.494-12.417-11.521-12.842
		c-0.771-0.037-1.388-0.651-1.428-1.421c-0.04-0.771,0.511-1.445,1.273-1.561c0.441-0.069,10.895-1.817,11.754-12.032
		c0.061-0.725,0.635-1.301,1.359-1.367c0.73-0.062,1.394,0.399,1.584,1.102c0.031,0.116,3.259,11.625,11.863,12.14
		c0.714,0.043,1.297,0.584,1.396,1.292c0.098,0.708-0.318,1.388-0.994,1.623c-0.121,0.042-12.118,4.311-12.313,12.819
		c-0.018,0.767-0.611,1.396-1.375,1.459C47.394,55.126,47.352,55.127,47.31,55.127z M39.57,39.398
		c3.878,1.969,6.229,5.746,7.586,8.877c2.027-4.021,5.942-6.787,8.949-8.427c-4.134-1.842-6.783-5.651-8.334-8.722
		C45.978,35.485,42.501,37.994,39.57,39.398z"/>
	<path fill="#D7E057" d="M25.712,43.16c0,0,2.411,8.954,9.352,9.369c0,0-9.266,3.201-9.422,10.045c0,0-1.824-9.6-9.142-9.944
		C16.5,52.631,25.024,51.34,25.712,43.16z"/>
	<path fill="#3A312A" d="M25.642,64.075c-0.714,0-1.337-0.507-1.473-1.22c-0.016-0.082-1.704-8.442-7.739-8.726
		c-0.771-0.037-1.388-0.651-1.428-1.421c-0.04-0.771,0.511-1.445,1.273-1.561c0.296-0.047,7.363-1.243,7.942-8.114
		c0.062-0.726,0.636-1.303,1.361-1.368c0.714-0.065,1.393,0.399,1.582,1.103c0.038,0.138,2.249,7.92,7.993,8.263
		c0.714,0.043,1.299,0.584,1.396,1.293c0.097,0.709-0.32,1.388-0.996,1.622c-0.081,0.028-8.282,2.952-8.412,8.662
		c-0.018,0.767-0.611,1.397-1.376,1.461C25.725,64.074,25.683,64.075,25.642,64.075z M21.122,52.547
		c2.107,1.333,3.523,3.394,4.447,5.28c1.376-2.232,3.515-3.871,5.365-4.972c-2.287-1.269-3.885-3.35-4.941-5.224
		C24.819,49.917,22.977,51.506,21.122,52.547z"/>
	<path fill="#D7E057" d="M25.712,16.503c0,0,2.411,8.954,9.352,9.37c0,0-9.266,3.201-9.422,10.045c0,0-1.824-9.6-9.142-9.944
		C16.5,25.973,25.024,24.682,25.712,16.503z"/>
	<path fill="#3A312A" d="M25.642,37.418c-0.714,0-1.337-0.507-1.473-1.22c-0.016-0.082-1.704-8.442-7.739-8.726
		c-0.771-0.037-1.388-0.651-1.428-1.421c-0.04-0.771,0.511-1.445,1.273-1.561c0.296-0.047,7.363-1.243,7.942-8.114
		c0.062-0.726,0.636-1.303,1.361-1.368c0.719-0.063,1.392,0.399,1.582,1.102l0,0c0.021,0.079,2.227,7.92,7.993,8.265
		c0.714,0.043,1.299,0.584,1.396,1.294c0.097,0.709-0.32,1.388-0.996,1.622c-0.081,0.028-8.282,2.952-8.412,8.662
		c-0.018,0.767-0.611,1.398-1.376,1.461C25.725,37.417,25.683,37.418,25.642,37.418z M21.122,25.89
		c2.107,1.333,3.523,3.395,4.447,5.28c1.376-2.232,3.516-3.872,5.365-4.972c-2.287-1.27-3.885-3.35-4.941-5.224
		C24.819,23.26,22.977,24.849,21.122,25.89z"/>
	<path fill="#F7E3C7" d="M16.5,133.047h90.36c-3.77,16.85-8.75,30.36-11.6,41.39c-1.36-0.76-2.64-1.72-3.81-2.88
		c-3.41-3.41-7.88-5.11-12.34-5.11c-4.47,0-8.93,1.7-12.34,5.11l-0.3,0.29c-6.69,6.7-17.51,6.83-24.37,0.3l-0.75-0.72
		c-7.06-6.71-18.24-6.36-24.85,0.79V133.047z"/>
	<path fill="#F7E3C7" d="M239.5,133.047v38.51c-6.81-6.82-17.86-6.82-24.68,0c-3.4,3.41-7.87,5.11-12.34,5.11
		c-4.46,0-8.92-1.7-12.33-5.11c-3.41-3.41-7.87-5.11-12.34-5.11c-3.2,0-6.39,0.87-9.19,2.62c-0.99-11.52-2.76-23.63-5.15-36.02
		H239.5z"/>
	<path fill="#8AC5DC" d="M239.49,171.557v67.94H16.51v-67.28c6.6-7.15,17.79-7.5,24.84-0.78l0.76,0.71
		c6.77,6.46,17.41,6.4,24.12-0.07c0.09-0.07,0.17-0.16,0.24-0.23l0.3-0.29c3.41-3.41,7.87-5.12,12.34-5.12
		c4.46,0,8.93,1.71,12.34,5.12c0.15,0.15,0.3,0.29,0.46,0.44c1.03,0.97,2.16,1.78,3.35,2.44c-1.37,5.31-2.24,10.04-2.24,14.29
		c0,21.13,17.13,38.25,38.25,38.25c21.13,0,38.25-17.12,38.25-38.25c0-6.32-0.31-12.89-0.9-19.67c2.8-1.75,6-2.62,9.19-2.62
		c4.47,0,8.94,1.71,12.34,5.12c0.05,0.05,0.1,0.1,0.16,0.15c3.38,3.3,7.77,4.96,12.18,4.96c4.43,0,8.86-1.69,12.26-5.04l0.08-0.07
		C221.64,164.737,232.68,164.737,239.49,171.557z"/>
	<circle fill="#E96C7A" cx="35.474" cy="191.025" r="5.474"/>
	<path fill="#3A312A" d="M35.474,197.999c-3.846,0-6.974-3.128-6.974-6.974c0-3.846,3.128-6.974,6.974-6.974
		s6.974,3.128,6.974,6.974C42.447,194.871,39.319,197.999,35.474,197.999z M35.474,187.051c-2.191,0-3.974,1.783-3.974,3.974
		c0,2.191,1.782,3.974,3.974,3.974c2.191,0,3.974-1.783,3.974-3.974C39.447,188.834,37.665,187.051,35.474,187.051z"/>
	<path fill="#E96C7A" d="M78.423,191.446c0,3.023-2.451,5.474-5.474,5.474c-3.023,0-5.474-2.451-5.474-5.474
		c0-3.023,2.451-5.474,5.474-5.474C75.972,185.972,78.423,188.423,78.423,191.446z"/>
	<path fill="#3A312A" d="M72.949,198.42c-3.846,0-6.975-3.128-6.975-6.974c0-3.846,3.129-6.974,6.975-6.974
		c3.846,0,6.974,3.128,6.974,6.974C79.923,195.292,76.795,198.42,72.949,198.42z M72.949,187.472c-2.191,0-3.975,1.783-3.975,3.974
		c0,2.191,1.783,3.974,3.975,3.974c2.191,0,3.974-1.783,3.974-3.974C76.923,189.255,75.141,187.472,72.949,187.472z"/>
	<path fill="#E96C7A" d="M190.848,192.71c0,3.023-2.451,5.474-5.474,5.474c-3.023,0-5.474-2.451-5.474-5.474
		c0-3.023,2.451-5.474,5.474-5.474C188.397,187.236,190.848,189.686,190.848,192.71z"/>
	<path fill="#3A312A" d="M185.374,199.683c-3.846,0-6.975-3.128-6.975-6.974s3.129-6.974,6.975-6.974
		c3.846,0,6.974,3.129,6.974,6.974S189.22,199.683,185.374,199.683z M185.374,188.736c-2.191,0-3.975,1.783-3.975,3.974
		s1.783,3.974,3.975,3.974c2.191,0,3.974-1.783,3.974-3.974S187.565,188.736,185.374,188.736z"/>
	<path fill="#E96C7A" d="M228.323,193.13c0,3.023-2.451,5.474-5.474,5.474c-3.023,0-5.474-2.451-5.474-5.474
		c0-3.023,2.451-5.474,5.474-5.474C225.872,187.657,228.323,190.107,228.323,193.13z"/>
	<path fill="#3A312A" d="M222.849,200.105c-3.846,0-6.974-3.128-6.974-6.974c0-3.845,3.128-6.974,6.974-6.974
		s6.974,3.129,6.974,6.974C229.822,196.976,226.694,200.105,222.849,200.105z M222.849,189.157c-2.191,0-3.974,1.783-3.974,3.974
		c0,2.191,1.782,3.974,3.974,3.974c2.191,0,3.974-1.783,3.974-3.974C226.822,190.939,225.04,189.157,222.849,189.157z"/>
	<path fill="#E96C7A" d="M58.524,219.446c0,3.023-2.451,5.474-5.474,5.474c-3.023,0-5.474-2.451-5.474-5.474
		c0-3.023,2.451-5.474,5.474-5.474C56.073,213.972,58.524,216.423,58.524,219.446z"/>
	<path fill="#3A312A" d="M53.05,226.42c-3.846,0-6.974-3.128-6.974-6.974c0-3.846,3.128-6.974,6.974-6.974s6.974,3.128,6.974,6.974
		C60.023,223.292,56.895,226.42,53.05,226.42z M53.05,215.472c-2.191,0-3.974,1.783-3.974,3.974c0,2.191,1.782,3.974,3.974,3.974
		c2.191,0,3.974-1.783,3.974-3.974C57.023,217.255,55.241,215.472,53.05,215.472z"/>
	<path fill="#E96C7A" d="M95.999,219.867c0,3.023-2.451,5.474-5.474,5.474c-3.023,0-5.474-2.451-5.474-5.474
		c0-3.023,2.451-5.474,5.474-5.474C93.548,214.393,95.999,216.844,95.999,219.867z"/>
	<path fill="#3A312A" d="M90.525,226.841c-3.846,0-6.975-3.128-6.975-6.974c0-3.845,3.129-6.974,6.975-6.974
		s6.974,3.128,6.974,6.974C97.499,223.713,94.371,226.841,90.525,226.841z M90.525,215.894c-2.191,0-3.975,1.783-3.975,3.974
		c0,2.191,1.783,3.974,3.975,3.974c2.191,0,3.974-1.783,3.974-3.974C94.499,217.676,92.717,215.894,90.525,215.894z"/>
	<path fill="#E96C7A" d="M170.949,220.71c0,3.023-2.451,5.474-5.474,5.474c-3.023,0-5.474-2.451-5.474-5.474
		c0-3.023,2.451-5.474,5.474-5.474C168.498,215.236,170.949,217.686,170.949,220.71z"/>
	<path fill="#3A312A" d="M165.475,227.683c-3.846,0-6.974-3.128-6.974-6.974s3.128-6.974,6.974-6.974
		c3.846,0,6.975,3.129,6.975,6.974S169.32,227.683,165.475,227.683z M165.475,216.736c-2.191,0-3.974,1.783-3.974,3.974
		s1.782,3.974,3.974,3.974c2.191,0,3.975-1.783,3.975-3.974S167.666,216.736,165.475,216.736z"/>
	<path fill="#E96C7A" d="M208.424,221.13c0,3.023-2.451,5.474-5.474,5.474c-3.023,0-5.474-2.451-5.474-5.474
		c0-3.023,2.451-5.474,5.474-5.474C205.973,215.657,208.424,218.107,208.424,221.13z"/>
	<path fill="#3A312A" d="M202.95,228.105c-3.846,0-6.974-3.128-6.974-6.974c0-3.845,3.128-6.974,6.974-6.974
		c3.846,0,6.974,3.129,6.974,6.974C209.924,224.976,206.796,228.105,202.95,228.105z M202.95,217.157
		c-2.191,0-3.974,1.783-3.974,3.974c0,2.191,1.782,3.974,3.974,3.974c2.191,0,3.974-1.783,3.974-3.974
		C206.924,218.939,205.142,217.157,202.95,217.157z"/>
	<path fill="#3A312A" d="M54.137,178.417c-4.715,0-9.435-1.723-13.071-5.184l-0.755-0.724c-3.12-2.965-7.208-4.524-11.517-4.385
		c-4.298,0.139-8.273,1.954-11.191,5.111c-0.563,0.609-1.511,0.646-2.12,0.083c-0.608-0.563-0.646-1.512-0.083-2.12
		c3.469-3.751,8.191-5.908,13.298-6.073c5.115-0.17,9.976,1.687,13.687,5.214l0.756,0.725c6.215,5.917,16.206,5.794,22.269-0.277
		l0.318-0.309c3.561-3.561,8.32-5.532,13.384-5.532c5.063,0,9.822,1.971,13.4,5.549c1.05,1.041,2.223,1.928,3.48,2.631
		c0.724,0.404,0.982,1.318,0.578,2.042c-0.405,0.723-1.319,0.982-2.041,0.578c-1.496-0.836-2.887-1.887-4.135-3.124
		c-3.016-3.016-7.021-4.675-11.283-4.675c-4.263,0-8.269,1.659-11.28,4.67l-0.317,0.308
		C63.863,176.581,59.003,178.417,54.137,178.417z"/>
	<path fill="#3A312A" d="M202.48,178.167c-5.058,0-9.813-1.971-13.391-5.549c-3.012-3.012-7.018-4.67-11.28-4.67
		c-2.988,0-5.891,0.827-8.395,2.392c-0.701,0.438-1.627,0.227-2.066-0.477c-0.439-0.702-0.226-1.628,0.477-2.067
		c2.98-1.863,6.434-2.848,9.984-2.848c5.063,0,9.823,1.971,13.401,5.549c3.011,3.012,7.014,4.67,11.27,4.67
		c4.271,0,8.275-1.658,11.277-4.669c3.583-3.583,8.344-5.556,13.406-5.556s9.82,1.973,13.397,5.555
		c0.585,0.586,0.585,1.536-0.002,2.122c-0.586,0.586-1.535,0.584-2.121-0.001c-3.01-3.015-7.014-4.675-11.274-4.675
		c-4.262,0-8.269,1.66-11.283,4.675C212.314,176.196,207.554,178.167,202.48,178.167z"/>
	<path fill="#3A312A" d="M239.5,134.547h-76.03c-0.828,0-1.5-0.671-1.5-1.5c0-0.829,0.672-1.5,1.5-1.5h76.03
		c0.828,0,1.5,0.671,1.5,1.5C241,133.876,240.328,134.547,239.5,134.547z"/>
	<path fill="#3A312A" d="M106.86,134.547H16.5c-0.828,0-1.5-0.671-1.5-1.5c0-0.829,0.672-1.5,1.5-1.5h90.36
		c0.828,0,1.5,0.671,1.5,1.5C108.36,133.876,107.688,134.547,106.86,134.547z"/>
	<path fill="#87796F" d="M128.203,68.405c-11.816-30.006-23.197-51.902-25.371-51.902c-3.815,0,20.69,71.381,15.734,119.29
		c-2.622,25.349-11.8,41.626-11.8,52.858c0,14,11.349,25.349,25.349,25.349s25.349-11.349,25.349-25.349
		c0-31.252-11.485-72.171-23.958-106.276L128.203,68.405z"/>
	<path fill="#3A312A" d="M132.114,215.5c-14.805,0-26.849-12.044-26.849-26.849c0-5.279,1.857-11.35,4.208-19.035
		c2.75-8.991,6.173-20.181,7.6-33.977c3.31-31.985-6.51-74.059-12.376-99.196c-3.75-16.066-4.387-19.339-3.258-20.761
		c0.342-0.431,0.85-0.678,1.393-0.678c1.002,0,2.678,0,10.412,15.53c5.106,10.253,10.915,23.508,16.354,37.322
		c0.304,0.771-0.075,1.642-0.846,1.945c-0.769,0.304-1.642-0.074-1.945-0.846c-10.007-25.41-18.664-42.573-22.584-48.674
		c0.596,3.488,1.968,9.366,3.395,15.48c5.91,25.321,15.801,67.701,12.439,100.187c-1.457,14.086-4.928,25.431-7.716,34.546
		c-2.277,7.446-4.076,13.327-4.076,18.157c0,13.15,10.698,23.849,23.849,23.849c13.15,0,23.85-10.699,23.85-23.849
		c0-35.239-14.953-81.388-23.867-105.761c-0.284-0.778,0.116-1.639,0.894-1.924c0.776-0.284,1.64,0.115,1.925,0.894
		c19.877,54.35,24.049,88.072,24.049,106.791C158.964,203.456,146.919,215.5,132.114,215.5z M102.362,17.892L102.362,17.892
		L102.362,17.892z"/>
	<path fill="#3A312A" d="M131.27,228.477c-21.918,0-39.75-17.832-39.75-39.75c0-7.851,2.786-16.96,6.315-28.494
		c2.459-8.04,5.246-17.152,7.562-27.513c0.181-0.809,0.98-1.317,1.791-1.137c0.809,0.181,1.317,0.982,1.137,1.791
		c-2.342,10.474-5.146,19.645-7.622,27.736c-3.454,11.294-6.183,20.214-6.183,27.616c0,20.264,16.486,36.75,36.75,36.75
		c20.264,0,36.75-16.486,36.75-36.75c0-16.007-2.026-34.645-6.022-55.396c-0.157-0.814,0.376-1.6,1.189-1.757
		c0.807-0.155,1.6,0.376,1.756,1.189c4.032,20.938,6.077,39.767,6.077,55.963C171.02,210.645,153.188,228.477,131.27,228.477z"/>
	<path fill="#DECAAD" d="M239.5,134.547v34.99c-3.43-2.97-7.75-4.6-12.34-4.6c-1.59,0-3.15,0.2-4.66,0.58v-30.97H239.5z"/>
	<path fill="#6CA8BF" d="M238.44,172.617c-3.01-3.02-7.02-4.68-11.28-4.68c-1.61,0-3.18,0.24-4.67,0.7v17.54
		c0.12-0.02,0.24-0.02,0.36-0.02c3.84,0,6.97,3.13,6.97,6.97c0,3.85-3.13,6.98-6.97,6.98c-0.12,0-0.24,0-0.36-0.02v39.41h17v-66.44
		C239.11,173.057,238.73,172.907,238.44,172.617z"/>
	
		<ellipse transform="matrix(0.1784 -0.984 0.984 0.1784 113.0769 243.1489)" fill="#D6DF58" cx="202.141" cy="53.862" rx="37.359" ry="37.359"/>
	<path fill="#3A312A" d="M202.142,92.72c-21.427,0-38.859-17.432-38.859-38.858c0-21.427,17.433-38.859,38.859-38.859
		S241,32.435,241,53.862C241,75.289,223.568,92.72,202.142,92.72z M202.142,18.003c-19.773,0-35.859,16.087-35.859,35.859
		c0,19.772,16.087,35.858,35.859,35.858S238,73.634,238,53.862C238,34.089,221.914,18.003,202.142,18.003z"/>
	<polygon fill="#F4E0C4" points="222.522,46.874 209.129,46.874 209.129,33.48 195.153,33.48 195.153,46.874 181.76,46.874 
		181.76,60.849 195.153,60.849 195.153,74.243 209.129,74.243 209.129,60.849 222.522,60.849 	"/>
	<path fill="#3A312A" d="M209.129,75.743h-13.976c-0.828,0-1.5-0.671-1.5-1.5V62.349H181.76c-0.828,0-1.5-0.671-1.5-1.5V46.874
		c0-0.829,0.672-1.5,1.5-1.5h11.894V33.48c0-0.829,0.672-1.5,1.5-1.5h13.976c0.828,0,1.5,0.671,1.5,1.5v11.893h11.894
		c0.828,0,1.5,0.671,1.5,1.5v13.976c0,0.829-0.672,1.5-1.5,1.5h-11.894v11.894C210.629,75.071,209.957,75.743,209.129,75.743z
		 M196.653,72.743h10.976V60.849c0-0.829,0.672-1.5,1.5-1.5h11.894V48.374h-11.894c-0.828,0-1.5-0.671-1.5-1.5V34.98h-10.976v11.893
		c0,0.829-0.672,1.5-1.5,1.5H183.26v10.976h11.894c0.828,0,1.5,0.671,1.5,1.5V72.743z"/>
</g>
</svg>
