<?xml version="1.0" encoding="utf-8"?>
<!-- Generator: Adobe Illustrator 24.0.0, SVG Export Plug-In . SVG Version: 6.00 Build 0)  -->
<svg version="1.1" id="Layer_1" xmlns="http://www.w3.org/2000/svg" xmlns:xlink="http://www.w3.org/1999/xlink" x="0px" y="0px"
	 viewBox="0 0 256 256" enable-background="new 0 0 256 256" xml:space="preserve">
<g>
	<path fill="#D4D853" d="M47.437,26.177c0,0,3.41,12.659,13.229,13.246c0,0-13.107,4.525-13.328,14.202
		c0,0-2.58-13.572-12.932-14.059C34.406,39.567,46.463,37.741,47.437,26.177z"/>
	<path fill="#3A312A" d="M47.336,55.125c-0.712,0-1.335-0.506-1.472-1.217c-0.024-0.124-2.496-12.418-11.529-12.844
		c-0.771-0.036-1.388-0.65-1.428-1.421c-0.04-0.77,0.511-1.444,1.273-1.561c0.441-0.068,10.901-1.816,11.761-12.031
		c0.061-0.726,0.634-1.301,1.359-1.367c0.725-0.062,1.392,0.398,1.583,1.101c0.032,0.116,3.261,11.625,11.871,12.141
		c0.714,0.043,1.297,0.584,1.396,1.292c0.098,0.708-0.319,1.388-0.995,1.622c-0.121,0.043-12.125,4.312-12.319,12.819
		c-0.018,0.767-0.61,1.396-1.375,1.46C47.42,55.123,47.378,55.125,47.336,55.125z M39.591,39.396c3.88,1.97,6.234,5.748,7.591,8.878
		c2.028-4.022,5.945-6.788,8.954-8.428c-4.137-1.844-6.787-5.653-8.338-8.725C46.004,35.482,42.524,37.99,39.591,39.396z"/>
	<path fill="#D4D853" d="M25.727,43.158c0,0,2.412,8.954,9.357,9.369c0,0-9.271,3.201-9.427,10.046c0,0-1.825-9.6-9.147-9.944
		C16.51,52.628,25.038,51.337,25.727,43.158z"/>
	<path fill="#3A312A" d="M25.655,64.072c-0.713,0-1.337-0.507-1.472-1.22c-0.016-0.082-1.705-8.442-7.744-8.727
		c-0.771-0.036-1.388-0.65-1.428-1.421c-0.039-0.77,0.511-1.444,1.274-1.561c0.296-0.047,7.369-1.242,7.947-8.113
		c0.061-0.726,0.635-1.303,1.36-1.368c0.729-0.053,1.391,0.399,1.582,1.101l0,0c0.021,0.079,2.229,7.92,7.999,8.266
		c0.714,0.043,1.299,0.584,1.396,1.293c0.098,0.709-0.32,1.389-0.996,1.622c-0.081,0.028-8.287,2.953-8.417,8.661
		c-0.017,0.768-0.611,1.397-1.376,1.461C25.739,64.07,25.697,64.072,25.655,64.072z M21.134,52.545
		c2.108,1.333,3.525,3.395,4.45,5.281c1.376-2.233,3.517-3.873,5.368-4.974c-2.288-1.27-3.887-3.352-4.944-5.226
		C24.833,49.914,22.991,51.504,21.134,52.545z"/>
	<path fill="#D4D853" d="M25.727,16.5c0,0,2.412,8.954,9.357,9.37c0,0-9.271,3.201-9.427,10.045c0,0-1.825-9.6-9.147-9.944
		C16.51,25.971,25.038,24.679,25.727,16.5z"/>
	<path fill="#3A312A" d="M25.655,37.415c-0.713,0-1.337-0.507-1.472-1.22c-0.016-0.082-1.705-8.442-7.744-8.727
		c-0.771-0.036-1.388-0.65-1.428-1.421c-0.039-0.77,0.511-1.444,1.274-1.561c0.296-0.047,7.369-1.242,7.947-8.113
		c0.061-0.726,0.635-1.303,1.36-1.368c0.729-0.053,1.391,0.399,1.582,1.102l0,0c0.021,0.079,2.229,7.92,7.999,8.266
		c0.714,0.043,1.299,0.584,1.396,1.293c0.097,0.709-0.32,1.389-0.997,1.622c-0.081,0.028-8.287,2.952-8.417,8.661
		c-0.017,0.768-0.611,1.397-1.376,1.461C25.738,37.413,25.697,37.415,25.655,37.415z M21.134,25.888
		c2.108,1.333,3.525,3.395,4.45,5.28c1.376-2.233,3.517-3.872,5.368-4.973c-2.288-1.269-3.887-3.351-4.944-5.226
		C24.833,23.257,22.991,24.847,21.134,25.888z"/>
	<path fill="#F16C7A" d="M65.49,108.988v113.111c0,9.61,7.791,17.401,17.401,17.401h139.198c9.61,0,17.401-7.791,17.401-17.401
		V33.901c0-9.61-7.791-17.401-17.401-17.401H82.891c-9.61,0-17.401,7.791-17.401,17.401v61.11V108.988z"/>
	<path fill="#3A312A" d="M222.089,241H82.891c-10.422,0-18.901-8.48-18.901-18.901v-113.11c0-0.828,0.671-1.5,1.5-1.5
		c0.829,0,1.5,0.672,1.5,1.5v113.11c0,8.768,7.133,15.901,15.901,15.901h139.198c8.768,0,15.901-7.134,15.901-15.901V33.901
		c0-8.768-7.133-15.901-15.901-15.901H82.891c-8.768,0-15.901,7.134-15.901,15.901v61.11c0,0.828-0.671,1.5-1.5,1.5
		c-0.829,0-1.5-0.672-1.5-1.5v-61.11C63.99,23.479,72.469,15,82.891,15h139.198c10.422,0,18.901,8.479,18.901,18.901v188.197
		C240.99,232.52,232.511,241,222.089,241z"/>
	<path fill="#8AC3DA" d="M142.369,33.75H99.98c0.01,0.08,0.01,0.17,0.01,0.25c0,9.6-7.75,17.41-17.33,17.5v153
		c9.58,0.09,17.33,7.9,17.33,17.5c0,0.08,0,0.17-0.01,0.25H205c-0.01-0.08-0.01-0.17-0.01-0.25c0-9.6,7.75-17.41,17.33-17.5v-153
		c-9.58-0.09-17.33-7.9-17.33-17.5c0-0.08,0-0.17,0.01-0.25h-49.056H142.369z"/>
	<path fill="#3A312A" d="M205,223.75H99.98c-0.431,0-0.841-0.186-1.126-0.509c-0.285-0.324-0.416-0.754-0.362-1.182
		c-0.002-8.8-7.11-15.978-15.846-16.06c-0.823-0.008-1.486-0.677-1.486-1.5v-153c0-0.823,0.663-1.492,1.486-1.5
		c8.736-0.082,15.844-7.26,15.844-16c-0.055-0.428,0.078-0.888,0.363-1.211c0.285-0.324,0.696-0.539,1.127-0.539h42.389
		c0.829,0,1.5,0.672,1.5,1.5s-0.671,1.5-1.5,1.5h-40.92c-0.613,9.313-8.018,16.862-17.289,17.678v150.145
		c9.271,0.815,16.676,8.365,17.289,17.678h102.082c0.613-9.313,8.018-16.862,17.289-17.678V52.928
		c-9.271-0.815-16.676-8.365-17.289-17.678h-47.587c-0.829,0-1.5-0.672-1.5-1.5s0.671-1.5,1.5-1.5H205
		c0.43,0,0.838,0.185,1.123,0.506c0.285,0.321,0.418,0.749,0.366,1.176c0.001,8.809,7.109,15.986,15.846,16.068
		c0.823,0.008,1.486,0.677,1.486,1.5v153c0,0.823-0.663,1.492-1.486,1.5c-8.736,0.082-15.844,7.26-15.844,16
		c0.052,0.427-0.082,0.889-0.367,1.21C205.839,223.531,205.43,223.75,205,223.75z"/>
	<path fill="#3A312A" d="M203.247,164.429H133.99c-0.829,0-1.5-0.672-1.5-1.5c0-0.828,0.671-1.5,1.5-1.5h69.256
		c0.829,0,1.5,0.672,1.5,1.5C204.747,163.757,204.075,164.429,203.247,164.429z"/>
	
		<ellipse transform="matrix(0.9571 -0.2898 0.2898 0.9571 -42.2963 40.2036)" fill="#D5DC57" cx="114.612" cy="162.929" rx="12.878" ry="12.878"/>
	<path fill="#3A312A" d="M114.612,177.307c-7.928,0-14.378-6.45-14.378-14.378c0-7.928,6.45-14.378,14.378-14.378
		s14.378,6.45,14.378,14.378C128.99,170.856,122.54,177.307,114.612,177.307z M114.612,151.551c-6.274,0-11.378,5.105-11.378,11.378
		c0,6.273,5.104,11.378,11.378,11.378c6.274,0,11.378-5.104,11.378-11.378C125.99,156.655,120.886,151.551,114.612,151.551z"/>
	<path fill="#3A312A" d="M113.45,171.875v-2.083c-1.469-0.066-2.894-0.46-3.727-0.943l0.658-2.565
		c0.921,0.504,2.215,0.965,3.64,0.965c1.25,0,2.105-0.482,2.105-1.36c0-0.833-0.702-1.359-2.324-1.908
		c-2.346-0.789-3.947-1.886-3.947-4.013c0-1.93,1.359-3.443,3.706-3.903v-2.083h2.149v1.93c1.469,0.065,2.456,0.373,3.179,0.724
		l-0.636,2.477c-0.57-0.241-1.579-0.745-3.157-0.745c-1.425,0-1.886,0.614-1.886,1.228c0,0.724,0.768,1.184,2.631,1.886
		c2.609,0.921,3.662,2.127,3.662,4.1c0,1.952-1.382,3.618-3.903,4.056v2.237H113.45z"/>
	<path fill="#3A312A" d="M203.247,196.429H133.99c-0.829,0-1.5-0.672-1.5-1.5c0-0.828,0.671-1.5,1.5-1.5h69.256
		c0.829,0,1.5,0.672,1.5,1.5C204.747,195.757,204.075,196.429,203.247,196.429z"/>
	
		<ellipse transform="matrix(0.9571 -0.2898 0.2898 0.9571 -51.5694 41.5766)" fill="#D5DC57" cx="114.612" cy="194.929" rx="12.878" ry="12.878"/>
	<path fill="#3A312A" d="M114.612,209.307c-7.928,0-14.378-6.45-14.378-14.378c0-7.928,6.45-14.378,14.378-14.378
		s14.378,6.45,14.378,14.378C128.99,202.856,122.54,209.307,114.612,209.307z M114.612,183.551c-6.274,0-11.378,5.105-11.378,11.378
		c0,6.273,5.104,11.378,11.378,11.378c6.274,0,11.378-5.104,11.378-11.378C125.99,188.655,120.886,183.551,114.612,183.551z"/>
	<path fill="#3A312A" d="M113.45,203.875v-2.083c-1.469-0.066-2.894-0.46-3.727-0.943l0.658-2.565
		c0.921,0.504,2.215,0.965,3.64,0.965c1.25,0,2.105-0.482,2.105-1.36c0-0.833-0.702-1.359-2.324-1.908
		c-2.346-0.789-3.947-1.886-3.947-4.013c0-1.93,1.359-3.443,3.706-3.903v-2.083h2.149v1.93c1.469,0.065,2.456,0.373,3.179,0.724
		l-0.636,2.477c-0.57-0.241-1.579-0.745-3.157-0.745c-1.425,0-1.886,0.614-1.886,1.228c0,0.724,0.768,1.184,2.631,1.886
		c2.609,0.921,3.662,2.127,3.662,4.1c0,1.952-1.382,3.618-3.903,4.056v2.237H113.45z"/>
	<path fill="#6CA8BF" d="M203.53,35.25h-15c0.61,9.31,8.02,16.86,17.29,17.68v150.14c-9.27,0.82-16.68,8.37-17.29,17.68h15
		c0.61-9.31,8.02-16.86,17.29-17.68V52.93C211.55,52.11,204.14,44.56,203.53,35.25z"/>
	<path fill="#FCE8CB" d="M182.909,140.958v-12.433c0-7.578-6.145-13.72-13.727-13.72h-9.069v-5.891
		c-2.508,1.738-5.104,2.763-7.622,2.763c-2.416,0-4.966-1.036-7.464-2.794h-0.154v5.922h-9.075c-7.581,0-13.727,6.142-13.727,13.72
		v12.433H182.909z"/>
	<path fill="#3A312A" d="M182.909,142.458h-60.837c-0.829,0-1.5-0.672-1.5-1.5v-12.434c0-8.393,6.831-15.22,15.227-15.22h7.574
		v-4.422c0-0.828,0.671-1.5,1.5-1.5h0.154c0.309,0,0.611,0.096,0.864,0.274c2.376,1.673,4.597,2.521,6.6,2.521
		c2.1,0,4.378-0.84,6.768-2.497c0.46-0.317,1.057-0.354,1.55-0.096c0.495,0.259,0.804,0.771,0.804,1.329v4.391h7.569
		c8.396,0,15.227,6.827,15.227,15.22v12.434C184.409,141.786,183.737,142.458,182.909,142.458z M123.571,139.458h57.837v-10.934
		c0-6.738-5.485-12.22-12.227-12.22h-9.069c-0.829,0-1.5-0.672-1.5-1.5v-3.238c-4.151,2.127-7.991,2.185-12.24-0.087v3.325
		c0,0.828-0.671,1.5-1.5,1.5h-9.074c-6.742,0-12.227,5.481-12.227,12.22V139.458z"/>
	<path fill="#D7E057" d="M182.909,140.959v-12.438c0-7.578-6.145-13.72-13.727-13.72h-2.17l0.057,0.041l-9.433,12.505l-4.868-3.666
		l-4.868,3.666l-9.433-12.505l0.056-0.041h-2.724c-7.582,0-13.727,6.142-13.727,13.72v12.438H182.909z"/>
	<path fill="#3A312A" d="M182.909,142.459h-60.837c-0.829,0-1.5-0.672-1.5-1.5V128.52c0-8.393,6.831-15.22,15.227-15.22h2.724
		c0.637,0,1.202,0.401,1.414,0.999l8.258,10.947l3.671-2.765c0.534-0.402,1.271-0.402,1.805,0l3.671,2.765l8.335-11.049
		c0.237-0.533,0.745-0.897,1.337-0.897h2.17c8.396,0,15.227,6.827,15.227,15.22v12.439
		C184.409,141.787,183.737,142.459,182.909,142.459z M123.571,139.459h57.837V128.52c0-6.738-5.485-12.22-12.227-12.22h-1.335
		l-9.014,11.949c-0.498,0.661-1.438,0.792-2.1,0.295l-3.966-2.986l-3.966,2.986c-0.66,0.497-1.601,0.366-2.1-0.295l-9.014-11.949
		h-1.889c-6.742,0-12.227,5.481-12.227,12.22V139.459z"/>
	<path fill-rule="evenodd" clip-rule="evenodd" fill="#FCE8CB" d="M134.32,80.795c0,2.981-2.418,5.398-5.401,5.398
		c-2.983,0-5.401-2.417-5.401-5.398c0-2.982,2.418-5.398,5.401-5.398C131.902,75.396,134.32,77.813,134.32,80.795z"/>
	<path fill="#3A312A" d="M128.919,87.693c-3.806,0-6.901-3.095-6.901-6.898c0-3.804,3.096-6.898,6.901-6.898
		c3.805,0,6.901,3.095,6.901,6.898C135.82,84.599,132.725,87.693,128.919,87.693z M128.919,76.896c-2.151,0-3.901,1.749-3.901,3.898
		s1.75,3.898,3.901,3.898c2.151,0,3.901-1.749,3.901-3.898S131.07,76.896,128.919,76.896z"/>
	<path fill-rule="evenodd" clip-rule="evenodd" fill="#FCE8CB" d="M181.464,80.795c0,2.981-2.418,5.398-5.401,5.398
		s-5.401-2.417-5.401-5.398c0-2.982,2.418-5.398,5.401-5.398S181.464,77.813,181.464,80.795z"/>
	<path fill="#3A312A" d="M176.063,87.693c-3.806,0-6.901-3.095-6.901-6.898c0-3.804,3.096-6.898,6.901-6.898
		s6.901,3.095,6.901,6.898C182.964,84.599,179.868,87.693,176.063,87.693z M176.063,76.896c-2.151,0-3.901,1.749-3.901,3.898
		s1.75,3.898,3.901,3.898s3.901-1.749,3.901-3.898S178.214,76.896,176.063,76.896z"/>
	<path fill="#FCE8CB" d="M176.435,78.174c0,13.217-12.736,33.505-23.944,33.505c-10.699,0-23.944-20.287-23.944-33.505
		s10.72-23.932,23.944-23.932C165.715,54.242,176.435,64.957,176.435,78.174z"/>
	<path fill="#3A312A" d="M152.491,113.179c-11.796,0-25.444-21.184-25.444-35.005c0-14.023,11.414-25.432,25.444-25.432
		c14.03,0,25.444,11.408,25.444,25.432C177.935,92.313,164.532,113.179,152.491,113.179z M152.491,55.742
		c-12.376,0-22.444,10.063-22.444,22.432c0,13.161,13.215,32.005,22.444,32.005c10.189,0,22.444-19.657,22.444-32.005
		C174.935,65.805,164.867,55.742,152.491,55.742z"/>
	<circle fill="#3A312A" cx="144.037" cy="77.904" r="2.336"/>
	<circle fill="#3A312A" cx="160.945" cy="77.904" r="2.336"/>
	<path fill="#F5978A" d="M143.392,84.848c0,1.661-1.803,3.008-4.026,3.008c-2.223,0-4.026-1.347-4.026-3.008
		c0-1.661,1.803-3.008,4.026-3.008C141.59,81.84,143.392,83.187,143.392,84.848z"/>
	<path fill="#F5978A" d="M169.641,84.848c0,1.661-1.802,3.008-4.026,3.008s-4.026-1.347-4.026-3.008
		c0-1.661,1.803-3.008,4.026-3.008S169.641,83.187,169.641,84.848z"/>
	<path fill="#87796F" d="M152.767,48.96c-13.687,0-24.783,10.603-24.783,23.682c0,1.384,0.25,2.416,0.716,3.704
		c0.219,0.607,3.768-1.333,4.07-1.545c1.511-1.063,2.746-2.505,3.669-4.098c0.382-0.662,0.7-1.337,0.956-2.011
		c0.817-2.151,3.037-8.137,5.29-7.668c3.022,0.63,6.448,0.986,10.081,0.986c3.634,0,7.059-0.356,10.081-0.986
		c2.254-0.47,4.473,5.516,5.29,7.668c0.256,0.674,0.574,1.348,0.956,2.011c1.525,2.636,4.1,5.145,7.232,5.602
		c0.008-0.151,0.199-0.203,0.342-0.254c1.025-0.372,0.882-2.587,0.882-3.409C177.55,59.563,166.454,48.96,152.767,48.96z"/>
	<path fill="#3A312A" d="M128.89,77.949c-0.191,0-0.367-0.022-0.525-0.072c-0.506-0.159-0.898-0.531-1.075-1.021
		c-0.483-1.336-0.805-2.564-0.805-4.214c0-13.886,11.791-25.183,26.283-25.183c14.493,0,26.283,11.297,26.283,25.183l0.003,0.255
		c0.019,1.305,0.054,3.693-1.682,4.485c-0.03,0.028-0.061,0.056-0.092,0.082c-0.327,0.269-0.752,0.39-1.168,0.325
		c-3.179-0.464-6.288-2.832-8.314-6.335c-0.417-0.724-0.773-1.473-1.06-2.23l-0.05-0.132c-2.2-5.806-3.331-6.519-3.625-6.599
		c-3.147,0.674-6.642,1.017-10.294,1.017c-3.652,0-7.146-0.343-10.388-1.018c-0.2,0.081-1.33,0.794-3.53,6.596l-0.051,0.136
		c-0.287,0.757-0.643,1.507-1.059,2.228c-1.08,1.864-2.499,3.446-4.105,4.576C133.604,76.05,130.649,77.949,128.89,77.949z
		 M177.825,76.387L177.825,76.387L177.825,76.387z M163.131,59.494c2.73,0,4.669,4.074,6.36,8.535l0.05,0.131
		c0.231,0.608,0.519,1.213,0.854,1.796c1.43,2.473,3.467,4.203,5.544,4.742c0.089-0.298,0.127-0.887,0.115-1.757l-0.003-0.299
		c0-12.232-10.445-22.183-23.283-22.183c-12.838,0-23.283,9.951-23.283,22.183c0,0.766,0.09,1.395,0.255,2.027
		c0.797-0.344,1.845-0.888,2.19-1.109c1.232-0.868,2.351-2.121,3.212-3.608c0.333-0.579,0.621-1.184,0.852-1.792l0.051-0.135
		c1.811-4.771,3.9-9.087,6.947-8.47c3.04,0.634,6.33,0.955,9.776,0.955c3.446,0,6.735-0.321,9.775-0.955
		C162.743,59.515,162.939,59.494,163.131,59.494z"/>
	
		<rect x="142.568" y="111.42" transform="matrix(0.7988 -0.6017 0.6017 0.7988 -42.442 111.6155)" fill="#87796F" width="6.12" height="15.664"/>
	<path fill="#3A312A" d="M147.9,128.847c-0.455,0-0.904-0.206-1.199-0.597l-9.431-12.507c-0.24-0.318-0.343-0.718-0.288-1.112
		c0.055-0.394,0.265-0.75,0.583-0.989l4.888-3.682c0.661-0.497,1.601-0.366,2.1,0.295l9.431,12.506
		c0.239,0.318,0.343,0.718,0.288,1.112c-0.055,0.394-0.265,0.75-0.583,0.989l-4.888,3.683
		C148.531,128.748,148.214,128.847,147.9,128.847z M140.569,115.135l7.624,10.111l2.492-1.877l-7.625-10.111L140.569,115.135z"/>
	
		<rect x="156.847" y="111.42" transform="matrix(-0.7987 -0.6017 0.6017 -0.7987 215.8817 310.7151)" fill="#87796F" width="6.12" height="15.664"/>
	<path fill="#3A312A" d="M157.635,128.847c-0.314,0-0.631-0.099-0.901-0.302l-4.888-3.683c-0.318-0.239-0.528-0.596-0.583-0.989
		c-0.055-0.395,0.048-0.794,0.288-1.112l9.43-12.506c0.499-0.661,1.439-0.792,2.1-0.295l4.888,3.682
		c0.318,0.239,0.528,0.596,0.583,0.989c0.056,0.395-0.048,0.794-0.288,1.112l-9.43,12.507
		C158.539,128.641,158.089,128.847,157.635,128.847z M154.849,123.369l2.492,1.877l7.624-10.111l-2.492-1.877L154.849,123.369z"/>
	<path fill="#3A312A" d="M133.19,142.459c-0.829,0-1.5-0.672-1.5-1.5v-9.827c0-0.828,0.671-1.5,1.5-1.5c0.829,0,1.5,0.672,1.5,1.5
		v9.827C134.69,141.787,134.019,142.459,133.19,142.459z"/>
	<path fill="#3A312A" d="M171.79,142.459c-0.829,0-1.5-0.672-1.5-1.5v-9.827c0-0.828,0.671-1.5,1.5-1.5s1.5,0.672,1.5,1.5v9.827
		C173.29,141.787,172.619,142.459,171.79,142.459z"/>
	<path fill="#3A312A" d="M152.49,99.086c-3.718,0-6.399-1.673-7.971-4.972c-0.356-0.747-0.038-1.643,0.71-1.999
		c0.748-0.352,1.643-0.038,1.999,0.71c1.059,2.225,2.732,3.261,5.262,3.261c2.96,0,4.738-1.879,5.212-3.143
		c0.29-0.776,1.158-1.17,1.931-0.878c0.776,0.29,1.169,1.155,0.878,1.931C159.593,96.447,156.691,99.086,152.49,99.086z"/>
	<path fill="#87796F" d="M152.49,37.508c-0.391,0-7.709,3.184-12.234,6.437c-3.843,2.762-6.563,5.428-6.563,8.183
		c0,6.793,8.416,12.299,18.797,12.299s18.797-5.507,18.797-12.299S152.722,37.508,152.49,37.508z"/>
	<path fill="#3A312A" d="M152.49,65.927c-11.192,0-20.297-6.191-20.297-13.799c0-3.73,3.633-6.846,7.188-9.401
		c4.255-3.06,12.046-6.719,13.109-6.719c0.91,0,20.297,8.104,20.297,16.12C172.787,59.736,163.682,65.927,152.49,65.927z
		 M152.46,39.093c-1.615,0.627-7.492,3.312-11.328,6.069c-2.549,1.833-5.939,4.55-5.939,6.966c0,5.954,7.76,10.799,17.297,10.799
		s17.297-4.845,17.297-10.799C169.787,47.324,155.891,40.452,152.46,39.093z"/>
	<path fill="#87796F" d="M176.393,79.669c-1.062,14.007-4.641,33.685-23.894,33.685c-18.805,0-22.908-19.865-23.911-33.886
		c4.415,10.367,14.981,21.122,23.911,21.122C161.794,100.59,172.058,89.973,176.393,79.669z"/>
	<path fill="#3A312A" d="M152.499,114.854c-15.184,0-23.732-11.869-25.407-35.278c-0.052-0.731,0.432-1.394,1.144-1.565
		c0.711-0.172,1.445,0.196,1.732,0.87c4.156,9.76,14.201,20.21,22.531,20.21c8.707,0,18.464-10.383,22.511-20.003
		c0.285-0.678,1.019-1.048,1.735-0.876c0.715,0.173,1.199,0.838,1.144,1.571C177.231,88.457,175.23,114.854,152.499,114.854z
		 M130.932,86.879c2.65,16.583,9.886,24.975,21.566,24.975c14.751,0,19.692-12.544,21.56-24.719
		c-5.383,8.125-13.662,14.955-21.56,14.955C144.784,102.09,136.374,95.038,130.932,86.879z"/>
	<path fill="#87796F" d="M158.008,88.823c-2.443,0-4.548,0.803-5.518,1.961c-0.969-1.158-3.075-1.961-5.517-1.961
		c-5.23,0-12.119,4.335-12.119,8.709c0,0.791,2.055-0.867,4.276-1.659c1.914-0.682,5.899-0.258,7.843-0.258
		c2.443,0,4.548-0.803,5.517-1.961c0.97,1.158,3.075,1.961,5.518,1.961c1.944,0,5.929-0.424,7.843,0.258
		c2.221,0.791,4.276,2.45,4.276,1.659C170.127,93.157,163.238,88.823,158.008,88.823z"/>
	<path fill="#3A312A" d="M169.953,99.245c-0.668,0-1.383-0.382-2.268-0.855c-0.678-0.362-1.523-0.813-2.338-1.104
		c-1.162-0.414-3.778-0.301-5.511-0.228c-0.697,0.03-1.328,0.057-1.829,0.057c-2.137,0-4.121-0.549-5.518-1.483
		c-1.397,0.935-3.381,1.483-5.518,1.483c-0.501,0-1.132-0.026-1.829-0.057c-1.731-0.073-4.349-0.187-5.511,0.228
		c-0.815,0.29-1.659,0.741-2.337,1.104c-1.274,0.682-2.194,1.172-3.134,0.609c-0.506-0.304-0.808-0.852-0.808-1.468
		c0-5.402,7.616-10.209,13.619-10.209c2.136,0,4.12,0.549,5.518,1.484c1.397-0.936,3.381-1.484,5.518-1.484
		c6.003,0,13.619,4.807,13.619,10.209c0,0.616-0.302,1.164-0.808,1.468C170.532,99.171,170.247,99.245,169.953,99.245z
		 M162.408,93.985c1.46,0,2.895,0.101,3.946,0.475c0.426,0.151,0.839,0.328,1.231,0.512c-1.895-2.454-6.038-4.649-9.577-4.649
		c-2.182,0-3.793,0.738-4.367,1.425c-0.189,0.226-0.438,0.389-0.714,0.473c0.276,0.083,0.525,0.246,0.714,0.472
		c0.574,0.686,2.185,1.424,4.367,1.424c0.465,0,1.052-0.025,1.7-0.054C160.558,94.025,161.488,93.985,162.408,93.985z
		 M146.973,90.322c-3.54,0-7.682,2.194-9.577,4.649c0.392-0.184,0.805-0.36,1.231-0.512c1.713-0.609,4.448-0.491,6.647-0.398
		c0.647,0.028,1.234,0.054,1.7,0.054c2.182,0,3.793-0.738,4.368-1.424c0.189-0.226,0.438-0.389,0.713-0.472
		c-0.276-0.084-0.524-0.247-0.713-0.473C150.766,91.061,149.154,90.322,146.973,90.322z"/>
</g>
</svg>
