<?xml version="1.0" encoding="utf-8"?>
<!-- Generator: Adobe Illustrator 24.0.0, SVG Export Plug-In . SVG Version: 6.00 Build 0)  -->
<svg version="1.1" id="Layer_1" xmlns="http://www.w3.org/2000/svg" xmlns:xlink="http://www.w3.org/1999/xlink" x="0px" y="0px"
	 viewBox="0 0 256 256" enable-background="new 0 0 256 256" xml:space="preserve">
<g>
	<path fill="#FCE8CB" d="M170.172,58.753c0,8.018-18.804,14.517-42,14.517c-23.196,0-42-6.5-42-14.517
		c0-10.097,8.596-15.569,37.5-24.983c12.282-4,16.163-17.04,22.23-17.04C151.035,16.73,170.172,40.161,170.172,58.753z"/>
	<path fill="#3A312A" d="M128.172,74.77c-24.799,0-43.5-6.886-43.5-16.017c0-11.933,11.36-17.559,38.536-26.409
		c6.318-2.058,10.396-6.803,13.673-10.616c2.997-3.487,5.584-6.498,9.021-6.498c6.719,0,25.77,25.171,25.77,43.523
		C171.672,67.884,152.971,74.77,128.172,74.77z M145.902,18.23c-2.06,0-4.231,2.527-6.746,5.454
		c-3.521,4.096-7.902,9.195-15.02,11.513c-31.2,10.161-36.464,15.479-36.464,23.557c0,7.671,21.344,13.017,40.5,13.017
		c19.156,0,40.5-5.346,40.5-13.017C168.672,40.501,149.915,18.23,145.902,18.23z"/>
	<path fill="#D6DF58" d="M47.739,26.407c0,0,3.408,12.659,13.222,13.246c0,0-13.1,4.525-13.321,14.202
		c0,0-2.579-13.572-12.925-14.059C34.714,39.796,46.765,37.971,47.739,26.407z"/>
	<path fill="#3A312A" d="M47.638,55.354c-0.712,0-1.335-0.506-1.472-1.217c-0.024-0.124-2.495-12.417-11.522-12.842
		c-0.771-0.037-1.388-0.651-1.428-1.421c-0.04-0.771,0.511-1.445,1.273-1.561c0.441-0.069,10.895-1.817,11.755-12.033
		c0.061-0.725,0.634-1.301,1.359-1.367c0.718-0.068,1.393,0.398,1.584,1.101c0.032,0.116,3.259,11.626,11.864,12.141
		c0.714,0.043,1.297,0.584,1.396,1.292c0.098,0.708-0.319,1.388-0.994,1.623c-0.121,0.042-12.118,4.311-12.313,12.819
		c-0.018,0.767-0.61,1.396-1.375,1.459C47.723,55.353,47.68,55.354,47.638,55.354z M39.897,39.625
		c3.878,1.969,6.23,5.746,7.587,8.877c2.027-4.021,5.942-6.787,8.949-8.427c-4.135-1.842-6.783-5.651-8.334-8.723
		C46.307,35.712,42.828,38.221,39.897,39.625z"/>
	<path fill="#D6DF58" d="M26.04,43.387c0,0,2.411,8.954,9.352,9.369c0,0-9.266,3.201-9.422,10.045c0,0-1.824-9.6-9.142-9.944
		C16.828,52.858,25.351,51.566,26.04,43.387z"/>
	<path fill="#3A312A" d="M25.969,64.302c-0.713,0-1.337-0.507-1.472-1.22c-0.016-0.082-1.704-8.442-7.739-8.726
		c-0.77-0.037-1.388-0.651-1.428-1.421c-0.04-0.771,0.511-1.445,1.273-1.561c0.296-0.047,7.364-1.243,7.942-8.114
		c0.061-0.726,0.635-1.303,1.36-1.368c0.726-0.067,1.392,0.399,1.582,1.101l0,0c0.021,0.079,2.227,7.92,7.994,8.265
		c0.714,0.043,1.299,0.584,1.396,1.293c0.098,0.709-0.32,1.388-0.996,1.622c-0.081,0.028-8.282,2.952-8.412,8.661
		c-0.018,0.767-0.611,1.397-1.376,1.461C26.052,64.3,26.01,64.302,25.969,64.302z M21.45,52.774c2.107,1.333,3.523,3.394,4.447,5.28
		c1.376-2.232,3.515-3.872,5.365-4.972c-2.287-1.27-3.884-3.35-4.941-5.224C25.147,50.145,23.306,51.733,21.45,52.774z"/>
	<path fill="#D6DF58" d="M26.04,16.73c0,0,2.411,8.954,9.352,9.37c0,0-9.266,3.201-9.422,10.045c0,0-1.824-9.6-9.142-9.944
		C16.828,26.2,25.351,24.909,26.04,16.73z"/>
	<path fill="#3A312A" d="M25.969,37.645c-0.713,0-1.337-0.507-1.472-1.22c-0.016-0.082-1.704-8.442-7.739-8.726
		c-0.77-0.037-1.387-0.651-1.427-1.421c-0.04-0.771,0.511-1.445,1.273-1.56c0.296-0.047,7.364-1.243,7.942-8.113
		c0.061-0.726,0.635-1.303,1.36-1.368c0.726-0.068,1.392,0.399,1.582,1.102l0,0c0.021,0.079,2.227,7.92,7.994,8.265
		c0.714,0.043,1.299,0.584,1.396,1.293c0.098,0.709-0.32,1.388-0.996,1.622c-0.081,0.028-8.282,2.952-8.412,8.662
		c-0.018,0.767-0.611,1.397-1.376,1.461C26.052,37.644,26.01,37.645,25.969,37.645z M21.45,26.117
		c2.107,1.332,3.523,3.394,4.447,5.28c1.376-2.232,3.515-3.872,5.365-4.972c-2.287-1.27-3.884-3.35-4.941-5.224
		C25.147,23.487,23.306,25.076,21.45,26.117z"/>
	<path fill="#8AC3DA" d="M17.172,177.955v46.723c0,8.059,6.533,14.592,14.592,14.592h192.815c8.059,0,14.593-6.533,14.593-14.592
		v-88.542c0-8.059-6.533-14.593-14.593-14.593H31.764c-8.059,0-14.592,6.533-14.592,14.593v26.95V177.955z"/>
	<path fill="#3A312A" d="M224.58,240.77H31.765c-8.873,0-16.093-7.219-16.093-16.092v-46.723c0-0.829,0.671-1.5,1.5-1.5
		s1.5,0.671,1.5,1.5v46.723c0,7.219,5.873,13.092,13.093,13.092H224.58c7.219,0,13.092-5.873,13.092-13.092v-88.542
		c0-7.219-5.873-13.092-13.092-13.092H31.765c-7.219,0-13.093,5.873-13.093,13.092v26.95c0,0.829-0.671,1.5-1.5,1.5
		s-1.5-0.671-1.5-1.5v-26.95c0-8.874,7.219-16.092,16.093-16.092H224.58c8.874,0,16.092,7.219,16.092,16.092v88.542
		C240.672,233.551,233.453,240.77,224.58,240.77z"/>
	<polygon fill="#87796F" points="155.775,99.27 32.266,99.27 32.266,121.543 224.766,121.543 224.766,99.27 170.07,99.27 	"/>
	<path fill="#3A312A" d="M224.766,123.043h-192.5c-0.829,0-1.5-0.671-1.5-1.5V99.27c0-0.829,0.671-1.5,1.5-1.5h123.509
		c0.829,0,1.5,0.671,1.5,1.5c0,0.829-0.671,1.5-1.5,1.5H33.766v19.273h189.5V100.77H170.07c-0.829,0-1.5-0.671-1.5-1.5
		c0-0.829,0.671-1.5,1.5-1.5h54.696c0.829,0,1.5,0.671,1.5,1.5v22.273C226.266,122.372,225.595,123.043,224.766,123.043z"/>
	<path fill="#FCE8CB" d="M170.07,99.27h39.602c0-13.255-10.745-24-24-24h-115c-13.255,0-24,10.745-24,24h109.103H170.07z"/>
	<path fill="#3A312A" d="M209.672,100.77H170.07c-0.829,0-1.5-0.671-1.5-1.5c0-0.829,0.671-1.5,1.5-1.5h38.053
		c-0.775-11.709-10.548-21-22.451-21h-115c-11.902,0-21.676,9.291-22.451,21h107.554c0.829,0,1.5,0.671,1.5,1.5
		c0,0.829-0.671,1.5-1.5,1.5H46.672c-0.829,0-1.5-0.671-1.5-1.5c0-14.06,11.439-25.5,25.5-25.5h115c14.061,0,25.5,11.44,25.5,25.5
		C211.172,100.099,210.5,100.77,209.672,100.77z"/>
	<path fill="#FCE8CB" d="M194.672,75.27L194.672,75.27h-133l0,0c0-13.255,10.745-24,24-24h85
		C183.927,51.27,194.672,62.015,194.672,75.27z"/>
	<path fill="#3A312A" d="M194.672,76.77h-133c-0.829,0-1.5-0.671-1.5-1.5c0-14.06,11.439-25.5,25.5-25.5h85
		c14.061,0,25.5,11.439,25.5,25.5C196.172,76.099,195.5,76.77,194.672,76.77z M63.221,73.77h129.901
		c-0.775-11.709-10.548-21-22.451-21h-85C73.769,52.77,63.996,62.061,63.221,73.77z"/>
	<circle fill="#D6DF58" cx="128.172" cy="180.77" r="44.5"/>
	<path fill="#3A312A" d="M128.172,226.77c-25.364,0-46-20.636-46-46c0-25.364,20.636-46,46-46c25.364,0,46,20.636,46,46
		C174.172,206.134,153.536,226.77,128.172,226.77z M128.172,137.77c-23.71,0-43,19.29-43,43c0,23.71,19.29,43,43,43
		c23.71,0,43-19.29,43-43C171.172,157.06,151.882,137.77,128.172,137.77z"/>
	<path fill="#87796F" d="M152.979,178.473c-0.403,0-0.799,0.029-1.187,0.08c1.039-1.478,1.652-3.278,1.652-5.222
		c0-5.021-4.07-9.09-9.09-9.09c-2.909,0-5.497,1.368-7.161,3.494c-0.55-4.495-4.377-7.977-9.02-7.977
		c-4.643,0-8.471,3.482-9.02,7.977c-1.664-2.126-4.252-3.494-7.161-3.494c-5.021,0-9.09,4.07-9.09,9.09
		c0,1.944,0.612,3.744,1.652,5.222c-0.389-0.051-0.785-0.08-1.187-0.08c-5.021,0-9.09,4.07-9.09,9.09c0,5.021,4.07,9.09,9.09,9.09
		c0.147,0,0.292-0.004,0.437-0.011c1.47,3.041,4.584,5.139,8.189,5.139c4.42,0,8.101-3.155,8.919-7.335
		c1.659,2.2,4.294,3.622,7.262,3.622c2.968,0,5.603-1.423,7.262-3.622c0.818,4.18,4.5,7.335,8.919,7.335
		c3.604,0,6.718-2.098,8.188-5.139c0.145,0.007,0.291,0.011,0.438,0.011c5.02,0,9.09-4.07,9.09-9.09
		C162.069,182.543,157.999,178.473,152.979,178.473z"/>
	<path fill="#3A312A" d="M144.353,203.282c-4.147,0-7.836-2.423-9.56-6.031c-1.855,1.494-4.166,2.318-6.622,2.318
		c-2.456,0-4.766-0.824-6.621-2.318c-1.724,3.608-5.412,6.031-9.56,6.031c-3.713,0-7.179-1.988-9.079-5.137
		c-5.63-0.238-10.138-4.893-10.138-10.581c0-5.402,4.066-9.873,9.299-10.512c-0.444-1.18-0.673-2.436-0.673-3.721
		c0-5.839,4.751-10.59,10.591-10.59c2.337,0,4.554,0.754,6.367,2.125c1.585-3.906,5.42-6.607,9.813-6.607
		c4.393,0,8.229,2.701,9.814,6.607c1.814-1.371,4.031-2.125,6.368-2.125c5.839,0,10.59,4.751,10.59,10.59
		c0,1.285-0.229,2.541-0.673,3.721c5.233,0.639,9.299,5.11,9.299,10.512c0,5.688-4.507,10.343-10.137,10.581
		C151.532,201.294,148.066,203.282,144.353,203.282z M135.434,192.947c0.112,0,0.225,0.013,0.337,0.038
		c0.577,0.133,1.022,0.593,1.135,1.174c0.694,3.548,3.827,6.123,7.447,6.123c2.894,0,5.578-1.684,6.838-4.291
		c0.262-0.542,0.817-0.878,1.421-0.846c0.122,0.006,0.244,0.01,0.367,0.01c4.186,0,7.59-3.405,7.59-7.59
		c0-4.186-3.405-7.59-7.59-7.59c-0.323,0-0.648,0.022-0.994,0.067c-0.591,0.079-1.17-0.202-1.478-0.711
		c-0.308-0.509-0.286-1.152,0.057-1.639c0.902-1.283,1.379-2.79,1.379-4.359c0-4.186-3.405-7.59-7.59-7.59
		c-2.349,0-4.528,1.064-5.98,2.919c-0.374,0.478-0.999,0.682-1.583,0.521c-0.584-0.163-1.014-0.661-1.087-1.263
		c-0.464-3.796-3.702-6.659-7.531-6.659c-3.829,0-7.067,2.863-7.531,6.659c-0.074,0.602-0.502,1.101-1.087,1.263
		c-0.585,0.161-1.209-0.043-1.583-0.521c-1.451-1.855-3.63-2.919-5.979-2.919c-4.185,0-7.591,3.405-7.591,7.59
		c0,1.569,0.477,3.077,1.379,4.359c0.342,0.487,0.364,1.13,0.057,1.639c-0.308,0.509-0.889,0.79-1.478,0.711
		c-0.34-0.044-0.674-0.067-0.993-0.067c-4.185,0-7.591,3.405-7.591,7.59c0,4.186,3.405,7.59,7.591,7.59
		c0.123,0,0.245-0.004,0.367-0.01c0.592-0.031,1.159,0.304,1.421,0.846c1.26,2.607,3.944,4.291,6.838,4.291
		c3.621,0,6.753-2.575,7.447-6.123c0.114-0.581,0.559-1.041,1.135-1.174c0.577-0.13,1.178,0.086,1.535,0.559
		c1.45,1.923,3.66,3.026,6.064,3.026c2.404,0,4.614-1.103,6.064-3.026C134.523,193.163,134.969,192.947,135.434,192.947z"/>
	<path fill="#6CA8BF" d="M224.582,123.04h-15c7.22,0,13.09,5.88,13.09,13.1v88.54c0,7.22-5.87,13.09-13.09,13.09h15
		c7.22,0,13.09-5.87,13.09-13.09v-88.54C237.672,128.92,231.802,123.04,224.582,123.04z"/>
</g>
</svg>
