<?xml version="1.0" encoding="utf-8"?>
<!-- Generator: Adobe Illustrator 24.0.0, SVG Export Plug-In . SVG Version: 6.00 Build 0)  -->
<svg version="1.1" id="Layer_1" xmlns="http://www.w3.org/2000/svg" xmlns:xlink="http://www.w3.org/1999/xlink" x="0px" y="0px"
	 viewBox="0 0 256 256" enable-background="new 0 0 256 256" xml:space="preserve">
<g>
	<path fill="#D7E057" d="M144.293,157.076c0,0,3.408,12.659,13.222,13.246c0,0-13.1,4.525-13.321,14.202
		c0,0-2.579-13.572-12.925-14.059C131.269,170.465,143.32,168.64,144.293,157.076z"/>
	<path fill="#3A312A" d="M144.193,186.023c-0.713,0-1.335-0.506-1.473-1.217c-0.023-0.124-2.494-12.417-11.523-12.842
		c-0.77-0.037-1.388-0.651-1.428-1.421c-0.04-0.77,0.511-1.445,1.273-1.561c0.441-0.069,10.895-1.817,11.754-12.032
		c0.062-0.725,0.635-1.301,1.359-1.367c0.733-0.07,1.393,0.399,1.584,1.101c0.031,0.116,3.26,11.626,11.864,12.14
		c0.714,0.043,1.297,0.584,1.396,1.292c0.098,0.708-0.318,1.388-0.994,1.622c-0.121,0.042-12.119,4.311-12.313,12.819
		c-0.018,0.767-0.61,1.396-1.375,1.46C144.277,186.022,144.235,186.023,144.193,186.023z M136.451,170.294
		c3.879,1.969,6.231,5.746,7.588,8.876c2.026-4.021,5.941-6.787,8.949-8.427c-4.135-1.842-6.783-5.651-8.335-8.722
		C142.86,166.381,139.383,168.89,136.451,170.294z"/>
	<path fill="#D7E057" d="M122.595,174.057c0,0,2.411,8.954,9.352,9.369c0,0-9.266,3.201-9.422,10.045c0,0-1.824-9.6-9.142-9.944
		C113.382,183.527,121.906,182.236,122.595,174.057z"/>
	<path fill="#3A312A" d="M122.523,194.971c-0.714,0-1.337-0.507-1.473-1.22c-0.016-0.082-1.704-8.442-7.739-8.726
		c-0.771-0.037-1.388-0.651-1.428-1.421c-0.04-0.771,0.511-1.445,1.273-1.561c0.296-0.047,7.364-1.243,7.942-8.113
		c0.062-0.726,0.636-1.303,1.361-1.368c0.722-0.064,1.392,0.399,1.581,1.102l0,0c0.022,0.079,2.229,7.919,7.994,8.264
		c0.714,0.043,1.299,0.584,1.396,1.293c0.097,0.709-0.32,1.388-0.996,1.622c-0.081,0.028-8.282,2.953-8.412,8.662
		c-0.018,0.767-0.611,1.397-1.376,1.461C122.606,194.97,122.564,194.971,122.523,194.971z M118.004,183.444
		c2.107,1.333,3.523,3.394,4.447,5.28c1.376-2.232,3.516-3.872,5.365-4.973c-2.287-1.269-3.884-3.35-4.941-5.224
		C121.702,180.814,119.86,182.402,118.004,183.444z"/>
	<path fill="#D7E057" d="M122.595,147.399c0,0,2.411,8.954,9.352,9.37c0,0-9.266,3.201-9.422,10.045c0,0-1.824-9.6-9.142-9.944
		C113.382,156.87,121.906,155.578,122.595,147.399z"/>
	<path fill="#3A312A" d="M122.523,168.314c-0.714,0-1.337-0.507-1.473-1.22c-0.016-0.081-1.704-8.442-7.739-8.726
		c-0.771-0.037-1.388-0.651-1.428-1.421c-0.04-0.77,0.511-1.445,1.273-1.561c0.296-0.047,7.364-1.243,7.942-8.114
		c0.062-0.726,0.636-1.303,1.361-1.368c0.722-0.063,1.392,0.399,1.581,1.102l0,0c0.022,0.079,2.229,7.92,7.994,8.265
		c0.714,0.043,1.299,0.585,1.396,1.294c0.097,0.709-0.32,1.388-0.996,1.622c-0.081,0.028-8.282,2.952-8.412,8.662
		c-0.018,0.767-0.611,1.398-1.376,1.461C122.606,168.313,122.564,168.314,122.523,168.314z M118.004,156.786
		c2.107,1.333,3.523,3.395,4.447,5.28c1.376-2.232,3.516-3.872,5.365-4.973c-2.287-1.269-3.884-3.35-4.941-5.223
		C121.702,154.156,119.86,155.745,118.004,156.786z"/>
	<path fill="#87796F" d="M209.737,78.224c-1.327,0-2.631,0.095-3.912,0.263c3.425-4.87,5.442-10.8,5.442-17.206
		c0-16.542-13.41-29.952-29.952-29.952c-9.585,0-18.113,4.508-23.595,11.514c-1.811-14.81-14.421-26.282-29.72-26.282
		s-27.91,11.473-29.72,26.282c-5.482-7.005-14.009-11.514-23.595-11.514c-16.542,0-29.952,13.41-29.952,29.952
		c0,6.406,2.017,12.336,5.442,17.206c-1.281-0.167-2.585-0.263-3.912-0.263c-16.542,0-29.952,13.41-29.952,29.952
		s13.41,29.952,29.952,29.952c0.484,0,0.964-0.014,1.442-0.037c4.844,10.02,15.105,16.932,26.98,16.932
		c14.562,0,26.692-10.395,29.388-24.168c5.466,7.249,14.148,11.936,23.926,11.936s18.46-4.688,23.926-11.936
		c2.696,13.773,14.826,24.168,29.388,24.168c11.876,0,22.136-6.912,26.98-16.932c0.478,0.023,0.958,0.037,1.442,0.037
		c16.542,0,29.952-13.41,29.952-29.952S226.278,78.224,209.737,78.224z"/>
	<path fill="#3A312A" d="M181.314,156.523c-13.979,0-26.2-9.267-30.132-22.426c-5.949,6.514-14.242,10.194-23.183,10.194
		s-17.233-3.68-23.183-10.194c-3.932,13.159-16.153,22.426-30.132,22.426c-11.66,0-22.499-6.602-27.889-16.9
		c-0.178,0.003-0.356,0.005-0.533,0.005c-17.343,0-31.452-14.109-31.452-31.452s14.109-31.452,31.452-31.452
		c0.342,0,0.687,0.006,1.034,0.019c-2.667-4.706-4.065-9.993-4.065-15.462c0-17.342,14.109-31.452,31.452-31.452
		c8.65,0,16.746,3.481,22.661,9.649c3.221-14.126,15.874-24.418,30.653-24.418s27.433,10.292,30.653,24.418
		c5.915-6.168,14.011-9.649,22.661-9.649c17.343,0,31.452,14.109,31.452,31.452c0,5.469-1.398,10.756-4.064,15.462
		c0.348-0.012,0.692-0.019,1.034-0.019c17.343,0,31.452,14.109,31.452,31.452s-14.109,31.452-31.452,31.452
		c-0.178,0-0.355-0.002-0.533-0.005C203.814,149.92,192.975,156.523,181.314,156.523z M151.927,129.355
		c0.112,0,0.225,0.013,0.337,0.038c0.577,0.133,1.021,0.593,1.135,1.174c2.604,13.301,14.344,22.956,27.916,22.956
		c10.846,0,20.905-6.314,25.63-16.085c0.262-0.54,0.792-0.886,1.423-0.845c0.453,0.021,0.91,0.035,1.369,0.035
		c15.689,0,28.452-12.763,28.452-28.452s-12.764-28.452-28.452-28.452c-1.197,0-2.448,0.084-3.718,0.25
		c-0.591,0.08-1.17-0.203-1.478-0.711c-0.309-0.509-0.286-1.152,0.057-1.639c3.382-4.809,5.169-10.46,5.169-16.343
		c0-15.688-12.764-28.452-28.452-28.452c-8.804,0-16.974,3.987-22.413,10.938c-0.374,0.478-0.998,0.682-1.583,0.521
		c-0.585-0.163-1.014-0.661-1.088-1.263c-1.739-14.232-13.876-24.964-28.23-24.964s-26.491,10.732-28.23,24.964
		c-0.074,0.602-0.503,1.101-1.088,1.263c-0.582,0.161-1.209-0.043-1.583-0.521c-5.439-6.951-13.609-10.938-22.413-10.938
		c-15.688,0-28.452,12.763-28.452,28.452c0,5.883,1.787,11.535,5.169,16.343c0.343,0.487,0.365,1.13,0.057,1.639
		c-0.307,0.508-0.883,0.79-1.478,0.711c-1.27-0.166-2.521-0.25-3.718-0.25c-15.688,0-28.452,12.763-28.452,28.452
		s12.764,28.452,28.452,28.452c0.459,0,0.916-0.013,1.369-0.035c0.616-0.041,1.162,0.304,1.423,0.845
		c4.725,9.771,14.784,16.085,25.63,16.085c13.572,0,25.313-9.654,27.916-22.956c0.113-0.581,0.558-1.041,1.135-1.174
		c0.58-0.132,1.178,0.086,1.534,0.559c5.436,7.206,13.72,11.339,22.729,11.339s17.294-4.133,22.73-11.339
		C151.017,129.571,151.463,129.355,151.927,129.355z"/>
	<path fill="#87796F" d="M58.994,231.503c11.227,4.968,23.244,7.937,34.124,7.937c15.442,0,28.752-5.077,34.882-12.4
		c6.129,7.323,19.439,12.4,34.882,12.4c33.064,0,76.618-27.405,76.618-55.059c0-5.001-12.992,5.483-27.033,10.485
		c-12.1,4.31-37.294,1.631-49.585,1.631c-15.442,0-28.752,5.077-34.882,12.4c-6.129-7.323-19.439-12.4-34.882-12.4
		c-12.29,0-37.485,2.679-49.585-1.631C29.492,189.864,16.5,179.379,16.5,184.38c0,14.999,12.815,29.923,29.818,40.443
		L58.994,231.503z"/>
	<path fill="#3A312A" d="M162.882,240.939c-14.702,0-27.849-4.434-34.882-11.664c-7.033,7.23-20.18,11.664-34.882,11.664
		c-10.644,0-22.979-2.864-34.732-8.065c-0.757-0.335-1.1-1.221-0.765-1.979c0.336-0.757,1.217-1.101,1.979-0.765
		c11.379,5.035,23.282,7.808,33.517,7.808c14.46,0,27.7-4.656,33.731-11.863c0.57-0.681,1.73-0.681,2.301,0
		c6.031,7.207,19.271,11.863,33.731,11.863c15.803,0,34.441-6.316,49.859-16.896c15.972-10.961,25.166-24.246,25.258-36.479
		c-1.467,0.174-5.48,2.32-8.76,4.073c-4.608,2.464-10.345,5.53-16.27,7.641c-9.367,3.336-25.799,2.63-39,2.064
		c-4.148-0.178-8.066-0.347-11.088-0.347c-14.46,0-27.701,4.656-33.731,11.862c-0.57,0.681-1.731,0.681-2.301,0
		c-6.03-7.206-19.271-11.862-33.731-11.862c-3.021,0-6.939,0.169-11.088,0.347c-13.202,0.566-29.633,1.272-39-2.064
		c-5.925-2.11-11.661-5.177-16.27-7.641c-3.279-1.753-7.293-3.898-8.76-4.073c0.101,13.2,10.965,27.759,29.106,38.983
		c0.705,0.436,0.923,1.36,0.486,2.064c-0.436,0.706-1.36,0.923-2.064,0.486C26.413,214.271,15,198.676,15,184.38
		c0-1.475,0.771-2.157,1.23-2.432c1.982-1.187,5.094,0.382,11.944,4.044c4.521,2.417,10.148,5.425,15.861,7.46
		c8.819,3.141,24.926,2.45,37.865,1.893c4.182-0.18,8.131-0.349,11.217-0.349c14.702,0,27.849,4.434,34.882,11.664
		c7.033-7.23,20.18-11.664,34.882-11.664c3.086,0,7.035,0.169,11.217,0.349c12.94,0.556,29.047,1.248,37.865-1.893
		c5.713-2.035,11.34-5.043,15.861-7.46c6.85-3.662,9.963-5.233,11.944-4.044c0.459,0.275,1.23,0.958,1.23,2.432
		C241,212.977,196.269,240.939,162.882,240.939z M237.989,184.242L237.989,184.242L237.989,184.242z M18.011,184.242L18.011,184.242
		L18.011,184.242z"/>
	<path fill="#695B51" d="M238.19,108.179c0,15.68-12.77,28.45-28.45,28.45c-0.46,0-0.92-0.02-1.37-0.04
		c-0.63-0.04-1.16,0.31-1.43,0.85c-4.72,9.77-14.78,16.08-25.63,16.08c-2.6,0-5.12-0.35-7.53-1.02c7.82-2.14,14.55-7.59,18.16-15.06
		c0.27-0.54,0.8-0.89,1.43-0.85c0.45,0.02,0.91,0.04,1.37,0.04c15.68,0,28.45-12.77,28.45-28.45c0-15.69-12.77-28.46-28.45-28.46
		c-1.2,0-2.45,0.09-3.72,0.25c-0.59,0.09-1.17-0.2-1.48-0.71c-0.31-0.51-0.29-1.15,0.06-1.64c3.38-4.8,5.17-10.46,5.17-16.34
		c0-13.1-8.91-24.16-20.98-27.45c2.42-0.66,4.94-1,7.52-1c15.69,0,28.46,12.76,28.46,28.45c0,5.88-1.79,11.54-5.17,16.34
		c-0.35,0.49-0.37,1.13-0.06,1.64c0.31,0.51,0.89,0.8,1.48,0.71c1.27-0.16,2.52-0.25,3.72-0.25
		C225.42,79.719,238.19,92.489,238.19,108.179z"/>
	<path fill="#695B51" d="M238,184.559c-0.09,12.24-9.29,25.52-25.26,36.48c-15.42,10.58-34.06,16.9-49.86,16.9
		c-2.57,0-5.11-0.15-7.57-0.43c14-1.6,29.37-7.51,42.43-16.47c12.55-8.61,20.92-18.66,23.97-28.5c2.71-1.33,5.26-2.69,7.53-3.9
		C232.52,186.889,236.53,184.739,238,184.559z"/>
</g>
</svg>
