<?xml version="1.0" encoding="utf-8"?>
<!-- Generator: Adobe Illustrator 24.0.0, SVG Export Plug-In . SVG Version: 6.00 Build 0)  -->
<svg version="1.1" id="Layer_1" xmlns="http://www.w3.org/2000/svg" xmlns:xlink="http://www.w3.org/1999/xlink" x="0px" y="0px"
	 viewBox="0 0 256 256" enable-background="new 0 0 256 256" xml:space="preserve">
<g>
	<path fill="#D7E057" d="M75.383,26.157c0,0,3.408,12.659,13.222,13.246c0,0-13.1,4.525-13.321,14.202
		c0,0-2.578-13.572-12.925-14.059C62.359,39.546,74.41,37.721,75.383,26.157z"/>
	<path fill="#3A312A" d="M75.283,55.104c-0.713,0-1.335-0.506-1.473-1.217c-0.023-0.124-2.494-12.417-11.521-12.842
		c-0.771-0.037-1.388-0.651-1.428-1.421c-0.04-0.771,0.511-1.445,1.273-1.561c0.441-0.069,10.894-1.817,11.754-12.033
		c0.062-0.725,0.635-1.301,1.359-1.367c0.737-0.061,1.394,0.399,1.584,1.101c0.031,0.116,3.259,11.626,11.863,12.141
		c0.714,0.043,1.298,0.584,1.396,1.292c0.098,0.708-0.318,1.388-0.994,1.623c-0.121,0.042-12.119,4.311-12.313,12.819
		c-0.018,0.767-0.61,1.396-1.375,1.459C75.367,55.103,75.325,55.104,75.283,55.104z M67.543,39.375
		c3.878,1.969,6.229,5.746,7.586,8.876c2.026-4.021,5.941-6.787,8.949-8.427c-4.134-1.842-6.783-5.651-8.334-8.722
		C73.951,35.462,70.474,37.97,67.543,39.375z"/>
	<path fill="#D7E057" d="M53.685,43.137c0,0,2.411,8.954,9.352,9.369c0,0-9.266,3.201-9.422,10.045c0,0-1.824-9.6-9.142-9.944
		C44.472,52.608,52.996,51.316,53.685,43.137z"/>
	<path fill="#3A312A" d="M53.613,64.052c-0.714,0-1.337-0.507-1.473-1.22c-0.016-0.082-1.703-8.441-7.738-8.725
		c-0.771-0.037-1.388-0.651-1.428-1.421c-0.04-0.771,0.511-1.445,1.273-1.561c0.296-0.047,7.363-1.243,7.941-8.114
		c0.062-0.726,0.636-1.303,1.361-1.368c0.727-0.063,1.392,0.399,1.581,1.101l0,0c0.022,0.079,2.229,7.92,7.995,8.265
		c0.714,0.043,1.299,0.584,1.396,1.293c0.097,0.709-0.32,1.388-0.997,1.622c-0.08,0.028-8.282,2.952-8.412,8.661
		c-0.018,0.767-0.611,1.397-1.377,1.461C53.696,64.05,53.654,64.052,53.613,64.052z M49.095,52.524
		c2.107,1.333,3.523,3.394,4.447,5.279c1.376-2.231,3.515-3.872,5.364-4.972c-2.286-1.269-3.884-3.35-4.941-5.223
		C52.792,49.895,50.95,51.483,49.095,52.524z"/>
	<path fill="#D7E057" d="M53.685,16.48c0,0,2.411,8.954,9.352,9.37c0,0-9.266,3.201-9.422,10.045c0,0-1.824-9.6-9.142-9.944
		C44.472,25.95,52.996,24.659,53.685,16.48z"/>
	<path fill="#3A312A" d="M53.613,37.395c-0.714,0-1.337-0.507-1.473-1.22c-0.016-0.082-1.703-8.442-7.738-8.726
		c-0.771-0.037-1.388-0.651-1.428-1.421c-0.04-0.771,0.511-1.445,1.273-1.56c0.296-0.047,7.363-1.243,7.941-8.113
		c0.062-0.726,0.636-1.303,1.361-1.368c0.727-0.062,1.392,0.399,1.581,1.102l0,0c0.022,0.079,2.229,7.92,7.995,8.265
		c0.714,0.043,1.299,0.584,1.396,1.293c0.097,0.709-0.32,1.388-0.997,1.622c-0.08,0.028-8.282,2.952-8.412,8.662
		c-0.018,0.767-0.611,1.397-1.377,1.461C53.696,37.394,53.654,37.395,53.613,37.395z M49.095,25.867
		c2.107,1.332,3.523,3.394,4.447,5.28c1.376-2.232,3.515-3.872,5.364-4.972c-2.286-1.27-3.884-3.35-4.941-5.224
		C52.792,23.237,50.95,24.826,49.095,25.867z"/>
	<path fill="#EF6D7A" d="M100.653,160.111v19.96c0,9.085,7.365,16.45,16.45,16.45h77.975c9.085,0,16.45-7.365,16.45-16.45V32.97
		c0-9.085-7.365-16.45-16.45-16.45h-77.975c-9.085,0-16.45,7.365-16.45,16.45v112.293V160.111z"/>
	<path fill="#3A312A" d="M195.077,198.02h-77.975c-9.897,0-17.95-8.052-17.95-17.95V160.11c0-0.829,0.672-1.5,1.5-1.5
		c0.828,0,1.5,0.671,1.5,1.5v19.959c0,8.244,6.707,14.95,14.95,14.95h77.975c8.243,0,14.95-6.706,14.95-14.95V32.97
		c0-8.244-6.707-14.95-14.95-14.95h-77.975c-8.243,0-14.95,6.707-14.95,14.95v112.293c0,0.829-0.672,1.5-1.5,1.5
		c-0.828,0-1.5-0.671-1.5-1.5V32.97c0-9.898,8.053-17.95,17.95-17.95h77.975c9.897,0,17.95,8.052,17.95,17.95v147.1
		C213.027,189.968,204.975,198.02,195.077,198.02z"/>
	<path fill="#87796F" d="M187.34,196.52h-62.5v27.044c0,8.812,7.144,15.956,15.956,15.956h30.589
		c8.812,0,15.956-7.144,15.956-15.956V196.52z"/>
	<path fill="#3A312A" d="M171.385,241.02h-30.589c-9.625,0-17.456-7.831-17.456-17.456V196.52c0-0.829,0.672-1.5,1.5-1.5h62.5
		c0.828,0,1.5,0.671,1.5,1.5v27.044C188.84,233.189,181.01,241.02,171.385,241.02z M126.34,198.02v25.544
		c0,7.971,6.485,14.456,14.456,14.456h30.589c7.971,0,14.455-6.485,14.455-14.456V198.02H126.34z"/>
	<path fill="#EF6D7A" d="M124.84,223.52v0.044c0,8.812,7.144,15.956,15.956,15.956h30.589c8.812,0,15.956-7.144,15.956-15.956
		v-0.044H124.84z"/>
	<path fill="#3A312A" d="M171.385,241.02h-30.589c-9.625,0-17.456-7.831-17.456-17.456c0-0.829,0.672-1.544,1.5-1.544h62.5
		c0.828,0,1.5,0.671,1.5,1.5C188.84,233.189,181.01,241.02,171.385,241.02z M126.412,225.02c0.732,7.29,6.904,13,14.384,13h30.589
		c7.48,0,13.65-5.71,14.383-13H126.412z"/>
	<path fill="#87796F" d="M166.257,223.52v-5.333c0-5.615-4.552-10.167-10.167-10.167l0,0c-5.615,0-10.167,4.552-10.167,10.167v5.333
		H166.257z"/>
	<path fill="#3A312A" d="M166.257,225.02h-20.333c-0.828,0-1.5-0.671-1.5-1.5v-5.333c0-6.433,5.233-11.667,11.666-11.667
		c6.434,0,11.667,5.234,11.667,11.667v5.333C167.757,224.349,167.085,225.02,166.257,225.02z M147.424,222.02h17.333v-3.833
		c0-4.779-3.888-8.667-8.667-8.667c-4.778,0-8.666,3.888-8.666,8.667V222.02z"/>
	<path fill="#D04E5D" d="M195.08,18.02h-15c8.24,0,14.95,6.71,14.95,14.95v147.1c0,8.24-6.71,14.95-14.95,14.95h15
		c8.24,0,14.95-6.71,14.95-14.95V32.97C210.03,24.73,203.32,18.02,195.08,18.02z"/>
	<path fill="#D7E057" d="M159.928,55.38H133.62c-5.12,0-9.28,4.16-9.28,9.28v83.72c0,5.12,4.16,9.28,9.28,9.28h44.44
		c5.12,0,9.28-4.16,9.28-9.28V64.66c0-5.12-4.16-9.28-9.28-9.28h-4.488H159.928z"/>
	<path fill="#3A312A" d="M178.061,159.16h-44.44c-5.944,0-10.78-4.836-10.78-10.78V64.66c0-5.944,4.836-10.78,10.78-10.78h26.309
		c0.828,0,1.5,0.671,1.5,1.5c0,0.829-0.672,1.5-1.5,1.5H133.62c-4.29,0-7.78,3.49-7.78,7.78v83.72c0,4.29,3.49,7.78,7.78,7.78h44.44
		c4.289,0,7.779-3.49,7.779-7.78V64.66c0-4.29-3.49-7.78-7.779-7.78h-4.488c-0.828,0-1.5-0.671-1.5-1.5c0-0.829,0.672-1.5,1.5-1.5
		h4.488c5.943,0,10.779,4.836,10.779,10.78v83.72C188.84,154.324,184.004,159.16,178.061,159.16z"/>
	<path fill="#8AC3DA" d="M187.34,123.13v25.25c0,5.12-4.16,9.28-9.28,9.28h-44.44c-5.12,0-9.28-4.16-9.28-9.28v-25.23
		c2.37,2.68,6.6,2.62,8.89-0.17v-0.01c2.33-2.85,6.7-2.85,9.04,0v0.01c0.42,0.51,0.89,0.92,1.41,1.24c-0.59,2.2-0.99,4.15-0.99,5.88
		c0,7.81,6.34,14.14,14.15,14.14c7.82,0,14.14-6.33,14.14-14.14c0-2.63-0.14-5.37-0.41-8.2c1-0.72,2.17-1.06,3.35-1.06
		c1.67,0,3.35,0.71,4.52,2.13c1.17,1.44,2.84,2.15,4.52,2.15C184.58,125.12,186.19,124.46,187.34,123.13z"/>
	<path fill="#3A312A" d="M178.061,159.16h-44.44c-5.944,0-10.78-4.836-10.78-10.78v-25.23c0-0.624,0.386-1.182,0.969-1.403
		c0.579-0.22,1.24-0.059,1.655,0.409c0.842,0.952,2.086,1.489,3.329,1.46c1.237-0.022,2.4-0.569,3.207-1.504
		c0.021-0.031,0.045-0.062,0.069-0.091c1.395-1.706,3.461-2.686,5.669-2.689c0.003,0,0.006,0,0.008,0
		c2.211,0,4.281,0.979,5.684,2.686c0.025,0.031,0.05,0.063,0.072,0.096c0.291,0.337,0.607,0.609,0.965,0.83
		c0.564,0.348,0.833,1.025,0.662,1.666c-0.649,2.419-0.939,4.113-0.939,5.491c0,6.97,5.675,12.64,12.649,12.64
		c6.97,0,12.641-5.67,12.641-12.64c0-2.536-0.136-5.248-0.403-8.058c-0.051-0.53,0.185-1.048,0.616-1.359
		c1.22-0.878,2.682-1.343,4.227-1.343c2.208,0,4.277,0.976,5.679,2.677c0.83,1.022,2.053,1.604,3.361,1.604
		c1.272,0,2.425-0.522,3.245-1.471c0.41-0.474,1.073-0.641,1.658-0.425c0.587,0.219,0.977,0.779,0.977,1.406v25.25
		C188.84,154.324,184.004,159.16,178.061,159.16z M125.84,126.034v22.346c0,4.29,3.49,7.78,7.78,7.78h44.44
		c4.289,0,7.779-3.49,7.779-7.78v-22.347c-0.897,0.383-1.876,0.587-2.88,0.587c-2.216,0-4.287-0.985-5.684-2.704
		c-0.823-0.999-2.049-1.577-3.356-1.577c-0.627,0-1.227,0.127-1.771,0.372c0.22,2.565,0.331,5.047,0.331,7.389
		c0,8.624-7.017,15.64-15.641,15.64c-8.629,0-15.649-7.016-15.649-15.64c0-1.463,0.237-3.079,0.784-5.279
		c-0.308-0.268-0.596-0.564-0.862-0.888c-0.025-0.031-0.05-0.063-0.073-0.097c-0.828-0.958-2.021-1.504-3.293-1.504
		c-0.001,0-0.003,0-0.005,0c-1.268,0.002-2.457,0.548-3.279,1.503c-0.022,0.033-0.047,0.065-0.072,0.096
		c-1.367,1.666-3.388,2.645-5.542,2.684C127.8,126.63,126.777,126.432,125.84,126.034z"/>
	<path fill="#FCE8CB" d="M147.7,109.96c-1.3,5.72-2.98,10.4-4.02,14.26c-0.52-0.32-0.99-0.73-1.41-1.24v-0.01
		c-2.34-2.85-6.71-2.85-9.04,0v0.01c-2.29,2.79-6.52,2.85-8.89,0.17v-13.19H147.7z"/>
	<path fill="#3A312A" d="M128.712,126.617c-2.105,0-4.102-0.896-5.496-2.474c-0.242-0.274-0.376-0.628-0.376-0.994v-13.19
		c0-0.829,0.672-1.5,1.5-1.5h23.36c0.456,0,0.888,0.208,1.172,0.564c0.285,0.357,0.392,0.824,0.291,1.269
		c-0.847,3.724-1.848,7-2.732,9.891c-0.482,1.578-0.938,3.068-1.304,4.427c-0.123,0.458-0.455,0.83-0.895,1.004
		c-0.439,0.173-0.939,0.13-1.34-0.118c-0.664-0.41-1.264-0.936-1.78-1.564c-0.025-0.031-0.05-0.063-0.073-0.097
		c-0.828-0.958-2.021-1.504-3.293-1.504c-0.001,0-0.003,0-0.005,0c-1.268,0.002-2.457,0.548-3.279,1.503
		c-0.022,0.033-0.047,0.065-0.072,0.096c-1.367,1.666-3.388,2.645-5.542,2.684C128.803,126.617,128.757,126.617,128.712,126.617z
		 M125.84,122.533c0.809,0.714,1.864,1.107,2.953,1.084c1.237-0.022,2.4-0.569,3.207-1.503c0.021-0.032,0.045-0.063,0.069-0.092
		c1.395-1.706,3.461-2.686,5.669-2.689c0.003,0,0.006,0,0.008,0c1.953,0,3.796,0.764,5.166,2.118c0.208-0.695,0.427-1.41,0.65-2.145
		c0.72-2.352,1.518-4.964,2.237-7.846h-19.96V122.533z"/>
	<path fill="#FCE8CB" d="M187.34,109.96v13.17c-1.15,1.33-2.76,1.99-4.38,1.99c-1.68,0-3.35-0.71-4.52-2.15
		c-1.17-1.42-2.85-2.13-4.52-2.13c-1.18,0-2.35,0.34-3.35,1.06c-0.37-3.84-0.97-7.85-1.73-11.94H187.34z"/>
	<path fill="#3A312A" d="M182.96,126.62c-2.216,0-4.287-0.985-5.684-2.704c-0.823-0.999-2.049-1.577-3.356-1.577
		c-0.912,0-1.767,0.269-2.473,0.777c-0.436,0.314-1.005,0.372-1.496,0.149c-0.489-0.221-0.822-0.688-0.874-1.222
		c-0.346-3.588-0.922-7.561-1.712-11.81c-0.082-0.438,0.036-0.89,0.321-1.233c0.285-0.343,0.707-0.541,1.153-0.541h18.5
		c0.828,0,1.5,0.671,1.5,1.5v13.17c0,0.36-0.13,0.709-0.365,0.981C187.097,125.706,185.087,126.62,182.96,126.62z M173.92,119.34
		c2.208,0,4.277,0.976,5.679,2.677c0.83,1.022,2.053,1.604,3.361,1.604c1.094,0,2.099-0.386,2.88-1.096V111.46h-15.205
		c0.503,2.867,0.905,5.604,1.203,8.175C172.503,119.44,173.203,119.34,173.92,119.34z"/>
	<path fill="#87796F" d="M165.165,112.115c0,3.634-2.946,6.58-6.58,6.58c-3.634,0-6.58-2.946-6.58-6.58
		c0-2.916,2.382-7.141,3.063-13.721c1.287-12.436-5.074-30.965-4.084-30.965C152.232,67.43,165.165,95.218,165.165,112.115z"/>
	<path fill="#3A312A" d="M158.585,120.195c-4.455,0-8.08-3.624-8.08-8.08c0-1.536,0.504-3.182,1.141-5.266
		c0.7-2.288,1.571-5.135,1.931-8.609c0.84-8.117-1.683-18.925-3.191-25.382c-1.09-4.669-1.286-5.51-0.634-6.332
		c0.284-0.358,0.773-0.596,1.231-0.596c0.929,0,1.577,0.253,4.093,5.453c1.588,3.282,3.317,7.376,4.871,11.528
		c2.509,6.706,6.718,19.417,6.718,29.205C166.665,116.571,163.04,120.195,158.585,120.195z M154.447,77.195
		c1.392,6.442,2.806,14.653,2.113,21.354c-0.39,3.764-1.308,6.766-2.046,9.178c-0.542,1.771-1.01,3.3-1.01,4.388
		c0,2.801,2.279,5.08,5.08,5.08c2.801,0,5.08-2.279,5.08-5.08C163.665,101.637,158.469,86.6,154.447,77.195z"/>
</g>
</svg>
