<?xml version="1.0" encoding="utf-8"?>
<!-- Generator: Adobe Illustrator 24.0.0, SVG Export Plug-In . SVG Version: 6.00 Build 0)  -->
<svg version="1.1" id="Layer_1" xmlns="http://www.w3.org/2000/svg" xmlns:xlink="http://www.w3.org/1999/xlink" x="0px" y="0px"
	 viewBox="0 0 256 256" enable-background="new 0 0 256 256" xml:space="preserve">
<g>
	<path fill="#D7E057" d="M70.232,26.092c0,0,3.408,12.659,13.222,13.246c0,0-13.1,4.525-13.321,14.202
		c0,0-2.578-13.572-12.925-14.059C57.207,39.481,69.258,37.655,70.232,26.092z"/>
	<path fill="#3A312A" d="M70.132,55.04c-0.713,0-1.335-0.506-1.473-1.217c-0.023-0.124-2.494-12.418-11.522-12.843
		c-0.771-0.037-1.388-0.651-1.428-1.421c-0.04-0.771,0.511-1.445,1.273-1.561c0.441-0.069,10.895-1.817,11.754-12.032
		c0.062-0.725,0.635-1.301,1.359-1.367c0.731-0.058,1.394,0.399,1.584,1.102c0.031,0.116,3.259,11.626,11.864,12.14
		c0.714,0.043,1.297,0.584,1.396,1.292c0.098,0.708-0.318,1.388-0.994,1.623c-0.121,0.042-12.119,4.31-12.313,12.819
		c-0.018,0.767-0.61,1.396-1.375,1.459C70.216,55.038,70.174,55.04,70.132,55.04z M62.39,39.31c3.879,1.969,6.232,5.746,7.588,8.876
		c2.026-4.021,5.941-6.787,8.949-8.427c-4.135-1.842-6.784-5.651-8.335-8.722C68.799,35.397,65.321,37.905,62.39,39.31z"/>
	<path fill="#D7E057" d="M48.533,43.072c0,0,2.411,8.954,9.352,9.369c0,0-9.266,3.201-9.422,10.045c0,0-1.824-9.6-9.142-9.944
		C39.321,52.543,47.844,51.251,48.533,43.072z"/>
	<path fill="#3A312A" d="M48.462,63.987c-0.714,0-1.337-0.507-1.473-1.22c-0.016-0.082-1.704-8.442-7.739-8.726
		c-0.771-0.037-1.388-0.651-1.428-1.421c-0.04-0.77,0.511-1.445,1.273-1.56c0.296-0.047,7.363-1.243,7.942-8.113
		c0.062-0.726,0.636-1.303,1.361-1.368c0.714-0.059,1.393,0.4,1.582,1.104c0.042,0.151,2.254,7.919,7.993,8.262
		c0.714,0.043,1.299,0.584,1.396,1.293c0.097,0.709-0.32,1.388-0.996,1.622c-0.081,0.028-8.282,2.953-8.412,8.662
		c-0.018,0.767-0.611,1.397-1.376,1.461C48.545,63.985,48.503,63.987,48.462,63.987z M43.942,52.459
		c2.107,1.333,3.523,3.394,4.447,5.28c1.376-2.232,3.516-3.872,5.365-4.973c-2.288-1.269-3.885-3.35-4.941-5.224
		C47.64,49.83,45.798,51.418,43.942,52.459z"/>
	<path fill="#D7E057" d="M48.533,16.414c0,0,2.411,8.954,9.352,9.37c0,0-9.266,3.201-9.422,10.045c0,0-1.824-9.6-9.142-9.944
		C39.321,25.885,47.844,24.594,48.533,16.414z"/>
	<path fill="#3A312A" d="M48.462,37.33c-0.714,0-1.337-0.507-1.473-1.22c-0.016-0.082-1.704-8.442-7.739-8.726
		c-0.771-0.037-1.388-0.651-1.428-1.421c-0.04-0.771,0.511-1.445,1.273-1.561c0.296-0.047,7.363-1.243,7.942-8.114
		c0.062-0.726,0.636-1.303,1.361-1.368c0.72-0.059,1.392,0.399,1.582,1.102l0,0c0.021,0.079,2.227,7.92,7.993,8.265
		c0.714,0.043,1.299,0.584,1.396,1.293c0.097,0.709-0.32,1.388-0.996,1.622c-0.081,0.028-8.282,2.952-8.412,8.662
		c-0.018,0.767-0.611,1.397-1.376,1.461C48.545,37.328,48.503,37.33,48.462,37.33z M43.942,25.802
		c2.107,1.333,3.523,3.395,4.447,5.28c1.376-2.232,3.516-3.872,5.365-4.972c-2.287-1.27-3.885-3.35-4.941-5.224
		C47.64,23.172,45.798,24.761,43.942,25.802z"/>
	<path fill="#FAE6CA" d="M187.104,183.23h-19.54v-18.722h-32.836v18.722h-19.552c-16.335,0-29.576,13.234-29.576,29.56v26.788
		h131.08V212.79C216.679,196.463,203.439,183.23,187.104,183.23z"/>
	<path fill="#3A312A" d="M216.68,241.078H85.6c-0.828,0-1.5-0.671-1.5-1.5V212.79c0-17.127,13.94-31.06,31.076-31.06h18.051v-17.222
		c0-0.829,0.672-1.5,1.5-1.5h32.837c0.828,0,1.5,0.671,1.5,1.5v17.222h18.04c17.136,0,31.076,13.934,31.076,31.06v26.788
		C218.18,240.406,217.508,241.078,216.68,241.078z M87.1,238.078h128.08V212.79c0-15.473-12.595-28.06-28.076-28.06h-19.54
		c-0.828,0-1.5-0.671-1.5-1.5v-17.222h-29.837v17.222c0,0.829-0.672,1.5-1.5,1.5h-19.551c-15.482,0-28.076,12.588-28.076,28.06
		V238.078z"/>
	<path fill="#8AC5DC" d="M216.678,212.786v26.8H85.598v-26.8c0-14.62,10.61-26.75,24.55-29.13c1.63-0.28,3.32-0.43,5.03-0.43h5.87
		l-0.13,0.08l20.33,26.95l10.49-7.9l10.49,7.9l20.32-26.95l-0.12-0.08h4.68c2.13,0,4.21,0.23,6.21,0.66
		C206.668,186.725,216.678,198.585,216.678,212.786z"/>
	<path fill="#3A312A" d="M216.678,241.085H85.599c-0.828,0-1.5-0.671-1.5-1.5v-26.8c0-15.184,10.85-28.057,25.797-30.609
		c1.744-0.299,3.522-0.451,5.282-0.451h5.87c0.671,0,1.26,0.445,1.443,1.091c0.012,0.04,0.021,0.081,0.029,0.123l19.022,25.217
		l9.293-6.999c0.535-0.402,1.27-0.402,1.805,0l9.293,6.998l19.025-25.234c0.009-0.044,0.02-0.087,0.033-0.13
		c0.191-0.633,0.774-1.065,1.436-1.065h4.681c2.189,0,4.386,0.233,6.525,0.694c14.221,3.025,24.544,15.796,24.544,30.366v26.8
		C218.178,240.414,217.506,241.085,216.678,241.085z M87.099,238.085h128.079v-25.3c0-13.163-9.324-24.7-22.172-27.433
		c-1.937-0.417-3.919-0.627-5.898-0.627h-3.753l-19.93,26.433c-0.497,0.663-1.438,0.794-2.1,0.295l-9.588-7.22l-9.588,7.22
		c-0.661,0.497-1.601,0.367-2.1-0.295l-19.94-26.433h-4.933c-1.592,0-3.198,0.137-4.775,0.408
		c-13.504,2.306-23.304,13.935-23.304,27.652V238.085z"/>
	
		<ellipse transform="matrix(0.0021 -1 1 0.0021 -9.8056 210.0755)" fill-rule="evenodd" clip-rule="evenodd" fill="#FAE6CA" cx="100.354" cy="109.951" rx="11.631" ry="11.637"/>
	<path fill="#3A312A" d="M100.354,123.082c-7.244,0-13.138-5.891-13.138-13.131s5.894-13.131,13.138-13.131
		c7.243,0,13.137,5.891,13.137,13.131S107.598,123.082,100.354,123.082z M100.354,99.819c-5.59,0-10.138,4.545-10.138,10.131
		c0,5.586,4.548,10.131,10.138,10.131c5.59,0,10.137-4.545,10.137-10.131C110.491,104.364,105.944,99.819,100.354,99.819z"/>
	<path fill-rule="evenodd" clip-rule="evenodd" fill="#FAE6CA" d="M213.566,109.951c0,6.424-5.21,11.631-11.637,11.631
		s-11.638-5.207-11.638-11.631c0-6.424,5.211-11.632,11.638-11.632S213.566,103.527,213.566,109.951z"/>
	<path fill="#3A312A" d="M201.929,123.082c-7.244,0-13.138-5.891-13.138-13.131s5.894-13.131,13.138-13.131
		c7.244,0,13.138,5.891,13.138,13.131S209.173,123.082,201.929,123.082z M201.929,99.819c-5.59,0-10.138,4.545-10.138,10.131
		c0,5.586,4.548,10.131,10.138,10.131c5.59,0,10.138-4.545,10.138-10.131C212.066,104.364,207.519,99.819,201.929,99.819z"/>
	<path fill="#FAE6CA" d="M202.731,104.304c0,28.478-27.44,72.189-51.59,72.189c-23.051,0-51.59-43.711-51.59-72.189
		c0-28.477,23.098-51.563,51.59-51.563C179.634,52.741,202.731,75.827,202.731,104.304z"/>
	<path fill="#3A312A" d="M151.142,177.993c-11.055,0-24.391-9.743-35.673-26.062c-10.743-15.539-17.417-33.789-17.417-47.626
		c0-29.259,23.816-53.064,53.09-53.064s53.09,23.804,53.09,53.064c0,13.995-6.514,32.241-17,47.618
		C175.935,168.491,162.78,177.993,151.142,177.993z M151.142,54.241c-27.62,0-50.09,22.458-50.09,50.064
		c0,13.261,6.47,30.856,16.885,45.92c10.722,15.509,23.135,24.768,33.205,24.768c10.475,0,23.04-9.256,33.611-24.76
		c10.164-14.906,16.479-32.504,16.479-45.928C201.231,76.7,178.762,54.241,151.142,54.241z"/>
	<path fill="#3A312A" d="M137.963,103.722c0,2.78-2.254,5.033-5.036,5.033c-2.781,0-5.035-2.253-5.035-5.033
		c0-2.779,2.254-5.033,5.035-5.033C135.708,98.689,137.963,100.943,137.963,103.722z"/>
	<path fill="#3A312A" d="M174.391,103.722c0,2.78-2.254,5.033-5.035,5.033c-2.781,0-5.035-2.253-5.035-5.033
		c0-2.779,2.254-5.033,5.035-5.033C172.137,98.689,174.391,100.943,174.391,103.722z"/>
	<path fill="#F59689" d="M131.538,118.685c0,3.579-3.884,6.481-8.674,6.481c-4.79,0-8.674-2.902-8.674-6.481
		c0-3.58,3.884-6.481,8.674-6.481C127.654,112.204,131.538,115.105,131.538,118.685z"/>
	<path fill="#F59689" d="M188.093,118.685c0,3.579-3.883,6.481-8.674,6.481c-4.791,0-8.674-2.902-8.674-6.481
		c0-3.58,3.884-6.481,8.674-6.481C184.21,112.204,188.093,115.105,188.093,118.685z"/>
	
		<rect x="129.761" y="175.937" transform="matrix(0.7987 -0.6017 0.6017 0.7987 -88.5666 120.8433)" fill="#87796F" width="13.186" height="33.749"/>
	<path fill="#3A312A" d="M141.248,211.752c-0.454,0-0.904-0.206-1.198-0.597l-20.318-26.947c-0.24-0.317-0.344-0.717-0.288-1.111
		c0.056-0.395,0.265-0.75,0.583-0.99l10.532-7.933c0.662-0.499,1.6-0.367,2.1,0.295l20.318,26.947
		c0.24,0.317,0.344,0.717,0.288,1.111c-0.056,0.394-0.265,0.75-0.583,0.99l-10.532,7.934
		C141.879,211.654,141.563,211.752,141.248,211.752z M123.03,183.6l18.512,24.552l8.136-6.129l-18.512-24.551L123.03,183.6z"/>
	
		<rect x="160.527" y="175.937" transform="matrix(-0.7987 -0.6017 0.6017 -0.7987 184.5976 447.3695)" fill="#87796F" width="13.186" height="33.749"/>
	<path fill="#3A312A" d="M162.226,211.752c-0.314,0-0.631-0.098-0.901-0.302l-10.532-7.934c-0.318-0.24-0.527-0.596-0.583-0.99
		c-0.056-0.394,0.048-0.794,0.288-1.111l20.318-26.947c0.498-0.661,1.439-0.792,2.1-0.295l10.532,7.933
		c0.318,0.24,0.527,0.595,0.583,0.99c0.056,0.394-0.048,0.794-0.288,1.111l-20.318,26.947
		C163.13,211.546,162.68,211.752,162.226,211.752z M153.796,202.023l8.136,6.129l18.512-24.552l-8.136-6.128L153.796,202.023z"/>
	<path fill="#87796F" d="M205.134,92.386c0-14.866-6.657-28.243-17.274-37.569c0.341-1.334,0.633-2.667,0.868-3.985
		c0.56-3.139,0.667-6.403-0.378-9.254c-2.053-5.601-3.956,1.336-10.193,6.473c-0.021-0.011-0.041-0.023-0.062-0.034
		c0.842-2.542,0.173-5.644-3.408-8.765c-8.981-7.828,0.141-17.159-4.881-15.482c-1.587,0.53-2.956,1.698-4.115,3.018
		c-0.913,1.04-1.786,2.178-2.576,3.387c-1.246,1.906-2.283,3.989-2.957,6.145c-10.212-10.021,0.879-21.491-5.491-19.364
		c-2.068,0.691-3.852,2.213-5.363,3.934c-1.19,1.355-2.327,2.838-3.357,4.414c-2.642,4.043-4.579,8.698-4.892,13.38
		c-0.008,0.119-0.009,0.241-0.014,0.361c-15.648-7.582-8.319-25.811-14.851-20.272c-2.174,1.844-3.599,4.558-4.596,7.381
		c-0.785,2.224-1.445,4.576-1.928,6.989c-1.173,5.849-1.292,12.046,0.293,17.634c-16.655-1.015-19.435-19.973-22.541-11.497
		c-1.093,2.982-0.981,6.397-0.395,9.682c0.461,2.587,1.116,5.23,1.975,7.835c1.348,4.092,3.204,8.085,5.593,11.63
		c-3.985,7.145-6.25,15.298-6.25,23.959c0,2.982,0.54,5.205,1.543,7.981c0.473,1.309,8.119-2.871,8.77-3.329
		c3.256-2.291,5.916-5.396,7.905-8.829c0.822-1.427,1.508-2.88,2.06-4.333c0.362-0.954,0.854-2.26,1.446-3.72
		c8.982,2.677,19.384,1.123,23.66-7.732c5.435,13.062,23.956,10.934,32.806,2.845c1.065-0.974,2.048-2.045,2.975-3.172
		c2.395,3.896,4.357,9.158,5.352,11.779c0.552,1.453,1.237,2.905,2.06,4.333c3.285,5.679,8.833,11.086,15.583,12.069
		c0.017-0.326,0.428-0.437,0.736-0.548C205.444,98.928,205.134,94.157,205.134,92.386z"/>
	<path fill="#3A312A" d="M100.324,102.099c-0.242,0-0.459-0.027-0.646-0.086c-0.571-0.18-1.011-0.594-1.207-1.136
		c-1.007-2.786-1.632-5.179-1.633-8.49c0-8.295,2.073-16.534,6.003-23.887c-2.138-3.325-3.909-7.099-5.271-11.233
		c-0.858-2.604-1.54-5.31-2.026-8.041c-0.742-4.162-0.591-7.583,0.464-10.461c0.484-1.323,1.236-2.873,2.762-3.127
		c1.788-0.3,3.127,1.348,4.974,3.629c2.805,3.466,6.925,8.559,14.248,9.782c-1.015-4.904-0.95-10.455,0.202-16.199
		c0.484-2.419,1.152-4.839,1.985-7.195c1.272-3.604,2.921-6.229,5.039-8.025c0.996-0.845,2.316-1.75,3.693-1.245
		c1.617,0.593,1.935,2.506,2.374,5.153c0.733,4.42,1.812,10.914,8.488,15.098c0.614-3.974,2.293-8.138,4.916-12.152
		c1.04-1.591,2.213-3.133,3.486-4.583c1.973-2.245,3.939-3.673,6.015-4.367c0.611-0.204,2.232-0.743,3.323,0.239
		c1.133,1.019,0.777,2.63,0.327,4.671c-0.738,3.347-1.811,8.214,1.788,13.013c0.603-1.381,1.348-2.754,2.229-4.102
		c0.811-1.24,1.721-2.436,2.706-3.557c1.554-1.769,3.113-2.899,4.768-3.451c0.52-0.174,1.905-0.635,2.893,0.255
		c1.021,0.918,0.713,2.309,0.357,3.918c-0.657,2.974-1.651,7.467,3.091,11.601c2.601,2.266,3.715,4.467,4.088,6.339
		c0.951-1.026,1.771-2.041,2.493-2.934c1.777-2.198,3.058-3.789,4.816-3.495c1.491,0.247,2.221,1.749,2.69,3.03
		c1.012,2.76,1.158,6.042,0.446,10.033c-0.188,1.053-0.413,2.128-0.672,3.206c10.88,9.891,17.101,23.719,17.101,38.085l0.006,0.576
		c0.037,2.478,0.104,7.09-2.894,8.178c-0.001,0-0.012,0.004-0.025,0.009c-0.076,0.107-0.167,0.204-0.27,0.289
		c-0.327,0.268-0.75,0.385-1.169,0.325c-6.331-0.923-12.561-5.709-16.665-12.803c-0.847-1.471-1.574-3.001-2.163-4.552l-0.108-0.287
		c-0.85-2.24-2.316-6.108-4.097-9.447c-0.566,0.612-1.133,1.176-1.708,1.702c-5.985,5.471-15.558,8.097-23.279,6.385
		c-4.677-1.036-8.302-3.517-10.626-7.238c-5.043,7.132-14.515,8.459-22.675,6.431c-0.317,0.809-0.595,1.541-0.827,2.152
		l-0.114,0.301c-0.589,1.55-1.316,3.08-2.162,4.549c-2.199,3.796-5.083,7.014-8.342,9.307
		C109.454,98.309,103.18,102.099,100.324,102.099z M203.997,100.355c0,0.001,0,0.002,0,0.003
		C203.997,100.357,203.997,100.356,203.997,100.355z M99.296,38.757c-0.113,0.187-0.275,0.507-0.471,1.041
		c-0.866,2.365-0.974,5.277-0.327,8.902c0.462,2.592,1.108,5.159,1.923,7.629c1.381,4.193,3.202,7.981,5.413,11.261
		c0.315,0.469,0.341,1.075,0.065,1.569c-3.965,7.108-6.061,15.14-6.061,23.228c0.001,2.546,0.438,4.498,1.161,6.636
		c1.767-0.483,5.897-2.605,6.793-3.213c2.902-2.042,5.485-4.931,7.467-8.352c0.765-1.328,1.423-2.712,1.955-4.113l0.114-0.3
		c0.352-0.928,0.807-2.127,1.345-3.452c0.29-0.716,1.073-1.095,1.818-0.873c7.469,2.226,17.683,1.744,21.881-6.947
		c0.257-0.531,0.761-0.856,1.393-0.847c0.59,0.017,1.116,0.378,1.343,0.923c2.202,5.293,6.546,7.264,9.803,7.985
		c6.72,1.49,15.385-0.898,20.606-5.671c0.944-0.864,1.869-1.851,2.827-3.017c0.308-0.376,0.779-0.579,1.261-0.545
		c0.484,0.033,0.922,0.298,1.176,0.711c2.386,3.88,4.326,8.998,5.369,11.747l0.108,0.286c0.532,1.401,1.19,2.786,1.957,4.116
		c3.477,6.01,8.566,10.143,13.74,11.201c0.275-0.168,0.541-0.262,0.69-0.314c0.446-0.162,1.057-1.03,0.994-5.341l-0.007-0.62
		c0-13.801-6.11-27.084-16.764-36.442c-0.424-0.373-0.603-0.952-0.463-1.499c0.334-1.303,0.618-2.607,0.845-3.877
		c0.615-3.454,0.515-6.226-0.31-8.474c-0.164-0.446-0.302-0.733-0.404-0.914c-0.496,0.431-1.29,1.413-1.952,2.232
		c-1.386,1.715-3.111,3.849-5.476,5.796c-0.474,0.39-1.138,0.453-1.674,0.158c-0.635-0.348-0.992-1.133-0.765-1.821
		c0.768-2.322-0.259-4.799-2.971-7.162c-6.085-5.304-4.761-11.293-4.05-14.51c0.034-0.151,0.069-0.312,0.104-0.471
		c-0.961,0.443-1.927,1.226-2.936,2.375c-0.892,1.016-1.716,2.099-2.449,3.219c-1.24,1.9-2.176,3.842-2.779,5.772
		c-0.156,0.499-0.559,0.88-1.066,1.007c-0.506,0.127-1.042-0.018-1.416-0.384c-6.639-6.515-5.049-13.721-4.195-17.593
		c0.104-0.472,0.223-1.009,0.296-1.441c-0.021,0.007-0.043,0.014-0.065,0.022c-1.559,0.521-3.1,1.666-4.712,3.501
		c-1.18,1.343-2.266,2.771-3.229,4.244c-2.772,4.242-4.38,8.62-4.65,12.66l-0.013,0.322c-0.02,0.505-0.295,0.966-0.729,1.226
		c-0.434,0.259-0.971,0.282-1.425,0.063c-9.799-4.748-11.214-13.273-12.059-18.366c-0.152-0.915-0.333-2.004-0.522-2.603
		c-0.156,0.101-0.368,0.256-0.645,0.491c-1.703,1.444-3.061,3.647-4.152,6.737c-0.785,2.223-1.415,4.505-1.872,6.785
		c-1.229,6.132-1.138,11.986,0.266,16.93c0.133,0.468,0.03,0.971-0.274,1.35c-0.306,0.378-0.783,0.583-1.26,0.557
		c-9.946-0.606-15.273-7.189-18.456-11.121C100.688,40.26,99.816,39.183,99.296,38.757z"/>
	<path fill="#3A312A" d="M151.14,147.629c-7.285,0-12.536-3.271-15.609-9.723c-0.357-0.748-0.038-1.643,0.71-2
		c0.748-0.356,1.644-0.038,1.999,0.71c2.567,5.392,6.787,8.013,12.9,8.013c7.824,0,11.827-5.164,12.851-7.895
		c0.29-0.776,1.152-1.169,1.931-0.878c0.775,0.291,1.169,1.155,0.878,1.931C165.023,142.528,159.364,147.629,151.14,147.629z"/>
	<path fill="#EF6D7A" d="M110.148,221.039v18.546h83.17v-55.7c-2-0.43-4.08-0.66-6.21-0.66h-4.68l0.12,0.08l-20.32,26.95l-10.49-7.9
		l-10.49,7.9l-20.33-26.95l0.13-0.08h-5.87c-1.71,0-3.4,0.15-5.03,0.43v23.322V221.039z"/>
	<path fill="#3A312A" d="M193.318,241.085h-83.17c-0.828,0-1.5-0.671-1.5-1.5v-18.546c0-0.829,0.672-1.5,1.5-1.5
		c0.828,0,1.5,0.671,1.5,1.5v17.046h80.17v-52.961c-1.555-0.265-3.134-0.398-4.71-0.398h-3.753l-19.93,26.433
		c-0.497,0.663-1.438,0.794-2.1,0.295l-9.588-7.22l-9.588,7.22c-0.661,0.497-1.601,0.367-2.1-0.295l-19.94-26.433h-4.933
		c-1.174,0-2.356,0.075-3.529,0.223v22.029c0,0.829-0.672,1.5-1.5,1.5c-0.828,0-1.5-0.671-1.5-1.5v-23.322
		c0-0.73,0.526-1.355,1.246-1.479c1.745-0.299,3.523-0.451,5.283-0.451h5.87c0.671,0,1.26,0.445,1.443,1.091
		c0.012,0.04,0.021,0.081,0.029,0.123l19.022,25.217l9.293-6.999c0.535-0.402,1.27-0.402,1.805,0l9.293,6.998l19.025-25.233
		c0.009-0.044,0.02-0.087,0.033-0.131c0.191-0.633,0.774-1.065,1.436-1.065h4.681c2.189,0,4.386,0.233,6.525,0.694
		c0.691,0.148,1.185,0.759,1.185,1.466v55.7C194.818,240.414,194.146,241.085,193.318,241.085z"/>
	<path fill="#6CA8BF" d="M215.179,212.788v25.3h-15v-25.3c0-6.05-1.98-11.75-5.36-16.42v-10.55
		C206.719,189.208,215.179,200.248,215.179,212.788z"/>
	<path fill="#D04E5D" d="M191.819,185.128v7.73c-2.76-2.74-6.09-4.92-9.82-6.32l1.36-1.81h3.75
		C188.689,184.728,190.259,184.858,191.819,185.128z"/>
</g>
</svg>
