<?xml version="1.0" encoding="utf-8"?>
<!-- Generator: Adobe Illustrator 24.0.0, SVG Export Plug-In . SVG Version: 6.00 Build 0)  -->
<svg version="1.1" id="Layer_1" xmlns="http://www.w3.org/2000/svg" xmlns:xlink="http://www.w3.org/1999/xlink" x="0px" y="0px"
	 viewBox="0 0 256 256" enable-background="new 0 0 256 256" xml:space="preserve">
<g>
	<path fill="#D7E057" d="M136.845,157.326c0,0,3.408,12.659,13.222,13.246c0,0-13.1,4.525-13.321,14.202
		c0,0-2.579-13.572-12.925-14.059C123.82,170.716,135.871,168.89,136.845,157.326z"/>
	<path fill="#3A312A" d="M136.744,186.273c-0.713,0-1.335-0.506-1.472-1.217c-0.024-0.124-2.494-12.417-11.522-12.842
		c-0.771-0.037-1.388-0.651-1.428-1.421c-0.04-0.771,0.511-1.445,1.273-1.561c0.441-0.069,10.894-1.818,11.754-12.033
		c0.061-0.725,0.634-1.301,1.359-1.367c0.725-0.067,1.393,0.398,1.583,1.102c0.032,0.116,3.259,11.626,11.863,12.14
		c0.714,0.043,1.298,0.584,1.396,1.292c0.098,0.708-0.319,1.388-0.994,1.622c-0.121,0.042-12.118,4.311-12.313,12.819
		c-0.018,0.767-0.61,1.396-1.374,1.46C136.828,186.272,136.786,186.273,136.744,186.273z M129.003,170.544
		c3.878,1.969,6.23,5.746,7.586,8.876c2.026-4.021,5.942-6.787,8.949-8.427c-4.135-1.842-6.783-5.651-8.334-8.722
		C135.412,166.631,131.934,169.14,129.003,170.544z"/>
	<path fill="#D7E057" d="M115.146,174.307c0,0,2.411,8.954,9.352,9.369c0,0-9.266,3.201-9.422,10.045c0,0-1.824-9.6-9.142-9.944
		C105.934,183.777,114.457,182.486,115.146,174.307z"/>
	<path fill="#3A312A" d="M115.075,195.221c-0.714,0-1.337-0.507-1.473-1.22c-0.016-0.082-1.704-8.442-7.739-8.726
		c-0.771-0.037-1.388-0.651-1.428-1.421c-0.04-0.77,0.511-1.445,1.273-1.561c0.295-0.047,7.364-1.244,7.942-8.114
		c0.061-0.726,0.635-1.303,1.36-1.368c0.725-0.066,1.392,0.4,1.582,1.102l0,0c0.021,0.079,2.228,7.919,7.993,8.264
		c0.715,0.043,1.299,0.584,1.396,1.293c0.098,0.709-0.319,1.388-0.996,1.622c-0.081,0.028-8.282,2.953-8.412,8.662
		c-0.018,0.767-0.611,1.397-1.376,1.461C115.157,195.22,115.116,195.221,115.075,195.221z M110.556,183.694
		c2.107,1.333,3.523,3.394,4.447,5.28c1.376-2.232,3.515-3.872,5.364-4.973c-2.287-1.269-3.884-3.35-4.941-5.224
		C114.253,181.064,112.411,182.653,110.556,183.694z"/>
	<path fill="#D7E057" d="M115.146,147.649c0,0,2.411,8.954,9.352,9.37c0,0-9.266,3.201-9.422,10.045c0,0-1.824-9.6-9.142-9.944
		C105.934,157.12,114.457,155.828,115.146,147.649z"/>
	<path fill="#3A312A" d="M115.074,168.564c-0.713,0-1.337-0.507-1.472-1.22c-0.016-0.082-1.704-8.442-7.739-8.726
		c-0.771-0.037-1.388-0.651-1.428-1.421c-0.04-0.77,0.511-1.445,1.273-1.561c0.296-0.047,7.364-1.243,7.942-8.114
		c0.061-0.726,0.635-1.303,1.36-1.368c0.725-0.067,1.392,0.399,1.582,1.102l0,0c0.021,0.079,2.228,7.92,7.994,8.265
		c0.714,0.043,1.299,0.585,1.396,1.294c0.098,0.709-0.32,1.388-0.996,1.622c-0.081,0.028-8.282,2.952-8.412,8.662
		c-0.018,0.767-0.611,1.398-1.376,1.461C115.157,168.563,115.116,168.564,115.074,168.564z M110.556,157.036
		c2.107,1.333,3.523,3.395,4.447,5.28c1.376-2.232,3.515-3.872,5.365-4.972c-2.287-1.27-3.884-3.35-4.941-5.224
		C114.253,154.406,112.411,155.995,110.556,157.036z"/>
	<path fill="#87796F" d="M121.093,200.081C81.227,196.764,36.367,165.959,17,136.189c4.657,42.616,23.709,103,111.039,103
		c89.408,0,106.031-59.815,110.961-102.391c-18.991,29.549-62.487,59.929-103.593,63.275L121.093,200.081z"/>
	<path fill="#3A312A" d="M128.039,240.689c-67.103,0-104.963-35.104-112.53-104.337c-0.075-0.69,0.333-1.342,0.987-1.576
		c0.655-0.234,1.383,0.013,1.762,0.595c18.476,28.399,62.039,59.81,102.96,63.215c0.826,0.068,1.439,0.794,1.37,1.619
		c-0.068,0.825-0.789,1.45-1.619,1.37c-39.439-3.282-81.26-31.978-101.732-59.555c8.871,63.487,45.45,95.669,108.803,95.669
		c83.579,0,102.74-52.465,108.692-94.958c-19.829,26.968-60.202,55.499-101.203,58.837c-0.835,0.072-1.549-0.548-1.617-1.374
		c-0.067-0.826,0.548-1.549,1.374-1.617c18.862-1.535,39.96-9.2,59.405-21.581c17.955-11.432,33.645-26.379,43.047-41.01
		c0.376-0.587,1.106-0.836,1.767-0.602c0.657,0.235,1.065,0.892,0.985,1.585c-2.172,18.757-7.035,46.204-24.113,67.916
		C197.692,228.644,167.97,240.689,128.039,240.689z"/>
	<path fill="#87796F" d="M209.737,78.474c-1.327,0-2.631,0.095-3.912,0.263c3.425-4.87,5.442-10.8,5.442-17.206
		c0-16.542-13.41-29.952-29.952-29.952c-9.585,0-18.113,4.508-23.595,11.514c-1.811-14.81-14.421-26.282-29.72-26.282
		s-27.91,11.473-29.72,26.282c-5.482-7.005-14.009-11.514-23.595-11.514c-16.542,0-29.952,13.41-29.952,29.952
		c0,6.406,2.017,12.336,5.442,17.206c-1.281-0.167-2.585-0.263-3.912-0.263c-16.542,0-29.952,13.41-29.952,29.952
		c0,16.542,13.41,29.952,29.952,29.952c0.484,0,0.964-0.014,1.442-0.037c4.844,10.02,15.105,16.932,26.98,16.932
		c14.562,0,26.692-10.395,29.388-24.167c5.466,7.249,14.148,11.936,23.926,11.936s18.46-4.688,23.926-11.936
		c2.696,13.773,14.826,24.167,29.388,24.167c11.876,0,22.136-6.912,26.98-16.932c0.478,0.023,0.958,0.037,1.442,0.037
		c16.542,0,29.952-13.41,29.952-29.952C239.688,91.884,226.278,78.474,209.737,78.474z"/>
	<path fill="#3A312A" d="M181.315,156.773c-13.979,0-26.2-9.267-30.132-22.426c-5.949,6.513-14.243,10.194-23.183,10.194
		c-8.94,0-17.234-3.681-23.183-10.194c-3.932,13.159-16.153,22.426-30.132,22.426c-11.66,0-22.499-6.602-27.888-16.9
		c-0.177,0.003-0.355,0.005-0.533,0.005c-17.342,0-31.452-14.109-31.452-31.452s14.109-31.452,31.452-31.452
		c0.341,0,0.687,0.006,1.034,0.019c-2.667-4.706-4.065-9.993-4.065-15.462c0-17.342,14.109-31.452,31.452-31.452
		c8.651,0,16.747,3.481,22.662,9.649C100.567,25.603,113.22,15.311,128,15.311c14.779,0,27.432,10.292,30.653,24.418
		c5.915-6.168,14.011-9.649,22.662-9.649c17.342,0,31.452,14.109,31.452,31.452c0,5.469-1.397,10.756-4.064,15.462
		c0.348-0.012,0.693-0.019,1.035-0.019c17.342,0,31.451,14.109,31.451,31.452s-14.109,31.452-31.451,31.452
		c-0.178,0-0.356-0.002-0.534-0.005C203.814,150.17,192.975,156.773,181.315,156.773z M151.926,129.605
		c0.112,0,0.225,0.013,0.337,0.038c0.577,0.133,1.021,0.593,1.135,1.174c2.604,13.301,14.344,22.956,27.916,22.956
		c10.846,0,20.906-6.314,25.629-16.085c0.262-0.542,0.841-0.878,1.422-0.845c0.454,0.021,0.91,0.035,1.37,0.035
		c15.688,0,28.451-12.763,28.451-28.452s-12.763-28.452-28.451-28.452c-1.198,0-2.449,0.084-3.718,0.25
		c-0.588,0.08-1.171-0.202-1.478-0.711c-0.308-0.509-0.286-1.152,0.057-1.639c3.382-4.809,5.169-10.46,5.169-16.343
		c0-15.688-12.763-28.452-28.452-28.452c-8.804,0-16.974,3.987-22.413,10.938c-0.374,0.478-0.998,0.682-1.583,0.521
		c-0.585-0.163-1.013-0.661-1.087-1.263C154.491,29.043,142.354,18.31,128,18.31c-14.355,0-26.491,10.733-28.231,24.964
		c-0.073,0.602-0.502,1.101-1.087,1.263c-0.582,0.161-1.209-0.043-1.583-0.521c-5.44-6.951-13.61-10.938-22.414-10.938
		c-15.688,0-28.452,12.763-28.452,28.452c0,5.883,1.788,11.535,5.169,16.343c0.342,0.487,0.364,1.13,0.057,1.639
		c-0.309,0.509-0.895,0.791-1.478,0.711c-1.27-0.166-2.52-0.25-3.718-0.25c-15.688,0-28.452,12.763-28.452,28.452
		s12.763,28.452,28.452,28.452c0.459,0,0.916-0.013,1.37-0.035c0.599-0.037,1.16,0.304,1.422,0.845
		c4.724,9.771,14.784,16.085,25.629,16.085c13.572,0,25.313-9.654,27.917-22.956c0.114-0.581,0.559-1.04,1.135-1.174
		c0.578-0.13,1.179,0.086,1.535,0.559c5.434,7.206,13.719,11.339,22.729,11.339c9.01,0,17.294-4.133,22.729-11.339
		C151.016,129.821,151.462,129.605,151.926,129.605z"/>
	<path fill="#695B51" d="M236.73,142.739c-5.95,42.49-25.12,94.95-108.69,94.95c-2.48,0-4.92-0.05-7.32-0.15
		c64.53-2.62,87.77-38.45,97.01-74.19C225.08,156.799,231.54,149.809,236.73,142.739z"/>
	<path fill="#695B51" d="M238.19,108.429c0,15.68-12.77,28.45-28.45,28.45c-0.46,0-0.92-0.02-1.37-0.04
		c-0.58-0.03-1.16,0.31-1.43,0.85c-4.72,9.77-14.78,16.08-25.63,16.08c-2.6,0-5.12-0.35-7.53-1.02c7.82-2.14,14.55-7.59,18.16-15.06
		c0.27-0.54,0.85-0.88,1.43-0.85c0.45,0.02,0.91,0.04,1.37,0.04c15.68,0,28.45-12.77,28.45-28.45c0-15.69-12.77-28.46-28.45-28.46
		c-1.2,0-2.45,0.09-3.72,0.25c-0.59,0.08-1.17-0.2-1.48-0.71c-0.31-0.51-0.29-1.15,0.06-1.64c3.38-4.8,5.17-10.46,5.17-16.34
		c0-13.1-8.91-24.16-20.98-27.45c2.42-0.66,4.94-1,7.52-1c15.69,0,28.46,12.76,28.46,28.45c0,5.88-1.79,11.54-5.17,16.34
		c-0.35,0.49-0.37,1.13-0.06,1.64c0.31,0.51,0.89,0.79,1.48,0.71c1.27-0.16,2.52-0.25,3.72-0.25
		C225.42,79.969,238.19,92.739,238.19,108.429z"/>
</g>
</svg>
