<?xml version="1.0" encoding="utf-8"?>
<!-- Generator: Adobe Illustrator 24.0.0, SVG Export Plug-In . SVG Version: 6.00 Build 0)  -->
<svg version="1.1" id="Layer_1" xmlns="http://www.w3.org/2000/svg" xmlns:xlink="http://www.w3.org/1999/xlink" x="0px" y="0px"
	 viewBox="0 0 256 256" enable-background="new 0 0 256 256" xml:space="preserve">
<g>
	<path fill="#EF6D7A" d="M233.405,89.706c3.528,0,6.388-2.86,6.388-6.388V61.72c0-3.528-2.86-6.388-6.388-6.388h-11.754v34.375
		H233.405z"/>
	<path fill="#3A312A" d="M233.405,91.206h-11.754c-0.828,0-1.5-0.671-1.5-1.5V55.332c0-0.829,0.672-1.5,1.5-1.5h11.754
		c4.35,0,7.889,3.539,7.889,7.888v21.598C241.294,87.668,237.755,91.206,233.405,91.206z M223.151,88.206h10.254
		c2.695,0,4.889-2.193,4.889-4.889V61.72c0-2.695-2.193-4.888-4.889-4.888h-10.254V88.206z"/>
	<path fill="#EF6D7A" d="M142.246,141.257v34.38h-11.21c-3.52,0-6.39-2.86-6.39-6.39v-21.6c0-3.53,2.87-6.39,6.39-6.39H142.246z"/>
	<path fill="#3A312A" d="M142.246,177.137h-11.21c-4.351,0-7.89-3.54-7.89-7.89v-21.6c0-4.351,3.539-7.89,7.89-7.89h11.21
		c0.828,0,1.5,0.671,1.5,1.5v34.38C143.746,176.465,143.074,177.137,142.246,177.137z M131.036,142.757
		c-2.696,0-4.89,2.193-4.89,4.89v21.6c0,2.696,2.193,4.89,4.89,4.89h9.71v-31.38H131.036z"/>
	<path fill="#87796F" d="M152.513,198.962v15.211c0,5.31,4.305,9.615,9.615,9.615h24.216c5.31,0,9.615-4.305,9.615-9.615v-15.211
		H152.513z"/>
	<path fill="#3A312A" d="M186.345,225.289h-24.216c-6.13,0-11.116-4.986-11.116-11.115v-15.211c0-0.829,0.672-1.5,1.5-1.5h43.447
		c0.828,0,1.5,0.671,1.5,1.5v15.211C197.46,220.303,192.474,225.289,186.345,225.289z M154.013,200.462v13.711
		c0,4.475,3.641,8.115,8.116,8.115h24.216c4.475,0,8.115-3.641,8.115-8.115v-13.711H154.013z"/>
	<rect x="165.731" y="223.789" fill="#87796F" width="17.011" height="15.278"/>
	<path fill="#3A312A" d="M182.742,240.567H165.73c-0.828,0-1.5-0.671-1.5-1.5v-15.278c0-0.829,0.672-1.5,1.5-1.5h17.012
		c0.828,0,1.5,0.671,1.5,1.5v15.278C184.242,239.895,183.57,240.567,182.742,240.567z M167.23,237.567h14.012v-12.278H167.23
		V237.567z"/>
	<path fill="#8AC3DA" d="M142.248,66.236v113.152c0,17.666,14.322,31.988,31.988,31.988h0c17.666,0,31.988-14.321,31.988-31.988
		V66.236H142.248z"/>
	<path fill="#3A312A" d="M174.236,212.876c-18.466,0-33.488-15.023-33.488-33.488V66.236c0-0.829,0.672-1.5,1.5-1.5h63.977
		c0.828,0,1.5,0.671,1.5,1.5v113.151C207.725,197.853,192.702,212.876,174.236,212.876z M143.748,67.736v111.651
		c0,16.811,13.677,30.488,30.488,30.488c16.812,0,30.488-13.677,30.488-30.488V67.736H143.748z"/>
	<path fill="#8AC3DA" d="M123.048,24.165L45.807,36.234v72.57l119.182,18.622c33.704,5.266,64.152-20.794,64.152-54.907v0
		c0-34.113-30.449-60.173-64.152-54.907l-27.759,4.337L123.048,24.165z"/>
	<path fill="#3A312A" d="M173.594,129.595c-2.938,0-5.891-0.227-8.837-0.687L45.576,110.286c-0.73-0.114-1.269-0.743-1.269-1.482
		v-72.57c0-0.739,0.538-1.368,1.269-1.482l77.241-12.069c0.816-0.125,1.586,0.432,1.713,1.25c0.128,0.818-0.432,1.585-1.25,1.713
		L47.307,37.518v70.002l117.913,18.424c15.638,2.445,31.49-2.057,43.509-12.344c12.019-10.287,18.912-25.26,18.912-41.081
		c0-15.821-6.893-30.794-18.912-41.081c-12.019-10.287-27.871-14.785-43.509-12.344l-27.759,4.337
		c-0.817,0.127-1.586-0.432-1.714-1.25c-0.128-0.818,0.433-1.586,1.251-1.713l27.759-4.337c16.497-2.58,33.236,2.171,45.922,13.029
		c12.686,10.858,19.962,26.662,19.962,43.36c0,16.698-7.275,32.502-19.962,43.36C200.259,124.798,187.103,129.595,173.594,129.595z"
		/>
	
		<ellipse transform="matrix(0.2261 -0.9741 0.9741 0.2261 63.4621 224.9168)" fill="#87796F" cx="173.282" cy="72.519" rx="37.717" ry="37.717"/>
	<path fill="#3A312A" d="M173.281,111.736c-21.624,0-39.217-17.593-39.217-39.217c0-21.624,17.593-39.217,39.217-39.217
		c21.625,0,39.218,17.593,39.218,39.217C212.499,94.143,194.906,111.736,173.281,111.736z M173.281,36.302
		c-19.97,0-36.217,16.247-36.217,36.217c0,19.97,16.247,36.217,36.217,36.217c19.971,0,36.218-16.246,36.218-36.217
		C209.499,52.549,193.252,36.302,173.281,36.302z"/>
	<path fill="#EF6D7A" d="M16.206,71.002v52.125h16.077c7.469,0,13.524-6.055,13.524-13.524V35.435
		c0-7.469-6.055-13.524-13.524-13.524H16.206v34.221V71.002z"/>
	<path fill="#3A312A" d="M32.283,124.627H16.206c-0.829,0-1.5-0.671-1.5-1.5V71.002c0-0.829,0.671-1.5,1.5-1.5
		c0.829,0,1.5,0.671,1.5,1.5v50.625h14.577c6.63,0,12.024-5.394,12.024-12.024V35.435c0-6.63-5.394-12.024-12.024-12.024H17.706
		v32.721c0,0.829-0.671,1.5-1.5,1.5c-0.829,0-1.5-0.671-1.5-1.5V21.911c0-0.829,0.671-1.5,1.5-1.5h16.077
		c8.284,0,15.024,6.74,15.024,15.024v74.167C47.307,117.887,40.567,124.627,32.283,124.627z"/>
	<path fill="#3A312A" d="M199.884,47.207h-53.205c-0.828,0-1.5-0.671-1.5-1.5c0-0.829,0.672-1.5,1.5-1.5h53.205
		c0.828,0,1.5,0.671,1.5,1.5C201.384,46.536,200.712,47.207,199.884,47.207z"/>
	<path fill="#3A312A" d="M208.554,60.575h-70.545c-0.828,0-1.5-0.671-1.5-1.5c0-0.829,0.672-1.5,1.5-1.5h70.545
		c0.828,0,1.5,0.671,1.5,1.5C210.054,59.903,209.382,60.575,208.554,60.575z"/>
	<path fill="#3A312A" d="M210.999,73.943h-75.435c-0.828,0-1.5-0.671-1.5-1.5s0.672-1.5,1.5-1.5h75.435c0.828,0,1.5,0.671,1.5,1.5
		S211.827,73.943,210.999,73.943z"/>
	<path fill="#3A312A" d="M208.554,87.311h-70.545c-0.828,0-1.5-0.671-1.5-1.5c0-0.829,0.672-1.5,1.5-1.5h70.545
		c0.828,0,1.5,0.671,1.5,1.5C210.054,86.64,209.382,87.311,208.554,87.311z"/>
	<path fill="#3A312A" d="M199.884,100.679h-53.205c-0.828,0-1.5-0.671-1.5-1.5s0.672-1.5,1.5-1.5h53.205c0.828,0,1.5,0.671,1.5,1.5
		S200.712,100.679,199.884,100.679z"/>
	<path fill="#D7E057" d="M76.929,173.203c0,0,3.408,12.659,13.222,13.246c0,0-13.1,4.525-13.321,14.202
		c0,0-2.579-13.572-12.925-14.059C63.905,186.593,75.955,184.767,76.929,173.203z"/>
	<path fill="#3A312A" d="M76.829,202.151c-0.713,0-1.335-0.506-1.472-1.217c-0.024-0.124-2.495-12.417-11.522-12.842
		c-0.77-0.037-1.388-0.651-1.428-1.421c-0.04-0.77,0.511-1.445,1.273-1.561c0.441-0.069,10.894-1.817,11.754-12.032
		c0.061-0.725,0.634-1.301,1.359-1.367c0.732-0.061,1.393,0.399,1.584,1.102c0.032,0.116,3.259,11.626,11.863,12.14
		c0.714,0.043,1.298,0.584,1.396,1.292c0.098,0.708-0.319,1.388-0.994,1.623c-0.121,0.042-12.118,4.311-12.313,12.819
		c-0.018,0.767-0.61,1.395-1.374,1.459C76.913,202.149,76.871,202.151,76.829,202.151z M69.088,186.421
		c3.878,1.969,6.23,5.746,7.587,8.876c2.026-4.021,5.941-6.787,8.949-8.427c-4.134-1.842-6.783-5.651-8.334-8.722
		C75.497,182.509,72.019,185.017,69.088,186.421z"/>
	<path fill="#D7E057" d="M55.231,190.184c0,0,2.411,8.954,9.352,9.369c0,0-9.266,3.201-9.422,10.045c0,0-1.824-9.6-9.142-9.944
		C46.018,199.654,54.542,198.363,55.231,190.184z"/>
	<path fill="#3A312A" d="M55.159,211.099c-0.713,0-1.337-0.507-1.472-1.22c-0.016-0.081-1.704-8.441-7.739-8.726
		c-0.77-0.037-1.387-0.651-1.427-1.421c-0.04-0.771,0.511-1.445,1.273-1.561c0.296-0.047,7.364-1.243,7.942-8.113
		c0.061-0.726,0.635-1.303,1.36-1.368c0.73-0.064,1.392,0.4,1.582,1.102l0,0c0.021,0.079,2.228,7.919,7.994,8.264
		c0.715,0.043,1.299,0.584,1.396,1.293c0.098,0.709-0.319,1.388-0.996,1.622c-0.081,0.028-8.282,2.953-8.413,8.662
		c-0.018,0.767-0.611,1.398-1.376,1.461C55.242,211.097,55.2,211.099,55.159,211.099z M50.64,199.571
		c2.107,1.333,3.524,3.395,4.447,5.28c1.376-2.232,3.515-3.872,5.365-4.973c-2.287-1.269-3.884-3.35-4.941-5.224
		C54.337,196.941,52.496,198.53,50.64,199.571z"/>
	<path fill="#D7E057" d="M55.231,163.526c0,0,2.411,8.954,9.352,9.37c0,0-9.266,3.201-9.422,10.045c0,0-1.824-9.6-9.142-9.944
		C46.018,172.997,54.542,171.706,55.231,163.526z"/>
	<path fill="#3A312A" d="M55.159,184.441c-0.713,0-1.337-0.507-1.472-1.22c-0.016-0.082-1.704-8.442-7.739-8.726
		c-0.771-0.037-1.388-0.651-1.428-1.421c-0.04-0.771,0.511-1.445,1.273-1.561c0.296-0.047,7.364-1.243,7.942-8.114
		c0.061-0.726,0.635-1.303,1.36-1.368c0.725-0.064,1.392,0.399,1.582,1.102l0,0c0.021,0.079,2.228,7.92,7.994,8.265
		c0.714,0.043,1.299,0.584,1.396,1.293c0.098,0.709-0.32,1.388-0.996,1.622c-0.081,0.028-8.282,2.952-8.413,8.662
		c-0.018,0.767-0.611,1.397-1.376,1.461C55.242,184.44,55.2,184.441,55.159,184.441z M50.64,172.914
		c2.107,1.332,3.524,3.395,4.447,5.28c1.376-2.232,3.515-3.872,5.365-4.973c-2.287-1.269-3.884-3.35-4.941-5.224
		C54.337,170.284,52.496,171.873,50.64,172.914z"/>
	<path fill="#6CA8BF" d="M204.726,120.337v59.05c0,16.81-13.68,30.49-30.49,30.49c-2.59,0-5.1-0.32-7.5-0.93
		c13.2-3.35,22.99-15.34,22.99-29.56v-52.12C195.006,125.707,200.066,123.377,204.726,120.337z"/>
</g>
</svg>
