<?xml version="1.0" encoding="utf-8"?>
<!-- Generator: Adobe Illustrator 24.0.0, SVG Export Plug-In . SVG Version: 6.00 Build 0)  -->
<svg version="1.1" id="Layer_1" xmlns="http://www.w3.org/2000/svg" xmlns:xlink="http://www.w3.org/1999/xlink" x="0px" y="0px"
	 viewBox="0 0 256 256" enable-background="new 0 0 256 256" xml:space="preserve">
<g>
	<path fill="#F8E4C8" d="M170.023,183.244h-19.54v-18.799h-32.836v18.799H98.094c-16.335,0-29.576,13.234-29.576,29.56v26.788
		h131.08v-26.788C199.598,196.478,186.358,183.244,170.023,183.244z"/>
	<path fill="#3A312A" d="M199.599,241.092H68.519c-0.829,0-1.5-0.671-1.5-1.5v-26.788c0-17.127,13.94-31.061,31.076-31.061h18.052
		v-17.299c0-0.829,0.671-1.5,1.5-1.5h32.836c0.829,0,1.5,0.671,1.5,1.5v17.299h18.04c17.135,0,31.076,13.934,31.076,31.061v26.788
		C201.099,240.421,200.427,241.092,199.599,241.092z M70.019,238.092h128.08v-25.288c0-15.473-12.595-28.061-28.076-28.061h-19.54
		c-0.829,0-1.5-0.671-1.5-1.5v-17.299h-29.836v17.299c0,0.829-0.671,1.5-1.5,1.5H98.094c-15.481,0-28.076,12.588-28.076,28.061
		V238.092z"/>
	<path fill="#EB6E7A" d="M152.888,211.02H68.577c-0.035,0.588-0.058,1.179-0.058,1.776v26.799h131.08v-26.799
		c0-0.597-0.023-1.188-0.058-1.776h-33.068H152.888z"/>
	<path fill="#3A312A" d="M199.599,241.095H68.519c-0.829,0-1.5-0.671-1.5-1.5v-26.799c0-0.626,0.024-1.247,0.06-1.864
		c0.047-0.792,0.704-1.412,1.498-1.412h84.311c0.829,0,1.5,0.671,1.5,1.5s-0.671,1.5-1.5,1.5H70.02
		c-0.001,0.092-0.001,0.184-0.001,0.276v25.299h128.08v-25.299c0-0.092-0.001-0.184-0.001-0.276h-31.625c-0.829,0-1.5-0.671-1.5-1.5
		s0.671-1.5,1.5-1.5h33.068c0.793,0,1.45,0.618,1.498,1.411c0.037,0.617,0.061,1.238,0.061,1.865v26.799
		C201.099,240.423,200.428,241.095,199.599,241.095z"/>
	<path fill="#3A312A" d="M92.475,241.095c-0.829,0-1.5-0.671-1.5-1.5v-21.172c0-0.829,0.671-1.5,1.5-1.5c0.829,0,1.5,0.671,1.5,1.5
		v21.172C93.975,240.423,93.303,241.095,92.475,241.095z"/>
	<path fill="#3A312A" d="M175.643,241.095c-0.829,0-1.5-0.671-1.5-1.5v-21.172c0-0.829,0.671-1.5,1.5-1.5c0.829,0,1.5,0.671,1.5,1.5
		v21.172C177.143,240.423,176.472,241.095,175.643,241.095z"/>
	<path fill="#DECAAD" d="M197.899,209.515h-15c-1.63-13.92-13.51-24.77-27.88-24.77h15
		C184.389,184.745,196.269,195.595,197.899,209.515z"/>
	<rect x="183.099" y="212.515" fill="#D04E5D" width="15" height="25.58"/>
	<path fill="#D7E057" d="M53.352,26.082c0,0,3.408,12.659,13.222,13.246c0,0-13.1,4.525-13.321,14.202
		c0,0-2.578-13.572-12.925-14.059C40.328,39.472,52.378,37.646,53.352,26.082z"/>
	<path fill="#3A312A" d="M53.252,55.03c-0.713,0-1.336-0.506-1.472-1.217c-0.024-0.124-2.495-12.417-11.522-12.842
		c-0.771-0.037-1.388-0.651-1.428-1.421c-0.04-0.771,0.511-1.445,1.273-1.561c0.441-0.069,10.894-1.817,11.754-12.033
		c0.061-0.725,0.634-1.301,1.359-1.367c0.72-0.062,1.393,0.398,1.583,1.101c0.032,0.116,3.259,11.626,11.864,12.141
		c0.714,0.043,1.297,0.584,1.396,1.292c0.098,0.708-0.319,1.388-0.994,1.623c-0.121,0.042-12.118,4.31-12.313,12.819
		c-0.017,0.767-0.61,1.396-1.375,1.459C53.336,55.028,53.293,55.03,53.252,55.03z M45.511,39.3c3.878,1.969,6.23,5.746,7.587,8.877
		c2.027-4.021,5.942-6.787,8.949-8.427c-4.134-1.842-6.783-5.651-8.334-8.722C51.919,35.387,48.441,37.896,45.511,39.3z"/>
	<path fill="#D7E057" d="M31.654,43.063c0,0,2.411,8.954,9.352,9.369c0,0-9.266,3.201-9.422,10.045c0,0-1.824-9.6-9.142-9.944
		C22.441,52.533,30.965,51.242,31.654,43.063z"/>
	<path fill="#3A312A" d="M31.582,63.978c-0.713,0-1.337-0.507-1.472-1.22c-0.016-0.082-1.704-8.442-7.739-8.726
		c-0.771-0.037-1.388-0.651-1.428-1.421c-0.04-0.771,0.511-1.445,1.273-1.561c0.296-0.047,7.364-1.243,7.943-8.114
		c0.061-0.726,0.635-1.303,1.36-1.368c0.729-0.068,1.392,0.399,1.582,1.101l0,0c0.021,0.079,2.228,7.92,7.994,8.265
		c0.714,0.043,1.299,0.584,1.396,1.293c0.098,0.709-0.32,1.388-0.996,1.622c-0.081,0.028-8.282,2.952-8.412,8.662
		c-0.018,0.767-0.611,1.397-1.376,1.461C31.665,63.976,31.623,63.978,31.582,63.978z M27.063,52.45
		c2.107,1.333,3.523,3.394,4.447,5.28c1.376-2.232,3.516-3.872,5.365-4.973c-2.287-1.269-3.884-3.35-4.941-5.224
		C30.761,49.82,28.919,51.409,27.063,52.45z"/>
	<path fill="#D7E057" d="M31.654,16.405c0,0,2.411,8.954,9.352,9.37c0,0-9.266,3.201-9.422,10.045c0,0-1.824-9.6-9.142-9.944
		C22.441,25.876,30.965,24.584,31.654,16.405z"/>
	<path fill="#3A312A" d="M31.582,37.32c-0.713,0-1.337-0.507-1.472-1.22c-0.016-0.082-1.704-8.442-7.74-8.726
		c-0.77-0.037-1.387-0.651-1.427-1.421c-0.04-0.771,0.511-1.445,1.273-1.561c0.296-0.047,7.364-1.243,7.943-8.113
		c0.061-0.726,0.635-1.303,1.36-1.368c0.729-0.069,1.392,0.399,1.582,1.102l0,0c0.021,0.079,2.228,7.92,7.994,8.265
		c0.714,0.043,1.299,0.584,1.396,1.294c0.098,0.709-0.32,1.388-0.996,1.622c-0.081,0.028-8.282,2.952-8.412,8.662
		c-0.018,0.767-0.611,1.397-1.376,1.461C31.665,37.319,31.623,37.32,31.582,37.32z M27.063,25.792
		c2.107,1.333,3.523,3.394,4.447,5.28c1.376-2.232,3.516-3.872,5.365-4.973c-2.287-1.269-3.884-3.35-4.941-5.224
		C30.761,23.163,28.919,24.751,27.063,25.792z"/>
	<polygon fill="#87796F" points="78.559,150.356 78.559,160.945 189.559,160.945 189.559,75.446 78.559,75.446 78.559,135.535 	"/>
	<path fill="#3A312A" d="M189.559,162.445h-111c-0.829,0-1.5-0.671-1.5-1.5v-10.589c0-0.829,0.671-1.5,1.5-1.5
		c0.829,0,1.5,0.671,1.5,1.5v9.089h108V76.945h-108v58.59c0,0.829-0.671,1.5-1.5,1.5c-0.829,0-1.5-0.671-1.5-1.5v-60.09
		c0-0.829,0.671-1.5,1.5-1.5h111c0.829,0,1.5,0.671,1.5,1.5v85.499C191.059,161.773,190.388,162.445,189.559,162.445z"/>
	<path fill-rule="evenodd" clip-rule="evenodd" fill="#F6E2C6" d="M94.977,109.702c0,6.424-5.21,11.632-11.637,11.632
		c-6.427,0-11.637-5.207-11.637-11.632s5.21-11.631,11.637-11.631C89.767,98.07,94.977,103.277,94.977,109.702z"/>
	<path fill="#3A312A" d="M83.339,122.833c-7.244,0-13.137-5.891-13.137-13.131c0-7.241,5.894-13.131,13.137-13.131
		c7.244,0,13.138,5.891,13.138,13.131C96.477,116.942,90.583,122.833,83.339,122.833z M83.339,99.57
		c-5.59,0-10.137,4.545-10.137,10.131c0,5.586,4.547,10.131,10.137,10.131c5.59,0,10.138-4.545,10.138-10.131
		C93.477,104.115,88.929,99.57,83.339,99.57z"/>
	<path fill-rule="evenodd" clip-rule="evenodd" fill="#F6E2C6" d="M196.551,109.702c0,6.424-5.21,11.632-11.637,11.632
		c-6.427,0-11.638-5.207-11.638-11.632s5.21-11.631,11.638-11.631C191.341,98.07,196.551,103.277,196.551,109.702z"/>
	<path fill="#3A312A" d="M184.914,122.833c-7.244,0-13.138-5.891-13.138-13.131c0-7.241,5.893-13.131,13.138-13.131
		c7.244,0,13.137,5.891,13.137,13.131C198.051,116.942,192.158,122.833,184.914,122.833z M184.914,99.57
		c-5.59,0-10.138,4.545-10.138,10.131c0,5.586,4.548,10.131,10.138,10.131c5.59,0,10.137-4.545,10.137-10.131
		C195.051,104.115,190.504,99.57,184.914,99.57z"/>
	<path fill="#F6E2C6" d="M185.719,104.059c0,16.03-8.7,36.9-20.62,52.07c-9.24,11.78-20.42,20.12-30.97,20.12
		c-10.39,0-21.89-8.88-31.39-21.24c-11.59-15.07-20.2-35.31-20.2-50.95c0-28.48,23.09-51.57,51.59-51.57
		C162.62,52.489,185.719,75.579,185.719,104.059z"/>
	<path fill="#3A312A" d="M134.129,177.749c-10.044,0-21.918-7.955-32.58-21.826c-12.459-16.201-20.51-36.559-20.51-51.864
		c0-29.263,23.816-53.07,53.09-53.07s53.09,23.807,53.09,53.07c0,15.759-8.415,37.057-20.94,52.997
		C155.812,170.399,144.394,177.749,134.129,177.749z M134.129,53.989c-27.62,0-50.09,22.461-50.09,50.07
		c0,14.686,7.807,34.326,19.889,50.035c10.089,13.127,21.097,20.655,30.201,20.655c9.188,0,20.047-7.124,29.79-19.546
		c12.142-15.453,20.3-36.006,20.3-51.144C184.219,76.45,161.749,53.989,134.129,53.989z"/>
	<path fill="#3A312A" d="M120.948,103.473c0,2.78-2.254,5.033-5.035,5.033c-2.781,0-5.035-2.253-5.035-5.033
		c0-2.779,2.254-5.033,5.035-5.033C118.694,98.441,120.948,100.694,120.948,103.473z"/>
	<path fill="#3A312A" d="M157.376,103.473c0,2.78-2.254,5.033-5.035,5.033c-2.781,0-5.035-2.253-5.035-5.033
		c0-2.779,2.254-5.033,5.035-5.033C155.122,98.441,157.376,100.694,157.376,103.473z"/>
	<path fill="#F59689" d="M114.523,118.436c0,3.579-3.884,6.481-8.674,6.481c-4.79,0-8.674-2.902-8.674-6.481
		c0-3.579,3.884-6.481,8.674-6.481C110.639,111.955,114.523,114.857,114.523,118.436z"/>
	<path fill="#F59689" d="M171.079,118.436c0,3.579-3.883,6.481-8.674,6.481c-4.791,0-8.674-2.902-8.674-6.481
		c0-3.579,3.884-6.481,8.674-6.481C167.195,111.955,171.079,114.857,171.079,118.436z"/>
	<path fill="#3A312A" d="M134.125,147.38c-7.285,0-12.536-3.271-15.609-9.723c-0.356-0.748-0.039-1.643,0.709-1.999
		c0.749-0.357,1.644-0.039,1.999,0.709c2.568,5.392,6.788,8.013,12.901,8.013c7.825,0,11.828-5.164,12.851-7.895
		c0.292-0.777,1.158-1.167,1.931-0.878c0.776,0.291,1.169,1.155,0.878,1.931C148.009,142.279,142.35,147.38,134.125,147.38z"/>
	<path fill="#8AC3DA" d="M183.869,54.145c-0.809,0-1.603,0.058-2.384,0.16c2.087-2.968,3.316-6.582,3.316-10.485
		c0-10.081-8.172-18.253-18.253-18.253c-5.841,0-11.038,2.747-14.379,7.017c-1.103-9.025-8.788-16.016-18.111-16.016
		c-9.323,0-17.008,6.991-18.111,16.016c-3.341-4.269-8.537-7.017-14.379-7.017c-10.081,0-18.253,8.172-18.253,18.253
		c0,3.904,1.229,7.518,3.316,10.485c-0.781-0.102-1.576-0.16-2.384-0.16c-10.081,0-18.253,8.172-18.253,18.253
		S74.168,90.65,84.249,90.65c0.295,0,0.587-0.008,0.878-0.022c2.952,6.106,9.205,10.318,16.442,10.318
		c8.874,0,16.266-6.334,17.909-14.728c3.331,4.417,8.622,7.274,14.581,7.274c5.959,0,11.249-2.857,14.581-7.274
		c1.643,8.393,9.035,14.728,17.909,14.728c7.237,0,13.49-4.212,16.442-10.318c0.291,0.014,0.584,0.022,0.879,0.022
		c10.08,0,18.252-8.172,18.252-18.253S193.95,54.145,183.869,54.145z"/>
	<path fill="#3A312A" d="M166.549,102.445c-8.442,0-15.863-5.38-18.616-13.142c-3.675,3.644-8.595,5.688-13.873,5.688
		c-5.279,0-10.2-2.044-13.874-5.688c-2.754,7.761-10.175,13.142-18.616,13.142c-7.203,0-13.906-4.01-17.345-10.295
		c-10.88-0.013-19.728-8.869-19.728-19.753c0-10.774,8.671-19.562,19.402-19.75c-1.368-2.727-2.082-5.731-2.082-8.828
		c0-10.892,8.861-19.753,19.752-19.753c5.082,0,9.859,1.913,13.496,5.331c2.375-8.35,10.067-14.331,18.995-14.331
		c8.927,0,16.62,5.98,18.994,14.331c3.636-3.418,8.414-5.331,13.496-5.331c10.892,0,19.752,8.861,19.752,19.753
		c0,3.097-0.713,6.101-2.082,8.828c10.73,0.188,19.402,8.975,19.402,19.75c0,10.884-8.848,19.74-19.728,19.753
		C180.455,98.435,173.751,102.445,166.549,102.445z M148.64,84.718c0.112,0,0.225,0.013,0.337,0.038
		c0.577,0.133,1.021,0.593,1.135,1.174c1.533,7.831,8.445,13.516,16.437,13.516c6.386,0,12.31-3.717,15.091-9.471
		c0.262-0.541,0.835-0.868,1.421-0.846c0.268,0.013,0.537,0.021,0.808,0.021c9.237,0,16.752-7.515,16.752-16.753
		c0-9.237-7.515-16.753-16.752-16.753c-0.704,0-1.44,0.05-2.19,0.147c-0.587,0.078-1.17-0.202-1.478-0.711
		c-0.308-0.509-0.286-1.152,0.057-1.639c1.991-2.831,3.043-6.159,3.043-9.623c0-9.238-7.515-16.753-16.752-16.753
		c-5.184,0-9.994,2.348-13.197,6.441c-0.374,0.478-0.999,0.683-1.583,0.521c-0.584-0.163-1.014-0.661-1.087-1.263
		c-1.025-8.379-8.171-14.698-16.622-14.698c-8.452,0-15.598,6.319-16.623,14.698c-0.073,0.602-0.502,1.101-1.087,1.263
		c-0.583,0.162-1.209-0.043-1.583-0.521c-3.204-4.093-8.014-6.441-13.197-6.441c-9.237,0-16.752,7.515-16.752,16.753
		c0,3.464,1.052,6.792,3.044,9.623c0.342,0.487,0.364,1.13,0.057,1.639c-0.308,0.509-0.889,0.788-1.478,0.711
		c-0.749-0.098-1.486-0.147-2.19-0.147c-9.237,0-16.752,7.515-16.752,16.753c0,9.238,7.515,16.753,16.752,16.753
		c0.271,0,0.541-0.008,0.808-0.021c0.597-0.022,1.16,0.305,1.421,0.846c2.781,5.753,8.705,9.471,15.091,9.471
		c7.991,0,14.904-5.684,16.437-13.516c0.114-0.581,0.559-1.041,1.135-1.174c0.578-0.13,1.178,0.086,1.535,0.559
		c3.2,4.244,8.078,6.677,13.383,6.677c5.305,0,10.182-2.434,13.383-6.677C147.729,84.934,148.175,84.718,148.64,84.718z"/>
	<path fill="#3A312A" d="M134.059,54.572c-10.892,0-19.753-8.861-19.753-19.752s8.861-19.752,19.753-19.752
		c0.829,0,1.5,0.671,1.5,1.5s-0.671,1.5-1.5,1.5c-9.238,0-16.753,7.515-16.753,16.752s7.515,16.752,16.753,16.752
		c0.829,0,1.5,0.671,1.5,1.5C135.559,53.9,134.888,54.572,134.059,54.572z"/>
	<path fill="#3A312A" d="M101.569,102.445c-10.892,0-19.752-8.861-19.752-19.752s8.861-19.753,19.752-19.753
		c0.829,0,1.5,0.671,1.5,1.5s-0.671,1.5-1.5,1.5c-9.237,0-16.752,7.515-16.752,16.753s7.515,16.752,16.752,16.752
		c0.829,0,1.5,0.671,1.5,1.5C103.069,101.774,102.397,102.445,101.569,102.445z"/>
	<path fill="#3A312A" d="M134.059,94.992c-0.829,0-1.5-0.671-1.5-1.5s0.671-1.5,1.5-1.5c9.237,0,16.752-7.515,16.752-16.752
		c0-0.829,0.671-1.5,1.5-1.5s1.5,0.671,1.5,1.5C153.811,86.131,144.951,94.992,134.059,94.992z"/>
	<path fill="#3A312A" d="M167.546,66.959c-0.829,0-1.5-0.671-1.5-1.5c0-9.237-7.515-16.752-16.753-16.752
		c-0.829,0-1.5-0.671-1.5-1.5c0-0.829,0.671-1.5,1.5-1.5c10.892,0,19.753,8.861,19.753,19.752
		C169.046,66.288,168.375,66.959,167.546,66.959z"/>
	<circle fill="#8AC3DA" cx="202.559" cy="27.445" r="11"/>
	<path fill="#3A312A" d="M202.559,39.945c-6.893,0-12.5-5.607-12.5-12.5s5.607-12.5,12.5-12.5c6.893,0,12.5,5.607,12.5,12.5
		S209.452,39.945,202.559,39.945z M202.559,17.945c-5.238,0-9.5,4.262-9.5,9.5s4.262,9.5,9.5,9.5c5.238,0,9.5-4.262,9.5-9.5
		S207.797,17.945,202.559,17.945z"/>
	<circle fill="#8AC3DA" cx="44.059" cy="80.946" r="9.5"/>
	<path fill="#3A312A" d="M44.059,91.945c-6.065,0-11-4.935-11-11s4.935-11,11-11s11,4.935,11,11S50.124,91.945,44.059,91.945z
		 M44.059,72.945c-4.411,0-8,3.589-8,8c0,4.411,3.589,8,8,8c4.411,0,8-3.589,8-8C52.059,76.534,48.47,72.945,44.059,72.945z"/>
	<circle fill="#8AC3DA" cx="224.059" cy="69.946" r="9.5"/>
	<path fill="#3A312A" d="M224.059,80.945c-6.065,0-11-4.935-11-11s4.935-11,11-11s11,4.935,11,11S230.124,80.945,224.059,80.945z
		 M224.059,61.945c-4.411,0-8,3.589-8,8c0,4.411,3.589,8,8,8c4.411,0,8-3.589,8-8C232.059,65.534,228.47,61.945,224.059,61.945z"/>
</g>
</svg>
