<?xml version="1.0" encoding="utf-8"?>
<!-- Generator: Adobe Illustrator 24.0.0, SVG Export Plug-In . SVG Version: 6.00 Build 0)  -->
<svg version="1.1" id="Layer_1" xmlns="http://www.w3.org/2000/svg" xmlns:xlink="http://www.w3.org/1999/xlink" x="0px" y="0px"
	 viewBox="0 0 256 256" enable-background="new 0 0 256 256" xml:space="preserve">
<g>
	<path fill="#F16C7A" d="M66.908,128.202v95.148c0,8.89,7.21,16.09,16.09,16.09h49.94c8.88,0,16.09-7.2,16.09-16.09V113.47
		c0-8.89-7.21-16.09-16.09-16.09h-49.94c-8.88,0-16.09,7.2-16.09,16.09v0.828V128.202z"/>
	<path fill="#3A312A" d="M132.939,240.94H82.998c-9.699,0-17.59-7.891-17.59-17.59v-95.148c0-0.829,0.672-1.5,1.5-1.5
		c0.828,0,1.5,0.671,1.5,1.5v95.148c0,8.045,6.545,14.59,14.59,14.59h49.941c8.045,0,14.59-6.545,14.59-14.59V113.47
		c0-8.045-6.545-14.59-14.59-14.59H82.998c-8.045,0-14.59,6.545-14.59,14.59v0.828c0,0.829-0.672,1.5-1.5,1.5
		c-0.828,0-1.5-0.671-1.5-1.5v-0.828c0-9.699,7.891-17.59,17.59-17.59h49.941c9.699,0,17.59,7.891,17.59,17.59v109.88
		C150.528,233.049,142.638,240.94,132.939,240.94z"/>
	<polygon fill="#FCE8CB" points="130.644,209.761 149.029,209.761 149.029,130.261 66.908,130.261 66.908,209.761 117.4,209.761 	
		"/>
	<path fill="#3A312A" d="M149.028,211.261h-18.385c-0.828,0-1.5-0.671-1.5-1.5c0-0.829,0.672-1.5,1.5-1.5h16.885v-76.5h-79.12v76.5
		H117.4c0.828,0,1.5,0.671,1.5,1.5c0,0.829-0.672,1.5-1.5,1.5H66.908c-0.828,0-1.5-0.671-1.5-1.5v-79.5c0-0.829,0.672-1.5,1.5-1.5
		h82.12c0.828,0,1.5,0.671,1.5,1.5v79.5C150.528,210.589,149.856,211.261,149.028,211.261z"/>
	<path fill="#87796F" d="M116.289,192.204c0,4.233-3.432,7.664-7.664,7.664c-4.233,0-7.665-3.431-7.665-7.664
		c0-3.396,2.775-8.317,3.568-15.982c1.498-14.486-5.911-36.068-4.757-36.068C101.224,140.153,116.289,172.521,116.289,192.204z"/>
	<path fill="#3A312A" d="M108.624,201.368c-5.053,0-9.164-4.111-9.164-9.164c0-1.752,0.582-3.654,1.318-6.061
		c0.818-2.675,1.837-6.005,2.258-10.075c0.983-9.497-1.962-22.111-3.721-29.648c-1.246-5.339-1.471-6.302-0.786-7.165
		c0.285-0.358,0.783-0.601,1.241-0.601c0.86,0,1.54,0,4.545,6.212c1.846,3.816,3.857,8.577,5.664,13.407
		c2.917,7.795,7.81,22.57,7.81,33.932C117.789,197.257,113.678,201.368,108.624,201.368z M103.032,149.182
		c1.757,7.761,3.881,18.566,2.988,27.194c-0.451,4.36-1.518,7.845-2.374,10.644c-0.663,2.167-1.186,3.88-1.186,5.184
		c0,3.399,2.766,6.164,6.164,6.164c3.399,0,6.165-2.765,6.165-6.164C114.789,179.208,107.816,159.921,103.032,149.182z"/>
	<path fill="#D7E057" d="M58.679,26.237c0,0,3.408,12.659,13.222,13.246c0,0-13.1,4.525-13.321,14.202
		c0,0-2.578-13.572-12.925-14.059C45.655,39.626,57.706,37.801,58.679,26.237z"/>
	<path fill="#3A312A" d="M58.579,55.185c-0.713,0-1.335-0.506-1.473-1.217c-0.023-0.124-2.494-12.417-11.521-12.842
		c-0.771-0.037-1.388-0.651-1.428-1.421c-0.04-0.771,0.511-1.445,1.273-1.561c0.441-0.069,10.895-1.817,11.754-12.033
		c0.061-0.725,0.635-1.301,1.359-1.367c0.736-0.063,1.394,0.399,1.584,1.101c0.031,0.116,3.259,11.626,11.863,12.141
		c0.714,0.043,1.298,0.584,1.396,1.292c0.098,0.708-0.318,1.388-0.994,1.623c-0.121,0.042-12.119,4.31-12.313,12.819
		c-0.018,0.767-0.61,1.396-1.375,1.459C58.663,55.183,58.621,55.185,58.579,55.185z M50.839,39.455
		c3.878,1.969,6.229,5.746,7.586,8.876c2.026-4.021,5.941-6.787,8.949-8.427c-4.134-1.842-6.783-5.651-8.334-8.722
		C57.247,35.542,53.769,38.05,50.839,39.455z"/>
	<path fill="#D7E057" d="M36.981,43.217c0,0,2.411,8.954,9.352,9.369c0,0-9.266,3.201-9.422,10.046c0,0-1.824-9.6-9.142-9.944
		C27.768,52.688,36.292,51.397,36.981,43.217z"/>
	<path fill="#3A312A" d="M36.909,64.132c-0.714,0-1.337-0.507-1.473-1.22c-0.016-0.082-1.703-8.441-7.738-8.726
		c-0.771-0.037-1.388-0.651-1.428-1.421c-0.04-0.771,0.511-1.445,1.273-1.56c0.296-0.047,7.363-1.243,7.942-8.114
		c0.061-0.726,0.636-1.303,1.361-1.368c0.718-0.058,1.392,0.4,1.581,1.102l0,0c0.022,0.079,2.229,7.92,7.995,8.265
		c0.714,0.043,1.299,0.584,1.396,1.293c0.097,0.709-0.32,1.388-0.997,1.622c-0.08,0.028-8.282,2.952-8.412,8.662
		c-0.018,0.767-0.611,1.398-1.377,1.461C36.992,64.131,36.95,64.132,36.909,64.132z M32.391,52.604
		c2.107,1.333,3.524,3.395,4.447,5.28c1.376-2.232,3.515-3.872,5.364-4.972c-2.286-1.27-3.884-3.35-4.941-5.224
		C36.088,49.975,34.246,51.563,32.391,52.604z"/>
	<path fill="#D7E057" d="M36.981,16.56c0,0,2.411,8.954,9.352,9.37c0,0-9.266,3.201-9.422,10.045c0,0-1.824-9.6-9.142-9.944
		C27.768,26.031,36.292,24.739,36.981,16.56z"/>
	<path fill="#3A312A" d="M36.909,37.475c-0.714,0-1.337-0.507-1.473-1.22c-0.016-0.082-1.703-8.442-7.738-8.726
		c-0.771-0.037-1.388-0.651-1.428-1.421c-0.04-0.771,0.511-1.445,1.273-1.561c0.296-0.047,7.363-1.243,7.942-8.114
		c0.061-0.726,0.636-1.303,1.361-1.368c0.718-0.056,1.392,0.399,1.581,1.102l0,0c0.022,0.079,2.229,7.92,7.995,8.265
		c0.714,0.043,1.299,0.584,1.396,1.293c0.097,0.709-0.32,1.388-0.996,1.622c-0.081,0.028-8.283,2.953-8.413,8.662
		c-0.018,0.767-0.611,1.397-1.377,1.461C36.992,37.474,36.95,37.475,36.909,37.475z M32.391,25.947
		c2.107,1.333,3.524,3.394,4.447,5.28c1.376-2.232,3.515-3.872,5.364-4.973c-2.286-1.269-3.884-3.35-4.941-5.224
		C36.088,23.317,34.246,24.906,32.391,25.947z"/>
	<rect x="82.705" y="81.252" fill="#87796F" width="50.526" height="16.127"/>
	<path fill="#3A312A" d="M133.231,98.879H82.705c-0.828,0-1.5-0.671-1.5-1.5V81.252c0-0.829,0.672-1.5,1.5-1.5h50.526
		c0.828,0,1.5,0.671,1.5,1.5v16.126C134.731,98.207,134.06,98.879,133.231,98.879z M84.205,95.879h47.526V82.752H84.205V95.879z"/>
	<path fill="#87796F" d="M133.85,81.252H82.087c-3.524,0-6.382-2.857-6.382-6.381V63.882c0-3.524,2.857-6.382,6.382-6.382h51.763
		c3.524,0,6.382,2.857,6.382,6.382v10.989C140.232,78.395,137.374,81.252,133.85,81.252z"/>
	<path fill="#3A312A" d="M133.851,82.752H82.087c-4.346,0-7.882-3.536-7.882-7.882V63.882c0-4.346,3.536-7.882,7.882-7.882h51.764
		c4.346,0,7.881,3.536,7.881,7.882v10.989C141.731,79.217,138.196,82.752,133.851,82.752z M82.087,59
		c-2.691,0-4.882,2.19-4.882,4.882v10.989c0,2.692,2.19,4.882,4.882,4.882h51.764c2.691,0,4.881-2.19,4.881-4.882V63.882
		c0-2.692-2.189-4.882-4.881-4.882H82.087z"/>
	<path fill="#87796F" d="M107.968,16.56L107.968,16.56c-6.089,0-11.026,4.937-11.026,11.026V57.5h22.052V27.586
		C118.995,21.497,114.058,16.56,107.968,16.56z"/>
	<path fill="#3A312A" d="M118.995,59H96.942c-0.828,0-1.5-0.671-1.5-1.5V27.586c0-6.907,5.619-12.526,12.526-12.526
		c6.907,0,12.526,5.619,12.526,12.526V57.5C120.495,58.329,119.823,59,118.995,59z M98.442,56h19.053V27.586
		c0-5.253-4.273-9.526-9.526-9.526c-5.253,0-9.526,4.273-9.526,9.526V56z"/>
	<path fill="#87796F" d="M221.85,81.252h-51.763c-3.524,0-6.382-2.857-6.382-6.381V63.882c0-3.524,2.857-6.382,6.382-6.382h51.763
		c3.524,0,6.382,2.857,6.382,6.382v10.989C228.232,78.395,225.374,81.252,221.85,81.252z"/>
	<path fill="#3A312A" d="M221.851,82.752h-51.764c-4.346,0-7.882-3.536-7.882-7.882V63.882c0-4.346,3.536-7.882,7.882-7.882h51.764
		c4.346,0,7.881,3.536,7.881,7.882v10.989C229.731,79.217,226.196,82.752,221.851,82.752z M170.087,59
		c-2.691,0-4.882,2.19-4.882,4.882v10.989c0,2.692,2.19,4.882,4.882,4.882h51.764c2.691,0,4.881-2.19,4.881-4.882V63.882
		c0-2.692-2.189-4.882-4.881-4.882H170.087z"/>
	<path fill="#87796F" d="M195.969,16.56L195.969,16.56c-6.09,0-11.026,4.937-11.026,11.026V57.5h22.052V27.586
		C206.995,21.497,202.058,16.56,195.969,16.56z"/>
	<path fill="#3A312A" d="M206.995,59h-22.053c-0.828,0-1.5-0.671-1.5-1.5V27.586c0-6.907,5.619-12.526,12.526-12.526
		c6.907,0,12.526,5.619,12.526,12.526V57.5C208.495,58.329,207.823,59,206.995,59z M186.442,56h19.053V27.586
		c0-5.253-4.273-9.526-9.526-9.526c-5.253,0-9.526,4.273-9.526,9.526V56z"/>
	<path fill="#FCE8CB" d="M184.939,81.253h22.06v81.87c0,6.092-4.938,11.03-11.03,11.03l0,0c-6.092,0-11.03-4.938-11.03-11.03V81.253
		z"/>
	<path fill="#3A312A" d="M195.969,175.653c-6.909,0-12.53-5.621-12.53-12.53v-81.87c0-0.829,0.672-1.5,1.5-1.5h22.059
		c0.828,0,1.5,0.671,1.5,1.5v81.87C208.498,170.033,202.877,175.653,195.969,175.653z M186.439,82.753v80.37
		c0,5.255,4.275,9.53,9.53,9.53c5.255,0,9.529-4.275,9.529-9.53v-80.37H186.439z"/>
	<path fill="#D7E057" d="M183.802,205.704c-2.976,5.989-5.283,12.174-5.271,16.105c0.012,4.001,1.354,7.686,3.6,10.64
		c3.24,4.263,8.374,7.008,14.142,6.991c5.727-0.017,10.812-2.757,14.031-6.991c2.266-2.986,3.608-6.709,3.596-10.746
		c-0.029-9.769-14.436-33.36-17.787-33.352c-1.476,0.005-5.071,4.608-8.628,10.589L183.802,205.704z"/>
	<path fill="#3A312A" d="M196.22,240.94c-6.051,0-11.618-2.762-15.283-7.583c-2.542-3.343-3.893-7.334-3.905-11.543
		c-0.015-5.063,3.394-12.685,5.427-16.777c0.009-0.017,0.018-0.033,0.026-0.05l3.684-6.764c4.491-7.555,7.826-11.364,9.939-11.372
		c0.002,0,0.003,0,0.005,0c3.304,0,9.104,9.629,11.445,13.771c1.835,3.245,7.822,14.355,7.842,21.076
		c0.014,4.246-1.336,8.277-3.901,11.657c-3.65,4.803-9.198,7.567-15.222,7.584C196.258,240.94,196.238,240.94,196.22,240.94z
		 M185.133,206.396c-3.252,6.55-5.111,12.165-5.102,15.409c0.011,3.55,1.149,6.917,3.294,9.736
		c3.104,4.082,7.814,6.371,12.943,6.399c5.08-0.015,9.761-2.347,12.841-6.399c2.163-2.85,3.302-6.251,3.29-9.833
		c-0.025-8.852-12.913-30.053-16.272-31.802c-0.873,0.526-3.504,3.329-7.353,9.8L185.133,206.396z"/>
	<path fill="#D04E5D" d="M147.526,113.473v15.29h-15v-15.29c0-8.05-6.54-14.59-14.59-14.59h15
		C140.986,98.883,147.526,105.423,147.526,113.473z"/>
	<path fill="#D04E5D" d="M147.526,211.263v12.09c0,8.04-6.54,14.59-14.59,14.59h-15c8.05,0,14.59-6.55,14.59-14.59v-12.09H147.526z"
		/>
	<path fill="#DECAAD" d="M132.526,131.763v76.5h15v-76.5H132.526z"/>
</g>
</svg>
