<?xml version="1.0" encoding="utf-8"?>
<!-- Generator: Adobe Illustrator 24.0.0, SVG Export Plug-In . SVG Version: 6.00 Build 0)  -->
<svg version="1.1" id="Layer_1" xmlns="http://www.w3.org/2000/svg" xmlns:xlink="http://www.w3.org/1999/xlink" x="0px" y="0px"
	 viewBox="0 0 256 256" enable-background="new 0 0 256 256" xml:space="preserve">
<g>
	<path fill="#D7E057" d="M197.502,26.056c0,0,3.408,12.659,13.222,13.246c0,0-13.1,4.525-13.321,14.202
		c0,0-2.578-13.572-12.925-14.059C184.478,39.445,196.528,37.619,197.502,26.056z"/>
	<path fill="#3A312A" d="M197.401,55.003c-0.713,0-1.335-0.506-1.473-1.217c-0.023-0.124-2.494-12.417-11.521-12.842
		c-0.77-0.037-1.388-0.651-1.428-1.421c-0.04-0.771,0.511-1.445,1.273-1.561c0.441-0.069,10.895-1.817,11.754-12.033
		c0.062-0.725,0.635-1.301,1.359-1.367c0.736-0.062,1.394,0.4,1.584,1.102c0.031,0.116,3.259,11.626,11.863,12.14
		c0.714,0.043,1.297,0.584,1.396,1.292c0.098,0.708-0.318,1.388-0.994,1.623c-0.121,0.042-12.118,4.311-12.313,12.819
		c-0.018,0.767-0.611,1.396-1.375,1.459C197.485,55.002,197.443,55.003,197.401,55.003z M189.661,39.274
		c3.878,1.969,6.229,5.746,7.586,8.876c2.026-4.021,5.942-6.787,8.949-8.427c-4.134-1.842-6.783-5.651-8.334-8.722
		C196.069,35.361,192.592,37.869,189.661,39.274z"/>
	<path fill="#D7E057" d="M175.803,43.036c0,0,2.411,8.954,9.352,9.369c0,0-9.266,3.201-9.422,10.045c0,0-1.824-9.6-9.142-9.944
		C166.591,52.507,175.114,51.215,175.803,43.036z"/>
	<path fill="#3A312A" d="M175.732,63.951c-0.714,0-1.337-0.507-1.473-1.22c-0.016-0.082-1.704-8.442-7.739-8.726
		c-0.77-0.037-1.388-0.651-1.428-1.421c-0.04-0.771,0.511-1.445,1.273-1.561c0.296-0.047,7.363-1.243,7.942-8.114
		c0.062-0.726,0.636-1.303,1.361-1.368c0.717-0.056,1.392,0.399,1.582,1.102l0,0c0.021,0.079,2.226,7.919,7.993,8.264
		c0.714,0.043,1.299,0.584,1.396,1.293c0.097,0.709-0.32,1.388-0.996,1.622c-0.081,0.028-8.282,2.953-8.412,8.662
		c-0.018,0.767-0.611,1.397-1.376,1.461C175.815,63.949,175.773,63.951,175.732,63.951z M171.213,52.423
		c2.107,1.333,3.523,3.394,4.447,5.28c1.376-2.232,3.515-3.872,5.365-4.973c-2.287-1.269-3.885-3.35-4.941-5.224
		C174.91,49.793,173.068,51.382,171.213,52.423z"/>
	<path fill="#D7E057" d="M175.803,16.378c0,0,2.411,8.954,9.352,9.37c0,0-9.266,3.201-9.422,10.045c0,0-1.824-9.6-9.142-9.944
		C166.591,25.849,175.114,24.558,175.803,16.378z"/>
	<path fill="#3A312A" d="M175.732,37.293c-0.714,0-1.337-0.507-1.473-1.22c-0.016-0.082-1.704-8.442-7.739-8.726
		c-0.77-0.037-1.388-0.651-1.428-1.421c-0.04-0.771,0.511-1.445,1.273-1.561c0.296-0.047,7.363-1.243,7.942-8.114
		c0.062-0.726,0.636-1.303,1.361-1.368c0.717-0.063,1.392,0.399,1.582,1.101l0,0c0.021,0.079,2.226,7.92,7.993,8.265
		c0.714,0.043,1.299,0.584,1.396,1.293c0.097,0.709-0.32,1.388-0.996,1.622c-0.081,0.028-8.282,2.952-8.412,8.662
		c-0.018,0.767-0.611,1.398-1.376,1.461C175.815,37.292,175.773,37.293,175.732,37.293z M171.213,25.766
		c2.107,1.333,3.523,3.395,4.447,5.28c1.376-2.232,3.516-3.872,5.365-4.972c-2.287-1.27-3.885-3.35-4.941-5.224
		C174.91,23.136,173.069,24.725,171.213,25.766z"/>
	<path fill="#87796F" d="M147.407,99.91c1.421-5.409,2.184-11.084,2.184-16.938c0-36.727-29.773-66.5-66.5-66.5
		s-66.5,29.773-66.5,66.5c0,5.854,0.763,11.53,2.184,16.938c-1.421,3.267-2.184,6.695-2.184,10.232c0,4.314,1.138,8.465,3.222,12.36
		c-2.084,3.895-3.222,8.046-3.222,12.36c0,4.314,1.138,8.465,3.222,12.36c-2.084,3.895-3.222,8.046-3.222,12.36
		c0,4.314,1.138,8.465,3.222,12.36c-2.084,3.895-3.222,8.046-3.222,12.36c0,22.185,29.773,40.17,66.5,40.17s66.5-17.985,66.5-40.17
		c0-4.314-1.138-8.465-3.222-12.36c2.084-3.895,3.222-8.046,3.222-12.36c0-4.314-1.138-8.465-3.222-12.36
		c2.084-3.895,3.222-8.046,3.222-12.36c0-4.314-1.138-8.465-3.222-12.36c2.084-3.895,3.222-8.046,3.222-12.36
		C149.591,106.605,148.828,103.178,147.407,99.91z"/>
	<path fill="#3A312A" d="M83.091,225.972c-37.495,0-68-18.693-68-41.67c0-4.206,1.02-8.36,3.032-12.36
		c-2.013-4-3.032-8.154-3.032-12.36c0-4.206,1.02-8.36,3.032-12.36c-2.013-4.001-3.032-8.154-3.032-12.36
		c0-4.206,1.02-8.36,3.032-12.36c-2.013-4-3.032-8.154-3.032-12.36c0-3.496,0.707-6.975,2.104-10.349
		c-1.397-5.487-2.104-11.144-2.104-16.821c0-37.495,30.505-68,68-68s68,30.505,68,68c0,5.676-0.708,11.333-2.105,16.821
		c1.396,3.374,2.105,6.854,2.105,10.349c0,4.206-1.02,8.36-3.032,12.36c2.013,4,3.032,8.155,3.032,12.36
		c0,4.205-1.02,8.359-3.032,12.36c2.013,4,3.032,8.154,3.032,12.36c0,4.206-1.02,8.36-3.032,12.36
		c2.013,4.001,3.032,8.155,3.032,12.36C151.091,207.279,120.586,225.972,83.091,225.972z M83.091,17.972c-35.841,0-65,29.159-65,65
		c0,5.592,0.718,11.163,2.135,16.557c0.085,0.325,0.059,0.67-0.075,0.979c-1.367,3.144-2.06,6.385-2.06,9.634
		c0,3.956,1.024,7.876,3.045,11.652c0.236,0.442,0.236,0.973,0,1.415c-2.021,3.777-3.045,7.698-3.045,11.653
		c0,3.955,1.024,7.875,3.045,11.652c0.236,0.442,0.236,0.973,0,1.415c-2.021,3.776-3.045,7.697-3.045,11.652
		c0,3.956,1.024,7.876,3.045,11.652c0.236,0.442,0.236,0.973,0,1.415c-2.021,3.777-3.045,7.698-3.045,11.653
		c0,21.323,29.159,38.67,65,38.67s65-17.347,65-38.67c0-3.955-1.024-7.875-3.044-11.653c-0.237-0.442-0.237-0.973,0-1.415
		c2.02-3.777,3.044-7.697,3.044-11.652c0-3.955-1.024-7.876-3.044-11.652c-0.237-0.442-0.237-0.973,0-1.415
		c2.02-3.777,3.044-7.698,3.044-11.652c0-3.955-1.024-7.876-3.044-11.653c-0.237-0.442-0.237-0.973,0-1.415
		c2.02-3.777,3.044-7.697,3.044-11.652c0-3.248-0.692-6.49-2.06-9.634c-0.134-0.309-0.16-0.653-0.075-0.979
		c1.417-5.395,2.135-10.965,2.135-16.557C148.091,47.131,118.932,17.972,83.091,17.972z"/>
	<path fill="#F8E4C8" d="M119.055,183.271h-19.54v-18.799H66.678v18.799H47.126c-16.335,0-29.576,13.234-29.576,29.56v26.788h131.08
		v-26.788C148.631,196.505,135.39,183.271,119.055,183.271z"/>
	<path fill="#3A312A" d="M148.631,241.119H17.551c-0.829,0-1.5-0.671-1.5-1.5v-26.788c0-17.127,13.94-31.061,31.076-31.061h18.052
		v-17.298c0-0.829,0.671-1.5,1.5-1.5h32.836c0.829,0,1.5,0.671,1.5,1.5v17.298h18.04c17.136,0,31.076,13.934,31.076,31.061v26.788
		C150.131,240.448,149.459,241.119,148.631,241.119z M19.051,238.119h128.08v-25.288c0-15.473-12.595-28.061-28.076-28.061h-19.54
		c-0.829,0-1.5-0.671-1.5-1.5v-17.298H68.178v17.298c0,0.829-0.671,1.5-1.5,1.5H47.126c-15.481,0-28.076,12.588-28.076,28.061
		V238.119z"/>
	<path fill="#EB6E7A" d="M101.921,211.046H17.609c-0.035,0.588-0.058,1.179-0.058,1.776v26.799h131.08v-26.799
		c0-0.597-0.023-1.188-0.058-1.776h-33.068H101.921z"/>
	<path fill="#3A312A" d="M148.631,241.122H17.551c-0.829,0-1.5-0.671-1.5-1.5v-26.799c0-0.626,0.024-1.247,0.06-1.864
		c0.047-0.792,0.704-1.412,1.498-1.412h84.312c0.829,0,1.5,0.671,1.5,1.5s-0.671,1.5-1.5,1.5H19.053
		c-0.001,0.092-0.001,0.184-0.001,0.276v25.299h128.08v-25.299c0-0.092-0.001-0.184-0.002-0.276h-31.623c-0.829,0-1.5-0.671-1.5-1.5
		s0.671-1.5,1.5-1.5h33.068c0.794,0,1.45,0.618,1.497,1.411c0.037,0.617,0.061,1.238,0.061,1.865v26.799
		C150.131,240.45,149.459,241.122,148.631,241.122z"/>
	<path fill-rule="evenodd" clip-rule="evenodd" fill="#F8E4C8" d="M43.941,109.992c0,6.424-5.21,11.631-11.638,11.631
		c-6.427,0-11.637-5.207-11.637-11.631c0-6.424,5.21-11.632,11.637-11.632C38.731,98.36,43.941,103.568,43.941,109.992z"/>
	<path fill="#3A312A" d="M32.304,123.123c-7.244,0-13.137-5.891-13.137-13.131S25.06,96.86,32.304,96.86
		c7.244,0,13.138,5.891,13.138,13.131S39.548,123.123,32.304,123.123z M32.304,99.86c-5.59,0-10.137,4.545-10.137,10.131
		s4.547,10.131,10.137,10.131c5.59,0,10.138-4.545,10.138-10.131S37.894,99.86,32.304,99.86z"/>
	
		<ellipse transform="matrix(0.0021 -1 1 0.0021 23.6111 243.6433)" fill-rule="evenodd" clip-rule="evenodd" fill="#F8E4C8" cx="133.878" cy="109.992" rx="11.631" ry="11.637"/>
	<path fill="#3A312A" d="M133.878,123.123c-7.244,0-13.137-5.891-13.137-13.131s5.894-13.131,13.137-13.131
		c7.244,0,13.138,5.891,13.138,13.131S141.122,123.123,133.878,123.123z M133.878,99.86c-5.59,0-10.137,4.545-10.137,10.131
		s4.547,10.131,10.137,10.131c5.59,0,10.138-4.545,10.138-10.131S139.468,99.86,133.878,99.86z"/>
	<path fill="#F8E4C8" d="M134.682,104.345c0,28.478-27.44,72.189-51.59,72.189c-23.051,0-51.59-43.711-51.59-72.189
		c0-28.478,23.098-51.563,51.59-51.563C111.585,52.782,134.682,75.868,134.682,104.345z"/>
	<path fill="#3A312A" d="M83.092,178.034c-11.055,0-24.391-9.743-35.673-26.062c-10.743-15.539-17.417-33.789-17.417-47.626
		c0-29.259,23.816-53.064,53.09-53.064s53.09,23.804,53.09,53.064c0,13.995-6.514,32.241-17,47.618
		C107.885,168.532,94.731,178.034,83.092,178.034z M83.092,54.282c-27.62,0-50.09,22.458-50.09,50.064
		c0,13.261,6.47,30.856,16.885,45.92c10.722,15.509,23.135,24.768,33.205,24.768c10.475,0,23.04-9.256,33.612-24.76
		c10.164-14.906,16.478-32.504,16.478-45.928C133.183,76.741,110.712,54.282,83.092,54.282z"/>
	<path fill="#3A312A" d="M69.912,103.763c0,2.78-2.254,5.033-5.035,5.033c-2.781,0-5.035-2.253-5.035-5.033
		c0-2.779,2.254-5.033,5.035-5.033C67.658,98.73,69.912,100.984,69.912,103.763z"/>
	<path fill="#3A312A" d="M106.34,103.763c0,2.78-2.254,5.033-5.035,5.033c-2.781,0-5.035-2.253-5.035-5.033
		c0-2.779,2.254-5.033,5.035-5.033C104.086,98.73,106.34,100.984,106.34,103.763z"/>
	<path fill="#F59689" d="M63.487,118.726c0,3.579-3.884,6.481-8.674,6.481c-4.791,0-8.674-2.902-8.674-6.481
		c0-3.58,3.884-6.481,8.674-6.481C59.604,112.245,63.487,115.146,63.487,118.726z"/>
	<path fill="#F59689" d="M120.043,118.726c0,3.579-3.884,6.481-8.674,6.481c-4.79,0-8.674-2.902-8.674-6.481
		c0-3.58,3.884-6.481,8.674-6.481C116.159,112.245,120.043,115.146,120.043,118.726z"/>
	<path fill="#3A312A" d="M41.507,241.122c-0.829,0-1.5-0.671-1.5-1.5v-21.172c0-0.829,0.671-1.5,1.5-1.5c0.829,0,1.5,0.671,1.5,1.5
		v21.172C43.007,240.45,42.335,241.122,41.507,241.122z"/>
	<path fill="#3A312A" d="M124.675,241.122c-0.829,0-1.5-0.671-1.5-1.5v-21.172c0-0.829,0.671-1.5,1.5-1.5c0.829,0,1.5,0.671,1.5,1.5
		v21.172C126.175,240.45,125.504,241.122,124.675,241.122z"/>
	<path fill="#3A312A" d="M83.091,147.67c-7.285,0-12.537-3.271-15.609-9.723c-0.356-0.748-0.038-1.643,0.71-1.999
		c0.749-0.355,1.643-0.038,1.999,0.709c2.568,5.392,6.788,8.013,12.9,8.013c7.825,0,11.828-5.164,12.851-7.895
		c0.292-0.777,1.157-1.168,1.931-0.878c0.776,0.291,1.169,1.155,0.878,1.931C96.975,142.569,91.316,147.67,83.091,147.67z"/>
	<path fill="#87796F" d="M141.805,85.447c0,5.283-0.688,10.404-1.987,15.279c-13.214-6.367-25.783-14.184-37.428-23.021
		c-3.416-2.588-6.779-5.283-9.991-8.139c-3.942-3.457-7.67-7.183-11.033-11.22c-7.316-8.805-12.687-18.919-17.231-29.453
		c5.737-1.858,11.86-2.856,18.22-2.856c17.006,0,32.347,7.14,43.186,18.586C135.628,55.264,141.805,69.631,141.805,85.447z"/>
	<path fill="#3A312A" d="M139.818,102.226c-0.223,0-0.445-0.05-0.651-0.149c-12.982-6.255-25.66-14.053-37.684-23.177
		c-3.836-2.906-7.134-5.593-10.081-8.213c-4.204-3.687-7.971-7.518-11.189-11.381c-6.517-7.843-12.063-17.318-17.457-29.818
		c-0.167-0.388-0.163-0.828,0.011-1.213c0.174-0.385,0.502-0.678,0.904-0.809c6.003-1.944,12.289-2.929,18.682-2.929
		c16.915,0,32.638,6.767,44.275,19.055c10.753,11.343,16.676,26.207,16.676,41.855c0,5.323-0.686,10.594-2.038,15.665
		c-0.115,0.432-0.417,0.789-0.823,0.977C140.246,102.181,140.032,102.226,139.818,102.226z M66.181,29.833
		c5.065,11.474,10.278,20.261,16.339,27.555c3.117,3.742,6.774,7.46,10.868,11.051c2.895,2.574,6.133,5.212,9.908,8.071
		c11.353,8.615,23.293,16.029,35.516,22.057c0.992-4.27,1.494-8.675,1.494-13.119c0-14.876-5.63-29.008-15.854-39.792
		c-11.065-11.684-26.016-18.118-42.098-18.118C76.836,27.537,71.403,28.309,66.181,29.833z"/>
	<path fill="#87796F" d="M125.541,44.624c-10.227,9.32-21.357,17.566-33.142,24.943c-20.895,13.089-43.809,23.418-67.261,32.019
		c-1.45-5.132-2.224-10.544-2.224-16.138c0-26.457,17.307-48.876,41.221-56.554c5.737-1.858,11.86-2.856,18.22-2.856
		C99.36,26.037,114.701,33.178,125.541,44.624z"/>
	<path fill="#3A312A" d="M25.138,103.085c-0.235,0-0.468-0.055-0.682-0.164c-0.372-0.19-0.649-0.526-0.762-0.928
		c-1.514-5.354-2.281-10.921-2.281-16.546c0-26.566,16.984-49.867,42.262-57.982c6-1.943,12.286-2.928,18.678-2.928
		c16.915,0,32.638,6.767,44.275,19.055c0.277,0.292,0.425,0.684,0.41,1.086c-0.015,0.402-0.191,0.782-0.489,1.054
		c-9.829,8.957-21.051,17.403-33.356,25.105c-19.14,11.989-41.233,22.508-67.54,32.156
		C25.487,103.055,25.312,103.085,25.138,103.085z M82.354,27.537c-6.079,0-12.053,0.937-17.758,2.784
		C40.56,38.037,24.414,60.19,24.414,85.447c0,4.802,0.587,9.558,1.748,14.162c25.433-9.42,46.853-19.67,65.44-31.314
		c11.676-7.309,22.359-15.291,31.779-23.742C112.432,33.567,97.924,27.537,82.354,27.537z"/>
	<path fill="#87796F" d="M182.409,125.884v108.988c0,2.623,2.126,4.75,4.75,4.75h0c2.623,0,4.75-2.127,4.75-4.75V89.977
		c0-2.623-2.127-4.75-4.75-4.75h0c-2.623,0-4.75,2.127-4.75,4.75v22.334V125.884z"/>
	<path fill="#3A312A" d="M187.159,241.122c-3.446,0-6.25-2.804-6.25-6.25V125.884c0-0.829,0.672-1.5,1.5-1.5s1.5,0.671,1.5,1.5
		v108.988c0,1.792,1.458,3.25,3.25,3.25c1.792,0,3.25-1.458,3.25-3.25V89.977c0-1.792-1.458-3.25-3.25-3.25
		c-1.792,0-3.25,1.458-3.25,3.25v22.334c0,0.829-0.672,1.5-1.5,1.5s-1.5-0.671-1.5-1.5V89.977c0-3.446,2.804-6.25,6.25-6.25
		s6.25,2.804,6.25,6.25v144.895C193.409,238.318,190.605,241.122,187.159,241.122z"/>
	<path fill="#FAE6CA" d="M191.909,94.999v-5.022c0-2.623-2.127-4.75-4.75-4.75h0c-2.623,0-4.75,2.127-4.75,4.75v5.022H191.909z"/>
	<path fill="#3A312A" d="M191.909,96.498h-9.5c-0.828,0-1.5-0.671-1.5-1.5v-5.022c0-3.446,2.804-6.25,6.25-6.25
		s6.25,2.804,6.25,6.25v5.022C193.409,95.827,192.737,96.498,191.909,96.498z M183.909,93.498h6.5v-3.522
		c0-1.792-1.458-3.25-3.25-3.25c-1.792,0-3.25,1.458-3.25,3.25V93.498z"/>
	<path fill="#D6DF58" d="M182.409,75.455v5.022c0,2.623,2.127,4.75,4.75,4.75l0,0c2.623,0,4.75-2.127,4.75-4.75v-5.022H182.409z"/>
	<path fill="#3A312A" d="M187.159,86.727c-3.446,0-6.25-2.804-6.25-6.25v-5.022c0-0.829,0.672-1.5,1.5-1.5h9.5
		c0.828,0,1.5,0.671,1.5,1.5v5.022C193.409,83.923,190.605,86.727,187.159,86.727z M183.909,76.955v3.522
		c0,1.792,1.458,3.25,3.25,3.25c1.792,0,3.25-1.458,3.25-3.25v-3.522H183.909z"/>
	<path fill="#87796F" d="M196.659,85.227L196.659,85.227c-2.623,0-4.75,2.127-4.75,4.75v144.895c0,2.623,2.127,4.75,4.75,4.75h0
		c2.623,0,4.75-2.127,4.75-4.75V89.977C201.409,87.353,199.282,85.227,196.659,85.227z"/>
	<path fill="#3A312A" d="M196.659,241.122c-3.446,0-6.25-2.804-6.25-6.25V89.977c0-3.446,2.804-6.25,6.25-6.25s6.25,2.804,6.25,6.25
		v144.895C202.909,238.318,200.105,241.122,196.659,241.122z M196.659,86.727c-1.792,0-3.25,1.458-3.25,3.25v144.895
		c0,1.792,1.458,3.25,3.25,3.25c1.792,0,3.25-1.458,3.25-3.25V89.977C199.909,88.185,198.451,86.727,196.659,86.727z"/>
	<path fill="#FAE6CA" d="M201.409,94.999v-5.022c0-2.623-2.127-4.75-4.75-4.75h0c-2.623,0-4.75,2.127-4.75,4.75v5.022H201.409z"/>
	<path fill="#3A312A" d="M201.409,96.498h-9.5c-0.828,0-1.5-0.671-1.5-1.5v-5.022c0-3.446,2.804-6.25,6.25-6.25
		s6.25,2.804,6.25,6.25v5.022C202.909,95.827,202.237,96.498,201.409,96.498z M193.409,93.498h6.5v-3.522
		c0-1.792-1.458-3.25-3.25-3.25c-1.792,0-3.25,1.458-3.25,3.25V93.498z"/>
	<path fill="#D6DF58" d="M191.909,75.455v5.022c0,2.623,2.127,4.75,4.75,4.75l0,0c2.623,0,4.75-2.127,4.75-4.75v-5.022H191.909z"/>
	<path fill="#3A312A" d="M196.659,86.727c-3.446,0-6.25-2.804-6.25-6.25v-5.022c0-0.829,0.672-1.5,1.5-1.5h9.5
		c0.828,0,1.5,0.671,1.5,1.5v5.022C202.909,83.923,200.105,86.727,196.659,86.727z M193.409,76.955v3.522
		c0,1.792,1.458,3.25,3.25,3.25c1.792,0,3.25-1.458,3.25-3.25v-3.522H193.409z"/>
	<path fill="#87796F" d="M206.159,85.227L206.159,85.227c-2.623,0-4.75,2.127-4.75,4.75v144.895c0,2.623,2.127,4.75,4.75,4.75h0
		c2.623,0,4.75-2.127,4.75-4.75V89.977C210.909,87.353,208.782,85.227,206.159,85.227z"/>
	<path fill="#3A312A" d="M206.159,241.122c-3.446,0-6.25-2.804-6.25-6.25V89.977c0-3.446,2.804-6.25,6.25-6.25s6.25,2.804,6.25,6.25
		v144.895C212.409,238.318,209.605,241.122,206.159,241.122z M206.159,86.727c-1.792,0-3.25,1.458-3.25,3.25v144.895
		c0,1.792,1.458,3.25,3.25,3.25c1.792,0,3.25-1.458,3.25-3.25V89.977C209.409,88.185,207.951,86.727,206.159,86.727z"/>
	<path fill="#FAE6CA" d="M210.909,94.999v-5.022c0-2.623-2.127-4.75-4.75-4.75h0c-2.623,0-4.75,2.127-4.75,4.75v5.022H210.909z"/>
	<path fill="#3A312A" d="M210.909,96.498h-9.5c-0.828,0-1.5-0.671-1.5-1.5v-5.022c0-3.446,2.804-6.25,6.25-6.25
		s6.25,2.804,6.25,6.25v5.022C212.409,95.827,211.737,96.498,210.909,96.498z M202.909,93.498h6.5v-3.522
		c0-1.792-1.458-3.25-3.25-3.25c-1.792,0-3.25,1.458-3.25,3.25V93.498z"/>
	<path fill="#D6DF58" d="M201.409,75.455v5.022c0,2.623,2.127,4.75,4.75,4.75l0,0c2.623,0,4.75-2.127,4.75-4.75v-5.022H201.409z"/>
	<path fill="#3A312A" d="M206.159,86.727c-3.446,0-6.25-2.804-6.25-6.25v-5.022c0-0.829,0.672-1.5,1.5-1.5h9.5
		c0.828,0,1.5,0.671,1.5,1.5v5.022C212.409,83.923,209.605,86.727,206.159,86.727z M202.909,76.955v3.522
		c0,1.792,1.458,3.25,3.25,3.25c1.792,0,3.25-1.458,3.25-3.25v-3.522H202.909z"/>
	<path fill="#87796F" d="M215.659,85.227L215.659,85.227c-2.623,0-4.75,2.127-4.75,4.75v144.895c0,2.623,2.127,4.75,4.75,4.75h0
		c2.623,0,4.75-2.127,4.75-4.75V89.977C220.409,87.353,218.282,85.227,215.659,85.227z"/>
	<path fill="#3A312A" d="M215.659,241.122c-3.446,0-6.25-2.804-6.25-6.25V89.977c0-3.446,2.804-6.25,6.25-6.25s6.25,2.804,6.25,6.25
		v144.895C221.909,238.318,219.105,241.122,215.659,241.122z M215.659,86.727c-1.792,0-3.25,1.458-3.25,3.25v144.895
		c0,1.792,1.458,3.25,3.25,3.25c1.792,0,3.25-1.458,3.25-3.25V89.977C218.909,88.185,217.451,86.727,215.659,86.727z"/>
	<path fill="#FAE6CA" d="M220.409,94.999v-5.022c0-2.623-2.127-4.75-4.75-4.75h0c-2.623,0-4.75,2.127-4.75,4.75v5.022H220.409z"/>
	<path fill="#3A312A" d="M220.409,96.498h-9.5c-0.828,0-1.5-0.671-1.5-1.5v-5.022c0-3.446,2.804-6.25,6.25-6.25
		s6.25,2.804,6.25,6.25v5.022C221.909,95.827,221.237,96.498,220.409,96.498z M212.409,93.498h6.5v-3.522
		c0-1.792-1.458-3.25-3.25-3.25c-1.792,0-3.25,1.458-3.25,3.25V93.498z"/>
	<path fill="#D6DF58" d="M210.909,75.455v5.022c0,2.623,2.127,4.75,4.75,4.75l0,0c2.623,0,4.75-2.127,4.75-4.75v-5.022H210.909z"/>
	<path fill="#3A312A" d="M215.659,86.727c-3.446,0-6.25-2.804-6.25-6.25v-5.022c0-0.829,0.672-1.5,1.5-1.5h9.5
		c0.828,0,1.5,0.671,1.5,1.5v5.022C221.909,83.923,219.105,86.727,215.659,86.727z M212.409,76.955v3.522
		c0,1.792,1.458,3.25,3.25,3.25c1.792,0,3.25-1.458,3.25-3.25v-3.522H212.409z"/>
	<path fill="#87796F" d="M215.659,85.227L215.659,85.227c-2.623,0-4.75,2.127-4.75,4.75v144.895c0,2.623,2.127,4.75,4.75,4.75h0
		c2.623,0,4.75-2.127,4.75-4.75V89.977C220.409,87.353,218.282,85.227,215.659,85.227z"/>
	<path fill="#3A312A" d="M215.659,241.122c-3.446,0-6.25-2.804-6.25-6.25V89.977c0-3.446,2.804-6.25,6.25-6.25s6.25,2.804,6.25,6.25
		v144.895C221.909,238.318,219.105,241.122,215.659,241.122z M215.659,86.727c-1.792,0-3.25,1.458-3.25,3.25v144.895
		c0,1.792,1.458,3.25,3.25,3.25c1.792,0,3.25-1.458,3.25-3.25V89.977C218.909,88.185,217.451,86.727,215.659,86.727z"/>
	<path fill="#FAE6CA" d="M220.409,94.999v-5.022c0-2.623-2.127-4.75-4.75-4.75h0c-2.623,0-4.75,2.127-4.75,4.75v5.022H220.409z"/>
	<path fill="#3A312A" d="M220.409,96.498h-9.5c-0.828,0-1.5-0.671-1.5-1.5v-5.022c0-3.446,2.804-6.25,6.25-6.25
		s6.25,2.804,6.25,6.25v5.022C221.909,95.827,221.237,96.498,220.409,96.498z M212.409,93.498h6.5v-3.522
		c0-1.792-1.458-3.25-3.25-3.25c-1.792,0-3.25,1.458-3.25,3.25V93.498z"/>
	<path fill="#D6DF58" d="M210.909,75.455v5.022c0,2.623,2.127,4.75,4.75,4.75l0,0c2.623,0,4.75-2.127,4.75-4.75v-5.022H210.909z"/>
	<path fill="#3A312A" d="M215.659,86.727c-3.446,0-6.25-2.804-6.25-6.25v-5.022c0-0.829,0.672-1.5,1.5-1.5h9.5
		c0.828,0,1.5,0.671,1.5,1.5v5.022C221.909,83.923,219.105,86.727,215.659,86.727z M212.409,76.955v3.522
		c0,1.792,1.458,3.25,3.25,3.25c1.792,0,3.25-1.458,3.25-3.25v-3.522H212.409z"/>
	<path fill="#87796F" d="M225.159,85.227L225.159,85.227c-2.623,0-4.75,2.127-4.75,4.75v144.895c0,2.623,2.127,4.75,4.75,4.75h0
		c2.623,0,4.75-2.127,4.75-4.75V89.977C229.909,87.353,227.782,85.227,225.159,85.227z"/>
	<path fill="#3A312A" d="M225.159,241.122c-3.446,0-6.25-2.804-6.25-6.25V89.977c0-3.446,2.804-6.25,6.25-6.25s6.25,2.804,6.25,6.25
		v144.895C231.409,238.318,228.605,241.122,225.159,241.122z M225.159,86.727c-1.792,0-3.25,1.458-3.25,3.25v144.895
		c0,1.792,1.458,3.25,3.25,3.25c1.792,0,3.25-1.458,3.25-3.25V89.977C228.409,88.185,226.951,86.727,225.159,86.727z"/>
	<path fill="#FAE6CA" d="M229.909,94.999v-5.022c0-2.623-2.127-4.75-4.75-4.75h0c-2.623,0-4.75,2.127-4.75,4.75v5.022H229.909z"/>
	<path fill="#3A312A" d="M229.909,96.498h-9.5c-0.828,0-1.5-0.671-1.5-1.5v-5.022c0-3.446,2.804-6.25,6.25-6.25
		s6.25,2.804,6.25,6.25v5.022C231.409,95.827,230.737,96.498,229.909,96.498z M221.909,93.498h6.5v-3.522
		c0-1.792-1.458-3.25-3.25-3.25c-1.792,0-3.25,1.458-3.25,3.25V93.498z"/>
	<path fill="#D6DF58" d="M220.409,75.455v5.022c0,2.623,2.127,4.75,4.75,4.75l0,0c2.623,0,4.75-2.127,4.75-4.75v-5.022H220.409z"/>
	<path fill="#3A312A" d="M225.159,86.727c-3.446,0-6.25-2.804-6.25-6.25v-5.022c0-0.829,0.672-1.5,1.5-1.5h9.5
		c0.828,0,1.5,0.671,1.5,1.5v5.022C231.409,83.923,228.605,86.727,225.159,86.727z M221.909,76.955v3.522
		c0,1.792,1.458,3.25,3.25,3.25c1.792,0,3.25-1.458,3.25-3.25v-3.522H221.909z"/>
	<path fill="#87796F" d="M234.659,85.227L234.659,85.227c-2.623,0-4.75,2.127-4.75,4.75v144.895c0,2.623,2.127,4.75,4.75,4.75h0
		c2.623,0,4.75-2.127,4.75-4.75V89.977C239.409,87.353,237.282,85.227,234.659,85.227z"/>
	<path fill="#3A312A" d="M234.659,241.122c-3.446,0-6.25-2.804-6.25-6.25V89.977c0-3.446,2.804-6.25,6.25-6.25s6.25,2.804,6.25,6.25
		v144.895C240.909,238.318,238.105,241.122,234.659,241.122z M234.659,86.727c-1.792,0-3.25,1.458-3.25,3.25v144.895
		c0,1.792,1.458,3.25,3.25,3.25c1.792,0,3.25-1.458,3.25-3.25V89.977C237.909,88.185,236.451,86.727,234.659,86.727z"/>
	<path fill="#FAE6CA" d="M239.409,94.999v-5.022c0-2.623-2.127-4.75-4.75-4.75h0c-2.623,0-4.75,2.127-4.75,4.75v5.022H239.409z"/>
	<path fill="#3A312A" d="M239.409,96.498h-9.5c-0.828,0-1.5-0.671-1.5-1.5v-5.022c0-3.446,2.804-6.25,6.25-6.25
		s6.25,2.804,6.25,6.25v5.022C240.909,95.827,240.237,96.498,239.409,96.498z M231.409,93.498h6.5v-3.522
		c0-1.792-1.458-3.25-3.25-3.25c-1.792,0-3.25,1.458-3.25,3.25V93.498z"/>
	<path fill="#D6DF58" d="M229.909,75.455v5.022c0,2.623,2.127,4.75,4.75,4.75l0,0c2.623,0,4.75-2.127,4.75-4.75v-5.022H229.909z"/>
	<path fill="#3A312A" d="M234.659,86.727c-3.446,0-6.25-2.804-6.25-6.25v-5.022c0-0.829,0.672-1.5,1.5-1.5h9.5
		c0.828,0,1.5,0.671,1.5,1.5v5.022C240.909,83.923,238.105,86.727,234.659,86.727z M231.409,76.955v3.522
		c0,1.792,1.458,3.25,3.25,3.25c1.792,0,3.25-1.458,3.25-3.25v-3.522H231.409z"/>
	<path fill="#DECAAD" d="M146.929,209.542h-15c-1.63-13.92-13.51-24.77-27.87-24.77h15
		C133.419,184.772,145.299,195.622,146.929,209.542z"/>
	<rect x="132.129" y="212.542" fill="#D04E5D" width="15" height="25.58"/>
</g>
</svg>
