<?xml version="1.0" encoding="utf-8"?>
<!-- Generator: Adobe Illustrator 24.0.0, SVG Export Plug-In . SVG Version: 6.00 Build 0)  -->
<svg version="1.1" id="Layer_1" xmlns="http://www.w3.org/2000/svg" xmlns:xlink="http://www.w3.org/1999/xlink" x="0px" y="0px"
	 viewBox="0 0 256 256" enable-background="new 0 0 256 256" xml:space="preserve">
<g>
	<path fill="#D7E057" d="M47.293,51.732c0,0,3.408,12.659,13.222,13.246c0,0-13.1,4.525-13.321,14.202
		c0,0-2.578-13.572-12.925-14.059C34.269,65.121,46.32,63.296,47.293,51.732z"/>
	<path fill="#3A312A" d="M47.193,80.68c-0.713,0-1.335-0.506-1.473-1.217c-0.023-0.124-2.494-12.418-11.522-12.842
		c-0.771-0.037-1.388-0.651-1.428-1.421c-0.04-0.771,0.511-1.445,1.273-1.561c0.442-0.069,10.895-1.818,11.754-12.033
		c0.061-0.725,0.635-1.301,1.359-1.367c0.732-0.068,1.393,0.399,1.584,1.101c0.031,0.116,3.26,11.626,11.864,12.141
		c0.714,0.043,1.298,0.584,1.396,1.292c0.098,0.709-0.318,1.388-0.994,1.623c-0.121,0.042-12.119,4.31-12.313,12.819
		c-0.017,0.767-0.61,1.396-1.375,1.46C47.277,80.678,47.235,80.68,47.193,80.68z M39.451,64.95c3.879,1.969,6.231,5.746,7.588,8.876
		c2.026-4.021,5.941-6.787,8.949-8.427c-4.135-1.843-6.783-5.652-8.335-8.723C45.86,61.037,42.383,63.545,39.451,64.95z"/>
	<path fill="#D7E057" d="M25.595,68.712c0,0,2.411,8.954,9.352,9.369c0,0-9.266,3.201-9.422,10.045c0,0-1.824-9.6-9.142-9.944
		C16.382,78.183,24.906,76.891,25.595,68.712z"/>
	<path fill="#3A312A" d="M25.523,89.627c-0.714,0-1.337-0.507-1.473-1.22c-0.016-0.082-1.704-8.442-7.739-8.726
		c-0.77-0.037-1.388-0.651-1.428-1.421c-0.04-0.771,0.511-1.445,1.273-1.56c0.296-0.047,7.364-1.243,7.942-8.114
		c0.062-0.726,0.636-1.303,1.361-1.368c0.721-0.063,1.392,0.399,1.581,1.102l0,0c0.022,0.079,2.228,7.92,7.994,8.265
		c0.714,0.043,1.299,0.584,1.396,1.293c0.097,0.709-0.32,1.388-0.996,1.622c-0.081,0.028-8.282,2.952-8.412,8.661
		c-0.018,0.767-0.611,1.397-1.376,1.461C25.606,89.626,25.564,89.627,25.523,89.627z M21.004,78.1
		c2.107,1.333,3.523,3.394,4.447,5.28c1.376-2.232,3.516-3.872,5.365-4.973c-2.287-1.269-3.884-3.35-4.941-5.223
		C24.702,75.47,22.86,77.059,21.004,78.1z"/>
	<path fill="#D7E057" d="M25.595,42.055c0,0,2.411,8.954,9.352,9.37c0,0-9.266,3.201-9.422,10.045c0,0-1.824-9.6-9.142-9.944
		C16.382,51.525,24.906,50.234,25.595,42.055z"/>
	<path fill="#3A312A" d="M25.523,62.97c-0.714,0-1.337-0.507-1.473-1.22c-0.016-0.082-1.704-8.442-7.739-8.726
		c-0.77-0.037-1.388-0.651-1.428-1.421c-0.04-0.771,0.511-1.445,1.273-1.561c0.296-0.047,7.364-1.243,7.942-8.114
		c0.062-0.726,0.636-1.303,1.361-1.368c0.721-0.061,1.392,0.399,1.581,1.102l0,0c0.022,0.079,2.228,7.92,7.994,8.265
		c0.714,0.043,1.299,0.584,1.396,1.293c0.097,0.709-0.32,1.388-0.996,1.622c-0.081,0.028-8.282,2.952-8.412,8.662
		c-0.018,0.767-0.611,1.398-1.376,1.461C25.606,62.968,25.564,62.97,25.523,62.97z M21.004,51.442
		c2.107,1.333,3.523,3.395,4.447,5.28c1.376-2.232,3.516-3.872,5.365-4.973c-2.287-1.269-3.884-3.35-4.941-5.223
		C24.702,48.812,22.86,50.401,21.004,51.442z"/>
	<path fill="#FCE8CB" d="M33.5,195.197v12.768c0,3.3,2.67,5.98,5.97,5.98h0.01c3.3,0,5.97-2.68,5.97-5.98v-52.85H33.5v25.212
		V195.197z"/>
	<path fill="#3A312A" d="M39.48,215.445c-4.13,0-7.48-3.355-7.48-7.48v-12.769c0-0.829,0.672-1.5,1.5-1.5c0.828,0,1.5,0.671,1.5,1.5
		v12.769c0,2.47,2.005,4.48,4.47,4.48c2.476,0,4.48-2.01,4.48-4.48v-51.35H35v23.712c0,0.829-0.672,1.5-1.5,1.5
		c-0.828,0-1.5-0.671-1.5-1.5v-25.212c0-0.829,0.672-1.5,1.5-1.5h11.95c0.828,0,1.5,0.671,1.5,1.5v52.85
		C46.95,212.09,43.6,215.445,39.48,215.445z"/>
	<path fill="#FCE8CB" d="M57.4,155.115v52.85c0,3.3-2.67,5.98-5.97,5.98h-0.01c-3.3,0-5.97-2.68-5.97-5.98v-52.85H57.4z"/>
	<path fill="#3A312A" d="M51.43,215.445c-4.129,0-7.479-3.355-7.479-7.48v-52.85c0-0.829,0.672-1.5,1.5-1.5H57.4
		c0.828,0,1.5,0.671,1.5,1.5v52.85C58.9,212.09,55.549,215.445,51.43,215.445z M46.95,156.615v51.35c0,2.47,2.005,4.48,4.47,4.48
		c2.475,0,4.48-2.01,4.48-4.48v-51.35H46.95z"/>
	<path fill="#FCE8CB" d="M69.35,155.115v52.85c0,3.3-2.67,5.98-5.97,5.98h-0.01c-3.3,0-5.97-2.68-5.97-5.98v-52.85H69.35z"/>
	<path fill="#3A312A" d="M63.38,215.445c-4.129,0-7.479-3.355-7.479-7.48v-52.85c0-0.829,0.672-1.5,1.5-1.5H69.35
		c0.828,0,1.5,0.671,1.5,1.5v52.85C70.85,212.09,67.499,215.445,63.38,215.445z M58.9,156.615v51.35c0,2.47,2.005,4.48,4.47,4.48
		c2.475,0,4.48-2.01,4.48-4.48v-51.35H58.9z"/>
	<path fill="#FCE8CB" d="M81.3,155.115v52.85c0,3.3-2.67,5.98-5.97,5.98h-0.01c-3.3,0-5.97-2.68-5.97-5.98v-52.85H81.3z"/>
	<path fill="#3A312A" d="M75.33,215.445c-4.129,0-7.48-3.355-7.48-7.48v-52.85c0-0.829,0.672-1.5,1.5-1.5H81.3
		c0.828,0,1.5,0.671,1.5,1.5v52.85C82.8,212.09,79.449,215.445,75.33,215.445z M70.85,156.615v51.35c0,2.47,2.006,4.48,4.471,4.48
		c2.475,0,4.479-2.01,4.479-4.48v-51.35H70.85z"/>
	<path fill="#FCE8CB" d="M93.25,155.115v52.85c0,3.3-2.67,5.98-5.97,5.98h-0.01c-3.3,0-5.97-2.68-5.97-5.98v-52.85H93.25z"/>
	<path fill="#3A312A" d="M87.28,215.445c-4.129,0-7.48-3.355-7.48-7.48v-52.85c0-0.829,0.672-1.5,1.5-1.5h11.95
		c0.828,0,1.5,0.671,1.5,1.5v52.85C94.75,212.09,91.399,215.445,87.28,215.445z M82.8,156.615v51.35c0,2.47,2.006,4.48,4.471,4.48
		c2.475,0,4.48-2.01,4.48-4.48v-51.35H82.8z"/>
	<path fill="#FCE8CB" d="M105.2,155.115v52.85c0,3.3-2.67,5.98-5.97,5.98h-0.01c-3.3,0-5.97-2.68-5.97-5.98v-52.85H105.2z"/>
	<path fill="#3A312A" d="M99.23,215.445c-4.13,0-7.48-3.355-7.48-7.48v-52.85c0-0.829,0.672-1.5,1.5-1.5h11.95
		c0.828,0,1.5,0.671,1.5,1.5v52.85C106.7,212.09,103.35,215.445,99.23,215.445z M94.75,156.615v51.35c0,2.47,2.005,4.48,4.47,4.48
		c2.476,0,4.48-2.01,4.48-4.48v-51.35H94.75z"/>
	<path fill="#FCE8CB" d="M117.15,155.115v52.85c0,3.3-2.67,5.98-5.97,5.98h-0.01c-3.3,0-5.97-2.68-5.97-5.98v-52.85H117.15z"/>
	<path fill="#3A312A" d="M111.18,215.445c-4.129,0-7.479-3.355-7.479-7.48v-52.85c0-0.829,0.672-1.5,1.5-1.5h11.95
		c0.828,0,1.5,0.671,1.5,1.5v52.85C118.65,212.09,115.299,215.445,111.18,215.445z M106.7,156.615v51.35
		c0,2.47,2.005,4.48,4.47,4.48c2.475,0,4.481-2.01,4.481-4.48v-51.35H106.7z"/>
	<path fill="#FCE8CB" d="M129.1,155.115v52.85c0,3.3-2.67,5.98-5.97,5.98h-0.01c-3.3,0-5.97-2.68-5.97-5.98v-52.85H129.1z"/>
	<path fill="#3A312A" d="M123.13,215.445c-4.129,0-7.479-3.355-7.479-7.48v-52.85c0-0.829,0.672-1.5,1.5-1.5h11.95
		c0.828,0,1.5,0.671,1.5,1.5v52.85C130.601,212.09,127.249,215.445,123.13,215.445z M118.65,156.615v51.35
		c0,2.47,2.005,4.48,4.47,4.48c2.475,0,4.48-2.01,4.48-4.48v-51.35H118.65z"/>
	<path fill="#FCE8CB" d="M141.05,155.115v52.85c0,3.3-2.67,5.98-5.97,5.98h-0.01c-3.3,0-5.97-2.68-5.97-5.98v-52.85H141.05z"/>
	<path fill="#3A312A" d="M135.08,215.445c-4.129,0-7.479-3.355-7.479-7.48v-52.85c0-0.829,0.672-1.5,1.5-1.5h11.949
		c0.828,0,1.5,0.671,1.5,1.5v52.85C142.55,212.09,139.199,215.445,135.08,215.445z M130.601,156.615v51.35
		c0,2.47,2.005,4.48,4.47,4.48c2.475,0,4.48-2.01,4.48-4.48v-51.35H130.601z"/>
	<path fill="#FCE8CB" d="M141.05,155.115v52.85c0,3.3,2.67,5.98,5.97,5.98h0.01c3.3,0,5.97-2.68,5.97-5.98v-52.85H141.05z"/>
	<path fill="#3A312A" d="M147.03,215.445c-4.129,0-7.48-3.355-7.48-7.48v-52.85c0-0.829,0.672-1.5,1.5-1.5H153
		c0.828,0,1.5,0.671,1.5,1.5v52.85C154.5,212.09,151.149,215.445,147.03,215.445z M142.55,156.615v51.35
		c0,2.47,2.006,4.48,4.471,4.48c2.475,0,4.48-2.01,4.48-4.48v-51.35H142.55z"/>
	<path fill="#87796F" d="M98.17,122.07H32.767c-9.126,0-16.525,7.398-16.525,16.525s7.398,16.525,16.525,16.525h123.182
		c5.487,0,10.893,1.319,15.754,3.864c12.319,6.448,27.888,10.521,37.145,10.521c17.071,0,30.91-13.839,30.91-30.91
		s-13.839-30.91-30.91-30.91c-9.257,0-24.826,4.073-37.145,10.521c-4.861,2.545-10.268,3.864-15.754,3.864h-43.453H98.17z"/>
	<path fill="#3A312A" d="M208.848,171.005c-10.091,0-26.005-4.497-37.84-10.692c-4.615-2.415-9.822-3.692-15.06-3.692H32.767
		c-9.938,0-18.024-8.086-18.024-18.025c0-9.939,8.086-18.025,18.024-18.025H98.17c0.828,0,1.5,0.671,1.5,1.5
		c0,0.829-0.672,1.5-1.5,1.5H32.767c-8.284,0-15.024,6.74-15.024,15.025s6.74,15.025,15.024,15.025h123.182
		c5.72,0,11.408,1.395,16.45,4.034c12.98,6.795,28.161,10.351,36.449,10.351c16.217,0,29.41-13.193,29.41-29.41
		s-13.193-29.41-29.41-29.41c-8.288,0-23.469,3.555-36.449,10.351c-5.042,2.639-10.73,4.034-16.45,4.034h-43.452
		c-0.828,0-1.5-0.671-1.5-1.5c0-0.829,0.672-1.5,1.5-1.5h43.452c5.237,0,10.444-1.277,15.06-3.692
		c11.835-6.195,27.749-10.692,37.84-10.692c17.871,0,32.41,14.539,32.41,32.41S226.719,171.005,208.848,171.005z"/>
	<path fill="#3A312A" d="M153,156.615h-11.95c-0.828,0-1.5-0.671-1.5-1.5s0.672-1.5,1.5-1.5H153c0.828,0,1.5,0.671,1.5,1.5
		S153.828,156.615,153,156.615z"/>
	<path fill="#EB6E7A" d="M222.464,138.595c0,7.977-6.467,14.444-14.444,14.444c-7.977,0-26-6.467-26-14.444
		c0-7.977,18.022-14.444,26-14.444C215.997,124.151,222.464,130.618,222.464,138.595z"/>
	<path fill="#3A312A" d="M208.02,154.54c-7.932,0-27.5-6.354-27.5-15.944c0-4.132,3.858-8.241,10.865-11.569
		c5.51-2.617,12.194-4.375,16.635-4.375c8.792,0,15.944,7.153,15.944,15.944S216.811,154.54,208.02,154.54z M208.02,125.651
		c-3.973,0-10.284,1.68-15.348,4.085c-5.816,2.763-9.152,5.992-9.152,8.859s3.336,6.096,9.152,8.859
		c5.063,2.405,11.375,4.085,15.348,4.085c7.138,0,12.944-5.807,12.944-12.944S215.157,125.651,208.02,125.651z"/>
	<path fill="#695B51" d="M208.85,109.185c-2.28,0-5.08,0.27-8.21,0.8c10.8,2.55,19.31,11.09,21.84,21.9
		c0.95,2.04,1.48,4.31,1.48,6.71s-0.53,4.67-1.48,6.71c-2.53,10.81-11.04,19.35-21.84,21.9c3.13,0.53,5.93,0.8,8.21,0.8
		c16.21,0,29.41-13.19,29.41-29.41S225.06,109.185,208.85,109.185z"/>
</g>
</svg>
