<?xml version="1.0" encoding="utf-8"?>
<!-- Generator: Adobe Illustrator 24.0.0, SVG Export Plug-In . SVG Version: 6.00 Build 0)  -->
<svg version="1.1" id="Layer_1" xmlns="http://www.w3.org/2000/svg" xmlns:xlink="http://www.w3.org/1999/xlink" x="0px" y="0px"
	 viewBox="0 0 256 256" enable-background="new 0 0 256 256" xml:space="preserve">
<g>
	<path fill="#D7E057" d="M74.631,26.174c0,0,3.394,12.663,13.207,13.261c0,0-13.105,4.51-13.337,14.187
		c0,0-2.563-13.575-12.909-14.074C61.591,39.549,73.644,37.737,74.631,26.174z"/>
	<path fill="#3A312A" d="M74.499,55.122c-0.713,0-1.336-0.507-1.473-1.219c-0.024-0.124-2.48-12.421-11.508-12.856
		c-0.771-0.037-1.387-0.652-1.426-1.422c-0.039-0.771,0.513-1.445,1.275-1.56c0.441-0.068,10.896-1.805,11.768-12.019
		c0.062-0.725,0.636-1.3,1.361-1.365c0.724-0.063,1.392,0.4,1.582,1.104c0.032,0.116,3.246,11.629,11.85,12.154
		c0.714,0.043,1.297,0.585,1.394,1.294c0.097,0.708-0.32,1.387-0.996,1.621C88.206,40.896,76.205,45.15,76,53.659
		c-0.019,0.767-0.612,1.395-1.376,1.458C74.582,55.12,74.54,55.122,74.499,55.122z M66.774,39.384
		c3.876,1.974,6.224,5.753,7.577,8.886c2.031-4.02,5.949-6.781,8.958-8.418c-4.132-1.847-6.777-5.659-8.324-8.732
		C73.188,35.478,69.707,37.982,66.774,39.384z"/>
	<path fill="#D7E057" d="M52.913,43.13c0,0,2.401,8.957,9.341,9.38c0,0-9.27,3.19-9.434,10.034c0,0-1.813-9.602-9.131-9.954
		C43.69,52.59,52.215,51.308,52.913,43.13z"/>
	<path fill="#3A312A" d="M52.819,64.045c-0.714,0-1.338-0.509-1.473-1.222c-0.016-0.082-1.694-8.444-7.729-8.735
		c-0.77-0.037-1.387-0.652-1.426-1.422c-0.039-0.771,0.513-1.445,1.275-1.56c0.296-0.047,7.365-1.234,7.952-8.104
		c0.062-0.726,0.637-1.302,1.362-1.366c0.733-0.067,1.391,0.401,1.581,1.104l0,0c0.021,0.079,2.219,7.922,7.984,8.273
		c0.714,0.043,1.298,0.586,1.395,1.295c0.097,0.709-0.321,1.388-0.998,1.62c-0.081,0.028-8.286,2.943-8.422,8.653
		c-0.019,0.767-0.613,1.396-1.377,1.459C52.901,64.043,52.86,64.045,52.819,64.045z M48.312,52.512
		c2.106,1.335,3.519,3.398,4.441,5.285c1.378-2.232,3.519-3.868,5.37-4.967c-2.285-1.271-3.88-3.354-4.935-5.229
		C52.012,49.887,50.169,51.473,48.312,52.512z"/>
	<path fill="#D7E057" d="M52.944,16.472c0,0,2.401,8.957,9.341,9.38c0,0-9.27,3.19-9.434,10.035c0,0-1.813-9.602-9.131-9.955
		C43.72,25.933,52.245,24.651,52.944,16.472z"/>
	<path fill="#3A312A" d="M52.85,37.388c-0.714,0-1.338-0.509-1.473-1.222c-0.016-0.082-1.694-8.444-7.729-8.735
		c-0.77-0.037-1.387-0.652-1.426-1.422c-0.039-0.771,0.513-1.445,1.275-1.56c0.296-0.047,7.366-1.234,7.952-8.104
		c0.062-0.726,0.637-1.302,1.362-1.366c0.727-0.063,1.391,0.401,1.581,1.104c0.031,0.111,2.231,7.923,7.984,8.273
		c0.714,0.043,1.298,0.586,1.395,1.295c0.097,0.709-0.321,1.388-0.998,1.62c-0.081,0.028-8.286,2.943-8.422,8.653
		c-0.019,0.767-0.613,1.396-1.377,1.459C52.932,37.386,52.891,37.388,52.85,37.388z M48.343,25.854
		c2.105,1.335,3.519,3.398,4.441,5.285c1.378-2.231,3.519-3.868,5.37-4.967c-2.285-1.271-3.88-3.354-4.935-5.229
		C52.043,23.229,50.2,24.815,48.343,25.854z"/>
	<path fill="#87796F" d="M175.33,216.52l-7.06-48.96c-4.14,0.96-8.45,1.47-12.88,1.47c-4.43,0-8.74-0.51-12.88-1.47l-7.06,48.96
		c-1.74,12.14,7.67,23.01,19.94,23.01S177.07,228.66,175.33,216.52z M155.39,225.53c-3.31,0-6-2.69-6-6c0-3.31,2.69-6,6-6
		s6,2.69,6,6C161.39,222.84,158.7,225.53,155.39,225.53z"/>
	<path fill="#3A312A" d="M155.39,212.03c-4.14,0-7.5,3.36-7.5,7.5c0,4.14,3.36,7.5,7.5,7.5s7.5-3.36,7.5-7.5
		C162.89,215.39,159.53,212.03,155.39,212.03z M155.39,224.03c-2.48,0-4.5-2.02-4.5-4.5s2.02-4.5,4.5-4.5s4.5,2.02,4.5,4.5
		S157.87,224.03,155.39,224.03z"/>
	<path fill="#3A312A" d="M176.81,216.31l-7.06-48.96c-0.06-0.42-0.29-0.79-0.63-1.03c-0.35-0.23-0.78-0.32-1.19-0.22
		c-8.2,1.9-16.88,1.9-25.08,0c-0.41-0.1-0.84-0.01-1.19,0.22c-0.34,0.24-0.58,0.61-0.64,1.03l-7.05,48.96
		c-0.9,6.22,0.95,12.51,5.07,17.26c4.11,4.74,10.07,7.46,16.35,7.46s12.24-2.72,16.35-7.46c3.44-3.96,5.29-8.99,5.29-14.16
		C177.03,218.38,176.96,217.34,176.81,216.31z M169.48,231.6c-3.55,4.09-8.68,6.43-14.09,6.43s-10.54-2.34-14.09-6.43
		c-3.54-4.09-5.13-9.51-4.36-14.87l6.82-47.36c7.64,1.54,15.62,1.54,23.26,0l6.83,47.36C174.61,222.09,173.02,227.51,169.48,231.6z"
		/>
	<path fill="#87796F" d="M98.476,95.934v16.177c0,31.384,25.533,56.917,56.917,56.917c31.384,0,56.917-25.533,56.917-56.917V73.945
		c0-31.384-25.533-56.917-56.917-56.917c-31.384,0-56.917,25.533-56.917,56.917v7.177V95.934z"/>
	<path fill="#3A312A" d="M155.393,170.527c-32.211,0-58.417-26.206-58.417-58.417V95.934c0-0.828,0.671-1.5,1.5-1.5
		c0.829,0,1.5,0.672,1.5,1.5v16.177c0,30.557,24.86,55.417,55.417,55.417c30.557,0,55.417-24.86,55.417-55.417V73.944
		c0-30.557-24.86-55.417-55.417-55.417c-30.557,0-55.417,24.86-55.417,55.417v7.177c0,0.828-0.671,1.5-1.5,1.5
		c-0.829,0-1.5-0.672-1.5-1.5v-7.177c0-32.211,26.206-58.417,58.417-58.417c32.211,0,58.417,26.206,58.417,58.417v38.166
		C213.81,144.321,187.604,170.527,155.393,170.527z"/>
	<path fill="#89C4DB" d="M155.393,26.147c-26.355,0-47.797,21.442-47.797,47.797v38.167c0,26.355,21.441,47.797,47.797,47.797
		c26.356,0,47.797-21.441,47.797-47.797V73.944C203.19,47.589,181.748,26.147,155.393,26.147z"/>
	<path fill="#3A312A" d="M155.393,161.407c-27.182,0-49.296-22.114-49.296-49.296V73.944c0-27.183,22.114-49.297,49.296-49.297
		c27.183,0,49.297,22.114,49.297,49.297v38.167C204.69,139.293,182.575,161.407,155.393,161.407z M155.393,27.647
		c-25.528,0-46.296,20.769-46.296,46.297v38.167c0,25.527,20.768,46.296,46.296,46.296c25.528,0,46.297-20.768,46.297-46.296V73.944
		C201.69,48.416,180.921,27.647,155.393,27.647z"/>
	<path fill="#FCE8CB" d="M187.927,38.966l-79.859,79.866c-0.314-2.194-0.474-4.445-0.474-6.723v-7.141l72.14-72.14
		C182.688,34.577,185.433,36.639,187.927,38.966z"/>
	<path fill="#3A312A" d="M108.068,120.332c-0.159,0-0.319-0.025-0.474-0.077c-0.539-0.18-0.931-0.648-1.011-1.211
		c-0.324-2.27-0.489-4.603-0.489-6.935v-7.141c0-0.398,0.158-0.779,0.44-1.061l72.14-72.141c0.485-0.484,1.235-0.578,1.825-0.23
		c3.023,1.79,5.866,3.921,8.452,6.332c0.298,0.277,0.47,0.664,0.477,1.07c0.007,0.407-0.151,0.799-0.439,1.087l-79.859,79.866
		C108.843,120.179,108.46,120.332,108.068,120.332z M109.095,105.59v6.52c0,1.152,0.043,2.304,0.128,3.447l76.528-76.534
		c-1.818-1.585-3.757-3.025-5.789-4.3L109.095,105.59z"/>
	<path fill="#FCE8CB" d="M156.327,84.91l-45.208,45.208c1.345,3.302,3.044,6.416,5.058,9.293l83.482-83.488
		c-1.345-3.295-3.044-6.409-5.058-9.287l-27.788,27.788L156.327,84.91z"/>
	<path fill="#3A312A" d="M116.178,140.911c-0.043,0-0.087-0.002-0.131-0.006c-0.442-0.038-0.844-0.271-1.098-0.634
		c-2.085-2.979-3.84-6.204-5.218-9.588c-0.228-0.559-0.098-1.199,0.329-1.626l45.207-45.208c0.586-0.586,1.535-0.586,2.121,0
		c0.586,0.586,0.586,1.535,0,2.121l-44.495,44.496c0.992,2.291,2.169,4.5,3.514,6.594l81.479-81.485
		c-0.993-2.29-2.17-4.497-3.514-6.588l-26.499,26.498c-0.586,0.586-1.535,0.586-2.121,0c-0.586-0.586-0.586-1.535,0-2.121
		l27.788-27.788c0.313-0.313,0.745-0.474,1.191-0.434c0.442,0.038,0.844,0.271,1.098,0.634c2.082,2.976,3.838,6.198,5.218,9.58
		c0.229,0.559,0.099,1.2-0.328,1.627l-83.481,83.488C116.956,140.754,116.574,140.911,116.178,140.911z"/>
	<path fill="#FCE8CB" d="M203.191,73.946v7.141l-72.14,72.14c-2.954-1.749-5.699-3.811-8.2-6.145l79.866-79.866
		C203.031,69.417,203.191,71.661,203.191,73.946z"/>
	<path fill="#3A312A" d="M131.051,154.727c-0.262,0-0.526-0.068-0.764-0.209c-3.025-1.791-5.872-3.924-8.459-6.339
		c-0.297-0.277-0.469-0.664-0.477-1.07c-0.007-0.407,0.152-0.8,0.439-1.087l79.866-79.866c0.401-0.402,0.997-0.541,1.535-0.362
		c0.539,0.18,0.93,0.648,1.01,1.211c0.324,2.277,0.489,4.612,0.489,6.941v7.142c0,0.397-0.158,0.779-0.439,1.061l-72.14,72.14
		C131.823,154.576,131.439,154.727,131.051,154.727z M125.029,147.026c1.82,1.587,3.761,3.029,5.796,4.306l70.866-70.866v-6.521
		c0-1.153-0.043-2.308-0.128-3.454L125.029,147.026z M203.191,81.087h0.01H203.191z"/>
	<path fill="#6CA8BF" d="M171.113,39.327c-6.4-5.69-14.4-9.63-23.22-11.07c2.44-0.4,4.95-0.61,7.5-0.61
		c7.91,0,15.37,1.99,21.89,5.51L171.113,39.327z"/>
	<path fill="#6CA8BF" d="M183.093,56.028c-0.98-2.32-2.14-4.54-3.46-6.65l8.31-8.31c1.7,1.67,3.27,3.48,4.7,5.41L183.093,56.028z"/>
	<path fill="#6CA8BF" d="M186.693,73.947c0-0.95-0.03-1.9-0.09-2.84l12.48-12.48c0.92,2.59,1.6,5.28,2.04,8.06l-14.43,14.43V73.947z
		"/>
	<path fill="#6CA8BF" d="M186.693,99.707l15-15v27.4c0,25.53-20.77,46.3-46.3,46.3c-2.55,0-5.06-0.21-7.5-0.61
		c21.98-3.59,38.8-22.71,38.8-45.69V99.707z"/>
	<path fill="#DECAAD" d="M185.753,39.018l-6.77,6.77c-1.4-1.93-2.95-3.75-4.64-5.44l5.62-5.62
		C181.993,35.998,183.933,37.437,185.753,39.018z"/>
	<path fill="#DECAAD" d="M197.883,55.577l-10.36,10.36c-0.47-2.75-1.17-5.43-2.1-8l8.95-8.95
		C195.713,51.077,196.893,53.287,197.883,55.577z"/>
	<path fill="#DECAAD" d="M201.693,73.947v6.52l-13.5,13.5v-10.11l13.37-13.37C201.643,71.637,201.693,72.787,201.693,73.947z"/>
</g>
</svg>
