<?xml version="1.0" encoding="utf-8"?>
<!-- Generator: Adobe Illustrator 24.0.0, SVG Export Plug-In . SVG Version: 6.00 Build 0)  -->
<svg version="1.1" id="Layer_1" xmlns="http://www.w3.org/2000/svg" xmlns:xlink="http://www.w3.org/1999/xlink" x="0px" y="0px"
	 viewBox="0 0 256 256" enable-background="new 0 0 256 256" xml:space="preserve">
<g>
	<path fill="#D4D853" d="M47.437,26.177c0,0,3.41,12.659,13.229,13.246c0,0-13.107,4.525-13.328,14.202
		c0,0-2.58-13.572-12.932-14.059C34.406,39.567,46.463,37.741,47.437,26.177z"/>
	<path fill="#3A312A" d="M47.336,55.125c-0.712,0-1.335-0.506-1.472-1.217c-0.024-0.124-2.496-12.418-11.529-12.844
		c-0.771-0.036-1.388-0.65-1.428-1.421c-0.039-0.77,0.511-1.444,1.274-1.561c0.441-0.068,10.901-1.816,11.761-12.031
		c0.061-0.726,0.634-1.301,1.359-1.367c0.722-0.059,1.393,0.399,1.583,1.101c0.032,0.116,3.261,11.625,11.871,12.141
		c0.714,0.043,1.297,0.584,1.395,1.292c0.098,0.708-0.319,1.388-0.995,1.622c-0.121,0.043-12.125,4.312-12.319,12.819
		c-0.018,0.767-0.61,1.396-1.375,1.46C47.42,55.123,47.378,55.125,47.336,55.125z M39.591,39.396c3.88,1.97,6.234,5.748,7.591,8.878
		c2.028-4.022,5.945-6.788,8.954-8.428c-4.137-1.844-6.787-5.653-8.338-8.725C46.004,35.482,42.524,37.99,39.591,39.396z"/>
	<path fill="#D4D853" d="M25.727,43.158c0,0,2.412,8.954,9.357,9.369c0,0-9.271,3.201-9.427,10.046c0,0-1.825-9.6-9.147-9.944
		C16.51,52.628,25.038,51.337,25.727,43.158z"/>
	<path fill="#3A312A" d="M25.655,64.072c-0.713,0-1.337-0.507-1.472-1.22c-0.016-0.082-1.705-8.442-7.744-8.727
		c-0.771-0.036-1.388-0.65-1.428-1.421c-0.039-0.77,0.511-1.444,1.273-1.561c0.296-0.047,7.369-1.242,7.947-8.113
		c0.061-0.726,0.635-1.303,1.36-1.368c0.729-0.053,1.392,0.399,1.582,1.101l0,0c0.021,0.079,2.229,7.92,7.999,8.266
		c0.714,0.043,1.299,0.584,1.396,1.293c0.098,0.709-0.32,1.389-0.996,1.622c-0.081,0.028-8.287,2.953-8.417,8.661
		c-0.018,0.768-0.611,1.397-1.376,1.461C25.739,64.07,25.697,64.072,25.655,64.072z M21.134,52.545
		c2.108,1.333,3.525,3.395,4.45,5.281c1.376-2.233,3.517-3.873,5.368-4.974c-2.288-1.27-3.887-3.352-4.944-5.226
		C24.833,49.914,22.991,51.504,21.134,52.545z"/>
	<path fill="#D4D853" d="M25.727,16.5c0,0,2.412,8.954,9.357,9.37c0,0-9.271,3.201-9.427,10.045c0,0-1.825-9.6-9.147-9.944
		C16.51,25.971,25.038,24.679,25.727,16.5z"/>
	<path fill="#3A312A" d="M25.655,37.415c-0.713,0-1.337-0.507-1.472-1.22c-0.016-0.082-1.705-8.442-7.744-8.727
		c-0.771-0.036-1.388-0.65-1.428-1.421c-0.039-0.77,0.511-1.444,1.273-1.561c0.296-0.047,7.369-1.242,7.947-8.113
		c0.061-0.726,0.635-1.303,1.36-1.368c0.729-0.053,1.392,0.399,1.582,1.102l0,0c0.021,0.079,2.229,7.92,7.999,8.266
		c0.714,0.043,1.299,0.584,1.396,1.293c0.097,0.709-0.32,1.389-0.997,1.622c-0.081,0.028-8.287,2.952-8.417,8.661
		c-0.018,0.768-0.611,1.397-1.376,1.461C25.738,37.413,25.697,37.415,25.655,37.415z M21.134,25.888
		c2.108,1.333,3.525,3.395,4.45,5.28c1.376-2.233,3.517-3.872,5.368-4.973c-2.288-1.269-3.887-3.351-4.944-5.226
		C24.833,23.257,22.991,24.847,21.134,25.888z"/>
	<path fill="#F16C7A" d="M65.49,108.988v113.111c0,9.61,7.791,17.401,17.401,17.401h139.198c9.61,0,17.401-7.791,17.401-17.401
		V33.901c0-9.61-7.791-17.401-17.401-17.401H82.891c-9.61,0-17.401,7.791-17.401,17.401v61.11V108.988z"/>
	<path fill="#3A312A" d="M222.089,241H82.891c-10.422,0-18.901-8.48-18.901-18.901v-113.11c0-0.828,0.671-1.5,1.5-1.5
		c0.829,0,1.5,0.672,1.5,1.5v113.11c0,8.768,7.133,15.901,15.901,15.901h139.198c8.768,0,15.901-7.134,15.901-15.901V33.901
		c0-8.768-7.134-15.901-15.901-15.901H82.891c-8.768,0-15.901,7.134-15.901,15.901v61.11c0,0.828-0.671,1.5-1.5,1.5
		c-0.829,0-1.5-0.672-1.5-1.5v-61.11C63.99,23.479,72.469,15,82.891,15h139.198c10.422,0,18.901,8.479,18.901,18.901v188.197
		C240.99,232.52,232.511,241,222.089,241z"/>
	<path fill="#8AC3DA" d="M142.369,33.75H99.98c0.01,0.08,0.01,0.17,0.01,0.25c0,9.6-7.75,17.41-17.33,17.5v153
		c9.58,0.09,17.33,7.9,17.33,17.5c0,0.08,0,0.17-0.01,0.25H205c-0.01-0.08-0.01-0.17-0.01-0.25c0-9.6,7.75-17.41,17.33-17.5v-153
		c-9.58-0.09-17.33-7.9-17.33-17.5c0-0.08,0-0.17,0.01-0.25h-49.055H142.369z"/>
	<path fill="#3A312A" d="M205,223.75H99.98c-0.431,0-0.841-0.186-1.126-0.509c-0.285-0.324-0.417-0.754-0.362-1.182
		c-0.002-8.8-7.11-15.978-15.846-16.06c-0.823-0.008-1.486-0.677-1.486-1.5v-153c0-0.823,0.663-1.492,1.486-1.5
		c8.736-0.082,15.844-7.26,15.844-16c-0.055-0.428,0.078-0.888,0.363-1.211c0.285-0.324,0.696-0.539,1.127-0.539h42.389
		c0.828,0,1.5,0.672,1.5,1.5s-0.672,1.5-1.5,1.5h-40.92c-0.613,9.313-8.018,16.862-17.289,17.678v150.145
		c9.271,0.815,16.676,8.365,17.289,17.678h102.082c0.613-9.313,8.018-16.862,17.289-17.678V52.928
		c-9.271-0.815-16.676-8.365-17.289-17.678h-47.587c-0.828,0-1.5-0.672-1.5-1.5s0.672-1.5,1.5-1.5H205
		c0.43,0,0.838,0.185,1.123,0.506c0.285,0.321,0.418,0.749,0.366,1.176c0.001,8.809,7.108,15.986,15.845,16.068
		c0.823,0.008,1.486,0.677,1.486,1.5v153c0,0.823-0.663,1.492-1.486,1.5c-8.736,0.082-15.844,7.26-15.844,16
		c0.052,0.427-0.082,0.889-0.366,1.21C205.839,223.531,205.43,223.75,205,223.75z"/>
	<path fill="#3A312A" d="M203.246,164.429H133.99c-0.828,0-1.5-0.672-1.5-1.5c0-0.828,0.672-1.5,1.5-1.5h69.256
		c0.828,0,1.5,0.672,1.5,1.5C204.746,163.757,204.074,164.429,203.246,164.429z"/>
	
		<ellipse transform="matrix(0.9661 -0.2581 0.2581 0.9661 -38.1638 35.0959)" fill="#D5DC57" cx="114.612" cy="162.929" rx="12.878" ry="12.878"/>
	<path fill="#3A312A" d="M114.612,177.307c-7.928,0-14.378-6.45-14.378-14.378c0-7.928,6.45-14.378,14.378-14.378
		c7.928,0,14.378,6.45,14.378,14.378C128.99,170.856,122.54,177.307,114.612,177.307z M114.612,151.551
		c-6.274,0-11.378,5.105-11.378,11.378c0,6.273,5.104,11.378,11.378,11.378c6.274,0,11.378-5.104,11.378-11.378
		C125.99,156.655,120.886,151.551,114.612,151.551z"/>
	<path fill="#3A312A" d="M113.45,171.875v-2.083c-1.469-0.066-2.894-0.46-3.727-0.943l0.658-2.565
		c0.921,0.504,2.215,0.965,3.64,0.965c1.25,0,2.105-0.482,2.105-1.36c0-0.833-0.702-1.359-2.324-1.908
		c-2.346-0.789-3.947-1.886-3.947-4.013c0-1.93,1.359-3.443,3.706-3.903v-2.083h2.149v1.93c1.469,0.065,2.456,0.373,3.179,0.724
		l-0.636,2.477c-0.57-0.241-1.579-0.745-3.157-0.745c-1.425,0-1.886,0.614-1.886,1.228c0,0.724,0.768,1.184,2.631,1.886
		c2.609,0.921,3.662,2.127,3.662,4.1c0,1.952-1.382,3.618-3.903,4.056v2.237H113.45z"/>
	<path fill="#3A312A" d="M203.246,196.429H133.99c-0.828,0-1.5-0.672-1.5-1.5c0-0.828,0.672-1.5,1.5-1.5h69.256
		c0.828,0,1.5,0.672,1.5,1.5C204.746,195.757,204.074,196.429,203.246,196.429z"/>
	
		<ellipse transform="matrix(0.9661 -0.2581 0.2581 0.9661 -46.4218 36.1798)" fill="#D5DC57" cx="114.612" cy="194.929" rx="12.878" ry="12.878"/>
	<path fill="#3A312A" d="M114.612,209.307c-7.928,0-14.378-6.45-14.378-14.378c0-7.928,6.45-14.378,14.378-14.378
		c7.928,0,14.378,6.45,14.378,14.378C128.99,202.856,122.54,209.307,114.612,209.307z M114.612,183.551
		c-6.274,0-11.378,5.105-11.378,11.378c0,6.273,5.104,11.378,11.378,11.378c6.274,0,11.378-5.104,11.378-11.378
		C125.99,188.655,120.886,183.551,114.612,183.551z"/>
	<path fill="#3A312A" d="M113.45,203.875v-2.083c-1.469-0.066-2.894-0.46-3.727-0.943l0.658-2.565
		c0.921,0.504,2.215,0.965,3.64,0.965c1.25,0,2.105-0.482,2.105-1.36c0-0.833-0.702-1.359-2.324-1.908
		c-2.346-0.789-3.947-1.886-3.947-4.013c0-1.93,1.359-3.443,3.706-3.903v-2.083h2.149v1.93c1.469,0.065,2.456,0.373,3.179,0.724
		l-0.636,2.477c-0.57-0.241-1.579-0.745-3.157-0.745c-1.425,0-1.886,0.614-1.886,1.228c0,0.724,0.768,1.184,2.631,1.886
		c2.609,0.921,3.662,2.127,3.662,4.1c0,1.952-1.382,3.618-3.903,4.056v2.237H113.45z"/>
	<path fill="#F5E1C5" d="M182.727,128.93v12.029h-60.474V128.93c0-7.328,6.113-13.264,13.653-13.264h9.012v-7.434h15.152v7.434
		h9.017C176.628,115.666,182.727,121.601,182.727,128.93z"/>
	<path fill="#3A312A" d="M182.727,142.459h-60.473c-0.829,0-1.5-0.672-1.5-1.5V128.93c0-8.141,6.797-14.764,15.153-14.764h7.512
		v-5.934c0-0.828,0.672-1.5,1.5-1.5h15.152c0.828,0,1.5,0.672,1.5,1.5v5.934h7.518c8.348,0,15.139,6.623,15.139,14.764v12.029
		C184.227,141.787,183.555,142.459,182.727,142.459z M123.753,139.459h57.473V128.93c0-6.486-5.445-11.764-12.139-11.764h-9.018
		c-0.828,0-1.5-0.672-1.5-1.5v-5.934h-12.152v5.934c0,0.828-0.672,1.5-1.5,1.5h-9.012c-6.701,0-12.153,5.277-12.153,11.764V139.459z
		"/>
	<rect x="133.305" y="131.192" fill="#EB6E7A" width="38.37" height="9.767"/>
	<path fill="#3A312A" d="M171.675,142.459h-38.37c-0.828,0-1.5-0.672-1.5-1.5v-9.767c0-0.828,0.672-1.5,1.5-1.5h38.37
		c0.828,0,1.5,0.672,1.5,1.5v9.767C173.175,141.787,172.503,142.459,171.675,142.459z M134.805,139.459h35.37v-6.767h-35.37V139.459
		z"/>
	<path fill="#3A312A" d="M133.305,142.433c-0.828,0-1.5-0.672-1.5-1.5v-9.505c0-0.828,0.672-1.5,1.5-1.5c0.828,0,1.5,0.672,1.5,1.5
		v9.505C134.805,141.761,134.133,142.433,133.305,142.433z"/>
	<path fill="#3A312A" d="M171.675,142.433c-0.828,0-1.5-0.672-1.5-1.5v-9.505c0-0.828,0.672-1.5,1.5-1.5c0.828,0,1.5,0.672,1.5,1.5
		v9.505C173.175,141.761,172.503,142.433,171.675,142.433z"/>
	<path fill="#3A312A" d="M133.305,142.459c-0.828,0-1.5-0.672-1.5-1.5v-9.767c0-0.828,0.672-1.5,1.5-1.5c0.828,0,1.5,0.672,1.5,1.5
		v9.767C134.805,141.787,134.133,142.459,133.305,142.459z"/>
	<path fill="#3A312A" d="M171.675,142.459c-0.828,0-1.5-0.672-1.5-1.5v-9.767c0-0.828,0.672-1.5,1.5-1.5c0.828,0,1.5,0.672,1.5,1.5
		v9.767C173.175,141.787,172.503,142.459,171.675,142.459z"/>
	<ellipse fill="#87796F" cx="152.459" cy="54.952" rx="13.82" ry="13.449"/>
	<path fill="#3A312A" d="M152.459,69.9c-8.447,0-15.32-6.706-15.32-14.948c0-8.243,6.873-14.949,15.32-14.949
		c8.447,0,15.32,6.706,15.32,14.949C167.779,63.194,160.906,69.9,152.459,69.9z M152.459,43.003c-6.793,0-12.32,5.36-12.32,11.949
		c0,6.588,5.527,11.948,12.32,11.948s12.32-5.36,12.32-11.948C164.779,48.363,159.252,43.003,152.459,43.003z"/>
	<path fill-rule="evenodd" clip-rule="evenodd" fill="#F4E0C4" d="M134.75,83.775c0,2.833-2.361,5.129-5.273,5.129
		c-2.912,0-5.273-2.296-5.273-5.129c0-2.833,2.361-5.129,5.273-5.129C132.39,78.646,134.75,80.942,134.75,83.775z"/>
	<path fill="#3A312A" d="M129.477,90.403c-3.735,0-6.773-2.974-6.773-6.629c0-3.654,3.039-6.628,6.773-6.628
		c3.734,0,6.773,2.974,6.773,6.628C136.25,87.43,133.212,90.403,129.477,90.403z M129.477,80.146c-2.08,0-3.773,1.628-3.773,3.628
		c0,2.001,1.693,3.629,3.773,3.629c2.08,0,3.773-1.628,3.773-3.629C133.25,81.774,131.558,80.146,129.477,80.146z"/>
	<path fill-rule="evenodd" clip-rule="evenodd" fill="#F4E0C4" d="M180.776,83.775c0,2.833-2.361,5.129-5.273,5.129
		c-2.912,0-5.273-2.296-5.273-5.129c0-2.833,2.361-5.129,5.273-5.129C178.415,78.646,180.776,80.942,180.776,83.775z"/>
	<path fill="#3A312A" d="M175.503,90.403c-3.735,0-6.773-2.974-6.773-6.629c0-3.654,3.038-6.628,6.773-6.628
		c3.735,0,6.773,2.974,6.773,6.628C182.276,87.43,179.238,90.403,175.503,90.403z M175.503,80.146c-2.081,0-3.773,1.628-3.773,3.628
		c0,2.001,1.692,3.629,3.773,3.629c2.081,0,3.773-1.628,3.773-3.629C179.276,81.774,177.584,80.146,175.503,80.146z"/>
	<path fill="#F4E0C4" d="M175.867,81.287c0,7.068-3.942,16.271-9.343,22.96c-4.187,5.194-9.253,8.872-14.033,8.872
		c-4.708,0-9.919-3.916-14.223-9.366c-5.252-6.645-9.153-15.57-9.153-22.466c0-12.558,10.463-22.739,23.376-22.739
		C165.4,58.547,175.867,68.729,175.867,81.287z"/>
	<path fill="#3A312A" d="M152.49,114.618c-6.572,0-12.47-6.225-15.4-9.936c-5.757-7.284-9.477-16.468-9.477-23.396
		c0-13.365,11.16-24.239,24.877-24.239s24.876,10.874,24.876,24.239c0,7.13-3.889,16.736-9.676,23.902
		C162.788,111.269,157.39,114.618,152.49,114.618z M152.49,60.047c-12.063,0-21.877,9.528-21.877,21.239
		c0,6.199,3.549,14.854,8.83,21.537c4.415,5.589,9.17,8.795,13.047,8.795c3.917,0,8.606-3.03,12.865-8.313
		c5.39-6.674,9.011-15.522,9.011-22.019C174.366,69.575,164.553,60.047,152.49,60.047z"/>
	<path fill="#3A312A" d="M146.518,81.028c0,1.226-1.022,2.219-2.282,2.219s-2.282-0.993-2.282-2.219
		c0-1.225,1.021-2.219,2.282-2.219S146.518,79.803,146.518,81.028z"/>
	<path fill="#3A312A" d="M163.025,81.028c0,1.226-1.021,2.219-2.282,2.219c-1.26,0-2.282-0.993-2.282-2.219
		c0-1.225,1.021-2.219,2.282-2.219C162.003,78.809,163.025,79.803,163.025,81.028z"/>
	<path fill="#F59689" d="M143.607,87.626c0,1.578-1.76,2.858-3.93,2.858c-2.171,0-3.93-1.28-3.93-2.858
		c0-1.578,1.76-2.858,3.93-2.858C141.847,84.768,143.607,86.048,143.607,87.626z"/>
	<path fill="#F59689" d="M169.234,87.626c0,1.578-1.76,2.858-3.93,2.858c-2.171,0-3.93-1.28-3.93-2.858
		c0-1.578,1.76-2.858,3.93-2.858C167.474,84.768,169.234,86.048,169.234,87.626z"/>
	<path fill="#3A312A" d="M152.489,101.228c-3.637,0-6.264-1.599-7.807-4.751c-0.364-0.744-0.056-1.643,0.688-2.007
		c0.742-0.361,1.643-0.056,2.007,0.688c1.024,2.094,2.648,3.069,5.111,3.069c2.879,0,4.602-1.764,5.059-2.949
		c0.298-0.773,1.166-1.154,1.939-0.861c0.772,0.298,1.158,1.166,0.861,1.939C159.445,98.702,156.601,101.228,152.489,101.228z"/>
	<path fill="#87796F" d="M176.477,73.288c0,2.077-0.278,4.091-0.803,6.007c-5.339-2.503-10.417-5.577-15.122-9.051
		c-1.38-1.018-2.739-2.077-4.037-3.2c-1.593-1.359-3.099-2.824-4.458-4.412c-2.956-3.462-5.126-7.439-6.962-11.58
		c2.318-0.73,4.792-1.123,7.361-1.123c6.871,0,13.069,2.807,17.449,7.308C173.982,61.421,176.477,67.07,176.477,73.288z"/>
	<path fill="#3A312A" d="M175.675,80.795c-0.218,0-0.435-0.047-0.637-0.142c-5.298-2.483-10.471-5.58-15.376-9.202
		c-1.567-1.155-2.918-2.226-4.128-3.272c-1.731-1.479-3.287-3.018-4.616-4.57c-2.691-3.152-4.977-6.948-7.193-11.947
		c-0.173-0.391-0.172-0.836,0.004-1.226c0.176-0.39,0.509-0.685,0.916-0.813c2.511-0.791,5.139-1.192,7.813-1.192
		c7.074,0,13.652,2.757,18.524,7.762c4.512,4.631,6.996,10.703,6.996,17.097c0,2.178-0.288,4.332-0.856,6.403
		c-0.116,0.427-0.416,0.78-0.817,0.966C176.103,80.749,175.89,80.795,175.675,80.795z M147.193,52.032
		c1.867,3.951,3.796,7.039,6.005,9.627c1.227,1.433,2.671,2.86,4.291,4.244c1.158,1.002,2.448,2.024,3.953,3.133
		c4.227,3.122,8.656,5.838,13.189,8.09c0.23-1.259,0.346-2.543,0.346-3.838c0-5.607-2.183-10.936-6.145-15.004
		c-4.303-4.421-10.117-6.854-16.375-6.854C150.669,51.43,148.905,51.632,147.193,52.032z"/>
	<path fill="#87796F" d="M169.906,57.237c-4.132,3.664-8.629,6.907-13.391,9.807c-8.442,5.146-17.7,9.208-27.176,12.589
		c-0.586-2.018-0.898-4.146-0.898-6.345c0-10.402,6.993-19.217,16.655-22.236c2.318-0.73,4.792-1.123,7.361-1.123
		C159.328,49.93,165.526,52.737,169.906,57.237z"/>
	<path fill="#3A312A" d="M129.34,81.133c-0.235,0-0.469-0.056-0.683-0.164c-0.368-0.189-0.642-0.521-0.757-0.918
		c-0.636-2.189-0.959-4.465-0.959-6.763c0-10.847,7.116-20.358,17.707-23.667c2.507-0.79,5.135-1.191,7.809-1.191
		c7.074,0,13.652,2.757,18.524,7.762c0.285,0.293,0.438,0.691,0.424,1.101c-0.015,0.41-0.197,0.796-0.504,1.067
		c-4.014,3.559-8.591,6.911-13.605,9.966c-7.787,4.747-16.768,8.908-27.452,12.721C129.681,81.104,129.51,81.133,129.34,81.133z
		 M152.457,51.43c-2.367,0-4.692,0.354-6.91,1.054c-9.336,2.917-15.605,11.277-15.605,20.805c0,1.475,0.151,2.938,0.45,4.37
		c9.808-3.588,18.112-7.486,25.343-11.896c4.358-2.653,8.37-5.535,11.948-8.581C163.52,53.461,158.174,51.43,152.457,51.43z"/>
	<path fill="#E96C7A" d="M176.414,77.253c0,1.645-0.209,3.398-0.594,5.21c-2.424-10.374-11.961-18.119-23.36-18.119
		c-11.385,0-20.909,7.722-23.346,18.069c-0.395-1.794-0.608-3.533-0.608-5.16c0-12.869,10.721-23.302,23.955-23.302
		C165.688,53.951,176.414,64.384,176.414,77.253z"/>
	<path fill="#3A312A" d="M175.819,83.962c-0.696,0-1.302-0.479-1.461-1.159c-2.333-9.985-11.338-16.959-21.899-16.959
		c-10.54,0-19.54,6.955-21.886,16.913c-0.159,0.678-0.765,1.156-1.46,1.156c-0.004,0-0.007,0-0.011,0
		c-0.7-0.005-1.304-0.494-1.454-1.178c-0.427-1.938-0.644-3.783-0.644-5.482c0-13.676,11.419-24.802,25.454-24.802
		c14.036,0,25.455,11.126,25.455,24.802c0,1.708-0.211,3.565-0.628,5.521c-0.146,0.687-0.75,1.181-1.452,1.188
		C175.829,83.962,175.824,83.962,175.819,83.962z M152.459,55.451c-11.889,0-21.649,9.018-22.406,20.378
		c4.341-7.88,12.813-12.985,22.406-12.985c9.598,0,18.065,5.102,22.407,12.982C174.107,64.467,164.348,55.451,152.459,55.451z"/>
	<path fill="#3A312A" d="M153.702,65.887c-0.828,0-1.5-0.672-1.5-1.5c0-0.828,0.672-1.5,1.5-1.5c2.121,0,3.847-1.661,3.847-3.703
		s-1.726-3.703-3.847-3.703c-0.828,0-1.5-0.672-1.5-1.5c0-0.828,0.672-1.5,1.5-1.5c3.775,0,6.847,3.007,6.847,6.703
		S157.477,65.887,153.702,65.887z"/>
	<path fill="#FCE8CB" d="M134.781,97.883c-0.064,1.369-1.262,2.471-2.631,2.438c-0.567-0.011-1.166-0.214-1.593-0.823
		l-14.341-18.661c-1.102-1.583-1.754-3.433-1.871-5.358L113.05,33.75h10.555v19.292c0,1.262,0.364,2.492,1.027,3.561l1.326,2.106
		c1.946,3.08,2.973,6.652,2.973,10.309v16.736l5.508,10.566C134.695,96.813,134.802,97.348,134.781,97.883z"/>
	<path fill="#3A312A" d="M132.21,101.822c-0.032,0-0.064-0.001-0.096-0.001c-1.148-0.022-2.14-0.541-2.785-1.462L115.026,81.75
		c-1.306-1.872-2.045-3.989-2.179-6.18l-1.296-41.773c-0.012-0.406,0.14-0.8,0.422-1.091c0.283-0.292,0.671-0.456,1.077-0.456
		h10.555c0.829,0,1.5,0.672,1.5,1.5v19.292c0,0.967,0.277,1.925,0.802,2.771l1.321,2.098c2.095,3.316,3.203,7.157,3.203,11.108
		v16.369l5.338,10.239c0.366,0.702,0.543,1.503,0.511,2.315c0,0.003-0.001,0.006-0.001,0.009
		C136.179,100.105,134.363,101.822,132.21,101.822z M114.598,35.25l1.246,40.182c0.098,1.596,0.653,3.184,1.603,4.547l14.299,18.605
		c0.107,0.151,0.185,0.232,0.432,0.237c0.553,0.03,1.075-0.455,1.104-1.003c0.012-0.292-0.047-0.562-0.173-0.803l-5.508-10.566
		c-0.112-0.214-0.17-0.452-0.17-0.693V69.02c0-3.383-0.948-6.671-2.741-9.508l-1.328-2.109c-0.824-1.329-1.257-2.834-1.257-4.36
		V35.25H114.598z M134.78,97.883h0.01H134.78z"/>
	<path fill="#3A312A" d="M127.712,87.438c-1.243,0-2.536-0.597-3.451-1.665c-0.975-1.14-1.397-2.555-1.736-3.692
		c-0.705-2.362-1.132-4.47-1.585-6.7c-0.422-2.082-0.859-4.234-1.569-6.868c-0.216-0.8,0.258-1.623,1.058-1.839
		c0.799-0.214,1.624,0.257,1.839,1.058c0.735,2.726,1.181,4.926,1.613,7.053c0.438,2.163,0.853,4.206,1.519,6.439
		c0.285,0.955,0.58,1.943,1.141,2.599c0.401,0.471,1.027,0.729,1.398,0.578c0.768-0.313,1.643,0.053,1.957,0.817
		c0.315,0.767-0.052,1.644-0.817,1.958C128.645,87.353,128.182,87.438,127.712,87.438z"/>
	<path fill="#FCE8CB" d="M191.93,33.75l-1.294,41.729c-0.118,1.925-0.77,3.775-1.871,5.358l-14.341,18.661
		c-0.428,0.61-1.027,0.813-1.593,0.823c-1.369,0.032-2.567-1.069-2.631-2.438c-0.021-0.535,0.086-1.069,0.342-1.561l5.508-10.566
		V69.019c0-3.657,1.027-7.229,2.973-10.309l1.476-2.352c0.567-0.909,0.877-1.957,0.877-3.016V33.75H191.93z"/>
	<path fill="#3A312A" d="M172.764,101.822c-2.146,0-3.962-1.716-4.063-3.869c-0.033-0.821,0.143-1.622,0.511-2.326l5.337-10.238
		V69.02c0-3.95,1.108-7.792,3.206-11.111l1.473-2.348c0.423-0.679,0.648-1.447,0.648-2.219V33.75c0-0.828,0.672-1.5,1.5-1.5h10.555
		c0.406,0,0.795,0.164,1.077,0.456c0.282,0.291,0.435,0.684,0.422,1.091l-1.294,41.728c-0.135,2.233-0.874,4.351-2.139,6.168
		l-14.383,18.719c-0.607,0.868-1.6,1.387-2.755,1.409C172.827,101.821,172.795,101.822,172.764,101.822z M182.875,35.25v18.092
		c0,1.333-0.382,2.649-1.104,3.809l-1.478,2.356c-1.796,2.843-2.744,6.131-2.744,9.513v16.736c0,0.241-0.059,0.479-0.17,0.693
		l-5.507,10.565c-0.127,0.244-0.186,0.516-0.174,0.808c0.025,0.533,0.525,1,1.073,1c0.008,0,0.016,0,0.023-0.001
		c0.255-0.005,0.332-0.086,0.401-0.185l14.379-18.715c0.908-1.308,1.464-2.896,1.564-4.534l1.244-40.138H182.875z"/>
	<path fill="#3A312A" d="M177.268,87.438c-0.47,0-0.933-0.085-1.365-0.263c-0.767-0.314-1.133-1.191-0.818-1.957
		c0.315-0.766,1.189-1.132,1.957-0.818c0.369,0.15,0.996-0.107,1.398-0.577c0.562-0.657,0.855-1.645,1.141-2.6
		c0.667-2.233,1.081-4.276,1.52-6.438c0.432-2.128,0.877-4.328,1.612-7.054c0.216-0.8,1.036-1.272,1.839-1.058
		c0.8,0.216,1.273,1.039,1.058,1.839c-0.71,2.634-1.146,4.786-1.568,6.868c-0.453,2.231-0.88,4.338-1.585,6.7
		c-0.339,1.137-0.761,2.552-1.736,3.691C179.805,86.841,178.512,87.438,177.268,87.438z"/>
	<path fill="#6CA8BF" d="M203.53,35.25h-10.15l-0.34,11.04c3.14,3.7,7.68,6.19,12.78,6.64v150.14c-9.27,0.82-16.68,8.37-17.29,17.68
		h15c0.61-9.31,8.02-16.86,17.29-17.68V52.93C211.55,52.11,204.14,44.56,203.53,35.25z"/>
</g>
</svg>
