<?xml version="1.0" encoding="utf-8"?>
<!-- Generator: Adobe Illustrator 24.0.0, SVG Export Plug-In . SVG Version: 6.00 Build 0)  -->
<svg version="1.1" id="Layer_1" xmlns="http://www.w3.org/2000/svg" xmlns:xlink="http://www.w3.org/1999/xlink" x="0px" y="0px"
	 viewBox="0 0 256 256" enable-background="new 0 0 256 256" xml:space="preserve">
<g>
	<path fill="#D7E057" d="M47.298,26.084c0,0,3.408,12.659,13.222,13.246c0,0-13.1,4.525-13.321,14.202
		c0,0-2.578-13.572-12.925-14.059C34.273,39.473,46.324,37.647,47.298,26.084z"/>
	<path fill="#3A312A" d="M47.197,55.031c-0.713,0-1.335-0.506-1.473-1.217c-0.023-0.124-2.494-12.417-11.521-12.842
		c-0.771-0.037-1.388-0.651-1.428-1.421c-0.04-0.771,0.511-1.445,1.273-1.561c0.441-0.069,10.895-1.817,11.754-12.033
		c0.062-0.725,0.635-1.301,1.359-1.367c0.735-0.058,1.394,0.399,1.584,1.102c0.031,0.116,3.259,11.626,11.863,12.141
		c0.714,0.043,1.298,0.584,1.396,1.292c0.098,0.708-0.318,1.388-0.994,1.623c-0.121,0.042-12.119,4.31-12.313,12.819
		c-0.018,0.767-0.61,1.396-1.375,1.46C47.281,55.03,47.239,55.031,47.197,55.031z M39.457,39.302
		c3.878,1.969,6.229,5.746,7.586,8.876c2.026-4.022,5.941-6.787,8.949-8.427c-4.134-1.842-6.783-5.651-8.334-8.722
		C45.865,35.389,42.388,37.897,39.457,39.302z"/>
	<path fill="#D7E057" d="M25.599,43.064c0,0,2.411,8.954,9.352,9.369c0,0-9.266,3.201-9.422,10.045c0,0-1.824-9.6-9.142-9.944
		C16.386,52.535,24.91,51.243,25.599,43.064z"/>
	<path fill="#3A312A" d="M25.527,63.979c-0.714,0-1.337-0.507-1.473-1.22c-0.016-0.082-1.704-8.442-7.738-8.726
		c-0.771-0.037-1.388-0.651-1.428-1.421c-0.04-0.771,0.511-1.445,1.273-1.561c0.296-0.047,7.363-1.243,7.941-8.114
		c0.062-0.726,0.636-1.303,1.361-1.368c0.717-0.06,1.392,0.399,1.581,1.102l0,0c0.022,0.079,2.228,7.92,7.994,8.265
		c0.714,0.043,1.299,0.584,1.396,1.293c0.097,0.709-0.32,1.388-0.996,1.622c-0.081,0.028-8.282,2.952-8.412,8.662
		c-0.018,0.767-0.611,1.397-1.376,1.461C25.61,63.978,25.568,63.979,25.527,63.979z M21.009,52.451
		c2.106,1.333,3.522,3.395,4.446,5.28c1.376-2.232,3.516-3.872,5.365-4.973c-2.287-1.269-3.884-3.35-4.941-5.223
		C24.706,49.822,22.864,51.41,21.009,52.451z"/>
	<path fill="#D7E057" d="M25.599,16.406c0,0,2.411,8.954,9.352,9.37c0,0-9.266,3.201-9.422,10.045c0,0-1.824-9.6-9.142-9.944
		C16.386,25.877,24.91,24.586,25.599,16.406z"/>
	<path fill="#3A312A" d="M25.527,37.321c-0.714,0-1.337-0.507-1.473-1.22c-0.016-0.082-1.704-8.442-7.738-8.726
		c-0.771-0.037-1.388-0.651-1.428-1.421c-0.04-0.77,0.511-1.445,1.273-1.561c0.296-0.047,7.363-1.243,7.941-8.114
		c0.062-0.726,0.636-1.303,1.361-1.368c0.717-0.06,1.392,0.399,1.581,1.102l0,0c0.022,0.079,2.228,7.919,7.994,8.264
		c0.714,0.043,1.299,0.585,1.396,1.294c0.097,0.709-0.32,1.388-0.996,1.622c-0.081,0.028-8.282,2.953-8.412,8.662
		c-0.018,0.767-0.611,1.397-1.376,1.461C25.61,37.32,25.568,37.321,25.527,37.321z M21.009,25.794
		c2.106,1.333,3.522,3.394,4.446,5.28c1.376-2.232,3.516-3.872,5.365-4.973c-2.287-1.269-3.884-3.35-4.941-5.223
		C24.706,23.165,22.864,24.753,21.009,25.794z"/>
	<path fill="#EA6D7A" d="M239.613,82.162h-88V59.25c0-23.748,19.252-43,43-43h2c23.748,0,43,19.252,43,43V82.162z"/>
	<path fill="#3A312A" d="M239.613,83.663h-88c-0.828,0-1.5-0.671-1.5-1.5V59.25c0-24.538,19.963-44.5,44.5-44.5h2
		c24.537,0,44.5,19.962,44.5,44.5v22.913C241.113,82.991,240.441,83.663,239.613,83.663z M153.113,80.663h85V59.25
		c0-22.883-18.617-41.5-41.5-41.5h-2c-22.883,0-41.5,18.617-41.5,41.5V80.663z"/>
	<path fill="#8AC2D9" d="M190.004,112.436h36.013c7.509,0,13.596-6.087,13.596-13.596V82.162h-88V98.84
		c0,7.509,6.087,13.596,13.596,13.596h10.445H190.004z"/>
	<path fill="#3A312A" d="M226.018,113.936h-36.014c-0.828,0-1.5-0.671-1.5-1.5c0-0.829,0.672-1.5,1.5-1.5h36.014
		c6.67,0,12.096-5.426,12.096-12.096V83.663h-85V98.84c0,6.67,5.427,12.096,12.097,12.096h10.445c0.828,0,1.5,0.671,1.5,1.5
		c0,0.829-0.672,1.5-1.5,1.5H165.21c-8.324,0-15.097-6.772-15.097-15.096V82.163c0-0.829,0.672-1.5,1.5-1.5h88
		c0.828,0,1.5,0.671,1.5,1.5V98.84C241.113,107.164,234.342,113.936,226.018,113.936z"/>
	<path fill="#FAE6CA" d="M70.113,150.75c-2.762,0-5-2.239-5-5v-38.696c0-6.743,2.943-13.121,8.074-17.496l36.138-30.812
		c4.157-3.544,9.455-5.496,14.917-5.496h37.371c2.762,0,5,2.239,5,5s-2.238,5-5,5h-37.371c-3.087,0-6.08,1.103-8.429,3.105
		L79.676,97.167c-2.899,2.473-4.563,6.076-4.563,9.887v38.696C75.113,148.511,72.875,150.75,70.113,150.75z"/>
	<path fill="#3A312A" d="M70.113,152.25c-3.584,0-6.5-2.916-6.5-6.5v-38.696c0-7.183,3.135-13.976,8.601-18.637l36.138-30.812
		c4.429-3.775,10.072-5.854,15.891-5.854h37.371c3.584,0,6.5,2.916,6.5,6.5s-2.916,6.5-6.5,6.5h-37.371
		c-2.73,0-5.378,0.976-7.455,2.747L80.649,98.309c-2.565,2.187-4.036,5.374-4.036,8.745v38.696
		C76.613,149.334,73.697,152.25,70.113,152.25z M124.242,54.75c-5.107,0-10.058,1.825-13.943,5.138L74.161,90.699
		c-4.797,4.09-7.548,10.051-7.548,16.354v38.696c0,1.93,1.57,3.5,3.5,3.5c1.93,0,3.5-1.57,3.5-3.5v-38.696
		c0-4.251,1.854-8.27,5.089-11.028l36.138-30.812c2.62-2.234,5.959-3.464,9.402-3.464h37.371c1.93,0,3.5-1.57,3.5-3.5
		s-1.57-3.5-3.5-3.5H124.242z"/>
	<path fill="#FAE6CA" d="M111.741,232.75c-2.762,0-5-2.239-5-5v-5.008c0-7.164-5.828-12.992-12.992-12.992H46.734
		c-7.164,0-12.992,5.828-12.992,12.992v5.008c0,2.761-2.238,5-5,5c-2.762,0-5-2.239-5-5v-5.008
		c0-12.678,10.314-22.992,22.992-22.992h47.016c12.678,0,22.992,10.314,22.992,22.992v5.008
		C116.742,230.511,114.503,232.75,111.741,232.75z"/>
	<path fill="#3A312A" d="M111.741,234.25c-3.584,0-6.5-2.916-6.5-6.5v-5.008c0-6.337-5.155-11.492-11.492-11.492H46.733
		c-6.337,0-11.492,5.155-11.492,11.492v5.008c0,3.584-2.916,6.5-6.5,6.5s-6.5-2.916-6.5-6.5v-5.008
		c0-13.505,10.987-24.492,24.492-24.492h47.016c13.505,0,24.492,10.987,24.492,24.492v5.008
		C118.241,231.334,115.325,234.25,111.741,234.25z M46.733,208.25h47.016c7.991,0,14.492,6.501,14.492,14.492v5.008
		c0,1.93,1.57,3.5,3.5,3.5c1.93,0,3.5-1.57,3.5-3.5v-5.008c0-11.851-9.642-21.492-21.492-21.492H46.733
		c-11.851,0-21.492,9.641-21.492,21.492v5.008c0,1.93,1.57,3.5,3.5,3.5s3.5-1.57,3.5-3.5v-5.008
		C32.241,214.751,38.742,208.25,46.733,208.25z"/>
	<circle fill="#87796F" cx="111.768" cy="228" r="11.75"/>
	<path fill="#3A312A" d="M111.768,241.25c-7.306,0-13.25-5.944-13.25-13.25s5.944-13.25,13.25-13.25
		c7.306,0,13.25,5.944,13.25,13.25S119.073,241.25,111.768,241.25z M111.768,217.75c-5.652,0-10.25,4.598-10.25,10.25
		s4.598,10.25,10.25,10.25c5.652,0,10.25-4.598,10.25-10.25S117.42,217.75,111.768,217.75z"/>
	<circle fill="#D7E057" cx="169.563" cy="58.238" r="10.988"/>
	<path fill="#3A312A" d="M169.563,70.727c-6.886,0-12.488-5.602-12.488-12.488s5.603-12.488,12.488-12.488
		s12.488,5.602,12.488,12.488S176.448,70.727,169.563,70.727z M169.563,48.75c-5.231,0-9.488,4.256-9.488,9.488
		c0,5.232,4.257,9.488,9.488,9.488s9.488-4.256,9.488-9.488C179.051,53.006,174.794,48.75,169.563,48.75z"/>
	<circle fill="#D7E057" cx="118.845" cy="58.238" r="10.988"/>
	<path fill="#3A312A" d="M118.846,70.727c-6.886,0-12.488-5.602-12.488-12.488s5.603-12.488,12.488-12.488
		c6.886,0,12.488,5.602,12.488,12.488S125.731,70.727,118.846,70.727z M118.846,48.75c-5.231,0-9.488,4.256-9.488,9.488
		c0,5.232,4.257,9.488,9.488,9.488s9.488-4.256,9.488-9.488C128.334,53.006,124.077,48.75,118.846,48.75z"/>
	<circle fill="#D7E057" cx="70.158" cy="99.948" r="10.988"/>
	<path fill="#3A312A" d="M70.158,112.437c-6.886,0-12.488-5.602-12.488-12.488c0-6.886,5.603-12.488,12.488-12.488
		c6.886,0,12.488,5.602,12.488,12.488C82.646,106.835,77.044,112.437,70.158,112.437z M70.158,90.46
		c-5.231,0-9.488,4.256-9.488,9.488c0,5.232,4.257,9.488,9.488,9.488s9.488-4.256,9.488-9.488
		C79.646,94.716,75.39,90.46,70.158,90.46z"/>
	<circle fill="#87796F" cx="28.545" cy="228" r="11.75"/>
	<path fill="#3A312A" d="M28.546,241.25c-7.306,0-13.25-5.944-13.25-13.25s5.944-13.25,13.25-13.25s13.25,5.944,13.25,13.25
		S35.852,241.25,28.546,241.25z M28.546,217.75c-5.652,0-10.25,4.598-10.25,10.25s4.598,10.25,10.25,10.25s10.25-4.598,10.25-10.25
		S34.198,217.75,28.546,217.75z"/>
	<path fill="#EA6D7A" d="M58.603,182.428v17.322h23.11v-59.98c0-2.77-2.25-5.02-5.03-5.02h-13.06c-2.77,0-5.02,2.25-5.02,5.02
		v27.802V182.428z"/>
	<path fill="#3A312A" d="M81.714,201.25h-23.11c-0.828,0-1.5-0.671-1.5-1.5v-17.322c0-0.829,0.672-1.5,1.5-1.5
		c0.828,0,1.5,0.671,1.5,1.5v15.822h20.11v-58.48c0-1.941-1.584-3.52-3.53-3.52H63.623c-1.94,0-3.52,1.579-3.52,3.52v27.802
		c0,0.829-0.672,1.5-1.5,1.5c-0.828,0-1.5-0.671-1.5-1.5V139.77c0-3.595,2.925-6.52,6.52-6.52h13.061c3.601,0,6.53,2.925,6.53,6.52
		v59.98C83.214,200.579,82.542,201.25,81.714,201.25z"/>
	<path fill="#D04E5D" d="M238.114,59.25v21.41h-15V59.25c0-20.68-15.21-37.87-35.02-40.99c2.12-0.33,4.3-0.51,6.52-0.51h2
		C219.495,17.75,238.114,36.37,238.114,59.25z"/>
	<path fill="#6CA8BF" d="M238.114,83.66v15.18c0,6.67-5.43,12.1-12.1,12.1h-15c6.67,0,12.1-5.43,12.1-12.1V83.66H238.114z"/>
	<path fill="#3A312A" d="M163.503,165.493c-0.503,0-0.994-0.253-1.277-0.712c-0.436-0.705-0.216-1.629,0.489-2.064
		c2.698-1.665,4.309-4.551,4.309-7.721s-1.611-6.057-4.309-7.721c-3.592-2.215-5.735-6.057-5.734-10.276
		c0-4.22,2.146-8.061,5.737-10.275c0.704-0.436,1.628-0.215,2.064,0.49c0.435,0.705,0.215,1.629-0.49,2.064
		c-2.699,1.664-4.312,4.551-4.312,7.722c-0.001,3.17,1.61,6.057,4.309,7.722c3.591,2.215,5.734,6.056,5.734,10.274
		c0,4.219-2.144,8.06-5.734,10.275C164.044,165.421,163.773,165.493,163.503,165.493z"/>
	<path fill="#3A312A" d="M184.503,165.493c-0.503,0-0.994-0.253-1.277-0.712c-0.436-0.705-0.216-1.629,0.489-2.064
		c2.698-1.665,4.309-4.551,4.309-7.721s-1.611-6.057-4.309-7.721c-3.592-2.215-5.735-6.057-5.734-10.276
		c0-4.22,2.146-8.061,5.737-10.275c0.704-0.436,1.629-0.215,2.064,0.49c0.435,0.705,0.215,1.629-0.49,2.064
		c-2.699,1.664-4.312,4.551-4.312,7.722c-0.001,3.17,1.61,6.057,4.309,7.722c3.591,2.215,5.734,6.056,5.734,10.274
		c0,4.219-2.144,8.06-5.734,10.275C185.044,165.421,184.773,165.493,184.503,165.493z"/>
	<path fill="#3A312A" d="M205.503,165.493c-0.503,0-0.994-0.253-1.277-0.712c-0.436-0.705-0.216-1.629,0.489-2.064
		c2.698-1.665,4.309-4.551,4.309-7.721s-1.611-6.057-4.309-7.721c-3.592-2.215-5.735-6.057-5.734-10.276
		c0-4.22,2.146-8.061,5.737-10.275c0.704-0.436,1.629-0.215,2.064,0.49c0.435,0.705,0.215,1.629-0.49,2.064
		c-2.699,1.664-4.312,4.551-4.312,7.722c-0.001,3.17,1.61,6.057,4.309,7.722c3.591,2.215,5.734,6.056,5.734,10.274
		c0,4.219-2.144,8.06-5.734,10.275C206.044,165.421,205.773,165.493,205.503,165.493z"/>
	<path fill="#3A312A" d="M226.503,165.493c-0.503,0-0.994-0.253-1.277-0.712c-0.436-0.705-0.216-1.629,0.489-2.064
		c2.698-1.665,4.309-4.551,4.309-7.721s-1.611-6.057-4.309-7.721c-3.592-2.215-5.735-6.057-5.734-10.276
		c0-4.22,2.146-8.061,5.737-10.275c0.703-0.436,1.629-0.215,2.064,0.49c0.435,0.705,0.215,1.629-0.49,2.064
		c-2.699,1.664-4.312,4.551-4.312,7.722c-0.001,3.17,1.61,6.057,4.309,7.722c3.591,2.215,5.734,6.056,5.734,10.274
		c0,4.219-2.144,8.06-5.734,10.275C227.044,165.421,226.773,165.493,226.503,165.493z"/>
</g>
</svg>
