<?xml version="1.0" encoding="utf-8"?>
<!-- Generator: Adobe Illustrator 24.0.0, SVG Export Plug-In . SVG Version: 6.00 Build 0)  -->
<svg version="1.1" id="Layer_1" xmlns="http://www.w3.org/2000/svg" xmlns:xlink="http://www.w3.org/1999/xlink" x="0px" y="0px"
	 viewBox="0 0 256 256" enable-background="new 0 0 256 256" xml:space="preserve">
<g>
	<path fill="#D7E057" d="M67.015,26.204c0,0,3.394,12.663,13.207,13.262c0,0-13.105,4.51-13.337,14.187
		c0,0-2.563-13.575-12.909-14.074C53.975,39.579,66.028,37.767,67.015,26.204z"/>
	<path fill="#3A312A" d="M66.883,55.152c-0.713,0-1.336-0.507-1.473-1.219c-0.024-0.125-2.48-12.421-11.507-12.856
		c-0.77-0.037-1.387-0.652-1.426-1.422c-0.039-0.77,0.512-1.444,1.275-1.559c0.441-0.068,10.896-1.805,11.768-12.019
		c0.062-0.725,0.636-1.3,1.361-1.366c0.718-0.063,1.392,0.401,1.582,1.103c0.032,0.116,3.246,11.629,11.85,12.154
		c0.714,0.043,1.297,0.585,1.394,1.293c0.097,0.708-0.32,1.387-0.996,1.622c-0.121,0.042-12.123,4.296-12.328,12.805
		c-0.019,0.766-0.612,1.395-1.376,1.458C66.965,55.15,66.924,55.152,66.883,55.152z M59.158,39.414
		c3.876,1.974,6.224,5.753,7.577,8.885c2.031-4.019,5.949-6.78,8.958-8.417c-4.132-1.847-6.776-5.659-8.324-8.731
		C65.572,35.508,62.091,38.012,59.158,39.414z"/>
	<path fill="#D7E057" d="M45.297,43.16c0,0,2.401,8.957,9.341,9.38c0,0-9.27,3.19-9.434,10.034c0,0-1.813-9.602-9.131-9.955
		C36.073,52.62,44.598,51.338,45.297,43.16z"/>
	<path fill="#3A312A" d="M45.203,64.075c-0.715,0-1.338-0.508-1.473-1.222c-0.016-0.082-1.694-8.444-7.729-8.735
		c-0.77-0.037-1.387-0.652-1.426-1.422c-0.039-0.77,0.512-1.444,1.275-1.559c0.296-0.046,7.366-1.234,7.952-8.104
		c0.062-0.726,0.637-1.302,1.362-1.367c0.731-0.063,1.392,0.402,1.581,1.105c0.042,0.152,2.246,7.922,7.983,8.272
		c0.714,0.043,1.298,0.585,1.395,1.295c0.097,0.709-0.321,1.388-0.998,1.621c-0.081,0.028-8.286,2.943-8.422,8.652
		c-0.019,0.767-0.613,1.396-1.377,1.459C45.285,64.073,45.244,64.075,45.203,64.075z M40.696,52.542
		c2.105,1.335,3.519,3.398,4.441,5.285c1.378-2.231,3.52-3.868,5.371-4.966c-2.286-1.271-3.88-3.354-4.935-5.229
		C44.396,49.917,42.553,51.503,40.696,52.542z"/>
	<path fill="#D7E057" d="M45.327,16.503c0,0,2.4,8.957,9.341,9.38c0,0-9.27,3.19-9.434,10.035c0,0-1.813-9.602-9.131-9.955
		C36.104,25.963,44.629,24.681,45.327,16.503z"/>
	<path fill="#3A312A" d="M45.233,37.417c-0.715,0-1.338-0.508-1.473-1.222c-0.016-0.082-1.694-8.444-7.729-8.735
		c-0.771-0.037-1.387-0.652-1.426-1.422c-0.039-0.77,0.513-1.444,1.275-1.559c0.296-0.046,7.365-1.234,7.952-8.104
		c0.062-0.726,0.637-1.302,1.362-1.367c0.731-0.063,1.391,0.401,1.581,1.103l0,0c0.021,0.079,2.219,7.922,7.984,8.274
		c0.714,0.043,1.298,0.586,1.395,1.295c0.097,0.709-0.321,1.388-0.998,1.621c-0.081,0.028-8.286,2.943-8.422,8.652
		c-0.019,0.767-0.613,1.396-1.378,1.459C45.315,37.416,45.274,37.417,45.233,37.417z M40.726,25.885
		c2.105,1.335,3.519,3.398,4.441,5.285c1.378-2.231,3.519-3.868,5.371-4.966c-2.286-1.272-3.88-3.354-4.935-5.229
		C44.426,23.259,42.583,24.846,40.726,25.885z"/>
	<path fill="#ED6E7A" d="M219.927,128.398v92.01c0,10.54-8.55,19.09-19.09,19.09H94.717c-10.54,0-19.09-8.55-19.09-19.09v-92.01
		c0-39.85,32.3-72.15,72.15-72.15c19.92,0,37.96,8.07,51.02,21.13C211.857,90.438,219.927,108.478,219.927,128.398z"/>
	<path fill="#3A312A" d="M200.836,240.998H94.717c-11.354,0-20.59-9.236-20.59-20.59v-92.01c0-40.611,33.039-73.65,73.65-73.65
		c19.676,0,38.172,7.66,52.08,21.57c13.91,13.909,21.57,32.405,21.57,52.08v92.01C221.427,231.761,212.19,240.998,200.836,240.998z
		 M147.776,57.748c-38.957,0-70.65,31.693-70.65,70.65v92.01c0,9.699,7.891,17.59,17.59,17.59h106.12
		c9.699,0,17.59-7.891,17.59-17.59v-92.01c0-18.874-7.348-36.617-20.691-49.959C184.394,65.096,166.651,57.748,147.776,57.748z"/>
	<path fill="#D6DF58" d="M132.266,16.62h-17.961c-3.828,0-6.931,3.103-6.931,6.931v9.208c0,3.828,3.103,6.931,6.931,6.931h66.944
		c3.828,0,6.931-3.103,6.931-6.931v-9.208c0-3.828-3.103-6.931-6.931-6.931h-34.627H132.266z"/>
	<path fill="#3A312A" d="M181.248,41.19h-66.943c-4.648,0-8.431-3.782-8.431-8.431v-9.208c0-4.649,3.782-8.431,8.431-8.431h17.961
		c0.829,0,1.5,0.671,1.5,1.5s-0.671,1.5-1.5,1.5h-17.961c-2.995,0-5.431,2.436-5.431,5.431v9.208c0,2.995,2.436,5.431,5.431,5.431
		h66.943c2.995,0,5.431-2.437,5.431-5.431v-9.208c0-2.995-2.436-5.431-5.431-5.431h-34.627c-0.829,0-1.5-0.671-1.5-1.5
		s0.671-1.5,1.5-1.5h34.627c4.649,0,8.431,3.782,8.431,8.431v9.208C189.679,37.408,185.897,41.19,181.248,41.19z"/>
	<rect x="116.074" y="39.692" fill="#87796F" width="63.405" height="23.886"/>
	<path fill="#3A312A" d="M179.479,65.078h-63.405c-0.829,0-1.5-0.671-1.5-1.5V39.692c0-0.829,0.671-1.5,1.5-1.5h63.405
		c0.829,0,1.5,0.671,1.5,1.5v23.886C180.979,64.407,180.308,65.078,179.479,65.078z M117.574,62.078h60.405V41.192h-60.405V62.078z"
		/>
	<polygon fill="#FCE8CB" points="119.605,207.557 219.927,207.557 219.927,130.557 75.627,130.557 75.627,207.557 105.281,207.557 	
		"/>
	<path fill="#3A312A" d="M219.927,209.058H119.604c-0.829,0-1.5-0.671-1.5-1.5s0.671-1.5,1.5-1.5h98.822v-74h-141.3v74h28.155
		c0.829,0,1.5,0.671,1.5,1.5s-0.671,1.5-1.5,1.5H75.626c-0.829,0-1.5-0.671-1.5-1.5v-77c0-0.829,0.671-1.5,1.5-1.5h144.3
		c0.829,0,1.5,0.671,1.5,1.5v77C221.427,208.386,220.755,209.058,219.927,209.058z"/>
	<path fill="#3A312A" d="M119.299,188.656c-0.829,0-1.5-0.671-1.5-1.5v-41.827c0-0.829,0.671-1.5,1.5-1.5s1.5,0.671,1.5,1.5v41.827
		C120.799,187.984,120.127,188.656,119.299,188.656z"/>
	<path fill="#3A312A" d="M96.776,188.656c-0.829,0-1.5-0.671-1.5-1.5v-41.827c0-0.829,0.671-1.5,1.5-1.5c0.829,0,1.5,0.671,1.5,1.5
		v41.827C98.276,187.984,97.605,188.656,96.776,188.656z"/>
	<path fill="#3A312A" d="M119.299,162.916H96.776c-0.829,0-1.5-0.671-1.5-1.5s0.671-1.5,1.5-1.5h22.522c0.829,0,1.5,0.671,1.5,1.5
		S120.127,162.916,119.299,162.916z"/>
	<path fill="#3A312A" d="M165.638,188.656h-2.59c-6.323,0-11.466-5.144-11.466-11.466v-21.895c0-6.323,5.144-11.466,11.466-11.466
		h2.59c6.323,0,11.466,5.144,11.466,11.466v21.895C177.104,183.512,171.961,188.656,165.638,188.656z M163.048,146.829
		c-4.668,0-8.466,3.798-8.466,8.466v21.895c0,4.668,3.798,8.466,8.466,8.466h2.59c4.668,0,8.466-3.798,8.466-8.466v-21.895
		c0-4.668-3.798-8.466-8.466-8.466H163.048z"/>
	<path fill="#3A312A" d="M142.471,194.287H130.56c-0.829,0-1.5-0.671-1.5-1.5v-9.359c0-3.173,2.581-5.754,5.754-5.754h3.403
		c1.519,0,2.754-1.235,2.754-2.753v-2.754H130.56c-0.829,0-1.5-0.671-1.5-1.5s0.671-1.5,1.5-1.5h11.911c0.829,0,1.5,0.671,1.5,1.5
		v4.254c0,3.172-2.581,5.753-5.754,5.753h-3.403c-1.519,0-2.754,1.235-2.754,2.754v7.859h10.411c0.829,0,1.5,0.671,1.5,1.5
		C143.971,193.615,143.299,194.287,142.471,194.287z"/>
	<path fill="#3A312A" d="M198.776,194.287h-11.911c-0.829,0-1.5-0.671-1.5-1.5v-9.359c0-3.173,2.581-5.754,5.754-5.754h3.403
		c1.519,0,2.754-1.235,2.754-2.753v-2.754h-10.411c-0.829,0-1.5-0.671-1.5-1.5s0.671-1.5,1.5-1.5h11.911c0.829,0,1.5,0.671,1.5,1.5
		v4.254c0,3.172-2.581,5.753-5.754,5.753h-3.403c-1.518,0-2.754,1.235-2.754,2.754v7.859h10.411c0.829,0,1.5,0.671,1.5,1.5
		C200.276,193.615,199.605,194.287,198.776,194.287z"/>
	<path fill="#D04E5D" d="M218.427,209.057v11.35c0,9.7-7.89,17.59-17.59,17.59h-15c9.7,0,17.59-7.89,17.59-17.59v-11.35H218.427z"/>
	<path fill="#D04E5D" d="M218.427,128.398v0.66h-15v-0.66c0-18.87-7.35-36.62-20.69-49.96c-5.52-5.52-11.79-9.99-18.58-13.36h15
		c6.79,3.37,13.06,7.84,18.58,13.36C211.077,91.778,218.427,109.528,218.427,128.398z"/>
	<path fill="#DECAAD" d="M203.427,132.057v74h15v-74H203.427z"/>
</g>
</svg>
