<?xml version="1.0" encoding="utf-8"?>
<!-- Generator: Adobe Illustrator 24.0.0, SVG Export Plug-In . SVG Version: 6.00 Build 0)  -->
<svg version="1.1" id="Layer_1" xmlns="http://www.w3.org/2000/svg" xmlns:xlink="http://www.w3.org/1999/xlink" x="0px" y="0px"
	 viewBox="0 0 256 256" enable-background="new 0 0 256 256" xml:space="preserve">
<g>
	<path fill="#D4DB56" d="M121.133,107.344v58.004h-10.767v-47.674c0-5.713,4.627-10.33,10.33-10.33H121.133z"/>
	<path fill="#3A312A" d="M121.133,166.848h-10.767c-0.828,0-1.5-0.672-1.5-1.5v-47.674c0-6.523,5.307-11.83,11.83-11.83h0.437
		c0.828,0,1.5,0.672,1.5,1.5v58.004C122.633,166.176,121.961,166.848,121.133,166.848z M111.866,163.848h7.767v-54.94
		c-4.369,0.527-7.767,4.258-7.767,8.767V163.848z"/>
	<path fill="#ED6E7A" d="M186.872,94.727l-16.605,4.499l-21.214-18.671c-2.393-2.134-6.053-1.937-8.192,0.448
		c-1.679,1.873-1.911,4.535-0.782,6.627c0.308,0.57,0.718,1.106,1.23,1.565l23.273,20.506c1.297,1.161,3.048,1.678,4.768,1.408
		l19.324-4.926L186.872,94.727z"/>
	<path fill="#3A312A" d="M168.439,112.679c-1.782,0-3.506-0.651-4.857-1.861l-23.263-20.498c-0.636-0.571-1.156-1.233-1.559-1.978
		c-1.46-2.704-1.063-6.056,0.984-8.341c2.682-2.988,7.305-3.243,10.307-0.565l20.602,18.132l15.827-4.289
		c0.801-0.214,1.624,0.257,1.841,1.056c0.216,0.8-0.257,1.624-1.056,1.841l-16.605,4.499c-0.488,0.127-1.006,0.011-1.384-0.322
		l-21.214-18.671c-1.777-1.586-4.504-1.438-6.084,0.323c-1.205,1.345-1.438,3.319-0.578,4.913c0.237,0.439,0.545,0.831,0.913,1.162
		l23.261,20.496c0.958,0.857,2.221,1.237,3.479,1.06l19.251-4.908c0.805-0.21,1.619,0.28,1.823,1.083
		c0.205,0.803-0.279,1.619-1.083,1.823l-19.323,4.927c-0.045,0.012-0.091,0.021-0.137,0.028
		C169.2,112.649,168.818,112.679,168.439,112.679z"/>
	<path fill="#F3DEC3" d="M141.305,89.195c-0.511-0.461-0.918-0.994-1.228-1.567c-1.13-2.092-0.889-4.753,0.786-6.621
		c2.136-2.393,5.802-2.585,8.189-0.456l3.86,3.393l-7.686,8.707L141.305,89.195z"/>
	<path fill="#3A312A" d="M145.225,94.15c-0.352,0-0.706-0.123-0.991-0.375l-3.921-3.456c-0.004-0.003-0.008-0.007-0.012-0.011
		c-0.617-0.556-1.136-1.217-1.542-1.965c-1.459-2.702-1.063-6.053,0.986-8.339c2.676-2.997,7.299-3.256,10.305-0.573l3.852,3.385
		c0.299,0.264,0.481,0.635,0.507,1.032c0.025,0.397-0.108,0.789-0.372,1.087l-7.686,8.707
		C146.054,93.979,145.641,94.15,145.225,94.15z M142.303,88.075l2.79,2.459l5.699-6.457l-2.731-2.399
		c-1.781-1.59-4.505-1.438-6.08,0.327c-1.209,1.349-1.442,3.321-0.585,4.91C141.638,87.358,141.942,87.749,142.303,88.075z"/>
	<path fill="#FCE8CB" d="M112.265,55.648l33.593,17.675l-2.503-8.871L111.693,51.88l0,0
		C110.566,53.008,110.854,54.906,112.265,55.648z"/>
	<path fill="#3A312A" d="M145.857,74.823c-0.239,0-0.479-0.057-0.698-0.173l-33.593-17.675h-0.001
		c-1.099-0.579-1.836-1.615-2.021-2.843c-0.187-1.228,0.211-2.436,1.089-3.313c0.423-0.424,1.059-0.555,1.614-0.334l31.661,12.572
		c0.434,0.173,0.763,0.538,0.89,0.987l2.503,8.871c0.163,0.577-0.033,1.195-0.499,1.573
		C146.528,74.71,146.194,74.823,145.857,74.823z M112.963,54.321l30.503,16.049l-1.354-4.798l-29.566-11.74
		C112.599,53.991,112.713,54.189,112.963,54.321L112.963,54.321z"/>
	<path fill="#FCE8CB" d="M119.462,44.112l12.572,31.661l8.871,2.503L123.23,44.683C122.487,43.272,120.59,42.984,119.462,44.112
		L119.462,44.112z"/>
	<path fill="#3A312A" d="M140.904,79.776c-0.136,0-0.272-0.019-0.407-0.057l-8.87-2.503c-0.449-0.127-0.814-0.456-0.987-0.89
		l-12.572-31.661c-0.221-0.557-0.09-1.191,0.334-1.614c0.879-0.879,2.088-1.273,3.314-1.089c1.228,0.187,2.264,0.924,2.841,2.023
		l17.675,33.593c0.279,0.53,0.216,1.177-0.161,1.643C141.78,79.577,141.35,79.776,140.904,79.776z M133.155,74.531l4.796,1.354
		l-16.049-30.503c-0.132-0.249-0.329-0.364-0.488-0.417L133.155,74.531z"/>
	<path fill-rule="evenodd" clip-rule="evenodd" fill="#EB6E7A" d="M135.614,75.216c-4.485-0.404-8.245,3.273-7.941,7.766
		c0.239,3.535,3.068,6.428,6.597,6.746c4.486,0.404,8.246-3.273,7.942-7.767C141.972,78.427,139.143,75.534,135.614,75.216z
		 M134.581,79.547c1.936-0.222,3.544,1.421,3.279,3.352c-0.181,1.315-1.256,2.367-2.575,2.519c-1.936,0.222-3.544-1.422-3.279-3.352
		C132.186,80.75,133.262,79.698,134.581,79.547z"/>
	<path fill="#3A312A" d="M134.934,91.259c-0.266,0-0.531-0.013-0.799-0.036c-4.249-0.384-7.67-3.883-7.958-8.139
		c-0.175-2.581,0.782-5.094,2.624-6.895c1.84-1.8,4.358-2.693,6.948-2.467l0,0c4.248,0.383,7.67,3.881,7.959,8.138
		c0.175,2.581-0.781,5.094-2.623,6.895C139.436,90.368,137.229,91.259,134.934,91.259z M134.951,76.687
		c-1.514,0-2.967,0.586-4.054,1.648c-1.213,1.186-1.843,2.843-1.728,4.547c0.189,2.799,2.439,5.101,5.234,5.353
		c1.698,0.156,3.37-0.438,4.584-1.625c1.213-1.186,1.842-2.843,1.727-4.546c-0.189-2.8-2.44-5.102-5.235-5.353l0,0
		C135.303,76.694,135.127,76.687,134.951,76.687z M134.934,86.938c-1.201,0-2.34-0.475-3.188-1.342
		c-0.97-0.992-1.416-2.354-1.227-3.735c0.276-2.009,1.876-3.573,3.891-3.805c1.388-0.162,2.738,0.317,3.708,1.31
		c0.97,0.992,1.417,2.354,1.228,3.736c-0.276,2.008-1.875,3.573-3.889,3.806C135.282,86.928,135.107,86.938,134.934,86.938z
		 M134.928,81.027c-0.058,0-0.116,0.003-0.175,0.01c-0.001,0-0.001,0-0.001,0c-0.643,0.073-1.172,0.592-1.26,1.232
		c-0.064,0.458,0.082,0.905,0.399,1.229c0.317,0.325,0.762,0.482,1.223,0.429c0.641-0.074,1.171-0.593,1.259-1.233
		c0.063-0.458-0.082-0.906-0.399-1.23C135.697,81.182,135.323,81.027,134.928,81.027z M134.581,79.547h0.01H134.581z"/>
	<path fill-rule="evenodd" clip-rule="evenodd" fill="#3B322A" d="M130.195,60.782c0.506,0.506,0.506,1.326,0,1.831
		c-0.506,0.506-1.326,0.506-1.831,0c-0.506-0.506-0.506-1.326,0-1.831C128.869,60.276,129.689,60.276,130.195,60.782z"/>
	<path fill-rule="evenodd" clip-rule="evenodd" fill="#EB6E7A" d="M150.726,60.105c-4.485-0.404-8.245,3.273-7.941,7.766
		c0.239,3.535,3.068,6.428,6.597,6.746c4.486,0.404,8.246-3.273,7.942-7.767C157.084,63.316,154.254,60.423,150.726,60.105z
		 M149.693,64.435c1.936-0.222,3.544,1.421,3.279,3.352c-0.18,1.315-1.256,2.367-2.575,2.519c-1.936,0.223-3.544-1.422-3.279-3.352
		C147.298,65.638,148.373,64.587,149.693,64.435z"/>
	<path fill="#3A312A" d="M150.046,76.147c-0.266,0-0.531-0.013-0.799-0.036c-4.25-0.384-7.672-3.883-7.959-8.14
		c-0.174-2.579,0.782-5.092,2.623-6.893c1.841-1.802,4.378-2.694,6.949-2.469l0,0c4.25,0.384,7.671,3.883,7.959,8.139
		c0.175,2.581-0.781,5.094-2.623,6.895C154.546,75.257,152.34,76.147,150.046,76.147z M150.064,61.575
		c-1.515,0-2.969,0.586-4.056,1.648c-1.213,1.187-1.842,2.843-1.728,4.546c0.189,2.8,2.439,5.102,5.235,5.354
		c1.697,0.157,3.369-0.438,4.583-1.625c1.213-1.186,1.842-2.843,1.727-4.546c-0.189-2.8-2.439-5.102-5.235-5.354
		C150.415,61.583,150.239,61.575,150.064,61.575z M150.043,71.826c-1.199,0-2.338-0.474-3.185-1.341
		c-0.971-0.991-1.417-2.354-1.227-3.735c0.276-2.009,1.876-3.573,3.891-3.805c1.389-0.163,2.738,0.317,3.708,1.31
		c0.97,0.992,1.417,2.354,1.227,3.736c-0.274,2.008-1.874,3.573-3.89,3.805C150.392,71.816,150.217,71.826,150.043,71.826z
		 M150.039,65.916c-0.058,0-0.116,0.003-0.175,0.01c-0.001,0-0.001,0-0.001,0c-0.643,0.073-1.172,0.592-1.26,1.232
		c-0.064,0.458,0.082,0.906,0.399,1.229c0.316,0.324,0.752,0.481,1.223,0.428c0.642-0.073,1.172-0.592,1.259-1.231
		c0.063-0.459-0.082-0.907-0.399-1.231C150.809,66.07,150.435,65.916,150.039,65.916z M149.692,64.436h0.01H149.692z"/>
	<rect x="23.096" y="221.658" fill="#87796F" width="30.443" height="8.626"/>
	<path fill="#3A312A" d="M53.539,231.783H23.096c-0.828,0-1.5-0.672-1.5-1.5v-8.626c0-0.828,0.672-1.5,1.5-1.5h30.443
		c0.828,0,1.5,0.672,1.5,1.5v8.626C55.039,231.111,54.367,231.783,53.539,231.783z M24.596,228.783h27.443v-5.626H24.596V228.783z"
		/>
	<path fill="#D7E057" d="M47.538,26.763c0,0,3.408,12.659,13.222,13.246c0,0-13.1,4.525-13.321,14.202
		c0,0-2.578-13.572-12.925-14.059C34.513,40.153,46.564,38.327,47.538,26.763z"/>
	<path fill="#3A312A" d="M47.437,55.711c-0.713,0-1.335-0.506-1.473-1.218c-0.023-0.124-2.494-12.417-11.521-12.843
		c-0.771-0.036-1.388-0.65-1.428-1.421c-0.04-0.77,0.511-1.444,1.274-1.561c0.441-0.068,10.894-1.816,11.754-12.031
		c0.061-0.726,0.635-1.301,1.359-1.367c0.736-0.062,1.394,0.399,1.584,1.102c0.031,0.116,3.259,11.626,11.863,12.141
		c0.714,0.042,1.297,0.583,1.396,1.292c0.098,0.708-0.318,1.388-0.994,1.622c-0.121,0.042-12.118,4.311-12.313,12.819
		c-0.018,0.767-0.611,1.396-1.375,1.46C47.521,55.709,47.479,55.711,47.437,55.711z M39.697,39.981
		c3.878,1.969,6.229,5.746,7.586,8.877c2.026-4.021,5.942-6.787,8.949-8.427c-4.134-1.843-6.783-5.651-8.334-8.723
		C46.105,36.068,42.628,38.577,39.697,39.981z"/>
	<path fill="#D7E057" d="M25.839,43.744c0,0,2.411,8.954,9.352,9.369c0,0-9.266,3.201-9.422,10.045c0,0-1.824-9.6-9.142-9.944
		C16.627,53.214,25.15,51.923,25.839,43.744z"/>
	<path fill="#3A312A" d="M25.769,64.658c-0.714,0-1.337-0.507-1.473-1.22c-0.016-0.082-1.704-8.442-7.739-8.727
		c-0.771-0.036-1.388-0.65-1.428-1.421c-0.04-0.77,0.511-1.444,1.273-1.561c0.296-0.047,7.363-1.242,7.942-8.112
		c0.062-0.726,0.636-1.303,1.361-1.368c0.717-0.064,1.392,0.399,1.582,1.102l0,0c0.021,0.079,2.226,7.92,7.993,8.265
		c0.714,0.042,1.299,0.584,1.396,1.293c0.097,0.709-0.32,1.389-0.996,1.622c-0.081,0.028-8.283,2.953-8.412,8.661
		c-0.017,0.767-0.611,1.397-1.376,1.461C25.852,64.656,25.81,64.658,25.769,64.658z M21.249,53.131
		c2.107,1.332,3.523,3.393,4.447,5.279c1.376-2.231,3.515-3.871,5.364-4.972c-2.286-1.27-3.884-3.35-4.94-5.224
		C24.946,50.501,23.104,52.09,21.249,53.131z"/>
	<path fill="#D7E057" d="M25.839,17.086c0,0,2.411,8.954,9.352,9.37c0,0-9.266,3.201-9.422,10.045c0,0-1.824-9.6-9.142-9.944
		C16.627,26.557,25.15,25.265,25.839,17.086z"/>
	<path fill="#3A312A" d="M25.769,38.001c-0.714,0-1.337-0.507-1.473-1.22c-0.016-0.082-1.704-8.442-7.739-8.727
		c-0.771-0.036-1.388-0.65-1.428-1.421c-0.04-0.77,0.511-1.444,1.273-1.561c0.296-0.047,7.363-1.242,7.942-8.113
		c0.062-0.726,0.636-1.303,1.361-1.368c0.717-0.063,1.392,0.399,1.582,1.102l0,0c0.021,0.079,2.226,7.92,7.993,8.266
		c0.714,0.043,1.299,0.584,1.396,1.293c0.097,0.709-0.32,1.389-0.997,1.622c-0.08,0.028-8.282,2.952-8.411,8.661
		c-0.017,0.767-0.611,1.397-1.376,1.461C25.852,37.999,25.81,38.001,25.769,38.001z M21.249,26.474
		c2.107,1.332,3.523,3.394,4.447,5.279c1.376-2.232,3.516-3.872,5.365-4.972c-2.287-1.27-3.885-3.351-4.941-5.225
		C24.946,23.844,23.104,25.433,21.249,26.474z"/>
	<path fill="#F5E1C5" d="M35.96,182.404l-4.871,28.885l-9.451-0.948c-2.568-0.262-4.858,1.609-5.115,4.171
		c-0.257,2.563,1.614,4.853,4.182,5.115c0,0,14.12,1.504,14.476,1.541c4.107,0.419,4.766-2.75,5.488-6.852l13.674-48.766h0
		c0.705,0,16.969-0.001,27.786-0.001c4.737,0,8.616-3.756,8.774-8.491l0,0c0.176-5.263-4.285-9.499-9.531-9.048
		c-14.953,1.289-34.781,3.174-34.923,3.195c-1.342,0.193-3.041,0.824-4.517,2.424c-1.395,1.511-1.75,3.456-1.819,4.135
		l-2.358,13.984L35.96,182.404z"/>
	<path fill="#3A312A" d="M35.907,222.708c-0.278,0-0.57-0.016-0.877-0.047c-0.36-0.037-14.483-1.543-14.483-1.543
		c-3.377-0.344-5.854-3.375-5.516-6.755c0.164-1.639,0.957-3.115,2.233-4.157c1.277-1.043,2.883-1.525,4.525-1.357l8.053,0.808
		l4.638-27.502c0.138-0.817,0.917-1.365,1.729-1.23c0.817,0.138,1.368,0.912,1.23,1.729l-4.871,28.886
		c-0.132,0.779-0.835,1.331-1.629,1.243l-9.451-0.948c-0.843-0.083-1.67,0.161-2.326,0.697c-0.655,0.534-1.062,1.292-1.146,2.132
		c-0.174,1.737,1.102,3.295,2.843,3.473c0.007,0.001,14.124,1.505,14.478,1.542c2.482,0.253,3.038-0.973,3.855-5.619
		c0.009-0.049,0.02-0.098,0.033-0.146l13.674-48.766c0.182-0.648,0.771-1.095,1.444-1.095l27.786-0.002
		c3.947,0,7.143-3.093,7.275-7.041c0.069-2.08-0.757-4.097-2.268-5.529c-1.51-1.434-3.569-2.145-5.636-1.974
		c-14.724,1.27-34.296,3.127-34.878,3.191c-0.92,0.132-2.327,0.583-3.588,1.949c-1.2,1.301-1.409,3.071-1.43,3.268l-2.37,14.082
		c-0.139,0.816-0.919,1.359-1.728,1.23c-0.817-0.138-1.368-0.912-1.231-1.729l2.358-13.983c0.057-0.589,0.421-2.979,2.196-4.903
		c1.858-2.015,3.966-2.684,5.406-2.89c0.229-0.035,20.231-1.932,35.007-3.205c2.922-0.256,5.827,0.763,7.959,2.785
		c2.133,2.023,3.299,4.869,3.2,7.808c-0.188,5.573-4.7,9.939-10.273,9.939l-26.648,0.002L42.135,214.65
		C41.495,218.281,40.685,222.707,35.907,222.708z"/>
	<path fill="#87796F" d="M35.96,182.404l-4.181,24.794l10.272,2.198l12.291-43.842h27.785c4.742,0,8.621-3.759,8.779-8.494
		c0.173-5.267-4.284-9.499-9.529-9.049c-14.954,1.29-34.785,3.174-34.928,3.196c-1.343,0.195-3.039,0.826-4.517,2.424
		c-1.396,1.508-1.748,3.459-1.816,4.134l-2.358,13.983L35.96,182.404z"/>
	<path fill="#3A312A" d="M42.052,210.895c-0.104,0-0.209-0.011-0.314-0.033l-10.272-2.198c-0.785-0.168-1.299-0.925-1.166-1.716
		l4.181-24.794c0.138-0.817,0.917-1.365,1.729-1.23c0.817,0.138,1.368,0.912,1.23,1.729l-3.942,23.379l7.49,1.603l11.91-42.485
		c0.182-0.647,0.771-1.095,1.444-1.095h27.785c3.95,0,7.148-3.094,7.279-7.044c0.068-2.083-0.759-4.101-2.27-5.533
		c-1.509-1.431-3.562-2.145-5.633-1.972c-14.956,1.292-34.329,3.131-34.88,3.191c-0.92,0.135-2.328,0.588-3.591,1.953
		c-1.198,1.294-1.405,3.067-1.426,3.265c-0.003,0.034-0.008,0.067-0.013,0.101l-2.358,13.982c-0.139,0.816-0.919,1.359-1.728,1.23
		c-0.817-0.138-1.368-0.912-1.231-1.729l2.351-13.936c0.082-0.752,0.47-3.078,2.203-4.95c1.857-2.009,3.963-2.681,5.401-2.89
		c0.288-0.046,20.754-1.976,35.015-3.206c2.927-0.249,5.825,0.764,7.954,2.783c2.132,2.022,3.3,4.869,3.203,7.809
		c-0.185,5.577-4.699,9.945-10.277,9.945H55.479l-11.984,42.747C43.31,210.459,42.711,210.895,42.052,210.895z"/>
	<path fill="#8AC5DC" d="M94.779,106.057L94.779,106.057c-8.608,0-15.587,6.978-15.587,15.587v38.257
		c0,3.125,2.533,5.658,5.658,5.658h19.857c3.125,0,5.658-2.533,5.658-5.658v-38.257C110.366,113.035,103.388,106.057,94.779,106.057
		z"/>
	<path fill="#3A312A" d="M104.708,167.06H84.851c-3.947,0-7.158-3.211-7.158-7.158v-38.258c0-9.422,7.665-17.087,17.087-17.087
		s17.087,7.665,17.087,17.087v38.258C111.866,163.849,108.655,167.06,104.708,167.06z M94.779,107.557
		c-7.768,0-14.087,6.319-14.087,14.087v38.258c0,2.293,1.865,4.158,4.158,4.158h19.857c2.293,0,4.158-1.865,4.158-4.158v-38.258
		C108.866,113.876,102.547,107.557,94.779,107.557z"/>
	<path fill="#8AC5DC" d="M88.839,118.653l-9.189,14.279l-27.891,0.353c-3.165,0.019-5.716,2.585-5.705,5.746
		c0.009,2.483,1.6,4.586,3.81,5.372c0.602,0.214,1.257,0.335,1.936,0.334l30.613-0.371c1.718-0.007,3.342-0.787,4.424-2.122
		l10.898-16.39L88.839,118.653z"/>
	<path fill="#3A312A" d="M51.797,146.237c-0.835,0-1.65-0.142-2.436-0.421c-2.864-1.018-4.797-3.741-4.808-6.779
		c-0.014-3.975,3.215-7.227,7.196-7.251l27.074-0.343l8.753-13.602c0.449-0.697,1.379-0.896,2.073-0.45
		c0.697,0.448,0.898,1.377,0.45,2.073l-9.19,14.279c-0.272,0.424-0.739,0.682-1.243,0.689l-27.891,0.354
		c-2.341,0.014-4.231,1.916-4.224,4.241c0.006,1.775,1.137,3.367,2.813,3.963c0.466,0.165,0.971,0.258,1.431,0.247l30.598-0.371
		c1.263-0.005,2.434-0.557,3.235-1.516l10.855-16.327c0.459-0.69,1.392-0.877,2.079-0.419c0.69,0.459,0.878,1.39,0.419,2.079
		l-10.897,16.391c-0.026,0.04-0.054,0.077-0.083,0.114c-1.372,1.693-3.407,2.669-5.584,2.678l-30.6,0.371
		C51.811,146.237,51.805,146.237,51.797,146.237z"/>
	<path fill="#F3DEC3" d="M51.797,144.74c-0.679,0-1.33-0.121-1.936-0.336c-2.211-0.785-3.795-2.894-3.804-5.37
		c-0.018-3.166,2.541-5.731,5.697-5.75l5.072-0.067l0.128,11.462L51.797,144.74z"/>
	<path fill="#3A312A" d="M51.798,146.24c-0.827,0-1.646-0.142-2.438-0.422c-2.862-1.017-4.792-3.74-4.803-6.779
		c-0.023-3.976,3.201-7.231,7.188-7.255l5.062-0.067c0.006,0,0.013,0,0.02,0c0.392,0,0.768,0.153,1.048,0.427
		c0.285,0.278,0.447,0.658,0.452,1.057l0.128,11.462c0.009,0.828-0.654,1.507-1.482,1.517l-5.157,0.062
		C51.81,146.24,51.804,146.24,51.798,146.24z M55.344,134.736l-3.569,0.048c-2.344,0.014-4.23,1.916-4.217,4.241
		c0.006,1.779,1.134,3.372,2.806,3.965c0.464,0.165,0.944,0.249,1.427,0.25l3.648-0.044L55.344,134.736z"/>
	<path fill="#D4DB56" d="M121.133,165.561v32.99H55.711v-32.554c0-0.142,0-0.294,0.02-0.436H121.133z"/>
	<path fill="#3A312A" d="M121.133,200.051H55.711c-0.828,0-1.5-0.672-1.5-1.5v-32.554c0-0.211,0.005-0.438,0.036-0.65
		c0.105-0.738,0.738-1.286,1.484-1.286h65.401c0.828,0,1.5,0.672,1.5,1.5v32.99C122.633,199.379,121.961,200.051,121.133,200.051z
		 M57.211,197.051h62.422v-29.99H57.211V197.051z"/>
	<path fill="#F8E4C8" d="M130.167,146.323H62.76c-8.459,0-15.317,6.857-15.317,15.317v69.922c0,2.283,1.85,4.133,4.133,4.133l0,0
		c2.283,0,4.133-1.851,4.133-4.133V161.64c0-3.894,3.157-7.05,7.05-7.05h67.229c2.159,0,4.087-1.578,4.292-3.727
		C134.516,148.397,132.584,146.323,130.167,146.323z"/>
	<path fill="#3A312A" d="M51.577,237.195c-3.106,0-5.634-2.527-5.634-5.634V161.64c0-9.272,7.544-16.816,16.817-16.816h67.406
		c1.584,0,3.103,0.673,4.17,1.845c1.064,1.172,1.589,2.753,1.438,4.337c-0.272,2.852-2.813,5.085-5.785,5.085H62.761
		c-3.061,0-5.551,2.49-5.551,5.551v69.921C57.21,234.668,54.683,237.195,51.577,237.195z M62.761,147.823
		c-7.619,0-13.817,6.198-13.817,13.816v69.922c0,1.452,1.182,2.634,2.634,2.634c1.452,0,2.633-1.182,2.633-2.634v-69.921
		c0-4.715,3.836-8.551,8.551-8.551h67.229c1.442,0,2.672-1.041,2.799-2.37c0.072-0.756-0.166-1.477-0.671-2.033
		c-0.499-0.549-1.21-0.863-1.95-0.863H62.761z"/>
	<path fill="#87796F" d="M110.75,150.456L110.75,150.456c0,3.344-2.711,6.055-6.055,6.055H73.821c-3.344,0-6.055-2.711-6.055-6.055
		l0,0c0-3.344,2.711-6.055,6.055-6.055h30.873C108.039,144.401,110.75,147.112,110.75,150.456z"/>
	<path fill="#3A312A" d="M104.694,158.012H73.821c-4.166,0-7.555-3.39-7.555-7.556c0-4.166,3.389-7.555,7.555-7.555h30.873
		c4.166,0,7.556,3.389,7.556,7.555C112.25,154.622,108.86,158.012,104.694,158.012z M73.821,145.901
		c-2.512,0-4.555,2.043-4.555,4.555c0,2.512,2.043,4.556,4.555,4.556h30.873c2.512,0,4.556-2.044,4.556-4.556
		c0-2.512-2.044-4.555-4.556-4.555H73.821z"/>
	<path fill="#87796F" d="M231.835,200.577l3.083,6.703c1.227,2.898,5.749,12.039,4.298,14.842l-7.231,13.965
		c-1.642,3.17-5.54,4.409-8.711,2.767c-3.16-1.636-4.398-5.535-2.757-8.705l6.081-11.743c-0.455-0.818-0.915-1.702-1.354-2.679
		l-5.025-9.195L231.835,200.577z"/>
	<path fill="#3A312A" d="M226.232,241.076c-1.232,0-2.481-0.286-3.648-0.891c-1.885-0.975-3.277-2.629-3.92-4.656
		c-0.642-2.026-0.457-4.183,0.521-6.07l5.715-11.035c-0.371-0.696-0.701-1.366-1-2.029l-4.996-9.143
		c-0.194-0.355-0.236-0.775-0.117-1.161c0.119-0.387,0.389-0.709,0.749-0.894l11.615-5.955c0.364-0.185,0.79-0.215,1.175-0.083
		c0.387,0.134,0.701,0.42,0.872,0.791l3.083,6.702c0.184,0.434,0.412,0.941,0.677,1.533c2.619,5.853,5.054,11.803,3.591,14.626
		l-7.231,13.965C231.902,239.508,229.115,241.076,226.232,241.076z M222.274,207.164l4.286,7.843
		c0.019,0.035,0.036,0.07,0.053,0.106c0.368,0.823,0.792,1.661,1.294,2.562c0.246,0.439,0.254,0.973,0.023,1.42l-6.081,11.743
		c-0.609,1.178-0.725,2.521-0.324,3.785c0.399,1.262,1.266,2.291,2.439,2.898c2.432,1.259,5.431,0.306,6.689-2.124l7.232-13.966
		c0.61-1.178-0.623-5.223-3.665-12.021c-0.274-0.613-0.51-1.14-0.682-1.546l-2.41-5.238L222.274,207.164z"/>
	<path fill="#ED6E7A" d="M231.846,200.573l-11.625,5.966l-38.881-71.153c-3.624-6.632,1.701-14.602,9.215-13.793
		c3.277,0.353,6.127,2.404,7.503,5.4L231.846,200.573z"/>
	<path fill="#3A312A" d="M220.222,208.039c-0.531,0-1.045-0.283-1.317-0.78l-38.881-71.153c-1.975-3.614-1.788-7.816,0.5-11.24
		c2.287-3.425,6.09-5.214,10.192-4.764c3.78,0.406,7.116,2.807,8.705,6.265l33.789,73.58c0.335,0.729,0.036,1.594-0.679,1.961
		l-11.626,5.967C220.686,207.986,220.452,208.039,220.222,208.039z M189.507,123.036c-2.619,0-5,1.267-6.489,3.496
		c-1.655,2.478-1.791,5.519-0.361,8.134l38.18,69.871l9.049-4.643l-33.19-72.275c-1.149-2.502-3.563-4.239-6.3-4.534
		C190.097,123.052,189.8,123.036,189.507,123.036z"/>
	<path fill="#87796F" d="M155.619,233.851c0,3.114,2.533,5.647,5.637,5.637c0,0,17.17,0.094,17.606,0.094
		c4.993-0.01,5.398-3.893,5.761-8.917l0.664-12.249l0.01-0.01l-13.049,0.01v0.073l-0.228,9.716h-10.765
		C158.142,228.215,155.609,230.737,155.619,233.851z"/>
	<path fill="#3A312A" d="M178.864,241.082c-0.439,0-17.616-0.094-17.616-0.094c-0.009,0-0.018,0-0.025,0
		c-1.876,0-3.656-0.737-5.001-2.077c-1.354-1.35-2.102-3.146-2.103-5.055l0,0c-0.013-3.931,3.187-7.139,7.132-7.152h9.305
		l0.193-8.251c0.02-0.814,0.685-1.537,1.499-1.538l13.049-0.01h0.001c0.619,0,1.175,0.381,1.398,0.959
		c0.101,0.259,0.125,0.534,0.08,0.796l-0.655,12.086C185.787,235.359,185.375,241.068,178.864,241.082z M161.251,237.988
		c0.013,0,17.175,0.094,17.61,0.094c3.233-0.007,3.845-1.701,4.266-7.525l0.577-10.65l-9.988,0.008l-0.195,8.325
		c-0.019,0.814-0.685,1.465-1.5,1.465h-10.765c-2.286,0.008-4.144,1.866-4.137,4.143c0,0.002,0,0.003,0,0.005
		c0,1.108,0.434,2.15,1.221,2.935c0.777,0.775,1.806,1.202,2.896,1.202C161.241,237.988,161.246,237.988,161.251,237.988z"/>
	<path fill="#ED6E7A" d="M173.033,189.555c-0.03,0-0.057-0.004-0.087-0.004l-0.697,28.864l13.049-0.01h0.01l7.578-80.617
		c0.311-3.28-1.131-6.478-3.789-8.429c-6.093-4.464-14.699-0.228-14.876,7.329l-0.826,34.218L173.033,189.555z"/>
	<path fill="#3A312A" d="M172.249,219.915c-0.404,0-0.791-0.163-1.073-0.452c-0.282-0.289-0.436-0.68-0.427-1.084l0.696-28.864
		c0.01-0.399,0.179-0.779,0.47-1.054c0.291-0.275,0.646-0.438,1.079-0.409c0.023,0.001,0.083,0.004,0.107,0.006
		c0.828,0,1.466,0.671,1.466,1.499c0,0.218-0.049,0.424-0.136,0.61l-0.645,26.747l10.156-0.008l7.45-79.259
		c0.26-2.735-0.96-5.447-3.184-7.079c-2.4-1.758-5.431-2.025-8.105-0.707s-4.313,3.883-4.382,6.862l-0.826,34.219
		c-0.02,0.828-0.684,1.473-1.536,1.464c-0.828-0.021-1.483-0.708-1.464-1.536l0.826-34.218c0.097-4.117,2.36-7.662,6.056-9.482
		c3.695-1.817,7.884-1.453,11.206,0.979c3.07,2.254,4.755,6.001,4.396,9.78l-7.578,80.616c-0.072,0.771-0.719,1.359-1.493,1.359
		l-13.058,0.01H172.249z"/>
	<path fill="#ED6E7A" d="M177.553,136.16h20.743c2.993,0,5.42-2.427,5.42-5.42V90.806c0-8.246-6.685-14.931-14.931-14.931h-1.721
		c-8.246,0-14.931,6.685-14.931,14.931v39.934C172.132,133.734,174.559,136.16,177.553,136.16z"/>
	<path fill="#3A312A" d="M198.296,137.66h-20.743c-3.815,0-6.92-3.105-6.92-6.92V90.806c0-9.06,7.371-16.431,16.431-16.431h1.722
		c9.061,0,16.432,7.371,16.432,16.431v39.935C205.217,134.556,202.112,137.66,198.296,137.66z M187.064,77.375
		c-7.405,0-13.431,6.025-13.431,13.431v39.935c0,2.161,1.759,3.92,3.92,3.92h20.743c2.162,0,3.921-1.759,3.921-3.92V90.806
		c0-7.405-6.025-13.431-13.432-13.431H187.064z"/>
	<path fill="#ED6E7A" d="M203.72,90.809v39.93c0,3-2.43,5.42-5.42,5.42h-20.75c-2.99,0-5.42-2.42-5.42-5.42v-39.93
		c0-8.25,6.69-14.93,14.93-14.93h1.73C197.03,75.878,203.72,82.559,203.72,90.809z"/>
	<path fill="#3A312A" d="M198.3,137.658h-20.75c-3.815,0-6.92-3.105-6.92-6.92v-39.93c0-9.06,7.371-16.431,16.431-16.431h1.729
		c9.06,0,16.43,7.371,16.43,16.431v39.93C205.22,134.554,202.115,137.658,198.3,137.658z M187.061,77.378
		c-7.405,0-13.431,6.025-13.431,13.431v39.93c0,2.161,1.759,3.92,3.92,3.92h20.75c2.161,0,3.92-1.759,3.92-3.92v-39.93
		c0-7.405-6.024-13.431-13.43-13.431H187.061z"/>
	<path fill="#ED6E7A" d="M182.441,92.815l-9.31,14.467l-28.258,0.358c-3.206,0.02-5.791,2.619-5.78,5.822
		c0.009,2.515,1.621,4.647,3.86,5.442c0.61,0.217,1.274,0.34,1.962,0.338l31.016-0.376c1.741-0.007,3.386-0.797,4.482-2.15
		l11.041-16.606L182.441,92.815z"/>
	<path fill="#3A312A" d="M144.911,120.742c-0.845,0-1.667-0.143-2.46-0.425c-2.894-1.027-4.847-3.779-4.858-6.85
		c-0.014-4.016,3.248-7.303,7.271-7.327l27.442-0.348l8.873-13.789c0.449-0.696,1.378-0.896,2.073-0.45
		c0.697,0.448,0.898,1.377,0.45,2.073l-9.309,14.467c-0.273,0.424-0.739,0.682-1.243,0.688l-28.259,0.358
		c-2.383,0.015-4.307,1.951-4.299,4.316c0.007,1.807,1.157,3.429,2.862,4.034c0.474,0.167,0.944,0.207,1.456,0.251l31.001-0.375
		c1.286-0.006,2.479-0.567,3.294-1.544l10.999-16.543c0.459-0.69,1.392-0.877,2.079-0.419c0.69,0.459,0.878,1.39,0.419,2.079
		l-11.041,16.606c-0.025,0.039-0.054,0.077-0.083,0.113c-1.385,1.711-3.44,2.697-5.642,2.707l-31.004,0.375
		C144.926,120.742,144.919,120.742,144.911,120.742z"/>
	<path fill="#F3DEC3" d="M144.913,119.246c-0.688,0.001-1.347-0.123-1.962-0.34c-2.24-0.796-3.845-2.932-3.854-5.441
		c-0.018-3.207,2.575-5.807,5.772-5.826l5.139-0.068l0.13,11.613L144.913,119.246z"/>
	<path fill="#3A312A" d="M144.913,120.746c-0.835,0-1.664-0.144-2.463-0.427c-2.892-1.025-4.842-3.777-4.854-6.849
		c-0.023-4.017,3.235-7.308,7.264-7.332l5.128-0.068c0.006,0,0.013,0,0.02,0c0.392,0,0.768,0.153,1.048,0.427
		c0.285,0.278,0.447,0.658,0.452,1.057l0.13,11.613c0.009,0.828-0.654,1.507-1.482,1.517l-5.225,0.063
		C144.925,120.746,144.919,120.746,144.913,120.746z M148.524,109.09l-3.636,0.049c-2.385,0.015-4.306,1.951-4.292,4.317
		c0.007,1.812,1.154,3.432,2.855,4.035c0.475,0.168,0.963,0.254,1.453,0.255l3.716-0.045L148.524,109.09z"/>
	<rect x="162.042" y="44.418" fill="#87796F" width="45.188" height="28.497"/>
	<path fill="#3A312A" d="M207.23,74.415h-45.188c-0.828,0-1.5-0.672-1.5-1.5V44.418c0-0.828,0.672-1.5,1.5-1.5h45.188
		c0.828,0,1.5,0.672,1.5,1.5v28.497C208.73,73.743,208.059,74.415,207.23,74.415z M163.542,71.415h42.188V45.918h-42.188V71.415z"/>
	<path fill-rule="evenodd" clip-rule="evenodd" fill="#F4E0C4" d="M168.726,52.054c0,2.615-2.121,4.735-4.738,4.735
		c-2.617,0-4.738-2.12-4.738-4.735s2.121-4.735,4.738-4.735C166.605,47.319,168.726,49.439,168.726,52.054z"/>
	<path fill="#3A312A" d="M163.988,58.289c-3.439,0-6.237-2.797-6.237-6.235c0-3.438,2.798-6.234,6.237-6.234
		c3.439,0,6.238,2.797,6.238,6.234C170.227,55.492,167.428,58.289,163.988,58.289z M163.988,48.819
		c-1.785,0-3.237,1.451-3.237,3.234c0,1.784,1.452,3.235,3.237,3.235c1.785,0,3.238-1.451,3.238-3.235
		C167.227,50.271,165.773,48.819,163.988,48.819z"/>
	<path fill-rule="evenodd" clip-rule="evenodd" fill="#F4E0C4" d="M210.077,52.054c0,2.615-2.121,4.735-4.738,4.735
		c-2.617,0-4.738-2.12-4.738-4.735s2.121-4.735,4.738-4.735C207.956,47.319,210.077,49.439,210.077,52.054z"/>
	<path fill="#3A312A" d="M205.34,58.289c-3.439,0-6.238-2.797-6.238-6.235c0-3.438,2.799-6.234,6.238-6.234
		c3.439,0,6.237,2.797,6.237,6.234C211.577,55.492,208.779,58.289,205.34,58.289z M205.34,48.819c-1.785,0-3.238,1.451-3.238,3.234
		c0,1.784,1.453,3.235,3.238,3.235c1.785,0,3.237-1.451,3.237-3.235C208.577,50.271,207.125,48.819,205.34,48.819z"/>
	<path fill="#F4E0C4" d="M205.668,49.757c0,6.526-3.542,15.022-8.394,21.198c-3.762,4.796-8.313,8.191-12.608,8.191
		c-4.23,0-8.912-3.615-12.779-8.647c-4.718-6.135-8.223-14.375-8.223-20.742c0-11.594,9.4-20.994,21.002-20.994
		C196.264,28.763,205.668,38.163,205.668,49.757z"/>
	<path fill="#3A312A" d="M184.665,80.646c-5.977,0-11.317-5.784-13.969-9.232c-5.184-6.74-8.533-15.241-8.533-21.656
		c0-12.403,10.095-22.494,22.502-22.494c12.408,0,22.503,10.091,22.503,22.494c0,6.6-3.502,15.491-8.715,22.125
		C194.02,77.533,189.123,80.646,184.665,80.646z M184.665,30.263c-10.753,0-19.502,8.745-19.502,19.494
		c0,5.706,3.18,13.674,7.912,19.828c3.939,5.122,8.163,8.061,11.59,8.061c3.466,0,7.631-2.776,11.429-7.616
		c4.829-6.147,8.074-14.294,8.074-20.272C204.168,39.008,195.419,30.263,184.665,30.263z"/>
	<path fill="#3A312A" d="M179.299,49.519c0,1.132-0.918,2.049-2.05,2.049c-1.132,0-2.05-0.917-2.05-2.049
		c0-1.131,0.918-2.049,2.05-2.049C178.381,47.47,179.299,48.387,179.299,49.519z"/>
	<path fill="#3A312A" d="M194.129,49.519c0,1.132-0.918,2.049-2.05,2.049c-1.132,0-2.05-0.917-2.05-2.049
		c0-1.131,0.918-2.049,2.05-2.049C193.211,47.47,194.129,48.387,194.129,49.519z"/>
	<path fill="#F59689" d="M176.683,55.61c0,1.457-1.581,2.639-3.531,2.639c-1.95,0-3.531-1.181-3.531-2.639
		c0-1.457,1.581-2.638,3.531-2.638C175.102,52.972,176.683,54.153,176.683,55.61z"/>
	<path fill="#F59689" d="M199.707,55.61c0,1.457-1.581,2.639-3.531,2.639c-1.95,0-3.531-1.181-3.531-2.639
		c0-1.457,1.581-2.638,3.531-2.638C198.126,52.972,199.707,54.153,199.707,55.61z"/>
	<path fill="#3A312A" d="M184.663,68.282c-3.291,0-5.767-1.544-7.157-4.466c-0.355-0.748-0.038-1.643,0.71-1.999
		c0.748-0.355,1.643-0.038,1.999,0.71c0.907,1.905,2.279,2.755,4.448,2.755c2.503,0,4.002-1.577,4.399-2.637
		c0.291-0.776,1.153-1.171,1.931-0.878c0.775,0.29,1.169,1.155,0.878,1.931C191.044,65.906,188.436,68.282,184.663,68.282z"/>
	<path fill="#87796F" d="M209.279,41.044c0,2.19-0.285,4.313-0.824,6.333c-5.477-2.639-10.687-5.879-15.514-9.542
		c-1.416-1.073-2.81-2.19-4.141-3.374c-1.634-1.433-3.179-2.977-4.573-4.651c-3.033-3.649-5.259-7.842-7.143-12.208
		c2.378-0.77,4.916-1.184,7.552-1.184c7.049,0,13.408,2.96,17.901,7.704C206.719,28.533,209.279,34.488,209.279,41.044z"/>
	<path fill="#3A312A" d="M208.455,48.877c-0.223,0-0.445-0.05-0.651-0.148c-5.433-2.618-10.738-5.881-15.77-9.698
		c-1.605-1.216-2.989-2.345-4.231-3.448c-1.771-1.554-3.365-3.175-4.729-4.812c-2.757-3.318-5.098-7.313-7.367-12.574
		c-0.168-0.388-0.164-0.827,0.011-1.212c0.174-0.385,0.502-0.679,0.904-0.809c2.575-0.835,5.271-1.258,8.015-1.258
		c7.254,0,13.998,2.902,18.989,8.173c4.613,4.865,7.153,11.241,7.153,17.953c0,2.283-0.294,4.544-0.875,6.72
		c-0.115,0.432-0.417,0.79-0.823,0.977C208.883,48.831,208.669,48.877,208.455,48.877z M179.156,18.573
		c1.934,4.225,3.932,7.521,6.224,10.278c1.263,1.516,2.746,3.023,4.409,4.481c1.189,1.059,2.515,2.138,4.058,3.306
		c4.348,3.299,8.901,6.168,13.563,8.546c0.246-1.358,0.37-2.744,0.37-4.141c0-5.94-2.248-11.583-6.331-15.89
		c-4.419-4.667-10.39-7.236-16.811-7.236C182.774,17.918,180.938,18.138,179.156,18.573z"/>
	<path fill="#87796F" d="M202.537,24.122c-4.239,3.863-8.852,7.281-13.737,10.339c-8.661,5.425-18.159,9.707-27.88,13.272
		c-0.601-2.127-0.922-4.371-0.922-6.689c0-10.966,7.174-20.259,17.086-23.442c2.378-0.77,4.916-1.184,7.552-1.184
		C191.685,16.418,198.044,19.378,202.537,24.122z"/>
	<path fill="#3A312A" d="M160.92,49.233c-0.234,0-0.469-0.055-0.682-0.164c-0.372-0.19-0.648-0.526-0.762-0.929
		c-0.649-2.3-0.979-4.688-0.979-7.097c0-11.394,7.285-21.39,18.128-24.87c2.571-0.833,5.268-1.256,8.011-1.256
		c7.254,0,13.998,2.902,18.989,8.173c0.277,0.292,0.425,0.684,0.41,1.086c-0.015,0.403-0.191,0.782-0.488,1.054
		c-4.112,3.748-8.807,7.281-13.952,10.502c-7.983,5.001-17.194,9.388-28.159,13.409C161.27,49.203,161.095,49.233,160.92,49.233z
		 M184.637,17.918c-2.429,0-4.814,0.374-7.091,1.111c-9.601,3.082-16.048,11.929-16.048,22.015c0,1.585,0.161,3.158,0.479,4.697
		c10.077-3.788,18.605-7.901,26.027-12.552c4.508-2.821,8.653-5.886,12.346-9.123C196.064,20.09,190.541,17.918,184.637,17.918z"/>
	<rect x="81.831" y="198.551" fill="#D4DB56" width="13.192" height="29.702"/>
	<path fill="#3A312A" d="M95.023,229.754H81.831c-0.828,0-1.5-0.672-1.5-1.5v-29.703c0-0.828,0.672-1.5,1.5-1.5h13.192
		c0.828,0,1.5,0.672,1.5,1.5v29.703C96.523,229.082,95.852,229.754,95.023,229.754z M83.331,226.754h10.192v-26.703H83.331V226.754z
		"/>
	<rect x="81.831" y="198.551" fill="#D4DB56" width="13.192" height="29.702"/>
	<path fill="#3A312A" d="M95.023,229.754H81.831c-0.828,0-1.5-0.672-1.5-1.5v-29.703c0-0.828,0.672-1.5,1.5-1.5h13.192
		c0.828,0,1.5,0.672,1.5,1.5v29.703C96.523,229.082,95.852,229.754,95.023,229.754z M83.331,226.754h10.192v-26.703H83.331V226.754z
		"/>
	<path fill="#F8E4C8" d="M95.023,209.48v7.103h17.88c1.962,0,3.552-1.59,3.552-3.552v0c0-1.962-1.59-3.552-3.552-3.552H95.023z"/>
	<path fill="#3A312A" d="M112.903,218.084h-17.88c-0.828,0-1.5-0.672-1.5-1.5v-7.104c0-0.828,0.672-1.5,1.5-1.5h17.88
		c2.785,0,5.052,2.267,5.052,5.052C117.955,215.817,115.688,218.084,112.903,218.084z M96.523,215.084h16.38
		c1.131,0,2.052-0.921,2.052-2.052c0-1.131-0.921-2.052-2.052-2.052h-16.38V215.084z"/>
	<path fill="#D4DB56" d="M107.702,239.416v-0.148c0-6.083-4.931-11.015-11.015-11.015H80.156c-6.083,0-11.015,4.932-11.015,11.015
		l0,0c0.057,0.057,0.09,0.09,0.148,0.148H107.702z"/>
	<path fill="#3A312A" d="M107.702,240.916H69.289c-0.397,0-0.779-0.158-1.061-0.439l-0.156-0.156
		c-0.276-0.28-0.431-0.658-0.431-1.052c0-6.9,5.614-12.515,12.515-12.515h16.531c6.9,0,12.515,5.614,12.515,12.515v0.147
		C109.202,240.244,108.53,240.916,107.702,240.916z M70.737,237.916h35.369c-0.659-4.608-4.632-8.162-9.419-8.162H80.156
		C75.369,229.754,71.396,233.308,70.737,237.916z"/>
	<path fill="#F6E2C6" d="M68.978,86.175c1.311,13.675,10.236,24.006,19.934,23.076c9.698-0.931,16.498-12.771,15.187-26.446
		c-1.311-13.675-10.236-24.006-19.934-23.076C74.466,60.66,67.667,72.5,68.978,86.175z"/>
	<path fill="#3A312A" d="M87.681,110.809c-4.711,0-9.287-2.321-13.017-6.639c-3.967-4.592-6.517-10.932-7.18-17.852
		c-1.388-14.478,6.031-27.075,16.537-28.082c5.193-0.496,10.3,1.837,14.391,6.573c3.967,4.592,6.517,10.932,7.18,17.852
		c1.388,14.477-6.031,27.074-16.536,28.082C88.597,110.787,88.138,110.809,87.681,110.809z M85.382,61.171
		c-0.357,0-0.716,0.018-1.073,0.052c-8.86,0.85-15.067,11.979-13.838,24.809c0.604,6.308,2.899,12.053,6.464,16.178
		c3.438,3.979,7.644,5.942,11.834,5.548c8.859-0.85,15.066-11.979,13.837-24.809c-0.604-6.308-2.899-12.053-6.463-16.178
		C92.997,63.131,89.213,61.171,85.382,61.171z"/>
	<path fill="#87796F" d="M91.29,117.085h18.402c0.062-8.618,0.113-28.786,0.151-41.063c0.035-11.418-9.256-20.676-20.673-20.598
		c-1.97,0.014-1.084,0.034-1.402,0.065c-7.56,0.721-13.649,6.687-16.47,14.948c5.125,3.125,10.757,5.175,16.612,6.515
		C93.974,86.171,92.3,108.038,91.29,117.085z"/>
	<path fill="#3A312A" d="M109.692,118.585H91.29c-0.427,0-0.833-0.182-1.118-0.5c-0.284-0.318-0.42-0.742-0.373-1.167
		c0.969-8.67,2.595-29.544-2.832-38.646c-6.284-1.493-11.671-3.64-16.45-6.555c-0.6-0.366-0.865-1.1-0.639-1.765
		C72.978,60.876,79.757,54.768,87.576,54c0.406-0.068,0.925-0.072,1.584-0.076c0.052,0,0.105-0.001,0.157-0.001
		c5.865,0,11.379,2.278,15.542,6.425c4.199,4.184,6.502,9.752,6.483,15.679l-0.023,7.729c-0.034,11.744-0.077,26.358-0.127,33.341
		C111.186,117.92,110.517,118.585,109.692,118.585z M92.958,115.585h15.244c0.046-7.416,0.085-20.878,0.117-31.839l0.023-7.729
		c0.017-5.119-1.973-9.929-5.602-13.544c-3.595-3.582-8.358-5.55-13.425-5.55c-0.046,0-0.091,0.001-0.136,0.001
		c-0.509,0.003-0.813,0.006-0.992,0.01c-0.087,0.022-0.18,0.038-0.278,0.048c-6.328,0.604-11.906,5.468-14.775,12.799
		c4.394,2.52,9.35,4.391,15.109,5.709c0.377,0.086,0.706,0.314,0.918,0.638C95.143,85.218,93.969,105.622,92.958,115.585z"/>
	<path fill="#F59689" d="M80.938,89.09c0.142,1.479,1.86,2.523,3.838,2.334c1.978-0.19,3.467-1.542,3.325-3.021
		c-0.142-1.479-1.86-2.523-3.838-2.333C82.285,86.259,80.796,87.611,80.938,89.09z"/>
	<path fill="#3A312A" d="M74.412,102.922c-0.71,0-1.341-0.506-1.474-1.229c-0.149-0.815,0.391-1.597,1.205-1.746
		c1.828-0.335,2.984-1.333,3.637-3.142c0.281-0.78,1.141-1.183,1.92-0.902c0.779,0.281,1.184,1.141,0.902,1.92
		c-1.023,2.836-3.015,4.544-5.918,5.075C74.593,102.914,74.502,102.922,74.412,102.922z"/>
	<path fill="#3A312A" d="M80.143,86.2c-2.729,0-4.766-1.611-5.553-3.223c-0.363-0.744-0.055-1.643,0.689-2.006
		c0.745-0.363,1.643-0.054,2.006,0.689c0.344,0.703,1.498,1.689,3.249,1.52c1.525-0.146,2.432-0.834,2.939-2.233
		c0.283-0.778,1.139-1.181,1.923-0.897c0.778,0.283,1.18,1.144,0.897,1.923c-0.904,2.487-2.797,3.938-5.474,4.193
		C80.59,86.189,80.363,86.2,80.143,86.2z"/>
	<rect x="172.13" y="123.918" fill="#87796F" width="31.59" height="6"/>
	<path fill="#3A312A" d="M203.72,131.418h-31.59c-0.828,0-1.5-0.672-1.5-1.5v-6c0-0.828,0.672-1.5,1.5-1.5h31.59
		c0.828,0,1.5,0.672,1.5,1.5v6C205.22,130.746,204.548,131.418,203.72,131.418z M173.63,128.418h28.59v-3h-28.59V128.418z"/>
	<rect x="182.72" y="123.918" fill="#87796F" width="21" height="23"/>
	<path fill="#3A312A" d="M203.72,148.418h-21c-0.828,0-1.5-0.672-1.5-1.5v-23c0-0.828,0.672-1.5,1.5-1.5h21
		c0.828,0,1.5,0.672,1.5,1.5v23C205.22,147.746,204.548,148.418,203.72,148.418z M184.22,145.418h18v-20h-18V145.418z"/>
	<path fill="#3A312A" d="M189.719,143.168c-0.828,0-1.5-0.672-1.5-1.5v-12.499c0-0.828,0.672-1.5,1.5-1.5c0.828,0,1.5,0.672,1.5,1.5
		v12.499C191.219,142.496,190.547,143.168,189.719,143.168z"/>
	<path fill="#3A312A" d="M196.719,143.168c-0.828,0-1.5-0.672-1.5-1.5v-12.499c0-0.828,0.672-1.5,1.5-1.5c0.828,0,1.5,0.672,1.5,1.5
		v12.499C198.219,142.496,197.547,143.168,196.719,143.168z"/>
	<path fill="#D04E5D" d="M202.22,90.809v31.61h-15v-13.24l5.48-8.24c0.46-0.69,0.27-1.62-0.42-2.08c-0.68-0.45-1.62-0.27-2.07,0.42
		l-2.99,4.5v-12.97c0-4.26-1.99-8.05-5.09-10.51c0.83,0.23,1.68,0.35,2.54,0.35c2.47,0,5.07-0.96,7.66-2.78
		C198.02,79.428,202.22,84.628,202.22,90.809z"/>
</g>
</svg>
