<?xml version="1.0" encoding="utf-8"?>
<!-- Generator: Adobe Illustrator 24.0.0, SVG Export Plug-In . SVG Version: 6.00 Build 0)  -->
<svg version="1.1" id="Layer_1" xmlns="http://www.w3.org/2000/svg" xmlns:xlink="http://www.w3.org/1999/xlink" x="0px" y="0px"
	 viewBox="0 0 256 256" enable-background="new 0 0 256 256" xml:space="preserve">
<g>
	<path fill="#D7E057" d="M197.509,26.093c0,0,3.408,12.659,13.222,13.246c0,0-13.1,4.525-13.321,14.202
		c0,0-2.578-13.572-12.925-14.059C184.484,39.482,196.535,37.657,197.509,26.093z"/>
	<path fill="#3A312A" d="M197.409,55.041c-0.713,0-1.335-0.506-1.472-1.217c-0.024-0.125-2.495-12.418-11.523-12.844
		c-0.77-0.036-1.387-0.65-1.427-1.421c-0.039-0.77,0.511-1.444,1.274-1.561c0.441-0.068,10.894-1.816,11.754-12.032
		c0.061-0.726,0.634-1.301,1.359-1.367c0.738-0.06,1.393,0.399,1.583,1.102c0.032,0.116,3.259,11.626,11.864,12.142
		c0.714,0.043,1.297,0.584,1.396,1.292c0.098,0.708-0.319,1.388-0.994,1.622c-0.121,0.042-12.119,4.311-12.313,12.819
		c-0.018,0.767-0.61,1.396-1.375,1.46C197.493,55.039,197.45,55.041,197.409,55.041z M189.667,39.312
		c3.878,1.969,6.23,5.746,7.587,8.876c2.026-4.021,5.941-6.786,8.949-8.427c-4.134-1.842-6.783-5.651-8.334-8.723
		C196.076,35.398,192.598,37.906,189.667,39.312z"/>
	<path fill="#D7E057" d="M175.81,43.074c0,0,2.411,8.954,9.352,9.369c0,0-9.266,3.201-9.422,10.045c0,0-1.824-9.6-9.142-9.944
		C166.598,52.544,175.121,51.253,175.81,43.074z"/>
	<path fill="#3A312A" d="M175.738,63.988c-0.713,0-1.337-0.508-1.472-1.22c-0.016-0.082-1.704-8.442-7.739-8.727
		c-0.77-0.036-1.387-0.65-1.427-1.421c-0.04-0.77,0.511-1.444,1.273-1.561c0.296-0.047,7.364-1.242,7.942-8.113
		c0.061-0.726,0.635-1.303,1.36-1.368c0.727-0.071,1.392,0.399,1.582,1.102l0,0c0.021,0.079,2.228,7.92,7.994,8.266
		c0.714,0.043,1.299,0.584,1.396,1.293c0.098,0.709-0.32,1.389-0.996,1.622c-0.081,0.028-8.282,2.952-8.413,8.661
		c-0.018,0.768-0.611,1.397-1.376,1.461C175.821,63.986,175.78,63.988,175.738,63.988z M171.22,52.461
		c2.107,1.332,3.523,3.394,4.447,5.279c1.376-2.232,3.515-3.871,5.365-4.972c-2.287-1.27-3.884-3.351-4.941-5.225
		C174.917,49.831,173.076,51.42,171.22,52.461z"/>
	<path fill="#D7E057" d="M175.81,16.416c0,0,2.411,8.954,9.352,9.37c0,0-9.266,3.201-9.422,10.045c0,0-1.824-9.6-9.142-9.944
		C166.598,25.887,175.121,24.595,175.81,16.416z"/>
	<path fill="#3A312A" d="M175.738,37.331c-0.713,0-1.337-0.508-1.472-1.22c-0.016-0.082-1.704-8.442-7.739-8.727
		c-0.77-0.036-1.387-0.65-1.427-1.421c-0.04-0.77,0.511-1.444,1.273-1.561c0.296-0.047,7.364-1.242,7.942-8.113
		c0.061-0.726,0.635-1.303,1.36-1.368c0.727-0.064,1.392,0.399,1.582,1.101l0,0c0.021,0.079,2.228,7.92,7.994,8.265
		c0.715,0.042,1.299,0.584,1.396,1.293c0.098,0.709-0.319,1.388-0.996,1.622c-0.081,0.028-8.282,2.953-8.413,8.662
		c-0.018,0.768-0.611,1.397-1.376,1.461C175.821,37.329,175.78,37.331,175.738,37.331z M171.22,25.804
		c2.107,1.332,3.523,3.394,4.447,5.279c1.376-2.232,3.515-3.872,5.365-4.973c-2.287-1.269-3.884-3.35-4.941-5.224
		C174.917,23.174,173.076,24.763,171.22,25.804z"/>
	<path fill="#87796F" d="M16.205,227.509c-0.035-4.343-0.058-145.534-0.058-145.534c0-36.197,29.343-65.54,65.54-65.54h0
		c36.197,0,65.54,29.343,65.54,65.54c0,0-0.023,141.191-0.058,145.534H16.205z"/>
	<path fill="#3A312A" d="M147.169,229.009H16.205c-0.824,0-1.493-0.664-1.5-1.488c-0.035-4.299-0.058-144.134-0.058-145.546
		c0-36.966,30.074-67.04,67.04-67.04s67.04,30.074,67.04,67.04c0,1.412-0.023,141.247-0.058,145.546
		C148.663,228.345,147.993,229.009,147.169,229.009z M17.7,226.009h127.974c0.032-15.717,0.053-142.69,0.053-144.034
		c0-35.312-28.728-64.04-64.04-64.04s-64.04,28.729-64.04,64.04C17.647,83.319,17.668,210.293,17.7,226.009z"/>
	<path fill="#F7E3C7" d="M117.651,183.233h-19.54v-18.799H65.274v18.799H45.722c-16.335,0-29.576,13.234-29.576,29.56v26.788h131.08
		v-26.788C147.227,196.467,133.986,183.233,117.651,183.233z"/>
	<path fill="#3A312A" d="M147.227,241.082H16.146c-0.829,0-1.5-0.672-1.5-1.5v-26.788c0-17.127,13.941-31.061,31.076-31.061h18.052
		v-17.299c0-0.828,0.671-1.5,1.5-1.5H98.11c0.829,0,1.5,0.672,1.5,1.5v17.299h18.041c17.135,0,31.076,13.934,31.076,31.061v26.788
		C148.727,240.41,148.055,241.082,147.227,241.082z M17.646,238.082h128.08v-25.288c0-15.473-12.595-28.061-28.076-28.061H98.11
		c-0.829,0-1.5-0.672-1.5-1.5v-17.299H66.774v17.299c0,0.828-0.671,1.5-1.5,1.5H45.723c-15.482,0-28.076,12.588-28.076,28.061
		V238.082z"/>
	<path fill="#EA6D7A" d="M100.517,211.009H16.205c-0.035,0.588-0.058,1.179-0.058,1.776v26.799h131.08v-26.799
		c0-0.597-0.023-1.188-0.058-1.776h-33.068H100.517z"/>
	<path fill="#3A312A" d="M147.227,241.084H16.147c-0.829,0-1.5-0.672-1.5-1.5v-26.799c0-0.627,0.024-1.247,0.06-1.866
		c0.047-0.792,0.704-1.41,1.498-1.41h84.312c0.829,0,1.5,0.672,1.5,1.5c0,0.828-0.671,1.5-1.5,1.5H17.648
		c-0.001,0.092-0.001,0.185-0.001,0.276v25.299h128.08v-25.299c0-0.092-0.001-0.185-0.002-0.276h-31.624c-0.829,0-1.5-0.672-1.5-1.5
		c0-0.828,0.671-1.5,1.5-1.5h33.068c0.794,0,1.451,0.619,1.498,1.412c0.036,0.618,0.06,1.238,0.06,1.864v26.799
		C148.727,240.412,148.056,241.084,147.227,241.084z"/>
	<path fill-rule="evenodd" clip-rule="evenodd" fill="#F7E3C7" d="M42.537,109.954c0,6.424-5.21,11.631-11.638,11.631
		c-6.427,0-11.637-5.207-11.637-11.631c0-6.424,5.21-11.632,11.637-11.632C37.327,98.323,42.537,103.531,42.537,109.954z"/>
	<path fill="#3A312A" d="M30.9,123.086c-7.244,0-13.138-5.891-13.138-13.132c0-7.24,5.894-13.131,13.138-13.131
		c7.244,0,13.137,5.891,13.137,13.131C44.037,117.195,38.144,123.086,30.9,123.086z M30.9,99.823
		c-5.59,0-10.138,4.545-10.138,10.131c0,5.587,4.548,10.132,10.138,10.132s10.137-4.545,10.137-10.132
		C41.037,104.368,36.49,99.823,30.9,99.823z"/>
	
		<ellipse transform="matrix(0.0021 -1 1 0.0021 22.2438 242.1992)" fill-rule="evenodd" clip-rule="evenodd" fill="#F7E3C7" cx="132.474" cy="109.954" rx="11.631" ry="11.637"/>
	<path fill="#3A312A" d="M132.474,123.086c-7.244,0-13.137-5.891-13.137-13.132c0-7.24,5.894-13.131,13.137-13.131
		c7.244,0,13.138,5.891,13.138,13.131C145.612,117.195,139.718,123.086,132.474,123.086z M132.474,99.823
		c-5.59,0-10.137,4.545-10.137,10.131c0,5.587,4.547,10.132,10.137,10.132c5.59,0,10.138-4.545,10.138-10.132
		C142.612,104.368,138.064,99.823,132.474,99.823z"/>
	<path fill="#F7E3C7" d="M133.278,104.308c0,28.478-27.44,72.189-51.59,72.189c-23.051,0-51.59-43.711-51.59-72.189
		c0-28.477,23.098-51.563,51.59-51.563C110.181,52.745,133.278,75.831,133.278,104.308z"/>
	<path fill="#3A312A" d="M81.688,177.997c-11.055,0-24.391-9.743-35.673-26.063c-10.743-15.539-17.417-33.788-17.417-47.626
		c0-29.26,23.816-53.064,53.09-53.064s53.09,23.804,53.09,53.064c0,13.994-6.514,32.241-16.999,47.618
		C106.481,168.495,93.327,177.997,81.688,177.997z M81.688,54.245c-27.62,0-50.09,22.458-50.09,50.064
		c0,13.261,6.47,30.856,16.885,45.92c10.722,15.51,23.135,24.769,33.205,24.769c10.475,0,23.04-9.256,33.612-24.76
		c10.164-14.906,16.478-32.505,16.478-45.929C131.778,76.703,109.308,54.245,81.688,54.245z"/>
	<path fill="#3A312A" d="M68.508,103.726c0,2.78-2.254,5.033-5.035,5.033c-2.781,0-5.035-2.253-5.035-5.033
		c0-2.779,2.254-5.033,5.035-5.033C66.254,98.693,68.508,100.947,68.508,103.726z"/>
	<path fill="#3A312A" d="M104.936,103.726c0,2.78-2.254,5.033-5.035,5.033c-2.781,0-5.035-2.253-5.035-5.033
		c0-2.779,2.254-5.033,5.035-5.033C102.682,98.693,104.936,100.947,104.936,103.726z"/>
	<path fill="#F59689" d="M62.083,118.689c0,3.579-3.884,6.481-8.674,6.481c-4.79,0-8.674-2.902-8.674-6.481
		c0-3.58,3.884-6.481,8.674-6.481C58.2,112.208,62.083,115.109,62.083,118.689z"/>
	<path fill="#F59689" d="M118.639,118.689c0,3.579-3.884,6.481-8.674,6.481c-4.79,0-8.674-2.902-8.674-6.481
		c0-3.58,3.884-6.481,8.674-6.481C114.755,112.208,118.639,115.109,118.639,118.689z"/>
	<path fill="#3A312A" d="M40.103,241.084c-0.829,0-1.5-0.672-1.5-1.5v-21.173c0-0.828,0.671-1.5,1.5-1.5c0.829,0,1.5,0.672,1.5,1.5
		v21.173C41.603,240.412,40.932,241.084,40.103,241.084z"/>
	<path fill="#3A312A" d="M123.271,241.084c-0.829,0-1.5-0.672-1.5-1.5v-21.173c0-0.828,0.671-1.5,1.5-1.5s1.5,0.672,1.5,1.5v21.173
		C124.771,240.412,124.1,241.084,123.271,241.084z"/>
	<path fill="#3A312A" d="M81.687,147.633c-7.285,0-12.537-3.271-15.609-9.723c-0.356-0.748-0.039-1.644,0.709-2
		c0.749-0.353,1.644-0.037,1.999,0.709c2.568,5.393,6.789,8.014,12.901,8.014c7.824,0,11.827-5.164,12.851-7.895
		c0.292-0.776,1.159-1.168,1.931-0.878c0.776,0.29,1.169,1.155,0.878,1.931C95.57,142.531,89.912,147.633,81.687,147.633z"/>
	<path fill="#87796F" d="M140.401,85.41c0,5.283-0.688,10.404-1.987,15.279c-13.214-6.367-25.783-14.184-37.428-23.021
		c-3.416-2.588-6.779-5.283-9.991-8.139c-3.942-3.457-7.67-7.183-11.033-11.22c-7.316-8.805-12.687-18.919-17.231-29.453
		C68.467,26.999,74.59,26,80.95,26c17.006,0,32.347,7.14,43.186,18.586C134.224,55.227,140.401,69.594,140.401,85.41z"/>
	<path fill="#3A312A" d="M138.414,102.189c-0.223,0-0.446-0.05-0.651-0.148c-12.984-6.258-25.663-14.056-37.684-23.178
		c-3.832-2.902-7.129-5.59-10.081-8.213c-4.203-3.686-7.97-7.518-11.189-11.382c-6.517-7.843-12.063-17.317-17.457-29.818
		c-0.167-0.388-0.163-0.828,0.011-1.213c0.174-0.385,0.502-0.678,0.904-0.808c6.003-1.944,12.289-2.93,18.682-2.93
		c16.914,0,32.638,6.767,44.275,19.055c10.753,11.343,16.676,26.208,16.676,41.856c0,5.323-0.686,10.594-2.038,15.666
		c-0.115,0.432-0.417,0.79-0.823,0.976C138.841,102.144,138.627,102.189,138.414,102.189z M64.776,29.796
		C69.842,41.27,75.056,50.057,81.116,57.35c3.118,3.743,6.774,7.462,10.868,11.052c2.9,2.578,6.139,5.216,9.908,8.071
		c11.35,8.613,23.29,16.027,35.515,22.057c0.992-4.271,1.495-8.675,1.495-13.119c0-14.877-5.63-29.009-15.853-39.792
		C111.982,33.935,97.032,27.5,80.95,27.5C75.432,27.5,69.999,28.271,64.776,29.796z"/>
	<path fill="#87796F" d="M124.137,44.586c-10.227,9.32-21.357,17.566-33.142,24.943C70.1,82.618,47.185,92.947,23.733,101.548
		c-1.45-5.132-2.224-10.544-2.224-16.138c0-26.457,17.307-48.876,41.221-56.554C68.467,26.999,74.59,26,80.95,26
		C97.956,26,113.297,33.14,124.137,44.586z"/>
	<path fill="#3A312A" d="M23.733,103.048c-0.235,0-0.469-0.055-0.682-0.164c-0.372-0.189-0.648-0.526-0.761-0.928
		c-1.513-5.354-2.28-10.921-2.28-16.546c0-26.566,16.984-49.867,42.262-57.982c6-1.943,12.286-2.929,18.679-2.929
		c16.914,0,32.638,6.767,44.275,19.055c0.277,0.292,0.425,0.684,0.41,1.086c-0.015,0.403-0.191,0.782-0.489,1.054
		c-9.829,8.957-21.051,17.404-33.357,25.106c-19.139,11.988-41.231,22.507-67.54,32.155
		C24.082,103.018,23.908,103.048,23.733,103.048z M80.95,27.5c-6.079,0-12.054,0.937-17.758,2.783
		C39.156,37.999,23.01,60.152,23.01,85.41c0,4.802,0.587,9.558,1.748,14.161c25.435-9.42,46.854-19.67,65.44-31.313
		c11.677-7.309,22.36-15.291,31.779-23.742C111.028,33.53,96.519,27.5,80.95,27.5z"/>
	<path fill="#8AC3DA" d="M227.566,95.139l-34.81,34.81c-0.49-0.82-1.09-1.6-1.8-2.3l-12.24-12.25c-0.71-0.71-1.48-1.31-2.3-1.8
		l34.81-34.81L227.566,95.139z"/>
	<path fill="#3A312A" d="M192.756,131.449c-0.061,0-0.123-0.004-0.185-0.012c-0.459-0.057-0.866-0.322-1.103-0.719
		c-0.442-0.739-0.969-1.413-1.566-2.001l-12.248-12.258c-0.613-0.613-1.289-1.143-2.009-1.573c-0.396-0.237-0.662-0.644-0.719-1.103
		c-0.057-0.459,0.101-0.918,0.428-1.245l34.81-34.811c0.281-0.281,0.663-0.439,1.061-0.439l0,0c0.398,0,0.78,0.158,1.061,0.439
		l16.34,16.351c0.585,0.586,0.585,1.535-0.001,2.121l-34.81,34.81C193.534,131.293,193.151,131.449,192.756,131.449z M178.737,113.4
		c0.36,0.293,0.708,0.606,1.04,0.938l12.241,12.25c0.33,0.325,0.644,0.672,0.94,1.037l32.487-32.486l-14.219-14.229L178.737,113.4z"
		/>
	<path fill="#8AC3DA" d="M178.471,156.846l12.485-12.485c4.615-4.615,4.615-12.098,0-16.714l-12.244-12.244
		c-4.615-4.615-12.098-4.615-16.714,0l-35.597,35.597c-4.615,4.615-4.615,12.098,0,16.714l12.244,12.244
		c4.615,4.615,12.098,4.615,16.714,0l12.703-12.703L178.471,156.846z"/>
	<path fill="#3A312A" d="M147.001,184.92c-3.558,0-6.902-1.386-9.417-3.901l-12.244-12.244c-2.516-2.516-3.901-5.859-3.901-9.417
		c0-3.558,1.385-6.901,3.901-9.417l35.598-35.598c5.192-5.192,13.642-5.193,18.835,0l12.244,12.244
		c5.193,5.192,5.193,13.643,0,18.835l-12.485,12.484c-0.586,0.586-1.535,0.586-2.121,0c-0.586-0.586-0.586-1.535,0-2.121
		l12.485-12.484c4.023-4.023,4.023-10.569,0-14.593l-12.244-12.244c-4.023-4.023-10.568-4.023-14.592,0l-35.598,35.598
		c-4.023,4.024-4.023,10.568,0,14.592l12.244,12.244c1.949,1.949,4.54,3.022,7.296,3.022c2.756,0,5.347-1.073,7.296-3.022
		l12.703-12.703c0.586-0.586,1.535-0.586,2.121,0c0.586,0.586,0.586,1.535,0,2.121l-12.703,12.703
		C153.904,183.534,150.559,184.92,147.001,184.92z"/>
	<polygon fill="#87796F" points="239.853,59.724 228.294,71.283 235.085,78.073 239.853,73.305 	"/>
	<path fill="#3A312A" d="M235.084,79.573c-0.384,0-0.768-0.146-1.061-0.439l-6.79-6.79c-0.586-0.586-0.586-1.535,0-2.121
		l11.559-11.56c0.428-0.429,1.072-0.559,1.635-0.325c0.561,0.232,0.926,0.779,0.926,1.386v13.581c0,0.397-0.158,0.779-0.439,1.06
		l-4.769,4.769C235.852,79.427,235.468,79.573,235.084,79.573z M230.415,71.283l4.669,4.669l3.269-3.269v-9.339L230.415,71.283z"/>
	<path fill="#87796F" d="M235.966,78.955l-8.556-8.556c-2.937-2.937-7.699-2.937-10.636,0l-2.852,2.852l19.192,19.192l2.852-2.852
		C238.903,86.654,238.903,81.892,235.966,78.955z"/>
	<path fill="#3A312A" d="M233.114,93.942c-0.384,0-0.768-0.146-1.061-0.439l-19.192-19.192c-0.281-0.281-0.439-0.663-0.439-1.061
		s0.158-0.779,0.439-1.061l2.852-2.852c1.704-1.704,3.969-2.643,6.378-2.643c2.41,0,4.675,0.938,6.378,2.643l8.557,8.557
		c1.704,1.703,2.642,3.969,2.642,6.378c0,2.409-0.938,4.675-2.642,6.379l-2.852,2.852C233.882,93.796,233.498,93.942,233.114,93.942
		z M216.043,73.25l17.071,17.071l1.792-1.791c1.137-1.138,1.763-2.649,1.763-4.258s-0.626-3.12-1.763-4.257l0,0l-8.557-8.557
		c-1.137-1.138-2.649-1.764-4.257-1.764c-1.608,0-3.12,0.626-4.257,1.764L216.043,73.25z"/>
	<circle fill="#87796F" cx="212.541" cy="93.818" r="20.622"/>
	<path fill="#3A312A" d="M212.54,115.94c-5.909,0-11.464-2.301-15.643-6.479c-8.625-8.625-8.625-22.66,0-31.285
		c4.178-4.179,9.733-6.479,15.643-6.479c5.909,0,11.465,2.301,15.643,6.479c8.625,8.625,8.625,22.66,0,31.285l0,0
		C224.005,113.64,218.45,115.94,212.54,115.94z M212.54,74.696c-5.108,0-9.91,1.989-13.521,5.601
		c-7.456,7.456-7.456,19.587,0,27.043c3.612,3.611,8.414,5.601,13.521,5.601c5.108,0,9.91-1.989,13.522-5.601
		c7.455-7.456,7.455-19.587,0-27.043C222.451,76.686,217.648,74.696,212.54,74.696z M227.123,108.4h0.01H227.123z"/>
	<path fill="#D6DF58" d="M220.029,101.306c4.135-4.135,4.135-10.841,0-14.976c-4.135-4.135-10.841-4.135-14.976,0
		c-4.136,4.136-4.136,10.841,0,14.976C209.188,105.442,215.893,105.442,220.029,101.306z"/>
	<path fill="#3A312A" d="M212.54,105.902c-3.096,0-6.192-1.178-8.549-3.535c-4.713-4.714-4.713-12.384,0-17.098
		c4.714-4.715,12.384-4.715,17.098,0c4.713,4.714,4.713,12.384,0,17.098l0,0C218.732,104.725,215.637,105.902,212.54,105.902z
		 M212.54,84.732c-2.328,0-4.655,0.886-6.428,2.658c-3.544,3.544-3.544,9.312,0,12.855c3.544,3.544,9.311,3.544,12.855,0
		c3.543-3.544,3.543-9.312,0-12.855C217.196,85.619,214.868,84.732,212.54,84.732z M220.029,101.307h0.01H220.029z"/>
	<path fill="#DECAAD" d="M145.526,209.509h-15c-1.63-13.93-13.51-24.78-27.88-24.78h15
		C132.016,184.729,143.896,195.579,145.526,209.509z"/>
	<rect x="130.726" y="212.509" fill="#D34E5C" width="15" height="25.57"/>
</g>
</svg>
