<?xml version="1.0" encoding="utf-8"?>
<!-- Generator: Adobe Illustrator 24.0.0, SVG Export Plug-In . SVG Version: 6.00 Build 0)  -->
<svg version="1.1" id="Layer_1" xmlns="http://www.w3.org/2000/svg" xmlns:xlink="http://www.w3.org/1999/xlink" x="0px" y="0px"
	 viewBox="0 0 256 256" enable-background="new 0 0 256 256" xml:space="preserve">
<g>
	<path fill="#D7E057" d="M47.724,26.339c0,0,3.408,12.659,13.222,13.246c0,0-13.1,4.525-13.321,14.202
		c0,0-2.578-13.572-12.925-14.059C34.7,39.729,46.751,37.903,47.724,26.339z"/>
	<path fill="#3A312A" d="M47.624,55.287c-0.713,0-1.335-0.506-1.472-1.218c-0.024-0.124-2.494-12.417-11.522-12.843
		c-0.77-0.036-1.387-0.65-1.427-1.421c-0.039-0.77,0.511-1.444,1.274-1.561c0.441-0.068,10.894-1.817,11.754-12.032
		c0.061-0.726,0.634-1.301,1.359-1.367c0.72-0.063,1.392,0.398,1.583,1.102c0.032,0.116,3.259,11.626,11.863,12.141
		c0.714,0.042,1.298,0.583,1.396,1.292c0.098,0.708-0.319,1.388-0.994,1.622c-0.121,0.042-12.118,4.311-12.313,12.82
		c-0.018,0.767-0.61,1.396-1.374,1.46C47.708,55.285,47.665,55.287,47.624,55.287z M39.883,39.558
		c3.879,1.969,6.23,5.745,7.587,8.876c2.027-4.021,5.941-6.787,8.949-8.427c-4.135-1.843-6.783-5.651-8.334-8.723
		C46.292,35.644,42.813,38.152,39.883,39.558z"/>
	<path fill="#D7E057" d="M26.026,43.319c0,0,2.411,8.954,9.352,9.369c0,0-9.266,3.201-9.422,10.045c0,0-1.824-9.6-9.142-9.944
		C16.813,52.79,25.337,51.499,26.026,43.319z"/>
	<path fill="#3A312A" d="M25.954,64.234c-0.713,0-1.337-0.507-1.472-1.22c-0.016-0.082-1.704-8.442-7.739-8.726
		c-0.77-0.036-1.387-0.65-1.427-1.421c-0.04-0.77,0.511-1.444,1.274-1.561c0.296-0.047,7.364-1.242,7.942-8.113
		c0.061-0.726,0.635-1.303,1.36-1.368c0.727-0.063,1.392,0.399,1.582,1.102l0,0c0.021,0.079,2.228,7.92,7.993,8.265
		c0.715,0.042,1.299,0.584,1.396,1.293c0.098,0.709-0.319,1.388-0.996,1.622c-0.081,0.028-8.282,2.953-8.412,8.662
		c-0.018,0.767-0.611,1.397-1.376,1.461C26.037,64.232,25.996,64.234,25.954,64.234z M21.435,52.707
		c2.107,1.332,3.523,3.394,4.447,5.279c1.376-2.232,3.515-3.872,5.364-4.973c-2.287-1.27-3.884-3.35-4.941-5.224
		C25.133,50.077,23.291,51.666,21.435,52.707z"/>
	<path fill="#D7E057" d="M26.026,16.662c0,0,2.411,8.954,9.352,9.37c0,0-9.266,3.201-9.422,10.045c0,0-1.824-9.6-9.142-9.944
		C16.813,26.133,25.337,24.841,26.026,16.662z"/>
	<path fill="#3A312A" d="M25.954,37.577c-0.713,0-1.337-0.507-1.472-1.22c-0.016-0.082-1.704-8.442-7.739-8.726
		c-0.77-0.036-1.388-0.65-1.428-1.421c-0.04-0.77,0.511-1.444,1.274-1.561c0.295-0.047,7.364-1.243,7.942-8.113
		c0.061-0.726,0.635-1.303,1.36-1.368c0.727-0.064,1.392,0.399,1.582,1.102l0,0c0.021,0.079,2.228,7.92,7.993,8.265
		c0.715,0.042,1.299,0.584,1.396,1.293c0.098,0.709-0.319,1.388-0.996,1.622c-0.081,0.028-8.282,2.953-8.412,8.662
		c-0.018,0.768-0.611,1.397-1.376,1.461C26.037,37.575,25.996,37.577,25.954,37.577z M21.435,26.049
		c2.108,1.333,3.523,3.395,4.447,5.28c1.376-2.232,3.515-3.872,5.364-4.973c-2.287-1.269-3.884-3.35-4.941-5.224
		C25.133,23.42,23.291,25.008,21.435,26.049z"/>
	<circle fill="#EF6D7A" cx="128.186" cy="114.826" r="94.75"/>
	<path fill="#3A312A" d="M128.186,211.076c-53.072,0-96.25-43.178-96.25-96.25c0-53.072,43.178-96.25,96.25-96.25
		c53.072,0,96.25,43.178,96.25,96.25C224.436,167.898,181.259,211.076,128.186,211.076z M128.186,21.576
		c-51.418,0-93.25,41.832-93.25,93.25c0,51.418,41.832,93.25,93.25,93.25c51.418,0,93.25-41.832,93.25-93.25
		C221.436,63.408,179.604,21.576,128.186,21.576z"/>
	<path fill="#D7E057" d="M174.166,239.338c-30.629,0-45.897-14.127-45.897-31.554c0-17.427,15.268-31.554,45.897-31.554
		c30.629,0,65.021,24.861,65.021,31.554C239.187,214.477,204.795,239.338,174.166,239.338z"/>
	<path fill="#3A312A" d="M174.166,240.838c-28.793,0-47.397-12.975-47.397-33.054c0-20.08,18.604-33.055,47.397-33.055
		c31.167,0,66.52,25.007,66.52,33.055C240.686,215.832,205.333,240.838,174.166,240.838z M174.166,177.73
		c-14.106,0-25.703,3.093-33.537,8.943c-7.105,5.307-10.86,12.606-10.86,21.111c0,8.504,3.755,15.804,10.86,21.11
		c7.834,5.851,19.431,8.943,33.537,8.943c30.966,0,63.52-24.97,63.52-30.054C237.686,202.699,205.132,177.73,174.166,177.73z"/>
	<path fill="#D7E057" d="M51.116,232.385c9.796,4.067,20.661,6.953,31.091,6.953c30.629,0,45.897-14.127,45.897-31.554
		s-15.268-31.554-45.897-31.555c-30.629,0-65.021,24.861-65.021,31.555c0,3.345,8.589,11.227,21.006,18.276L51.116,232.385z"/>
	<path fill="#3A312A" d="M82.207,240.838c-9.579,0-20.528-2.443-31.666-7.066c-0.765-0.318-1.128-1.195-0.81-1.961
		c0.318-0.766,1.198-1.127,1.96-0.811c10.776,4.474,21.328,6.838,30.516,6.838c14.106,0,25.703-3.093,33.537-8.943
		c7.105-5.307,10.86-12.606,10.86-21.111c0-8.504-3.755-15.804-10.86-21.11c-7.834-5.851-19.431-8.943-33.537-8.943
		c-17.594,0-34.653,8.189-43.256,13.072c-13.048,7.404-20.265,14.741-20.265,16.981c0,2.239,7.21,9.571,20.246,16.972
		c0.72,0.409,0.973,1.325,0.564,2.045c-0.409,0.722-1.324,0.976-2.045,0.564c-10.815-6.141-21.765-14.838-21.765-19.581
		c0-4.746,10.959-13.448,21.784-19.591c8.86-5.028,26.454-13.463,44.737-13.463c28.793,0,47.397,12.975,47.397,33.054
		C129.604,227.863,111,240.838,82.207,240.838z"/>
	<path fill="#D7E057" d="M183.791,197.872c-21.658,21.658-42.444,22.465-54.767,10.142s-11.516-33.108,10.142-54.767
		c21.658-21.658,63.556-28.397,68.289-23.664C212.189,134.315,205.449,176.214,183.791,197.872z"/>
	<path fill="#3A312A" d="M148.165,217.501c-7.599,0-14.545-2.771-20.201-8.427c-14.198-14.198-10.217-36.528,10.143-56.888
		c12.928-12.929,31.332-19.404,41.152-22.114c11.999-3.311,25.901-4.905,29.257-1.55c3.357,3.355,1.761,17.258-1.55,29.257
		c-2.71,9.82-9.186,28.225-22.114,41.153l0,0C172.602,211.181,159.641,217.501,148.165,217.501z M200.729,129.626
		c-4.691,0-11.918,0.923-20.673,3.338c-9.535,2.631-27.389,8.902-39.829,21.344c-9.975,9.975-15.988,20.361-17.39,30.038
		c-1.272,8.776,1.234,16.594,7.248,22.607c6.015,6.013,13.834,8.523,22.607,7.247c9.677-1.401,20.063-7.415,30.038-17.389
		c12.441-12.441,18.713-30.295,21.344-39.83c3.99-14.463,3.905-24.753,2.32-26.338C205.769,130.019,203.788,129.626,200.729,129.626
		z M183.791,197.872h0.01H183.791z"/>
	<path fill="#D7E057" d="M72.582,197.872c21.658,21.658,42.444,22.465,54.767,10.142s11.516-33.108-10.142-54.767
		c-21.658-21.658-63.556-28.397-68.289-23.664C44.184,134.315,50.924,176.214,72.582,197.872z"/>
	<path fill="#3A312A" d="M108.207,217.501c-11.476,0-24.436-6.319-36.686-18.568l0,0c-12.928-12.929-19.404-31.333-22.114-41.153
		c-3.311-11.999-4.906-25.901-1.55-29.257c3.355-3.357,17.257-1.761,29.257,1.55c9.82,2.71,28.225,9.186,41.153,22.114
		c20.359,20.359,24.34,42.69,10.142,56.888C122.753,214.73,115.805,217.501,108.207,217.501z M73.642,196.811
		c9.975,9.974,20.362,15.987,30.039,17.389c8.776,1.274,16.592-1.234,22.606-7.247c6.013-6.014,8.52-13.831,7.248-22.607
		c-1.402-9.677-7.415-20.064-17.389-30.038c-12.441-12.441-30.295-18.713-39.83-21.344c-14.462-3.989-24.753-3.904-26.338-2.32
		c-1.584,1.584-1.67,11.875,2.321,26.338C54.93,166.517,61.201,184.37,73.642,196.811L73.642,196.811z"/>
	<path fill="#D7E057" d="M142.225,111.985c-5.751-8.597-11.355-14.133-14.039-14.133c-6.693,0-31.554,34.392-31.554,65.021
		c0,30.629,14.127,45.897,31.554,45.897c17.427,0,31.554-15.268,31.554-45.897c0-12.934-4.438-26.53-10.065-37.933L142.225,111.985z
		"/>
	<path fill="#3A312A" d="M128.186,210.27c-20.08,0-33.054-18.605-33.054-47.397c0-31.167,25.006-66.521,33.054-66.521
		c4.998,0,12.964,11.328,15.286,14.8c0.46,0.688,0.275,1.62-0.413,2.081c-0.688,0.458-1.619,0.275-2.081-0.413
		c-6.214-9.289-11.221-13.468-12.792-13.468c-5.084,0-30.054,32.555-30.054,63.521c0,14.106,3.093,25.703,8.944,33.537
		c5.306,7.105,12.606,10.86,21.11,10.86c8.504,0,15.804-3.755,21.11-10.86c5.851-7.834,8.944-19.431,8.944-33.537
		c0-14.205-5.39-28.107-9.91-37.269c-0.367-0.743-0.062-1.643,0.681-2.009c0.745-0.367,1.643-0.062,2.009,0.681
		c4.663,9.448,10.221,23.813,10.221,38.597C161.24,191.665,148.266,210.27,128.186,210.27z"/>
	<path fill="#D34E5C" d="M206.966,157.776c3.31-12,4.91-25.9,1.55-29.25c-0.63-0.63-1.62-1.08-2.9-1.38
		c0.54-4.03,0.82-8.14,0.82-12.32c0-48.89-37.82-89.12-85.75-92.95c2.47-0.2,4.97-0.3,7.5-0.3c51.42,0,93.25,41.83,93.25,93.25
		c0,21.2-7.11,40.76-19.07,56.44C204.486,166.086,205.976,161.356,206.966,157.776z"/>
</g>
</svg>
