<?xml version="1.0" encoding="utf-8"?>
<!-- Generator: Adobe Illustrator 24.0.0, SVG Export Plug-In . SVG Version: 6.00 Build 0)  -->
<svg version="1.1" id="Layer_1" xmlns="http://www.w3.org/2000/svg" xmlns:xlink="http://www.w3.org/1999/xlink" x="0px" y="0px"
	 viewBox="0 0 256 256" enable-background="new 0 0 256 256" xml:space="preserve">
<g>
	<path fill="#D7E057" d="M69.752,26.056c0,0,3.408,12.659,13.222,13.246c0,0-13.1,4.525-13.321,14.202
		c0,0-2.578-13.572-12.925-14.059C56.728,39.445,68.778,37.619,69.752,26.056z"/>
	<path fill="#3A312A" d="M69.651,55.003c-0.712,0-1.335-0.506-1.472-1.217c-0.024-0.125-2.495-12.418-11.523-12.843
		c-0.771-0.036-1.388-0.65-1.428-1.421c-0.04-0.77,0.511-1.444,1.273-1.561c0.441-0.068,10.894-1.817,11.754-12.032
		c0.061-0.726,0.634-1.301,1.359-1.367c0.736-0.055,1.393,0.399,1.583,1.102c0.032,0.116,3.259,11.626,11.864,12.141
		c0.714,0.042,1.298,0.583,1.396,1.292c0.098,0.708-0.319,1.388-0.994,1.622c-0.121,0.042-12.118,4.311-12.313,12.819
		c-0.017,0.767-0.61,1.396-1.374,1.46C69.736,55.001,69.693,55.003,69.651,55.003z M61.911,39.273
		c3.879,1.97,6.23,5.746,7.587,8.877c2.026-4.021,5.942-6.787,8.949-8.427c-4.134-1.843-6.783-5.651-8.334-8.723
		C68.319,35.361,64.841,37.869,61.911,39.273z"/>
	<path fill="#D7E057" d="M48.053,43.036c0,0,2.411,8.954,9.352,9.369c0,0-9.266,3.201-9.422,10.045c0,0-1.824-9.6-9.142-9.944
		C38.841,52.507,47.364,51.215,48.053,43.036z"/>
	<path fill="#3A312A" d="M47.981,63.951c-0.713,0-1.337-0.508-1.472-1.22c-0.016-0.082-1.704-8.442-7.739-8.726
		c-0.77-0.036-1.387-0.65-1.427-1.421c-0.04-0.77,0.511-1.444,1.273-1.561c0.295-0.047,7.364-1.243,7.942-8.113
		c0.061-0.726,0.635-1.303,1.36-1.368c0.725-0.063,1.392,0.399,1.582,1.102l0,0c0.021,0.079,2.228,7.92,7.994,8.265
		c0.715,0.042,1.299,0.584,1.397,1.293c0.098,0.709-0.319,1.388-0.996,1.622c-0.081,0.028-8.282,2.953-8.413,8.662
		c-0.018,0.767-0.611,1.397-1.376,1.461C48.064,63.949,48.023,63.951,47.981,63.951z M43.463,52.424
		c2.107,1.332,3.523,3.394,4.447,5.279c1.376-2.232,3.515-3.872,5.365-4.973c-2.287-1.269-3.884-3.35-4.941-5.224
		C47.16,49.793,45.318,51.382,43.463,52.424z"/>
	<path fill="#D7E057" d="M48.053,16.378c0,0,2.411,8.954,9.352,9.37c0,0-9.266,3.201-9.422,10.045c0,0-1.824-9.6-9.142-9.944
		C38.841,25.849,47.364,24.558,48.053,16.378z"/>
	<path fill="#3A312A" d="M47.981,37.294c-0.713,0-1.337-0.508-1.472-1.22c-0.016-0.082-1.704-8.442-7.739-8.726
		c-0.771-0.036-1.388-0.65-1.428-1.421c-0.04-0.77,0.511-1.444,1.273-1.561c0.295-0.047,7.364-1.243,7.942-8.113
		c0.061-0.726,0.635-1.303,1.36-1.368c0.728-0.059,1.392,0.399,1.582,1.102l0,0c0.021,0.079,2.228,7.92,7.994,8.265
		c0.715,0.042,1.299,0.584,1.397,1.293c0.098,0.709-0.319,1.388-0.996,1.622c-0.081,0.028-8.282,2.953-8.413,8.662
		c-0.018,0.768-0.611,1.398-1.376,1.461C48.064,37.292,48.023,37.294,47.981,37.294z M43.463,25.766
		c2.107,1.333,3.523,3.395,4.447,5.28c1.376-2.232,3.515-3.872,5.365-4.973c-2.287-1.268-3.884-3.35-4.941-5.224
		C47.16,23.136,45.319,24.725,43.463,25.766z"/>
	<path fill="#87796F" d="M214.975,99.91c1.421-5.409,2.184-11.084,2.184-16.938c0-36.727-29.773-66.5-66.5-66.5
		s-66.5,29.773-66.5,66.5c0,5.854,0.763,11.53,2.184,16.938c-1.421,3.267-2.184,6.695-2.184,10.232c0,4.314,1.138,8.465,3.222,12.36
		c-2.084,3.895-3.222,8.046-3.222,12.36c0,4.314,1.138,8.465,3.222,12.36c-2.084,3.895-3.222,8.046-3.222,12.36
		c0,4.314,1.138,8.465,3.222,12.36c-2.084,3.895-3.222,8.046-3.222,12.36c0,22.185,29.773,40.17,66.5,40.17s66.5-17.985,66.5-40.17
		c0-4.314-1.138-8.465-3.222-12.36c2.084-3.895,3.222-8.046,3.222-12.36c0-4.314-1.138-8.465-3.222-12.36
		c2.084-3.895,3.222-8.046,3.222-12.36c0-4.314-1.138-8.465-3.222-12.36c2.084-3.895,3.222-8.046,3.222-12.36
		C217.159,106.605,216.396,103.178,214.975,99.91z"/>
	<path fill="#3A312A" d="M150.659,225.972c-37.495,0-68-18.693-68-41.67c0-4.206,1.02-8.36,3.032-12.359
		c-2.012-4-3.032-8.154-3.032-12.36c0-4.206,1.02-8.36,3.032-12.36c-2.012-3.999-3.032-8.153-3.032-12.359
		c0-4.207,1.02-8.361,3.032-12.36c-2.012-3.999-3.032-8.153-3.032-12.36c0-3.497,0.707-6.976,2.104-10.349
		c-1.396-5.485-2.104-11.142-2.104-16.821c0-37.495,30.505-68,68-68s68,30.505,68,68c0,5.678-0.708,11.335-2.104,16.821
		c1.397,3.374,2.104,6.853,2.104,10.349c0,4.206-1.02,8.36-3.032,12.36c2.013,4,3.032,8.154,3.032,12.36
		c0,4.206-1.02,8.359-3.032,12.359c2.013,4.001,3.032,8.155,3.032,12.36c0,4.205-1.02,8.359-3.032,12.36
		c2.013,4,3.032,8.153,3.032,12.359C218.659,207.278,188.154,225.972,150.659,225.972z M150.659,17.972c-35.841,0-65,29.159-65,65
		c0,5.595,0.718,11.166,2.135,16.558c0.086,0.325,0.059,0.67-0.075,0.979c-1.367,3.143-2.059,6.384-2.059,9.633
		c0,3.956,1.024,7.877,3.044,11.652c0.236,0.442,0.236,0.974,0,1.416c-2.02,3.775-3.044,7.696-3.044,11.652
		c0,3.956,1.024,7.876,3.044,11.651c0.236,0.442,0.236,0.974,0,1.415c-2.02,3.777-3.044,7.698-3.044,11.653
		c0,3.955,1.024,7.876,3.044,11.653c0.236,0.441,0.236,0.973,0,1.415c-2.02,3.775-3.044,7.695-3.044,11.651
		c0,21.322,29.159,38.67,65,38.67s65-17.348,65-38.67c0-3.955-1.024-7.875-3.045-11.651c-0.236-0.442-0.236-0.974,0-1.415
		c2.02-3.778,3.045-7.698,3.045-11.653c0-3.955-1.024-7.875-3.045-11.653c-0.236-0.441-0.236-0.973,0-1.415
		c2.02-3.776,3.045-7.696,3.045-11.651c0-3.956-1.024-7.876-3.045-11.652c-0.236-0.442-0.236-0.974,0-1.416
		c2.02-3.776,3.045-7.696,3.045-11.652c0-3.248-0.693-6.489-2.06-9.634c-0.134-0.309-0.161-0.653-0.075-0.979
		c1.417-5.394,2.135-10.965,2.135-16.558C215.659,47.131,186.501,17.972,150.659,17.972z"/>
	<path fill="#F8E4C8" d="M186.623,183.271h-19.54v-18.799h-32.836v18.799h-19.552c-16.335,0-29.576,13.234-29.576,29.56v26.788
		h131.08v-26.788C216.199,196.505,202.958,183.271,186.623,183.271z"/>
	<path fill="#3A312A" d="M216.199,241.119H85.119c-0.829,0-1.5-0.672-1.5-1.5v-26.788c0-17.127,13.94-31.061,31.076-31.061h18.052
		v-17.299c0-0.828,0.671-1.5,1.5-1.5h32.836c0.829,0,1.5,0.672,1.5,1.5v17.299h18.04c17.135,0,31.076,13.934,31.076,31.061v26.788
		C217.699,240.447,217.027,241.119,216.199,241.119z M86.619,238.119h128.08v-25.288c0-15.473-12.595-28.061-28.076-28.061h-19.54
		c-0.829,0-1.5-0.672-1.5-1.5v-17.299h-29.836v17.299c0,0.828-0.671,1.5-1.5,1.5h-19.552c-15.481,0-28.076,12.588-28.076,28.061
		V238.119z"/>
	<path fill="#EB6E7A" d="M169.489,211.046H85.177c-0.035,0.588-0.058,1.179-0.058,1.776v26.799h131.08v-26.799
		c0-0.597-0.023-1.188-0.058-1.776h-33.068H169.489z"/>
	<path fill="#3A312A" d="M216.199,241.121H85.119c-0.829,0-1.5-0.672-1.5-1.5v-26.799c0-0.626,0.024-1.246,0.06-1.863
		c0.047-0.793,0.704-1.412,1.498-1.412h84.312c0.829,0,1.5,0.672,1.5,1.5c0,0.828-0.671,1.5-1.5,1.5H86.621
		c-0.001,0.092-0.001,0.184-0.001,0.275v25.299h128.08v-25.299c0-0.092-0.001-0.184-0.001-0.275h-31.625c-0.829,0-1.5-0.672-1.5-1.5
		c0-0.828,0.671-1.5,1.5-1.5h33.068c0.794,0,1.45,0.618,1.498,1.41c0.037,0.618,0.061,1.238,0.061,1.865v26.799
		C217.699,240.449,217.028,241.121,216.199,241.121z"/>
	<path fill="#3A312A" d="M109.075,241.121c-0.829,0-1.5-0.672-1.5-1.5v-21.172c0-0.828,0.671-1.5,1.5-1.5s1.5,0.672,1.5,1.5v21.172
		C110.575,240.449,109.903,241.121,109.075,241.121z"/>
	<path fill="#3A312A" d="M192.243,241.121c-0.829,0-1.5-0.672-1.5-1.5v-21.172c0-0.828,0.671-1.5,1.5-1.5s1.5,0.672,1.5,1.5v21.172
		C193.743,240.449,193.072,241.121,192.243,241.121z"/>
	<path fill="#87796F" d="M209.373,85.447c0,5.283-0.688,10.404-1.987,15.279c-13.214-6.367-25.783-14.184-37.428-23.021
		c-3.416-2.588-6.779-5.283-9.991-8.139c-3.943-3.457-7.67-7.183-11.033-11.22c-7.316-8.805-12.687-18.919-17.232-29.453
		c5.737-1.858,11.86-2.856,18.22-2.856c17.006,0,32.347,7.14,43.186,18.586C203.196,55.264,209.373,69.631,209.373,85.447z"/>
	<path fill="#3A312A" d="M207.386,102.227c-0.223,0-0.445-0.05-0.651-0.148c-12.98-6.255-25.659-14.053-37.684-23.178
		c-3.843-2.911-7.14-5.598-10.081-8.213c-4.203-3.686-7.97-7.517-11.189-11.382c-6.516-7.842-12.063-17.316-17.457-29.818
		c-0.167-0.388-0.163-0.828,0.011-1.213c0.174-0.385,0.502-0.678,0.904-0.808c6.003-1.944,12.289-2.93,18.682-2.93
		c16.915,0,32.639,6.768,44.275,19.056c10.753,11.343,16.676,26.207,16.676,41.855c0,5.324-0.686,10.595-2.038,15.666
		c-0.115,0.432-0.417,0.79-0.823,0.977C207.813,102.181,207.599,102.227,207.386,102.227z M133.749,29.833
		c5.066,11.475,10.279,20.262,16.339,27.554c3.118,3.744,6.775,7.463,10.868,11.052c2.889,2.569,6.127,5.207,9.908,8.071
		c11.354,8.615,23.293,16.03,35.516,22.058c0.992-4.271,1.495-8.675,1.495-13.12c0-14.876-5.63-29.008-15.854-39.791
		c-11.065-11.685-26.015-18.119-42.098-18.119C144.404,27.537,138.972,28.309,133.749,29.833z"/>
	<path fill="#87796F" d="M193.109,44.624c-10.227,9.32-21.357,17.566-33.142,24.943c-20.895,13.089-43.809,23.418-67.261,32.019
		c-1.45-5.132-2.224-10.544-2.224-16.138c0-26.457,17.307-48.876,41.22-56.554c5.737-1.858,11.86-2.856,18.22-2.856
		C166.928,26.037,182.269,33.178,193.109,44.624z"/>
	<path fill="#3A312A" d="M92.706,103.085c-0.235,0-0.469-0.055-0.682-0.164c-0.371-0.189-0.648-0.526-0.761-0.928
		c-1.513-5.354-2.28-10.921-2.28-16.546c0-26.566,16.984-49.867,42.262-57.982c6-1.943,12.286-2.929,18.679-2.929
		c16.915,0,32.639,6.768,44.275,19.056c0.277,0.292,0.424,0.684,0.41,1.087c-0.015,0.402-0.191,0.782-0.489,1.053
		c-9.831,8.959-21.054,17.405-33.356,25.105c-19.139,11.988-41.231,22.507-67.54,32.155
		C93.055,103.055,92.88,103.085,92.706,103.085z M149.922,27.537c-6.079,0-12.054,0.937-17.758,2.783
		c-24.036,7.716-40.182,29.869-40.182,55.127c0,4.802,0.587,9.558,1.748,14.161c25.435-9.42,46.854-19.67,65.44-31.313
		c11.674-7.307,22.357-15.288,31.779-23.741C180.001,33.567,165.492,27.537,149.922,27.537z"/>
	<path fill="#87796F" d="M214.975,99.91c1.421-5.409,2.184-11.084,2.184-16.938c0-36.727-29.773-66.5-66.5-66.5
		s-66.5,29.773-66.5,66.5c0,5.854,0.763,11.53,2.184,16.938c-1.421,3.267-2.184,6.695-2.184,10.232c0,4.314,1.138,8.465,3.222,12.36
		c-2.084,3.895-3.222,8.046-3.222,12.36c0,4.314,1.138,8.465,3.222,12.36c-2.084,3.895-3.222,8.046-3.222,12.36
		c0,4.314,1.138,8.465,3.222,12.36c-2.084,3.895-3.222,8.046-3.222,12.36c0,22.185,29.773,40.17,66.5,40.17s66.5-17.985,66.5-40.17
		c0-4.314-1.138-8.465-3.222-12.36c2.084-3.895,3.222-8.046,3.222-12.36c0-4.314-1.138-8.465-3.222-12.36
		c2.084-3.895,3.222-8.046,3.222-12.36c0-4.314-1.138-8.465-3.222-12.36c2.084-3.895,3.222-8.046,3.222-12.36
		C217.159,106.605,216.396,103.178,214.975,99.91z"/>
	<path fill="#3A312A" d="M150.659,225.972c-37.495,0-68-18.693-68-41.67c0-4.206,1.02-8.36,3.032-12.359
		c-2.012-4-3.032-8.154-3.032-12.36c0-4.206,1.02-8.36,3.032-12.36c-2.012-3.999-3.032-8.153-3.032-12.359
		c0-4.207,1.02-8.361,3.032-12.36c-2.012-3.999-3.032-8.153-3.032-12.36c0-3.497,0.707-6.976,2.104-10.349
		c-1.396-5.485-2.104-11.142-2.104-16.821c0-37.495,30.505-68,68-68s68,30.505,68,68c0,5.678-0.708,11.335-2.104,16.821
		c1.397,3.374,2.104,6.853,2.104,10.349c0,4.206-1.02,8.36-3.032,12.36c2.013,4,3.032,8.154,3.032,12.36
		c0,4.206-1.02,8.359-3.032,12.359c2.013,4.001,3.032,8.155,3.032,12.36c0,4.205-1.02,8.359-3.032,12.36
		c2.013,4,3.032,8.153,3.032,12.359C218.659,207.278,188.154,225.972,150.659,225.972z M150.659,17.972c-35.841,0-65,29.159-65,65
		c0,5.595,0.718,11.166,2.135,16.558c0.086,0.325,0.059,0.67-0.075,0.979c-1.367,3.143-2.059,6.384-2.059,9.633
		c0,3.956,1.024,7.877,3.044,11.652c0.236,0.442,0.236,0.974,0,1.416c-2.02,3.775-3.044,7.696-3.044,11.652
		c0,3.956,1.024,7.876,3.044,11.651c0.236,0.442,0.236,0.974,0,1.415c-2.02,3.777-3.044,7.698-3.044,11.653
		c0,3.955,1.024,7.876,3.044,11.653c0.236,0.441,0.236,0.973,0,1.415c-2.02,3.775-3.044,7.695-3.044,11.651
		c0,21.322,29.159,38.67,65,38.67s65-17.348,65-38.67c0-3.955-1.024-7.875-3.045-11.651c-0.236-0.442-0.236-0.974,0-1.415
		c2.02-3.778,3.045-7.698,3.045-11.653c0-3.955-1.024-7.875-3.045-11.653c-0.236-0.441-0.236-0.973,0-1.415
		c2.02-3.776,3.045-7.696,3.045-11.651c0-3.956-1.024-7.876-3.045-11.652c-0.236-0.442-0.236-0.974,0-1.416
		c2.02-3.776,3.045-7.696,3.045-11.652c0-3.248-0.693-6.489-2.06-9.634c-0.134-0.309-0.161-0.653-0.075-0.979
		c1.417-5.394,2.135-10.965,2.135-16.558C215.659,47.131,186.501,17.972,150.659,17.972z"/>
	<path fill="#F8E4C8" d="M186.623,183.271h-19.54v-18.799h-32.836v18.799h-19.552c-16.335,0-29.576,13.234-29.576,29.56v26.788
		h131.08v-26.788C216.199,196.505,202.958,183.271,186.623,183.271z"/>
	<path fill="#3A312A" d="M216.199,241.119H85.119c-0.829,0-1.5-0.672-1.5-1.5v-26.788c0-17.127,13.94-31.061,31.076-31.061h18.052
		v-17.299c0-0.828,0.671-1.5,1.5-1.5h32.836c0.829,0,1.5,0.672,1.5,1.5v17.299h18.04c17.135,0,31.076,13.934,31.076,31.061v26.788
		C217.699,240.447,217.027,241.119,216.199,241.119z M86.619,238.119h128.08v-25.288c0-15.473-12.595-28.061-28.076-28.061h-19.54
		c-0.829,0-1.5-0.672-1.5-1.5v-17.299h-29.836v17.299c0,0.828-0.671,1.5-1.5,1.5h-19.552c-15.481,0-28.076,12.588-28.076,28.061
		V238.119z"/>
	<path fill="#EB6E7A" d="M169.489,211.046H85.177c-0.035,0.588-0.058,1.179-0.058,1.776v26.799h131.08v-26.799
		c0-0.597-0.023-1.188-0.058-1.776h-33.068H169.489z"/>
	<path fill="#3A312A" d="M216.199,241.121H85.119c-0.829,0-1.5-0.672-1.5-1.5v-26.799c0-0.626,0.024-1.246,0.06-1.863
		c0.047-0.793,0.704-1.412,1.498-1.412h84.312c0.829,0,1.5,0.672,1.5,1.5c0,0.828-0.671,1.5-1.5,1.5H86.621
		c-0.001,0.092-0.001,0.184-0.001,0.275v25.299h128.08v-25.299c0-0.092-0.001-0.184-0.001-0.275h-31.625c-0.829,0-1.5-0.672-1.5-1.5
		c0-0.828,0.671-1.5,1.5-1.5h33.068c0.794,0,1.45,0.618,1.498,1.41c0.037,0.618,0.061,1.238,0.061,1.865v26.799
		C217.699,240.449,217.028,241.121,216.199,241.121z"/>
	<path fill="#3A312A" d="M109.075,241.121c-0.829,0-1.5-0.672-1.5-1.5v-21.172c0-0.828,0.671-1.5,1.5-1.5s1.5,0.672,1.5,1.5v21.172
		C110.575,240.449,109.903,241.121,109.075,241.121z"/>
	<path fill="#3A312A" d="M192.243,241.121c-0.829,0-1.5-0.672-1.5-1.5v-21.172c0-0.828,0.671-1.5,1.5-1.5s1.5,0.672,1.5,1.5v21.172
		C193.743,240.449,193.072,241.121,192.243,241.121z"/>
	<path fill-rule="evenodd" clip-rule="evenodd" fill="#F6E2C6" d="M111.509,109.728c0,6.424-5.21,11.632-11.638,11.632
		c-6.427,0-11.637-5.208-11.637-11.632c0-6.424,5.21-11.631,11.637-11.631C106.299,98.097,111.509,103.304,111.509,109.728z"/>
	<path fill="#3A312A" d="M99.872,122.859c-7.244,0-13.137-5.891-13.137-13.131c0-7.241,5.894-13.132,13.137-13.132
		c7.244,0,13.138,5.891,13.138,13.132C113.009,116.969,107.116,122.859,99.872,122.859z M99.872,99.597
		c-5.59,0-10.137,4.545-10.137,10.132c0,5.586,4.547,10.131,10.137,10.131c5.59,0,10.138-4.545,10.138-10.131
		C110.009,104.142,105.461,99.597,99.872,99.597z"/>
	<path fill-rule="evenodd" clip-rule="evenodd" fill="#F6E2C6" d="M213.084,109.728c0,6.424-5.21,11.632-11.637,11.632
		s-11.638-5.208-11.638-11.632c0-6.424,5.21-11.631,11.638-11.631S213.084,103.304,213.084,109.728z"/>
	<path fill="#3A312A" d="M201.446,122.859c-7.244,0-13.138-5.891-13.138-13.131c0-7.241,5.894-13.132,13.138-13.132
		c7.244,0,13.137,5.891,13.137,13.132C214.583,116.969,208.69,122.859,201.446,122.859z M201.446,99.597
		c-5.59,0-10.138,4.545-10.138,10.132c0,5.586,4.548,10.131,10.138,10.131c5.59,0,10.137-4.545,10.137-10.131
		C211.583,104.142,207.036,99.597,201.446,99.597z"/>
	<path fill="#F6E2C6" d="M202.252,104.085c0,16.03-8.7,36.9-20.62,52.07c-9.24,11.78-20.42,20.12-30.97,20.12
		c-10.39,0-21.89-8.88-31.39-21.24c-11.59-15.07-20.2-35.31-20.2-50.95c0-28.48,23.09-51.57,51.59-51.57
		C179.152,52.515,202.252,75.605,202.252,104.085z"/>
	<path fill="#3A312A" d="M150.662,177.775c-10.044,0-21.919-7.955-32.58-21.826c-12.459-16.202-20.51-36.56-20.51-51.864
		c0-29.263,23.816-53.069,53.09-53.069c29.273,0,53.089,23.807,53.089,53.069c0,15.759-8.415,37.058-20.94,52.997
		C172.345,170.426,160.927,177.775,150.662,177.775z M150.662,54.016c-27.62,0-50.09,22.461-50.09,50.069
		c0,14.685,7.807,34.325,19.889,50.036c10.089,13.126,21.097,20.654,30.202,20.654c9.189,0,20.046-7.124,29.79-19.546
		c12.142-15.453,20.3-36.006,20.3-51.145C200.751,76.477,178.281,54.016,150.662,54.016z"/>
	<path fill="#3A312A" d="M137.48,103.5c0,2.78-2.254,5.033-5.035,5.033c-2.781,0-5.035-2.253-5.035-5.033
		c0-2.779,2.254-5.033,5.035-5.033C135.226,98.467,137.48,100.72,137.48,103.5z"/>
	<path fill="#3A312A" d="M173.908,103.5c0,2.78-2.254,5.033-5.035,5.033c-2.781,0-5.035-2.253-5.035-5.033
		c0-2.779,2.254-5.033,5.035-5.033C171.654,98.467,173.908,100.72,173.908,103.5z"/>
	<path fill="#F59689" d="M131.055,118.463c0,3.579-3.884,6.481-8.674,6.481c-4.79,0-8.674-2.902-8.674-6.481
		c0-3.579,3.884-6.481,8.674-6.481C127.172,111.982,131.055,114.883,131.055,118.463z"/>
	<path fill="#F59689" d="M187.611,118.463c0,3.579-3.883,6.481-8.674,6.481c-4.791,0-8.674-2.902-8.674-6.481
		c0-3.579,3.884-6.481,8.674-6.481C183.727,111.982,187.611,114.883,187.611,118.463z"/>
	<path fill="#3A312A" d="M150.658,147.407c-7.285,0-12.537-3.271-15.609-9.724c-0.356-0.747-0.039-1.643,0.709-1.999
		c0.748-0.354,1.644-0.038,1.999,0.71c2.568,5.392,6.789,8.013,12.901,8.013c7.824,0,11.827-5.164,12.85-7.895
		c0.292-0.776,1.16-1.169,1.931-0.878c0.776,0.29,1.169,1.155,0.878,1.931C164.54,142.306,158.882,147.407,150.658,147.407z"/>
	<path fill="#D4DA55" d="M130.24,115.158l-20.149,3.778l9.18,36.1c9.5,12.36,21,21.24,31.39,21.24c10.55,0,21.73-8.34,30.97-20.12
		l9.46-37.22l-41-7.5l-2.365,0.443L130.24,115.158z"/>
	<path fill="#3A312A" d="M150.661,177.775c-10.044,0-21.918-7.955-32.58-21.826c-0.124-0.161-0.214-0.347-0.264-0.544l-9.18-36.1
		c-0.102-0.402-0.034-0.828,0.189-1.178c0.223-0.349,0.581-0.59,0.988-0.667l20.149-3.778c0.817-0.15,1.599,0.385,1.75,1.198
		c0.153,0.814-0.383,1.598-1.198,1.751l-18.578,3.483l8.709,34.25c10.037,12.975,20.965,20.41,30.013,20.41
		c9.128,0,19.902-7.029,29.595-19.298l8.986-35.355l-39.148-7.161l-2.092,0.393c-0.816,0.153-1.598-0.385-1.75-1.198
		c-0.153-0.814,0.383-1.598,1.198-1.751l2.365-0.443c0.18-0.034,0.365-0.035,0.546-0.001l41,7.5
		c0.409,0.075,0.768,0.315,0.993,0.665c0.224,0.351,0.294,0.777,0.191,1.18l-9.46,37.22c-0.051,0.203-0.145,0.393-0.274,0.557
		C172.344,170.426,160.926,177.775,150.661,177.775z"/>
	<path fill="#3A312A" d="M110.11,120.442c-0.505,0-0.999-0.255-1.282-0.718l-10.906-17.859c-0.432-0.707-0.209-1.631,0.498-2.063
		c0.708-0.431,1.63-0.209,2.062,0.498l10.906,17.859c0.432,0.707,0.208,1.631-0.499,2.063
		C110.646,120.371,110.377,120.442,110.11,120.442z"/>
	<path fill="#3A312A" d="M191.139,120.442c-0.267,0-0.536-0.07-0.78-0.22c-0.707-0.432-0.93-1.355-0.499-2.063l10.906-17.859
		c0.432-0.707,1.355-0.932,2.062-0.498c0.707,0.432,0.93,1.356,0.499,2.063l-10.906,17.859
		C192.138,120.188,191.644,120.442,191.139,120.442z"/>
	<path fill="#87796F" d="M209.373,85.447c0,5.283-0.688,10.404-1.987,15.279c-13.214-6.367-25.783-14.184-37.428-23.021
		c-3.416-2.588-6.779-5.283-9.991-8.139c-3.943-3.457-7.67-7.183-11.033-11.22c-7.316-8.805-12.687-18.919-17.232-29.453
		c5.737-1.858,11.86-2.856,18.22-2.856c17.006,0,32.347,7.14,43.186,18.586C203.196,55.264,209.373,69.631,209.373,85.447z"/>
	<path fill="#3A312A" d="M207.386,102.227c-0.223,0-0.445-0.05-0.651-0.148c-12.98-6.255-25.659-14.053-37.684-23.178
		c-3.843-2.911-7.14-5.598-10.081-8.213c-4.203-3.686-7.97-7.517-11.189-11.382c-6.516-7.842-12.063-17.316-17.457-29.818
		c-0.167-0.388-0.163-0.828,0.011-1.213c0.174-0.385,0.502-0.678,0.904-0.808c6.003-1.944,12.289-2.93,18.682-2.93
		c16.915,0,32.639,6.768,44.275,19.056c10.753,11.343,16.676,26.207,16.676,41.855c0,5.324-0.686,10.595-2.038,15.666
		c-0.115,0.432-0.417,0.79-0.823,0.977C207.813,102.181,207.599,102.227,207.386,102.227z M133.749,29.833
		c5.066,11.475,10.279,20.262,16.339,27.554c3.118,3.744,6.775,7.463,10.868,11.052c2.889,2.569,6.127,5.207,9.908,8.071
		c11.354,8.615,23.293,16.03,35.516,22.058c0.992-4.271,1.495-8.675,1.495-13.12c0-14.876-5.63-29.008-15.854-39.791
		c-11.065-11.685-26.015-18.119-42.098-18.119C144.404,27.537,138.972,28.309,133.749,29.833z"/>
	<path fill="#87796F" d="M193.109,44.624c-10.227,9.32-21.357,17.566-33.142,24.943c-20.895,13.089-43.809,23.418-67.261,32.019
		c-1.45-5.132-2.224-10.544-2.224-16.138c0-26.457,17.307-48.876,41.22-56.554c5.737-1.858,11.86-2.856,18.22-2.856
		C166.928,26.037,182.269,33.178,193.109,44.624z"/>
	<path fill="#3A312A" d="M92.706,103.085c-0.235,0-0.469-0.055-0.682-0.164c-0.371-0.189-0.648-0.526-0.761-0.928
		c-1.513-5.354-2.28-10.921-2.28-16.546c0-26.566,16.984-49.867,42.262-57.982c6-1.943,12.286-2.929,18.679-2.929
		c16.915,0,32.639,6.768,44.275,19.056c0.277,0.292,0.424,0.684,0.41,1.087c-0.015,0.402-0.191,0.782-0.489,1.053
		c-9.831,8.959-21.054,17.405-33.356,25.105c-19.139,11.988-41.231,22.507-67.54,32.155
		C93.055,103.055,92.88,103.085,92.706,103.085z M149.922,27.537c-6.079,0-12.054,0.937-17.758,2.783
		c-24.036,7.716-40.182,29.869-40.182,55.127c0,4.802,0.587,9.558,1.748,14.161c25.435-9.42,46.854-19.67,65.44-31.313
		c11.674-7.307,22.357-15.288,31.779-23.741C180.001,33.567,165.492,27.537,149.922,27.537z"/>
	<path fill="#DECAAD" d="M214.499,209.542h-15c-1.63-13.92-13.51-24.77-27.88-24.77h15
		C200.989,184.772,212.869,195.622,214.499,209.542z"/>
	<rect x="199.699" y="212.542" fill="#D04E5D" width="15" height="25.58"/>
</g>
</svg>
