<?xml version="1.0" encoding="utf-8"?>
<!-- Generator: Adobe Illustrator 24.0.0, SVG Export Plug-In . SVG Version: 6.00 Build 0)  -->
<svg version="1.1" id="Layer_1" xmlns="http://www.w3.org/2000/svg" xmlns:xlink="http://www.w3.org/1999/xlink" x="0px" y="0px"
	 viewBox="0 0 256 256" enable-background="new 0 0 256 256" xml:space="preserve">
<g>
	<path fill="#D7E057" d="M149.845,26.407c0,0,3.408,12.659,13.222,13.246c0,0-13.1,4.525-13.321,14.202
		c0,0-2.578-13.572-12.925-14.059C136.82,39.796,148.871,37.971,149.845,26.407z"/>
	<path fill="#3A312A" d="M149.744,55.354c-0.713,0-1.335-0.506-1.472-1.217c-0.024-0.124-2.494-12.417-11.522-12.842
		c-0.771-0.037-1.388-0.651-1.428-1.421c-0.04-0.771,0.511-1.445,1.273-1.561c0.441-0.069,10.894-1.817,11.754-12.033
		c0.061-0.725,0.634-1.301,1.359-1.367c0.721-0.063,1.393,0.399,1.583,1.101c0.032,0.116,3.259,11.626,11.864,12.141
		c0.714,0.043,1.297,0.584,1.395,1.292c0.098,0.708-0.319,1.388-0.994,1.623c-0.121,0.042-12.118,4.311-12.313,12.819
		c-0.017,0.767-0.61,1.396-1.374,1.459C149.828,55.353,149.786,55.354,149.744,55.354z M142.003,39.625
		c3.878,1.969,6.23,5.746,7.586,8.876c2.027-4.021,5.942-6.787,8.949-8.427c-4.134-1.842-6.783-5.652-8.334-8.723
		C148.412,35.712,144.934,38.22,142.003,39.625z"/>
	<path fill="#D7E057" d="M128.146,43.387c0,0,2.411,8.954,9.352,9.369c0,0-9.266,3.201-9.422,10.045c0,0-1.824-9.6-9.142-9.944
		C118.933,52.858,127.457,51.566,128.146,43.387z"/>
	<path fill="#3A312A" d="M128.074,64.302c-0.713,0-1.337-0.507-1.472-1.22c-0.016-0.082-1.704-8.442-7.739-8.726
		c-0.771-0.037-1.388-0.651-1.428-1.421c-0.04-0.771,0.511-1.445,1.274-1.561c0.296-0.047,7.364-1.243,7.942-8.114
		c0.061-0.726,0.635-1.303,1.36-1.368c0.73-0.063,1.392,0.4,1.582,1.101l0,0c0.021,0.079,2.227,7.92,7.994,8.265
		c0.714,0.043,1.299,0.584,1.396,1.293c0.098,0.709-0.32,1.388-0.996,1.622c-0.081,0.028-8.282,2.952-8.412,8.661
		c-0.018,0.767-0.611,1.397-1.376,1.461C128.157,64.3,128.116,64.302,128.074,64.302z M123.556,52.774
		c2.107,1.333,3.523,3.394,4.447,5.28c1.376-2.232,3.515-3.872,5.365-4.972c-2.287-1.27-3.884-3.35-4.941-5.224
		C127.253,50.145,125.411,51.733,123.556,52.774z"/>
	<path fill="#D7E057" d="M128.146,16.73c0,0,2.411,8.954,9.352,9.37c0,0-9.266,3.201-9.422,10.045c0,0-1.824-9.6-9.142-9.944
		C118.933,26.2,127.457,24.909,128.146,16.73z"/>
	<path fill="#3A312A" d="M128.074,37.645c-0.713,0-1.337-0.507-1.472-1.22c-0.016-0.082-1.704-8.442-7.739-8.726
		c-0.77-0.037-1.387-0.651-1.427-1.421c-0.039-0.771,0.511-1.445,1.274-1.56c0.296-0.047,7.364-1.243,7.942-8.113
		c0.061-0.726,0.635-1.303,1.36-1.368c0.73-0.064,1.392,0.4,1.582,1.102l0,0c0.021,0.079,2.227,7.92,7.994,8.265
		c0.714,0.043,1.299,0.584,1.396,1.293c0.098,0.709-0.32,1.388-0.996,1.622c-0.081,0.028-8.282,2.952-8.412,8.662
		c-0.018,0.767-0.611,1.397-1.376,1.461C128.157,37.644,128.116,37.645,128.074,37.645z M123.556,26.117
		c2.107,1.332,3.523,3.394,4.447,5.28c1.376-2.232,3.515-3.872,5.365-4.972c-2.287-1.27-3.884-3.35-4.941-5.224
		C127.253,23.487,125.411,25.076,123.556,26.117z"/>
	<path fill="#87796F" d="M94.833,124.57c-31.818,1.563-62.655,0.223-77.833-33.3c4.657,61.235,23.709,148,111.039,148
		c89.408,0,106.031-85.947,110.961-147.124c-20.13,45.007-67.796,30.971-110.961,30.971c-6.185,0-12.539,0.299-18.941,0.657
		L94.833,124.57z"/>
	<path fill="#3A312A" d="M128.039,240.77c-67.133,0-104.995-50.261-112.535-149.386c-0.055-0.726,0.418-1.387,1.123-1.567
		c0.704-0.179,1.438,0.171,1.739,0.834c14.796,32.681,44.58,33.983,76.393,32.421c0.851-0.053,1.532,0.598,1.572,1.424
		c0.041,0.828-0.597,1.531-1.424,1.572c-29.375,1.443-59.227,0.367-75.777-27.453c8.693,92.349,45.312,139.154,108.91,139.154
		c84.1,0,102.969-76.675,108.802-138.167c-17.834,30.112-51.213,28.054-83.564,26.058c-8.325-0.514-16.932-1.044-25.238-1.044
		c-6.283,0-12.776,0.315-18.857,0.655c-0.828,0.052-1.536-0.587-1.582-1.414c-0.046-0.827,0.586-1.535,1.414-1.582
		c6.124-0.343,12.668-0.66,19.025-0.66c8.398,0,17.053,0.534,25.423,1.05c35.155,2.169,68.358,4.216,84.169-31.133
		c0.298-0.666,1.034-1.021,1.741-0.841c0.708,0.181,1.182,0.846,1.123,1.574c-2.162,26.828-7,66.083-23.981,97.103
		C197.844,223.477,168.077,240.77,128.039,240.77z"/>
	<path fill="#87796F" d="M50.285,91.486c13.498,7.535,29.073,12.285,42.833,12.285c15.442,0,28.752-5.077,34.882-12.4
		c6.129,7.323,19.439,12.4,34.882,12.4c33.064,0,76.618-27.405,76.618-55.059c0-5.001-12.992,5.483-27.034,10.485
		c-12.1,4.31-37.294,1.631-49.585,1.631c-15.442,0-28.752,5.076-34.882,12.4c-6.129-7.323-19.439-12.4-34.882-12.4
		c-12.29,0-37.485,2.679-49.585-1.631C29.492,54.195,16.5,43.71,16.5,48.711c0,12.516,8.922,24.98,21.754,34.876L50.285,91.486z"/>
	<path fill="#3A312A" d="M162.882,105.27c-14.702,0-27.848-4.434-34.882-11.664c-7.034,7.23-20.18,11.664-34.882,11.664
		c-13.484,0-29.362-4.547-43.564-12.475c-0.724-0.404-0.982-1.317-0.579-2.041c0.403-0.724,1.316-0.983,2.041-0.579
		c13.769,7.686,29.114,12.094,42.102,12.094c14.459,0,27.7-4.656,33.731-11.863c0.57-0.681,1.73-0.681,2.301,0
		c6.031,7.207,19.272,11.863,33.731,11.863c15.803,0,34.441-6.316,49.859-16.896c15.972-10.96,25.166-24.245,25.258-36.479
		c-1.467,0.174-5.481,2.32-8.759,4.073c-4.609,2.464-10.346,5.531-16.27,7.641c-9.369,3.338-25.798,2.632-39,2.064
		c-4.148-0.178-8.067-0.347-11.088-0.347c-14.459,0-27.7,4.656-33.731,11.863c-0.57,0.681-1.73,0.681-2.301,0
		c-6.031-7.207-19.272-11.863-33.731-11.863c-3.021,0-6.94,0.168-11.088,0.347c-13.201,0.567-29.63,1.272-39-2.064
		c-5.924-2.11-11.661-5.177-16.27-7.641c-3.278-1.752-7.292-3.898-8.759-4.073c0.083,11.143,7.593,23.034,21.17,33.504
		c0.656,0.506,0.778,1.448,0.272,2.104c-0.505,0.656-1.448,0.778-2.104,0.272C22.933,73.666,15,60.859,15,48.711
		c0-1.475,0.771-2.157,1.23-2.432c1.982-1.188,5.094,0.382,11.943,4.043c4.522,2.417,10.149,5.425,15.863,7.46
		c8.817,3.142,24.924,2.449,37.864,1.893c4.181-0.18,8.131-0.349,11.217-0.349c14.702,0,27.848,4.434,34.882,11.664
		c7.034-7.23,20.18-11.664,34.882-11.664c3.086,0,7.036,0.169,11.217,0.349c12.941,0.556,29.046,1.248,37.864-1.893
		c5.714-2.035,11.341-5.043,15.863-7.46c6.849-3.661,9.962-5.231,11.943-4.043c0.46,0.275,1.231,0.958,1.231,2.432
		C241,77.307,196.269,105.27,162.882,105.27z M237.99,48.573L237.99,48.573L237.99,48.573z M18.01,48.573L18.01,48.573L18.01,48.573
		z"/>
	<path fill="#695B51" d="M236.84,99.6c-5.83,61.49-24.7,138.17-108.8,138.17c-2.47,0-4.9-0.07-7.28-0.22
		c70.01-4.13,91.39-64.69,99.04-120.25C226.36,113.24,232.14,107.54,236.84,99.6z"/>
	<path fill="#695B51" d="M238,48.9c-0.09,12.23-9.29,25.51-25.26,36.47c-15.42,10.58-34.06,16.9-49.86,16.9
		c-2.57,0-5.11-0.15-7.57-0.43c14-1.6,29.37-7.51,42.43-16.47c12.55-8.62,20.92-18.66,23.97-28.51c2.71-1.32,5.26-2.68,7.53-3.89
		C232.52,51.22,236.53,49.07,238,48.9z"/>
</g>
</svg>
