<?xml version="1.0" encoding="utf-8"?>
<!-- Generator: Adobe Illustrator 24.0.0, SVG Export Plug-In . SVG Version: 6.00 Build 0)  -->
<svg version="1.1" id="Layer_1" xmlns="http://www.w3.org/2000/svg" xmlns:xlink="http://www.w3.org/1999/xlink" x="0px" y="0px"
	 viewBox="0 0 256 256" enable-background="new 0 0 256 256" xml:space="preserve">
<g>
	<path fill="#D7E057" d="M71.781,81.637c0,0,3.408,12.659,13.222,13.246c0,0-13.1,4.525-13.321,14.202
		c0,0-2.578-13.572-12.925-14.059C58.756,95.026,70.807,93.2,71.781,81.637z"/>
	<path fill="#3A312A" d="M71.68,110.585c-0.713,0-1.336-0.506-1.472-1.217c-0.024-0.124-2.494-12.418-11.522-12.842
		c-0.771-0.037-1.388-0.651-1.428-1.421c-0.04-0.77,0.511-1.445,1.273-1.56c0.441-0.069,10.894-1.818,11.754-12.033
		c0.061-0.725,0.634-1.301,1.359-1.367c0.717-0.06,1.393,0.398,1.583,1.102c0.032,0.116,3.259,11.626,11.864,12.141
		c0.714,0.043,1.297,0.584,1.396,1.293c0.098,0.709-0.319,1.388-0.994,1.623c-0.121,0.042-12.118,4.31-12.313,12.819
		c-0.018,0.767-0.61,1.396-1.375,1.46C71.764,110.583,71.722,110.585,71.68,110.585z M63.939,94.855
		c3.878,1.969,6.23,5.746,7.586,8.876c2.027-4.021,5.942-6.787,8.949-8.427c-4.135-1.843-6.783-5.651-8.334-8.723
		C70.348,90.942,66.87,93.45,63.939,94.855z"/>
	<path fill="#D7E057" d="M50.082,98.617c0,0,2.411,8.954,9.352,9.369c0,0-9.266,3.201-9.422,10.045c0,0-1.824-9.6-9.142-9.944
		C40.87,108.088,49.393,106.796,50.082,98.617z"/>
	<path fill="#3A312A" d="M50.01,119.532c-0.713,0-1.337-0.507-1.472-1.22c-0.016-0.081-1.704-8.441-7.739-8.725
		c-0.771-0.037-1.388-0.651-1.428-1.421c-0.04-0.771,0.511-1.445,1.273-1.56c0.296-0.047,7.364-1.243,7.942-8.114
		c0.061-0.726,0.635-1.303,1.36-1.368c0.726-0.065,1.392,0.4,1.582,1.102l0,0c0.021,0.079,2.228,7.92,7.994,8.265
		c0.714,0.043,1.299,0.584,1.396,1.293c0.098,0.709-0.32,1.388-0.996,1.622c-0.081,0.028-8.282,2.952-8.413,8.661
		c-0.018,0.767-0.611,1.397-1.376,1.461C50.093,119.53,50.052,119.532,50.01,119.532z M45.492,108.004
		c2.106,1.332,3.523,3.394,4.447,5.28c1.376-2.232,3.515-3.872,5.365-4.972c-2.287-1.269-3.884-3.35-4.941-5.224
		C49.189,105.374,47.348,106.963,45.492,108.004z"/>
	<path fill="#D7E057" d="M50.082,71.96c0,0,2.411,8.954,9.352,9.37c0,0-9.266,3.201-9.422,10.045c0,0-1.824-9.6-9.142-9.944
		C40.87,81.43,49.393,80.139,50.082,71.96z"/>
	<path fill="#3A312A" d="M50.01,92.874c-0.713,0-1.337-0.507-1.472-1.22c-0.016-0.081-1.704-8.442-7.739-8.726
		c-0.771-0.037-1.388-0.651-1.428-1.421c-0.04-0.771,0.511-1.445,1.273-1.56c0.296-0.047,7.364-1.243,7.942-8.114
		c0.061-0.726,0.635-1.303,1.36-1.368c0.726-0.065,1.392,0.4,1.582,1.102l0,0c0.021,0.079,2.228,7.92,7.994,8.265
		c0.714,0.043,1.299,0.585,1.396,1.294c0.098,0.709-0.32,1.388-0.996,1.622c-0.081,0.028-8.282,2.952-8.413,8.662
		c-0.018,0.767-0.611,1.397-1.376,1.461C50.093,92.873,50.052,92.874,50.01,92.874z M45.492,81.347
		c2.107,1.332,3.523,3.395,4.447,5.28c1.376-2.233,3.515-3.872,5.365-4.972c-2.287-1.269-3.884-3.35-4.941-5.224
		C49.189,78.717,47.348,80.306,45.492,81.347z"/>
	<path fill="#EB6E7A" d="M190.403,143.962V93.195h-75.831v50.767c0,8.72-2.583,17.181-7.055,24.667
		c-4.678,7.832-7.37,16.986-7.37,26.773c0,0.662,0.012,1.321,0.037,1.976c0.878,23.653,20.863,42.121,44.531,42.121h15.544
		c23.669,0,43.654-18.469,44.532-42.121c0.024-0.656,0.037-1.315,0.037-1.976c0-9.787-2.691-18.941-7.37-26.773
		C192.985,161.143,190.403,152.682,190.403,143.962z"/>
	<path fill="#3A312A" d="M160.259,241h-15.544c-11.882,0-23.189-4.474-31.839-12.597c-8.713-8.184-13.753-19.182-14.191-30.968
		c-0.025-0.674-0.038-1.352-0.038-2.032c0-9.714,2.622-19.238,7.582-27.542c4.476-7.494,6.842-15.758,6.842-23.898V93.195
		c0-0.829,0.671-1.5,1.5-1.5h75.83c0.828,0,1.5,0.671,1.5,1.5v50.767c0,8.14,2.366,16.404,6.843,23.898
		c4.96,8.303,7.582,17.828,7.582,27.542c0,0.68-0.013,1.357-0.037,2.03c-0.438,11.789-5.479,22.787-14.192,30.97
		C183.448,236.526,172.141,241,160.259,241z M116.072,94.695v49.267c0,8.682-2.513,17.478-7.267,25.436
		c-4.682,7.84-7.157,16.832-7.157,26.004c0,0.644,0.012,1.284,0.036,1.921C102.53,220.133,121.432,238,144.715,238h15.544
		c23.283,0,42.185-17.867,43.033-40.677c0.022-0.636,0.035-1.277,0.035-1.921c0-9.173-2.476-18.165-7.158-26.004
		c-4.754-7.958-7.267-16.754-7.267-25.436V94.695H116.072z"/>
	<path fill="#FCE8CB" d="M148.13,144h42.273c0-0.013-0.001-0.025-0.001-0.038V93.195h-75.831v50.767
		c0,0.013-0.001,0.025-0.001,0.038h19.604H148.13z"/>
	<path fill="#3A312A" d="M190.403,145.5h-42.272c-0.828,0-1.5-0.671-1.5-1.5s0.672-1.5,1.5-1.5h40.772l-0.001-47.805h-72.83V142.5
		h18.104c0.828,0,1.5,0.671,1.5,1.5s-0.672,1.5-1.5,1.5h-19.605c-0.829,0-1.5-0.671-1.5-1.5l0.001-50.805c0-0.829,0.671-1.5,1.5-1.5
		h75.83c0.828,0,1.5,0.671,1.5,1.5v50.767C191.902,144.79,191.231,145.5,190.403,145.5z"/>
	<path fill="#87796F" d="M104.828,69.81l9.744,23.385h75.831l24.728-59.346l-1.225-0.716c-38.383-22.431-85.94-22.157-124.062,0.716
		l0,0l9.235,22.163L104.828,69.81z"/>
	<path fill="#3A312A" d="M190.402,94.695h-75.83c-0.605,0-1.152-0.364-1.385-0.923l-9.744-23.386
		c-0.318-0.765,0.043-1.643,0.808-1.962c0.766-0.318,1.643,0.043,1.962,0.808l9.359,22.463h73.83l23.84-57.212l-0.094-0.054
		c-37.545-21.943-83.947-21.895-121.418,0.046l8.733,20.96c0.318,0.765-0.043,1.643-0.808,1.962
		c-0.767,0.319-1.643-0.043-1.962-0.808l-9.234-22.164c-0.286-0.687-0.025-1.48,0.613-1.863
		c38.604-23.162,86.726-23.438,125.59-0.725l1.226,0.715c0.648,0.379,0.917,1.179,0.628,1.873l-24.729,59.346
		C191.554,94.331,191.008,94.695,190.402,94.695z"/>
	<path fill="#D04E5D" d="M203.327,195.4c0,0.65-0.01,1.29-0.04,1.92c-0.84,22.81-19.74,40.68-43.03,40.68h-15
		c23.29,0,42.19-17.87,43.03-40.68c0.03-0.63,0.04-1.27,0.04-1.92c0-9.17-2.48-18.16-7.16-26c-4.47-7.49-6.96-15.72-7.24-23.9h15
		c0.28,8.18,2.77,16.41,7.24,23.9C200.847,177.24,203.327,186.23,203.327,195.4z"/>
	<rect x="173.907" y="94.7" fill="#DECAAD" width="15" height="47.8"/>
	<path fill="#695B51" d="M213.237,34.48l-23.83,57.22h-15l23.83-57.22l-0.09-0.05c-16.51-9.65-34.74-15.05-53.17-16.19
		c23.42-1.47,47.18,3.92,68.17,16.19L213.237,34.48z"/>
</g>
</svg>
