<?xml version="1.0" encoding="utf-8"?>
<!-- Generator: Adobe Illustrator 24.0.0, SVG Export Plug-In . SVG Version: 6.00 Build 0)  -->
<svg version="1.1" id="Layer_1" xmlns="http://www.w3.org/2000/svg" xmlns:xlink="http://www.w3.org/1999/xlink" x="0px" y="0px"
	 viewBox="0 0 256 256" enable-background="new 0 0 256 256" xml:space="preserve">
<g>
	<path fill="#D7E057" d="M53.964,26.009c0,0,3.408,12.659,13.222,13.246c0,0-13.1,4.525-13.321,14.202
		c0,0-2.578-13.572-12.925-14.059C40.94,39.398,52.99,37.573,53.964,26.009z"/>
	<path fill="#3A312A" d="M53.864,54.956c-0.713,0-1.335-0.506-1.473-1.217c-0.023-0.124-2.494-12.417-11.523-12.843
		c-0.771-0.036-1.388-0.65-1.428-1.421c-0.04-0.77,0.511-1.444,1.273-1.561c0.441-0.068,10.895-1.817,11.754-12.032
		c0.062-0.726,0.635-1.301,1.359-1.367c0.729-0.062,1.394,0.399,1.584,1.102c0.031,0.116,3.259,11.626,11.864,12.141
		c0.714,0.042,1.297,0.583,1.396,1.292c0.098,0.708-0.318,1.388-0.994,1.622c-0.121,0.042-12.119,4.31-12.312,12.819
		c-0.018,0.767-0.61,1.396-1.375,1.46C53.948,54.954,53.906,54.956,53.864,54.956z M46.122,39.228
		c3.878,1.969,6.23,5.746,7.588,8.876c2.026-4.021,5.941-6.787,8.949-8.427c-4.135-1.843-6.784-5.651-8.335-8.723
		C52.531,35.314,49.053,37.822,46.122,39.228z"/>
	<path fill="#D7E057" d="M32.265,42.989c0,0,2.411,8.954,9.352,9.369c0,0-9.266,3.201-9.422,10.045c0,0-1.824-9.6-9.142-9.944
		C23.053,52.46,31.576,51.168,32.265,42.989z"/>
	<path fill="#3A312A" d="M32.194,63.904c-0.714,0-1.337-0.507-1.473-1.22c-0.016-0.082-1.704-8.442-7.739-8.727
		c-0.771-0.036-1.388-0.65-1.428-1.421c-0.04-0.77,0.511-1.444,1.273-1.561c0.296-0.047,7.363-1.242,7.942-8.113
		c0.062-0.726,0.636-1.303,1.361-1.368c0.718-0.056,1.391,0.399,1.582,1.102l0,0c0.021,0.079,2.226,7.92,7.993,8.265
		c0.714,0.042,1.299,0.584,1.396,1.293c0.097,0.709-0.32,1.388-0.996,1.622c-0.081,0.028-8.282,2.953-8.412,8.662
		c-0.018,0.768-0.611,1.397-1.376,1.461C32.277,63.902,32.235,63.904,32.194,63.904z M27.675,52.377
		c2.107,1.332,3.523,3.395,4.447,5.279c1.376-2.232,3.516-3.872,5.365-4.973c-2.287-1.269-3.885-3.35-4.941-5.224
		C31.372,49.747,29.53,51.336,27.675,52.377z"/>
	<path fill="#D7E057" d="M32.265,16.332c0,0,2.411,8.954,9.352,9.369c0,0-9.266,3.201-9.422,10.045c0,0-1.824-9.6-9.142-9.944
		C23.053,25.802,31.576,24.511,32.265,16.332z"/>
	<path fill="#3A312A" d="M32.194,37.247c-0.714,0-1.337-0.507-1.473-1.22c-0.016-0.082-1.704-8.442-7.739-8.727
		c-0.771-0.036-1.388-0.65-1.428-1.421c-0.04-0.77,0.511-1.444,1.273-1.561c0.296-0.047,7.363-1.243,7.942-8.113
		c0.062-0.726,0.636-1.303,1.361-1.368c0.718-0.063,1.391,0.399,1.582,1.102l0,0c0.021,0.079,2.226,7.92,7.993,8.265
		c0.714,0.042,1.299,0.584,1.396,1.293c0.097,0.709-0.32,1.388-0.996,1.622c-0.081,0.028-8.282,2.953-8.412,8.662
		c-0.018,0.768-0.611,1.397-1.376,1.461C32.277,37.245,32.235,37.247,32.194,37.247z M27.675,25.719
		c2.107,1.333,3.523,3.395,4.447,5.28c1.376-2.232,3.516-3.872,5.365-4.973c-2.287-1.269-3.885-3.35-4.941-5.224
		C31.372,23.089,29.53,24.678,27.675,25.719z"/>
	<path fill="#87796F" d="M88.971,208.971v17.983c0,7.022,5.692,12.714,12.714,12.714h118.548c7.022,0,12.714-5.692,12.714-12.714
		V30.062c0-7.022-5.692-12.714-12.714-12.714H101.685c-7.022,0-12.714,5.692-12.714,12.714V193.46V208.971z"/>
	<path fill="#3A312A" d="M220.233,241.168H101.686c-7.838,0-14.214-6.376-14.214-14.214v-17.983c0-0.828,0.672-1.5,1.5-1.5
		c0.828,0,1.5,0.672,1.5,1.5v17.983c0,6.184,5.03,11.214,11.214,11.214h118.548c6.184,0,11.214-5.03,11.214-11.214V30.063
		c0-6.184-5.03-11.214-11.214-11.214H101.686c-6.184,0-11.214,5.03-11.214,11.214V193.46c0,0.828-0.672,1.5-1.5,1.5
		c-0.828,0-1.5-0.672-1.5-1.5V30.063c0-7.838,6.376-14.214,14.214-14.214h118.548c7.838,0,14.214,6.376,14.214,14.214v196.892
		C234.447,234.792,228.071,241.168,220.233,241.168z"/>
	<path fill="#F6E2C6" d="M184.708,209.629h26.351c3.77,0,6.82-3.05,6.82-6.81V38.889c0-3.76-3.05-6.81-6.82-6.81h-23.1
		c0,3.54-2.87,6.41-6.41,6.41h-41.18c-3.54,0-6.41-2.87-6.41-6.41h-23.1c-3.77,0-6.82,3.05-6.82,6.81v163.93
		c0,3.76,3.05,6.81,6.82,6.81h60.352H184.708z"/>
	<path fill="#3A312A" d="M211.06,211.129h-26.352c-0.828,0-1.5-0.672-1.5-1.5c0-0.828,0.672-1.5,1.5-1.5h26.352
		c2.933,0,5.319-2.382,5.319-5.311V38.889c0-2.928-2.387-5.31-5.319-5.31h-21.743c-0.703,3.646-3.919,6.409-7.768,6.409h-41.18
		c-3.849,0-7.064-2.763-7.768-6.409h-21.742c-2.934,0-5.32,2.382-5.32,5.31v163.93c0,2.929,2.387,5.311,5.32,5.311h60.352
		c0.828,0,1.5,0.672,1.5,1.5c0,0.828-0.672,1.5-1.5,1.5h-60.352c-4.588,0-8.32-3.729-8.32-8.311V38.889
		c0-4.582,3.732-8.31,8.32-8.31h23.1c0.828,0,1.5,0.672,1.5,1.5c0,2.707,2.203,4.909,4.91,4.909h41.18
		c2.707,0,4.91-2.202,4.91-4.909c0-0.828,0.672-1.5,1.5-1.5h23.101c4.587,0,8.319,3.727,8.319,8.31v163.93
		C219.379,207.4,215.646,211.129,211.06,211.129z"/>
	<path fill="#87796F" d="M169.319,224.148c0,4.617-3.743,8.36-8.36,8.36c-4.617,0-8.36-3.743-8.36-8.36
		c0-4.617,3.743-8.36,8.36-8.36C165.576,215.788,169.319,219.531,169.319,224.148z"/>
	<path fill="#3A312A" d="M160.959,234.008c-5.438,0-9.86-4.423-9.86-9.859c0-5.438,4.423-9.86,9.86-9.86s9.86,4.423,9.86,9.86
		C170.819,229.585,166.396,234.008,160.959,234.008z M160.959,217.288c-3.783,0-6.86,3.077-6.86,6.86
		c0,3.782,3.077,6.859,6.86,6.859s6.86-3.077,6.86-6.859C167.819,220.365,164.742,217.288,160.959,217.288z"/>
	<path fill="#DBC7AA" d="M216.374,38.889v163.93c0,2.92-2.38,5.31-5.31,5.31h-14c2.93,0,5.31-2.39,5.31-5.31V38.889
		c0-2.93-2.38-5.31-5.31-5.31h14C213.993,33.579,216.374,35.959,216.374,38.889z"/>
	<path fill="#3A312A" d="M177.459,31.489h-33c-1.933,0-3.5-1.567-3.5-3.5l0,0c0-1.933,1.567-3.5,3.5-3.5h33
		c1.933,0,3.5,1.567,3.5,3.5l0,0C180.959,29.922,179.392,31.489,177.459,31.489z"/>
	<path fill="#8AC5DC" d="M136.243,193.372h-9.175c-1.991,0-3.604-1.614-3.604-3.604v-9.175c0-1.991,1.614-3.604,3.604-3.604h9.175
		c1.99,0,3.604,1.614,3.604,3.604v9.175C139.847,191.758,138.234,193.372,136.243,193.372z"/>
	<path fill="#3A312A" d="M136.243,194.872h-9.175c-2.814,0-5.104-2.29-5.104-5.105v-9.175c0-2.814,2.29-5.105,5.104-5.105h9.175
		c2.814,0,5.105,2.29,5.105,5.105v9.175C141.348,192.582,139.058,194.872,136.243,194.872z M127.068,178.488
		c-1.16,0-2.104,0.944-2.104,2.105v9.175c0,1.16,0.944,2.105,2.104,2.105h9.175c1.16,0,2.105-0.944,2.105-2.105v-9.175
		c0-1.16-0.944-2.105-2.105-2.105H127.068z"/>
	<path fill="#EB6E7A" d="M165.546,193.372h-9.175c-1.991,0-3.604-1.614-3.604-3.604v-9.175c0-1.991,1.614-3.604,3.604-3.604h9.175
		c1.991,0,3.604,1.614,3.604,3.604v9.175C169.151,191.758,167.537,193.372,165.546,193.372z"/>
	<path fill="#3A312A" d="M165.547,194.872h-9.175c-2.814,0-5.105-2.29-5.105-5.105v-9.175c0-2.814,2.29-5.105,5.105-5.105h9.175
		c2.814,0,5.104,2.29,5.104,5.105v9.175C170.65,192.582,168.361,194.872,165.547,194.872z M156.372,178.488
		c-1.16,0-2.105,0.944-2.105,2.105v9.175c0,1.16,0.944,2.105,2.105,2.105h9.175c1.16,0,2.104-0.944,2.104-2.105v-9.175
		c0-1.16-0.943-2.105-2.104-2.105H156.372z"/>
	<path fill="#D7E057" d="M194.85,193.372h-9.175c-1.991,0-3.604-1.614-3.604-3.604v-9.175c0-1.991,1.614-3.604,3.604-3.604h9.175
		c1.991,0,3.604,1.614,3.604,3.604v9.175C198.454,191.758,196.841,193.372,194.85,193.372z"/>
	<path fill="#3A312A" d="M194.851,194.872h-9.175c-2.814,0-5.104-2.29-5.104-5.105v-9.175c0-2.814,2.29-5.105,5.104-5.105h9.175
		c2.814,0,5.104,2.29,5.104,5.105v9.175C199.954,192.582,197.665,194.872,194.851,194.872z M185.676,178.488
		c-1.16,0-2.104,0.944-2.104,2.105v9.175c0,1.16,0.944,2.105,2.104,2.105h9.175c1.16,0,2.104-0.944,2.104-2.105v-9.175
		c0-1.16-0.943-2.105-2.104-2.105H185.676z"/>
	<circle fill="#8AC5DC" cx="160.959" cy="96.5" r="38"/>
	<path fill="#3A312A" d="M160.959,136c-21.78,0-39.5-17.72-39.5-39.5s17.72-39.5,39.5-39.5s39.5,17.72,39.5,39.5
		S182.739,136,160.959,136z M160.959,60c-20.126,0-36.5,16.374-36.5,36.5s16.374,36.5,36.5,36.5s36.5-16.374,36.5-36.5
		S181.085,60,160.959,60z"/>
	<path fill="#FCE8CB" d="M151.104,71.573l14.308,46.08l5.723-10.223l-17.158-39.757l0,0
		C151.95,67.672,150.503,69.637,151.104,71.573z"/>
	<path fill="#3A312A" d="M165.411,119.153c-0.052,0-0.105-0.003-0.156-0.008c-0.597-0.063-1.099-0.475-1.276-1.048l-14.308-46.08
		l0,0c-0.429-1.384-0.183-2.846,0.677-4.011c0.858-1.166,2.182-1.834,3.629-1.834c0.599,0,1.14,0.356,1.377,0.905l17.158,39.757
		c0.186,0.43,0.16,0.92-0.068,1.327l-5.724,10.224C166.453,118.863,165.95,119.153,165.411,119.153z M152.536,71.129l13.272,42.744
		l3.655-6.529l-16.355-37.898c-0.131,0.092-0.247,0.206-0.346,0.34C152.475,70.177,152.393,70.666,152.536,71.129L152.536,71.129z"
		/>
	<path fill="#FCE8CB" d="M167.941,67.672l-17.158,39.757l5.723,10.223l14.308-46.08C171.416,69.637,169.969,67.672,167.941,67.672
		L167.941,67.672z"/>
	<path fill="#3A312A" d="M156.507,119.153c-0.539,0-1.042-0.29-1.309-0.768l-5.723-10.224c-0.229-0.407-0.254-0.897-0.068-1.327
		l17.157-39.757c0.237-0.549,0.778-0.905,1.377-0.905c1.448,0,2.771,0.669,3.631,1.835c0.858,1.166,1.105,2.628,0.675,4.011
		l-14.308,46.079c-0.178,0.573-0.68,0.984-1.276,1.048C156.611,119.15,156.559,119.153,156.507,119.153z M152.455,107.344
		l3.655,6.529l13.271-42.744c0.144-0.463,0.062-0.952-0.226-1.342c-0.099-0.135-0.216-0.249-0.347-0.341L152.455,107.344z"/>
	<path fill-rule="evenodd" clip-rule="evenodd" fill="#EB6E7A" d="M154.502,110.148c-3.668-4.394-10.352-4.469-14.118-0.157
		c-2.962,3.392-3.02,8.535-0.134,11.993c3.668,4.395,10.354,4.47,14.119,0.157C157.331,118.748,157.388,113.605,154.502,110.148z
		 M149.682,113.111c1.94,1.54,1.907,4.463-0.066,5.96c-1.345,1.02-3.257,0.999-4.578-0.05c-1.94-1.54-1.908-4.463,0.066-5.96
		C146.448,112.04,148.36,112.062,149.682,113.111z"/>
	<path fill="#3A312A" d="M147.377,126.827c-0.04,0-0.079,0-0.119,0c-3.154-0.035-6.129-1.45-8.159-3.883
		c-3.348-4.013-3.28-10.006,0.156-13.94c2.084-2.386,5.093-3.738,8.241-3.699c3.154,0.035,6.127,1.45,8.157,3.882l0,0
		c3.35,4.011,3.283,10.004-0.154,13.939C153.442,125.482,150.487,126.827,147.377,126.827z M147.376,108.304
		c-2.243,0-4.375,0.972-5.861,2.673c-2.477,2.836-2.524,7.154-0.113,10.046c1.468,1.757,3.614,2.779,5.89,2.805
		c0.028,0,0.057,0,0.086,0c2.243,0.001,4.376-0.971,5.862-2.674c2.477-2.836,2.524-7.154,0.111-10.045l0,0
		c-1.467-1.757-3.612-2.778-5.888-2.804C147.435,108.304,147.405,108.304,147.376,108.304z M147.361,121.313
		c-1.159,0-2.318-0.374-3.257-1.118c-1.29-1.024-2.021-2.551-2.002-4.188c0.018-1.637,0.78-3.146,2.094-4.143
		c1.874-1.425,4.575-1.394,6.418,0.071l0,0l0,0c0.001,0,0.001,0,0.001,0c1.289,1.024,2.019,2.551,2.001,4.187
		c-0.018,1.637-0.782,3.146-2.095,4.143C149.602,120.965,148.481,121.313,147.361,121.313z M147.358,113.809
		c-0.477,0-0.956,0.148-1.349,0.447c-0.569,0.432-0.9,1.082-0.908,1.785c-0.007,0.703,0.309,1.36,0.868,1.805
		c0.788,0.625,1.941,0.635,2.738,0.03c0.569-0.433,0.9-1.083,0.908-1.786c0.008-0.702-0.309-1.36-0.867-1.804c0,0,0,0-0.001,0
		C148.349,113.968,147.854,113.809,147.358,113.809z"/>
	<path fill-rule="evenodd" clip-rule="evenodd" fill="#3B322A" d="M162.605,92.302c0,0.909-0.737,1.646-1.646,1.646
		c-0.909,0-1.646-0.737-1.646-1.646c0-0.909,0.737-1.646,1.646-1.646C161.868,90.656,162.605,91.393,162.605,92.302z"/>
	<path fill-rule="evenodd" clip-rule="evenodd" fill="#EB6E7A" d="M181.667,110.148c-3.668-4.394-10.352-4.469-14.118-0.157
		c-2.962,3.392-3.02,8.535-0.134,11.993c3.668,4.395,10.354,4.47,14.119,0.157C184.496,118.748,184.553,113.605,181.667,110.148z
		 M176.846,113.111c1.94,1.54,1.907,4.463-0.066,5.96c-1.344,1.02-3.257,0.999-4.578-0.05c-1.94-1.54-1.908-4.463,0.066-5.96
		C173.613,112.04,175.525,112.062,176.846,113.111z"/>
	<path fill="#3A312A" d="M174.542,126.827c-0.04,0-0.079,0-0.119,0c-3.154-0.035-6.129-1.45-8.159-3.883
		c-3.349-4.013-3.281-10.007,0.156-13.941c2.085-2.385,5.12-3.737,8.241-3.698c3.154,0.035,6.127,1.45,8.157,3.882l0,0
		c3.349,4.012,3.282,10.004-0.154,13.939C180.607,125.482,177.652,126.827,174.542,126.827z M174.541,108.304
		c-2.243,0-4.375,0.972-5.861,2.673c-2.477,2.836-2.525,7.154-0.113,10.046c1.468,1.757,3.614,2.779,5.89,2.805
		c2.227,0.027,4.442-0.948,5.948-2.674c2.477-2.836,2.524-7.154,0.111-10.045c-1.467-1.757-3.612-2.778-5.888-2.804
		C174.6,108.304,174.57,108.304,174.541,108.304z M174.523,121.33c-1.15,0-2.301-0.379-3.254-1.135
		c-1.29-1.024-2.021-2.551-2.002-4.188c0.018-1.637,0.78-3.146,2.094-4.143c1.905-1.445,4.545-1.416,6.418,0.071l0,0
		c1.29,1.024,2.02,2.551,2.002,4.187c-0.019,1.637-0.782,3.146-2.095,4.143C176.751,120.976,175.637,121.33,174.523,121.33z
		 M174.523,113.809c-0.479,0-0.956,0.148-1.349,0.447c-0.569,0.432-0.9,1.082-0.908,1.785c-0.007,0.703,0.309,1.36,0.868,1.805
		c0.787,0.624,1.939,0.638,2.738,0.029c0.569-0.432,0.9-1.082,0.908-1.785c0.008-0.702-0.309-1.36-0.867-1.804
		C175.514,113.968,175.019,113.809,174.523,113.809z"/>
	<path fill="#3A312A" d="M191.709,147h-61.5c-0.828,0-1.5-0.672-1.5-1.5s0.672-1.5,1.5-1.5h61.5c0.828,0,1.5,0.672,1.5,1.5
		S192.537,147,191.709,147z"/>
	<path fill="#3A312A" d="M191.709,162h-61.5c-0.828,0-1.5-0.672-1.5-1.5s0.672-1.5,1.5-1.5h61.5c0.828,0,1.5,0.672,1.5,1.5
		S192.537,162,191.709,162z"/>
</g>
</svg>
