<?xml version="1.0" encoding="utf-8"?>
<!-- Generator: Adobe Illustrator 24.0.0, SVG Export Plug-In . SVG Version: 6.00 Build 0)  -->
<svg version="1.1" id="Layer_1" xmlns="http://www.w3.org/2000/svg" xmlns:xlink="http://www.w3.org/1999/xlink" x="0px" y="0px"
	 viewBox="0 0 256 256" enable-background="new 0 0 256 256" xml:space="preserve">
<g>
	<path fill="#D7E057" d="M47.317,26.157c0,0,3.408,12.659,13.222,13.246c0,0-13.1,4.525-13.321,14.202
		c0,0-2.579-13.572-12.925-14.059C34.292,39.546,46.343,37.721,47.317,26.157z"/>
	<path fill="#3A312A" d="M47.216,55.104c-0.712,0-1.335-0.506-1.472-1.217c-0.024-0.124-2.495-12.417-11.522-12.842
		c-0.771-0.037-1.388-0.651-1.428-1.421c-0.039-0.771,0.511-1.445,1.274-1.561c0.441-0.069,10.894-1.817,11.754-12.033
		c0.061-0.725,0.634-1.301,1.359-1.367c0.732-0.061,1.393,0.399,1.583,1.101c0.032,0.116,3.259,11.626,11.864,12.141
		c0.714,0.043,1.297,0.584,1.396,1.292c0.098,0.708-0.319,1.388-0.994,1.623c-0.121,0.042-12.118,4.311-12.313,12.819
		c-0.018,0.767-0.61,1.396-1.375,1.459C47.301,55.103,47.258,55.104,47.216,55.104z M39.476,39.375
		c3.878,1.969,6.23,5.746,7.587,8.877c2.027-4.021,5.942-6.787,8.949-8.427c-4.134-1.842-6.783-5.651-8.334-8.722
		C45.884,35.462,42.406,37.97,39.476,39.375z"/>
	<path fill="#D7E057" d="M25.618,43.137c0,0,2.411,8.954,9.352,9.369c0,0-9.266,3.201-9.422,10.045c0,0-1.824-9.6-9.142-9.944
		C16.406,52.608,24.93,51.316,25.618,43.137z"/>
	<path fill="#3A312A" d="M25.547,64.052c-0.714,0-1.337-0.507-1.473-1.22c-0.016-0.082-1.704-8.442-7.739-8.726
		c-0.77-0.037-1.388-0.651-1.428-1.421c-0.039-0.771,0.511-1.445,1.274-1.561c0.296-0.047,7.364-1.243,7.942-8.114
		c0.061-0.726,0.635-1.303,1.36-1.368c0.728-0.067,1.391,0.4,1.582,1.101l0,0c0.021,0.079,2.228,7.92,7.994,8.265
		c0.714,0.043,1.299,0.584,1.396,1.293c0.098,0.709-0.32,1.388-0.996,1.622c-0.081,0.028-8.282,2.952-8.412,8.661
		c-0.018,0.767-0.611,1.397-1.376,1.461C25.63,64.05,25.588,64.052,25.547,64.052z M21.028,52.524
		c2.107,1.333,3.523,3.394,4.447,5.28c1.377-2.232,3.516-3.872,5.365-4.973c-2.287-1.269-3.884-3.35-4.941-5.223
		C24.725,49.895,22.884,51.483,21.028,52.524z"/>
	<path fill="#D7E057" d="M25.618,16.48c0,0,2.411,8.954,9.352,9.37c0,0-9.266,3.201-9.422,10.045c0,0-1.824-9.6-9.142-9.944
		C16.406,25.95,24.93,24.659,25.618,16.48z"/>
	<path fill="#3A312A" d="M25.547,37.395c-0.713,0-1.337-0.507-1.472-1.22c-0.016-0.082-1.704-8.442-7.74-8.726
		c-0.77-0.037-1.387-0.651-1.427-1.421c-0.039-0.771,0.511-1.445,1.274-1.56c0.296-0.047,7.364-1.243,7.942-8.113
		c0.061-0.726,0.635-1.303,1.36-1.368c0.728-0.068,1.391,0.399,1.582,1.102l0,0c0.021,0.079,2.228,7.92,7.994,8.265
		c0.714,0.043,1.299,0.584,1.396,1.293c0.098,0.709-0.32,1.388-0.996,1.622c-0.081,0.028-8.282,2.952-8.412,8.662
		c-0.018,0.767-0.611,1.397-1.376,1.461C25.63,37.394,25.588,37.395,25.547,37.395z M21.028,25.867
		c2.107,1.332,3.523,3.394,4.447,5.28c1.377-2.232,3.516-3.872,5.365-4.972c-2.287-1.27-3.884-3.35-4.941-5.224
		C24.725,23.237,22.884,24.826,21.028,25.867z"/>
	<polygon fill="#87796F" points="103.884,67.072 152.305,67.072 152.305,48.507 152.305,48.506 103.884,48.506 	"/>
	<path fill="#3A312A" d="M152.305,68.572h-48.421c-0.829,0-1.5-0.671-1.5-1.5V48.506c0-0.829,0.671-1.5,1.5-1.5h48.421
		c0.829,0,1.5,0.671,1.5,1.5v18.566C153.805,67.901,153.133,68.572,152.305,68.572z M105.384,65.572h45.421V50.006h-45.421V65.572z"
		/>
	<path fill="#EF6D7A" d="M172.993,86.886V75.941c0-4.898-3.971-8.869-8.869-8.869h-72.06c-4.898,0-8.869,3.971-8.869,8.869v10.945
		H172.993z"/>
	<path fill="#3A312A" d="M172.993,88.386H83.195c-0.829,0-1.5-0.671-1.5-1.5V75.941c0-5.718,4.651-10.369,10.369-10.369h72.06
		c5.717,0,10.369,4.651,10.369,10.369v10.945C174.493,87.715,173.821,88.386,172.993,88.386z M84.695,85.386h86.797v-9.445
		c0-4.063-3.306-7.369-7.369-7.369h-72.06c-4.063,0-7.369,3.306-7.369,7.369V85.386z"/>
	<polygon fill="#D7E057" points="35.239,183.706 23.195,208.02 232.992,208.02 232.993,208.019 172.993,86.886 83.196,86.886 
		41.88,170.298 	"/>
	<path fill="#3A312A" d="M23.195,209.52c-0.519,0-1.001-0.268-1.274-0.709c-0.274-0.441-0.3-0.992-0.07-1.457l12.043-24.314
		c0.368-0.742,1.268-1.045,2.01-0.678c0.742,0.368,1.046,1.268,0.678,2.01L25.612,206.52h204.963L172.061,88.386H84.127
		l-40.902,82.578c-0.367,0.742-1.265,1.047-2.01,0.678c-0.742-0.368-1.046-1.268-0.678-2.01L81.851,86.22
		c0.253-0.511,0.774-0.834,1.344-0.834h89.797c0.57,0,1.091,0.323,1.344,0.834l60,121.133c0.23,0.465,0.204,1.016-0.07,1.457
		c-0.273,0.441-0.755,0.709-1.274,0.709L23.195,209.52z"/>
	<polygon fill="#D7E057" points="232.994,208.02 173.934,239.52 82.254,239.52 23.194,208.02 	"/>
	<path fill="#3A312A" d="M173.934,241.02h-91.68c-0.246,0-0.489-0.061-0.706-0.176l-59.06-31.5c-0.607-0.324-0.916-1.02-0.749-1.688
		c0.167-0.668,0.767-1.136,1.455-1.136h209.8c0.689,0,1.288,0.468,1.455,1.136c0.167,0.667-0.142,1.363-0.749,1.688l-59.06,31.5
		C174.423,240.96,174.18,241.02,173.934,241.02z M82.629,238.02h90.93l53.435-28.5h-197.8L82.629,238.02z"/>
	<polygon fill="#FCE8CB" points="150.233,86.886 179.818,208.019 179.818,208.02 76.37,208.02 105.955,86.886 	"/>
	<path fill="#3A312A" d="M76.37,209.52c-0.46,0-0.896-0.211-1.18-0.574c-0.285-0.362-0.387-0.835-0.277-1.282L104.498,86.53
		c0.164-0.671,0.766-1.144,1.457-1.144h44.278c0.691,0,1.293,0.473,1.457,1.144l29.586,121.133c0.109,0.447,0.007,0.92-0.277,1.282
		c-0.284,0.362-0.719,0.574-1.18,0.574L76.37,209.52z M78.28,206.52h99.627L149.055,88.386h-41.922L78.28,206.52z"/>
	<polygon fill="#FCE8CB" points="179.819,208.02 150.697,239.52 105.491,239.52 76.369,208.02 	"/>
	<path fill="#3A312A" d="M150.697,241.02h-45.207c-0.418,0-0.817-0.175-1.102-0.482l-29.122-31.5
		c-0.404-0.438-0.512-1.073-0.273-1.619c0.239-0.546,0.778-0.899,1.375-0.899h103.45c0.596,0,1.135,0.353,1.374,0.899
		c0.239,0.546,0.131,1.182-0.273,1.619l-29.122,31.5C151.515,240.845,151.116,241.02,150.697,241.02z M106.147,238.02h43.894
		l26.349-28.5H79.799L106.147,238.02z"/>
	<path fill="#87796F" d="M218.094,91.52c-2.761,0-5-2.239-5-5V49.021c0-6.342-5.159-11.501-11.501-11.501h-61.999
		c-2.761,0-5-2.239-5-5s2.239-5,5-5h61.999c11.855,0,21.501,9.645,21.501,21.501V86.52C223.094,89.281,220.855,91.52,218.094,91.52z
		"/>
	<path fill="#3A312A" d="M218.094,93.02c-3.584,0-6.5-2.916-6.5-6.5V49.021c0-5.515-4.486-10.001-10.001-10.001h-61.999
		c-3.584,0-6.5-2.916-6.5-6.5s2.916-6.5,6.5-6.5h61.999c12.683,0,23.001,10.318,23.001,23.001V86.52
		C224.594,90.104,221.678,93.02,218.094,93.02z M139.594,29.02c-1.93,0-3.5,1.57-3.5,3.5s1.57,3.5,3.5,3.5h61.999
		c7.169,0,13.001,5.832,13.001,13.001V86.52c0,1.93,1.57,3.5,3.5,3.5c1.93,0,3.5-1.57,3.5-3.5V49.021
		c0-11.029-8.972-20.001-20.001-20.001H139.594z"/>
	<path fill="#EF6D7A" d="M239.594,100.992c0,14.375-9.631,26.028-21.511,26.028c-11.88,0-21.511-11.653-21.511-26.028
		c0-14.375,9.631-39.972,21.511-39.972C229.963,61.02,239.594,86.617,239.594,100.992z"/>
	<path fill="#3A312A" d="M218.083,128.52c-12.688,0-23.011-12.349-23.011-27.528c0-14.197,9.717-41.472,23.011-41.472
		c13.294,0,23.011,27.275,23.011,41.472C241.094,116.171,230.771,128.52,218.083,128.52z M218.083,62.52
		c-10.319,0-20.011,24-20.011,38.472c0,13.525,8.977,24.528,20.011,24.528c11.034,0,20.011-11.003,20.011-24.528
		C238.094,86.521,228.402,62.52,218.083,62.52z"/>
	<path fill="#EF6D7A" d="M106.663,16.54h-7.902c-6.443,0-11.667,5.223-11.667,11.667v8.636c0,6.443,5.223,11.667,11.667,11.667
		h58.666c6.443,0,11.667-5.223,11.667-11.667v-8.636c0-6.443-5.223-11.667-11.667-11.667h-36.402H106.663z"/>
	<path fill="#3A312A" d="M157.427,50.01H98.761c-7.26,0-13.166-5.907-13.166-13.167v-8.636c0-7.26,5.906-13.167,13.166-13.167h7.902
		c0.829,0,1.5,0.671,1.5,1.5c0,0.829-0.671,1.5-1.5,1.5h-7.902c-5.606,0-10.166,4.561-10.166,10.167v8.636
		c0,5.606,4.561,10.167,10.166,10.167h58.667c5.606,0,10.167-4.561,10.167-10.167v-8.636c0-5.606-4.561-10.167-10.167-10.167
		h-36.402c-0.829,0-1.5-0.671-1.5-1.5c0-0.829,0.671-1.5,1.5-1.5h36.402c7.26,0,13.167,5.907,13.167,13.167v8.636
		C170.594,44.104,164.688,50.01,157.427,50.01z"/>
	<circle fill="#FCE8CB" cx="128.594" cy="32.52" r="7"/>
	<path fill="#3A312A" d="M128.594,41.02c-4.687,0-8.5-3.813-8.5-8.5s3.813-8.5,8.5-8.5c4.687,0,8.5,3.813,8.5,8.5
		S133.281,41.02,128.594,41.02z M128.594,27.02c-3.033,0-5.5,2.467-5.5,5.5s2.467,5.5,5.5,5.5c3.033,0,5.5-2.467,5.5-5.5
		S131.627,27.02,128.594,27.02z"/>
	<polygon fill="#B9C239" points="230.574,206.52 215.574,206.52 157.064,88.39 172.064,88.39 	"/>
	<polygon fill="#B9C239" points="226.994,209.52 173.554,238.02 158.554,238.02 211.994,209.52 	"/>
</g>
</svg>
