<?xml version="1.0" encoding="utf-8"?>
<!-- Generator: Adobe Illustrator 24.0.0, SVG Export Plug-In . SVG Version: 6.00 Build 0)  -->
<svg version="1.1" id="Layer_1" xmlns="http://www.w3.org/2000/svg" xmlns:xlink="http://www.w3.org/1999/xlink" x="0px" y="0px"
	 viewBox="0 0 256 256" enable-background="new 0 0 256 256" xml:space="preserve">
<g>
	<path fill="#D7E057" d="M56.839,26.137c0,0,3.408,12.659,13.222,13.246c0,0-13.1,4.525-13.321,14.202
		c0,0-2.578-13.572-12.925-14.059C43.814,39.526,55.865,37.7,56.839,26.137z"/>
	<path fill="#3A312A" d="M56.738,55.084c-0.713,0-1.335-0.506-1.473-1.217c-0.023-0.124-2.494-12.417-11.521-12.842
		c-0.771-0.037-1.388-0.651-1.428-1.421c-0.04-0.771,0.511-1.445,1.273-1.561c0.441-0.069,10.895-1.818,11.754-12.033
		c0.062-0.725,0.635-1.301,1.359-1.367c0.733-0.057,1.394,0.399,1.584,1.101c0.031,0.116,3.259,11.626,11.863,12.141
		c0.714,0.043,1.298,0.584,1.396,1.292s-0.318,1.388-0.994,1.623c-0.121,0.042-12.118,4.31-12.313,12.819
		c-0.018,0.767-0.611,1.396-1.375,1.46C56.822,55.083,56.78,55.084,56.738,55.084z M48.997,39.355
		c3.878,1.969,6.23,5.746,7.587,8.876c2.026-4.021,5.942-6.787,8.949-8.427c-4.134-1.842-6.783-5.651-8.334-8.723
		C55.406,35.442,51.928,37.95,48.997,39.355z"/>
	<path fill="#D7E057" d="M35.14,43.117c0,0,2.411,8.954,9.352,9.369c0,0-9.266,3.201-9.422,10.045c0,0-1.824-9.6-9.142-9.944
		C25.928,52.588,34.451,51.296,35.14,43.117z"/>
	<path fill="#3A312A" d="M35.068,64.032c-0.714,0-1.337-0.507-1.473-1.22c-0.016-0.082-1.703-8.441-7.738-8.725
		c-0.771-0.037-1.388-0.651-1.428-1.421c-0.04-0.771,0.511-1.445,1.273-1.561c0.296-0.047,7.363-1.243,7.941-8.114
		c0.062-0.726,0.636-1.303,1.361-1.368c0.723-0.059,1.392,0.399,1.581,1.102l0,0c0.023,0.079,2.229,7.92,7.995,8.265
		c0.714,0.043,1.299,0.584,1.396,1.293c0.097,0.709-0.32,1.388-0.997,1.622c-0.08,0.028-8.282,2.952-8.412,8.661
		c-0.018,0.767-0.611,1.398-1.377,1.461C35.151,64.03,35.109,64.032,35.068,64.032z M30.55,52.504
		c2.107,1.333,3.523,3.394,4.447,5.279c1.376-2.231,3.515-3.872,5.364-4.972c-2.286-1.269-3.884-3.35-4.941-5.223
		C34.247,49.875,32.405,51.463,30.55,52.504z"/>
	<path fill="#D7E057" d="M35.14,16.46c0,0,2.411,8.954,9.352,9.37c0,0-9.266,3.201-9.422,10.045c0,0-1.824-9.6-9.142-9.944
		C25.928,25.93,34.451,24.639,35.14,16.46z"/>
	<path fill="#3A312A" d="M35.068,37.375c-0.714,0-1.337-0.507-1.473-1.22c-0.016-0.082-1.703-8.442-7.738-8.726
		c-0.771-0.037-1.388-0.651-1.428-1.421c-0.04-0.77,0.511-1.445,1.273-1.56c0.296-0.047,7.363-1.243,7.941-8.114
		c0.062-0.726,0.636-1.303,1.361-1.368c0.723-0.058,1.392,0.399,1.581,1.102l0,0c0.023,0.079,2.229,7.92,7.995,8.265
		c0.714,0.043,1.299,0.585,1.396,1.294c0.097,0.709-0.32,1.388-0.997,1.622c-0.08,0.028-8.282,2.952-8.412,8.662
		c-0.018,0.767-0.611,1.397-1.377,1.461C35.151,37.373,35.109,37.375,35.068,37.375z M30.55,25.847
		c2.107,1.332,3.523,3.394,4.447,5.28c1.376-2.232,3.515-3.872,5.364-4.972c-2.286-1.27-3.884-3.35-4.941-5.224
		C34.247,23.217,32.405,24.806,30.55,25.847z"/>
	
		<ellipse transform="matrix(0.7071 -0.7071 0.7071 0.7071 -15.2343 186.2096)" fill="#87796F" cx="217.158" cy="111.494" rx="12.915" ry="12.915"/>
	<path fill="#3A312A" d="M217.157,125.909c-7.948,0-14.414-6.466-14.414-14.415c0-7.948,6.466-14.415,14.414-14.415
		c7.948,0,14.415,6.466,14.415,14.415C231.572,119.442,225.105,125.909,217.157,125.909z M217.157,100.08
		c-6.294,0-11.414,5.121-11.414,11.415c0,6.294,5.12,11.415,11.414,11.415c6.294,0,11.415-5.121,11.415-11.415
		C228.572,105.2,223.451,100.08,217.157,100.08z"/>
	<path fill="#3A312A" d="M211.354,119.437c-1.515,0-3.048-0.399-4.436-1.236c-2.854-1.722-4.465-4.981-4.106-8.305
		c0.089-0.824,0.831-1.417,1.652-1.33c0.823,0.089,1.419,0.829,1.33,1.652c-0.234,2.168,0.814,4.293,2.672,5.414
		c2.655,1.6,6.112,0.742,7.714-1.909c1.193-1.98,1.063-4.451-0.331-6.295c-0.5-0.661-0.369-1.601,0.291-2.101
		c0.66-0.499,1.602-0.37,2.102,0.291c2.14,2.828,2.339,6.617,0.507,9.654C217.131,117.952,214.276,119.436,211.354,119.437z"/>
	
		<ellipse transform="matrix(0.7071 -0.7071 0.7071 0.7071 -41.0511 195.1669)" fill="#87796F" cx="215.062" cy="147.137" rx="12.915" ry="12.915"/>
	<path fill="#3A312A" d="M215.061,161.551c-7.948,0-14.414-6.466-14.414-14.415c0-7.948,6.466-14.415,14.414-14.415
		c7.948,0,14.415,6.467,14.415,14.415C229.477,155.085,223.01,161.551,215.061,161.551z M215.061,135.722
		c-6.294,0-11.414,5.121-11.414,11.415c0,6.294,5.12,11.415,11.414,11.415c6.294,0,11.415-5.121,11.415-11.415
		C226.477,140.842,221.355,135.722,215.061,135.722z"/>
	<path fill="#3A312A" d="M209.257,155.084c-1.55,0-3.075-0.421-4.436-1.242c-2.855-1.721-4.466-4.981-4.105-8.305
		c0.089-0.823,0.808-1.416,1.653-1.33c0.823,0.089,1.418,0.829,1.329,1.653c-0.235,2.167,0.814,4.292,2.672,5.413
		c1.284,0.774,2.792,1.004,4.252,0.643c1.457-0.36,2.686-1.267,3.461-2.552c1.194-1.98,1.065-4.451-0.331-6.295
		c-0.5-0.661-0.369-1.601,0.291-2.101c0.659-0.5,1.602-0.37,2.102,0.291c2.14,2.829,2.339,6.618,0.507,9.655
		c-1.188,1.971-3.074,3.361-5.309,3.914C210.651,154.999,209.951,155.084,209.257,155.084z"/>
	
		<ellipse transform="matrix(0.7071 -0.7071 0.7071 0.7071 -65.8415 207.1718)" fill="#87796F" cx="217.158" cy="183.064" rx="12.915" ry="12.915"/>
	<path fill="#3A312A" d="M217.157,197.478c-7.948,0-14.414-6.466-14.414-14.414c0-7.948,6.466-14.415,14.414-14.415
		c7.948,0,14.415,6.466,14.415,14.415C231.572,191.012,225.105,197.478,217.157,197.478z M217.157,171.649
		c-6.294,0-11.414,5.121-11.414,11.415c0,6.294,5.12,11.414,11.414,11.414c6.294,0,11.415-5.121,11.415-11.414
		C228.572,176.77,223.451,171.649,217.157,171.649z"/>
	<path fill="#3A312A" d="M211.354,191.006c-1.515,0-3.048-0.399-4.436-1.236c-2.854-1.722-4.465-4.981-4.106-8.305
		c0.089-0.824,0.831-1.421,1.652-1.33c0.823,0.089,1.419,0.829,1.33,1.652c-0.234,2.168,0.814,4.293,2.672,5.414
		c2.655,1.599,6.112,0.742,7.714-1.909c1.193-1.98,1.064-4.451-0.331-6.294c-0.5-0.661-0.369-1.602,0.291-2.102
		c0.66-0.499,1.602-0.37,2.102,0.291c2.14,2.827,2.339,6.617,0.507,9.654C217.131,189.521,214.276,191.005,211.354,191.006z"/>
	
		<ellipse transform="matrix(0.7071 -0.7071 0.7071 0.7071 -61.7529 73.9039)" fill="#87796F" cx="58.333" cy="111.494" rx="12.915" ry="12.915"/>
	<path fill="#3A312A" d="M58.334,125.909c-7.948,0-14.415-6.466-14.415-14.415c0-7.948,6.467-14.415,14.415-14.415
		c7.948,0,14.414,6.466,14.414,14.415C72.748,119.442,66.282,125.909,58.334,125.909z M58.334,100.08
		c-6.294,0-11.415,5.121-11.415,11.415c0,6.294,5.121,11.415,11.415,11.415c6.294,0,11.414-5.121,11.414-11.415
		C69.748,105.2,64.628,100.08,58.334,100.08z"/>
	<path fill="#3A312A" d="M64.138,119.436c-2.923,0-5.777-1.484-7.395-4.164c-1.832-3.038-1.633-6.827,0.507-9.655
		c0.5-0.661,1.438-0.79,2.102-0.291c0.66,0.5,0.791,1.441,0.291,2.101c-1.395,1.843-1.524,4.315-0.331,6.295
		c1.601,2.652,5.061,3.51,7.714,1.908c1.857-1.121,2.906-3.246,2.672-5.414c-0.089-0.824,0.507-1.563,1.33-1.652
		c0.817-0.087,1.563,0.506,1.652,1.33c0.359,3.324-1.252,6.584-4.105,8.305C67.186,119.037,65.652,119.436,64.138,119.436z"/>
	
		<ellipse transform="matrix(0.7071 -0.7071 0.7071 0.7071 -86.3419 85.8254)" fill="#87796F" cx="60.429" cy="147.137" rx="12.915" ry="12.915"/>
	<path fill="#3A312A" d="M60.43,161.551c-7.948,0-14.415-6.466-14.415-14.415c0-7.948,6.467-14.415,14.415-14.415
		c7.948,0,14.414,6.467,14.414,14.415C74.844,155.085,68.378,161.551,60.43,161.551z M60.43,135.722
		c-6.294,0-11.415,5.121-11.415,11.415c0,6.294,5.121,11.415,11.415,11.415c6.294,0,11.414-5.121,11.414-11.415
		C71.844,140.842,66.724,135.722,60.43,135.722z"/>
	<path fill="#3A312A" d="M66.234,155.084c-0.694,0-1.395-0.085-2.086-0.256c-2.234-0.553-4.12-1.943-5.309-3.914
		c-1.832-3.037-1.633-6.826,0.507-9.655c0.5-0.661,1.438-0.79,2.102-0.291c0.66,0.5,0.791,1.441,0.291,2.101
		c-1.396,1.844-1.525,4.314-0.331,6.295c0.775,1.285,2.004,2.191,3.461,2.552c1.459,0.361,2.967,0.131,4.252-0.643
		c1.858-1.121,2.907-3.246,2.672-5.413c-0.089-0.824,0.506-1.563,1.329-1.653c0.843-0.087,1.564,0.506,1.653,1.33
		c0.36,3.324-1.251,6.584-4.105,8.305C69.31,154.663,67.784,155.084,66.234,155.084z"/>
	
		<ellipse transform="matrix(0.7071 -0.7071 0.7071 0.7071 -112.36 94.8661)" fill="#87796F" cx="58.333" cy="183.064" rx="12.915" ry="12.915"/>
	<path fill="#3A312A" d="M58.334,197.478c-7.948,0-14.415-6.466-14.415-14.414c0-7.948,6.467-14.415,14.415-14.415
		c7.948,0,14.414,6.466,14.414,14.415C72.748,191.012,66.282,197.478,58.334,197.478z M58.334,171.649
		c-6.294,0-11.415,5.121-11.415,11.415c0,6.294,5.121,11.414,11.415,11.414c6.294,0,11.414-5.121,11.414-11.414
		C69.748,176.77,64.628,171.649,58.334,171.649z"/>
	<path fill="#3A312A" d="M64.138,191.005c-2.923,0-5.777-1.484-7.395-4.164c-1.832-3.038-1.633-6.828,0.507-9.655
		c0.501-0.66,1.443-0.789,2.102-0.291c0.66,0.5,0.791,1.441,0.291,2.102c-1.396,1.843-1.524,4.314-0.331,6.295
		c1.601,2.652,5.061,3.511,7.714,1.908c1.857-1.121,2.906-3.246,2.672-5.414c-0.089-0.824,0.507-1.564,1.33-1.652
		c0.817-0.091,1.563,0.506,1.652,1.33c0.359,3.324-1.252,6.583-4.105,8.305C67.186,190.606,65.652,191.005,64.138,191.005z"/>
	<path fill="#87796F" d="M202.059,99.864c1.421-5.409,2.184-11.084,2.184-16.938c0-36.727-29.773-66.5-66.5-66.5
		s-66.5,29.773-66.5,66.5c0,5.854,0.763,11.53,2.184,16.938c-1.421,3.267-2.184,6.695-2.184,10.232c0,4.314,1.138,8.465,3.222,12.36
		c-2.084,3.895-3.222,8.046-3.222,12.36c0,4.314,1.138,8.465,3.222,12.36c-2.084,3.895-3.222,8.046-3.222,12.36
		c0,4.314,1.138,8.465,3.222,12.36c-2.084,3.895-3.222,8.046-3.222,12.36c0,22.185,29.773,40.17,66.5,40.17s66.5-17.985,66.5-40.17
		c0-4.314-1.138-8.465-3.222-12.36c2.084-3.895,3.222-8.046,3.222-12.36c0-4.314-1.138-8.465-3.222-12.36
		c2.084-3.895,3.222-8.046,3.222-12.36c0-4.314-1.138-8.465-3.222-12.36c2.084-3.895,3.222-8.046,3.222-12.36
		C204.243,106.559,203.48,103.131,202.059,99.864z"/>
	<path fill="#3A312A" d="M137.743,225.925c-37.495,0-68-18.693-68-41.67c0-4.206,1.02-8.36,3.032-12.36
		c-2.013-4-3.032-8.154-3.032-12.36c0-4.206,1.02-8.36,3.032-12.36c-2.013-4-3.032-8.155-3.032-12.36c0-4.206,1.02-8.36,3.032-12.36
		c-2.013-4-3.032-8.154-3.032-12.36c0-3.497,0.708-6.976,2.104-10.349c-1.396-5.487-2.104-11.143-2.104-16.821
		c0-37.495,30.505-68,68-68c37.495,0,68,30.505,68,68c0,5.678-0.708,11.334-2.104,16.821c1.396,3.373,2.104,6.853,2.104,10.349
		c0,4.206-1.02,8.36-3.032,12.36c2.013,4,3.032,8.155,3.032,12.36c0,4.205-1.02,8.359-3.032,12.36c2.013,4,3.032,8.154,3.032,12.36
		c0,4.206-1.02,8.36-3.032,12.36c2.013,4,3.032,8.155,3.032,12.36C205.743,207.232,175.238,225.925,137.743,225.925z
		 M137.743,17.925c-35.841,0-65,29.159-65,65c0,5.593,0.719,11.164,2.136,16.557c0.085,0.326,0.059,0.671-0.075,0.979
		c-1.367,3.144-2.061,6.385-2.061,9.634c0,3.955,1.024,7.876,3.044,11.652c0.237,0.442,0.237,0.973,0,1.415
		c-2.02,3.777-3.044,7.698-3.044,11.653c0,3.955,1.024,7.875,3.044,11.652c0.237,0.442,0.237,0.973,0,1.415
		c-2.02,3.777-3.044,7.697-3.044,11.652c0,3.955,1.024,7.875,3.044,11.652c0.237,0.442,0.237,0.973,0,1.415
		c-2.02,3.777-3.044,7.698-3.044,11.653c0,21.323,29.159,38.67,65,38.67c35.841,0,65-17.347,65-38.67
		c0-3.955-1.024-7.876-3.044-11.653c-0.237-0.442-0.237-0.973,0-1.415c2.02-3.777,3.044-7.697,3.044-11.652
		c0-3.955-1.024-7.876-3.044-11.652c-0.237-0.442-0.237-0.973,0-1.415c2.02-3.777,3.044-7.698,3.044-11.652
		c0-3.955-1.024-7.875-3.044-11.653c-0.237-0.442-0.237-0.973,0-1.415c2.02-3.777,3.044-7.697,3.044-11.652
		c0-3.249-0.693-6.49-2.061-9.634c-0.134-0.309-0.16-0.654-0.075-0.979c1.417-5.393,2.136-10.964,2.136-16.557
		C202.743,47.084,173.584,17.925,137.743,17.925z"/>
	<path fill="#F7E3C7" d="M173.707,183.224h-19.54v-18.799H121.33v18.799h-19.552c-16.335,0-29.576,13.234-29.576,29.56v26.788
		h131.08v-26.788C203.283,196.458,190.042,183.224,173.707,183.224z"/>
	<path fill="#3A312A" d="M203.283,241.072H72.203c-0.828,0-1.5-0.671-1.5-1.5v-26.788c0-17.126,13.94-31.06,31.075-31.06h18.052
		v-17.299c0-0.829,0.672-1.5,1.5-1.5h32.837c0.828,0,1.5,0.671,1.5,1.5v17.299h18.04c17.136,0,31.076,13.934,31.076,31.06v26.788
		C204.783,240.401,204.111,241.072,203.283,241.072z M73.703,238.072h128.08v-25.288c0-15.472-12.595-28.06-28.076-28.06h-19.54
		c-0.828,0-1.5-0.671-1.5-1.5v-17.299H122.83v17.299c0,0.829-0.672,1.5-1.5,1.5h-19.552c-15.48,0-28.075,12.588-28.075,28.06
		V238.072z"/>
	<path fill="#EA6D7A" d="M156.573,211H72.261c-0.035,0.588-0.058,1.179-0.058,1.776v26.799h131.08v-26.799
		c0-0.597-0.023-1.188-0.058-1.776h-33.068H156.573z"/>
	<path fill="#3A312A" d="M203.283,241.075H72.203c-0.828,0-1.5-0.671-1.5-1.5v-26.799c0-0.626,0.024-1.246,0.061-1.863
		c0.046-0.794,0.702-1.413,1.497-1.413h84.312c0.828,0,1.5,0.671,1.5,1.5s-0.672,1.5-1.5,1.5H73.705
		c-0.001,0.092-0.002,0.184-0.002,0.276v25.299h128.08v-25.299c0-0.092-0.001-0.185-0.002-0.276h-31.624c-0.828,0-1.5-0.671-1.5-1.5
		s0.672-1.5,1.5-1.5h33.068c0.794,0,1.45,0.618,1.497,1.411c0.037,0.618,0.061,1.239,0.061,1.866v26.799
		C204.783,240.403,204.111,241.075,203.283,241.075z"/>
	<path fill-rule="evenodd" clip-rule="evenodd" fill="#F7E3C7" d="M98.593,109.945c0,6.424-5.21,11.631-11.638,11.631
		c-6.427,0-11.637-5.207-11.637-11.631c0-6.424,5.21-11.632,11.637-11.632C93.383,98.314,98.593,103.521,98.593,109.945z"/>
	<path fill="#3A312A" d="M86.956,123.077c-7.244,0-13.138-5.891-13.138-13.131s5.894-13.132,13.138-13.132
		c7.244,0,13.138,5.891,13.138,13.132S94.2,123.077,86.956,123.077z M86.956,99.813c-5.59,0-10.138,4.545-10.138,10.132
		c0,5.586,4.548,10.131,10.138,10.131c5.59,0,10.138-4.545,10.138-10.131C97.094,104.358,92.546,99.813,86.956,99.813z"/>
	
		<ellipse transform="matrix(0.0021 -1 1 0.0021 78.1974 298.2487)" fill-rule="evenodd" clip-rule="evenodd" fill="#F7E3C7" cx="188.53" cy="109.945" rx="11.631" ry="11.637"/>
	<path fill="#3A312A" d="M188.53,123.077c-7.244,0-13.138-5.891-13.138-13.131s5.894-13.132,13.138-13.132
		c7.244,0,13.138,5.891,13.138,13.132S195.774,123.077,188.53,123.077z M188.53,99.813c-5.59,0-10.138,4.545-10.138,10.132
		c0,5.586,4.548,10.131,10.138,10.131c5.59,0,10.138-4.545,10.138-10.131C198.668,104.358,194.12,99.813,188.53,99.813z"/>
	<path fill="#F7E3C7" d="M189.335,104.299c0,28.478-27.44,72.189-51.59,72.189c-23.051,0-51.59-43.711-51.59-72.189
		c0-28.478,23.098-51.563,51.59-51.563C166.237,52.736,189.335,75.821,189.335,104.299z"/>
	<path fill="#3A312A" d="M137.744,177.987c-11.055,0-24.391-9.743-35.673-26.062c-10.743-15.539-17.417-33.789-17.417-47.626
		c0-29.259,23.816-53.063,53.09-53.063c29.275,0,53.091,23.804,53.091,53.063c0,13.995-6.514,32.241-17,47.618
		C162.538,168.485,149.383,177.987,137.744,177.987z M137.744,54.236c-27.62,0-50.09,22.458-50.09,50.063
		c0,13.26,6.47,30.856,16.885,45.92c10.723,15.509,23.136,24.768,33.205,24.768c10.475,0,23.04-9.256,33.612-24.76
		c10.164-14.906,16.479-32.504,16.479-45.928C187.835,76.694,165.364,54.236,137.744,54.236z"/>
	<path fill="#3A312A" d="M124.564,103.717c0,2.78-2.254,5.033-5.035,5.033c-2.781,0-5.035-2.253-5.035-5.033
		c0-2.779,2.254-5.033,5.035-5.033C122.31,98.684,124.564,100.937,124.564,103.717z"/>
	<path fill="#3A312A" d="M160.993,103.717c0,2.78-2.254,5.033-5.035,5.033c-2.781,0-5.035-2.253-5.035-5.033
		c0-2.779,2.254-5.033,5.035-5.033C158.738,98.684,160.993,100.937,160.993,103.717z"/>
	<path fill="#F59689" d="M118.139,118.679c0,3.579-3.884,6.481-8.674,6.481c-4.791,0-8.674-2.902-8.674-6.481
		c0-3.58,3.884-6.481,8.674-6.481C114.256,112.198,118.139,115.1,118.139,118.679z"/>
	<path fill="#F59689" d="M174.695,118.679c0,3.579-3.883,6.481-8.674,6.481c-4.79,0-8.674-2.902-8.674-6.481
		c0-3.58,3.884-6.481,8.674-6.481C170.812,112.198,174.695,115.1,174.695,118.679z"/>
	<path fill="#3A312A" d="M96.159,241.075c-0.828,0-1.5-0.671-1.5-1.5v-21.172c0-0.829,0.672-1.5,1.5-1.5c0.828,0,1.5,0.671,1.5,1.5
		v21.172C97.659,240.403,96.987,241.075,96.159,241.075z"/>
	<path fill="#3A312A" d="M179.327,241.075c-0.828,0-1.5-0.671-1.5-1.5v-21.172c0-0.829,0.672-1.5,1.5-1.5c0.828,0,1.5,0.671,1.5,1.5
		v21.172C180.827,240.403,180.155,241.075,179.327,241.075z"/>
	<path fill="#3A312A" d="M137.743,147.624c-7.284,0-12.536-3.271-15.609-9.724c-0.356-0.748-0.038-1.643,0.71-2
		c0.748-0.357,1.643-0.038,1.999,0.71c2.567,5.393,6.788,8.014,12.9,8.014c7.824,0,11.827-5.164,12.851-7.895
		c0.29-0.775,1.152-1.169,1.931-0.878c0.775,0.291,1.169,1.155,0.878,1.931C151.626,142.522,145.969,147.624,137.743,147.624z"/>
	<path fill="#87796F" d="M196.457,85.4c0,5.283-0.688,10.404-1.987,15.279c-13.214-6.367-25.783-14.184-37.428-23.021
		c-3.416-2.588-6.779-5.283-9.991-8.139c-3.942-3.457-7.67-7.183-11.033-11.22c-7.316-8.805-12.687-18.919-17.232-29.453
		c5.737-1.857,11.86-2.856,18.22-2.856c17.006,0,32.347,7.14,43.186,18.586C190.28,55.218,196.457,69.584,196.457,85.4z"/>
	<path fill="#3A312A" d="M194.47,102.18c-0.223,0-0.445-0.05-0.651-0.149c-12.982-6.255-25.659-14.053-37.684-23.177
		c-3.838-2.908-7.137-5.595-10.081-8.213c-4.201-3.685-7.969-7.516-11.188-11.381c-6.518-7.844-12.064-17.319-17.456-29.818
		c-0.168-0.388-0.164-0.828,0.011-1.213c0.174-0.385,0.502-0.678,0.904-0.809c6.003-1.943,12.288-2.929,18.682-2.929
		c16.915,0,32.639,6.767,44.275,19.055c10.754,11.342,16.676,26.207,16.676,41.854c0,5.323-0.686,10.594-2.038,15.666
		c-0.115,0.432-0.417,0.79-0.823,0.977C194.898,102.134,194.684,102.18,194.47,102.18z M120.833,29.786
		c5.064,11.473,10.277,20.26,16.338,27.555c3.119,3.744,6.776,7.462,10.869,11.051c2.893,2.572,6.131,5.21,9.908,8.071
		c11.353,8.615,23.291,16.029,35.515,22.057c0.992-4.271,1.494-8.675,1.494-13.12c0-14.876-5.63-29.008-15.854-39.791
		c-11.064-11.684-26.016-18.119-42.098-18.119C131.487,27.491,126.055,28.262,120.833,29.786z"/>
	<path fill="#87796F" d="M180.193,44.577c-10.227,9.32-21.357,17.566-33.142,24.943c-20.895,13.089-43.809,23.418-67.261,32.019
		c-1.45-5.132-2.224-10.544-2.224-16.138c0-26.457,17.307-48.876,41.22-56.554c5.737-1.857,11.86-2.856,18.22-2.856
		C154.012,25.991,169.353,33.131,180.193,44.577z"/>
	<path fill="#3A312A" d="M79.79,103.039c-0.234,0-0.469-0.055-0.682-0.164c-0.372-0.189-0.648-0.526-0.762-0.928
		c-1.514-5.354-2.281-10.92-2.281-16.546c0-26.565,16.983-49.866,42.262-57.982c6-1.942,12.285-2.928,18.679-2.928
		c16.915,0,32.639,6.767,44.275,19.055c0.277,0.293,0.425,0.684,0.41,1.086c-0.015,0.402-0.191,0.782-0.488,1.054
		c-9.828,8.956-21.051,17.402-33.356,25.105c-19.139,11.989-41.231,22.507-67.54,32.156C80.14,103.008,79.965,103.039,79.79,103.039
		z M137.006,27.491c-6.079,0-12.054,0.937-17.758,2.783C95.212,37.99,79.065,60.144,79.065,85.4c0,4.803,0.588,9.559,1.749,14.162
		c25.434-9.42,46.854-19.671,65.44-31.314c11.677-7.309,22.36-15.291,31.778-23.741C167.084,33.521,152.576,27.491,137.006,27.491z"
		/>
	
		<ellipse transform="matrix(0.7071 -0.7071 0.7071 0.7071 -1.9255 147.8511)" fill="#87796F" cx="177.509" cy="76.25" rx="12.915" ry="12.915"/>
	<path fill="#3A312A" d="M177.51,90.665c-7.948,0-14.415-6.466-14.415-14.415s6.467-14.415,14.415-14.415
		c7.948,0,14.414,6.467,14.414,14.415S185.458,90.665,177.51,90.665z M177.51,64.835c-6.294,0-11.415,5.121-11.415,11.415
		c0,6.294,5.121,11.415,11.415,11.415c6.294,0,11.414-5.121,11.414-11.415C188.924,69.956,183.804,64.835,177.51,64.835z"/>
	<path fill="#3A312A" d="M171.705,84.192c-1.515,0-3.048-0.399-4.436-1.236c-2.854-1.721-4.465-4.981-4.105-8.305
		c0.089-0.824,0.825-1.418,1.652-1.33c0.823,0.089,1.419,0.829,1.33,1.652c-0.234,2.168,0.815,4.293,2.672,5.413
		c2.652,1.601,6.112,0.742,7.714-1.909c1.193-1.98,1.063-4.451-0.331-6.294c-0.5-0.661-0.369-1.602,0.291-2.102
		c0.659-0.499,1.602-0.369,2.102,0.291c2.14,2.828,2.339,6.617,0.507,9.654C177.482,82.707,174.628,84.191,171.705,84.192z"/>
	
		<ellipse transform="matrix(0.8507 -0.5257 0.5257 0.8507 -24.0808 67.7314)" fill="#87796F" cx="107.172" cy="76.25" rx="12.915" ry="12.915"/>
	<path fill="#3A312A" d="M107.172,90.665c-7.948,0-14.414-6.467-14.414-14.415c0-7.948,6.466-14.414,14.414-14.414
		c7.948,0,14.415,6.467,14.415,14.415S115.12,90.665,107.172,90.665z M107.172,64.835c-6.294,0-11.414,5.121-11.414,11.414
		c0,6.294,5.12,11.415,11.414,11.415c6.294,0,11.415-5.121,11.415-11.415C118.587,69.956,113.466,64.835,107.172,64.835z"/>
	<path fill="#3A312A" d="M112.976,84.192c-2.924,0-5.777-1.484-7.394-4.165c-1.832-3.037-1.633-6.826,0.507-9.655
		c0.5-0.66,1.439-0.79,2.102-0.291c0.66,0.5,0.791,1.441,0.291,2.102c-1.396,1.844-1.525,4.314-0.331,6.294
		c0.775,1.285,2.004,2.191,3.461,2.552c1.46,0.36,2.968,0.131,4.252-0.643c1.857-1.121,2.907-3.246,2.673-5.413
		c-0.089-0.824,0.507-1.563,1.33-1.652c0.817-0.088,1.563,0.506,1.652,1.33c0.359,3.324-1.253,6.584-4.106,8.305
		C116.023,83.793,114.49,84.192,112.976,84.192z"/>
	<path fill="#DECAAD" d="M201.587,209.5h-15c-1.64-13.93-13.51-24.78-27.88-24.78h15C188.077,184.72,199.947,195.57,201.587,209.5z"
		/>
	<path fill="#D04E5D" d="M201.787,212.78v25.29h-15v-25.29c0-0.1,0-0.19-0.01-0.28h15C201.787,212.59,201.787,212.68,201.787,212.78
		z"/>
</g>
</svg>
