<?xml version="1.0" encoding="utf-8"?>
<!-- Generator: Adobe Illustrator 24.0.0, SVG Export Plug-In . SVG Version: 6.00 Build 0)  -->
<svg version="1.1" id="Layer_1" xmlns="http://www.w3.org/2000/svg" xmlns:xlink="http://www.w3.org/1999/xlink" x="0px" y="0px"
	 viewBox="0 0 256 256" enable-background="new 0 0 256 256" xml:space="preserve">
<g>
	<path fill="#EF6D7A" d="M16.521,33.638l119.5,0.184l-13.607,161.14c-0.565,6.69-6.165,11.83-12.88,11.819l-67.06-0.103
		c-6.714-0.01-12.299-5.167-12.843-11.859L16.521,33.638z"/>
	<path fill="#3A312A" d="M109.555,208.281c-0.008,0-0.015,0-0.023,0l-67.06-0.104c-7.436-0.011-13.733-5.825-14.336-13.236
		L15.026,33.76c-0.034-0.418,0.108-0.832,0.393-1.14c0.284-0.308,0.684-0.482,1.102-0.482c0.001,0,0.001,0,0.002,0l119.5,0.185
		c0.419,0.001,0.819,0.177,1.103,0.485c0.284,0.31,0.425,0.723,0.39,1.141l-13.607,161.14
		C123.284,202.49,116.981,208.281,109.555,208.281z M18.148,35.141l12.978,159.557c0.478,5.868,5.463,10.472,11.35,10.48
		l67.061,0.104c0.006,0,0.012,0,0.018,0c5.88,0,10.869-4.585,11.364-10.445l13.47-159.517L18.148,35.141z"/>
	<path fill="#87796F" d="M59.097,16.704L27.1,16.654c-5.828-0.009-10.559,4.708-10.568,10.536l-0.01,6.448l119.5,0.184l0.01-6.448
		c0.009-5.827-4.708-10.559-10.536-10.568l-51.33-0.079L59.097,16.704z"/>
	<path fill="#3A312A" d="M136.021,35.322c-0.001,0-0.001,0-0.002,0l-119.5-0.185c-0.828-0.001-1.499-0.674-1.498-1.502l0.01-6.448
		c0.011-6.639,5.416-12.033,12.052-12.033c0.006,0,0.012,0,0.019,0l31.997,0.049c0.828,0.001,1.499,0.674,1.498,1.502
		c-0.001,0.828-0.673,1.498-1.5,1.498c-0.001,0-0.002,0-0.003,0l-31.997-0.049c-0.004,0-0.009,0-0.014,0
		c-4.985,0-9.044,4.051-9.052,9.037l-0.007,4.948l116.5,0.181l0.007-4.948c0.003-2.418-0.935-4.692-2.642-6.405
		c-1.707-1.712-3.978-2.657-6.396-2.661l-51.33-0.079c-0.828-0.001-1.499-0.674-1.498-1.502c0.002-0.828,0.673-1.498,1.5-1.498
		c0.001,0,0.002,0,0.003,0l51.33,0.079c3.219,0.005,6.244,1.264,8.517,3.543c2.273,2.28,3.521,5.309,3.517,8.527l-0.01,6.448
		c0,0.398-0.159,0.779-0.441,1.061C136.799,35.165,136.418,35.322,136.021,35.322z"/>
	<path fill="#87796F" d="M54.94,239.697l42.027,0.065c6.068,0.009,10.994-4.902,11.003-10.97l0.034-22.013l-64-0.099l-0.034,22.014
		C43.961,234.762,48.873,239.688,54.94,239.697z"/>
	<path fill="#3A312A" d="M96.985,241.262c-0.007,0-0.014,0-0.021,0l-42.027-0.064c-3.335-0.005-6.468-1.309-8.823-3.671
		c-2.354-2.361-3.648-5.499-3.644-8.834l0.034-22.014c0-0.398,0.159-0.779,0.441-1.061c0.281-0.28,0.662-0.438,1.059-0.438
		c0.001,0,0.001,0,0.002,0l64,0.099c0.828,0.001,1.499,0.674,1.498,1.502l-0.034,22.014c-0.005,3.336-1.309,6.469-3.671,8.823
		C103.442,239.969,100.313,241.262,96.985,241.262z M45.502,208.183l-0.031,20.514c-0.004,2.534,0.979,4.918,2.768,6.713
		c1.789,1.794,4.169,2.784,6.703,2.788c0,0,0,0,0,0l42.027,0.064c0.005,0,0.01,0,0.016,0c2.528,0,4.905-0.982,6.696-2.768
		c1.795-1.789,2.785-4.17,2.789-6.703l0.031-20.514L45.502,208.183z"/>
	<circle fill="#D7E057" cx="76.276" cy="118.151" r="33.358"/>
	<path fill="#3A312A" d="M76.276,153.009c-19.221,0-34.858-15.638-34.858-34.858s15.637-34.857,34.858-34.857
		c19.221,0,34.858,15.637,34.858,34.857S95.497,153.009,76.276,153.009z M76.276,86.293c-17.567,0-31.858,14.291-31.858,31.857
		s14.291,31.858,31.858,31.858c17.566,0,31.858-14.292,31.858-31.858S93.843,86.293,76.276,86.293z"/>
	<path fill="#FCE8CB" d="M166.297,133.188v-17.478c0-19.375-15.706-35.081-35.081-35.081s-35.081,15.706-35.081,35.081v114.11
		c0,5.49,4.451,9.942,9.942,9.942h50.279c5.491,0,9.942-4.451,9.942-9.942v-81.783V133.188z"/>
	<path fill="#3A312A" d="M156.355,241.262h-50.279c-6.309,0-11.442-5.133-11.442-11.441V115.711
		c0-20.171,16.41-36.581,36.581-36.581c20.171,0,36.581,16.41,36.581,36.581v17.478c0,0.828-0.671,1.5-1.5,1.5s-1.5-0.672-1.5-1.5
		v-17.478c0-18.517-15.064-33.581-33.581-33.581c-18.517,0-33.581,15.064-33.581,33.581V229.82c0,4.654,3.787,8.441,8.442,8.441
		h50.279c4.655,0,8.441-3.787,8.441-8.441v-81.783c0-0.828,0.671-1.5,1.5-1.5s1.5,0.672,1.5,1.5v81.783
		C167.797,236.129,162.664,241.262,156.355,241.262z"/>
	<rect x="118.348" y="56.72" fill="#87796F" width="25.735" height="16.982"/>
	<path fill="#3A312A" d="M144.083,75.202h-25.735c-0.829,0-1.5-0.672-1.5-1.5V56.72c0-0.828,0.671-1.5,1.5-1.5h25.735
		c0.829,0,1.5,0.672,1.5,1.5v16.982C145.583,74.53,144.912,75.202,144.083,75.202z M119.848,72.202h22.735V58.22h-22.735V72.202z"/>
	<path fill="#D7E057" d="M155.082,81.783v8.263H107.35v-8.263c0-4.463,3.618-8.081,8.081-8.081H147
		C151.464,73.702,155.082,77.32,155.082,81.783z"/>
	<path fill="#3A312A" d="M155.081,91.547H107.35c-0.829,0-1.5-0.672-1.5-1.5v-8.264c0-5.283,4.298-9.581,9.581-9.581H147
		c5.283,0,9.581,4.298,9.581,9.581v8.264C156.581,90.875,155.91,91.547,155.081,91.547z M108.85,88.547h44.731v-6.764
		c0-3.629-2.952-6.581-6.581-6.581h-31.569c-3.629,0-6.581,2.952-6.581,6.581V88.547z"/>
	<rect x="98.792" y="42.113" fill="#D7E057" width="54.216" height="14.608"/>
	<path fill="#3A312A" d="M153.009,58.221H98.792c-0.829,0-1.5-0.672-1.5-1.5V42.112c0-0.828,0.671-1.5,1.5-1.5h54.217
		c0.829,0,1.5,0.672,1.5,1.5v14.608C154.509,57.549,153.837,58.221,153.009,58.221z M100.292,55.221h51.217V43.612h-51.217V55.221z"
		/>
	
		<ellipse transform="matrix(0.1614 -0.9869 0.9869 0.1614 -53.5774 268.5302)" fill="#D7E057" cx="131.216" cy="165.79" rx="23.919" ry="23.919"/>
	<path fill="#3A312A" d="M131.216,191.209c-14.016,0-25.419-11.403-25.419-25.419c0-14.016,11.403-25.419,25.419-25.419
		s25.419,11.403,25.419,25.419C156.635,179.806,145.232,191.209,131.216,191.209z M131.216,143.371
		c-12.362,0-22.419,10.057-22.419,22.419c0,12.362,10.057,22.419,22.419,22.419s22.419-10.057,22.419-22.419
		C153.635,153.428,143.578,143.371,131.216,143.371z"/>
	<path fill="#D7E057" d="M226.253,25.915c0,0,3.408,12.659,13.222,13.246c0,0-13.1,4.525-13.321,14.202
		c0,0-2.579-13.572-12.925-14.059C213.228,39.304,225.279,37.479,226.253,25.915z"/>
	<path fill="#3A312A" d="M226.152,54.862c-0.712,0-1.335-0.506-1.472-1.217c-0.024-0.125-2.495-12.418-11.523-12.843
		c-0.77-0.036-1.388-0.65-1.428-1.421c-0.04-0.77,0.511-1.444,1.273-1.561c0.441-0.068,10.894-1.817,11.754-12.032
		c0.061-0.726,0.634-1.301,1.359-1.367c0.719-0.063,1.393,0.398,1.584,1.101c0.032,0.116,3.259,11.626,11.864,12.141
		c0.714,0.042,1.298,0.583,1.396,1.292c0.098,0.708-0.319,1.388-0.994,1.622c-0.121,0.042-12.118,4.311-12.313,12.819
		c-0.018,0.767-0.61,1.396-1.374,1.46C226.236,54.86,226.194,54.862,226.152,54.862z M218.411,39.133
		c3.878,1.97,6.23,5.746,7.587,8.877c2.026-4.021,5.942-6.787,8.949-8.427c-4.135-1.843-6.783-5.651-8.334-8.723
		C224.82,35.22,221.342,37.729,218.411,39.133z"/>
	<path fill="#D7E057" d="M204.554,42.895c0,0,2.411,8.954,9.352,9.369c0,0-9.266,3.201-9.422,10.045c0,0-1.824-9.6-9.142-9.944
		C195.341,52.366,203.865,51.074,204.554,42.895z"/>
	<path fill="#3A312A" d="M204.483,63.81c-0.714,0-1.337-0.507-1.473-1.22c-0.016-0.082-1.704-8.441-7.739-8.726
		c-0.771-0.036-1.388-0.65-1.428-1.421c-0.04-0.77,0.511-1.444,1.273-1.561c0.296-0.047,7.364-1.243,7.943-8.113
		c0.061-0.726,0.635-1.303,1.36-1.368c0.727-0.065,1.392,0.399,1.582,1.101l0,0c0.021,0.079,2.227,7.92,7.993,8.265
		c0.715,0.042,1.299,0.584,1.396,1.293c0.098,0.709-0.319,1.388-0.996,1.622c-0.081,0.028-8.282,2.953-8.412,8.661
		c-0.018,0.768-0.611,1.397-1.376,1.461C204.566,63.808,204.524,63.81,204.483,63.81z M199.964,52.282
		c2.107,1.333,3.523,3.395,4.447,5.279c1.376-2.231,3.515-3.871,5.364-4.972c-2.287-1.27-3.884-3.35-4.941-5.224
		C203.661,49.652,201.819,51.241,199.964,52.282z"/>
	<path fill="#D7E057" d="M204.554,16.238c0,0,2.411,8.954,9.352,9.37c0,0-9.266,3.201-9.422,10.045c0,0-1.824-9.6-9.142-9.944
		C195.341,25.708,203.865,24.417,204.554,16.238z"/>
	<path fill="#3A312A" d="M204.483,37.152c-0.714,0-1.337-0.507-1.473-1.22c-0.016-0.082-1.704-8.442-7.74-8.726
		c-0.77-0.036-1.387-0.65-1.427-1.421c-0.04-0.77,0.511-1.444,1.273-1.561c0.296-0.047,7.364-1.242,7.943-8.113
		c0.061-0.726,0.635-1.303,1.36-1.368c0.727-0.064,1.392,0.399,1.582,1.101l0,0c0.021,0.079,2.227,7.92,7.994,8.266
		c0.714,0.043,1.299,0.584,1.396,1.293c0.098,0.709-0.32,1.389-0.996,1.622c-0.081,0.028-8.282,2.952-8.412,8.661
		c-0.018,0.768-0.611,1.397-1.376,1.461C204.566,37.15,204.524,37.152,204.483,37.152z M199.964,25.625
		c2.107,1.332,3.523,3.394,4.447,5.279c1.377-2.231,3.516-3.872,5.365-4.972c-2.287-1.27-3.884-3.351-4.941-5.225
		C203.661,22.995,201.819,24.584,199.964,25.625z"/>
	<path fill="#FCE8CB" d="M214.695,175.244c0,2.866-6.721,5.189-15.011,5.189c-8.29,0-15.011-2.323-15.011-5.189
		c0-3.609,3.072-5.564,13.403-8.929c4.39-1.43,5.777-6.09,7.945-6.09C207.855,160.225,214.695,168.599,214.695,175.244z"/>
	<path fill="#3A312A" d="M199.684,181.933c-8.205,0-16.511-2.298-16.511-6.689c0-4.867,4.256-7.039,14.438-10.355
		c2.001-0.651,3.305-2.168,4.454-3.506c1.175-1.367,2.285-2.658,3.956-2.658c3.11,0,10.174,9.6,10.174,16.52
		C216.195,179.635,207.889,181.933,199.684,181.933z M205.936,161.745c-0.355,0.148-1.151,1.075-1.596,1.593
		c-1.266,1.474-3,3.492-5.801,4.403c-10.517,3.426-12.367,5.148-12.367,7.503c0,1.104,4.597,3.689,13.511,3.689
		c8.914,0,13.511-2.585,13.511-3.689C213.195,169.477,207.501,162.519,205.936,161.745z M205.833,161.701L205.833,161.701
		L205.833,161.701z"/>
	<path fill="#8AC3DA" d="M239.479,202.901v31.646c0,2.88-2.335,5.215-5.215,5.215H165.35c-2.88,0-5.215-2.335-5.215-5.215v-31.646
		c0-2.88,2.335-5.215,5.215-5.215h68.913C237.143,197.686,239.479,200.021,239.479,202.901z"/>
	<path fill="#3A312A" d="M234.263,241.262H165.35c-3.703,0-6.716-3.013-6.716-6.715v-31.646c0-3.703,3.013-6.716,6.716-6.716h68.913
		c3.703,0,6.715,3.013,6.715,6.716v31.646C240.978,238.249,237.966,241.262,234.263,241.262z M165.35,199.186
		c-2.049,0-3.716,1.667-3.716,3.716v31.646c0,2.049,1.667,3.715,3.716,3.715h68.913c2.049,0,3.715-1.666,3.715-3.715v-31.646
		c0-2.049-1.666-3.716-3.715-3.716H165.35z"/>
	<rect x="165.406" y="189.725" fill="#87796F" width="68.801" height="7.96"/>
	<path fill="#3A312A" d="M234.207,199.186h-68.801c-0.829,0-1.5-0.672-1.5-1.5v-7.96c0-0.828,0.671-1.5,1.5-1.5h68.801
		c0.829,0,1.5,0.672,1.5,1.5v7.96C235.707,198.514,235.036,199.186,234.207,199.186z M166.906,196.186h65.801v-4.96h-65.801V196.186
		z"/>
	<path fill="#FCE8CB" d="M228.812,189.725L228.812,189.725h-58.257l0,0c0-4.737,3.84-8.578,8.578-8.578h41.102
		C224.972,181.148,228.812,184.988,228.812,189.725z"/>
	<path fill="#3A312A" d="M228.812,191.226h-58.257c-0.829,0-1.5-0.672-1.5-1.5c0-5.557,4.521-10.078,10.078-10.078h41.102
		c5.557,0,10.078,4.521,10.078,10.078C230.312,190.554,229.641,191.226,228.812,191.226z M172.215,188.226h54.937
		c-0.689-3.185-3.529-5.578-6.917-5.578h-41.102C175.745,182.648,172.905,185.041,172.215,188.226z"/>
	<path fill="#FCE8CB" d="M223.451,181.148L223.451,181.148h-47.535l0,0c0-4.737,3.84-8.578,8.578-8.578h30.38
		C219.611,172.57,223.451,176.41,223.451,181.148z"/>
	<path fill="#3A312A" d="M223.451,182.648h-47.535c-0.829,0-1.5-0.672-1.5-1.5c0-5.557,4.521-10.077,10.078-10.077h30.379
		c5.557,0,10.078,4.521,10.078,10.077C224.951,181.976,224.28,182.648,223.451,182.648z M177.576,179.648h44.215
		c-0.69-3.185-3.53-5.577-6.918-5.577h-30.379C181.105,174.07,178.266,176.463,177.576,179.648z"/>
	<circle fill="#D7E057" cx="199.806" cy="218.724" r="14"/>
	<path fill="#3A312A" d="M199.807,234.224c-8.547,0-15.5-6.953-15.5-15.5c0-8.547,6.953-15.5,15.5-15.5
		c8.547,0,15.5,6.953,15.5,15.5C215.307,227.27,208.353,234.224,199.807,234.224z M199.807,206.224c-6.893,0-12.5,5.607-12.5,12.5
		c0,6.893,5.607,12.5,12.5,12.5c6.893,0,12.5-5.607,12.5-12.5C212.307,211.831,206.699,206.224,199.807,206.224z"/>
	<path fill="#87796F" d="M167.002,176.658l5.706,5.706c1.728,1.728,1.728,4.53,0,6.258l-49.844,49.844
		c-1.728,1.728-4.53,1.728-6.258,0l-5.707-5.707c-1.728-1.728-1.728-4.53,0-6.258l49.844-49.844
		C162.472,174.93,165.274,174.93,167.002,176.658z"/>
	<path fill="#3A312A" d="M119.736,241.262c-1.583,0-3.071-0.616-4.19-1.735l-5.706-5.706c-2.31-2.311-2.31-6.068,0-8.379
		l49.845-49.844c1.119-1.119,2.607-1.735,4.189-1.735c1.583,0,3.07,0.616,4.189,1.735l5.707,5.706c2.31,2.311,2.31,6.068,0,8.379
		l-49.845,49.844C122.806,240.645,121.318,241.262,119.736,241.262z M163.873,176.862c-0.781,0-1.516,0.304-2.068,0.856
		l-49.845,49.844c-1.14,1.141-1.14,2.996,0.001,4.137l5.706,5.706c1.105,1.105,3.031,1.105,4.136,0l49.845-49.844
		c1.14-1.141,1.14-2.996,0-4.137l-5.706-5.706h-0.001C165.389,177.166,164.655,176.862,163.873,176.862z"/>
	<path fill="#6CA8BF" d="M234.264,199.183h-15c2.05,0,3.71,1.67,3.71,3.72v31.64c0,2.05-1.66,3.72-3.71,3.72h15
		c2.05,0,3.71-1.67,3.71-3.72v-31.64C237.974,200.853,236.314,199.183,234.264,199.183z"/>
</g>
</svg>
