<?xml version="1.0" encoding="utf-8"?>
<!-- Generator: Adobe Illustrator 24.0.0, SVG Export Plug-In . SVG Version: 6.00 Build 0)  -->
<svg version="1.1" id="Layer_1" xmlns="http://www.w3.org/2000/svg" xmlns:xlink="http://www.w3.org/1999/xlink" x="0px" y="0px"
	 viewBox="0 0 256 256" enable-background="new 0 0 256 256" xml:space="preserve">
<g>
	<path fill="#D7E057" d="M70.985,96.137c0,0,3.408,12.659,13.222,13.246c0,0-13.1,4.525-13.321,14.202
		c0,0-2.578-13.572-12.925-14.059C57.961,109.526,70.011,107.7,70.985,96.137z"/>
	<path fill="#3A312A" d="M70.885,125.085c-0.713,0-1.335-0.506-1.473-1.217c-0.023-0.124-2.494-12.418-11.522-12.842
		c-0.771-0.037-1.388-0.651-1.428-1.421c-0.04-0.77,0.511-1.445,1.273-1.56c0.441-0.069,10.895-1.818,11.754-12.033
		c0.062-0.725,0.635-1.301,1.359-1.367c0.731-0.061,1.394,0.399,1.584,1.102c0.031,0.116,3.259,11.626,11.863,12.141
		c0.714,0.043,1.298,0.584,1.396,1.293c0.098,0.709-0.318,1.388-0.994,1.623c-0.121,0.042-12.118,4.31-12.313,12.819
		c-0.017,0.767-0.611,1.396-1.375,1.46C70.969,125.083,70.927,125.085,70.885,125.085z M63.144,109.355
		c3.878,1.969,6.23,5.746,7.587,8.876c2.026-4.021,5.942-6.787,8.949-8.427c-4.134-1.842-6.783-5.651-8.334-8.723
		C69.553,105.442,66.074,107.95,63.144,109.355z"/>
	<path fill="#D7E057" d="M49.287,113.117c0,0,2.411,8.954,9.352,9.369c0,0-9.266,3.201-9.422,10.045c0,0-1.824-9.6-9.142-9.944
		C40.074,122.588,48.598,121.296,49.287,113.117z"/>
	<path fill="#3A312A" d="M49.215,134.032c-0.714,0-1.337-0.507-1.473-1.22c-0.016-0.081-1.703-8.441-7.738-8.725
		c-0.771-0.037-1.388-0.651-1.428-1.421c-0.04-0.771,0.511-1.445,1.273-1.56c0.296-0.047,7.363-1.243,7.941-8.114
		c0.062-0.726,0.636-1.303,1.361-1.368c0.721-0.063,1.392,0.399,1.581,1.102l0,0c0.023,0.079,2.229,7.92,7.995,8.265
		c0.714,0.043,1.299,0.584,1.396,1.293c0.097,0.709-0.32,1.388-0.997,1.622c-0.08,0.028-8.282,2.952-8.412,8.661
		c-0.018,0.767-0.611,1.397-1.377,1.461C49.298,134.03,49.256,134.032,49.215,134.032z M44.696,122.504
		c2.107,1.332,3.523,3.394,4.447,5.279c1.376-2.231,3.515-3.872,5.364-4.972c-2.286-1.269-3.884-3.35-4.941-5.223
		C48.394,119.874,46.552,121.463,44.696,122.504z"/>
	<path fill="#D7E057" d="M49.287,86.46c0,0,2.411,8.954,9.352,9.37c0,0-9.266,3.201-9.422,10.045c0,0-1.824-9.6-9.142-9.944
		C40.074,95.93,48.598,94.639,49.287,86.46z"/>
	<path fill="#3A312A" d="M49.215,107.374c-0.714,0-1.337-0.507-1.473-1.22c-0.016-0.081-1.703-8.442-7.738-8.726
		c-0.771-0.037-1.388-0.651-1.428-1.421c-0.04-0.771,0.511-1.445,1.273-1.56c0.296-0.047,7.363-1.243,7.941-8.114
		c0.062-0.726,0.636-1.303,1.361-1.368c0.721-0.062,1.392,0.4,1.581,1.102l0,0c0.023,0.079,2.229,7.92,7.995,8.265
		c0.714,0.043,1.299,0.585,1.396,1.294c0.097,0.709-0.32,1.388-0.997,1.622c-0.08,0.028-8.282,2.952-8.412,8.662
		c-0.018,0.767-0.611,1.397-1.377,1.461C49.298,107.373,49.256,107.374,49.215,107.374z M44.696,95.847
		c2.107,1.332,3.523,3.394,4.447,5.28c1.376-2.232,3.515-3.872,5.364-4.972c-2.286-1.269-3.884-3.35-4.941-5.224
		C48.394,93.217,46.552,94.806,44.696,95.847z"/>
	<path fill="#FCE8CB" d="M102.265,71.35l42.879,138.098l22.037-39.364L101.115,17c-7.806,0-13.377,7.564-11.063,15.019l7.867,25.337
		L102.265,71.35z"/>
	<path fill="#3A312A" d="M145.144,210.949c-0.052,0-0.105-0.002-0.156-0.008c-0.597-0.063-1.099-0.474-1.276-1.047L100.832,71.795
		c-0.245-0.791,0.196-1.632,0.988-1.877c0.794-0.245,1.631,0.198,1.877,0.988l41.844,134.764l19.969-35.67L100.148,18.545
		c-2.856,0.267-5.425,1.713-7.152,4.059c-1.921,2.607-2.472,5.877-1.511,8.97l7.867,25.337c0.245,0.791-0.196,1.632-0.988,1.878
		c-0.79,0.247-1.631-0.197-1.877-0.988L88.62,32.463c-1.246-4.013-0.532-8.255,1.96-11.639c2.493-3.384,6.332-5.325,10.535-5.325
		c0.599,0,1.14,0.356,1.377,0.906l66.065,153.085c0.186,0.429,0.16,0.919-0.068,1.327l-22.037,39.364
		C146.186,210.659,145.683,210.949,145.144,210.949z"/>
	<path fill="#FCE8CB" d="M151.17,79.611l14.777-47.592C168.262,24.564,162.691,17,154.885,17h0L88.82,170.085l22.036,39.364
		l35.888-115.582L151.17,79.611z"/>
	<path fill="#3A312A" d="M110.856,210.949c-0.539,0-1.042-0.29-1.309-0.767l-22.037-39.364c-0.228-0.408-0.254-0.898-0.068-1.327
		l66.065-153.085c0.237-0.55,0.778-0.906,1.377-0.906c4.203,0,8.042,1.941,10.535,5.325c2.492,3.384,3.206,7.626,1.96,11.639
		l-14.777,47.592c-0.246,0.79-1.082,1.235-1.877,0.988c-0.792-0.246-1.233-1.087-0.988-1.878l14.777-47.592
		c0.961-3.093,0.41-6.362-1.511-8.97c-1.728-2.346-4.296-3.792-7.152-4.059L90.49,169.999l19.969,35.67l34.852-112.247
		c0.247-0.79,1.085-1.233,1.877-0.988c0.792,0.246,1.233,1.086,0.988,1.877l-35.888,115.582c-0.178,0.573-0.68,0.984-1.276,1.047
		C110.961,210.946,110.908,210.949,110.856,210.949z"/>
	<path fill-rule="evenodd" clip-rule="evenodd" fill="#EB6E7A" d="M103.138,180.551c-14.125-16.92-39.86-17.207-54.36-0.607
		c-11.406,13.06-11.628,32.865-0.517,46.177c14.125,16.924,39.866,17.211,54.365,0.605
		C114.03,213.665,114.251,193.862,103.138,180.551z M84.576,191.96c7.469,5.931,7.344,17.184-0.254,22.947
		c-5.177,3.928-12.539,3.847-17.629-0.194c-7.471-5.931-7.347-17.185,0.253-22.949C72.124,187.837,79.487,187.919,84.576,191.96z"/>
	<path fill="#3A312A" d="M75.702,240.5c-0.139,0-0.276-0.001-0.415-0.002c-10.893-0.122-21.163-5.011-28.177-13.415
		c-11.559-13.848-11.327-34.538,0.538-48.125c7.2-8.244,17.606-12.876,28.468-12.78c10.891,0.122,21.16,5.01,28.174,13.412l0,0
		c11.56,13.847,11.33,34.536-0.534,48.124C96.648,235.855,86.443,240.5,75.702,240.5z M75.7,169.175
		c-9.873,0-19.254,4.271-25.792,11.756c-10.905,12.487-11.118,31.502-0.495,44.229c6.451,7.729,15.894,12.226,25.908,12.337
		c0.126,0.001,0.254,0.002,0.381,0.002c9.874,0.001,19.257-4.272,25.794-11.76c10.904-12.488,11.115-31.502,0.491-44.228
		c-6.451-7.728-15.893-12.223-25.904-12.335C75.955,169.176,75.827,169.175,75.7,169.175z M75.639,219.28
		c-3.518,0.001-7.033-1.133-9.878-3.391c-3.927-3.117-6.147-7.756-6.093-12.728c0.055-4.973,2.377-9.562,6.372-12.592
		c5.688-4.315,13.876-4.224,19.468,0.216l0,0c3.926,3.117,6.146,7.756,6.091,12.728c-0.055,4.971-2.376,9.559-6.37,12.589
		C82.434,218.223,79.035,219.28,75.639,219.28z M75.63,190.384c-2.755,0-5.51,0.856-7.777,2.576
		c-3.25,2.465-5.14,6.195-5.185,10.234c-0.044,4.038,1.763,7.809,4.958,10.345c4.535,3.6,11.175,3.674,15.79,0.174
		c3.249-2.465,5.139-6.195,5.183-10.232c0.045-4.038-1.762-7.809-4.956-10.345l0,0C81.335,191.303,78.482,190.384,75.63,190.384z"/>
	<path fill-rule="evenodd" clip-rule="evenodd" fill="#3B322A" d="M134.337,111.836c0,3.5-2.837,6.338-6.337,6.338
		c-3.5,0-6.338-2.838-6.338-6.338c0-3.501,2.838-6.338,6.338-6.338C131.501,105.499,134.337,108.337,134.337,111.836z"/>
	<path fill-rule="evenodd" clip-rule="evenodd" fill="#EB6E7A" d="M207.736,180.551c-14.125-16.92-39.86-17.207-54.36-0.607
		c-11.406,13.06-11.628,32.865-0.518,46.177c14.125,16.924,39.866,17.211,54.365,0.605
		C218.628,213.665,218.848,193.862,207.736,180.551z M189.173,191.96c7.469,5.931,7.345,17.184-0.254,22.947
		c-5.177,3.928-12.539,3.847-17.629-0.194c-7.471-5.931-7.346-17.185,0.253-22.949C176.722,187.837,184.084,187.919,189.173,191.96z
		"/>
	<path fill="#3A312A" d="M180.3,240.5c-0.139,0-0.276-0.001-0.415-0.002c-10.893-0.122-21.163-5.011-28.177-13.415
		c-11.559-13.849-11.327-34.539,0.539-48.125c7.2-8.244,17.616-12.892,28.466-12.78c10.892,0.122,21.16,5.01,28.175,13.412l0,0
		c11.56,13.847,11.33,34.536-0.534,48.124C201.246,235.855,191.041,240.5,180.3,240.5z M180.298,169.175
		c-9.872,0-19.254,4.271-25.791,11.756c-10.905,12.486-11.118,31.501-0.496,44.229c6.451,7.729,15.894,12.226,25.908,12.337
		c0.126,0.001,0.254,0.002,0.381,0.002c9.874,0.001,19.257-4.272,25.794-11.76c10.904-12.488,11.115-31.502,0.491-44.228
		c-6.451-7.728-15.894-12.224-25.905-12.335C180.553,169.176,180.425,169.175,180.298,169.175z M180.236,219.28
		c-3.518,0-7.033-1.133-9.878-3.391c-3.927-3.117-6.147-7.756-6.093-12.728c0.055-4.973,2.377-9.562,6.372-12.592
		c5.688-4.315,13.877-4.224,19.469,0.216l0,0c3.926,3.117,6.146,7.756,6.09,12.728c-0.055,4.971-2.377,9.559-6.37,12.589
		C187.032,218.223,183.633,219.28,180.236,219.28z M180.227,190.384c-2.755,0-5.511,0.856-7.777,2.576
		c-3.25,2.465-5.14,6.195-5.185,10.234c-0.044,4.038,1.763,7.809,4.958,10.345c4.534,3.6,11.174,3.673,15.79,0.174
		c3.249-2.465,5.139-6.195,5.184-10.232c0.044-4.038-1.762-7.809-4.956-10.345l0,0C185.934,191.303,183.081,190.384,180.227,190.384
		z"/>
	<path fill="#D04E5D" d="M206.58,181.51c-6.45-7.73-15.89-12.22-25.9-12.33c-0.13,0-0.26-0.01-0.38-0.01
		c-2.55,0-5.07,0.29-7.51,0.84c7.28,1.64,13.9,5.64,18.79,11.5c10.63,12.73,10.42,31.74-0.49,44.23
		c-4.85,5.56-11.27,9.34-18.29,10.93c2.32,0.52,4.7,0.8,7.12,0.83h0.38c9.87,0,19.26-4.27,25.79-11.76
		C217,213.25,217.21,194.24,206.58,181.51z"/>
</g>
</svg>
