<?xml version="1.0" encoding="utf-8"?>
<!-- Generator: Adobe Illustrator 24.0.0, SVG Export Plug-In . SVG Version: 6.00 Build 0)  -->
<svg version="1.1" id="Layer_1" xmlns="http://www.w3.org/2000/svg" xmlns:xlink="http://www.w3.org/1999/xlink" x="0px" y="0px"
	 viewBox="0 0 256 256" enable-background="new 0 0 256 256" xml:space="preserve">
<g>
	<path fill="#D7E057" d="M68.602,26.407c0,0,3.408,12.659,13.222,13.246c0,0-13.1,4.525-13.321,14.202
		c0,0-2.578-13.572-12.925-14.059C55.578,39.796,67.628,37.971,68.602,26.407z"/>
	<path fill="#3A312A" d="M68.502,55.354c-0.713,0-1.335-0.506-1.473-1.217c-0.023-0.124-2.494-12.417-11.521-12.842
		c-0.77-0.037-1.388-0.651-1.428-1.421c-0.04-0.771,0.511-1.445,1.273-1.561c0.441-0.069,10.894-1.817,11.754-12.033
		c0.062-0.725,0.635-1.301,1.359-1.367c0.733-0.062,1.394,0.4,1.584,1.101c0.031,0.116,3.259,11.626,11.863,12.141
		c0.714,0.043,1.298,0.584,1.396,1.292c0.098,0.708-0.318,1.388-0.994,1.623c-0.121,0.042-12.119,4.311-12.313,12.819
		c-0.018,0.767-0.61,1.396-1.375,1.459C68.586,55.353,68.544,55.354,68.502,55.354z M60.761,39.625
		c3.878,1.969,6.23,5.746,7.587,8.876c2.026-4.021,5.941-6.787,8.949-8.427c-4.135-1.842-6.783-5.652-8.334-8.723
		C67.17,35.712,63.691,38.22,60.761,39.625z"/>
	<path fill="#D7E057" d="M46.904,43.387c0,0,2.411,8.954,9.352,9.369c0,0-9.266,3.201-9.422,10.045c0,0-1.824-9.6-9.142-9.944
		C37.691,52.858,46.215,51.566,46.904,43.387z"/>
	<path fill="#3A312A" d="M46.832,64.302c-0.714,0-1.337-0.507-1.473-1.22c-0.016-0.082-1.704-8.442-7.738-8.726
		c-0.771-0.037-1.388-0.651-1.428-1.421c-0.04-0.771,0.511-1.445,1.273-1.561c0.296-0.047,7.363-1.243,7.941-8.114
		c0.062-0.726,0.636-1.303,1.361-1.368c0.715-0.064,1.392,0.399,1.581,1.101l0,0c0.022,0.079,2.229,7.92,7.995,8.265
		c0.714,0.043,1.299,0.584,1.396,1.293c0.097,0.709-0.32,1.388-0.997,1.622c-0.08,0.028-8.282,2.952-8.412,8.661
		c-0.018,0.767-0.611,1.397-1.376,1.461C46.915,64.3,46.873,64.302,46.832,64.302z M42.313,52.774
		c2.107,1.333,3.522,3.394,4.446,5.28c1.377-2.232,3.516-3.872,5.365-4.973c-2.286-1.269-3.884-3.35-4.941-5.223
		C46.011,50.145,44.169,51.733,42.313,52.774z"/>
	<path fill="#D7E057" d="M46.904,16.73c0,0,2.411,8.954,9.352,9.37c0,0-9.266,3.201-9.422,10.045c0,0-1.824-9.6-9.142-9.944
		C37.691,26.2,46.215,24.909,46.904,16.73z"/>
	<path fill="#3A312A" d="M46.832,37.645c-0.714,0-1.337-0.507-1.473-1.22c-0.016-0.082-1.704-8.442-7.738-8.726
		c-0.771-0.037-1.388-0.651-1.428-1.421c-0.04-0.771,0.511-1.445,1.273-1.56c0.296-0.047,7.363-1.243,7.941-8.113
		c0.062-0.726,0.636-1.303,1.361-1.368c0.715-0.063,1.392,0.399,1.581,1.102l0,0c0.022,0.079,2.229,7.92,7.995,8.265
		c0.714,0.043,1.299,0.584,1.396,1.293c0.097,0.709-0.32,1.388-0.997,1.622c-0.08,0.028-8.282,2.952-8.412,8.662
		c-0.018,0.767-0.611,1.397-1.376,1.461C46.915,37.644,46.873,37.645,46.832,37.645z M42.313,26.117
		c2.107,1.333,3.522,3.394,4.446,5.28c1.377-2.233,3.516-3.872,5.365-4.973c-2.286-1.27-3.884-3.35-4.941-5.224
		C46.011,23.487,44.169,25.076,42.313,26.117z"/>
	<path fill="#EF6D7A" d="M80.309,165.705v57.609c0,8.812,7.144,15.956,15.956,15.956h106.089c8.812,0,15.956-7.144,15.956-15.956
		V121.27c0-38.108-30.892-69-69-69h0c-38.108,0-69,30.892-69,69v29.565V165.705z"/>
	<path fill="#3A312A" d="M202.354,240.77H96.265c-9.625,0-17.456-7.831-17.456-17.456v-57.609c0-0.829,0.672-1.5,1.5-1.5
		c0.828,0,1.5,0.671,1.5,1.5v57.609c0,7.971,6.485,14.456,14.456,14.456h106.089c7.971,0,14.455-6.485,14.455-14.456V121.27
		c0-37.22-30.28-67.5-67.5-67.5s-67.5,30.28-67.5,67.5v29.565c0,0.829-0.672,1.5-1.5,1.5c-0.828,0-1.5-0.671-1.5-1.5V121.27
		c0-38.874,31.626-70.5,70.5-70.5s70.5,31.626,70.5,70.5v102.045C219.809,232.939,211.979,240.77,202.354,240.77z"/>
	<path fill="#87796F" d="M156.721,59.77h23.838V32.726c0-8.812-7.144-15.956-15.956-15.956h-30.589
		c-8.812,0-15.956,7.144-15.956,15.956V59.77h24.339H156.721z"/>
	<path fill="#3A312A" d="M180.559,61.27h-23.838c-0.828,0-1.5-0.671-1.5-1.5c0-0.829,0.672-1.5,1.5-1.5h22.338V32.726
		c0-7.971-6.484-14.456-14.455-14.456h-30.589c-7.971,0-14.456,6.485-14.456,14.456V58.27h22.839c0.828,0,1.5,0.671,1.5,1.5
		c0,0.829-0.672,1.5-1.5,1.5h-24.339c-0.828,0-1.5-0.671-1.5-1.5V32.726c0-9.626,7.831-17.456,17.456-17.456h30.589
		c9.625,0,17.455,7.831,17.455,17.456V59.77C182.059,60.599,181.387,61.27,180.559,61.27z"/>
	<path fill="#EF6D7A" d="M180.559,32.77v-0.044c0-8.812-7.144-15.956-15.956-15.956h-30.589c-8.812,0-15.956,7.144-15.956,15.956
		v0.044H180.559z"/>
	<path fill="#3A312A" d="M180.559,34.27h-62.5c-0.828,0-1.5-0.671-1.5-1.5c0-9.669,7.831-17.5,17.456-17.5h30.589
		c9.625,0,17.455,7.831,17.455,17.456C182.059,33.555,181.387,34.27,180.559,34.27z M119.632,31.27h59.354
		c-0.731-7.29-6.902-13-14.382-13h-30.589C126.535,18.27,120.364,23.98,119.632,31.27z"/>
	<path fill="#87796F" d="M139.142,32.77v5.333c0,5.615,4.552,10.167,10.167,10.167l0,0c5.615,0,10.167-4.552,10.167-10.167V32.77
		H139.142z"/>
	<path fill="#3A312A" d="M149.309,49.77c-6.433,0-11.666-5.233-11.666-11.667V32.77c0-0.829,0.672-1.5,1.5-1.5h20.333
		c0.828,0,1.5,0.671,1.5,1.5v5.333C160.976,44.537,155.742,49.77,149.309,49.77z M140.643,34.27v3.833
		c0,4.779,3.888,8.667,8.666,8.667c4.779,0,8.667-3.888,8.667-8.667V34.27H140.643z"/>
	<path fill="#D04E5D" d="M180.169,61.27h-15c21.74,11.23,36.64,33.9,36.64,60v102.04c0,7.98-6.49,14.46-14.46,14.46h15
		c7.97,0,14.46-6.48,14.46-14.46V121.27C216.809,95.17,201.909,72.5,180.169,61.27z"/>
	<path fill="#D7E057" d="M192.479,130.44v63.85c0,0.63-0.06,1.24-0.17,1.83c-0.86,4.64-4.93,8.15-9.81,8.15h-66.38
		c-4.88,0-8.95-3.51-9.81-8.15c-0.11-0.59-0.17-1.2-0.17-1.83v-63.85c0-23.84,19.33-43.17,43.17-43.17S192.479,106.6,192.479,130.44
		z"/>
	<path fill="#3A312A" d="M182.499,205.77h-66.38c-5.531,0-10.278-3.943-11.285-9.376c-0.13-0.699-0.195-1.406-0.195-2.104v-63.85
		c0-24.631,20.039-44.67,44.67-44.67s44.67,20.039,44.67,44.67v63.85c0,0.704-0.065,1.412-0.195,2.105
		C192.777,201.827,188.031,205.77,182.499,205.77z M149.309,88.77c-22.977,0-41.67,18.693-41.67,41.67v63.85
		c0,0.514,0.049,1.038,0.145,1.557c0.744,4.012,4.25,6.923,8.336,6.923h66.38c4.086,0,7.592-2.912,8.335-6.923
		c0.096-0.515,0.145-1.038,0.145-1.557v-63.85C190.979,107.463,172.285,88.77,149.309,88.77z"/>
	<path fill="#8AC3DA" d="M192.479,167v27.29c0,0.63-0.06,1.24-0.17,1.83c-0.86,4.64-4.93,8.15-9.81,8.15h-66.38
		c-4.88,0-8.95-3.51-9.81-8.15c-0.11-0.59-0.17-1.2-0.17-1.83V167c2.52-2.78,6.98-2.69,9.4,0.26v0.01c2.5,3.04,7.15,3.04,9.65,0
		v-0.01c2.49-3.04,7.15-3.04,9.65,0v0.01c0.44,0.54,0.95,0.98,1.5,1.32c-0.63,2.35-1.05,4.43-1.05,6.27
		c0,8.34,6.76,15.09,15.09,15.09c8.34,0,15.09-6.75,15.09-15.09c0-2.8-0.15-5.73-0.44-8.75c1.07-0.76,2.32-1.13,3.57-1.13
		c1.79,0,3.58,0.76,4.83,2.28c1.24,1.53,3.03,2.29,4.82,2.29c1.79,0,3.58-0.76,4.82-2.29C185.489,164.31,189.949,164.22,192.479,167
		z"/>
	<path fill="#3A312A" d="M182.499,205.77h-66.38c-5.531,0-10.278-3.943-11.285-9.376c-0.13-0.699-0.195-1.406-0.195-2.104V167
		c0-0.373,0.139-0.731,0.389-1.008c1.498-1.651,3.689-2.57,5.883-2.51c2.251,0.056,4.36,1.086,5.789,2.827
		c0.025,0.031,0.05,0.064,0.073,0.097c0.903,1.046,2.206,1.644,3.591,1.644c1.387,0,2.689-0.598,3.593-1.646
		c0.023-0.033,0.047-0.064,0.072-0.095c1.471-1.795,3.649-2.827,5.975-2.829c0.002,0,0.005,0,0.007,0c2.328,0,4.51,1.03,5.987,2.827
		c0.028,0.034,0.055,0.068,0.079,0.105c0.305,0.355,0.657,0.659,1.052,0.902c0.563,0.348,0.831,1.024,0.66,1.664
		c-0.691,2.577-0.999,4.391-0.999,5.882c0,7.494,6.097,13.59,13.59,13.59c7.493,0,13.59-6.097,13.59-13.59
		c0-2.715-0.146-5.611-0.434-8.606c-0.052-0.535,0.188-1.056,0.625-1.367c1.296-0.92,2.831-1.407,4.438-1.407
		c2.328,0,4.511,1.03,5.988,2.827c0.9,1.111,2.232,1.743,3.662,1.743c1.43,0,2.761-0.632,3.653-1.734
		c1.434-1.747,3.542-2.777,5.79-2.834c2.219-0.066,4.393,0.857,5.896,2.509c0.251,0.276,0.391,0.636,0.391,1.009v27.29
		c0,0.704-0.065,1.412-0.195,2.105C192.777,201.827,188.031,205.77,182.499,205.77z M107.639,167.626v26.663
		c0,0.514,0.049,1.038,0.145,1.557c0.744,4.012,4.25,6.923,8.336,6.923h66.38c4.086,0,7.592-2.912,8.335-6.923
		c0.096-0.515,0.145-1.038,0.145-1.557v-26.662c-0.879-0.764-2.024-1.17-3.209-1.147c-1.377,0.035-2.668,0.666-3.542,1.73
		c-1.458,1.801-3.64,2.838-5.979,2.838c-2.338,0-4.519-1.037-5.985-2.846c-0.899-1.093-2.237-1.724-3.665-1.724
		c-0.699,0-1.375,0.15-1.99,0.438c0.239,2.753,0.36,5.42,0.36,7.942c0,9.148-7.442,16.59-16.59,16.59
		c-9.148,0-16.59-7.442-16.59-16.59c0-1.551,0.263-3.326,0.844-5.663c-0.347-0.295-0.667-0.623-0.957-0.98
		c-0.024-0.03-0.048-0.061-0.07-0.093c-0.903-1.046-2.207-1.644-3.596-1.644c-0.001,0-0.003,0-0.004,0
		c-1.387,0.001-2.687,0.599-3.584,1.644c-0.023,0.034-0.049,0.067-0.075,0.099c-1.478,1.797-3.658,2.827-5.983,2.827
		c-2.324,0-4.505-1.03-5.982-2.827c-0.027-0.032-0.052-0.066-0.076-0.1c-0.872-1.012-2.13-1.609-3.468-1.642
		C109.64,166.45,108.514,166.864,107.639,167.626z"/>
	<path fill="#FCE8CB" d="M140.629,153.38c-1.39,6.1-3.18,11.09-4.29,15.21c-0.55-0.34-1.06-0.78-1.5-1.32v-0.01
		c-2.5-3.04-7.16-3.04-9.65,0v0.01c-2.5,3.04-7.15,3.04-9.65,0v-0.01c-2.42-2.95-6.88-3.04-9.4-0.26v-13.62H140.629z"/>
	<path fill="#3A312A" d="M120.363,171.05c-2.324,0-4.505-1.03-5.982-2.827c-0.027-0.032-0.052-0.066-0.076-0.1
		c-0.872-1.012-2.13-1.609-3.468-1.642c-1.39-0.033-2.678,0.523-3.587,1.526c-0.417,0.461-1.073,0.615-1.651,0.392
		c-0.578-0.223-0.96-0.779-0.96-1.399v-13.62c0-0.829,0.672-1.5,1.5-1.5h34.49c0.456,0,0.888,0.208,1.173,0.564
		c0.284,0.357,0.391,0.824,0.29,1.269c-0.903,3.965-1.97,7.456-2.911,10.535c-0.515,1.686-1.002,3.279-1.394,4.732
		c-0.123,0.458-0.455,0.83-0.896,1.004c-0.44,0.175-0.938,0.13-1.341-0.119c-0.711-0.44-1.342-0.995-1.874-1.649
		c-0.024-0.03-0.048-0.061-0.07-0.093c-0.903-1.046-2.207-1.644-3.596-1.644c-0.001,0-0.003,0-0.004,0
		c-1.387,0.001-2.687,0.599-3.584,1.644c-0.023,0.034-0.049,0.067-0.075,0.099C124.869,170.02,122.688,171.05,120.363,171.05z
		 M116.772,166.406c0.903,1.046,2.206,1.644,3.591,1.644c1.387,0,2.689-0.598,3.593-1.646c0.023-0.033,0.047-0.064,0.072-0.095
		c1.471-1.795,3.649-2.827,5.975-2.829c0.002,0,0.005,0,0.007,0c2.112,0,4.104,0.848,5.559,2.347
		c0.235-0.795,0.486-1.613,0.743-2.456c0.777-2.542,1.641-5.369,2.418-8.491h-31.091v9.239c1.018-0.443,2.149-0.676,3.271-0.637
		c2.251,0.056,4.36,1.086,5.789,2.827C116.725,166.34,116.749,166.373,116.772,166.406z"/>
	<path fill="#FCE8CB" d="M192.479,153.38V167c-2.53-2.78-6.99-2.69-9.41,0.26c-1.24,1.53-3.03,2.29-4.82,2.29
		c-1.79,0-3.58-0.76-4.82-2.29c-1.25-1.52-3.04-2.28-4.83-2.28c-1.25,0-2.5,0.37-3.57,1.13c-0.39-4.09-1.03-8.37-1.85-12.73H192.479
		z"/>
	<path fill="#3A312A" d="M178.249,171.05c-2.338,0-4.519-1.037-5.985-2.846c-0.899-1.093-2.237-1.724-3.665-1.724
		c-0.981,0-1.916,0.295-2.702,0.853c-0.438,0.31-1.006,0.364-1.492,0.141c-0.487-0.223-0.818-0.688-0.869-1.222
		c-0.367-3.851-0.982-8.089-1.831-12.595c-0.082-0.438,0.035-0.892,0.32-1.235c0.285-0.344,0.708-0.542,1.154-0.542h29.3
		c0.828,0,1.5,0.671,1.5,1.5V167c0,0.62-0.381,1.175-0.959,1.399c-0.576,0.226-1.232,0.069-1.65-0.39
		c-0.915-1.006-2.24-1.56-3.6-1.528c-1.377,0.035-2.668,0.666-3.542,1.73C182.77,170.013,180.588,171.05,178.249,171.05z
		 M168.599,163.48c2.328,0,4.511,1.03,5.988,2.827c0.9,1.111,2.232,1.743,3.662,1.743c1.43,0,2.761-0.632,3.653-1.734
		c1.434-1.747,3.542-2.777,5.79-2.834c1.14-0.035,2.264,0.194,3.286,0.639v-9.241h-26.001c0.556,3.131,0.998,6.127,1.319,8.948
		C167.033,163.598,167.808,163.48,168.599,163.48z"/>
	<path fill="#87796F" d="M159.262,155.676c0,3.877-3.143,7.02-7.02,7.02c-3.877,0-7.02-3.143-7.02-7.02
		c0-3.111,2.542-7.618,3.268-14.639c1.373-13.268-5.414-33.037-4.357-33.037C145.464,108,159.262,137.648,159.262,155.676z"/>
	<path fill="#3A312A" d="M152.242,164.196c-4.698,0-8.521-3.822-8.521-8.521c0-1.624,0.535-3.374,1.213-5.588
		c0.748-2.445,1.679-5.488,2.063-9.205c0.898-8.679-1.796-20.221-3.405-27.118c-1.152-4.939-1.36-5.829-0.695-6.667
		c0.284-0.358,0.777-0.598,1.235-0.598c0.951,0,1.619,0.268,4.276,5.761c1.692,3.499,3.537,7.864,5.193,12.291
		c2.675,7.148,7.161,20.697,7.161,31.124C160.763,160.374,156.94,164.196,152.242,164.196z M147.492,117.357
		c1.554,7.012,3.267,16.318,2.489,23.835c-0.414,4.006-1.393,7.205-2.179,9.774c-0.604,1.975-1.081,3.535-1.081,4.71
		c0,3.044,2.477,5.521,5.521,5.521c3.044,0,5.52-2.477,5.52-5.521C157.763,144.022,151.84,127.285,147.492,117.357z"/>
</g>
</svg>
