<?xml version="1.0" encoding="utf-8"?>
<!-- Generator: Adobe Illustrator 24.0.0, SVG Export Plug-In . SVG Version: 6.00 Build 0)  -->
<svg version="1.1" id="Layer_1" xmlns="http://www.w3.org/2000/svg" xmlns:xlink="http://www.w3.org/1999/xlink" x="0px" y="0px"
	 viewBox="0 0 256 256" enable-background="new 0 0 256 256" xml:space="preserve">
<g>
	<path fill="#FCE8CB" d="M203.233,145.203c0,4.203-9.857,7.609-22.015,7.609c-12.159,0-22.015-3.407-22.015-7.609
		c0-5.292,4.506-8.161,19.656-13.095c6.438-2.097,8.472-8.932,11.652-8.932C193.202,123.175,203.233,135.457,203.233,145.203z"/>
	<path fill="#3A312A" d="M181.218,154.312c-15.439,0-23.516-4.582-23.516-9.109c0-6.701,6.1-9.77,20.691-14.521
		c3.122-1.017,5.102-3.319,6.848-5.351c1.685-1.961,3.141-3.655,5.27-3.655c3.808,0,14.222,13.338,14.222,23.527
		C204.732,149.73,196.655,154.312,181.218,154.312z M190.433,124.669c-0.674,0.006-1.763,1.274-2.917,2.616
		c-1.903,2.215-4.272,4.972-8.192,6.249c-15.933,5.189-18.621,7.793-18.621,11.669c0,2.491,7.992,6.109,20.516,6.109
		c12.523,0,20.515-3.618,20.515-6.109C201.732,136.186,192.395,125.108,190.433,124.669z"/>
	<path fill="#8AC3DA" d="M158.551,239.825h73.381c4.224,0,7.649-3.424,7.649-7.649v-46.412c0-4.225-3.425-7.649-7.649-7.649H130.864
		c-4.224,0-7.649,3.424-7.649,7.649v46.412c0,4.224,3.424,7.649,7.649,7.649h13.332H158.551z"/>
	<path fill="#3A312A" d="M231.932,241.325h-73.381c-0.828,0-1.5-0.671-1.5-1.5c0-0.829,0.672-1.5,1.5-1.5h73.381
		c3.391,0,6.15-2.758,6.15-6.149v-46.412c0-3.391-2.759-6.149-6.15-6.149H130.863c-3.39,0-6.148,2.758-6.148,6.149v46.412
		c0,3.391,2.758,6.149,6.148,6.149h13.333c0.828,0,1.5,0.671,1.5,1.5c0,0.829-0.672,1.5-1.5,1.5h-13.333
		c-5.044,0-9.148-4.104-9.148-9.149v-46.412c0-5.045,4.104-9.149,9.148-9.149h101.068c5.045,0,9.15,4.104,9.15,9.149v46.412
		C241.081,237.221,236.977,241.325,231.932,241.325z"/>
	<rect x="130.946" y="166.441" fill="#87796F" width="100.903" height="11.675"/>
	<path fill="#3A312A" d="M231.85,179.615H130.946c-0.828,0-1.5-0.671-1.5-1.5v-11.674c0-0.829,0.672-1.5,1.5-1.5H231.85
		c0.828,0,1.5,0.671,1.5,1.5v11.674C233.35,178.944,232.678,179.615,231.85,179.615z M132.446,176.615h97.903v-8.674h-97.903
		V176.615z"/>
	<path fill="#FCE8CB" d="M223.937,166.441L223.937,166.441h-85.44l0,0c0-6.948,5.632-12.58,12.58-12.58h60.28
		C218.305,153.86,223.937,159.493,223.937,166.441z"/>
	<path fill="#3A312A" d="M223.937,167.941h-85.44c-0.828,0-1.5-0.671-1.5-1.5c0-7.764,6.316-14.081,14.08-14.081h60.28
		c7.764,0,14.08,6.316,14.08,14.081C225.437,167.27,224.766,167.941,223.937,167.941z M140.099,164.941h82.237
		c-0.734-5.403-5.378-9.581-10.979-9.581h-60.28C145.477,155.36,140.833,159.538,140.099,164.941z"/>
	<path fill="#FCE8CB" d="M216.075,153.86L216.075,153.86H146.36l0,0c0-6.948,5.632-12.58,12.58-12.58h44.555
		C210.443,141.28,216.075,146.913,216.075,153.86z"/>
	<path fill="#3A312A" d="M216.075,155.36H146.36c-0.828,0-1.5-0.671-1.5-1.5c0-7.764,6.316-14.08,14.08-14.08h44.555
		c7.764,0,14.08,6.316,14.08,14.08C217.575,154.689,216.903,155.36,216.075,155.36z M147.962,152.36h66.512
		c-0.734-5.403-5.378-9.58-10.979-9.58H158.94C153.34,142.78,148.696,146.958,147.962,152.36z"/>
	<path fill="#D7E057" d="M201.93,208.97c0,11.34-9.193,20.533-20.532,20.533c-11.34,0-20.533-9.193-20.533-20.533
		c0-11.34,9.193-20.532,20.533-20.532C192.738,188.438,201.93,197.63,201.93,208.97z"/>
	<path fill="#3A312A" d="M181.398,231.002c-12.149,0-22.033-9.884-22.033-22.032c0-12.149,9.884-22.033,22.033-22.033
		c12.148,0,22.032,9.884,22.032,22.033C203.431,221.119,193.547,231.002,181.398,231.002z M181.398,189.938
		c-10.495,0-19.033,8.538-19.033,19.033s8.538,19.032,19.033,19.032c10.494,0,19.032-8.538,19.032-19.032
		S191.893,189.938,181.398,189.938z"/>
	<path fill="#D7E057" d="M226.359,26.259c0,0,3.408,12.659,13.222,13.246c0,0-13.1,4.525-13.321,14.202
		c0,0-2.578-13.572-12.925-14.059C213.335,39.648,225.385,37.823,226.359,26.259z"/>
	<path fill="#3A312A" d="M226.259,55.207c-0.713,0-1.335-0.506-1.473-1.217c-0.023-0.124-2.494-12.417-11.521-12.842
		c-0.771-0.037-1.388-0.651-1.428-1.421c-0.04-0.771,0.511-1.445,1.273-1.561c0.441-0.069,10.895-1.817,11.754-12.033
		c0.062-0.725,0.635-1.301,1.359-1.367c0.737-0.062,1.394,0.399,1.584,1.102c0.031,0.116,3.259,11.626,11.863,12.141
		c0.714,0.043,1.298,0.584,1.395,1.292c0.098,0.708-0.318,1.388-0.994,1.623c-0.121,0.042-12.119,4.31-12.313,12.819
		c-0.018,0.767-0.61,1.396-1.375,1.459C226.343,55.205,226.301,55.207,226.259,55.207z M218.519,39.477
		c3.878,1.969,6.229,5.746,7.586,8.876c2.026-4.022,5.941-6.787,8.949-8.427c-4.134-1.842-6.783-5.651-8.334-8.722
		C224.927,35.564,221.449,38.072,218.519,39.477z"/>
	<path fill="#D7E057" d="M204.66,43.239c0,0,2.411,8.954,9.352,9.369c0,0-9.266,3.201-9.422,10.045c0,0-1.824-9.6-9.142-9.944
		C195.448,52.71,203.971,51.419,204.66,43.239z"/>
	<path fill="#3A312A" d="M204.589,64.154c-0.714,0-1.337-0.507-1.473-1.22c-0.016-0.082-1.704-8.442-7.738-8.726
		c-0.771-0.037-1.388-0.651-1.428-1.421c-0.04-0.771,0.511-1.445,1.273-1.561c0.296-0.047,7.363-1.243,7.941-8.114
		c0.062-0.726,0.636-1.303,1.361-1.368c0.719-0.056,1.392,0.399,1.581,1.102l0,0c0.023,0.079,2.229,7.92,7.994,8.265
		c0.714,0.043,1.299,0.584,1.396,1.293c0.097,0.709-0.32,1.388-0.996,1.622c-0.081,0.028-8.282,2.952-8.412,8.662
		c-0.018,0.767-0.611,1.397-1.376,1.461C204.672,64.153,204.63,64.154,204.589,64.154z M200.07,52.626
		c2.107,1.333,3.522,3.395,4.446,5.28c1.376-2.232,3.516-3.872,5.365-4.973c-2.287-1.269-3.884-3.35-4.941-5.223
		C203.768,49.997,201.926,51.585,200.07,52.626z"/>
	<path fill="#D7E057" d="M204.66,16.582c0,0,2.411,8.954,9.352,9.37c0,0-9.266,3.201-9.422,10.045c0,0-1.824-9.6-9.142-9.944
		C195.448,26.052,203.971,24.761,204.66,16.582z"/>
	<path fill="#3A312A" d="M204.589,37.497c-0.714,0-1.337-0.507-1.473-1.22c-0.016-0.082-1.704-8.442-7.738-8.726
		c-0.771-0.037-1.388-0.651-1.428-1.421c-0.04-0.771,0.511-1.445,1.273-1.561c0.296-0.047,7.363-1.243,7.941-8.114
		c0.062-0.726,0.636-1.303,1.361-1.368c0.719-0.064,1.392,0.399,1.581,1.102l0,0c0.023,0.079,2.229,7.919,7.994,8.264
		c0.714,0.043,1.299,0.584,1.396,1.294c0.097,0.709-0.32,1.388-0.996,1.622c-0.081,0.028-8.282,2.953-8.412,8.662
		c-0.018,0.767-0.611,1.397-1.376,1.461C204.672,37.495,204.63,37.497,204.589,37.497z M200.07,25.969
		c2.107,1.333,3.522,3.394,4.446,5.28c1.376-2.232,3.516-3.872,5.365-4.973c-2.287-1.269-3.884-3.35-4.941-5.223
		C203.768,23.34,201.926,24.928,200.07,25.969z"/>
	<path fill="#D7E057" d="M133.356,74.813H48.481l0,0c0,13.538,10.975,24.512,24.513,24.512h35.85
		C122.382,99.326,133.356,88.351,133.356,74.813L133.356,74.813z"/>
	<path fill="#3A312A" d="M108.844,100.826h-35.85c-14.343,0-26.013-11.669-26.013-26.013c0-0.829,0.671-1.5,1.5-1.5h84.875
		c0.828,0,1.5,0.671,1.5,1.5C134.856,89.156,123.187,100.826,108.844,100.826z M50.03,76.313
		c0.776,11.993,10.779,21.513,22.964,21.513h35.85c12.185,0,22.188-9.52,22.964-21.513H50.03z"/>
	<rect x="79.742" y="99.326" fill="#87796F" width="22.354" height="124.35"/>
	<path fill="#3A312A" d="M102.096,225.175H79.742c-0.829,0-1.5-0.671-1.5-1.5V99.326c0-0.829,0.671-1.5,1.5-1.5h22.353
		c0.829,0,1.5,0.671,1.5,1.5v124.35C103.596,224.504,102.924,225.175,102.096,225.175z M81.242,222.175h19.353v-121.35H81.242
		V222.175z"/>
	<path fill="#EB6E7A" d="M71.729,188.614v51.061h38.38v-91.87c0-3.94-3.19-7.13-7.13-7.13h-24.12c-3.94,0-7.13,3.19-7.13,7.13
		v26.003V188.614z"/>
	<path fill="#3A312A" d="M110.109,241.175h-38.38c-0.829,0-1.5-0.671-1.5-1.5v-51.061c0-0.829,0.671-1.5,1.5-1.5
		c0.829,0,1.5,0.671,1.5,1.5v49.561h35.38v-90.37c0-3.105-2.525-5.63-5.63-5.63h-24.12c-3.104,0-5.63,2.525-5.63,5.63v26.003
		c0,0.829-0.671,1.5-1.5,1.5c-0.829,0-1.5-0.671-1.5-1.5v-26.003c0-4.758,3.872-8.63,8.63-8.63h24.12c4.758,0,8.63,3.872,8.63,8.63
		v91.87C111.609,240.504,110.937,241.175,110.109,241.175z"/>
	<path fill="#FAE6CA" d="M147.389,74.813H34.449c-9.958,0-18.03-8.072-18.03-18.03V34.206c0-9.958,8.072-18.03,18.03-18.03h112.939
		c9.958,0,18.03,8.072,18.03,18.03v22.577C165.419,66.741,157.346,74.813,147.389,74.813z"/>
	<path fill="#3A312A" d="M147.389,76.313H34.449c-10.769,0-19.53-8.761-19.53-19.53V34.206c0-10.769,8.761-19.53,19.53-19.53
		h112.939c10.768,0,19.53,8.761,19.53,19.53v22.577C166.919,67.552,158.157,76.313,147.389,76.313z M34.449,17.675
		c-9.115,0-16.53,7.415-16.53,16.53v22.577c0,9.115,7.416,16.53,16.53,16.53h112.939c9.115,0,16.53-7.416,16.53-16.53V34.206
		c0-9.115-7.415-16.53-16.53-16.53H34.449z"/>
	<path fill="#87796F" d="M148.484,41.675H33.353c-3.037,0-5.5-2.462-5.5-5.5l0,0c0-3.038,2.463-5.5,5.5-5.5h115.131
		c3.038,0,5.5,2.462,5.5,5.5l0,0C153.984,39.213,151.522,41.675,148.484,41.675z"/>
	<path fill="#3A312A" d="M148.484,43.175H33.353c-3.86,0-7-3.14-7-7s3.14-7,7-7h115.131c3.859,0,7,3.14,7,7
		S152.344,43.175,148.484,43.175z M33.353,32.175c-2.206,0-4,1.794-4,4s1.794,4,4,4h115.131c2.206,0,4-1.794,4-4s-1.794-4-4-4
		H33.353z"/>
	<path fill="#87796F" d="M148.484,60.675H33.353c-3.037,0-5.5-2.462-5.5-5.5l0,0c0-3.038,2.463-5.5,5.5-5.5h115.131
		c3.038,0,5.5,2.462,5.5,5.5l0,0C153.984,58.213,151.522,60.675,148.484,60.675z"/>
	<path fill="#3A312A" d="M148.484,62.175H33.353c-3.86,0-7-3.14-7-7s3.14-7,7-7h115.131c3.859,0,7,3.14,7,7
		S152.344,62.175,148.484,62.175z M33.353,51.175c-2.206,0-4,1.794-4,4s1.794,4,4,4h115.131c2.206,0,4-1.794,4-4s-1.794-4-4-4
		H33.353z"/>
	<path fill="#6CA8BF" d="M231.937,179.615h-15c3.39,0,6.14,2.76,6.14,6.15v46.41c0,3.39-2.75,6.15-6.14,6.15h15
		c3.39,0,6.14-2.76,6.14-6.15v-46.41C238.077,182.375,235.327,179.615,231.937,179.615z"/>
</g>
</svg>
