<?xml version="1.0" encoding="utf-8"?>
<!-- Generator: Adobe Illustrator 24.0.0, SVG Export Plug-In . SVG Version: 6.00 Build 0)  -->
<svg version="1.1" id="Layer_1" xmlns="http://www.w3.org/2000/svg" xmlns:xlink="http://www.w3.org/1999/xlink" x="0px" y="0px"
	 viewBox="0 0 256 256" enable-background="new 0 0 256 256" xml:space="preserve">
<g>
	<path fill="#FAE6CA" d="M109.371,70.146L74.255,35.03c-5.302-5.302-13.897-5.302-19.199,0L44.831,45.255
		c-5.302,5.302-5.302,13.897,0,19.199l83.656,83.656c5.302,5.302,13.897,5.302,19.199,0l2.66-2.66l77.465,62.926
		c2.79,2.266,6.842,2.057,9.384-0.484v0c2.74-2.74,2.74-7.182,0-9.921l-69.684-69.684l-48.373-48.373L109.371,70.146z"/>
	<path fill="#3A312A" d="M232.235,211.453c-1.894,0.001-3.793-0.632-5.37-1.913l-76.414-62.073l-1.704,1.704
		c-5.877,5.878-15.443,5.878-21.32,0L43.771,65.515c-5.878-5.878-5.878-15.442,0-21.32L53.996,33.97
		c2.847-2.848,6.633-4.415,10.66-4.415c4.027,0,7.813,1.568,10.66,4.415l35.116,35.116c0.586,0.586,0.586,1.536,0,2.121
		c-0.586,0.586-1.535,0.586-2.121,0L73.195,36.091c-2.281-2.281-5.313-3.537-8.539-3.537c-3.226,0-6.258,1.256-8.539,3.537
		L45.892,46.315c-4.708,4.708-4.708,12.37,0,17.078l83.656,83.656c4.709,4.708,12.369,4.708,17.078,0l2.66-2.66
		c0.544-0.545,1.411-0.588,2.006-0.104l77.465,62.926c2.201,1.788,5.373,1.624,7.378-0.381c2.149-2.151,2.149-5.65,0-7.8
		L118.078,80.974c-0.586-0.585-0.586-1.536,0-2.121c0.586-0.586,1.535-0.586,2.121,0L238.256,196.91
		c3.319,3.32,3.319,8.722,0,12.042C236.598,210.61,234.421,211.453,232.235,211.453z"/>
	<path fill="#D7E057" d="M212.293,67.083c0,0,3.408,12.659,13.222,13.246c0,0-13.1,4.525-13.321,14.202
		c0,0-2.578-13.572-12.925-14.059C199.269,80.472,211.32,78.647,212.293,67.083z"/>
	<path fill="#3A312A" d="M212.193,96.03c-0.713,0-1.335-0.506-1.473-1.217c-0.023-0.124-2.494-12.418-11.523-12.842
		c-0.77-0.037-1.388-0.651-1.428-1.421c-0.04-0.771,0.511-1.445,1.273-1.561c0.441-0.069,10.895-1.817,11.754-12.032
		c0.061-0.725,0.635-1.301,1.359-1.367c0.736-0.068,1.393,0.399,1.584,1.101c0.031,0.116,3.26,11.626,11.864,12.14
		c0.714,0.043,1.297,0.584,1.396,1.292c0.098,0.709-0.318,1.388-0.994,1.623c-0.121,0.042-12.119,4.311-12.313,12.819
		c-0.018,0.767-0.61,1.396-1.375,1.459C212.277,96.029,212.235,96.03,212.193,96.03z M204.452,80.301
		c3.878,1.969,6.23,5.746,7.587,8.877c2.026-4.022,5.941-6.787,8.949-8.427c-4.135-1.842-6.783-5.651-8.335-8.722
		C210.86,76.388,207.383,78.897,204.452,80.301z"/>
	<path fill="#D7E057" d="M190.595,84.063c0,0,2.411,8.954,9.352,9.369c0,0-9.266,3.201-9.422,10.045c0,0-1.824-9.6-9.142-9.944
		C181.382,93.534,189.906,92.242,190.595,84.063z"/>
	<path fill="#3A312A" d="M190.523,104.978c-0.714,0-1.337-0.507-1.473-1.22c-0.016-0.082-1.704-8.442-7.739-8.726
		c-0.77-0.037-1.388-0.651-1.428-1.421c-0.04-0.771,0.511-1.445,1.273-1.561c0.296-0.047,7.364-1.243,7.942-8.113
		c0.062-0.726,0.636-1.303,1.361-1.368c0.717-0.062,1.392,0.399,1.581,1.102l0,0c0.022,0.079,2.228,7.919,7.994,8.264
		c0.714,0.043,1.299,0.584,1.396,1.293c0.097,0.709-0.32,1.388-0.996,1.622c-0.081,0.028-8.282,2.953-8.412,8.662
		c-0.018,0.767-0.611,1.397-1.376,1.461C190.606,104.977,190.564,104.978,190.523,104.978z M186.004,93.451
		c2.107,1.332,3.523,3.394,4.447,5.28c1.376-2.233,3.516-3.872,5.365-4.973c-2.287-1.269-3.884-3.35-4.941-5.224
		C189.702,90.821,187.86,92.409,186.004,93.451z"/>
	<path fill="#D7E057" d="M190.595,57.406c0,0,2.411,8.954,9.352,9.37c0,0-9.266,3.201-9.422,10.045c0,0-1.824-9.6-9.142-9.944
		C181.382,66.876,189.906,65.585,190.595,57.406z"/>
	<path fill="#3A312A" d="M190.523,78.321c-0.714,0-1.337-0.507-1.473-1.22c-0.016-0.082-1.704-8.442-7.739-8.726
		c-0.77-0.037-1.388-0.651-1.428-1.421c-0.04-0.771,0.511-1.445,1.273-1.561c0.296-0.047,7.364-1.243,7.942-8.114
		c0.062-0.726,0.636-1.303,1.361-1.368c0.717-0.061,1.392,0.399,1.581,1.102l0,0c0.022,0.079,2.228,7.92,7.994,8.265
		c0.714,0.043,1.299,0.585,1.396,1.294c0.097,0.709-0.32,1.388-0.996,1.622c-0.081,0.028-8.282,2.952-8.412,8.662
		c-0.018,0.767-0.611,1.397-1.376,1.461C190.606,78.319,190.564,78.321,190.523,78.321z M186.004,66.793
		c2.107,1.333,3.523,3.395,4.447,5.28c1.376-2.233,3.516-3.872,5.365-4.973c-2.287-1.269-3.884-3.35-4.941-5.223
		C189.702,64.163,187.86,65.752,186.004,66.793z"/>
	<path fill="#EB6E7A" d="M88.085,183.335H37.556c-11.491,0-20.806,9.315-20.806,20.806v0c0,11.491,9.315,20.806,20.806,20.806
		h180.889c11.491,0,20.806-9.315,20.806-20.806v0c0-11.491-9.315-20.806-20.806-20.806H101.917H88.085z"/>
	<path fill="#3A312A" d="M218.444,226.446H37.556c-12.299,0-22.306-10.006-22.306-22.306c0-12.3,10.006-22.306,22.306-22.306h50.529
		c0.829,0,1.5,0.671,1.5,1.5s-0.671,1.5-1.5,1.5H37.556c-10.645,0-19.306,8.661-19.306,19.306c0,10.645,8.661,19.306,19.306,19.306
		h180.889c10.646,0,19.306-8.661,19.306-19.306c0-10.645-8.66-19.306-19.306-19.306H101.917c-0.829,0-1.5-0.671-1.5-1.5
		s0.671-1.5,1.5-1.5h116.527c12.3,0,22.306,10.006,22.306,22.306C240.75,216.44,230.744,226.446,218.444,226.446z"/>
	<circle fill="#87796F" cx="39" cy="203.946" r="8.5"/>
	<path fill="#3A312A" d="M39,213.946c-5.514,0-10-4.486-10-10c0-5.514,4.486-10,10-10c5.514,0,10,4.486,10,10
		C49,209.46,44.514,213.946,39,213.946z M39,196.946c-3.86,0-7,3.14-7,7c0,3.86,3.14,7,7,7c3.86,0,7-3.14,7-7
		C46,200.086,42.86,196.946,39,196.946z"/>
	<circle fill="#87796F" cx="217" cy="203.946" r="8.5"/>
	<path fill="#3A312A" d="M217,213.946c-5.514,0-10-4.486-10-10c0-5.514,4.486-10,10-10c5.514,0,10,4.486,10,10
		C227,209.46,222.514,213.946,217,213.946z M217,196.946c-3.859,0-7,3.14-7,7c0,3.86,3.141,7,7,7c3.859,0,7-3.14,7-7
		C224,200.086,220.859,196.946,217,196.946z"/>
	<path fill="#D04E5D" d="M218.44,184.836h-15c7.12,0,13.35,3.87,16.69,9.61c3.98,1.32,6.87,5.08,6.87,9.5c0,4.32-2.76,8.01-6.6,9.4
		c-3.26,6.01-9.64,10.1-16.96,10.1h15c10.65,0,19.31-8.66,19.31-19.31C237.75,193.496,229.09,184.836,218.44,184.836z"/>
</g>
</svg>
