<?xml version="1.0" encoding="utf-8"?>
<!-- Generator: Adobe Illustrator 24.0.0, SVG Export Plug-In . SVG Version: 6.00 Build 0)  -->
<svg version="1.1" id="Layer_1" xmlns="http://www.w3.org/2000/svg" xmlns:xlink="http://www.w3.org/1999/xlink" x="0px" y="0px"
	 viewBox="0 0 256 256" enable-background="new 0 0 256 256" xml:space="preserve">
<g>
	<path fill="#8AC3DA" d="M181.917,239.126h20.684c20.507,0,37.131-16.624,37.131-37.131v0c0-20.507-16.624-37.131-37.131-37.131
		H35.061c-10.156,0-18.389,8.233-18.389,18.389v0.707c0,10.156,8.233,18.389,18.389,18.389c-10.156,0-18.389,8.233-18.389,18.389v0
		c0,10.156,8.233,18.389,18.389,18.389l132.522,0L181.917,239.126z"/>
	<path fill="#3A312A" d="M202.601,240.626h-20.684c-0.829,0-1.5-0.671-1.5-1.5c0-0.829,0.671-1.5,1.5-1.5h20.684
		c19.647-0.001,35.631-15.985,35.631-35.631c0-19.647-15.984-35.631-35.631-35.631H35.061c-9.313,0-16.889,7.577-16.889,16.889
		v0.707c0,9.313,7.577,16.889,16.889,16.889c0.829,0,1.5,0.671,1.5,1.5c0,0.829-0.671,1.5-1.5,1.5
		c-9.313,0-16.889,7.577-16.889,16.889s7.577,16.889,16.889,16.889h132.522c0.829,0,1.5,0.671,1.5,1.5c0,0.829-0.671,1.5-1.5,1.5
		H35.061c-10.967,0-19.889-8.922-19.889-19.889c0-8.286,5.092-15.403,12.311-18.389c-7.219-2.985-12.311-10.104-12.311-18.389
		v-0.707c0-10.967,8.922-19.889,19.889-19.889h167.54c21.301,0,38.631,17.33,38.631,38.631
		C241.232,223.295,223.902,240.626,202.601,240.626z"/>
	<path fill="#EA6D7A" d="M89.845,16.338H35.061c-10.156,0-18.389,8.233-18.389,18.389v0.707c0,10.156,8.233,18.389,18.389,18.389
		c-10.156,0-18.389,8.233-18.389,18.389c0,10.156,8.233,18.389,18.389,18.389l167.54,0c20.507,0,37.131-16.624,37.131-37.131v0
		c0-20.507-16.624-37.131-37.131-37.131h-98.445H89.845z"/>
	<path fill="#3A312A" d="M35.061,92.101c-10.967,0-19.889-8.922-19.889-19.889c0-8.286,5.092-15.403,12.311-18.389
		c-7.219-2.985-12.311-10.104-12.311-18.389v-0.707c0-10.967,8.922-19.889,19.889-19.889h54.784c0.829,0,1.5,0.671,1.5,1.5
		s-0.671,1.5-1.5,1.5H35.061c-9.313,0-16.889,7.577-16.889,16.889v0.707c0,9.313,7.577,16.889,16.889,16.889
		c0.829,0,1.5,0.671,1.5,1.5c0,0.829-0.671,1.5-1.5,1.5c-9.313,0-16.889,7.577-16.889,16.889s7.577,16.889,16.889,16.889l167.54,0
		c19.647,0,35.631-15.984,35.631-35.631c0-19.647-15.984-35.631-35.631-35.631h-98.445c-0.829,0-1.5-0.671-1.5-1.5
		s0.671-1.5,1.5-1.5h98.445c21.301,0,38.631,17.33,38.631,38.631c0,21.301-17.33,38.631-38.631,38.631L35.061,92.101z"/>
	<path fill="#D6DF58" d="M53.803,90.601h167.54c10.156,0,18.389,8.233,18.389,18.389v0.707c0,10.156-8.233,18.389-18.389,18.389
		H60.268h161.076c10.156,0,18.389,8.233,18.389,18.389l0,0c0,10.156-8.233,18.389-18.389,18.389l-167.54,0
		c-20.507,0-37.131-16.624-37.131-37.131v0C16.672,107.225,33.296,90.601,53.803,90.601z"/>
	<path fill="#3A312A" d="M221.343,166.363H53.803c-21.301,0-38.631-17.33-38.631-38.631c0-21.301,17.33-38.631,38.631-38.631h167.54
		c10.967,0,19.889,8.922,19.889,19.889v0.707c0,8.286-5.092,15.403-12.311,18.389c7.219,2.985,12.311,10.104,12.311,18.389
		C241.232,157.441,232.31,166.363,221.343,166.363z M53.803,92.101c-19.647,0-35.631,15.984-35.631,35.631
		c0,19.647,15.984,35.631,35.631,35.631h167.54c9.313,0,16.889-7.576,16.889-16.889s-7.577-16.889-16.889-16.889H60.268
		c-0.829,0-1.5-0.671-1.5-1.5c0-0.829,0.671-1.5,1.5-1.5h161.076c9.313,0,16.889-7.577,16.889-16.889v-0.707
		c0-9.313-7.577-16.889-16.889-16.889H53.803z"/>
	<path fill="#3A312A" d="M196.369,55.333H34.166c-0.829,0-1.5-0.671-1.5-1.5c0-0.829,0.671-1.5,1.5-1.5h162.202
		c0.829,0,1.5,0.671,1.5,1.5C197.869,54.662,197.197,55.333,196.369,55.333z"/>
	<path fill="#3A312A" d="M196.369,203.848H34.166c-0.829,0-1.5-0.671-1.5-1.5c0-0.829,0.671-1.5,1.5-1.5h162.202
		c0.829,0,1.5,0.671,1.5,1.5C197.869,203.177,197.197,203.848,196.369,203.848z"/>
	<path fill="#3A312A" d="M222.535,129.586H60.333c-0.829,0-1.5-0.671-1.5-1.5c0-0.829,0.671-1.5,1.5-1.5h162.202
		c0.829,0,1.5,0.671,1.5,1.5C224.035,128.915,223.364,129.586,222.535,129.586z"/>
	<path fill="#6CA8BF" d="M238.23,201.99c0,19.65-15.98,35.64-35.63,35.64h-15c19.65,0,35.63-15.99,35.63-35.64
		c0-19.64-15.98-35.63-35.63-35.63h15C222.25,166.36,238.23,182.35,238.23,201.99z"/>
	<path fill="#D04E5D" d="M238.23,53.47c0,19.65-15.98,35.63-35.63,35.63h-15c19.65,0,35.63-15.98,35.63-35.63
		c0-19.65-15.98-35.63-35.63-35.63h15C222.25,17.84,238.23,33.82,238.23,53.47z"/>
	<path fill="#B9C239" d="M238.23,146.47c0,4.52-1.75,8.76-4.94,11.95c-3.19,3.19-7.44,4.94-11.95,4.94h-15
		c4.51,0,8.76-1.75,11.95-4.94c3.19-3.19,4.94-7.43,4.94-11.95c0-9.31-7.57-16.88-16.89-16.88h15
		C230.66,129.59,238.23,137.16,238.23,146.47z"/>
	<path fill="#B9C239" d="M238.23,108.99v0.71c0,9.31-7.57,16.89-16.89,16.89h-15c9.32,0,16.89-7.58,16.89-16.89v-0.71
		c0-9.31-7.57-16.89-16.89-16.89h15C230.66,92.1,238.23,99.68,238.23,108.99z"/>
</g>
</svg>
