<?xml version="1.0" encoding="utf-8"?>
<!-- Generator: Adobe Illustrator 24.0.0, SVG Export Plug-In . SVG Version: 6.00 Build 0)  -->
<svg version="1.1" id="Layer_1" xmlns="http://www.w3.org/2000/svg" xmlns:xlink="http://www.w3.org/1999/xlink" x="0px" y="0px"
	 viewBox="0 0 256 256" enable-background="new 0 0 256 256" xml:space="preserve">
<g>
	<path fill="#D7E057" d="M73.225,26.101c0,0,3.408,12.659,13.222,13.246c0,0-13.1,4.525-13.321,14.202
		c0,0-2.578-13.572-12.925-14.059C60.2,39.491,72.251,37.665,73.225,26.101z"/>
	<path fill="#3A312A" d="M73.124,55.049c-0.713,0-1.335-0.506-1.473-1.217c-0.023-0.124-2.494-12.417-11.521-12.842
		c-0.771-0.037-1.388-0.651-1.428-1.421c-0.04-0.771,0.511-1.445,1.273-1.561c0.441-0.069,10.895-1.817,11.754-12.033
		c0.062-0.725,0.635-1.301,1.359-1.367c0.733-0.059,1.394,0.399,1.584,1.102c0.031,0.116,3.259,11.626,11.863,12.141
		c0.714,0.043,1.298,0.584,1.396,1.292c0.098,0.708-0.318,1.388-0.994,1.622c-0.121,0.042-12.118,4.31-12.312,12.819
		c-0.018,0.767-0.611,1.396-1.375,1.459C73.208,55.047,73.166,55.049,73.124,55.049z M65.384,39.319
		c3.878,1.969,6.229,5.746,7.586,8.876c2.026-4.021,5.942-6.787,8.949-8.427c-4.134-1.842-6.783-5.651-8.334-8.722
		C71.792,35.407,68.314,37.915,65.384,39.319z"/>
	<path fill="#D7E057" d="M51.526,43.082c0,0,2.411,8.954,9.352,9.369c0,0-9.266,3.201-9.422,10.045c0,0-1.824-9.6-9.142-9.944
		C42.314,52.552,50.837,51.261,51.526,43.082z"/>
	<path fill="#3A312A" d="M51.455,63.996c-0.714,0-1.337-0.507-1.473-1.22c-0.016-0.082-1.704-8.442-7.739-8.726
		c-0.771-0.037-1.388-0.651-1.428-1.421c-0.04-0.771,0.511-1.445,1.273-1.561c0.296-0.047,7.363-1.243,7.942-8.114
		c0.062-0.726,0.636-1.303,1.361-1.368c0.722-0.061,1.392,0.4,1.582,1.102l0,0c0.021,0.079,2.227,7.92,7.993,8.265
		c0.714,0.043,1.299,0.584,1.396,1.293c0.097,0.709-0.32,1.388-0.996,1.622c-0.081,0.028-8.282,2.952-8.412,8.661
		c-0.018,0.767-0.611,1.397-1.376,1.461C51.538,63.995,51.496,63.996,51.455,63.996z M46.935,52.469
		c2.108,1.333,3.524,3.394,4.447,5.28c1.376-2.232,3.516-3.872,5.365-4.972c-2.287-1.27-3.885-3.35-4.941-5.224
		C50.633,49.839,48.791,51.428,46.935,52.469z"/>
	<path fill="#D7E057" d="M51.526,16.424c0,0,2.411,8.954,9.352,9.37c0,0-9.266,3.201-9.422,10.045c0,0-1.824-9.6-9.142-9.944
		C42.314,25.895,50.837,24.603,51.526,16.424z"/>
	<path fill="#3A312A" d="M51.455,37.339c-0.714,0-1.337-0.507-1.473-1.22c-0.016-0.082-1.704-8.442-7.739-8.726
		c-0.771-0.037-1.388-0.651-1.428-1.421c-0.04-0.771,0.511-1.445,1.273-1.561c0.296-0.047,7.363-1.243,7.942-8.114
		c0.062-0.726,0.636-1.303,1.361-1.368c0.722-0.06,1.392,0.399,1.582,1.102l0,0c0.021,0.079,2.227,7.92,7.993,8.265
		c0.714,0.043,1.299,0.584,1.396,1.293c0.097,0.709-0.32,1.388-0.996,1.622c-0.081,0.028-8.282,2.953-8.412,8.662
		c-0.018,0.767-0.611,1.397-1.376,1.461C51.538,37.337,51.496,37.339,51.455,37.339z M46.935,25.811
		c2.108,1.333,3.524,3.395,4.447,5.28c1.376-2.232,3.516-3.872,5.365-4.973c-2.288-1.269-3.885-3.35-4.941-5.224
		C50.633,23.181,48.791,24.77,46.935,25.811z"/>
	<path fill="#EF6D7A" d="M102.224,132.397l5.062,62.236c0.544,6.692,6.129,11.849,12.843,11.859l67.06,0.103
		c6.714,0.01,12.315-5.129,12.88-11.82l13.607-161.14l-119.5-0.184l6.843,84.136L102.224,132.397z"/>
	<path fill="#3A312A" d="M187.209,208.095c-0.008,0-0.014,0-0.021,0l-67.06-0.104c-7.436-0.011-13.733-5.826-14.337-13.237
		l-5.062-62.236c-0.067-0.826,0.548-1.549,1.373-1.617c0.838-0.062,1.551,0.548,1.617,1.374l5.062,62.236
		c0.478,5.868,5.464,10.472,11.351,10.48l67.06,0.104c0.006,0,0.012,0,0.018,0c5.88,0,10.87-4.585,11.365-10.446l13.471-159.516
		L95.804,34.954l6.711,82.512c0.067,0.826-0.548,1.549-1.373,1.617c-0.828,0.074-1.551-0.548-1.617-1.373l-6.843-84.136
		c-0.034-0.418,0.108-0.831,0.394-1.139c0.283-0.308,0.683-0.482,1.102-0.482c0.001,0,0.002,0,0.002,0l119.5,0.184
		c0.42,0,0.819,0.177,1.104,0.486c0.283,0.309,0.425,0.723,0.39,1.141l-13.607,161.14
		C200.939,202.304,194.635,208.095,187.209,208.095z"/>
	<path fill="#87796F" d="M136.752,16.517l-31.997-0.049c-5.828-0.009-10.559,4.708-10.568,10.536l-0.01,6.448l119.5,0.184
		l0.01-6.448c0.009-5.827-4.708-10.559-10.536-10.568l-51.33-0.079L136.752,16.517z"/>
	<path fill="#3A312A" d="M213.677,35.136c-0.001,0-0.002,0-0.002,0l-119.5-0.184c-0.829-0.001-1.499-0.674-1.498-1.502l0.01-6.448
		c0.01-6.639,5.415-12.033,12.052-12.033c0.007,0,0.013,0,0.019,0l31.997,0.049c0.829,0.002,1.499,0.674,1.498,1.502
		c-0.001,0.828-0.673,1.498-1.5,1.498c-0.001,0-0.002,0-0.002,0l-31.997-0.049c-0.005,0-0.01,0-0.015,0
		c-4.984,0-9.044,4.051-9.052,9.038l-0.008,4.948l116.5,0.179l0.008-4.948c0.004-2.418-0.934-4.692-2.642-6.405
		c-1.707-1.712-3.979-2.658-6.396-2.661l-51.33-0.079c-0.829-0.001-1.499-0.674-1.498-1.502c0.001-0.828,0.673-1.498,1.5-1.498
		c0.001,0,0.002,0,0.002,0l51.33,0.079c3.22,0.005,6.244,1.263,8.518,3.543c2.272,2.28,3.521,5.309,3.517,8.528l-0.01,6.448
		c-0.001,0.397-0.159,0.779-0.441,1.06C214.455,34.979,214.073,35.136,213.677,35.136z"/>
	<path fill="#87796F" d="M132.595,239.511l42.027,0.065c6.068,0.009,10.994-4.902,11.003-10.969l0.034-22.014l-64-0.099
		l-0.034,22.014C121.616,234.575,126.528,239.502,132.595,239.511z"/>
	<path fill="#3A312A" d="M174.64,241.076c-0.007,0-0.013,0-0.02,0l-42.027-0.064l0,0c-6.886-0.011-12.478-5.621-12.467-12.506
		l0.034-22.014c0.001-0.828,0.673-1.498,1.5-1.498c0.001,0,0.002,0,0.002,0l64,0.099c0.398,0.001,0.779,0.159,1.061,0.441
		c0.28,0.282,0.438,0.664,0.438,1.061l-0.034,22.014C187.115,235.487,181.515,241.076,174.64,241.076z M132.597,238.011
		l42.027,0.064c0.005,0,0.011,0,0.015,0c5.225,0,9.479-4.246,9.487-9.472l0.032-20.514l-61-0.094l-0.032,20.514
		c-0.004,2.534,0.979,4.917,2.768,6.712C127.683,237.017,130.064,238.007,132.597,238.011L132.597,238.011z"/>
	<path fill="#D04E5D" d="M197.044,35.11L183.578,194.63c-0.499,5.859-5.496,10.452-11.386,10.443l15,0.023
		c5.89,0.009,10.887-4.583,11.386-10.442l13.466-159.52L197.044,35.11z"/>
	<path fill="#695B51" d="M212.186,27.184l-0.008,4.95l-15-0.023l0.008-4.95c0.008-4.99-4.046-9.056-9.036-9.064l15,0.023
		C208.14,18.127,212.194,22.194,212.186,27.184z"/>
	<ellipse fill="#D7E057" cx="153.931" cy="119.964" rx="18.754" ry="51.5"/>
	<path fill="#3A312A" d="M153.932,172.964c-11.357,0-20.255-23.28-20.255-53c0-29.72,8.897-53,20.255-53
		c11.357,0,20.254,23.28,20.254,53C174.186,149.684,165.289,172.964,153.932,172.964z M153.932,69.964
		c-8.333,0-17.255,20.091-17.255,50c0,29.909,8.922,50,17.255,50c8.332,0,17.254-20.091,17.254-50
		C171.186,90.056,162.264,69.964,153.932,69.964z"/>
</g>
</svg>
