<?xml version="1.0" encoding="utf-8"?>
<!-- Generator: Adobe Illustrator 24.0.0, SVG Export Plug-In . SVG Version: 6.00 Build 0)  -->
<svg version="1.1" id="Layer_1" xmlns="http://www.w3.org/2000/svg" xmlns:xlink="http://www.w3.org/1999/xlink" x="0px" y="0px"
	 viewBox="0 0 256 256" enable-background="new 0 0 256 256" xml:space="preserve">
<g>
	<path fill="#87796F" d="M185.658,56.212c-9.26-23.517-32.144-39.185-57.545-39.185c-25.205,0-48.026,15.502-57.387,38.769
		c-14.044,5.886-23.694,22.799-23.694,41.967s9.649,36.081,23.694,41.967c9.361,23.267,32.183,38.769,57.387,38.769
		c24.999,0,47.747-15.333,57.209-38.353c14.15-5.817,23.872-22.758,23.872-42.038C209.194,79.042,199.609,62.159,185.658,56.212z"/>
	<path fill="#3A312A" d="M128.113,180c-25.394,0-48.84-15.702-58.544-39.135c-14.403-6.379-24.037-23.602-24.037-43.102
		s9.633-36.723,24.037-43.102c9.704-23.433,33.15-39.135,58.544-39.135c25.594,0,49.105,15.871,58.709,39.558
		c14.305,6.44,23.872,23.631,23.872,43.023c0,19.616-9.709,36.871-24.225,43.181C176.668,164.471,153.298,180,128.113,180z
		 M128.113,18.527c-24.39,0-46.893,15.202-55.996,37.829c-0.15,0.372-0.442,0.669-0.812,0.824
		c-13.621,5.708-22.773,22.017-22.773,40.583c0,18.565,9.152,34.875,22.773,40.583c0.37,0.155,0.662,0.452,0.812,0.824
		C81.221,161.798,103.724,177,128.113,177c24.189,0,46.621-15.039,55.82-37.424c0.152-0.37,0.447-0.665,0.817-0.817
		c13.723-5.641,22.943-21.977,22.943-40.65c0-18.466-9.093-34.748-22.625-40.517c-0.37-0.157-0.661-0.457-0.808-0.83
		C175.257,33.893,152.692,18.527,128.113,18.527z"/>
	<path fill="#87796F" d="M178.268,135.459c-7.795,20.791-27.95,34.76-50.154,34.76c-22.386,0-42.599-14.116-50.299-35.125
		c-0.431-1.175-1.37-2.092-2.554-2.495c-11.745-3.995-19.947-18.319-19.947-34.836s8.202-30.841,19.947-34.836
		c1.185-0.403,2.123-1.32,2.554-2.495c7.7-21.009,27.913-35.125,50.299-35.125c22.554,0,42.818,14.263,50.424,35.492
		c0.423,1.18,1.357,2.105,2.541,2.516c11.679,4.049,19.835,18.356,19.835,34.793c0,16.602-8.256,30.943-20.076,34.875
		C179.651,133.379,178.707,134.288,178.268,135.459z"/>
	<path fill="#3A312A" d="M128.113,171.719c-23.013,0-43.792-14.511-51.707-36.107c-0.276-0.754-0.87-1.334-1.629-1.593
		c-12.343-4.197-20.964-19.106-20.964-36.255c0-17.149,8.621-32.058,20.964-36.256c0.759-0.258,1.353-0.838,1.628-1.591
		c7.916-21.599,28.696-36.109,51.708-36.109c23.186,0,44.018,14.663,51.836,36.486c0.271,0.757,0.861,1.342,1.62,1.604
		c12.274,4.255,20.845,19.145,20.845,36.21c0,17.239-8.678,32.166-21.104,36.299c-0.76,0.253-1.357,0.828-1.639,1.579
		C171.659,157.358,150.939,171.719,128.113,171.719z M128.113,26.808c-21.759,0-41.407,13.721-48.891,34.142
		c-0.589,1.608-1.858,2.848-3.48,3.399c-11.145,3.792-18.93,17.532-18.93,33.416s7.784,29.624,18.93,33.415
		c1.622,0.552,2.891,1.792,3.48,3.4c7.484,20.42,27.131,34.14,48.891,34.14c21.582,0,41.173-13.578,48.75-33.786v-0.001
		c0.602-1.602,1.877-2.83,3.5-3.37c11.217-3.732,19.051-17.488,19.051-33.453c0-15.808-7.742-29.532-18.827-33.376
		c-1.621-0.561-2.883-1.81-3.462-3.427C169.732,40.671,150.036,26.808,128.113,26.808z"/>
	<path fill="#8AC3DA" d="M128.113,33.757c-25.223,0-45.744,20.521-45.744,45.743v36.527c0,25.223,20.521,45.743,45.744,45.743
		c25.223,0,45.744-20.52,45.744-45.743V79.5C173.857,54.277,153.337,33.757,128.113,33.757z"/>
	<path fill="#3A312A" d="M128.113,163.27c-26.05,0-47.244-21.193-47.244-47.243V79.5c0-26.05,21.193-47.243,47.244-47.243
		c26.051,0,47.244,21.193,47.244,47.243v36.527C175.357,142.077,154.164,163.27,128.113,163.27z M128.113,35.257
		c-24.396,0-44.244,19.848-44.244,44.243v36.527c0,24.396,19.848,44.243,44.244,44.243c24.396,0,44.244-19.848,44.244-44.243V79.5
		C172.357,55.104,152.51,35.257,128.113,35.257z"/>
	<path fill="#FAE6CA" d="M159.25,46.025L82.821,122.46c-0.3-2.1-0.453-4.254-0.453-6.434v-6.834l69.041-69.041
		C154.236,41.824,156.863,43.798,159.25,46.025z"/>
	<path fill="#3A312A" d="M82.821,123.96c-0.159,0-0.319-0.025-0.475-0.077c-0.539-0.18-0.93-0.648-1.01-1.211
		c-0.311-2.177-0.468-4.413-0.468-6.646v-6.834c0-0.397,0.158-0.779,0.439-1.061l69.041-69.041c0.483-0.484,1.233-0.58,1.825-0.23
		c2.898,1.716,5.622,3.758,8.1,6.068c0.297,0.277,0.47,0.664,0.477,1.07c0.007,0.407-0.151,0.799-0.44,1.087l-76.429,76.436
		C83.596,123.807,83.213,123.96,82.821,123.96z M83.868,109.813v6.213c0,1.054,0.038,2.107,0.112,3.154l73.092-73.099
		c-1.709-1.484-3.529-2.836-5.437-4.035L83.868,109.813z"/>
	<path fill="#FAE6CA" d="M123.457,95.546l-37.715,37.715c1.287,3.16,2.914,6.141,4.84,8.895l79.895-79.902
		c-1.287-3.154-2.914-6.134-4.84-8.888l-31.758,31.759L123.457,95.546z"/>
	<path fill="#3A312A" d="M90.582,143.655c-0.043,0-0.087-0.002-0.131-0.006c-0.442-0.038-0.844-0.27-1.098-0.634
		c-1.997-2.855-3.68-5.946-5.001-9.189c-0.227-0.559-0.098-1.199,0.329-1.626l37.715-37.715c0.586-0.586,1.535-0.586,2.121,0
		c0.586,0.586,0.586,1.535,0,2.121l-37.002,37.002c0.934,2.151,2.038,4.227,3.298,6.195l77.89-77.898
		c-0.934-2.15-2.039-4.224-3.297-6.188l-30.467,30.468c-0.586,0.586-1.535,0.586-2.121,0c-0.586-0.586-0.586-1.535,0-2.121
		l31.758-31.759c0.313-0.313,0.745-0.472,1.191-0.434c0.441,0.038,0.844,0.271,1.098,0.634c1.995,2.85,3.678,5.938,5.001,9.182
		c0.229,0.559,0.099,1.2-0.328,1.627l-79.895,79.902C91.361,143.498,90.978,143.655,90.582,143.655z"/>
	<path fill="#FAE6CA" d="M173.858,79.502v6.834l-69.041,69.041c-2.827-1.673-5.454-3.647-7.848-5.881l76.435-76.435
		C173.705,75.168,173.858,77.315,173.858,79.502z"/>
	<path fill="#3A312A" d="M104.817,156.877c-0.262,0-0.526-0.068-0.764-0.209c-2.898-1.716-5.626-3.76-8.107-6.075
		c-0.297-0.277-0.469-0.664-0.477-1.07c-0.007-0.407,0.152-0.8,0.44-1.087L172.344,72c0.402-0.403,0.997-0.542,1.535-0.362
		c0.539,0.18,0.93,0.648,1.011,1.211c0.311,2.181,0.469,4.42,0.469,6.653v6.834c0,0.397-0.158,0.779-0.439,1.061l-69.041,69.041
		C105.589,156.727,105.205,156.877,104.817,156.877z M99.148,149.439c1.712,1.488,3.535,2.842,5.443,4.042l67.767-67.767v-6.213
		c0-1.056-0.038-2.112-0.112-3.162L99.148,149.439z M173.858,86.336h0.01H173.858z"/>
	<path fill="#D6DF58" d="M47.453,26.174c0,0,3.394,12.663,13.207,13.261c0,0-13.105,4.51-13.337,14.187
		c0,0-2.563-13.575-12.909-14.074C34.413,39.549,46.466,37.737,47.453,26.174z"/>
	<path fill="#3A312A" d="M47.321,55.122c-0.713,0-1.336-0.507-1.473-1.219c-0.024-0.124-2.48-12.421-11.508-12.856
		c-0.771-0.037-1.387-0.652-1.426-1.422c-0.039-0.771,0.513-1.445,1.275-1.56c0.441-0.068,10.896-1.805,11.768-12.019
		c0.062-0.725,0.636-1.3,1.361-1.365c0.72-0.063,1.392,0.4,1.582,1.104c0.032,0.116,3.246,11.629,11.85,12.154
		c0.714,0.043,1.297,0.585,1.394,1.294c0.097,0.708-0.32,1.387-0.996,1.621c-0.122,0.042-12.123,4.297-12.328,12.806
		c-0.019,0.767-0.612,1.395-1.376,1.458C47.404,55.12,47.362,55.122,47.321,55.122z M39.596,39.384
		c3.876,1.974,6.224,5.753,7.577,8.885c2.031-4.019,5.949-6.78,8.958-8.417c-4.132-1.847-6.777-5.659-8.324-8.732
		C46.01,35.478,42.529,37.982,39.596,39.384z"/>
	<path fill="#D6DF58" d="M25.735,43.13c0,0,2.4,8.957,9.341,9.38c0,0-9.27,3.19-9.434,10.035c0,0-1.813-9.602-9.131-9.955
		C16.511,52.59,25.037,51.308,25.735,43.13z"/>
	<path fill="#3A312A" d="M25.642,64.045c-0.715,0-1.338-0.508-1.473-1.222c-0.016-0.082-1.694-8.444-7.729-8.735
		c-0.77-0.037-1.387-0.652-1.426-1.422c-0.039-0.771,0.513-1.445,1.275-1.56c0.296-0.047,7.365-1.234,7.952-8.104
		c0.062-0.726,0.637-1.302,1.362-1.366c0.732-0.067,1.391,0.401,1.581,1.104l0,0c0.022,0.079,2.219,7.922,7.984,8.273
		c0.714,0.043,1.298,0.586,1.395,1.295c0.097,0.709-0.321,1.388-0.998,1.62c-0.081,0.028-8.285,2.943-8.422,8.653
		c-0.018,0.767-0.613,1.396-1.378,1.459C25.723,64.043,25.682,64.045,25.642,64.045z M21.134,52.512
		c2.105,1.335,3.519,3.398,4.44,5.285c1.379-2.231,3.519-3.868,5.371-4.967c-2.286-1.271-3.88-3.354-4.935-5.229
		C24.834,49.887,22.991,51.473,21.134,52.512z"/>
	<path fill="#D6DF58" d="M25.765,16.472c0,0,2.4,8.957,9.341,9.38c0,0-9.269,3.19-9.434,10.035c0,0-1.813-9.602-9.131-9.955
		C16.542,25.933,25.067,24.651,25.765,16.472z"/>
	<path fill="#3A312A" d="M25.671,37.388c-0.714,0-1.338-0.509-1.473-1.222c-0.016-0.082-1.694-8.444-7.729-8.735
		c-0.77-0.037-1.387-0.652-1.426-1.422c-0.039-0.771,0.513-1.445,1.275-1.56c0.296-0.047,7.365-1.234,7.952-8.104
		c0.062-0.726,0.637-1.302,1.362-1.366c0.733-0.063,1.392,0.401,1.581,1.104l0,0c0.022,0.079,2.219,7.922,7.984,8.273
		c0.714,0.043,1.298,0.586,1.395,1.295s-0.321,1.388-0.998,1.62c-0.081,0.028-8.286,2.943-8.422,8.653
		c-0.019,0.767-0.613,1.396-1.378,1.459C25.753,37.386,25.712,37.388,25.671,37.388z M21.165,25.854
		c2.105,1.335,3.519,3.398,4.441,5.285c1.378-2.231,3.519-3.868,5.37-4.967c-2.285-1.271-3.88-3.354-4.935-5.229
		C24.864,23.229,23.021,24.815,21.165,25.854z"/>
	<rect x="28.328" y="229.161" fill="#87796F" width="27" height="10.367"/>
	<path fill="#3A312A" d="M55.328,241.027h-27c-0.829,0-1.5-0.672-1.5-1.5v-10.366c0-0.828,0.671-1.5,1.5-1.5h27
		c0.829,0,1.5,0.672,1.5,1.5v10.366C56.828,240.355,56.156,241.027,55.328,241.027z M29.828,238.027h24v-7.366h-24V238.027z"/>
	<rect x="200.672" y="229.161" fill="#87796F" width="27" height="10.367"/>
	<path fill="#3A312A" d="M227.672,241.027h-27c-0.828,0-1.5-0.672-1.5-1.5v-10.366c0-0.828,0.672-1.5,1.5-1.5h27
		c0.828,0,1.5,0.672,1.5,1.5v10.366C229.172,240.355,228.5,241.027,227.672,241.027z M202.172,238.027h24v-7.366h-24V238.027z"/>
	<path fill="#87796F" d="M56.118,178.5H24.46c-4.396,0-7.96,3.564-7.96,7.96v34.741c0,4.396,3.564,7.96,7.96,7.96h207.08
		c4.396,0,7.96-3.564,7.96-7.96V186.46c0-4.396-3.564-7.96-7.96-7.96H70.441H56.118z"/>
	<path fill="#3A312A" d="M231.54,230.661H24.46c-5.216,0-9.46-4.244-9.46-9.46V186.46c0-5.216,4.244-9.46,9.46-9.46h31.658
		c0.829,0,1.5,0.672,1.5,1.5s-0.671,1.5-1.5,1.5H24.46c-3.562,0-6.46,2.898-6.46,6.46v34.741c0,3.563,2.898,6.46,6.46,6.46h207.08
		c3.562,0,6.46-2.897,6.46-6.46V186.46c0-3.563-2.898-6.46-6.46-6.46H70.441c-0.829,0-1.5-0.672-1.5-1.5s0.671-1.5,1.5-1.5H231.54
		c5.216,0,9.46,4.244,9.46,9.46v34.741C241,226.417,236.756,230.661,231.54,230.661z"/>
	<rect x="26.658" y="189.911" fill="#FAE6CA" width="60.909" height="27.667"/>
	<path fill="#3A312A" d="M87.568,219.077h-60.91c-0.829,0-1.5-0.672-1.5-1.5v-27.666c0-0.828,0.671-1.5,1.5-1.5h60.91
		c0.829,0,1.5,0.672,1.5,1.5v27.666C89.068,218.405,88.396,219.077,87.568,219.077z M28.158,216.077h57.91v-24.666h-57.91V216.077z"
		/>
	<circle fill="#D6DF58" cx="57.113" cy="203.744" r="3.917"/>
	<path fill="#3A312A" d="M57.113,209.161c-2.987,0-5.417-2.43-5.417-5.417c0-2.987,2.43-5.417,5.417-5.417s5.417,2.43,5.417,5.417
		C62.53,206.731,60.1,209.161,57.113,209.161z M57.113,201.327c-1.333,0-2.417,1.084-2.417,2.417c0,1.333,1.084,2.417,2.417,2.417
		s2.417-1.084,2.417-2.417C59.53,202.411,58.446,201.327,57.113,201.327z"/>
	<rect x="97.658" y="189.911" fill="#FAE6CA" width="60.909" height="27.667"/>
	<path fill="#3A312A" d="M158.567,219.077H97.658c-0.829,0-1.5-0.672-1.5-1.5v-27.666c0-0.828,0.671-1.5,1.5-1.5h60.909
		c0.828,0,1.5,0.672,1.5,1.5v27.666C160.067,218.405,159.395,219.077,158.567,219.077z M99.158,216.077h57.909v-24.666H99.158
		V216.077z"/>
	<circle fill="#D6DF58" cx="128.113" cy="203.744" r="3.917"/>
	<path fill="#3A312A" d="M128.113,209.161c-2.987,0-5.417-2.43-5.417-5.417c0-2.987,2.43-5.417,5.417-5.417
		c2.986,0,5.416,2.43,5.416,5.417C133.529,206.731,131.1,209.161,128.113,209.161z M128.113,201.327
		c-1.332,0-2.417,1.084-2.417,2.417c0,1.333,1.085,2.417,2.417,2.417c1.332,0,2.416-1.084,2.416-2.417
		C130.529,202.411,129.445,201.327,128.113,201.327z"/>
	<rect x="168.658" y="189.911" fill="#FAE6CA" width="60.909" height="27.667"/>
	<path fill="#3A312A" d="M229.567,219.077h-60.909c-0.828,0-1.5-0.672-1.5-1.5v-27.666c0-0.828,0.672-1.5,1.5-1.5h60.909
		c0.828,0,1.5,0.672,1.5,1.5v27.666C231.067,218.405,230.395,219.077,229.567,219.077z M170.158,216.077h57.909v-24.666h-57.909
		V216.077z"/>
	<circle fill="#D6DF58" cx="199.113" cy="203.744" r="3.917"/>
	<path fill="#3A312A" d="M199.113,209.161c-2.987,0-5.417-2.43-5.417-5.417c0-2.987,2.43-5.417,5.417-5.417
		c2.986,0,5.416,2.43,5.416,5.417C204.529,206.731,202.1,209.161,199.113,209.161z M199.113,201.327
		c-1.333,0-2.417,1.084-2.417,2.417c0,1.333,1.084,2.417,2.417,2.417c1.332,0,2.416-1.084,2.416-2.417
		C201.529,202.411,200.445,201.327,199.113,201.327z"/>
	<path fill="#DECAAD" d="M157.073,46.08l-7.86,7.86c-1.3-1.83-2.74-3.56-4.3-5.17l6.72-6.72
		C153.543,43.25,155.363,44.6,157.073,46.08z"/>
	<path fill="#DECAAD" d="M168.703,61.91l-11.74,11.74c-0.35-2.66-0.94-5.25-1.75-7.74l10.19-10.19
		C166.663,57.68,167.773,59.76,168.703,61.91z"/>
	<path fill="#DECAAD" d="M172.363,79.5v6.21l-15.01,15.01v-9.49l14.89-14.89C172.323,77.39,172.363,78.45,172.363,79.5z"/>
	<path fill="#6CA8BF" d="M142.753,46.69c-6.08-5.51-13.71-9.35-22.14-10.79c2.44-0.42,4.94-0.64,7.5-0.64
		c7.53,0,14.63,1.89,20.84,5.23L142.753,46.69z"/>
	<path fill="#6CA8BF" d="M154.083,62.8c-0.9-2.19-1.97-4.3-3.19-6.3l8.38-8.38c1.59,1.58,3.06,3.28,4.4,5.08L154.083,62.8z"/>
	<path fill="#6CA8BF" d="M157.353,79.5c0-0.66-0.01-1.31-0.05-1.96l12.59-12.59c0.86,2.44,1.5,4.98,1.91,7.59l-14.45,14.45V79.5z"/>
	<path fill="#6CA8BF" d="M172.353,89.97v26.06c0,24.39-19.84,44.24-44.24,44.24c-2.56,0-5.06-0.22-7.5-0.64
		c20.84-3.57,36.74-21.77,36.74-43.6v-11.06L172.353,89.97z"/>
</g>
</svg>
