<?xml version="1.0" encoding="utf-8"?>
<!-- Generator: Adobe Illustrator 24.0.0, SVG Export Plug-In . SVG Version: 6.00 Build 0)  -->
<svg version="1.1" id="Layer_1" xmlns="http://www.w3.org/2000/svg" xmlns:xlink="http://www.w3.org/1999/xlink" x="0px" y="0px"
	 viewBox="0 0 256 256" enable-background="new 0 0 256 256" xml:space="preserve">
<g>
	<path fill="#87796F" d="M207.23,71.151c-12.731-32.332-44.193-53.873-79.115-53.873c-34.653,0-66.028,21.313-78.899,53.302
		c-19.309,8.093-32.575,31.345-32.575,57.698s13.266,49.606,32.575,57.699c12.871,31.989,44.246,53.301,78.899,53.301
		c34.369,0,65.645-21.081,78.653-52.73c19.454-7.997,32.821-31.289,32.821-57.796C239.589,102.538,226.411,79.327,207.23,71.151z"/>
	<path fill="#3A312A" d="M128.114,240.777c-34.764,0-66.854-21.539-80.056-53.665c-19.715-8.608-32.918-32.153-32.918-58.835
		c0-26.682,13.203-50.227,32.918-58.835c13.202-32.126,45.292-53.665,80.056-53.665c35.036,0,67.217,21.774,80.28,54.244
		c19.582,8.692,32.694,32.195,32.694,58.73c0,26.841-13.305,50.429-33.172,58.94C194.578,219.47,162.59,240.777,128.114,240.777z
		 M128.114,18.777c-33.759,0-64.906,21.043-77.507,52.361c-0.15,0.372-0.442,0.669-0.812,0.824
		c-18.934,7.936-31.655,30.566-31.655,56.314c0,25.748,12.721,48.379,31.655,56.314c0.37,0.155,0.662,0.452,0.812,0.824
		c12.601,31.318,43.749,52.361,77.507,52.361c33.48,0,64.531-20.816,77.266-51.8c0.152-0.37,0.446-0.665,0.817-0.817
		c19.075-7.841,31.892-30.51,31.892-56.408c0-25.609-12.638-48.203-31.448-56.222c-0.369-0.157-0.66-0.457-0.807-0.83
		C193.37,40.045,162.137,18.777,128.114,18.777z"/>
	<path fill="#87796F" d="M197.069,180.103c-10.717,28.585-38.427,47.79-68.955,47.79c-30.777,0-58.568-19.407-69.154-48.291
		c-0.592-1.616-1.883-2.877-3.512-3.431c-16.147-5.492-27.424-25.186-27.424-47.894s11.277-42.401,27.424-47.894
		c1.629-0.554,2.919-1.815,3.512-3.431c10.586-28.884,38.377-48.291,69.154-48.291c31.009,0,58.869,19.61,69.325,48.796
		c0.581,1.622,1.866,2.894,3.494,3.459c16.056,5.566,27.27,25.237,27.27,47.835c0,22.825-11.35,42.542-27.602,47.948
		C198.971,177.243,197.673,178.494,197.069,180.103z"/>
	<path fill="#3A312A" d="M128.114,229.393c-31.404,0-59.76-19.802-70.562-49.274c-0.439-1.195-1.382-2.117-2.587-2.527
		c-16.745-5.695-28.44-25.974-28.44-49.314c0-23.34,11.695-43.618,28.441-49.313c1.205-0.41,2.147-1.331,2.586-2.527
		c10.802-29.473,39.158-49.274,70.562-49.274c31.64,0,60.067,20.009,70.737,49.79c0.43,1.201,1.368,2.13,2.573,2.548
		c16.65,5.772,28.279,26.025,28.279,49.252c0,23.462-11.773,43.765-28.628,49.371c-1.207,0.402-2.156,1.316-2.603,2.507
		C187.539,209.797,159.263,229.393,128.114,229.393z M128.114,30.162c-30.15,0-57.375,19.012-67.745,47.308
		c-0.752,2.052-2.37,3.631-4.437,4.334c-15.548,5.288-26.407,24.399-26.407,46.474c0,22.074,10.859,41.186,26.407,46.474
		c2.068,0.704,3.685,2.283,4.437,4.334c10.37,28.296,37.595,47.308,67.745,47.308c29.905,0,57.052-18.813,67.551-46.815l0,0
		c0.766-2.044,2.393-3.611,4.464-4.3c15.647-5.206,26.575-24.337,26.575-46.525c0-21.97-10.799-41.058-26.262-46.418
		c-2.068-0.717-3.677-2.31-4.415-4.37C185.784,49.372,158.491,30.162,128.114,30.162z"/>
	<path fill="#89C4DB" d="M65.224,128.707v24.681c0,34.677,28.213,62.89,62.891,62.89c34.679,0,62.891-28.213,62.891-62.89v-50.22
		c0-34.678-28.213-62.89-62.891-62.89c-34.678,0-62.891,28.213-62.891,62.89v10.68V128.707z"/>
	<path fill="#3A312A" d="M128.114,217.777c-35.505,0-64.391-28.885-64.391-64.39v-24.681c0-0.828,0.671-1.5,1.5-1.5
		c0.829,0,1.5,0.672,1.5,1.5v24.681c0,33.851,27.54,61.39,61.391,61.39s61.391-27.539,61.391-61.39v-50.22
		c0-33.851-27.54-61.391-61.391-61.391s-61.391,27.54-61.391,61.391v10.68c0,0.828-0.671,1.5-1.5,1.5c-0.829,0-1.5-0.672-1.5-1.5
		v-10.68c0-35.505,28.886-64.391,64.391-64.391c35.505,0,64.391,28.886,64.391,64.391v50.22
		C192.505,188.893,163.62,217.777,128.114,217.777z"/>
	<path fill="#FCE8CB" d="M170.923,57.144L65.845,162.231c-0.412-2.887-0.623-5.848-0.623-8.846v-9.396l94.921-94.921
		C164.029,51.369,167.641,54.083,170.923,57.144z"/>
	<path fill="#3A312A" d="M65.845,163.73c-0.159,0-0.319-0.025-0.474-0.077c-0.539-0.18-0.93-0.648-1.011-1.211
		c-0.424-2.965-0.639-6.012-0.639-9.058v-9.395c0-0.398,0.158-0.779,0.439-1.061l94.921-94.921c0.485-0.483,1.235-0.579,1.825-0.23
		c3.948,2.337,7.662,5.12,11.04,8.271c0.297,0.277,0.469,0.664,0.477,1.07c0.007,0.407-0.152,0.799-0.439,1.087L66.906,163.291
		C66.62,163.577,66.237,163.73,65.845,163.73z M66.722,144.61v8.774c0,1.871,0.085,3.743,0.253,5.594L168.75,57.196
		c-2.614-2.318-5.423-4.409-8.378-6.236L66.722,144.61z"/>
	<path fill="#FCE8CB" d="M129.317,117.624L69.86,177.081c1.769,4.345,4.006,8.443,6.655,12.229L186.359,79.456
		c-1.769-4.336-4.006-8.433-6.655-12.219l-39.89,39.89L129.317,117.624z"/>
	<path fill="#3A312A" d="M76.515,190.81c-0.043,0-0.087-0.002-0.131-0.006c-0.442-0.039-0.844-0.27-1.098-0.634
		c-2.724-3.894-5.017-8.107-6.815-12.523c-0.228-0.559-0.098-1.199,0.329-1.626l59.456-59.457c0.586-0.586,1.535-0.586,2.121,0
		c0.586,0.586,0.586,1.535,0,2.121l-58.746,58.747c1.417,3.324,3.129,6.521,5.107,9.533l107.85-107.858
		c-1.419-3.322-3.131-6.517-5.107-9.525l-38.606,38.606c-0.586,0.586-1.535,0.586-2.121,0c-0.586-0.586-0.586-1.535,0-2.121
		l39.89-39.891c0.313-0.313,0.751-0.474,1.191-0.434c0.442,0.039,0.844,0.271,1.098,0.634c2.721,3.89,5.014,8.1,6.814,12.514
		c0.228,0.559,0.099,1.2-0.328,1.627L77.576,190.37C77.294,190.652,76.911,190.81,76.515,190.81z"/>
	<path fill="#FCE8CB" d="M191.007,103.17v9.396l-94.921,94.921c-3.887-2.301-7.498-5.014-10.789-8.085L190.384,94.315
		C190.796,97.212,191.007,100.163,191.007,103.17z"/>
	<path fill="#3A312A" d="M96.085,208.986c-0.262,0-0.526-0.068-0.764-0.209c-3.95-2.339-7.668-5.124-11.048-8.279
		c-0.297-0.277-0.469-0.664-0.477-1.071c-0.007-0.406,0.152-0.799,0.439-1.086L189.323,93.255c0.402-0.402,0.997-0.543,1.535-0.362
		c0.539,0.18,0.93,0.648,1.01,1.212c0.423,2.976,0.638,6.025,0.638,9.065v9.396c0,0.397-0.158,0.779-0.439,1.061l-94.921,94.921
		C96.857,208.836,96.474,208.986,96.085,208.986z M87.469,199.351c2.618,2.321,5.43,4.415,8.387,6.244l93.65-93.65v-8.774
		c0-1.871-0.085-3.746-0.254-5.603L87.469,199.351z M191.007,112.565h0.01H191.007z"/>
	<path fill="#D7E057" d="M47.353,26.424c0,0,3.394,12.663,13.207,13.261c0,0-13.105,4.51-13.337,14.187
		c0,0-2.563-13.575-12.909-14.074C34.313,39.799,46.366,37.987,47.353,26.424z"/>
	<path fill="#3A312A" d="M47.221,55.372c-0.713,0-1.336-0.507-1.473-1.219c-0.024-0.124-2.48-12.421-11.507-12.856
		c-0.771-0.037-1.387-0.652-1.426-1.422c-0.039-0.771,0.513-1.445,1.275-1.56c0.441-0.068,10.896-1.805,11.768-12.019
		c0.062-0.725,0.636-1.3,1.361-1.365c0.72-0.068,1.392,0.4,1.582,1.104c0.032,0.116,3.246,11.629,11.85,12.154
		c0.714,0.043,1.297,0.585,1.394,1.294c0.097,0.708-0.32,1.387-0.996,1.621c-0.122,0.042-12.123,4.297-12.328,12.806
		c-0.019,0.767-0.612,1.395-1.376,1.458C47.303,55.37,47.262,55.372,47.221,55.372z M39.496,39.634
		c3.875,1.974,6.224,5.753,7.577,8.886c2.031-4.02,5.949-6.781,8.958-8.418c-4.132-1.847-6.776-5.659-8.324-8.732
		C45.91,35.728,42.429,38.232,39.496,39.634z"/>
	<path fill="#D7E057" d="M25.635,43.38c0,0,2.401,8.957,9.341,9.38c0,0-9.27,3.19-9.434,10.034c0,0-1.813-9.602-9.131-9.954
		C16.411,52.84,24.936,51.558,25.635,43.38z"/>
	<path fill="#3A312A" d="M25.541,64.295c-0.714,0-1.338-0.509-1.473-1.222c-0.016-0.082-1.694-8.444-7.729-8.735
		c-0.77-0.037-1.387-0.652-1.426-1.422c-0.039-0.771,0.513-1.445,1.275-1.56c0.296-0.047,7.366-1.234,7.952-8.104
		c0.062-0.726,0.637-1.302,1.362-1.366c0.733-0.063,1.391,0.401,1.581,1.104l0,0c0.021,0.079,2.219,7.922,7.984,8.273
		c0.714,0.043,1.298,0.586,1.395,1.295c0.097,0.709-0.321,1.388-0.998,1.62c-0.081,0.028-8.286,2.943-8.422,8.653
		c-0.019,0.767-0.613,1.396-1.377,1.459C25.623,64.293,25.581,64.295,25.541,64.295z M21.034,52.762
		c2.105,1.335,3.519,3.398,4.441,5.285c1.378-2.232,3.52-3.868,5.37-4.967c-2.285-1.271-3.88-3.354-4.934-5.229
		C24.734,50.137,22.891,51.723,21.034,52.762z"/>
	<path fill="#D7E057" d="M25.665,16.722c0,0,2.4,8.957,9.341,9.38c0,0-9.27,3.19-9.434,10.035c0,0-1.813-9.602-9.131-9.955
		C16.442,26.183,24.967,24.901,25.665,16.722z"/>
	<path fill="#3A312A" d="M25.571,37.638c-0.714,0-1.338-0.509-1.473-1.222c-0.016-0.082-1.694-8.444-7.729-8.735
		c-0.77-0.037-1.387-0.652-1.426-1.422c-0.039-0.771,0.513-1.445,1.275-1.56c0.296-0.047,7.365-1.234,7.952-8.104
		c0.062-0.726,0.637-1.302,1.362-1.366c0.734-0.065,1.392,0.401,1.581,1.104l0,0c0.021,0.079,2.219,7.922,7.984,8.273
		c0.714,0.043,1.298,0.586,1.395,1.295c0.097,0.709-0.321,1.388-0.998,1.62c-0.081,0.028-8.286,2.943-8.422,8.653
		c-0.019,0.767-0.613,1.396-1.378,1.459C25.653,37.636,25.612,37.638,25.571,37.638z M21.065,26.104
		c2.105,1.335,3.518,3.398,4.44,5.285c1.378-2.231,3.52-3.868,5.37-4.967c-2.285-1.271-3.88-3.354-4.935-5.229
		C24.764,23.479,22.921,25.065,21.065,26.104z"/>
	<path fill="#DECAAD" d="M168.754,57.197l-7.69,7.69c-2.15-2.7-4.53-5.22-7.11-7.51l6.42-6.42
		C163.324,52.787,166.134,54.878,168.754,57.197z"/>
	<path fill="#DECAAD" d="M184.584,79.108l-11.4,11.4c-0.81-3.86-1.98-7.59-3.48-11.15l9.78-9.78
		C181.454,72.588,183.164,75.777,184.584,79.108z"/>
	<path fill="#DECAAD" d="M189.504,103.168v8.78l-15,15v-14.63l14.75-14.75C189.424,99.427,189.504,101.298,189.504,103.168z"/>
	<path fill="#6CA8BF" d="M157.704,49.387l-6.04,6.04c-8.71-7.05-19.38-11.76-31.05-13.19c2.46-0.31,4.96-0.46,7.5-0.46
		C138.834,41.778,148.924,44.537,157.704,49.387z"/>
	<path fill="#6CA8BF" d="M177.744,67.077l-9.37,9.37c-1.56-3.22-3.39-6.28-5.48-9.15l8.06-8.06
		C173.434,61.648,175.704,64.277,177.744,67.077z"/>
	<path fill="#6CA8BF" d="M174.504,103.168c0-3.08-0.23-6.1-0.67-9.06l11.96-11.96c1.37,3.73,2.38,7.63,2.99,11.65l-14.28,14.28
		V103.168z"/>
	<path fill="#6CA8BF" d="M189.504,116.187v37.2c0,33.85-27.54,61.39-61.39,61.39c-2.54,0-5.04-0.15-7.5-0.46
		c30.33-3.71,53.89-29.62,53.89-60.93v-22.2L189.504,116.187z"/>
</g>
</svg>
