<?xml version="1.0" encoding="utf-8"?>
<!-- Generator: Adobe Illustrator 24.0.0, SVG Export Plug-In . SVG Version: 6.00 Build 0)  -->
<svg version="1.1" id="Layer_1" xmlns="http://www.w3.org/2000/svg" xmlns:xlink="http://www.w3.org/1999/xlink" x="0px" y="0px"
	 viewBox="0 0 256 256" enable-background="new 0 0 256 256" xml:space="preserve">
<g>
	<path fill="#D7E057" d="M212.946,26.161c0,0,3.408,12.659,13.222,13.246c0,0-13.1,4.525-13.321,14.202
		c0,0-2.579-13.572-12.925-14.059C199.921,39.551,211.972,37.725,212.946,26.161z"/>
	<path fill="#3A312A" d="M212.846,55.109c-0.713,0-1.335-0.506-1.473-1.217c-0.023-0.124-2.494-12.417-11.522-12.842
		c-0.771-0.037-1.388-0.651-1.428-1.421c-0.04-0.771,0.511-1.445,1.273-1.561c0.441-0.069,10.895-1.817,11.754-12.033
		c0.062-0.725,0.635-1.301,1.359-1.367c0.737-0.064,1.393,0.399,1.584,1.102c0.031,0.116,3.259,11.626,11.864,12.141
		c0.714,0.043,1.298,0.584,1.396,1.292c0.098,0.708-0.318,1.388-0.994,1.623c-0.121,0.042-12.119,4.31-12.313,12.819
		c-0.018,0.767-0.61,1.396-1.375,1.46C212.93,55.107,212.888,55.109,212.846,55.109z M205.105,39.379
		c3.878,1.969,6.23,5.746,7.587,8.877c2.026-4.022,5.941-6.787,8.949-8.427c-4.135-1.842-6.784-5.651-8.335-8.722
		C211.513,35.466,208.035,37.975,205.105,39.379z"/>
	<path fill="#D7E057" d="M191.247,43.142c0,0,2.411,8.954,9.352,9.369c0,0-9.266,3.201-9.422,10.045c0,0-1.824-9.6-9.142-9.944
		C182.035,52.612,190.558,51.321,191.247,43.142z"/>
	<path fill="#3A312A" d="M191.176,64.057c-0.714,0-1.337-0.507-1.473-1.22c-0.016-0.082-1.704-8.442-7.739-8.726
		c-0.77-0.037-1.388-0.651-1.428-1.421c-0.04-0.771,0.511-1.445,1.273-1.561c0.296-0.047,7.364-1.243,7.942-8.114
		c0.062-0.726,0.636-1.303,1.361-1.368c0.718-0.059,1.392,0.399,1.581,1.101l0,0c0.022,0.079,2.229,7.92,7.994,8.265
		c0.714,0.043,1.299,0.584,1.396,1.293c0.097,0.709-0.32,1.388-0.996,1.622c-0.081,0.028-8.282,2.952-8.412,8.662
		c-0.018,0.767-0.611,1.397-1.376,1.461C191.259,64.055,191.217,64.057,191.176,64.057z M186.656,52.529
		c2.107,1.333,3.523,3.395,4.447,5.28c1.376-2.232,3.516-3.872,5.365-4.973c-2.287-1.269-3.884-3.35-4.941-5.223
		C190.355,49.899,188.513,51.488,186.656,52.529z"/>
	<path fill="#D7E057" d="M191.247,16.484c0,0,2.411,8.954,9.352,9.37c0,0-9.266,3.201-9.422,10.045c0,0-1.824-9.6-9.142-9.944
		C182.035,25.955,190.558,24.663,191.247,16.484z"/>
	<path fill="#3A312A" d="M191.176,37.399c-0.714,0-1.337-0.507-1.473-1.22c-0.016-0.082-1.704-8.442-7.739-8.726
		c-0.77-0.037-1.388-0.651-1.428-1.421c-0.04-0.771,0.511-1.445,1.273-1.56c0.296-0.047,7.364-1.243,7.942-8.113
		c0.062-0.726,0.636-1.303,1.361-1.368c0.718-0.058,1.392,0.399,1.581,1.102l0,0c0.022,0.079,2.229,7.92,7.994,8.265
		c0.714,0.043,1.299,0.585,1.396,1.294c0.097,0.709-0.32,1.388-0.996,1.622c-0.081,0.028-8.282,2.952-8.412,8.662
		c-0.018,0.767-0.611,1.397-1.376,1.461C191.259,37.398,191.217,37.399,191.176,37.399z M186.656,25.872
		c2.107,1.332,3.523,3.394,4.447,5.28c1.376-2.233,3.516-3.872,5.365-4.973c-2.287-1.269-3.884-3.35-4.941-5.224
		C190.355,23.242,188.513,24.831,186.656,25.872z"/>
	<path fill="#87796F" d="M58.652,22.025v20.95h-18.86c-2.286,0-4.14-1.853-4.14-4.14V26.164c0-2.286,1.853-4.14,4.14-4.14H58.652z"
		/>
	<path fill="#3A312A" d="M58.652,44.475h-18.86c-3.109,0-5.64-2.53-5.64-5.64V26.164c0-3.11,2.53-5.64,5.64-5.64h18.86
		c0.828,0,1.5,0.671,1.5,1.5v20.95C60.152,43.803,59.48,44.475,58.652,44.475z M39.792,23.524c-1.455,0-2.64,1.184-2.64,2.64v12.671
		c0,1.456,1.185,2.64,2.64,2.64h17.36v-17.95H39.792z"/>
	<path fill="#F16C7A" d="M126.382,239.516h34.832c27.863-14.636,46.877-43.836,46.877-77.494c0-48.324-39.174-87.498-87.498-87.498
		s-87.498,39.174-87.498,87.498c0,33.657,19.014,62.858,46.877,77.494h31.497H126.382z"/>
	<path fill="#3A312A" d="M161.214,241.016h-34.832c-0.828,0-1.5-0.671-1.5-1.5c0-0.829,0.672-1.5,1.5-1.5h34.46
		c28.229-14.98,45.749-44.065,45.749-75.994c0-47.419-38.578-85.998-85.998-85.998s-85.998,38.579-85.998,85.998
		c0,31.929,17.521,61.014,45.748,75.994h31.126c0.828,0,1.5,0.671,1.5,1.5c0,0.829-0.672,1.5-1.5,1.5H79.971
		c-0.243,0-0.482-0.059-0.697-0.172c-29.409-15.448-47.679-45.651-47.679-78.822c0-49.074,39.925-88.998,88.998-88.998
		c49.073,0,88.998,39.924,88.998,88.998c0,33.17-18.27,63.373-47.68,78.822C161.696,240.957,161.457,241.016,161.214,241.016z"/>
	<polygon fill="#D7E057" points="97.297,67.077 145.718,67.077 145.718,48.511 145.718,48.511 97.297,48.511 	"/>
	<path fill="#3A312A" d="M145.718,68.577H97.297c-0.828,0-1.5-0.671-1.5-1.5V48.511c0-0.829,0.672-1.5,1.5-1.5h48.421
		c0.828,0,1.5,0.671,1.5,1.5v18.566C147.218,67.905,146.546,68.577,145.718,68.577z M98.797,65.577h45.421V50.011H98.797V65.577z"/>
	<path fill="#D7E057" d="M111.147,86.891h54.344V75.946c0-4.898-3.971-8.869-8.869-8.869h-72.06c-4.898,0-8.869,3.971-8.869,8.869
		v10.945h20.344H111.147z"/>
	<path fill="#3A312A" d="M165.491,88.391h-54.344c-0.828,0-1.5-0.671-1.5-1.5c0-0.829,0.672-1.5,1.5-1.5h52.844v-9.445
		c0-4.064-3.306-7.369-7.369-7.369h-72.06c-4.062,0-7.368,3.306-7.368,7.369v9.445h18.844c0.828,0,1.5,0.671,1.5,1.5
		c0,0.829-0.672,1.5-1.5,1.5H75.694c-0.828,0-1.5-0.671-1.5-1.5V75.946c0-5.718,4.651-10.369,10.368-10.369h72.06
		c5.718,0,10.369,4.651,10.369,10.369v10.945C166.991,87.719,166.319,88.391,165.491,88.391z"/>
	<path fill="#87796F" d="M173.332,48.515c0-17.69-14.34-32.03-32.03-32.03H55.975h-0.003v0.008L30.217,93.794
		c-1.595,4.788,1.969,9.731,7.015,9.731l0,0c2.452,0,4.745-1.215,6.12-3.245l35.089-51.765L173.332,48.515L173.332,48.515z"/>
	<path fill="#3A312A" d="M37.232,105.025c-2.894,0-5.523-1.346-7.215-3.693c-1.692-2.347-2.139-5.267-1.224-8.012l25.742-77.261
		c0.186-0.619,0.759-1.074,1.437-1.074h85.33c18.488,0,33.529,15.041,33.529,33.53c0,0.829-0.672,1.5-1.5,1.5H79.236l-34.642,51.107
		C42.937,103.565,40.185,105.025,37.232,105.025z M57.057,17.984L31.64,94.268c-0.605,1.819-0.31,3.754,0.812,5.31
		c1.121,1.555,2.863,2.447,4.781,2.447c1.957,0,3.78-0.967,4.879-2.587L77.2,47.673c0.278-0.412,0.744-0.658,1.241-0.658h93.355
		c-0.784-16.141-14.162-29.03-30.493-29.03H57.057z"/>
	<path fill="#D04E5D" d="M164.973,88.391h-15c24.92,15.08,41.62,42.44,41.62,73.63c0,31.93-17.52,61.02-45.75,75.99h15
		c28.23-14.97,45.75-44.06,45.75-75.99C206.593,130.831,189.893,103.471,164.973,88.391z"/>
</g>
</svg>
