<?xml version="1.0" encoding="utf-8"?>
<!-- Generator: Adobe Illustrator 24.0.0, SVG Export Plug-In . SVG Version: 6.00 Build 0)  -->
<svg version="1.1" id="Layer_1" xmlns="http://www.w3.org/2000/svg" xmlns:xlink="http://www.w3.org/1999/xlink" x="0px" y="0px"
	 viewBox="0 0 256 256" enable-background="new 0 0 256 256" xml:space="preserve">
<g>
	<path fill="#D6DF58" d="M47.39,26.174c0,0,3.394,12.663,13.207,13.261c0,0-13.105,4.51-13.337,14.187
		c0,0-2.563-13.575-12.909-14.074C34.351,39.549,46.403,37.737,47.39,26.174z"/>
	<path fill="#3A312A" d="M47.259,55.122c-0.714,0-1.337-0.507-1.473-1.219c-0.023-0.124-2.479-12.421-11.508-12.856
		c-0.771-0.037-1.387-0.652-1.426-1.422c-0.039-0.771,0.513-1.445,1.275-1.56c0.441-0.068,10.896-1.805,11.769-12.019
		c0.062-0.725,0.636-1.3,1.36-1.365c0.718-0.063,1.393,0.4,1.582,1.104c0.031,0.116,3.245,11.629,11.851,12.154
		c0.713,0.043,1.297,0.585,1.394,1.294c0.098,0.708-0.32,1.387-0.996,1.621c-0.121,0.042-12.123,4.297-12.327,12.806
		c-0.019,0.767-0.612,1.395-1.377,1.458C47.342,55.12,47.3,55.122,47.259,55.122z M39.534,39.384
		c3.876,1.974,6.224,5.753,7.576,8.885c2.032-4.019,5.95-6.78,8.959-8.417c-4.132-1.847-6.776-5.659-8.324-8.732
		C45.947,35.478,42.467,37.982,39.534,39.384z"/>
	<path fill="#D6DF58" d="M25.673,43.13c0,0,2.4,8.957,9.341,9.38c0,0-9.269,3.19-9.434,10.035c0,0-1.813-9.602-9.131-9.955
		C16.449,52.59,24.974,51.308,25.673,43.13z"/>
	<path fill="#3A312A" d="M25.579,64.045c-0.715,0-1.338-0.508-1.473-1.222c-0.016-0.082-1.695-8.444-7.729-8.735
		c-0.771-0.037-1.387-0.652-1.426-1.422c-0.039-0.771,0.513-1.445,1.275-1.56c0.296-0.047,7.365-1.234,7.952-8.104
		c0.062-0.726,0.636-1.302,1.361-1.366c0.735-0.057,1.392,0.401,1.581,1.104l0,0c0.021,0.079,2.219,7.922,7.983,8.273
		c0.715,0.043,1.299,0.586,1.396,1.295c0.097,0.709-0.321,1.388-0.998,1.62c-0.081,0.028-8.285,2.943-8.422,8.653
		c-0.019,0.767-0.613,1.396-1.378,1.459C25.661,64.043,25.619,64.045,25.579,64.045z M21.071,52.512
		c2.106,1.336,3.519,3.398,4.441,5.285c1.379-2.231,3.52-3.868,5.37-4.967c-2.285-1.271-3.88-3.354-4.935-5.229
		C24.772,49.887,22.929,51.473,21.071,52.512z"/>
	<path fill="#D6DF58" d="M25.703,16.472c0,0,2.4,8.957,9.341,9.38c0,0-9.269,3.19-9.433,10.035c0,0-1.813-9.602-9.131-9.955
		C16.48,25.933,25.005,24.651,25.703,16.472z"/>
	<path fill="#3A312A" d="M25.609,37.388c-0.715,0-1.338-0.509-1.473-1.222c-0.016-0.082-1.694-8.444-7.729-8.735
		c-0.771-0.037-1.387-0.652-1.426-1.422c-0.039-0.771,0.513-1.445,1.275-1.56c0.296-0.047,7.365-1.234,7.952-8.104
		c0.062-0.726,0.636-1.302,1.361-1.366c0.736-0.06,1.392,0.401,1.581,1.104l0,0c0.021,0.079,2.219,7.922,7.983,8.273
		c0.715,0.043,1.299,0.586,1.396,1.295s-0.321,1.388-0.998,1.62c-0.081,0.028-8.285,2.943-8.422,8.653
		c-0.019,0.767-0.613,1.396-1.378,1.459C25.691,37.386,25.649,37.388,25.609,37.388z M21.103,25.854
		c2.105,1.335,3.519,3.398,4.44,5.285c1.379-2.23,3.52-3.868,5.37-4.967c-2.285-1.271-3.88-3.354-4.935-5.229
		C24.803,23.229,22.959,24.815,21.103,25.854z"/>
	<rect x="30.301" y="114.922" fill="#87796F" width="195.5" height="124.606"/>
	<path fill="#3A312A" d="M225.801,241.027h-195.5c-0.828,0-1.5-0.672-1.5-1.5V114.922c0-0.828,0.672-1.5,1.5-1.5h195.5
		c0.828,0,1.5,0.672,1.5,1.5v124.605C227.301,240.355,226.629,241.027,225.801,241.027z M31.801,238.027h192.5V116.422h-192.5
		V238.027z"/>
	<polygon fill="#87796F" points="50.369,86 16.551,86 16.551,114.923 239.551,114.923 239.551,86 64.733,86 	"/>
	<path fill="#3A312A" d="M239.551,116.423h-223c-0.828,0-1.5-0.672-1.5-1.5V86c0-0.828,0.672-1.5,1.5-1.5h33.818
		c0.828,0,1.5,0.672,1.5,1.5s-0.672,1.5-1.5,1.5H18.051v25.923h220V87.5H64.732c-0.828,0-1.5-0.672-1.5-1.5s0.672-1.5,1.5-1.5
		h174.818c0.828,0,1.5,0.672,1.5,1.5v28.923C241.051,115.751,240.379,116.423,239.551,116.423z"/>
	<polygon fill="#D7E057" points="145.717,155.081 145.717,114.922 110.384,114.922 110.384,239.527 145.717,239.527 
		145.717,169.919 	"/>
	<path fill="#3A312A" d="M145.718,241.027h-35.334c-0.828,0-1.5-0.672-1.5-1.5V114.922c0-0.828,0.672-1.5,1.5-1.5h35.334
		c0.828,0,1.5,0.672,1.5,1.5v40.159c0,0.828-0.672,1.5-1.5,1.5c-0.828,0-1.5-0.672-1.5-1.5v-38.659h-32.334v121.605h32.334v-68.108
		c0-0.828,0.672-1.5,1.5-1.5c0.828,0,1.5,0.672,1.5,1.5v69.608C147.218,240.355,146.546,241.027,145.718,241.027z"/>
	<rect x="110.384" y="86" fill="#D7E057" width="35.333" height="28.923"/>
	<path fill="#3A312A" d="M145.718,116.424h-35.334c-0.828,0-1.5-0.672-1.5-1.5V86c0-0.828,0.672-1.5,1.5-1.5h35.334
		c0.828,0,1.5,0.672,1.5,1.5v28.924C147.218,115.752,146.546,116.424,145.718,116.424z M111.884,113.424h32.334V87.5h-32.334
		V113.424z"/>
	<path fill-rule="evenodd" clip-rule="evenodd" fill="#EB6E7A" d="M183.266,43.996c-4.562-6.303-15.09-10.716-22.877-7.943
		c-0.005,0-0.019-0.018-0.021-0.027c-0.039-8.262-7.755-16.663-15.228-18.817c-9.516-2.743-19.276,2.467-24.011,10.811
		c-7.406,13.049-4.093,33.541,0.151,46.718c0.968,3.008,2.188,7.803,4.927,9.816c0.002,0.002,0.118,0.083,0.12,0.084
		c2.822,1.895,7.747,1.417,10.905,1.308c13.836-0.474,34.238-4.304,44.003-15.695C187.48,62.967,189.073,52.02,183.266,43.996z"/>
	<path fill="#3A312A" d="M133.154,87.579c-2.68,0-5.575-0.294-7.663-1.696v-0.001c-0.056-0.035-0.115-0.077-0.172-0.12v0.001
		c-2.829-2.078-4.16-6.368-5.133-9.501c-0.116-0.373-0.227-0.729-0.334-1.064c-9.146-28.396-2.334-43.857-0.028-47.918
		c5.436-9.578,16.023-14.311,25.73-11.512c7.304,2.105,15.113,9.775,16.188,18.342c8.341-1.823,18.379,2.982,22.738,9.007l0,0
		c5.929,8.19,5.063,19.75-2.107,28.111c-3.04,3.546-15.275,15.195-45.091,16.218c-0.353,0.012-0.728,0.029-1.119,0.047
		C135.237,87.533,134.212,87.579,133.154,87.579z M127.168,83.396c2.094,1.402,6.006,1.224,8.862,1.1
		c0.402-0.019,0.787-0.035,1.149-0.048c14.897-0.511,33.995-4.766,42.917-15.173c6.162-7.188,6.984-17.449,1.954-24.398l0,0
		c-4.06-5.609-13.97-9.972-21.159-7.41c-0.782,0.279-1.722-0.211-1.961-1.01c-0.041-0.137-0.063-0.28-0.063-0.424
		c-0.029-6.302-5.846-14.99-14.143-17.382c-8.244-2.375-17.618,1.876-22.291,10.109c-6.767,11.922-4.295,31.331,0.274,45.518
		c0.11,0.344,0.225,0.711,0.344,1.094c0.848,2.731,2.009,6.472,4.037,7.968L127.168,83.396z M160.367,36.025h0.01H160.367z"/>
	<path fill-rule="evenodd" clip-rule="evenodd" fill="#EB6E7A" d="M75.347,43.996c4.562-6.303,15.09-10.716,22.877-7.943
		c0.005,0,0.019-0.018,0.021-0.027c0.039-8.262,7.755-16.663,15.228-18.817c9.516-2.743,19.276,2.467,24.012,10.811
		c7.406,13.049,4.093,33.541-0.152,46.718c-0.968,3.008-2.188,7.803-4.927,9.816c-0.002,0.002-0.118,0.083-0.12,0.084
		c-2.822,1.895-7.747,1.417-10.905,1.308c-13.836-0.474-34.238-4.304-44.003-15.695C71.134,62.967,69.54,52.02,75.347,43.996z"/>
	<path fill="#3A312A" d="M125.459,87.579c-1.059,0-2.082-0.046-3.01-0.087c-0.392-0.018-0.767-0.035-1.119-0.047
		c-29.815-1.022-42.051-12.672-45.091-16.218c-7.169-8.361-8.035-19.921-2.107-28.111c4.361-6.026,14.399-10.837,22.738-9.007
		c1.074-8.566,8.884-16.236,16.188-18.342c9.713-2.801,20.295,1.933,25.73,11.512c2.306,4.061,9.117,19.522-0.028,47.919
		c-0.107,0.334-0.218,0.691-0.334,1.064c-0.973,3.133-2.304,7.423-5.133,9.501v-0.001c-0.057,0.043-0.116,0.085-0.172,0.12v0.001
		C131.034,87.285,128.138,87.579,125.459,87.579z M93.113,36.716c-6.339,0-13.31,3.682-16.551,8.16l0,0
		c-5.03,6.949-4.208,17.211,1.954,24.398c8.922,10.407,28.02,14.662,42.917,15.173c0.362,0.013,0.747,0.029,1.149,0.048
		c2.855,0.124,6.769,0.303,8.862-1.1l0.079-0.056c2.028-1.496,3.189-5.236,4.037-7.968c0.119-0.383,0.233-0.75,0.344-1.093
		c4.569-14.188,7.041-33.598,0.274-45.519c-4.673-8.233-14.049-12.483-22.291-10.109c-8.297,2.392-14.113,11.08-14.143,17.382
		c-0.001,0.144-0.022,0.287-0.063,0.424c-0.239,0.8-1.177,1.291-1.961,1.01C96.272,36.95,94.713,36.716,93.113,36.716z
		 M75.348,43.996h0.01H75.348z"/>
	<rect x="209.301" y="116.42" fill="#6A5C52" width="15" height="121.61"/>
	<rect x="223.051" y="87.5" fill="#6A5C52" width="15" height="25.92"/>
</g>
</svg>
