<?xml version="1.0" encoding="utf-8"?>
<!-- Generator: Adobe Illustrator 24.0.0, SVG Export Plug-In . SVG Version: 6.00 Build 0)  -->
<svg version="1.1" id="Layer_1" xmlns="http://www.w3.org/2000/svg" xmlns:xlink="http://www.w3.org/1999/xlink" x="0px" y="0px"
	 viewBox="0 0 256 256" enable-background="new 0 0 256 256" xml:space="preserve">
<g>
	<path fill="#D7E057" d="M70.32,26.1c0,0,3.394,12.663,13.207,13.261c0,0-13.105,4.51-13.337,14.187c0,0-2.563-13.575-12.909-14.074
		C57.28,39.474,69.333,37.662,70.32,26.1z"/>
	<path fill="#3A312A" d="M70.188,55.047c-0.713,0-1.336-0.507-1.473-1.219c-0.024-0.125-2.48-12.421-11.508-12.856
		c-0.77-0.037-1.387-0.652-1.426-1.422c-0.039-0.77,0.512-1.444,1.275-1.559c0.441-0.068,10.897-1.805,11.768-12.018
		c0.062-0.725,0.636-1.3,1.361-1.366c0.722-0.069,1.392,0.4,1.582,1.103c0.032,0.116,3.246,11.63,11.85,12.155
		c0.714,0.043,1.297,0.585,1.394,1.293c0.097,0.708-0.32,1.388-0.996,1.622c-0.121,0.042-12.123,4.296-12.327,12.805
		c-0.019,0.766-0.612,1.395-1.376,1.458C70.271,55.046,70.229,55.047,70.188,55.047z M62.463,39.309
		c3.875,1.974,6.224,5.753,7.577,8.886c2.031-4.019,5.949-6.78,8.958-8.417c-4.132-1.847-6.777-5.659-8.324-8.732
		C68.877,35.403,65.396,37.907,62.463,39.309z"/>
	<path fill="#D7E057" d="M48.602,43.055c0,0,2.401,8.957,9.341,9.38c0,0-9.27,3.19-9.434,10.035c0,0-1.813-9.602-9.131-9.954
		C39.378,52.515,47.903,51.233,48.602,43.055z"/>
	<path fill="#3A312A" d="M48.508,63.97c-0.714,0-1.338-0.508-1.473-1.222c-0.016-0.082-1.694-8.443-7.729-8.735
		c-0.771-0.037-1.387-0.652-1.426-1.422c-0.039-0.77,0.512-1.444,1.275-1.559c0.296-0.046,7.365-1.234,7.952-8.104
		c0.062-0.726,0.637-1.302,1.362-1.367c0.728-0.062,1.391,0.401,1.581,1.104l0,0c0.021,0.079,2.219,7.922,7.984,8.273
		c0.714,0.043,1.298,0.585,1.395,1.295c0.097,0.709-0.321,1.388-0.998,1.621c-0.081,0.028-8.286,2.943-8.422,8.652
		c-0.019,0.767-0.613,1.396-1.377,1.459C48.59,63.968,48.549,63.97,48.508,63.97z M44,52.437c2.105,1.335,3.52,3.398,4.441,5.285
		c1.378-2.231,3.519-3.868,5.37-4.967c-2.285-1.272-3.88-3.354-4.935-5.229C47.701,49.812,45.857,51.398,44,52.437z"/>
	<path fill="#D7E057" d="M48.632,16.398c0,0,2.401,8.957,9.341,9.38c0,0-9.27,3.19-9.434,10.035c0,0-1.813-9.602-9.131-9.955
		C39.409,25.858,47.934,24.576,48.632,16.398z"/>
	<path fill="#3A312A" d="M48.539,37.313c-0.715,0-1.338-0.508-1.473-1.222c-0.016-0.082-1.694-8.444-7.729-8.735
		c-0.77-0.037-1.387-0.652-1.426-1.422c-0.039-0.77,0.512-1.444,1.275-1.559c0.296-0.046,7.365-1.234,7.952-8.104
		c0.062-0.726,0.637-1.302,1.362-1.367c0.721-0.065,1.391,0.401,1.581,1.104c0.031,0.111,2.231,7.922,7.984,8.273
		c0.714,0.043,1.298,0.585,1.395,1.295c0.097,0.709-0.321,1.388-0.998,1.621c-0.081,0.028-8.286,2.943-8.422,8.652
		c-0.019,0.767-0.613,1.396-1.378,1.459C48.62,37.311,48.579,37.313,48.539,37.313z M44.031,25.78
		c2.105,1.335,3.519,3.398,4.441,5.285c1.378-2.231,3.52-3.868,5.371-4.966c-2.286-1.271-3.881-3.354-4.936-5.229
		C47.731,23.154,45.888,24.741,44.031,25.78z"/>
	<path fill="#89C4DB" d="M93.452,164.219c0.185,22.477,0.423,40.751,0.709,42.234h113.882c0.739-3.964,1.14-127.807,1.14-131.428
		c0-32.072-26.013-58.072-58.102-58.072c-32.089,0-58.102,26-58.102,58.072c0,1.977,0.124,39.765,0.361,74.33
		c0.025,0,0.049-0.004,0.074-0.004L93.452,164.219z"/>
	<path fill="#3A312A" d="M208.044,207.953H94.162c-0.719,0-1.337-0.51-1.473-1.216c-0.11-0.572-0.403-2.091-0.736-42.506
		c-0.007-0.828,0.659-1.505,1.488-1.512c0.784,0.014,1.505,0.659,1.512,1.488c0.231,28.094,0.449,37.696,0.593,40.746H206.66
		c0.639-13.454,1.023-124.255,1.023-129.928c0-31.194-25.391-56.572-56.602-56.572c-31.21,0-56.602,25.378-56.602,56.572
		c0,2.31,0.124,39.622,0.358,73.85c0.05,0.15,0.078,0.31,0.078,0.477c0,0.839-0.697,1.533-1.529,1.5
		c-0.392,0-0.788-0.151-1.069-0.424c-0.288-0.28-0.473-0.662-0.476-1.063c-0.236-34.363-0.361-72.019-0.361-74.341
		c0-32.848,26.737-59.572,59.602-59.572c32.864,0,59.602,26.724,59.602,59.572c0,1.254-0.381,127.496-1.165,131.703
		C209.386,207.438,208.766,207.953,208.044,207.953z"/>
	<path fill="#F8E4C8" d="M187.045,183.251h-19.54v-18.799h-32.836v18.799h-19.552c-16.335,0-29.576,13.234-29.576,29.56V239.6
		h131.08v-26.788C216.621,196.485,203.38,183.251,187.045,183.251z"/>
	<path fill="#3A312A" d="M216.621,241.1H85.541c-0.829,0-1.5-0.671-1.5-1.5v-26.788c0-17.127,13.941-31.061,31.076-31.061h18.051
		v-17.299c0-0.829,0.671-1.5,1.5-1.5h32.836c0.829,0,1.5,0.671,1.5,1.5v17.299h18.04c17.135,0,31.076,13.934,31.076,31.061V239.6
		C218.121,240.428,217.45,241.1,216.621,241.1z M87.041,238.1h128.08v-25.288c0-15.473-12.595-28.061-28.076-28.061h-19.54
		c-0.829,0-1.5-0.671-1.5-1.5v-17.299h-29.836v17.299c0,0.829-0.671,1.5-1.5,1.5h-19.551c-15.481,0-28.076,12.588-28.076,28.061
		V238.1z"/>
	<path fill="#EB6E7A" d="M169.911,211.027H85.599c-0.035,0.588-0.058,1.179-0.058,1.776v26.799h131.08v-26.799
		c0-0.597-0.023-1.188-0.058-1.776h-33.068H169.911z"/>
	<path fill="#3A312A" d="M216.622,241.102H85.541c-0.829,0-1.5-0.671-1.5-1.5v-26.799c0-0.627,0.024-1.248,0.061-1.865
		c0.048-0.793,0.704-1.411,1.498-1.411h84.312c0.829,0,1.5,0.671,1.5,1.5c0,0.829-0.671,1.5-1.5,1.5H87.043
		c-0.001,0.092-0.002,0.184-0.002,0.276v25.299h128.08v-25.299c0-0.092-0.001-0.184-0.001-0.276h-31.624c-0.829,0-1.5-0.671-1.5-1.5
		c0-0.829,0.671-1.5,1.5-1.5h33.068c0.793,0,1.45,0.618,1.497,1.411c0.037,0.617,0.061,1.238,0.061,1.865v26.799
		C218.122,240.431,217.45,241.102,216.622,241.102z"/>
	<path fill-rule="evenodd" clip-rule="evenodd" fill="#F8E4C8" d="M111.932,109.973c0,6.424-5.21,11.631-11.638,11.631
		c-6.427,0-11.637-5.207-11.637-11.631c0-6.424,5.21-11.632,11.637-11.632C106.721,98.341,111.932,103.549,111.932,109.973z"/>
	<path fill="#3A312A" d="M100.294,123.104c-7.244,0-13.137-5.891-13.137-13.131c0-7.241,5.894-13.131,13.137-13.131
		c7.244,0,13.138,5.891,13.138,13.131C113.432,117.213,107.538,123.104,100.294,123.104z M100.294,99.841
		c-5.59,0-10.137,4.545-10.137,10.131c0,5.586,4.547,10.131,10.137,10.131c5.59,0,10.138-4.545,10.138-10.131
		C110.432,104.386,105.884,99.841,100.294,99.841z"/>
	
		<ellipse transform="matrix(0.0021 -1 1 0.0021 91.4808 311.6144)" fill-rule="evenodd" clip-rule="evenodd" fill="#F8E4C8" cx="201.869" cy="109.973" rx="11.631" ry="11.637"/>
	<path fill="#3A312A" d="M201.869,123.104c-7.244,0-13.138-5.891-13.138-13.131c0-7.241,5.893-13.131,13.138-13.131
		c7.244,0,13.137,5.891,13.137,13.131C215.006,117.213,209.112,123.104,201.869,123.104z M201.869,99.841
		c-5.59,0-10.138,4.545-10.138,10.131c0,5.586,4.548,10.131,10.138,10.131c5.59,0,10.137-4.545,10.137-10.131
		C212.006,104.386,207.458,99.841,201.869,99.841z"/>
	<path fill="#F8E4C8" d="M202.673,104.326c0,28.478-27.441,72.189-51.59,72.189c-23.051,0-51.59-43.711-51.59-72.189
		c0-28.478,23.098-51.563,51.59-51.563C179.575,52.763,202.673,75.849,202.673,104.326z"/>
	<path fill="#3A312A" d="M151.083,178.015c-11.055,0-24.391-9.743-35.673-26.063c-10.743-15.539-17.417-33.789-17.417-47.626
		c0-29.259,23.816-53.063,53.09-53.063s53.09,23.804,53.09,53.063c0,13.995-6.514,32.241-17,47.619
		C175.876,168.513,162.721,178.015,151.083,178.015z M151.083,54.263c-27.62,0-50.09,22.458-50.09,50.063
		c0,13.261,6.47,30.856,16.885,45.92c10.722,15.509,23.135,24.769,33.205,24.769c10.475,0,23.04-9.256,33.612-24.76
		c10.164-14.906,16.478-32.505,16.478-45.929C201.173,76.721,178.703,54.263,151.083,54.263z"/>
	<path fill="#F8E4C8" d="M202.673,104.326c0,28.478-27.441,72.189-51.59,72.189c-23.051,0-51.59-43.711-51.59-72.189
		c0-28.478,23.098-51.563,51.59-51.563C179.575,52.763,202.673,75.849,202.673,104.326z"/>
	<path fill="#3A312A" d="M151.083,178.015c-11.055,0-24.391-9.743-35.673-26.063c-10.743-15.539-17.417-33.789-17.417-47.626
		c0-29.259,23.816-53.063,53.09-53.063s53.09,23.804,53.09,53.063c0,13.995-6.514,32.241-17,47.619
		C175.876,168.513,162.721,178.015,151.083,178.015z M151.083,54.263c-27.62,0-50.09,22.458-50.09,50.063
		c0,13.261,6.47,30.856,16.885,45.92c10.722,15.509,23.135,24.769,33.205,24.769c10.475,0,23.04-9.256,33.612-24.76
		c10.164-14.906,16.478-32.505,16.478-45.929C201.173,76.721,178.703,54.263,151.083,54.263z"/>
	<path fill="#89C4DB" d="M212.942,80.642c0,3.97-0.426,8.193-1.214,12.536h-19.432l-2.885-21.935l-2.885,21.935h-19.783
		l-2.885-21.935l-2.885,21.935H141.19l-2.885-21.935l-2.885,21.935h-19.783l-2.885-21.935l-2.885,21.935H90.477
		c-0.82-4.343-1.257-8.566-1.257-12.536c0-35.173,27.694-63.689,61.861-63.689C185.249,16.953,212.942,45.469,212.942,80.642z"/>
	<path fill="#3A312A" d="M211.729,94.678h-19.431c-0.753,0-1.389-0.558-1.487-1.304l-1.398-10.63l-1.398,10.63
		c-0.098,0.746-0.734,1.304-1.487,1.304h-19.783c-0.753,0-1.389-0.558-1.487-1.304l-1.398-10.63l-1.398,10.63
		c-0.098,0.746-0.734,1.304-1.487,1.304H141.19c-0.753,0-1.389-0.558-1.487-1.304l-1.398-10.629l-1.398,10.629
		c-0.098,0.746-0.734,1.304-1.487,1.304h-19.783c-0.753,0-1.389-0.558-1.487-1.304l-1.398-10.63l-1.398,10.63
		c-0.098,0.746-0.734,1.304-1.487,1.304H90.477c-0.721,0-1.34-0.513-1.474-1.222c-0.851-4.507-1.283-8.818-1.283-12.814
		c0-35.946,28.424-65.189,63.361-65.189c34.938,0,63.361,29.244,63.361,65.189c0,3.969-0.417,8.276-1.238,12.803
		C213.075,94.159,212.454,94.678,211.729,94.678z M193.613,91.678h16.854c0.648-3.899,0.976-7.605,0.976-11.036
		c0-34.291-27.078-62.189-60.361-62.189c-33.283,0-60.361,27.898-60.361,62.189c0,3.449,0.339,7.156,1.01,11.036h16.82l2.713-20.631
		c0.098-0.746,0.734-1.304,1.487-1.304s1.389,0.558,1.487,1.304l2.714,20.631h17.152l2.713-20.631
		c0.098-0.746,0.734-1.304,1.487-1.304s1.389,0.558,1.487,1.304l2.713,20.631h17.152l2.714-20.631
		c0.098-0.746,0.734-1.304,1.487-1.304s1.389,0.558,1.487,1.304l2.713,20.631h17.152l2.713-20.631
		c0.098-0.746,0.734-1.304,1.487-1.304c0.753,0,1.389,0.558,1.487,1.304L193.613,91.678z"/>
	<path fill="#3A312A" d="M137.903,103.744c0,2.78-2.254,5.033-5.035,5.033c-2.781,0-5.035-2.253-5.035-5.033
		c0-2.779,2.254-5.033,5.035-5.033C135.648,98.711,137.903,100.965,137.903,103.744z"/>
	<path fill="#3A312A" d="M174.331,103.744c0,2.78-2.254,5.033-5.036,5.033c-2.781,0-5.035-2.253-5.035-5.033
		c0-2.779,2.254-5.033,5.035-5.033C172.077,98.711,174.331,100.965,174.331,103.744z"/>
	<path fill="#F59689" d="M131.478,118.707c0,3.579-3.884,6.481-8.674,6.481c-4.791,0-8.674-2.902-8.674-6.481
		c0-3.58,3.884-6.481,8.674-6.481C127.594,112.226,131.478,115.127,131.478,118.707z"/>
	<path fill="#F59689" d="M188.033,118.707c0,3.579-3.883,6.481-8.674,6.481c-4.79,0-8.674-2.902-8.674-6.481
		c0-3.58,3.884-6.481,8.674-6.481C184.15,112.226,188.033,115.127,188.033,118.707z"/>
	<path fill="#3A312A" d="M151.081,147.651c-7.285,0-12.536-3.271-15.609-9.723c-0.356-0.748-0.039-1.643,0.709-1.999
		c0.749-0.356,1.644-0.038,1.999,0.709c2.569,5.392,6.789,8.013,12.901,8.013c7.824,0,11.827-5.164,12.85-7.895
		c0.292-0.776,1.157-1.168,1.931-0.878c0.776,0.291,1.169,1.155,0.878,1.931C164.965,142.55,159.307,147.651,151.081,147.651z"/>
	<path fill="#3A312A" d="M109.497,241.102c-0.829,0-1.5-0.671-1.5-1.5V218.43c0-0.829,0.671-1.5,1.5-1.5c0.829,0,1.5,0.671,1.5,1.5
		v21.173C110.997,240.431,110.326,241.102,109.497,241.102z"/>
	<path fill="#3A312A" d="M192.665,241.102c-0.829,0-1.5-0.671-1.5-1.5V218.43c0-0.829,0.671-1.5,1.5-1.5s1.5,0.671,1.5,1.5v21.173
		C194.165,240.431,193.494,241.102,192.665,241.102z"/>
	<path fill="#DECAAD" d="M214.921,209.523h-15c-1.63-13.92-13.51-24.77-27.88-24.77h15
		C201.411,184.753,213.291,195.603,214.921,209.523z"/>
	<rect x="200.121" y="212.523" fill="#D04E5D" width="15" height="25.58"/>
</g>
</svg>
