<?xml version="1.0" encoding="utf-8"?>
<!-- Generator: Adobe Illustrator 24.0.0, SVG Export Plug-In . SVG Version: 6.00 Build 0)  -->
<svg version="1.1" id="Layer_1" xmlns="http://www.w3.org/2000/svg" xmlns:xlink="http://www.w3.org/1999/xlink" x="0px" y="0px"
	 viewBox="0 0 256 256" enable-background="new 0 0 256 256" xml:space="preserve">
<g>
	<path fill="#87796F" d="M87.16,171.5h126.998c1.937-3.767,3.001-7.766,3.001-11.918c0-4.314-1.138-8.465-3.222-12.36
		c2.084-3.895,3.222-8.046,3.222-12.36c0-4.314-1.138-8.465-3.222-12.36c2.084-3.895,3.222-8.046,3.222-12.36
		c0-3.536-0.763-6.964-2.184-10.232c1.421-5.409,2.184-11.084,2.184-16.938c0-36.727-29.773-66.5-66.5-66.5s-66.5,29.773-66.5,66.5
		c0,5.854,0.763,11.53,2.184,16.938c-1.421,3.267-2.184,6.695-2.184,10.232c0,4.314,1.138,8.465,3.222,12.36
		c-2.084,3.895-3.222,8.046-3.222,12.36c0,4.314,1.138,8.465,3.222,12.36c-2.084,3.895-3.222,8.046-3.222,12.36
		C84.159,163.734,85.223,167.733,87.16,171.5z"/>
	<path fill="#3A312A" d="M214.158,173H87.16c-0.562,0-1.077-0.314-1.334-0.814c-2.101-4.087-3.166-8.328-3.166-12.604
		c0-4.206,1.02-8.36,3.032-12.36c-2.012-4-3.032-8.154-3.032-12.36c0-4.206,1.02-8.36,3.032-12.36c-2.012-4-3.032-8.153-3.032-12.36
		c0-3.497,0.707-6.976,2.104-10.349c-1.396-5.486-2.104-11.142-2.104-16.821c0-37.495,30.505-68,68-68s68,30.505,68,68
		c0,5.677-0.708,11.334-2.104,16.821c1.397,3.374,2.104,6.853,2.104,10.349c0,4.206-1.02,8.36-3.032,12.36
		c2.013,4,3.032,8.155,3.032,12.36c0,4.206-1.02,8.359-3.032,12.36c2.013,4,3.032,8.154,3.032,12.36
		c0,4.276-1.065,8.517-3.167,12.604C215.235,172.686,214.72,173,214.158,173z M88.091,170h125.135
		c1.615-3.404,2.433-6.904,2.433-10.418c0-3.956-1.024-7.876-3.045-11.652c-0.236-0.442-0.236-0.973,0-1.415
		c2.02-3.777,3.045-7.697,3.045-11.652c0-3.955-1.024-7.876-3.045-11.653c-0.236-0.442-0.236-0.973,0-1.415
		c2.02-3.776,3.045-7.697,3.045-11.652c0-3.248-0.693-6.49-2.06-9.634c-0.134-0.309-0.161-0.654-0.075-0.979
		c1.417-5.394,2.135-10.965,2.135-16.557c0-35.841-29.159-65-65-65s-65,29.159-65,65c0,5.594,0.718,11.165,2.135,16.557
		c0.086,0.326,0.059,0.671-0.075,0.979c-1.367,3.143-2.059,6.384-2.059,9.634c0,3.956,1.024,7.877,3.044,11.652
		c0.236,0.442,0.236,0.973,0,1.415c-2.02,3.776-3.044,7.697-3.044,11.653c0,3.956,1.024,7.876,3.044,11.652
		c0.236,0.442,0.236,0.973,0,1.415c-2.02,3.776-3.044,7.696-3.044,11.652C85.659,163.096,86.477,166.596,88.091,170z"/>
	<path fill="#F8E4C8" d="M186.623,183.271h-19.54v-18.799h-32.836v18.799h-19.552c-16.335,0-29.576,13.234-29.576,29.56v26.788
		h131.08v-26.788C216.199,196.505,202.958,183.271,186.623,183.271z"/>
	<path fill="#3A312A" d="M216.199,241.119H85.119c-0.829,0-1.5-0.671-1.5-1.5v-26.788c0-17.127,13.94-31.061,31.076-31.061h18.052
		v-17.298c0-0.829,0.671-1.5,1.5-1.5h32.836c0.829,0,1.5,0.671,1.5,1.5v17.298h18.04c17.135,0,31.076,13.934,31.076,31.061v26.788
		C217.699,240.448,217.027,241.119,216.199,241.119z M86.619,238.119h128.08v-25.288c0-15.473-12.595-28.061-28.076-28.061h-19.54
		c-0.829,0-1.5-0.671-1.5-1.5v-17.298h-29.836v17.298c0,0.829-0.671,1.5-1.5,1.5h-19.552c-15.481,0-28.076,12.588-28.076,28.061
		V238.119z"/>
	<path fill="#EB6E7A" d="M169.489,211.046H85.177c-0.035,0.588-0.058,1.179-0.058,1.776v26.799h131.08v-26.799
		c0-0.597-0.023-1.188-0.058-1.776h-33.068H169.489z"/>
	<path fill="#3A312A" d="M216.199,241.122H85.119c-0.829,0-1.5-0.671-1.5-1.5v-26.799c0-0.626,0.024-1.247,0.06-1.864
		c0.047-0.792,0.704-1.412,1.498-1.412h84.312c0.829,0,1.5,0.671,1.5,1.5s-0.671,1.5-1.5,1.5H86.621
		c-0.001,0.092-0.001,0.184-0.001,0.276v25.299h128.08v-25.299c0-0.092-0.001-0.184-0.001-0.276h-31.625c-0.829,0-1.5-0.671-1.5-1.5
		s0.671-1.5,1.5-1.5h33.068c0.794,0,1.45,0.618,1.498,1.411c0.037,0.617,0.061,1.238,0.061,1.865v26.799
		C217.699,240.45,217.028,241.122,216.199,241.122z"/>
	<path fill-rule="evenodd" clip-rule="evenodd" fill="#F8E4C8" d="M111.509,109.992c0,6.424-5.21,11.631-11.638,11.631
		c-6.427,0-11.637-5.207-11.637-11.631c0-6.424,5.21-11.632,11.637-11.632C106.299,98.36,111.509,103.568,111.509,109.992z"/>
	<path fill="#3A312A" d="M99.872,123.123c-7.244,0-13.137-5.891-13.137-13.131S92.628,96.86,99.872,96.86
		c7.244,0,13.138,5.891,13.138,13.131S107.116,123.123,99.872,123.123z M99.872,99.86c-5.59,0-10.137,4.545-10.137,10.131
		s4.547,10.131,10.137,10.131c5.59,0,10.138-4.545,10.138-10.131S105.461,99.86,99.872,99.86z"/>
	
		<ellipse transform="matrix(0.0021 -1 1 0.0021 91.0401 311.2112)" fill-rule="evenodd" clip-rule="evenodd" fill="#F8E4C8" cx="201.446" cy="109.992" rx="11.631" ry="11.637"/>
	<path fill="#3A312A" d="M201.446,123.123c-7.244,0-13.138-5.891-13.138-13.131s5.894-13.131,13.138-13.131
		c7.244,0,13.137,5.891,13.137,13.131S208.69,123.123,201.446,123.123z M201.446,99.86c-5.59,0-10.138,4.545-10.138,10.131
		s4.548,10.131,10.138,10.131c5.59,0,10.137-4.545,10.137-10.131S207.036,99.86,201.446,99.86z"/>
	<path fill="#F8E4C8" d="M202.251,104.345c0,28.478-27.441,72.189-51.59,72.189c-23.051,0-51.59-43.711-51.59-72.189
		c0-28.478,23.098-51.563,51.59-51.563C179.153,52.782,202.251,75.868,202.251,104.345z"/>
	<path fill="#3A312A" d="M150.661,178.034c-11.055,0-24.391-9.743-35.673-26.062c-10.743-15.539-17.416-33.789-17.416-47.626
		c0-29.259,23.816-53.064,53.09-53.064c29.274,0,53.09,23.804,53.09,53.064c0,13.995-6.514,32.241-16.999,47.618
		C175.454,168.532,162.299,178.034,150.661,178.034z M150.661,54.282c-27.62,0-50.09,22.458-50.09,50.064
		c0,13.261,6.47,30.856,16.884,45.92c10.722,15.509,23.136,24.768,33.206,24.768c10.475,0,23.04-9.256,33.612-24.76
		c10.164-14.906,16.478-32.504,16.478-45.928C200.751,76.741,178.28,54.282,150.661,54.282z"/>
	<path fill="#3A312A" d="M137.48,103.763c0,2.78-2.254,5.033-5.035,5.033c-2.781,0-5.035-2.253-5.035-5.033
		c0-2.779,2.254-5.033,5.035-5.033C135.226,98.73,137.48,100.984,137.48,103.763z"/>
	<path fill="#3A312A" d="M173.908,103.763c0,2.78-2.254,5.033-5.035,5.033c-2.781,0-5.035-2.253-5.035-5.033
		c0-2.779,2.254-5.033,5.035-5.033C171.654,98.73,173.908,100.984,173.908,103.763z"/>
	<path fill="#F59689" d="M131.055,118.726c0,3.579-3.884,6.481-8.674,6.481c-4.791,0-8.674-2.902-8.674-6.481
		c0-3.58,3.884-6.481,8.674-6.481C127.172,112.245,131.055,115.146,131.055,118.726z"/>
	<path fill="#F59689" d="M187.611,118.726c0,3.579-3.883,6.481-8.674,6.481c-4.791,0-8.674-2.902-8.674-6.481
		c0-3.58,3.884-6.481,8.674-6.481C183.727,112.245,187.611,115.146,187.611,118.726z"/>
	<path fill="#3A312A" d="M109.075,241.122c-0.829,0-1.5-0.671-1.5-1.5v-21.172c0-0.829,0.671-1.5,1.5-1.5s1.5,0.671,1.5,1.5v21.172
		C110.575,240.45,109.903,241.122,109.075,241.122z"/>
	<path fill="#3A312A" d="M192.243,241.122c-0.829,0-1.5-0.671-1.5-1.5v-21.172c0-0.829,0.671-1.5,1.5-1.5s1.5,0.671,1.5,1.5v21.172
		C193.743,240.45,193.072,241.122,192.243,241.122z"/>
	<path fill="#3A312A" d="M150.659,147.67c-7.284,0-12.536-3.271-15.609-9.723c-0.356-0.748-0.039-1.643,0.709-1.999
		c0.748-0.357,1.643-0.038,1.999,0.709c2.569,5.392,6.789,8.013,12.901,8.013c7.825,0,11.828-5.164,12.851-7.895
		c0.291-0.776,1.157-1.168,1.931-0.878c0.776,0.291,1.169,1.155,0.878,1.931C164.542,142.569,158.884,147.67,150.659,147.67z"/>
	<path fill="#87796F" d="M209.373,85.447c0,5.283-0.688,10.404-1.987,15.279c-13.214-6.367-25.783-14.184-37.428-23.021
		c-3.416-2.588-6.779-5.283-9.991-8.139c-3.943-3.457-7.67-7.183-11.033-11.22c-7.316-8.805-12.687-18.919-17.232-29.453
		c5.737-1.858,11.86-2.856,18.22-2.856c17.006,0,32.347,7.14,43.186,18.586C203.196,55.264,209.373,69.631,209.373,85.447z"/>
	<path fill="#3A312A" d="M207.386,102.226c-0.223,0-0.445-0.05-0.651-0.149c-12.982-6.256-25.661-14.054-37.684-23.177
		c-3.836-2.906-7.134-5.593-10.081-8.213c-4.206-3.688-7.973-7.52-11.189-11.381c-6.516-7.842-12.063-17.316-17.457-29.818
		c-0.167-0.388-0.163-0.828,0.011-1.213c0.174-0.385,0.502-0.678,0.904-0.809c6.003-1.944,12.289-2.929,18.682-2.929
		c16.915,0,32.638,6.767,44.275,19.055c10.753,11.343,16.676,26.207,16.676,41.855c0,5.324-0.686,10.595-2.038,15.665
		c-0.115,0.432-0.417,0.79-0.823,0.977C207.813,102.181,207.599,102.226,207.386,102.226z M133.749,29.833
		c5.066,11.476,10.28,20.262,16.339,27.555c3.116,3.74,6.773,7.459,10.869,11.051c2.895,2.574,6.133,5.212,9.907,8.071
		c11.352,8.614,23.292,16.028,35.516,22.057c0.992-4.27,1.495-8.674,1.495-13.119c0-14.877-5.63-29.008-15.854-39.792
		c-11.065-11.684-26.016-18.119-42.098-18.119C144.404,27.537,138.972,28.309,133.749,29.833z"/>
	<path fill="#87796F" d="M193.109,44.624c-10.227,9.32-21.357,17.566-33.142,24.943c-20.895,13.089-43.809,23.418-67.261,32.019
		c-1.45-5.132-2.224-10.544-2.224-16.138c0-26.457,17.307-48.876,41.22-56.554c5.737-1.858,11.86-2.856,18.22-2.856
		C166.928,26.037,182.269,33.178,193.109,44.624z"/>
	<path fill="#3A312A" d="M92.706,103.085c-0.235,0-0.469-0.055-0.682-0.164c-0.371-0.19-0.648-0.526-0.761-0.928
		c-1.513-5.354-2.28-10.921-2.28-16.546c0-26.566,16.984-49.867,42.262-57.982c6-1.943,12.286-2.928,18.679-2.928
		c16.915,0,32.638,6.767,44.275,19.055c0.277,0.292,0.424,0.684,0.41,1.086c-0.015,0.402-0.191,0.782-0.489,1.054
		c-9.829,8.957-21.051,17.403-33.356,25.105c-19.14,11.989-41.233,22.508-67.54,32.156C93.055,103.055,92.88,103.085,92.706,103.085
		z M149.922,27.537c-6.079,0-12.054,0.937-17.758,2.784c-24.036,7.716-40.182,29.87-40.182,55.127c0,4.802,0.587,9.558,1.748,14.162
		c25.433-9.42,46.853-19.67,65.44-31.314c11.676-7.309,22.359-15.291,31.779-23.742C180.001,33.567,165.492,27.537,149.922,27.537z"
		/>
	<path fill="#D7E057" d="M69.752,26.056c0,0,3.408,12.659,13.222,13.246c0,0-13.1,4.525-13.321,14.202
		c0,0-2.578-13.572-12.925-14.059C56.728,39.445,68.778,37.619,69.752,26.056z"/>
	<path fill="#3A312A" d="M69.652,55.003c-0.713,0-1.336-0.506-1.472-1.217c-0.024-0.124-2.495-12.417-11.523-12.842
		c-0.771-0.037-1.388-0.651-1.428-1.421c-0.04-0.771,0.511-1.445,1.273-1.561c0.441-0.069,10.894-1.817,11.754-12.033
		c0.061-0.725,0.634-1.301,1.359-1.367c0.723-0.063,1.393,0.399,1.583,1.102c0.032,0.116,3.259,11.626,11.864,12.14
		c0.714,0.043,1.298,0.584,1.396,1.292c0.098,0.708-0.319,1.388-0.994,1.623c-0.121,0.042-12.118,4.311-12.313,12.819
		c-0.017,0.767-0.61,1.396-1.374,1.459C69.736,55.002,69.693,55.003,69.652,55.003z M61.911,39.274
		c3.878,1.969,6.23,5.746,7.587,8.876c2.026-4.021,5.942-6.787,8.949-8.427c-4.134-1.842-6.783-5.651-8.334-8.722
		C68.319,35.361,64.841,37.869,61.911,39.274z"/>
	<path fill="#D7E057" d="M48.053,43.036c0,0,2.411,8.954,9.352,9.369c0,0-9.266,3.201-9.422,10.045c0,0-1.824-9.6-9.142-9.944
		C38.841,52.507,47.364,51.215,48.053,43.036z"/>
	<path fill="#3A312A" d="M47.981,63.951c-0.713,0-1.337-0.507-1.472-1.22c-0.016-0.082-1.704-8.441-7.739-8.725
		c-0.771-0.037-1.388-0.651-1.428-1.421c-0.04-0.771,0.511-1.445,1.273-1.561c0.296-0.047,7.364-1.243,7.942-8.114
		c0.061-0.726,0.635-1.303,1.36-1.368c0.728-0.063,1.392,0.4,1.582,1.102l0,0c0.021,0.079,2.228,7.919,7.994,8.264
		c0.715,0.043,1.299,0.584,1.397,1.293c0.098,0.709-0.319,1.388-0.996,1.622c-0.081,0.028-8.282,2.953-8.413,8.662
		c-0.018,0.767-0.611,1.397-1.376,1.461C48.064,63.949,48.023,63.951,47.981,63.951z M43.463,52.423
		c2.106,1.333,3.523,3.394,4.447,5.28c1.376-2.232,3.515-3.872,5.365-4.973c-2.287-1.269-3.884-3.35-4.941-5.224
		C47.16,49.793,45.319,51.382,43.463,52.423z"/>
	<path fill="#D7E057" d="M48.053,16.378c0,0,2.411,8.954,9.352,9.37c0,0-9.266,3.201-9.422,10.045c0,0-1.824-9.6-9.142-9.944
		C38.841,25.849,47.364,24.558,48.053,16.378z"/>
	<path fill="#3A312A" d="M47.981,37.293c-0.713,0-1.337-0.507-1.472-1.22c-0.016-0.082-1.704-8.442-7.739-8.726
		c-0.771-0.037-1.388-0.651-1.428-1.421c-0.04-0.771,0.511-1.445,1.273-1.561c0.296-0.047,7.364-1.243,7.942-8.114
		c0.061-0.726,0.635-1.303,1.36-1.368c0.728-0.064,1.392,0.4,1.582,1.101l0,0c0.021,0.079,2.228,7.92,7.994,8.265
		c0.714,0.043,1.299,0.584,1.396,1.293c0.098,0.709-0.32,1.388-0.996,1.622c-0.081,0.028-8.282,2.952-8.413,8.662
		c-0.018,0.767-0.611,1.398-1.376,1.461C48.064,37.292,48.023,37.293,47.981,37.293z M43.463,25.766
		c2.107,1.333,3.523,3.395,4.447,5.28c1.376-2.232,3.515-3.872,5.365-4.972c-2.287-1.27-3.884-3.35-4.941-5.224
		C47.16,23.136,45.319,24.725,43.463,25.766z"/>
	<path fill="#DECAAD" d="M214.499,209.542h-15c-1.63-13.92-13.51-24.77-27.88-24.77h15
		C200.989,184.772,212.869,195.622,214.499,209.542z"/>
	<rect x="199.699" y="212.542" fill="#D04E5D" width="15" height="25.58"/>
</g>
</svg>
