<?xml version="1.0" encoding="utf-8"?>
<!-- Generator: Adobe Illustrator 24.0.0, SVG Export Plug-In . SVG Version: 6.00 Build 0)  -->
<svg version="1.1" id="Layer_1" xmlns="http://www.w3.org/2000/svg" xmlns:xlink="http://www.w3.org/1999/xlink" x="0px" y="0px"
	 viewBox="0 0 256 256" enable-background="new 0 0 256 256" xml:space="preserve">
<g>
	<path fill="#D7E057" d="M63.034,26.056c0,0,3.408,12.659,13.222,13.246c0,0-13.1,4.525-13.321,14.202
		c0,0-2.578-13.572-12.925-14.059C50.01,39.445,62.061,37.619,63.034,26.056z"/>
	<path fill="#3A312A" d="M62.934,55.003c-0.713,0-1.335-0.506-1.472-1.217c-0.024-0.124-2.494-12.417-11.522-12.842
		c-0.771-0.037-1.388-0.651-1.428-1.421c-0.039-0.771,0.511-1.445,1.274-1.561c0.441-0.069,10.894-1.817,11.755-12.033
		c0.061-0.725,0.634-1.301,1.359-1.367c0.731-0.06,1.393,0.399,1.583,1.102c0.032,0.116,3.258,11.626,11.863,12.14
		c0.714,0.043,1.298,0.584,1.396,1.292c0.098,0.708-0.319,1.388-0.994,1.623c-0.121,0.042-12.118,4.311-12.313,12.819
		c-0.018,0.767-0.61,1.396-1.375,1.459C63.018,55.002,62.976,55.003,62.934,55.003z M55.193,39.274
		c3.878,1.969,6.23,5.746,7.587,8.876c2.026-4.021,5.942-6.787,8.949-8.427c-4.134-1.842-6.783-5.651-8.334-8.722
		C61.602,35.361,58.124,37.869,55.193,39.274z"/>
	<path fill="#D7E057" d="M41.336,43.036c0,0,2.411,8.954,9.352,9.369c0,0-9.266,3.201-9.422,10.045c0,0-1.824-9.6-9.142-9.944
		C32.123,52.507,40.647,51.215,41.336,43.036z"/>
	<path fill="#3A312A" d="M41.265,63.951c-0.714,0-1.337-0.507-1.473-1.22c-0.016-0.082-1.704-8.442-7.739-8.726
		c-0.77-0.037-1.388-0.651-1.428-1.421c-0.04-0.771,0.511-1.445,1.273-1.561c0.296-0.047,7.364-1.243,7.942-8.114
		c0.061-0.726,0.635-1.303,1.36-1.368c0.73-0.063,1.392,0.4,1.582,1.102l0,0c0.021,0.079,2.227,7.919,7.993,8.264
		c0.715,0.043,1.299,0.584,1.396,1.293c0.098,0.709-0.319,1.388-0.996,1.622c-0.08,0.028-8.282,2.953-8.412,8.662
		c-0.018,0.767-0.611,1.397-1.376,1.461C41.347,63.949,41.306,63.951,41.265,63.951z M36.746,52.423
		c2.107,1.333,3.523,3.394,4.447,5.28c1.376-2.232,3.515-3.872,5.364-4.973c-2.287-1.269-3.884-3.35-4.941-5.223
		C40.443,49.793,38.601,51.382,36.746,52.423z"/>
	<path fill="#D7E057" d="M41.336,16.378c0,0,2.411,8.954,9.352,9.37c0,0-9.266,3.201-9.422,10.045c0,0-1.824-9.6-9.142-9.944
		C32.123,25.849,40.647,24.558,41.336,16.378z"/>
	<path fill="#3A312A" d="M41.265,37.293c-0.714,0-1.337-0.507-1.473-1.22c-0.016-0.082-1.704-8.442-7.739-8.726
		c-0.77-0.037-1.388-0.651-1.428-1.421c-0.04-0.771,0.511-1.445,1.273-1.561c0.296-0.047,7.364-1.243,7.942-8.114
		c0.061-0.726,0.635-1.303,1.36-1.368c0.73-0.064,1.392,0.4,1.582,1.101l0,0c0.021,0.079,2.227,7.92,7.994,8.265
		c0.714,0.043,1.299,0.584,1.396,1.293c0.098,0.709-0.32,1.388-0.996,1.622c-0.081,0.028-8.282,2.952-8.412,8.662
		c-0.018,0.767-0.611,1.398-1.376,1.461C41.347,37.292,41.306,37.293,41.265,37.293z M36.746,25.766
		c2.106,1.333,3.522,3.394,4.447,5.279c1.376-2.232,3.515-3.872,5.365-4.972c-2.287-1.27-3.884-3.35-4.941-5.224
		C40.443,23.136,38.602,24.725,36.746,25.766z"/>
	<path fill="#F8E4C8" d="M179.905,183.271h-19.54v-18.799h-32.836v18.799h-19.552c-16.335,0-29.576,13.234-29.576,29.56v26.788
		h131.08v-26.788C209.481,196.505,196.24,183.271,179.905,183.271z"/>
	<path fill="#3A312A" d="M209.481,241.119H78.401c-0.829,0-1.5-0.671-1.5-1.5v-26.788c0-17.127,13.94-31.061,31.076-31.061h18.052
		v-17.298c0-0.829,0.671-1.5,1.5-1.5h32.836c0.829,0,1.5,0.671,1.5,1.5v17.298h18.04c17.135,0,31.076,13.934,31.076,31.061v26.788
		C210.981,240.448,210.31,241.119,209.481,241.119z M79.901,238.119h128.08v-25.288c0-15.473-12.595-28.061-28.076-28.061h-19.54
		c-0.829,0-1.5-0.671-1.5-1.5v-17.298h-29.836v17.298c0,0.829-0.671,1.5-1.5,1.5h-19.552c-15.481,0-28.076,12.588-28.076,28.061
		V238.119z"/>
	<path fill="#EB6E7A" d="M162.771,211.046H78.459c-0.035,0.588-0.058,1.179-0.058,1.776v26.799h131.08v-26.799
		c0-0.597-0.023-1.188-0.058-1.776h-33.068H162.771z"/>
	<path fill="#3A312A" d="M209.481,241.122H78.401c-0.829,0-1.5-0.671-1.5-1.5v-26.799c0-0.626,0.024-1.247,0.061-1.864
		c0.047-0.792,0.704-1.412,1.498-1.412h84.312c0.829,0,1.5,0.671,1.5,1.5s-0.671,1.5-1.5,1.5H79.903
		c-0.001,0.092-0.002,0.184-0.002,0.276v25.299h128.08v-25.299c0-0.092,0-0.184-0.001-0.276h-31.624c-0.829,0-1.5-0.671-1.5-1.5
		s0.671-1.5,1.5-1.5h33.068c0.794,0,1.45,0.618,1.498,1.411c0.037,0.617,0.06,1.238,0.06,1.865v26.799
		C210.981,240.45,210.31,241.122,209.481,241.122z"/>
	<path fill="#3A312A" d="M102.357,241.122c-0.829,0-1.5-0.671-1.5-1.5v-21.172c0-0.829,0.671-1.5,1.5-1.5c0.829,0,1.5,0.671,1.5,1.5
		v21.172C103.857,240.45,103.186,241.122,102.357,241.122z"/>
	<path fill="#3A312A" d="M185.525,241.122c-0.829,0-1.5-0.671-1.5-1.5v-21.172c0-0.829,0.671-1.5,1.5-1.5c0.829,0,1.5,0.671,1.5,1.5
		v21.172C187.025,240.45,186.354,241.122,185.525,241.122z"/>
	<path fill="#87796F" d="M190.027,119.001c10.173,8.501,22.781,11.738,33.849,9.772c-0.437,0.659-0.922,1.297-1.435,1.911
		c-7.214,8.632-19.328,11.132-30.678,7.426c5.747,8.149,13.755,13.792,22.285,16.107c-0.677,0.41-1.387,0.78-2.113,1.116
		c-10.345,4.792-22.553,1.739-31.261-6.709c2.655,9.674,8.322,17.739,15.616,22.814c-0.775,0.158-1.568,0.268-2.365,0.341
		c-15.379,1.402-29.152-11.892-30.775-29.693C162.315,132.929,188.216,117.487,190.027,119.001z"/>
	<path fill="#3A312A" d="M191.679,173.381c-7.04,0-13.831-2.851-19.342-8.169c-6.07-5.858-9.863-14.023-10.681-22.991
		c-0.783-8.589,16.283-19.562,22.323-22.728c5.089-2.668,6.253-2.276,7.01-1.644l0,0c9.418,7.87,21.612,11.4,32.625,9.445
		c0.588-0.103,1.188,0.152,1.517,0.654c0.329,0.502,0.328,1.151-0.004,1.651c-0.444,0.67-0.96,1.358-1.534,2.045
		c-6.481,7.756-17.099,11.082-27.93,9.016c5.15,5.943,11.693,10.184,18.779,12.107c0.579,0.157,1.009,0.645,1.092,1.239
		c0.083,0.595-0.195,1.182-0.708,1.492c-0.688,0.416-1.448,0.818-2.259,1.194c-9.089,4.21-19.912,2.776-28.76-3.513
		c2.876,7.026,7.5,12.961,13.341,17.025c0.493,0.343,0.733,0.946,0.612,1.534c-0.122,0.588-0.581,1.047-1.17,1.167
		c-0.789,0.161-1.64,0.284-2.529,0.365C193.265,173.345,192.47,173.381,191.679,173.381z M189.393,120.423
		c-2.525,0.464-14.396,7.091-21.026,14.407c-2.599,2.867-3.886,5.329-3.723,7.119c0.752,8.252,4.224,15.747,9.776,21.105
		c5.144,4.964,11.503,7.529,18.037,7.314c-6.242-5.343-10.882-12.795-13.229-21.347c-0.179-0.652,0.101-1.344,0.683-1.688
		c0.582-0.344,1.322-0.257,1.808,0.214c8.164,7.921,19.153,10.571,28.359,6.95c-7.624-2.916-14.465-8.327-19.54-15.523
		c-0.372-0.528-0.365-1.235,0.02-1.755c0.384-0.52,1.059-0.736,1.672-0.535c10.611,3.465,21.508,1.115,28.178-5.967
		C209.71,131.518,198.385,127.799,189.393,120.423z M189.065,120.151c0.001,0.001,0.001,0.001,0.002,0.001
		C189.066,120.152,189.066,120.152,189.065,120.151L189.065,120.151z"/>
	<path fill="#87796F" d="M97.856,119.001c-10.173,8.501-22.781,11.738-33.849,9.772c0.437,0.659,0.922,1.297,1.435,1.911
		c7.214,8.632,19.328,11.132,30.678,7.426c-5.747,8.149-13.755,13.792-22.285,16.107c0.677,0.41,1.387,0.78,2.113,1.116
		c10.345,4.792,22.553,1.739,31.261-6.709c-2.655,9.674-8.322,17.739-15.616,22.814c0.775,0.158,1.569,0.268,2.365,0.341
		c15.379,1.402,29.152-11.892,30.775-29.693C125.568,132.929,99.667,117.487,97.856,119.001z"/>
	<path fill="#3A312A" d="M96.204,173.381c-0.791,0-1.585-0.036-2.381-0.109c-0.891-0.081-1.742-0.204-2.53-0.365
		c-0.588-0.12-1.048-0.579-1.169-1.167c-0.121-0.588,0.12-1.191,0.612-1.534c5.841-4.064,10.465-9.999,13.341-17.025
		c-8.848,6.289-19.671,7.723-28.76,3.513c-0.812-0.376-1.572-0.778-2.26-1.194c-0.513-0.311-0.792-0.898-0.709-1.492
		c0.084-0.595,0.513-1.082,1.092-1.239c7.086-1.924,13.628-6.164,18.779-12.107c-10.831,2.065-21.449-1.259-27.93-9.017
		c-0.574-0.686-1.09-1.374-1.534-2.044c-0.332-0.5-0.333-1.149-0.004-1.651c0.329-0.502,0.931-0.757,1.517-0.654
		c11.009,1.957,23.206-1.575,32.625-9.445l0,0c0.757-0.631,1.92-1.024,7.01,1.644c6.04,3.166,23.106,14.138,22.323,22.728
		c-0.817,8.968-4.61,17.133-10.681,22.991C110.035,170.53,103.243,173.38,96.204,173.381z M95.426,170.367
		c6.532,0.221,12.892-2.349,18.037-7.314c5.552-5.357,9.024-12.853,9.776-21.105c0.163-1.79-1.125-4.251-3.723-7.119
		c-6.631-7.316-18.501-13.943-21.026-14.407c-8.99,7.376-20.314,11.092-31.014,10.294c6.67,7.083,17.568,9.431,28.178,5.967
		c0.616-0.201,1.289,0.015,1.672,0.535c0.384,0.52,0.392,1.227,0.019,1.756c-5.075,7.196-11.916,12.607-19.54,15.522
		c9.207,3.622,20.195,0.972,28.359-6.95c0.485-0.471,1.226-0.559,1.808-0.214c0.582,0.344,0.862,1.036,0.683,1.688
		C106.308,157.572,101.668,165.024,95.426,170.367z M98.817,120.151c0,0.001-0.001,0.001-0.001,0.001
		C98.816,120.152,98.817,120.152,98.817,120.151L98.817,120.151z"/>
	
		<ellipse transform="matrix(0.002 -1 1 0.002 -15.6487 199.7173)" fill-rule="evenodd" clip-rule="evenodd" fill="#F7E3C7" cx="92.237" cy="107.699" rx="11.843" ry="11.849"/>
	<path fill="#3A312A" d="M92.237,121.041c-7.361,0-13.349-5.985-13.349-13.343c0-7.357,5.988-13.343,13.349-13.343
		c7.36,0,13.349,5.985,13.349,13.343C105.585,115.056,99.597,121.041,92.237,121.041z M92.237,97.356
		c-5.707,0-10.349,4.64-10.349,10.343c0,5.703,4.643,10.343,10.349,10.343c5.706,0,10.349-4.64,10.349-10.343
		C102.585,101.996,97.943,97.356,92.237,97.356z"/>
	<path fill-rule="evenodd" clip-rule="evenodd" fill="#F7E3C7" d="M207.506,107.699c0,6.541-5.305,11.843-11.849,11.843
		c-6.544,0-11.849-5.302-11.849-11.843c0-6.541,5.305-11.843,11.849-11.843C202.201,95.856,207.506,101.158,207.506,107.699z"/>
	<path fill="#3A312A" d="M195.658,121.041c-7.361,0-13.35-5.985-13.35-13.343c0-7.357,5.989-13.343,13.35-13.343
		c7.36,0,13.349,5.985,13.349,13.343C209.006,115.056,203.018,121.041,195.658,121.041z M195.658,97.356
		c-5.707,0-10.35,4.64-10.35,10.343c0,5.703,4.643,10.343,10.35,10.343c5.706,0,10.349-4.64,10.349-10.343
		C206.006,101.996,201.364,97.356,195.658,97.356z"/>
	<path fill="#F7E3C7" d="M196.475,101.95c0,28.995-27.939,73.501-52.528,73.501c-23.47,0-52.528-44.506-52.528-73.501
		c0-28.995,23.518-52.501,52.528-52.501C172.957,49.45,196.475,72.955,196.475,101.95z"/>
	<path fill="#3A312A" d="M143.947,176.951c-11.247,0-24.816-9.915-36.299-26.524c-10.935-15.817-17.728-34.393-17.728-48.477
		c0-29.776,24.236-54.001,54.027-54.001s54.028,24.225,54.028,54.001c0,14.244-6.63,32.816-17.304,48.468
		C169.173,167.28,155.788,176.951,143.947,176.951z M143.947,50.95c-28.137,0-51.027,22.879-51.027,51.001
		c0,13.507,6.589,31.428,17.196,46.771c10.922,15.798,23.569,25.23,33.831,25.23c10.674,0,23.476-9.429,34.246-25.222
		c10.352-15.181,16.782-33.105,16.782-46.778C194.975,73.829,172.083,50.95,143.947,50.95z"/>
	<path fill="#3A312A" d="M130.529,101.357c0,2.83-2.295,5.124-5.127,5.124c-2.832,0-5.127-2.294-5.127-5.124
		c0-2.83,2.295-5.124,5.127-5.124C128.233,96.233,130.529,98.527,130.529,101.357z"/>
	<path fill="#3A312A" d="M167.619,101.357c0,2.83-2.295,5.124-5.127,5.124c-2.831,0-5.127-2.294-5.127-5.124
		c0-2.83,2.295-5.124,5.127-5.124C165.324,96.233,167.619,98.527,167.619,101.357z"/>
	<path fill="#F59689" d="M123.987,116.592c0,3.644-3.954,6.599-8.832,6.599c-4.878,0-8.832-2.955-8.832-6.599
		c0-3.645,3.954-6.599,8.832-6.599C120.033,109.993,123.987,112.947,123.987,116.592z"/>
	<path fill="#F59689" d="M181.571,116.592c0,3.644-3.954,6.599-8.832,6.599c-4.877,0-8.832-2.955-8.832-6.599
		c0-3.645,3.954-6.599,8.832-6.599C177.617,109.993,181.571,112.947,181.571,116.592z"/>
	<path fill="#3A312A" d="M143.947,146.035c-7.405,0-12.744-3.326-15.868-9.884c-0.356-0.748-0.039-1.643,0.709-1.999
		c0.748-0.357,1.644-0.039,1.999,0.709c2.62,5.501,6.925,8.174,13.16,8.174c7.981,0,12.065-5.27,13.11-8.056
		c0.291-0.776,1.159-1.168,1.931-0.878c0.776,0.291,1.169,1.156,0.878,1.931C158.06,140.85,152.308,146.035,143.947,146.035z"/>
	<path fill="#87796F" d="M204.473,82.708c0,5.379-0.7,10.593-2.023,15.557c-13.454-6.483-26.251-14.442-38.108-23.439
		c-3.478-2.635-6.902-5.379-10.173-8.287c-4.014-3.52-7.81-7.314-11.234-11.425c-7.449-8.965-12.918-19.263-17.545-29.988
		c5.841-1.891,12.076-2.908,18.551-2.908c17.315,0,32.935,7.27,43.971,18.924C198.184,51.977,204.473,66.605,204.473,82.708z"/>
	<path fill="#3A312A" d="M202.45,99.765c-0.223,0-0.445-0.05-0.651-0.149c-13.216-6.368-26.123-14.307-38.364-23.596
		c-3.902-2.956-7.259-5.69-10.262-8.36c-4.281-3.755-8.116-7.655-11.39-11.586c-6.632-7.982-12.278-17.626-17.769-30.354
		c-0.167-0.388-0.163-0.828,0.011-1.213c0.174-0.385,0.503-0.678,0.904-0.809c6.109-1.978,12.506-2.981,19.013-2.981
		c17.214,0,33.217,6.887,45.06,19.393c10.944,11.544,16.971,26.672,16.971,42.597c0,5.419-0.698,10.783-2.074,15.944
		c-0.115,0.432-0.417,0.789-0.823,0.977C202.877,99.72,202.663,99.765,202.45,99.765z M127.437,26.065
		c5.163,11.701,10.476,20.658,16.652,28.09c3.173,3.81,6.897,7.597,11.069,11.255c2.951,2.624,6.249,5.311,10.089,8.219
		c11.57,8.78,23.738,16.335,36.196,22.476c1.016-4.36,1.53-8.858,1.53-13.398c0-15.153-5.735-29.548-16.148-40.534
		c-11.272-11.902-26.501-18.456-42.883-18.456C138.31,23.718,132.766,24.507,127.437,26.065z"/>
	<path fill="#87796F" d="M187.913,41.143c-10.413,9.489-21.745,17.886-33.744,25.396c-21.275,13.326-44.606,23.844-68.484,32.601
		c-1.476-5.226-2.264-10.736-2.264-16.432c0-26.938,17.621-49.765,41.97-57.582c5.841-1.891,12.076-2.908,18.551-2.908
		C161.257,22.218,176.876,29.489,187.913,41.143z"/>
	<path fill="#3A312A" d="M85.685,100.64c-0.235,0-0.469-0.055-0.682-0.164c-0.372-0.19-0.648-0.526-0.761-0.928
		c-1.54-5.45-2.321-11.115-2.321-16.839c0-27.036,17.285-50.75,43.011-59.01c6.106-1.977,12.503-2.98,19.01-2.98
		c17.214,0,33.217,6.887,45.06,19.393c0.277,0.292,0.425,0.684,0.41,1.086c-0.015,0.402-0.191,0.782-0.489,1.054
		c-10.006,9.119-21.432,17.718-33.958,25.559c-19.488,12.207-41.98,22.915-68.763,32.737
		C86.034,100.609,85.859,100.64,85.685,100.64z M143.942,23.718c-6.192,0-12.279,0.954-18.089,2.835
		c-24.484,7.86-40.932,30.426-40.932,56.154c0,4.901,0.601,9.756,1.788,14.456c25.909-9.594,47.728-20.035,66.664-31.896
		c11.898-7.447,22.785-15.583,32.382-24.196C174.599,29.869,159.811,23.718,143.942,23.718z"/>
	<path fill="#DECAAD" d="M207.781,209.542h-15c-1.63-13.92-13.51-24.77-27.88-24.77h15
		C194.271,184.772,206.151,195.622,207.781,209.542z"/>
	<rect x="192.981" y="212.542" fill="#D04E5D" width="15" height="25.58"/>
</g>
</svg>
